<svg width="3108" height="3134" viewBox="0 0 3108 3134" fill="none" xmlns="http://www.w3.org/2000/svg">
<mask id="mask0_2440_6171" style="mask-type:alpha" maskUnits="userSpaceOnUse" x="44" y="45" width="2353" height="2237">
<path d="M1916.22 954.252L1591.4 118.334C1584.35 100.214 1572.69 84.107 1557.58 71.6313C1542.46 59.1555 1524.44 50.7501 1505.31 47.2596C1486.18 43.7691 1466.63 45.3163 1448.61 51.7457C1430.58 58.1751 1414.73 69.2602 1402.64 83.8879L845.23 758.805C833.149 773.441 825.259 791.103 822.351 810.015C819.443 828.928 821.618 848.425 828.661 866.548C835.703 884.671 847.363 900.783 862.47 913.265C877.577 925.747 895.599 934.159 914.725 937.656L1796.96 1098.65C1816.09 1102.15 1835.65 1100.6 1853.68 1094.16C1871.7 1087.73 1887.55 1076.64 1899.64 1062C1911.73 1047.37 1919.62 1029.71 1922.53 1010.79C1925.44 991.877 1923.27 972.377 1916.22 954.252Z" fill="#F41C52"/>
<path d="M1140.01 1894.09L815.184 1058.18C808.135 1040.06 796.469 1023.95 781.357 1011.48C766.245 999.001 748.22 990.596 729.093 987.105C709.965 983.615 690.408 985.163 672.386 991.593C654.364 998.023 638.512 1009.11 626.422 1023.74L69.0124 1698.65C56.9323 1713.29 49.0418 1730.95 46.1334 1749.86C43.2251 1768.77 45.4013 1788.27 52.4434 1806.39C59.4856 1824.52 71.1458 1840.63 86.2527 1853.11C101.36 1865.59 119.381 1874.01 138.508 1877.5L1020.75 2038.5C1039.88 2041.99 1059.44 2040.44 1077.46 2034.01C1095.49 2027.58 1111.34 2016.49 1123.43 2001.85C1135.51 1987.21 1143.41 1969.55 1146.32 1950.64C1149.23 1931.72 1147.05 1912.22 1140.01 1894.09Z" fill="#F41C52"/>
<path d="M2388.68 2135.07L2063.86 1299.16C2056.81 1281.04 2045.14 1264.93 2030.03 1252.45C2014.92 1239.98 1996.89 1231.57 1977.77 1228.08C1958.64 1224.59 1939.08 1226.14 1921.06 1232.57C1903.04 1239 1887.19 1250.08 1875.1 1264.71L1317.69 1939.63C1305.61 1954.26 1297.72 1971.93 1294.81 1990.84C1291.9 2009.75 1294.08 2029.25 1301.12 2047.37C1308.16 2065.49 1319.82 2081.6 1334.93 2094.08C1350.04 2106.57 1368.06 2114.98 1387.18 2118.48L2269.42 2279.47C2288.55 2282.96 2308.11 2281.42 2326.14 2274.98C2344.16 2268.55 2360.01 2257.46 2372.1 2242.82C2384.18 2228.19 2392.08 2210.53 2394.99 2191.61C2397.9 2172.7 2395.73 2153.2 2388.68 2135.07Z" fill="#F41C52"/>
</mask>
<g mask="url(#mask0_2440_6171)">
<g filter="url(#filter0_f_2440_6171)">
<circle cx="1524.94" cy="1264.62" r="439.82" transform="rotate(39.5532 1524.94 1264.62)" fill="#F41C52"/>
</g>
</g>
<defs>
<filter id="filter0_f_2440_6171" x="585.107" y="324.787" width="1879.66" height="1879.67" filterUnits="userSpaceOnUse" color-interpolation-filters="sRGB">
<feFlood flood-opacity="0" result="BackgroundImageFix"/>
<feBlend mode="normal" in="SourceGraphic" in2="BackgroundImageFix" result="shape"/>
<feGaussianBlur stdDeviation="250" result="effect1_foregroundBlur_2440_6171"/>
</filter>
</defs>
</svg>
