<svg width="230" height="29" viewBox="0 0 230 29" fill="none" xmlns="http://www.w3.org/2000/svg">
<path d="M31.354 20.6985C32.1824 20.7068 32.8472 21.3851 32.8389 22.2135C32.8306 23.0418 32.1524 23.7067 31.324 23.6984L31.354 20.6985ZM14.7087 16.1283L13.4675 16.9705L13.4675 16.9705L14.7087 16.1283ZM5.99633 1.08924C6.3271 0.329706 7.21096 -0.0178754 7.97049 0.312891L20.3477 5.70304C21.1073 6.03381 21.4548 6.91767 21.1241 7.6772C20.7933 8.43672 19.9095 8.78431 19.1499 8.45354L8.14793 3.6623L3.35668 14.6643C3.02592 15.4238 2.14206 15.7714 1.38253 15.4406C0.623 15.1099 0.275419 14.226 0.606185 13.4665L5.99633 1.08924ZM31.324 23.6984C26.6499 23.6516 23.0319 23.2241 20.1598 22.1772C17.2243 21.1072 15.1234 19.4107 13.4675 16.9705L15.9499 15.286C17.2602 17.2169 18.8575 18.5094 21.1872 19.3586C23.5801 20.2309 26.7943 20.6529 31.354 20.6985L31.324 23.6984ZM13.4675 16.9705C11.4277 13.9645 9.55359 10.269 8.20093 7.36102C7.52125 5.89981 6.96656 4.62289 6.58137 3.71025C6.38869 3.25372 6.23819 2.88779 6.13542 2.63489C6.08403 2.50842 6.04456 2.41018 6.0177 2.34296C6.00428 2.30935 5.994 2.28349 5.98696 2.26573C5.98344 2.25685 5.98073 2.24999 5.97884 2.24521C5.9779 2.24281 5.97716 2.24094 5.97662 2.23959C5.97636 2.23891 5.97614 2.23836 5.97598 2.23795C5.9759 2.23774 5.97581 2.23753 5.97577 2.23743C5.9757 2.23725 5.97565 2.2371 7.37158 1.68814C8.76752 1.13918 8.76749 1.1391 8.76747 1.13905C8.76748 1.13908 8.76748 1.13907 8.7675 1.13912C8.76754 1.13923 8.76764 1.13947 8.76778 1.13984C8.76808 1.14059 8.76857 1.14185 8.76927 1.14362C8.77068 1.14718 8.77289 1.15278 8.77591 1.16041C8.78195 1.17565 8.79121 1.19894 8.80359 1.22994C8.82836 1.29193 8.86563 1.38471 8.91472 1.50551C9.0129 1.74712 9.15827 2.10061 9.34528 2.54371C9.71949 3.43033 10.2595 4.67353 10.9211 6.09575C12.2509 8.9546 14.0453 12.4792 15.9499 15.286L13.4675 16.9705Z" fill="white"/>
<path d="M46.2316 22.7233C46.0441 22.735 45.8097 22.7292 45.5284 22.7057C45.2589 22.6823 45.007 22.7233 44.7726 22.8288C44.1515 22.8053 43.5187 22.7292 42.8741 22.6003C42.2296 22.4713 41.6378 22.3131 41.0988 22.1256C40.9816 21.9967 40.8644 21.8795 40.7472 21.7741C40.63 21.6569 40.4718 21.5749 40.2726 21.528C39.9913 21.3053 39.7628 21.0358 39.587 20.7194C39.4113 20.3913 39.2706 20.0456 39.1652 19.6823C39.0597 19.319 38.9894 18.9499 38.9542 18.5749C38.9191 18.1881 38.9073 17.819 38.9191 17.4674C39.0948 16.9401 39.3409 16.4889 39.6573 16.1139C39.9855 15.7272 40.3195 15.3463 40.6593 14.9713C40.8116 14.901 40.923 14.8307 40.9933 14.7604C41.0753 14.6784 41.1573 14.6081 41.2394 14.5495C41.3331 14.4792 41.421 14.4147 41.5031 14.3561C41.5968 14.2858 41.6788 14.2038 41.7491 14.11C41.9952 14.0514 42.2062 13.9694 42.382 13.8639C42.5695 13.7467 42.7511 13.6295 42.9269 13.5124C43.1027 13.3835 43.2843 13.2663 43.4718 13.1608C43.6593 13.0553 43.8761 12.9733 44.1222 12.9147C44.2159 12.8092 44.3273 12.7272 44.4562 12.6686C44.5851 12.5983 44.714 12.5338 44.8429 12.4753C44.9835 12.4049 45.1124 12.3346 45.2296 12.2643C45.3585 12.194 45.4581 12.1003 45.5284 11.9831C45.587 12.0768 45.6691 12.112 45.7745 12.0885C45.88 12.0534 45.9796 12.0182 46.0734 11.9831C46.132 11.9713 46.1788 11.9831 46.214 12.0182C46.2609 12.0534 46.3019 12.0885 46.337 12.1237C46.3722 12.1588 46.4015 12.1823 46.4249 12.194C46.4601 12.194 46.4894 12.1647 46.5128 12.1061C46.5714 12.1061 46.589 12.1354 46.5656 12.194C46.5421 12.2526 46.5245 12.2936 46.5128 12.317C46.6066 12.3053 46.6827 12.3288 46.7413 12.3874C46.8116 12.4342 46.9171 12.4635 47.0577 12.4753C47.1046 12.5338 47.1163 12.5807 47.0929 12.6159C47.0695 12.6393 47.0577 12.6862 47.0577 12.7565C47.4093 12.862 47.632 13.0319 47.7257 13.2663C47.8195 13.4889 47.8253 13.7233 47.7433 13.9694C47.6613 14.2155 47.5148 14.444 47.3038 14.6549C47.0929 14.8659 46.8644 15.0065 46.6183 15.0768C46.0558 15.2292 45.5226 15.3991 45.0187 15.5866C44.5265 15.7624 44.1222 16.026 43.8058 16.3776C43.5245 16.4596 43.2726 16.571 43.0499 16.7116C42.839 16.8405 42.6339 16.9928 42.4347 17.1686C42.2472 17.3327 42.0656 17.5085 41.8898 17.696C41.7257 17.8717 41.5499 18.0475 41.3624 18.2233C41.3741 18.3874 41.3448 18.5163 41.2745 18.61C41.2159 18.692 41.1573 18.7799 41.0988 18.8737C41.1222 19.0495 41.1632 19.2077 41.2218 19.3483C41.2804 19.4772 41.3448 19.6061 41.4152 19.735C42.1886 19.9694 43.0089 20.1159 43.8761 20.1745C44.755 20.2331 45.6339 20.2682 46.5128 20.2799C46.5948 20.3971 46.6886 20.5085 46.7941 20.6139C46.9113 20.7077 47.0167 20.8131 47.1105 20.9303C47.2042 21.0358 47.2804 21.1588 47.339 21.2995C47.3976 21.4284 47.4093 21.5924 47.3741 21.7917C47.2101 21.9674 47.0284 22.1315 46.8292 22.2838C46.63 22.4245 46.4308 22.571 46.2316 22.7233ZM57.1652 20.9831C57.1886 21.2878 57.1534 21.5397 57.0597 21.7389C56.9659 21.9381 56.837 22.1081 56.673 22.2487C56.5089 22.3893 56.3214 22.5006 56.1105 22.5827C55.8995 22.6647 55.6945 22.7409 55.4952 22.8112C55.4015 22.7526 55.3077 22.694 55.214 22.6354C55.132 22.5651 55.0323 22.5124 54.9152 22.4772C54.7628 22.196 54.6163 21.9499 54.4757 21.7389C54.3351 21.5163 54.2706 21.2643 54.2823 20.9831C54.2823 20.9713 54.2882 20.9069 54.2999 20.7897C54.3234 20.6725 54.3468 20.5436 54.3702 20.403C54.4054 20.2624 54.4288 20.1335 54.4406 20.0163C54.464 19.8874 54.4757 19.817 54.4757 19.8053C54.2062 19.8288 53.9249 19.8874 53.632 19.9811C53.339 20.0749 53.0519 20.1862 52.7706 20.3151C52.5011 20.444 52.2433 20.5729 51.9972 20.7018C51.7628 20.8307 51.5695 20.942 51.4171 21.0358C51.4171 21.071 51.3937 21.1588 51.3468 21.2995C51.2999 21.4284 51.2413 21.569 51.171 21.7213C51.1007 21.862 51.0245 21.9909 50.9425 22.1081C50.8605 22.2253 50.7784 22.2838 50.6964 22.2838C50.7081 22.319 50.7257 22.3542 50.7491 22.3893C50.7726 22.4245 50.7726 22.4713 50.7491 22.5299C50.5851 22.5768 50.4386 22.6354 50.3097 22.7057C50.1808 22.7878 50.046 22.8522 49.9054 22.8991C49.7648 22.9577 49.6124 22.987 49.4484 22.987C49.2843 22.987 49.0909 22.9284 48.8683 22.8112C48.8683 22.7409 48.839 22.6823 48.7804 22.6354C48.7218 22.5768 48.6573 22.5299 48.587 22.4948C48.5284 22.4479 48.4757 22.4128 48.4288 22.3893C48.382 22.3542 48.3585 22.3249 48.3585 22.3014C48.2999 22.3131 48.2765 22.2721 48.2882 22.1784C48.2999 22.0846 48.3468 22.0612 48.4288 22.1081C48.2999 21.944 48.2179 21.8034 48.1827 21.6862C48.1593 21.5573 48.0948 21.3991 47.9894 21.2116C48.0128 21.1881 48.0363 21.1471 48.0597 21.0885C48.0714 21.0299 48.0831 20.9772 48.0948 20.9303C48.1066 20.8835 48.1241 20.8483 48.1476 20.8249C48.171 20.8014 48.2003 20.8073 48.2355 20.8424C48.212 20.737 48.212 20.6491 48.2355 20.5788C48.2589 20.5085 48.2823 20.444 48.3058 20.3854C48.3292 20.3268 48.3468 20.2682 48.3585 20.2096C48.3702 20.151 48.3527 20.0866 48.3058 20.0163C48.4933 19.7585 48.6163 19.4831 48.6749 19.1901C48.7335 18.8854 48.7687 18.61 48.7804 18.3639C48.8624 18.2819 48.9327 18.1647 48.9913 18.0124C49.0616 17.86 49.1144 17.7077 49.1495 17.5553C49.1847 17.3913 49.1964 17.2389 49.1847 17.0983C49.1847 16.946 49.1671 16.8229 49.132 16.7292C49.1437 16.6706 49.2081 16.653 49.3253 16.6764C49.3956 16.2897 49.4425 15.8561 49.4659 15.3756C49.5011 14.8835 49.5538 14.4206 49.6241 13.987C49.6945 13.5417 49.8116 13.1549 49.9757 12.8268C50.1398 12.487 50.4034 12.2643 50.7667 12.1588C50.837 12.4049 50.9249 12.6217 51.0304 12.8092C51.1476 12.9967 51.2706 13.1784 51.3995 13.3542C51.5402 13.5182 51.6749 13.6881 51.8038 13.8639C51.9445 14.0397 52.0734 14.2389 52.1906 14.4616C52.1788 14.6842 52.1554 14.942 52.1202 15.235C52.0851 15.528 52.0382 15.8268 51.9796 16.1315C51.9327 16.4362 51.88 16.7292 51.8214 17.0104C51.7745 17.2917 51.7277 17.5319 51.6808 17.7311C51.6925 17.7897 51.7218 17.8249 51.7687 17.8366C51.8273 17.8483 51.839 17.901 51.8038 17.9948C52.0851 17.9245 52.3781 17.86 52.6827 17.8014C52.9874 17.7428 53.2921 17.6784 53.5968 17.6081C53.9015 17.5378 54.1945 17.4616 54.4757 17.3795C54.7687 17.2858 55.0382 17.1745 55.2843 17.0456C55.3429 16.5885 55.4191 16.1315 55.5128 15.6745C55.6066 15.2174 55.6183 14.7487 55.548 14.2682C55.6066 14.2213 55.6534 14.1628 55.6886 14.0924C55.7238 14.0221 55.7823 13.9753 55.8644 13.9518C55.8058 13.7292 55.7823 13.4948 55.7941 13.2487C55.8058 13.0026 55.8468 12.7682 55.9171 12.5456C55.9991 12.3229 56.1105 12.1354 56.2511 11.9831C56.4034 11.819 56.5851 11.7135 56.796 11.6667C56.9249 11.8542 57.0363 12.0592 57.13 12.2819C57.2238 12.4928 57.3175 12.7096 57.4113 12.9323C57.5167 13.1432 57.6222 13.3483 57.7277 13.5475C57.8448 13.735 57.9913 13.8991 58.1671 14.0397C58.2023 14.3795 58.2257 14.7311 58.2374 15.0944C58.2609 15.4577 58.2784 15.8268 58.2902 16.2018C58.1964 16.6471 58.0909 17.0807 57.9738 17.5026C57.8683 17.9128 57.7921 18.3522 57.7452 18.821C57.6632 18.9147 57.5988 19.0202 57.5519 19.1374C57.505 19.2545 57.4581 19.3776 57.4113 19.5065C57.3644 19.6237 57.3116 19.7409 57.2531 19.8581C57.1945 19.9635 57.1241 20.0573 57.0421 20.1393C57.089 20.2799 57.0948 20.4147 57.0597 20.5436C57.0363 20.6608 57.0714 20.8073 57.1652 20.9831ZM68.4503 12.7917C68.462 12.8737 68.462 12.9381 68.4503 12.985C68.4503 13.0202 68.4445 13.0553 68.4327 13.0905C68.4327 13.1256 68.4327 13.1667 68.4327 13.2135C68.4327 13.2487 68.4445 13.3073 68.4679 13.3893C68.2218 13.7878 67.9347 14.0631 67.6066 14.2155C67.2902 14.3561 66.9445 14.4616 66.5695 14.5319C66.1945 14.5905 65.8077 14.6549 65.4093 14.7253C65.0226 14.7956 64.6359 14.9479 64.2491 15.1823C64.0968 15.1237 63.9562 15.1237 63.8273 15.1823C63.7101 15.2409 63.5343 15.2585 63.2999 15.235C63.2296 15.3053 63.1417 15.3581 63.0363 15.3932C62.9308 15.4167 62.8253 15.446 62.7198 15.4811C62.7667 15.5866 62.7843 15.6979 62.7726 15.8151C62.7726 15.9206 62.7902 16.0085 62.8253 16.0788C63.2355 16.1139 63.6866 16.1081 64.1788 16.0612C64.6827 16.0143 65.1749 15.985 65.6554 15.9733C65.6671 16.0319 65.6613 16.0729 65.6378 16.0963C65.6144 16.1081 65.6085 16.1374 65.6202 16.1842C65.7023 16.2428 65.7843 16.319 65.8663 16.4128C65.9484 16.4948 66.0304 16.5768 66.1124 16.6588C66.1945 16.7409 66.2765 16.8112 66.3585 16.8698C66.4523 16.9167 66.5577 16.9342 66.6749 16.9225C66.7218 17.0163 66.7511 17.1217 66.7628 17.2389C66.7863 17.3444 66.7745 17.4557 66.7277 17.5729C66.5402 17.7018 66.3527 17.8366 66.1652 17.9772C65.9777 18.1061 65.7784 18.2233 65.5675 18.3288C65.3683 18.4342 65.1515 18.5221 64.9171 18.5924C64.6945 18.651 64.4425 18.6745 64.1613 18.6628C64.1027 18.6628 64.0558 18.6628 64.0206 18.6628C63.9972 18.6628 63.962 18.6452 63.9152 18.61C63.8214 18.6686 63.6866 18.6862 63.5109 18.6628C63.3468 18.6393 63.2179 18.6569 63.1241 18.7155C62.9952 18.6569 62.837 18.6335 62.6495 18.6452C62.4738 18.6452 62.3156 18.6217 62.1749 18.5749C61.9874 18.821 61.8175 19.0846 61.6652 19.3659C61.5128 19.6471 61.3781 19.946 61.2609 20.2624C61.6593 20.321 61.9874 20.3444 62.2452 20.3327C62.5148 20.321 62.7667 20.3034 63.0011 20.2799C63.2355 20.2448 63.4757 20.2155 63.7218 20.192C63.9679 20.1569 64.2784 20.1452 64.6534 20.1569C64.8878 20.028 65.1632 19.946 65.4796 19.9108C65.8077 19.8639 66.1066 19.7936 66.3761 19.6999C66.4698 19.735 66.5519 19.7995 66.6222 19.8932C66.6925 19.9753 66.757 20.0573 66.8156 20.1393C66.8859 20.2096 66.9562 20.2741 67.0265 20.3327C67.0968 20.3913 67.1847 20.4147 67.2902 20.403C67.337 20.4499 67.3663 20.5085 67.3781 20.5788C67.4015 20.6374 67.4191 20.696 67.4308 20.7545C67.4425 20.8131 67.4601 20.8659 67.4835 20.9128C67.5187 20.9479 67.5714 20.9596 67.6417 20.9479C67.4659 21.3346 67.2609 21.6335 67.0265 21.8444C66.8038 22.0436 66.546 22.196 66.2531 22.3014C65.9601 22.4069 65.632 22.4889 65.2687 22.5475C64.9171 22.6061 64.5245 22.6764 64.0909 22.7585C63.9855 22.7819 63.8976 22.776 63.8273 22.7409C63.757 22.7174 63.6749 22.7057 63.5812 22.7057C63.3116 22.7643 62.9894 22.817 62.6144 22.8639C62.2394 22.9108 61.8585 22.9284 61.4718 22.9167C61.0851 22.9049 60.7159 22.8522 60.3644 22.7585C60.0128 22.6764 59.7257 22.5241 59.5031 22.3014C59.4093 22.2194 59.3448 22.1256 59.3097 22.0202C59.2863 21.903 59.2101 21.8151 59.0812 21.7565C59.0695 21.6042 59.046 21.4342 59.0109 21.2467C58.9757 21.0592 58.9406 20.8659 58.9054 20.6667C58.8702 20.4557 58.8409 20.2506 58.8175 20.0514C58.8058 19.8522 58.8175 19.6706 58.8527 19.5065C58.8878 19.3307 58.9581 19.1725 59.0636 19.0319C59.1808 18.8913 59.2218 18.7389 59.1866 18.5749C59.2452 18.5631 59.2804 18.5338 59.2921 18.487C59.3038 18.4284 59.3507 18.4049 59.4327 18.4167C59.5031 18.2057 59.5792 18.0065 59.6613 17.819C59.7433 17.6315 59.8253 17.4499 59.9073 17.2741C60.0011 17.0983 60.089 16.9225 60.171 16.7467C60.2648 16.5592 60.3527 16.3542 60.4347 16.1315C60.2706 15.9792 60.1476 15.8151 60.0656 15.6393C59.9952 15.4518 59.9425 15.2702 59.9073 15.0944C59.8722 14.9069 59.8429 14.7194 59.8195 14.5319C59.796 14.3327 59.755 14.1335 59.6964 13.9342C59.8136 13.7585 59.9542 13.6178 60.1183 13.5124C60.2941 13.3952 60.4816 13.3014 60.6808 13.2311C60.88 13.1608 61.0968 13.1022 61.3312 13.0553C61.5656 13.0085 61.8116 12.9557 62.0695 12.8971C62.5382 12.7448 62.9542 12.6276 63.3175 12.5456C63.6925 12.4635 64.0558 12.3991 64.4073 12.3522C64.7706 12.2936 65.1456 12.2409 65.5323 12.194C65.9191 12.1471 66.3585 12.0768 66.8507 11.9831C66.9562 12.0885 67.0558 12.1413 67.1495 12.1413C67.1964 12.0358 67.2491 12.0065 67.3077 12.0534C67.3781 12.0885 67.4073 12.0534 67.3956 11.9479C67.5128 12.1471 67.6593 12.317 67.8351 12.4577C68.0226 12.5866 68.2277 12.6979 68.4503 12.7917ZM75.1652 22.7233C74.9777 22.735 74.7433 22.7292 74.462 22.7057C74.1925 22.6823 73.9406 22.7233 73.7062 22.8288C73.0851 22.8053 72.4523 22.7292 71.8077 22.6003C71.1632 22.4713 70.5714 22.3131 70.0323 22.1256C69.9152 21.9967 69.798 21.8795 69.6808 21.7741C69.5636 21.6569 69.4054 21.5749 69.2062 21.528C68.9249 21.3053 68.6964 21.0358 68.5206 20.7194C68.3448 20.3913 68.2042 20.0456 68.0988 19.6823C67.9933 19.319 67.923 18.9499 67.8878 18.5749C67.8527 18.1881 67.8409 17.819 67.8527 17.4674C68.0284 16.9401 68.2745 16.4889 68.5909 16.1139C68.9191 15.7272 69.2531 15.3463 69.5929 14.9713C69.7452 14.901 69.8566 14.8307 69.9269 14.7604C70.0089 14.6784 70.0909 14.6081 70.173 14.5495C70.2667 14.4792 70.3546 14.4147 70.4366 14.3561C70.5304 14.2858 70.6124 14.2038 70.6827 14.11C70.9288 14.0514 71.1398 13.9694 71.3156 13.8639C71.5031 13.7467 71.6847 13.6295 71.8605 13.5124C72.0363 13.3835 72.2179 13.2663 72.4054 13.1608C72.5929 13.0553 72.8097 12.9733 73.0558 12.9147C73.1495 12.8092 73.2609 12.7272 73.3898 12.6686C73.5187 12.5983 73.6476 12.5338 73.7765 12.4753C73.9171 12.4049 74.046 12.3346 74.1632 12.2643C74.2921 12.194 74.3917 12.1003 74.462 11.9831C74.5206 12.0768 74.6027 12.112 74.7081 12.0885C74.8136 12.0534 74.9132 12.0182 75.007 11.9831C75.0656 11.9713 75.1124 11.9831 75.1476 12.0182C75.1945 12.0534 75.2355 12.0885 75.2706 12.1237C75.3058 12.1588 75.3351 12.1823 75.3585 12.194C75.3937 12.194 75.423 12.1647 75.4464 12.1061C75.505 12.1061 75.5226 12.1354 75.4991 12.194C75.4757 12.2526 75.4581 12.2936 75.4464 12.317C75.5402 12.3053 75.6163 12.3288 75.6749 12.3874C75.7452 12.4342 75.8507 12.4635 75.9913 12.4753C76.0382 12.5338 76.0499 12.5807 76.0265 12.6159C76.0031 12.6393 75.9913 12.6862 75.9913 12.7565C76.3429 12.862 76.5656 13.0319 76.6593 13.2663C76.7531 13.4889 76.7589 13.7233 76.6769 13.9694C76.5948 14.2155 76.4484 14.444 76.2374 14.6549C76.0265 14.8659 75.798 15.0065 75.5519 15.0768C74.9894 15.2292 74.4562 15.3991 73.9523 15.5866C73.4601 15.7624 73.0558 16.026 72.7394 16.3776C72.4581 16.4596 72.2062 16.571 71.9835 16.7116C71.7726 16.8405 71.5675 16.9928 71.3683 17.1686C71.1808 17.3327 70.9991 17.5085 70.8234 17.696C70.6593 17.8717 70.4835 18.0475 70.296 18.2233C70.3077 18.3874 70.2784 18.5163 70.2081 18.61C70.1495 18.692 70.0909 18.7799 70.0323 18.8737C70.0558 19.0495 70.0968 19.2077 70.1554 19.3483C70.214 19.4772 70.2784 19.6061 70.3488 19.735C71.1222 19.9694 71.9425 20.1159 72.8097 20.1745C73.6886 20.2331 74.5675 20.2682 75.4464 20.2799C75.5284 20.3971 75.6222 20.5085 75.7277 20.6139C75.8448 20.7077 75.9503 20.8131 76.0441 20.9303C76.1378 21.0358 76.214 21.1588 76.2726 21.2995C76.3312 21.4284 76.3429 21.5924 76.3077 21.7917C76.1437 21.9674 75.962 22.1315 75.7628 22.2838C75.5636 22.4245 75.3644 22.571 75.1652 22.7233ZM87.6984 22.0553C87.1359 22.0788 86.6378 22.067 86.2042 22.0202C85.7823 21.9733 85.3663 21.862 84.9562 21.6862C84.9327 21.6745 84.9093 21.6452 84.8859 21.5983C84.8624 21.5514 84.839 21.5163 84.8156 21.4928C84.7452 21.4577 84.6573 21.446 84.5519 21.4577C84.4581 21.4577 84.3761 21.446 84.3058 21.4225C84.212 21.3756 84.0656 21.2878 83.8663 21.1588C83.6671 21.0182 83.4855 20.8893 83.3214 20.7721C83.1105 20.6081 82.9113 20.444 82.7238 20.2799C82.5363 20.1159 82.3722 19.9401 82.2316 19.7526C82.1964 19.7057 82.1495 19.6823 82.0909 19.6823C82.0323 19.6706 81.9796 19.653 81.9327 19.6295C81.5929 19.8405 81.3058 20.1042 81.0714 20.4206C80.837 20.737 80.6144 21.0592 80.4034 21.3874C80.1925 21.7155 79.9698 22.026 79.7355 22.319C79.5011 22.612 79.2023 22.8346 78.839 22.987C78.7335 22.987 78.6398 22.9694 78.5577 22.9342C78.4757 22.8991 78.3995 22.8522 78.3292 22.7936C78.2589 22.7467 78.1886 22.6999 78.1183 22.653C78.048 22.6061 77.9718 22.571 77.8898 22.5475C77.8898 22.4069 77.8605 22.278 77.8019 22.1608C77.755 22.0436 77.7023 21.9323 77.6437 21.8268C77.5968 21.7213 77.5616 21.6217 77.5382 21.528C77.5148 21.4225 77.5382 21.3229 77.6085 21.2292C77.5382 21.1588 77.4327 21.0827 77.2921 21.0006C77.3624 20.9303 77.3917 20.8659 77.38 20.8073C77.38 20.7487 77.3683 20.6901 77.3448 20.6315C77.3214 20.5729 77.298 20.5085 77.2745 20.4381C77.2628 20.3678 77.2804 20.2975 77.3273 20.2272C77.3859 20.2272 77.4562 20.2155 77.5382 20.192C77.4679 20.0983 77.4327 20.0456 77.4327 20.0338C77.4445 20.0104 77.4327 19.9811 77.3976 19.946C77.3741 19.8756 77.3859 19.8346 77.4327 19.8229C77.4796 19.7995 77.5265 19.776 77.5734 19.7526C77.6202 19.1784 77.7198 18.6452 77.8722 18.153C78.0245 17.6608 78.1945 17.1862 78.382 16.7292C78.5695 16.2721 78.7511 15.8092 78.9269 15.3405C79.1144 14.8717 79.2667 14.3678 79.3839 13.8288C79.5128 13.6999 79.6124 13.5475 79.6827 13.3717C79.7648 13.196 79.8468 13.0202 79.9288 12.8444C80.0226 12.6686 80.1222 12.4987 80.2277 12.3346C80.3448 12.1588 80.5031 12.0182 80.7023 11.9128C80.8663 11.9245 81.0128 11.9713 81.1417 12.0534C81.2706 12.1237 81.4288 12.153 81.6163 12.1413C81.6515 12.1999 81.6808 12.2585 81.7042 12.317C81.7394 12.3756 81.7804 12.4342 81.8273 12.4928L82.0909 12.4401C82.2198 12.5456 82.3312 12.6803 82.4249 12.8444C82.5304 12.9967 82.6007 13.1608 82.6359 13.3366C82.671 13.5124 82.6652 13.6823 82.6183 13.8463C82.5714 13.9987 82.4601 14.1217 82.2843 14.2155C82.296 14.2741 82.296 14.321 82.2843 14.3561C82.2843 14.3795 82.2784 14.403 82.2667 14.4264C82.255 14.4499 82.2491 14.4733 82.2491 14.4967C82.2491 14.5202 82.2667 14.5553 82.3019 14.6022C82.0675 14.778 81.8917 15.0241 81.7745 15.3405C81.6573 15.6569 81.5929 15.9381 81.5812 16.1842C81.7218 16.0436 81.8741 15.9088 82.0382 15.7799C82.214 15.6393 82.3898 15.5045 82.5656 15.3756C82.7531 15.2467 82.9288 15.1237 83.0929 15.0065C83.2687 14.8893 83.4269 14.7721 83.5675 14.6549C83.9542 14.3034 84.3234 14.0221 84.6749 13.8112C85.0382 13.5885 85.4191 13.3424 85.8175 13.0729C85.9113 13.0495 85.9816 13.0495 86.0284 13.0729C86.087 13.0846 86.1456 13.1022 86.2042 13.1256C86.2042 13.0553 86.1808 13.0143 86.1339 13.0026C86.0988 12.9909 86.087 12.944 86.0988 12.862C86.2745 12.8151 86.4269 12.7624 86.5558 12.7038C86.6847 12.6335 86.8253 12.569 86.9777 12.5104C87.0831 12.6159 87.1827 12.7272 87.2765 12.8444C87.3702 12.9499 87.4991 13.0143 87.6632 13.0378C87.7218 13.1667 87.7921 13.2663 87.8741 13.3366C87.9562 13.3952 88.0382 13.4538 88.1202 13.5124C88.2023 13.571 88.2726 13.6413 88.3312 13.7233C88.4015 13.8053 88.4425 13.9342 88.4542 14.11C88.4073 14.192 88.3546 14.2799 88.296 14.3737C88.2491 14.4674 88.2023 14.5788 88.1554 14.7077C87.921 14.9186 87.6808 15.1061 87.4347 15.2702C87.2003 15.4342 86.9601 15.5924 86.714 15.7448C86.4679 15.8971 86.2159 16.0495 85.9581 16.2018C85.7003 16.3542 85.4366 16.5358 85.1671 16.7467C85.1085 16.8288 85.0323 16.9049 84.9386 16.9753C84.8566 17.0338 84.7687 17.0983 84.6749 17.1686C84.5812 17.2272 84.4933 17.2917 84.4113 17.362C84.3292 17.4323 84.2648 17.5143 84.2179 17.6081C84.1827 17.6198 84.1476 17.6256 84.1124 17.6256C84.0773 17.6256 84.0421 17.6315 84.007 17.6432C83.9718 17.7253 83.9132 17.7897 83.8312 17.8366C83.7609 17.8835 83.714 17.9479 83.6906 18.0299C83.8663 18.4049 84.0948 18.692 84.3761 18.8913C84.6573 19.0905 84.9738 19.237 85.3253 19.3307C85.6769 19.4128 86.0577 19.4596 86.4679 19.4713C86.8781 19.4713 87.3058 19.4713 87.7511 19.4713C87.798 19.4596 87.8156 19.4362 87.8038 19.401C87.8038 19.3542 87.8331 19.3366 87.8917 19.3483C88.173 19.442 88.3898 19.5768 88.5421 19.7526C88.6945 19.9167 88.8761 20.0807 89.087 20.2448C89.0636 20.6901 88.9288 21.0592 88.6827 21.3522C88.4366 21.6452 88.1085 21.8795 87.6984 22.0553ZM105.628 17.4147C105.616 17.5553 105.628 17.6901 105.663 17.819C105.698 17.9479 105.739 18.0768 105.786 18.2057C105.845 18.3229 105.898 18.446 105.944 18.5749C105.991 18.7038 106.026 18.8327 106.05 18.9616C106.073 19.1256 106.073 19.3073 106.05 19.5065C106.026 19.694 105.985 19.8815 105.927 20.069C105.868 20.2448 105.792 20.4088 105.698 20.5612C105.605 20.7018 105.493 20.8073 105.364 20.8776C105.2 21.0885 105.001 21.2526 104.767 21.3698C104.532 21.487 104.316 21.6276 104.116 21.7917C103.987 21.8737 103.841 21.9323 103.677 21.9674C103.525 22.0026 103.366 22.0378 103.202 22.0729C103.073 22.1432 102.921 22.2194 102.745 22.3014C102.569 22.3717 102.388 22.442 102.2 22.5124C102.013 22.571 101.825 22.6178 101.638 22.653C101.45 22.6764 101.286 22.6823 101.146 22.6706C100.794 22.7995 100.448 22.8815 100.109 22.9167C99.7804 22.9635 99.3937 22.9401 98.9484 22.8463C98.5265 22.9049 98.1339 22.8874 97.7706 22.7936C97.4191 22.6999 97.1027 22.5534 96.8214 22.3542C96.5519 22.1432 96.3116 21.8971 96.1007 21.6159C95.9015 21.3229 95.7374 21.0182 95.6085 20.7018C95.5148 20.0338 95.5382 19.4303 95.6788 18.8913C95.8195 18.3405 96.0187 17.8366 96.2765 17.3795C96.546 16.9108 96.8507 16.4831 97.1906 16.0963C97.5304 15.6979 97.8585 15.3112 98.1749 14.9362C98.2452 14.9596 98.298 14.9596 98.3331 14.9362C98.38 14.901 98.421 14.86 98.4562 14.8131C98.4913 14.7545 98.5265 14.7018 98.5616 14.6549C98.6085 14.6081 98.6613 14.5788 98.7198 14.567C98.8019 14.3913 98.9191 14.2624 99.0714 14.1803C99.2355 14.0866 99.3644 13.9577 99.4581 13.7936C99.5636 13.7702 99.6515 13.735 99.7218 13.6881C99.7921 13.6413 99.8566 13.5885 99.9152 13.5299C99.9855 13.4713 100.056 13.4186 100.126 13.3717C100.196 13.3131 100.278 13.2721 100.372 13.2487V13.0553C100.583 12.9616 100.735 12.8561 100.829 12.7389C100.935 12.61 101.058 12.4577 101.198 12.2819C101.304 12.2702 101.386 12.2643 101.444 12.2643C101.515 12.2643 101.614 12.2526 101.743 12.2292C101.837 12.0651 101.919 11.942 101.989 11.86C102.071 11.778 102.189 11.6901 102.341 11.5963C102.482 11.6667 102.634 11.7135 102.798 11.737C102.974 11.7604 103.126 11.8366 103.255 11.9655C103.267 12.0827 103.302 12.1764 103.36 12.2467C103.419 12.3053 103.484 12.3639 103.554 12.4225C103.624 12.4694 103.689 12.5221 103.747 12.5807C103.818 12.6393 103.864 12.7213 103.888 12.8268C103.935 12.8385 103.964 12.8327 103.976 12.8092C103.999 12.7858 104.034 12.7799 104.081 12.7917C104.116 12.9557 104.157 13.067 104.204 13.1256C104.251 13.1725 104.298 13.2721 104.345 13.4245C104.286 13.5417 104.239 13.6647 104.204 13.7936C104.181 13.9108 104.11 13.9987 103.993 14.0573C103.982 14.1393 104.005 14.1862 104.064 14.1979C104.122 14.1979 104.157 14.2272 104.169 14.2858C104.181 14.3913 104.163 14.4674 104.116 14.5143C104.398 14.9713 104.65 15.4577 104.872 15.9733C105.095 16.4772 105.347 16.9577 105.628 17.4147ZM103.431 19.0846C103.478 18.9557 103.536 18.8503 103.607 18.7682C103.689 18.6862 103.735 18.5631 103.747 18.3991C103.689 18.3053 103.653 18.235 103.642 18.1881C103.63 18.1295 103.624 18.0417 103.624 17.9245C103.366 17.5612 103.144 17.1745 102.956 16.7643C102.769 16.3424 102.558 15.9499 102.323 15.5866C102.3 15.6335 102.259 15.6803 102.2 15.7272C102.142 15.7741 102.077 15.7624 102.007 15.692C101.984 15.7858 101.943 15.8561 101.884 15.903C101.825 15.9381 101.761 15.9557 101.691 15.9557C101.62 15.944 101.544 15.9264 101.462 15.903C101.392 15.8678 101.327 15.8268 101.269 15.7799C100.929 16.0495 100.589 16.3131 100.249 16.571C99.9093 16.8288 99.6046 17.1276 99.3351 17.4674C99.2882 17.4909 99.2589 17.5026 99.2472 17.5026C99.2355 17.4909 99.2003 17.4967 99.1417 17.5202C99.048 17.7428 98.9308 17.9479 98.7902 18.1354C98.6613 18.3112 98.5323 18.4928 98.4034 18.6803C98.2745 18.8678 98.1632 19.067 98.0695 19.278C97.9757 19.4889 97.923 19.735 97.9113 20.0163C98.1105 20.1803 98.3448 20.2799 98.6144 20.3151C98.8839 20.3503 99.1593 20.3561 99.4406 20.3327C99.7335 20.3092 100.015 20.2741 100.284 20.2272C100.566 20.1686 100.823 20.1393 101.058 20.1393C101.55 20.0221 101.972 19.8698 102.323 19.6823C102.675 19.4831 103.044 19.2838 103.431 19.0846ZM116.72 12.6862C116.743 12.944 116.784 13.1667 116.843 13.3542C116.901 13.5417 116.966 13.7233 117.036 13.8991C117.095 14.0631 117.148 14.2272 117.194 14.3913C117.253 14.5436 117.294 14.7311 117.318 14.9538C117.224 15.2585 117.153 15.5397 117.107 15.7975C117.071 16.0553 117.03 16.3249 116.984 16.6061C116.796 17.0163 116.614 17.3795 116.439 17.696C116.263 18.0124 116.122 18.2878 116.017 18.5221C115.958 18.5807 115.905 18.651 115.859 18.7331C115.823 18.8034 115.782 18.8795 115.735 18.9616C115.712 18.9967 115.683 19.0495 115.648 19.1198C115.612 19.1901 115.583 19.237 115.56 19.2604L115.208 19.1374L115.138 19.5768L114.892 19.6471L114.716 19.8581C114.493 20.2448 114.259 20.5729 114.013 20.8424C113.767 21.1003 113.485 21.3346 113.169 21.5456C112.864 21.7448 112.513 21.9323 112.114 22.1081C111.728 22.2838 111.288 22.4772 110.796 22.6881C110.597 22.6647 110.421 22.653 110.269 22.653C110.128 22.6413 109.993 22.6295 109.864 22.6178C109.642 22.6178 109.366 22.6003 109.038 22.5651C109.003 22.4713 108.95 22.4069 108.88 22.3717C108.81 22.3366 108.745 22.319 108.687 22.319C108.487 22.2253 108.335 22.0905 108.23 21.9147C108.136 21.7272 108.042 21.528 107.948 21.317C107.89 21.1881 107.831 21.071 107.773 20.9655C107.714 20.8483 107.65 20.7311 107.579 20.6139L107.878 20.526L107.491 20.1042C107.468 20.069 107.439 20.0397 107.403 20.0163C107.368 19.9811 107.339 19.946 107.316 19.9108L107.298 19.6295C107.263 18.821 107.245 18.0827 107.245 17.4147C107.257 16.735 107.351 16.1315 107.526 15.6042V15.4108C107.562 15.153 107.597 14.942 107.632 14.778C107.667 14.6022 107.696 14.4381 107.72 14.2858C107.755 14.028 107.808 13.7878 107.878 13.5651C108.042 13.5299 108.165 13.4655 108.247 13.3717C108.329 13.2663 108.4 13.1725 108.458 13.0905C108.622 13.0788 108.734 13.1022 108.792 13.1608C108.851 13.2194 108.909 13.3131 108.968 13.442C109.026 13.5475 109.097 13.6647 109.179 13.7936C109.273 13.9225 109.407 14.0221 109.583 14.0924C109.607 14.1862 109.636 14.2858 109.671 14.3913C109.718 14.485 109.765 14.5905 109.812 14.7077C109.905 14.9069 109.987 15.1178 110.058 15.3405C110.14 15.5514 110.187 15.7565 110.198 15.9557C110.081 16.1784 109.987 16.4362 109.917 16.7292C109.859 17.0221 109.818 17.321 109.794 17.6256C109.782 17.9186 109.788 18.2057 109.812 18.487C109.847 18.7565 109.9 18.985 109.97 19.1725L110.075 19.401L110.374 19.3659C110.726 19.2721 111.042 19.1725 111.323 19.067C111.616 18.9499 111.886 18.8151 112.132 18.6628C112.378 18.5104 112.612 18.3346 112.835 18.1354C113.058 17.9245 113.292 17.6842 113.538 17.4147C113.784 17.1452 113.995 16.8405 114.171 16.5006C114.359 16.1491 114.511 15.7858 114.628 15.4108C114.757 15.0358 114.851 14.6667 114.909 14.3034C114.98 13.9284 115.026 13.5768 115.05 13.2487C115.249 13.1784 115.349 13.0378 115.349 12.8268L115.314 12.6335C115.267 12.5631 115.267 12.4811 115.314 12.3874C115.384 12.1647 115.548 11.9948 115.806 11.8776C115.993 11.9948 116.157 12.1237 116.298 12.2643C116.45 12.4049 116.591 12.5456 116.72 12.6862ZM126.88 14.2331C126.587 14.2331 126.271 14.2565 125.931 14.3034C125.591 14.3385 125.257 14.3795 124.929 14.4264C124.694 14.4616 124.466 14.4909 124.243 14.5143C124.032 14.5378 123.839 14.5553 123.663 14.567C123.581 14.8249 123.499 15.0534 123.417 15.2526C123.335 15.4518 123.247 15.6452 123.153 15.8327C123.06 16.0319 122.972 16.237 122.89 16.4479C122.819 16.6471 122.749 16.8639 122.679 17.0983C122.562 17.2858 122.462 17.4616 122.38 17.6256C122.31 17.778 122.251 17.9538 122.204 18.153C122.064 18.3288 121.958 18.5163 121.888 18.7155C121.818 18.903 121.765 19.067 121.73 19.2077L121.659 19.4186C121.589 19.4889 121.548 19.5475 121.536 19.5944C121.525 19.6295 121.495 19.6647 121.448 19.6999C121.437 19.8288 121.396 19.9577 121.325 20.0866C121.302 20.1452 121.284 20.2038 121.273 20.2624C121.261 20.3092 121.255 20.3444 121.255 20.3678C121.255 20.485 121.226 20.5612 121.167 20.5963C121.179 20.6549 121.179 20.7194 121.167 20.7897C121.155 20.8483 121.144 20.9069 121.132 20.9655C121.097 21.1061 121.085 21.2174 121.097 21.2995C121.132 21.3463 121.161 21.3874 121.185 21.4225C121.22 21.4577 121.243 21.5045 121.255 21.5631C121.325 21.61 121.378 21.6393 121.413 21.651C121.46 21.6862 121.53 21.7272 121.624 21.7741L121.782 21.9499C121.841 22.2897 121.788 22.5592 121.624 22.7585C121.448 22.9811 121.15 23.0924 120.728 23.0924H120.517C120.458 23.0338 120.423 22.987 120.411 22.9518C120.318 22.9167 120.241 22.8874 120.183 22.8639C120.124 22.8405 120.071 22.7936 120.025 22.7233C119.872 22.653 119.749 22.5944 119.655 22.5475L119.497 22.4596C119.497 22.3307 119.497 22.2604 119.497 22.2487C119.415 22.1432 119.351 22.026 119.304 21.8971C119.269 21.7682 119.239 21.6393 119.216 21.5104C119.193 21.4049 119.163 21.3053 119.128 21.2116C119.105 21.1178 119.069 21.0358 119.023 20.9655C118.999 20.2858 119.064 19.7116 119.216 19.2428C119.368 18.7741 119.526 18.3229 119.691 17.8893C119.784 17.6549 119.878 17.4206 119.972 17.1862C120.066 16.9401 120.148 16.6881 120.218 16.4303L120.376 16.2545C120.458 16.067 120.523 15.9147 120.569 15.7975C120.628 15.6686 120.687 15.5397 120.745 15.4108C120.78 15.3288 120.81 15.2526 120.833 15.1823C120.868 15.1003 120.898 15.0299 120.921 14.9713C120.851 14.9713 120.786 14.9772 120.728 14.9889C120.669 14.9889 120.61 14.9948 120.552 15.0065C120.482 15.0182 120.417 15.0299 120.359 15.0417C120.3 15.0417 120.241 15.0417 120.183 15.0417C120.101 15.0417 120.042 15.0358 120.007 15.0241C119.878 15.0827 119.737 15.112 119.585 15.112H119.409C119.374 15.112 119.339 15.112 119.304 15.112C119.28 15.1003 119.257 15.0944 119.234 15.0944C119.116 15.0944 119.023 15.112 118.952 15.1471C118.812 15.1471 118.677 15.1471 118.548 15.1471H118.372C118.349 15.1471 118.319 15.153 118.284 15.1647C118.249 15.1647 118.22 15.1647 118.196 15.1647C118.114 15.1647 118.026 15.1588 117.933 15.1471C117.839 15.1237 117.739 15.0827 117.634 15.0241C117.493 14.8366 117.4 14.737 117.353 14.7253L117.194 14.5143C117.183 14.444 117.165 14.3795 117.142 14.321C117.118 14.2506 117.095 14.1745 117.071 14.0924C117.025 13.9753 116.978 13.8522 116.931 13.7233C116.896 13.5827 116.878 13.4186 116.878 13.2311C116.89 13.1374 116.913 13.067 116.948 13.0202C116.984 12.9733 117.013 12.9323 117.036 12.8971L117.089 12.6335L117.318 12.651H117.81C118.185 12.651 118.566 12.6393 118.952 12.6159C119.339 12.5807 119.737 12.5456 120.148 12.5104C120.382 12.487 120.616 12.4635 120.851 12.4401C121.097 12.4167 121.349 12.3932 121.607 12.3698C121.653 12.2643 121.7 12.1647 121.747 12.071L121.923 11.9831C122.134 11.9713 122.28 12.0006 122.362 12.071C122.456 12.1295 122.532 12.1881 122.591 12.2467C122.849 12.2233 123.107 12.1999 123.364 12.1764C123.634 12.1413 123.903 12.1003 124.173 12.0534C124.571 11.9948 124.97 11.942 125.368 11.8952C125.778 11.8483 126.171 11.8249 126.546 11.8249C126.71 11.8249 126.868 11.8307 127.021 11.8424C127.173 11.8542 127.314 11.8717 127.443 11.8952L127.618 12.0182C127.653 12.0885 127.7 12.153 127.759 12.2116C127.829 12.2702 127.9 12.3288 127.97 12.3874C128.11 12.5163 128.251 12.6686 128.392 12.8444C128.532 13.0202 128.585 13.278 128.55 13.6178C128.456 13.7585 128.386 13.8405 128.339 13.8639L128.181 14.0749L128.005 14.0573C127.935 14.0573 127.87 14.069 127.812 14.0924C127.753 14.1042 127.694 14.1217 127.636 14.1452C127.589 14.1686 127.542 14.192 127.495 14.2155C127.448 14.2272 127.396 14.2389 127.337 14.2506C127.232 14.2506 127.144 14.2506 127.073 14.2506C127.015 14.2389 126.95 14.2331 126.88 14.2331ZM142.173 14.2331C141.88 14.2331 141.564 14.2565 141.224 14.3034C140.884 14.3385 140.55 14.3795 140.222 14.4264C139.987 14.4616 139.759 14.4909 139.536 14.5143C139.325 14.5378 139.132 14.5553 138.956 14.567C138.874 14.8249 138.792 15.0534 138.71 15.2526C138.628 15.4518 138.54 15.6452 138.446 15.8327C138.353 16.0319 138.265 16.237 138.183 16.4479C138.112 16.6471 138.042 16.8639 137.972 17.0983C137.855 17.2858 137.755 17.4616 137.673 17.6256C137.603 17.778 137.544 17.9538 137.497 18.153C137.357 18.3288 137.251 18.5163 137.181 18.7155C137.11 18.903 137.058 19.067 137.023 19.2077L136.952 19.4186C136.882 19.4889 136.841 19.5475 136.829 19.5944C136.818 19.6295 136.788 19.6647 136.741 19.6999C136.73 19.8288 136.689 19.9577 136.618 20.0866C136.595 20.1452 136.577 20.2038 136.566 20.2624C136.554 20.3092 136.548 20.3444 136.548 20.3678C136.548 20.485 136.519 20.5612 136.46 20.5963C136.472 20.6549 136.472 20.7194 136.46 20.7897C136.448 20.8483 136.437 20.9069 136.425 20.9655C136.39 21.1061 136.378 21.2174 136.39 21.2995C136.425 21.3463 136.454 21.3874 136.478 21.4225C136.513 21.4577 136.536 21.5045 136.548 21.5631C136.618 21.61 136.671 21.6393 136.706 21.651C136.753 21.6862 136.823 21.7272 136.917 21.7741L137.075 21.9499C137.134 22.2897 137.081 22.5592 136.917 22.7585C136.741 22.9811 136.443 23.0924 136.021 23.0924H135.81C135.751 23.0338 135.716 22.987 135.704 22.9518C135.61 22.9167 135.534 22.8874 135.476 22.8639C135.417 22.8405 135.364 22.7936 135.318 22.7233C135.165 22.653 135.042 22.5944 134.948 22.5475L134.79 22.4596C134.79 22.3307 134.79 22.2604 134.79 22.2487C134.708 22.1432 134.644 22.026 134.597 21.8971C134.562 21.7682 134.532 21.6393 134.509 21.5104C134.485 21.4049 134.456 21.3053 134.421 21.2116C134.398 21.1178 134.362 21.0358 134.316 20.9655C134.292 20.2858 134.357 19.7116 134.509 19.2428C134.661 18.7741 134.819 18.3229 134.984 17.8893C135.077 17.6549 135.171 17.4206 135.265 17.1862C135.359 16.9401 135.441 16.6881 135.511 16.4303L135.669 16.2545C135.751 16.067 135.816 15.9147 135.862 15.7975C135.921 15.6686 135.98 15.5397 136.038 15.4108C136.073 15.3288 136.103 15.2526 136.126 15.1823C136.161 15.1003 136.191 15.0299 136.214 14.9713C136.144 14.9713 136.079 14.9772 136.021 14.9889C135.962 14.9889 135.903 14.9948 135.845 15.0065C135.775 15.0182 135.71 15.0299 135.651 15.0417C135.593 15.0417 135.534 15.0417 135.476 15.0417C135.394 15.0417 135.335 15.0358 135.3 15.0241C135.171 15.0827 135.03 15.112 134.878 15.112H134.702C134.667 15.112 134.632 15.112 134.597 15.112C134.573 15.1003 134.55 15.0944 134.526 15.0944C134.409 15.0944 134.316 15.112 134.245 15.1471C134.105 15.1471 133.97 15.1471 133.841 15.1471H133.665C133.642 15.1471 133.612 15.153 133.577 15.1647C133.542 15.1647 133.513 15.1647 133.489 15.1647C133.407 15.1647 133.319 15.1588 133.226 15.1471C133.132 15.1237 133.032 15.0827 132.927 15.0241C132.786 14.8366 132.693 14.737 132.646 14.7253L132.487 14.5143C132.476 14.444 132.458 14.3795 132.435 14.321C132.411 14.2506 132.388 14.1745 132.364 14.0924C132.318 13.9753 132.271 13.8522 132.224 13.7233C132.189 13.5827 132.171 13.4186 132.171 13.2311C132.183 13.1374 132.206 13.067 132.241 13.0202C132.276 12.9733 132.306 12.9323 132.329 12.8971L132.382 12.6335L132.61 12.651H133.103C133.478 12.651 133.859 12.6393 134.245 12.6159C134.632 12.5807 135.03 12.5456 135.441 12.5104C135.675 12.487 135.909 12.4635 136.144 12.4401C136.39 12.4167 136.642 12.3932 136.9 12.3698C136.946 12.2643 136.993 12.1647 137.04 12.071L137.216 11.9831C137.427 11.9713 137.573 12.0006 137.655 12.071C137.749 12.1295 137.825 12.1881 137.884 12.2467C138.142 12.2233 138.4 12.1999 138.657 12.1764C138.927 12.1413 139.196 12.1003 139.466 12.0534C139.864 11.9948 140.263 11.942 140.661 11.8952C141.071 11.8483 141.464 11.8249 141.839 11.8249C142.003 11.8249 142.161 11.8307 142.314 11.8424C142.466 11.8542 142.607 11.8717 142.735 11.8952L142.911 12.0182C142.946 12.0885 142.993 12.153 143.052 12.2116C143.122 12.2702 143.193 12.3288 143.263 12.3874C143.403 12.5163 143.544 12.6686 143.685 12.8444C143.825 13.0202 143.878 13.278 143.843 13.6178C143.749 13.7585 143.679 13.8405 143.632 13.8639L143.474 14.0749L143.298 14.0573C143.228 14.0573 143.163 14.069 143.105 14.0924C143.046 14.1042 142.987 14.1217 142.929 14.1452C142.882 14.1686 142.835 14.192 142.788 14.2155C142.741 14.2272 142.689 14.2389 142.63 14.2506C142.525 14.2506 142.437 14.2506 142.366 14.2506C142.308 14.2389 142.243 14.2331 142.173 14.2331ZM149.802 20.9831C149.825 21.2878 149.79 21.5397 149.696 21.7389C149.603 21.9381 149.474 22.1081 149.31 22.2487C149.146 22.3893 148.958 22.5006 148.747 22.5827C148.536 22.6647 148.331 22.7409 148.132 22.8112C148.038 22.7526 147.944 22.694 147.851 22.6354C147.769 22.5651 147.669 22.5124 147.552 22.4772C147.4 22.196 147.253 21.9499 147.112 21.7389C146.972 21.5163 146.907 21.2643 146.919 20.9831C146.919 20.9713 146.925 20.9069 146.937 20.7897C146.96 20.6725 146.984 20.5436 147.007 20.403C147.042 20.2624 147.066 20.1335 147.077 20.0163C147.101 19.8874 147.112 19.817 147.112 19.8053C146.843 19.8288 146.562 19.8874 146.269 19.9811C145.976 20.0749 145.689 20.1862 145.407 20.3151C145.138 20.444 144.88 20.5729 144.634 20.7018C144.4 20.8307 144.206 20.942 144.054 21.0358C144.054 21.071 144.03 21.1588 143.984 21.2995C143.937 21.4284 143.878 21.569 143.808 21.7213C143.737 21.862 143.661 21.9909 143.579 22.1081C143.497 22.2253 143.415 22.2838 143.333 22.2838C143.345 22.319 143.362 22.3542 143.386 22.3893C143.409 22.4245 143.409 22.4713 143.386 22.5299C143.222 22.5768 143.075 22.6354 142.946 22.7057C142.818 22.7878 142.683 22.8522 142.542 22.8991C142.401 22.9577 142.249 22.987 142.085 22.987C141.921 22.987 141.728 22.9284 141.505 22.8112C141.505 22.7409 141.476 22.6823 141.417 22.6354C141.359 22.5768 141.294 22.5299 141.224 22.4948C141.165 22.4479 141.112 22.4128 141.066 22.3893C141.019 22.3542 140.995 22.3249 140.995 22.3014C140.937 22.3131 140.913 22.2721 140.925 22.1784C140.937 22.0846 140.984 22.0612 141.066 22.1081C140.937 21.944 140.855 21.8034 140.819 21.6862C140.796 21.5573 140.732 21.3991 140.626 21.2116C140.65 21.1881 140.673 21.1471 140.696 21.0885C140.708 21.0299 140.72 20.9772 140.732 20.9303C140.743 20.8835 140.761 20.8483 140.784 20.8249C140.808 20.8014 140.837 20.8073 140.872 20.8424C140.849 20.737 140.849 20.6491 140.872 20.5788C140.896 20.5085 140.919 20.444 140.943 20.3854C140.966 20.3268 140.984 20.2682 140.995 20.2096C141.007 20.151 140.989 20.0866 140.943 20.0163C141.13 19.7585 141.253 19.4831 141.312 19.1901C141.37 18.8854 141.405 18.61 141.417 18.3639C141.499 18.2819 141.569 18.1647 141.628 18.0124C141.698 17.86 141.751 17.7077 141.786 17.5553C141.821 17.3913 141.833 17.2389 141.821 17.0983C141.821 16.946 141.804 16.8229 141.769 16.7292C141.78 16.6706 141.845 16.653 141.962 16.6764C142.032 16.2897 142.079 15.8561 142.103 15.3756C142.138 14.8835 142.191 14.4206 142.261 13.987C142.331 13.5417 142.448 13.1549 142.612 12.8268C142.776 12.487 143.04 12.2643 143.403 12.1588C143.474 12.4049 143.562 12.6217 143.667 12.8092C143.784 12.9967 143.907 13.1784 144.036 13.3542C144.177 13.5182 144.312 13.6881 144.441 13.8639C144.581 14.0397 144.71 14.2389 144.827 14.4616C144.816 14.6842 144.792 14.942 144.757 15.235C144.722 15.528 144.675 15.8268 144.616 16.1315C144.569 16.4362 144.517 16.7292 144.458 17.0104C144.411 17.2917 144.364 17.5319 144.318 17.7311C144.329 17.7897 144.359 17.8249 144.405 17.8366C144.464 17.8483 144.476 17.901 144.441 17.9948C144.722 17.9245 145.015 17.86 145.319 17.8014C145.624 17.7428 145.929 17.6784 146.234 17.6081C146.538 17.5378 146.831 17.4616 147.112 17.3795C147.405 17.2858 147.675 17.1745 147.921 17.0456C147.98 16.5885 148.056 16.1315 148.15 15.6745C148.243 15.2174 148.255 14.7487 148.185 14.2682C148.243 14.2213 148.29 14.1628 148.325 14.0924C148.36 14.0221 148.419 13.9753 148.501 13.9518C148.443 13.7292 148.419 13.4948 148.431 13.2487C148.443 13.0026 148.484 12.7682 148.554 12.5456C148.636 12.3229 148.747 12.1354 148.888 11.9831C149.04 11.819 149.222 11.7135 149.433 11.6667C149.562 11.8542 149.673 12.0592 149.767 12.2819C149.86 12.4928 149.954 12.7096 150.048 12.9323C150.153 13.1432 150.259 13.3483 150.364 13.5475C150.482 13.735 150.628 13.8991 150.804 14.0397C150.839 14.3795 150.862 14.7311 150.874 15.0944C150.898 15.4577 150.915 15.8268 150.927 16.2018C150.833 16.6471 150.728 17.0807 150.61 17.5026C150.505 17.9128 150.429 18.3522 150.382 18.821C150.3 18.9147 150.235 19.0202 150.189 19.1374C150.142 19.2545 150.095 19.3776 150.048 19.5065C150.001 19.6237 149.948 19.7409 149.89 19.8581C149.831 19.9635 149.761 20.0573 149.679 20.1393C149.726 20.2799 149.732 20.4147 149.696 20.5436C149.673 20.6608 149.708 20.8073 149.802 20.9831ZM155.005 21.4577C155.064 21.8092 155.04 22.0846 154.935 22.2838C154.841 22.4831 154.7 22.6295 154.513 22.7233C154.337 22.8288 154.132 22.8874 153.898 22.8991C153.663 22.9108 153.441 22.8991 153.23 22.8639C153.112 22.6999 153.007 22.4948 152.913 22.2487C152.819 22.0026 152.732 21.7506 152.65 21.4928C152.568 21.2233 152.491 20.9596 152.421 20.7018C152.362 20.444 152.31 20.2155 152.263 20.0163C152.321 19.8756 152.357 19.7174 152.368 19.5417C152.392 19.3542 152.403 19.1667 152.403 18.9792C152.415 18.7917 152.421 18.6042 152.421 18.4167C152.433 18.2174 152.45 18.0299 152.474 17.8542C152.556 17.362 152.673 16.8932 152.825 16.4479C152.989 16.0026 153.118 15.5397 153.212 15.0592C153.235 14.9538 153.224 14.8542 153.177 14.7604C153.142 14.6667 153.136 14.5788 153.159 14.4967C153.171 14.4499 153.206 14.4206 153.265 14.4088C153.323 14.3854 153.359 14.3444 153.37 14.2858C153.405 14.1569 153.411 14.0514 153.388 13.9694C153.376 13.8874 153.4 13.7878 153.458 13.6706C153.517 13.5768 153.587 13.442 153.669 13.2663C153.763 13.0788 153.798 12.8854 153.775 12.6862C153.88 12.6159 153.98 12.5338 154.073 12.4401C154.167 12.3463 154.261 12.2643 154.355 12.194C154.46 12.112 154.571 12.0417 154.689 11.9831C154.818 11.9245 154.97 11.8952 155.146 11.8952C155.239 12.0124 155.298 12.1413 155.321 12.2819C155.357 12.4225 155.386 12.5631 155.409 12.7038C155.444 12.8444 155.491 12.9792 155.55 13.1081C155.609 13.2253 155.708 13.319 155.849 13.3893C155.849 13.4831 155.849 13.6003 155.849 13.7409C155.849 13.8815 155.855 14.0221 155.866 14.1628C155.878 14.2917 155.901 14.4147 155.937 14.5319C155.984 14.6374 156.054 14.7077 156.148 14.7428C155.937 15.3053 155.737 15.862 155.55 16.4128C155.374 16.9635 155.228 17.5202 155.11 18.0827C154.993 18.6335 154.917 19.1901 154.882 19.7526C154.859 20.3151 154.9 20.8835 155.005 21.4577ZM157.325 14.778C157.407 14.5319 157.536 14.321 157.712 14.1452C157.9 13.9694 158.099 13.8229 158.31 13.7057C158.532 13.5768 158.761 13.4713 158.995 13.3893C159.23 13.3073 159.452 13.237 159.663 13.1784C160.132 12.9792 160.63 12.7917 161.157 12.6159C161.696 12.4284 162.241 12.2643 162.792 12.1237C163.355 11.9831 163.929 11.8952 164.515 11.86C165.101 11.8131 165.716 11.8835 166.36 12.071C166.396 12.1881 166.448 12.2995 166.519 12.4049C166.589 12.5104 166.659 12.6159 166.73 12.7213C166.812 12.8268 166.882 12.9323 166.941 13.0378C166.999 13.1315 167.034 13.2311 167.046 13.3366C167.163 13.442 167.257 13.5592 167.327 13.6881C167.398 13.8053 167.409 13.9635 167.362 14.1628C167.245 14.2565 167.128 14.3444 167.011 14.4264C166.905 14.4967 166.788 14.5612 166.659 14.6198C166.226 14.5143 165.786 14.4792 165.341 14.5143C164.896 14.5495 164.497 14.5788 164.146 14.6022C164.04 14.4967 163.911 14.444 163.759 14.444C163.618 14.444 163.466 14.4674 163.302 14.5143C163.15 14.5612 162.991 14.6081 162.827 14.6549C162.675 14.7018 162.528 14.7135 162.388 14.6901C162.271 14.7838 162.124 14.8483 161.948 14.8835C161.784 14.9069 161.603 14.9303 161.403 14.9538C161.392 15.0124 161.403 15.0534 161.439 15.0768C161.474 15.0885 161.48 15.1237 161.456 15.1823C161.526 15.2643 161.614 15.3229 161.72 15.3581C161.837 15.3932 161.954 15.4284 162.071 15.4635C162.2 15.4987 162.312 15.5456 162.405 15.6042C162.499 15.651 162.564 15.7331 162.599 15.8503C162.775 15.8503 162.927 15.8913 163.056 15.9733C163.185 16.0553 163.29 16.1549 163.372 16.2721C163.454 16.3893 163.513 16.5182 163.548 16.6588C163.595 16.7878 163.618 16.9049 163.618 17.0104C163.653 17.1042 163.694 17.1452 163.741 17.1335C163.788 17.1217 163.841 17.1452 163.9 17.2038C163.935 17.3561 164.023 17.5143 164.163 17.6784C164.304 17.8307 164.415 18.0006 164.497 18.1881C164.521 18.4811 164.538 18.7448 164.55 18.9792C164.562 19.2018 164.521 19.4303 164.427 19.6647C164.251 20.0983 164.005 20.485 163.689 20.8249C163.384 21.1647 163.032 21.4694 162.634 21.7389C162.247 21.9967 161.831 22.2194 161.386 22.4069C160.941 22.5944 160.507 22.7526 160.085 22.8815C160.038 22.8698 159.991 22.8698 159.944 22.8815C159.898 22.8932 159.886 22.8639 159.909 22.7936C159.816 22.8756 159.71 22.9284 159.593 22.9518C159.487 22.9753 159.37 22.9811 159.241 22.9694C159.112 22.9694 158.978 22.9635 158.837 22.9518C158.708 22.9401 158.585 22.946 158.468 22.9694C158.386 22.8874 158.31 22.8053 158.239 22.7233C158.181 22.653 158.134 22.5592 158.099 22.442C158.04 22.442 158.011 22.4128 158.011 22.3542C158.023 22.2956 158.005 22.2663 157.958 22.2663C158.028 22.1491 158.058 22.0846 158.046 22.0729C158.046 22.0495 158.028 22.0319 157.993 22.0202C157.97 22.0085 157.946 21.9967 157.923 21.985C157.9 21.9616 157.894 21.9323 157.905 21.8971C157.952 21.8034 157.97 21.6979 157.958 21.5807C157.946 21.4518 157.935 21.3229 157.923 21.194C157.911 21.0651 157.917 20.942 157.941 20.8249C157.976 20.7077 158.064 20.6139 158.204 20.5436C158.603 20.5905 158.978 20.5788 159.329 20.5085C159.693 20.4264 160.032 20.3151 160.349 20.1745C160.665 20.0338 160.964 19.8815 161.245 19.7174C161.538 19.5534 161.825 19.4069 162.107 19.278C162.142 19.1725 162.189 19.0846 162.247 19.0143C162.318 18.944 162.388 18.8795 162.458 18.821C162.528 18.7624 162.593 18.6979 162.651 18.6276C162.71 18.5573 162.751 18.4694 162.775 18.3639C162.786 18.2819 162.763 18.235 162.704 18.2233C162.657 18.1999 162.634 18.153 162.634 18.0827L162.441 18.0299C162.218 17.901 161.966 17.7956 161.685 17.7135C161.403 17.6198 161.163 17.5202 160.964 17.4147C160.835 17.485 160.712 17.5026 160.595 17.4674C160.489 17.4323 160.349 17.3971 160.173 17.362C159.775 17.3385 159.388 17.2975 159.013 17.2389C158.65 17.1803 158.298 17.0749 157.958 16.9225C157.935 16.8639 157.905 16.8112 157.87 16.7643C157.835 16.7174 157.771 16.7057 157.677 16.7292C157.607 16.6354 157.536 16.5475 157.466 16.4655C157.396 16.3717 157.331 16.2721 157.273 16.1667C157.296 16.026 157.314 15.9088 157.325 15.8151C157.337 15.7096 157.302 15.61 157.22 15.5163C157.267 15.3639 157.302 15.2409 157.325 15.1471C157.349 15.0534 157.349 14.9303 157.325 14.778ZM174.886 20.86C174.757 21.3288 174.64 21.6862 174.534 21.9323C174.441 22.1667 174.294 22.4128 174.095 22.6706C173.943 22.6471 173.837 22.6647 173.778 22.7233C173.72 22.7819 173.655 22.8346 173.585 22.8815C173.48 22.9049 173.403 22.9049 173.357 22.8815C173.31 22.8581 173.269 22.8288 173.234 22.7936C173.198 22.7702 173.151 22.7409 173.093 22.7057C173.046 22.6823 172.97 22.6706 172.864 22.6706C172.841 22.5768 172.812 22.4889 172.776 22.4069C172.753 22.3249 172.677 22.2956 172.548 22.319C172.571 22.2253 172.577 22.1491 172.566 22.0905C172.554 22.0202 172.536 21.9616 172.513 21.9147C172.501 21.8561 172.489 21.8034 172.478 21.7565C172.466 21.6979 172.472 21.6276 172.495 21.5456C172.437 21.5456 172.39 21.5045 172.355 21.4225C172.319 21.3405 172.278 21.2585 172.232 21.1764C172.267 20.9655 172.302 20.7663 172.337 20.5788C172.372 20.3913 172.413 20.2155 172.46 20.0514C172.519 19.8874 172.566 19.7233 172.601 19.5592C172.636 19.3952 172.618 19.2253 172.548 19.0495C172.595 19.0846 172.63 19.0788 172.653 19.0319C172.677 18.9733 172.694 18.903 172.706 18.821C172.718 18.7272 172.724 18.6393 172.724 18.5573C172.724 18.4635 172.718 18.3874 172.706 18.3288C172.823 18.0241 172.917 17.7135 172.987 17.3971C173.069 17.069 173.14 16.7467 173.198 16.4303C173.269 16.1139 173.339 15.8034 173.409 15.4987C173.48 15.194 173.573 14.9128 173.691 14.6549C173.819 14.6315 173.96 14.6491 174.112 14.7077C174.276 14.7545 174.376 14.819 174.411 14.901C174.716 14.6667 174.985 14.3854 175.22 14.0573C175.454 13.7174 175.694 13.3893 175.941 13.0729C176.187 12.7565 176.456 12.4753 176.749 12.2292C177.054 11.9831 177.435 11.8366 177.892 11.7897C178.126 11.9655 178.384 12.1471 178.665 12.3346C178.958 12.5104 179.198 12.7448 179.386 13.0378C179.48 13.0846 179.556 13.1374 179.614 13.196C179.685 13.2428 179.767 13.2956 179.86 13.3542V13.5651C180.001 13.694 180.112 13.8463 180.194 14.0221C180.288 14.1862 180.37 14.3678 180.441 14.567C180.511 14.7545 180.581 14.9479 180.651 15.1471C180.722 15.3346 180.804 15.5163 180.898 15.692C180.874 15.7506 180.862 15.8034 180.862 15.8503C180.862 15.8854 180.868 15.9264 180.88 15.9733C180.903 16.0202 180.921 16.067 180.933 16.1139C180.944 16.1608 180.944 16.2253 180.933 16.3073C180.898 16.8229 180.728 17.2389 180.423 17.5553C180.13 17.8717 179.773 18.1354 179.351 18.3463C178.929 18.5456 178.478 18.7155 177.997 18.8561C177.517 18.9967 177.083 19.1491 176.696 19.3131C176.696 19.36 176.714 19.3835 176.749 19.3835C176.796 19.3835 176.814 19.4128 176.802 19.4713C177.083 19.6471 177.306 19.7878 177.47 19.8932C177.634 19.9987 177.786 20.0866 177.927 20.1569C178.079 20.2272 178.237 20.2917 178.401 20.3503C178.577 20.3971 178.818 20.4557 179.122 20.526C179.427 20.5963 179.661 20.6549 179.825 20.7018C180.001 20.737 180.159 20.7721 180.3 20.8073C180.441 20.8307 180.581 20.8542 180.722 20.8776C180.874 20.8893 181.085 20.9069 181.355 20.9303C181.46 21.0358 181.548 21.1647 181.618 21.317C181.7 21.4577 181.753 21.6042 181.776 21.7565C181.8 21.8971 181.806 22.0378 181.794 22.1784C181.782 22.3073 181.741 22.4128 181.671 22.4948C181.683 22.5299 181.706 22.5475 181.741 22.5475C181.788 22.5358 181.835 22.5358 181.882 22.5475C181.812 22.5944 181.753 22.653 181.706 22.7233C181.659 22.7936 181.612 22.8639 181.566 22.9342C181.519 23.0045 181.466 23.0631 181.407 23.11C181.349 23.1686 181.267 23.2038 181.161 23.2155C180.798 23.3561 180.341 23.362 179.79 23.2331C179.239 23.1159 178.542 22.8932 177.698 22.5651C177.276 22.401 176.931 22.2604 176.661 22.1432C176.403 22.0143 176.175 21.8913 175.976 21.7741C175.788 21.6452 175.612 21.5104 175.448 21.3698C175.296 21.2292 175.109 21.0592 174.886 20.86ZM177.4 14.8307C177.271 15.0182 177.124 15.1881 176.96 15.3405C176.808 15.4928 176.655 15.651 176.503 15.8151C176.362 15.9674 176.234 16.1432 176.116 16.3424C175.999 16.5299 175.917 16.7526 175.87 17.0104C176.28 16.9635 176.708 16.8522 177.153 16.6764C177.599 16.4889 178.021 16.3131 178.419 16.1491C178.372 15.7858 178.243 15.4928 178.032 15.2702C177.833 15.0475 177.622 14.901 177.4 14.8307ZM191.603 12.7917C191.614 12.8737 191.614 12.9381 191.603 12.985C191.603 13.0202 191.597 13.0553 191.585 13.0905C191.585 13.1256 191.585 13.1667 191.585 13.2135C191.585 13.2487 191.597 13.3073 191.62 13.3893C191.374 13.7878 191.087 14.0631 190.759 14.2155C190.443 14.3561 190.097 14.4616 189.722 14.5319C189.347 14.5905 188.96 14.6549 188.562 14.7253C188.175 14.7956 187.788 14.9479 187.401 15.1823C187.249 15.1237 187.109 15.1237 186.98 15.1823C186.862 15.2409 186.687 15.2585 186.452 15.235C186.382 15.3053 186.294 15.3581 186.189 15.3932C186.083 15.4167 185.978 15.446 185.872 15.4811C185.919 15.5866 185.937 15.6979 185.925 15.8151C185.925 15.9206 185.943 16.0085 185.978 16.0788C186.388 16.1139 186.839 16.1081 187.331 16.0612C187.835 16.0143 188.327 15.985 188.808 15.9733C188.819 16.0319 188.814 16.0729 188.79 16.0963C188.767 16.1081 188.761 16.1374 188.773 16.1842C188.855 16.2428 188.937 16.319 189.019 16.4128C189.101 16.4948 189.183 16.5768 189.265 16.6588C189.347 16.7409 189.429 16.8112 189.511 16.8698C189.605 16.9167 189.71 16.9342 189.827 16.9225C189.874 17.0163 189.903 17.1217 189.915 17.2389C189.939 17.3444 189.927 17.4557 189.88 17.5729C189.693 17.7018 189.505 17.8366 189.318 17.9772C189.13 18.1061 188.931 18.2233 188.72 18.3288C188.521 18.4342 188.304 18.5221 188.069 18.5924C187.847 18.651 187.595 18.6745 187.314 18.6628C187.255 18.6628 187.208 18.6628 187.173 18.6628C187.15 18.6628 187.114 18.6452 187.068 18.61C186.974 18.6686 186.839 18.6862 186.663 18.6628C186.499 18.6393 186.37 18.6569 186.276 18.7155C186.148 18.6569 185.989 18.6335 185.802 18.6452C185.626 18.6452 185.468 18.6217 185.327 18.5749C185.14 18.821 184.97 19.0846 184.818 19.3659C184.665 19.6471 184.53 19.946 184.413 20.2624C184.812 20.321 185.14 20.3444 185.398 20.3327C185.667 20.321 185.919 20.3034 186.153 20.2799C186.388 20.2448 186.628 20.2155 186.874 20.192C187.12 20.1569 187.431 20.1452 187.806 20.1569C188.04 20.028 188.316 19.946 188.632 19.9108C188.96 19.8639 189.259 19.7936 189.528 19.6999C189.622 19.735 189.704 19.7995 189.775 19.8932C189.845 19.9753 189.909 20.0573 189.968 20.1393C190.038 20.2096 190.109 20.2741 190.179 20.3327C190.249 20.3913 190.337 20.4147 190.443 20.403C190.489 20.4499 190.519 20.5085 190.53 20.5788C190.554 20.6374 190.571 20.696 190.583 20.7545C190.595 20.8131 190.612 20.8659 190.636 20.9128C190.671 20.9479 190.724 20.9596 190.794 20.9479C190.618 21.3346 190.413 21.6335 190.179 21.8444C189.956 22.0436 189.698 22.196 189.405 22.3014C189.112 22.4069 188.784 22.4889 188.421 22.5475C188.069 22.6061 187.677 22.6764 187.243 22.7585C187.138 22.7819 187.05 22.776 186.98 22.7409C186.909 22.7174 186.827 22.7057 186.734 22.7057C186.464 22.7643 186.142 22.817 185.767 22.8639C185.392 22.9108 185.011 22.9284 184.624 22.9167C184.237 22.9049 183.868 22.8522 183.517 22.7585C183.165 22.6764 182.878 22.5241 182.655 22.3014C182.562 22.2194 182.497 22.1256 182.462 22.0202C182.439 21.903 182.362 21.8151 182.234 21.7565C182.222 21.6042 182.198 21.4342 182.163 21.2467C182.128 21.0592 182.093 20.8659 182.058 20.6667C182.023 20.4557 181.993 20.2506 181.97 20.0514C181.958 19.8522 181.97 19.6706 182.005 19.5065C182.04 19.3307 182.11 19.1725 182.216 19.0319C182.333 18.8913 182.374 18.7389 182.339 18.5749C182.398 18.5631 182.433 18.5338 182.444 18.487C182.456 18.4284 182.503 18.4049 182.585 18.4167C182.655 18.2057 182.732 18.0065 182.814 17.819C182.896 17.6315 182.978 17.4499 183.06 17.2741C183.153 17.0983 183.241 16.9225 183.323 16.7467C183.417 16.5592 183.505 16.3542 183.587 16.1315C183.423 15.9792 183.3 15.8151 183.218 15.6393C183.148 15.4518 183.095 15.2702 183.06 15.0944C183.025 14.9069 182.995 14.7194 182.972 14.5319C182.948 14.3327 182.907 14.1335 182.849 13.9342C182.966 13.7585 183.107 13.6178 183.271 13.5124C183.446 13.3952 183.634 13.3014 183.833 13.2311C184.032 13.1608 184.249 13.1022 184.484 13.0553C184.718 13.0085 184.964 12.9557 185.222 12.8971C185.691 12.7448 186.107 12.6276 186.47 12.5456C186.845 12.4635 187.208 12.3991 187.56 12.3522C187.923 12.2936 188.298 12.2409 188.685 12.194C189.071 12.1471 189.511 12.0768 190.003 11.9831C190.109 12.0885 190.208 12.1413 190.302 12.1413C190.349 12.0358 190.401 12.0065 190.46 12.0534C190.53 12.0885 190.56 12.0534 190.548 11.9479C190.665 12.1471 190.812 12.317 190.987 12.4577C191.175 12.5866 191.38 12.6979 191.603 12.7917ZM197.808 11.7897C198.3 11.8483 198.739 11.9479 199.126 12.0885C199.513 12.2292 199.841 12.4167 200.11 12.651C200.298 12.944 200.474 13.2604 200.638 13.6003C200.814 13.9401 200.943 14.2975 201.025 14.6725C201.118 15.0358 201.159 15.4108 201.148 15.7975C201.148 16.1842 201.066 16.5768 200.901 16.9753C200.562 17.3971 200.146 17.7428 199.653 18.0124C199.173 18.2702 198.651 18.4811 198.089 18.6452C197.526 18.8092 196.941 18.9499 196.331 19.067C195.734 19.1842 195.148 19.3014 194.573 19.4186C194.585 19.6881 194.585 19.9753 194.573 20.2799C194.573 20.5729 194.544 20.8717 194.485 21.1764C194.439 21.4694 194.362 21.7565 194.257 22.0378C194.151 22.319 194.011 22.5768 193.835 22.8112C193.636 22.8112 193.431 22.8346 193.22 22.8815C193.009 22.9401 192.821 22.987 192.657 23.0221C192.575 22.9753 192.499 22.9284 192.429 22.8815C192.37 22.8463 192.282 22.8229 192.165 22.8112C192.189 22.694 192.159 22.5768 192.077 22.4596C191.995 22.3307 191.913 22.2018 191.831 22.0729C191.749 21.944 191.691 21.821 191.655 21.7038C191.632 21.5866 191.691 21.4753 191.831 21.3698C191.749 21.2878 191.708 21.1823 191.708 21.0534C191.79 20.9128 191.86 20.7194 191.919 20.4733C191.989 20.2272 192.042 19.987 192.077 19.7526C192.124 19.5065 192.136 19.2838 192.112 19.0846C192.089 18.8854 191.972 18.7389 191.761 18.6452C191.773 18.6217 191.796 18.61 191.831 18.61C191.866 18.61 191.901 18.6042 191.937 18.5924C191.843 18.5221 191.784 18.4225 191.761 18.2936C191.749 18.1647 191.708 18.0534 191.638 17.9596C191.661 17.901 191.679 17.8483 191.691 17.8014C191.702 17.7545 191.743 17.737 191.814 17.7487C191.778 17.5378 191.778 17.3385 191.814 17.151C191.86 16.9635 191.925 16.7878 192.007 16.6237C192.089 16.4479 192.189 16.278 192.306 16.1139C192.423 15.9499 192.534 15.7858 192.64 15.6217C192.722 15.61 192.769 15.6217 192.78 15.6569C192.804 15.692 192.845 15.6862 192.903 15.6393C193.056 15.5221 193.161 15.3991 193.22 15.2702C193.278 15.1413 193.308 14.9948 193.308 14.8307C193.39 14.5846 193.489 14.3385 193.607 14.0924C193.724 13.8346 193.853 13.6003 193.993 13.3893C194.134 13.1784 194.286 12.9909 194.45 12.8268C194.626 12.6628 194.808 12.5397 194.995 12.4577C195.136 12.3405 195.312 12.235 195.523 12.1413C195.734 12.0358 195.962 11.9596 196.208 11.9128C196.454 11.8542 196.7 11.8249 196.946 11.8249C197.204 11.8131 197.439 11.8366 197.65 11.8952C197.708 11.9186 197.737 11.9069 197.737 11.86C197.749 11.8131 197.773 11.7897 197.808 11.7897ZM197.087 15.9909C197.38 15.862 197.691 15.7624 198.019 15.692C198.359 15.61 198.64 15.4635 198.862 15.2526C198.722 15.1237 198.517 15.0124 198.247 14.9186C197.978 14.8131 197.685 14.7487 197.368 14.7253C197.052 14.7018 196.73 14.7311 196.401 14.8131C196.085 14.8835 195.81 15.0241 195.575 15.235C195.505 15.446 195.446 15.6159 195.4 15.7448C195.353 15.862 195.288 16.0085 195.206 16.1842C195.23 16.2428 195.265 16.2897 195.312 16.3249C195.37 16.3483 195.411 16.3893 195.435 16.4479C195.704 16.3073 195.974 16.2311 196.243 16.2194C196.525 16.196 196.806 16.1198 197.087 15.9909ZM205.261 22.4948C204.933 22.6003 204.575 22.7057 204.189 22.8112C203.802 22.9167 203.415 22.9694 203.028 22.9694C202.443 22.9694 201.98 22.8229 201.64 22.5299C201.581 22.401 201.528 22.3131 201.482 22.2663C201.446 22.2194 201.411 22.1725 201.376 22.1256C201.353 22.067 201.335 21.9909 201.323 21.8971C201.183 21.7331 201.071 21.5456 200.989 21.3346C200.907 21.112 200.849 20.8893 200.814 20.6667C200.79 20.4323 200.784 20.1979 200.796 19.9635C200.819 19.7292 200.86 19.5065 200.919 19.2956C200.943 19.2487 200.954 19.2018 200.954 19.1549C200.966 19.1081 200.978 19.0553 200.989 18.9967C201.036 18.8092 201.083 18.6276 201.13 18.4518C201.189 18.276 201.265 18.1237 201.359 17.9948C201.312 17.8893 201.312 17.7721 201.359 17.6432C201.405 17.5143 201.458 17.3971 201.517 17.2917C201.681 16.8463 201.816 16.4713 201.921 16.1667C202.038 15.8503 202.155 15.5397 202.273 15.235C202.472 14.7077 202.659 14.1862 202.835 13.6706C203.011 13.1549 203.169 12.5983 203.31 12.0006C203.403 11.942 203.474 11.901 203.521 11.8776C203.591 11.8542 203.65 11.8366 203.696 11.8249C203.907 11.9303 204.153 12.0358 204.435 12.1413C204.716 12.235 204.95 12.2819 205.138 12.2819C205.232 12.3405 205.29 12.3874 205.314 12.4225C205.337 12.446 205.36 12.4694 205.384 12.4928C205.513 12.6452 205.624 12.8034 205.718 12.9674C205.812 13.1198 205.841 13.3249 205.806 13.5827C205.735 13.6881 205.683 13.7409 205.648 13.7409C205.589 13.9753 205.525 14.1745 205.454 14.3385C205.396 14.5026 205.331 14.6667 205.261 14.8307C205.179 15.0065 205.103 15.1823 205.032 15.3581C204.962 15.5338 204.903 15.7506 204.857 16.0085C204.81 16.067 204.775 16.1198 204.751 16.1667C204.739 16.2135 204.722 16.2663 204.698 16.3249C204.675 16.3835 204.646 16.4479 204.61 16.5182C204.587 16.5768 204.546 16.6295 204.487 16.6764C204.452 16.9811 204.394 17.2272 204.312 17.4147C204.241 17.6022 204.165 17.7897 204.083 17.9772C203.943 18.317 203.814 18.6569 203.696 18.9967C203.591 19.3366 203.526 19.7233 203.503 20.1569C203.562 20.1335 203.614 20.1217 203.661 20.1217C203.72 20.1217 203.773 20.1217 203.819 20.1217C203.925 20.1217 204.048 20.1393 204.189 20.1745C204.54 19.987 204.921 19.8756 205.331 19.8405C205.753 19.8053 206.169 19.7819 206.579 19.7702C206.743 19.7702 206.907 19.7702 207.071 19.7702C207.235 19.7702 207.388 19.7585 207.528 19.735C207.634 19.7936 207.698 19.8288 207.722 19.8405C207.757 19.8405 207.804 19.8405 207.862 19.8405C207.944 19.8405 208.015 19.8463 208.073 19.8581C208.214 19.987 208.349 20.0807 208.478 20.1393C208.607 20.1979 208.741 20.2506 208.882 20.2975C209.011 20.3444 209.134 20.3971 209.251 20.4557C209.38 20.5026 209.503 20.5729 209.62 20.6667L209.743 21.4225C209.825 21.528 209.86 21.5983 209.849 21.6335C209.849 21.7272 209.825 21.7975 209.778 21.8444L209.814 22.0378C209.638 22.0729 209.515 22.1139 209.444 22.1608C209.386 22.2077 209.327 22.2604 209.269 22.319C209.175 22.3307 209.105 22.3366 209.058 22.3366C209.023 22.3366 208.987 22.3366 208.952 22.3366C208.788 22.3366 208.589 22.3659 208.355 22.4245C208.038 22.319 207.71 22.2663 207.37 22.2663C207.241 22.2663 207.107 22.2721 206.966 22.2838C206.825 22.2956 206.685 22.3073 206.544 22.319C206.403 22.3424 206.257 22.36 206.105 22.3717C205.964 22.3835 205.818 22.3893 205.665 22.3893L205.261 22.4948ZM219.517 21.2116C219.446 21.4108 219.341 21.6159 219.2 21.8268C219.071 22.026 218.913 22.2077 218.726 22.3717C218.55 22.5241 218.351 22.653 218.128 22.7585C217.905 22.8639 217.671 22.9225 217.425 22.9342C217.273 22.8991 217.167 22.8581 217.109 22.8112C217.062 22.776 217.009 22.7409 216.95 22.7057C216.915 22.6823 216.88 22.6647 216.845 22.653C216.821 22.6295 216.798 22.612 216.775 22.6003L216.564 22.5124L216.634 22.2838C216.657 22.1901 216.651 22.1198 216.616 22.0729C216.581 22.0143 216.511 21.9381 216.405 21.8444C216.37 21.8092 216.335 21.7741 216.3 21.7389C216.265 21.7038 216.235 21.6686 216.212 21.6335L215.913 21.2995L216.388 21.1764C216.681 21.0944 216.874 20.9889 216.968 20.86C217.073 20.7311 217.114 20.5143 217.091 20.2096C216.857 20.1628 216.657 20.1569 216.493 20.192C216.341 20.2272 216.183 20.2682 216.019 20.3151C215.808 20.3737 215.591 20.4264 215.368 20.4733C215.157 20.5085 214.923 20.526 214.665 20.526C214.571 20.526 214.484 20.526 214.401 20.526C214.319 20.5143 214.232 20.5026 214.138 20.4909L213.962 20.4557C213.939 20.3268 213.915 20.2565 213.892 20.2448C213.868 20.2213 213.845 20.1979 213.821 20.1745C213.763 20.1159 213.698 20.0397 213.628 19.946C213.569 19.8405 213.558 19.7116 213.593 19.5592C213.534 19.4538 213.499 19.3483 213.487 19.2428C213.417 19.3835 213.364 19.5299 213.329 19.6823L213.259 19.8581L213.083 19.8932C213.06 19.9049 213.042 19.9342 213.03 19.9811C213.019 20.0163 213.013 20.0456 213.013 20.069L212.925 20.3678C212.901 20.3913 212.878 20.4147 212.855 20.4381C212.831 20.4499 212.808 20.4674 212.784 20.4909C212.761 20.5963 212.732 20.7018 212.696 20.8073C212.661 20.9128 212.626 21.0124 212.591 21.1061C212.532 21.2585 212.48 21.4108 212.433 21.5631C212.398 21.7038 212.386 21.8444 212.398 21.985L212.327 22.1784C212.269 22.2487 212.204 22.3073 212.134 22.3542C212.064 22.3893 211.993 22.4245 211.923 22.4596C211.9 22.4831 211.864 22.5065 211.818 22.5299C211.782 22.5417 211.753 22.5534 211.73 22.5651L211.677 22.7585L211.466 22.7936C211.337 22.817 211.243 22.8346 211.185 22.8463C211.138 22.8581 211.079 22.8639 211.009 22.8639L210.833 22.8463C210.704 22.7409 210.605 22.6588 210.534 22.6003C210.464 22.5299 210.382 22.4655 210.288 22.4069C210.183 22.2663 210.124 22.1608 210.112 22.0905C210.101 22.0202 210.089 21.9557 210.077 21.8971C210.054 21.8268 210.042 21.7682 210.042 21.7213C210.03 21.6745 210.013 21.6393 209.989 21.6159L209.761 21.4049L209.954 21.2467L209.972 20.9479C210.206 20.3503 210.452 19.776 210.71 19.2253C210.98 18.6745 211.255 18.112 211.536 17.5378C211.63 17.3503 211.718 17.1628 211.8 16.9753C211.894 16.7878 211.987 16.6003 212.081 16.4128C212.069 16.3776 212.064 16.3366 212.064 16.2897C212.064 16.2428 212.075 16.1901 212.099 16.1315C212.228 15.9323 212.333 15.7565 212.415 15.6042C212.497 15.4401 212.579 15.276 212.661 15.112C212.755 14.9128 212.849 14.7194 212.943 14.5319C213.048 14.3444 213.177 14.151 213.329 13.9518L213.61 13.8288C213.646 13.817 213.687 13.8053 213.734 13.7936C213.78 13.7702 213.833 13.7585 213.892 13.7585L214.155 13.7936C214.484 13.6413 214.771 13.4303 215.017 13.1608C215.263 12.8795 215.515 12.5456 215.773 12.1588L215.948 11.9128L216.177 12.0534C216.235 12.0885 216.318 12.1237 216.423 12.1588C216.528 12.1823 216.64 12.2116 216.757 12.2467C216.968 12.2936 217.167 12.3463 217.355 12.4049C217.542 12.4635 217.694 12.5514 217.812 12.6686C217.882 12.8561 217.923 12.9967 217.935 13.0905C217.946 13.1842 217.964 13.278 217.987 13.3717C218.023 13.571 218.052 13.7702 218.075 13.9694C218.11 14.1686 218.134 14.3913 218.146 14.6374C218.204 14.8366 218.251 15.0358 218.286 15.235C218.333 15.4225 218.374 15.6159 218.409 15.8151C218.468 16.0963 218.526 16.3717 218.585 16.6413C218.644 16.8991 218.72 17.1452 218.814 17.3795C218.907 17.3795 218.966 17.3854 218.989 17.3971C219.048 17.3737 219.107 17.3561 219.165 17.3444C219.235 17.3327 219.312 17.321 219.394 17.3092L219.587 17.2917L219.657 17.4674C219.669 17.526 219.728 17.5846 219.833 17.6432C219.985 17.6549 220.097 17.6901 220.167 17.7487C220.237 17.7956 220.302 17.8483 220.36 17.9069C220.407 17.9538 220.454 17.9889 220.501 18.0124L220.765 18.1178L220.624 18.3815C220.507 18.5924 220.337 18.7975 220.114 18.9967C219.903 19.1842 219.663 19.3424 219.394 19.4713C219.405 19.5417 219.411 19.612 219.411 19.6823C219.423 19.7409 219.441 19.8053 219.464 19.8756C219.499 20.0749 219.528 20.2799 219.552 20.4909C219.575 20.7018 219.575 20.9186 219.552 21.1413L219.517 21.2116ZM214.437 18.1706C214.788 18.1471 215.105 18.1237 215.386 18.1003C215.679 18.0651 216.001 18.0124 216.353 17.942C216.271 17.5905 216.183 17.2272 216.089 16.8522C215.995 16.4655 215.896 16.0846 215.79 15.7096L215.685 15.8854C215.45 16.1315 215.222 16.4069 214.999 16.7116C214.788 17.0163 214.607 17.3034 214.454 17.5729C214.384 17.6784 214.314 17.7838 214.243 17.8893C214.173 17.9948 214.109 18.1003 214.05 18.2057C214.12 18.194 214.185 18.1881 214.243 18.1881C214.314 18.1881 214.378 18.1823 214.437 18.1706ZM225.757 18.0827C225.675 18.153 225.605 18.2409 225.546 18.3463C225.487 18.4401 225.429 18.5397 225.37 18.6452C225.312 18.7741 225.247 18.8971 225.177 19.0143C225.107 19.1315 225.019 19.237 224.913 19.3307C224.855 19.5065 224.796 19.6471 224.737 19.7526C224.679 19.8463 224.585 19.9577 224.456 20.0866C224.339 20.5553 224.064 21.0651 223.63 21.6159C223.618 21.7213 223.583 21.8268 223.525 21.9323C223.478 22.026 223.425 22.1198 223.366 22.2135C223.343 22.2487 223.319 22.2897 223.296 22.3366C223.273 22.3717 223.255 22.401 223.243 22.4245L223.208 22.6003C223.15 22.694 223.085 22.776 223.015 22.8463C222.944 22.9167 222.88 22.9811 222.821 23.0397C222.798 23.0749 222.757 23.1217 222.698 23.1803L222.435 23.2858C221.579 23.1686 221.058 22.7116 220.87 21.9147L220.888 21.7389C220.911 21.6803 220.929 21.6217 220.941 21.5631C220.964 21.4928 220.987 21.4225 221.011 21.3522C221.058 21.1881 221.11 21.0241 221.169 20.86C221.239 20.696 221.339 20.5495 221.468 20.4206C221.491 20.3385 221.544 20.2096 221.626 20.0338C221.708 19.8463 221.849 19.571 222.048 19.2077C222.212 18.9264 222.341 18.7038 222.435 18.5397C222.528 18.3756 222.605 18.2467 222.663 18.153C222.546 17.9655 222.405 17.7956 222.241 17.6432C222.089 17.3503 221.954 17.069 221.837 16.7995C221.732 16.5299 221.65 16.2897 221.591 16.0788C221.579 15.9264 221.562 15.7975 221.538 15.692C221.515 15.5866 221.491 15.4753 221.468 15.3581C221.433 15.2292 221.403 15.1003 221.38 14.9713C221.357 14.8424 221.345 14.7077 221.345 14.567C221.286 14.485 221.251 14.403 221.239 14.321L221.275 14.1452C221.31 14.0631 221.316 13.9577 221.292 13.8288C221.269 13.6881 221.239 13.5475 221.204 13.4069C221.181 13.2897 221.151 13.1608 221.116 13.0202C221.093 12.8795 221.087 12.7389 221.099 12.5983C221.11 12.4577 221.146 12.3288 221.204 12.2116C221.275 12.0827 221.386 11.9713 221.538 11.8776L221.837 11.86C221.943 11.9186 222.042 11.9772 222.136 12.0358C222.241 12.0827 222.341 12.1354 222.435 12.194C222.564 12.2526 222.687 12.3112 222.804 12.3698C222.921 12.4284 223.044 12.5045 223.173 12.5983L223.296 12.8444L223.525 13.0378V13.2311C223.536 13.278 223.542 13.3424 223.542 13.4245C223.542 13.5768 223.566 13.6706 223.612 13.7057L223.683 13.9167C223.683 14.0807 223.7 14.2389 223.735 14.3913C223.771 14.5319 223.806 14.6667 223.841 14.7956C223.876 14.9245 223.911 15.0592 223.946 15.1999C223.982 15.3405 223.987 15.4928 223.964 15.6569C224.034 15.6217 224.093 15.5807 224.14 15.5338C224.163 15.5104 224.187 15.4928 224.21 15.4811C224.234 15.4694 224.257 15.4518 224.28 15.4284L225.318 14.0221L225.282 13.8463L225.651 13.4948C225.745 13.401 225.833 13.3131 225.915 13.2311C226.009 13.1491 226.085 13.0612 226.144 12.9674L226.337 12.8268C226.712 12.2409 227.245 11.8776 227.937 11.737L228.183 11.7018L228.253 11.9303C228.3 12.0592 228.394 12.1764 228.534 12.2819C228.687 12.3874 228.845 12.487 229.009 12.5807L229.167 12.6862C229.226 12.8034 229.255 12.8913 229.255 12.9499C229.255 13.0085 229.249 13.0612 229.237 13.1081L229.308 13.2838C229.214 13.5651 229.097 13.7702 228.956 13.8991C228.827 14.028 228.698 14.1452 228.569 14.2506C228.464 14.3444 228.364 14.4323 228.271 14.5143C228.189 14.5846 228.124 14.6784 228.077 14.7956L227.954 14.9362C227.708 15.0768 227.55 15.2643 227.48 15.4987L227.427 15.7096H227.216C227.204 15.7096 227.175 15.7331 227.128 15.7799C227.093 15.8151 227.034 15.9147 226.952 16.0788C226.87 16.196 226.812 16.2721 226.776 16.3073C226.741 16.3424 226.712 16.3717 226.689 16.3952C226.677 16.442 226.659 16.4889 226.636 16.5358C226.624 16.571 226.607 16.6178 226.583 16.6764C226.431 16.8288 226.337 16.946 226.302 17.028C226.267 17.0983 226.226 17.1803 226.179 17.2741C226.132 17.3678 226.085 17.4616 226.038 17.5553C226.003 17.6374 225.939 17.7253 225.845 17.819L225.757 18.0827Z" fill="white"/>
</svg>
