<svg width="72" height="72" viewBox="0 0 72 72" fill="none" xmlns="http://www.w3.org/2000/svg">
<rect width="72" height="72" rx="36" fill="#F82F61"/>
<path d="M32.1816 42.6506C30.8431 46.6309 25.5361 46.6309 25.5361 46.6309C25.5361 46.6309 25.5361 41.3238 29.5164 39.9854" stroke="white" stroke-width="2" stroke-linecap="square"/>
<path d="M44.1348 33.3517L36.1625 41.324L30.8438 36.0052L38.816 28.033C41.8335 25.0155 44.851 25.0507 46.1425 25.2386C46.3418 25.2651 46.5268 25.3566 46.669 25.4987C46.8111 25.6409 46.9026 25.8259 46.9292 26.0252C47.117 27.3167 47.1522 30.3342 44.1348 33.3517Z" stroke="white" stroke-width="2" stroke-linecap="square"/>
<path d="M43.8066 34.6782C43.8066 34.1259 43.3589 33.6782 42.8066 33.6782C42.2544 33.6782 41.8066 34.1259 41.8066 34.6782H43.8066ZM42.8066 42.263L43.8065 42.2773L43.8066 42.2701V42.263H42.8066ZM42.5249 42.9205L41.8249 42.2062L41.8167 42.2145L42.5249 42.9205ZM38.7325 46.7247L39.4392 47.4322L39.4406 47.4307L38.7325 46.7247ZM37.1474 46.2433L38.1282 46.0483L38.1279 46.0467L37.1474 46.2433ZM37.1416 41.1272L36.9451 40.1467L34.9841 40.5398L35.1806 41.5203L37.1416 41.1272ZM41.8066 34.6782V42.263H43.8066V34.6782H41.8066ZM41.8067 42.2488C41.807 42.2328 41.8135 42.2175 41.825 42.2063L43.2247 43.6348C43.5901 43.2767 43.7993 42.7888 43.8065 42.2773L41.8067 42.2488ZM41.8167 42.2145L38.0243 46.0187L39.4406 47.4307L43.233 43.6265L41.8167 42.2145ZM38.0258 46.0172C38.0335 46.0094 38.0433 46.0039 38.0539 46.0012L38.539 47.9415C38.8796 47.8563 39.1907 47.6803 39.4391 47.4322L38.0258 46.0172ZM38.0539 46.0012C38.0646 45.9985 38.0758 45.9988 38.0863 46.002L37.5051 47.9157C37.841 48.0177 38.1984 48.0267 38.539 47.9415L38.0539 46.0012ZM38.0863 46.002C38.0968 46.0052 38.1063 46.0112 38.1136 46.0193L36.6315 47.3622C36.8672 47.6224 37.1692 47.8137 37.5051 47.9157L38.0863 46.002ZM38.1136 46.0193C38.121 46.0275 38.126 46.0375 38.1282 46.0483L36.1666 46.4383C36.2351 46.7827 36.3957 47.102 36.6315 47.3622L38.1136 46.0193ZM38.1279 46.0467L37.1416 41.1272L35.1806 41.5203L36.1669 46.4398L38.1279 46.0467Z" fill="white"/>
<path d="M37.4882 30.3596C38.0405 30.3596 38.4882 29.9119 38.4882 29.3596C38.4882 28.8073 38.0405 28.3596 37.4882 28.3596V30.3596ZM29.9034 29.3596V28.3596H29.8962L29.8891 28.3597L29.9034 29.3596ZM29.2459 29.6414L29.9519 30.3497L29.9601 30.3413L29.2459 29.6414ZM25.4417 33.4338L24.7357 32.7256L24.7342 32.7271L25.4417 33.4338ZM25.9231 35.0189L26.1197 34.0384L26.1181 34.0381L25.9231 35.0189ZM30.6461 36.9856L31.6266 37.1822L32.0197 35.2212L31.0392 35.0246L30.6461 36.9856ZM37.4882 28.3596H29.9034V30.3596H37.4882V28.3596ZM29.8891 28.3597C29.3776 28.367 28.8897 28.5761 28.5316 28.9415L29.9601 30.3413C29.9489 30.3527 29.9336 30.3593 29.9176 30.3595L29.8891 28.3597ZM28.5399 28.9332L24.7357 32.7256L26.1477 34.142L29.9519 30.3496L28.5399 28.9332ZM24.7342 32.7271C24.4861 32.9755 24.3101 33.2866 24.2249 33.6272L26.1652 34.1123C26.1625 34.123 26.157 34.1327 26.1492 34.1405L24.7342 32.7271ZM24.2249 33.6272C24.1397 33.9679 24.1487 34.3252 24.2507 34.6612L26.1644 34.08C26.1676 34.0905 26.1678 34.1017 26.1652 34.1123L24.2249 33.6272ZM24.2507 34.6612C24.3527 34.9971 24.544 35.2991 24.8042 35.5348L26.147 34.0526C26.1552 34.06 26.1612 34.0694 26.1644 34.08L24.2507 34.6612ZM24.8042 35.5348C25.0644 35.7705 25.3837 35.9312 25.7281 35.9997L26.1181 34.0381C26.1289 34.0402 26.1389 34.0452 26.147 34.0526L24.8042 35.5348ZM25.7265 35.9994L30.6461 36.9856L31.0392 35.0246L26.1197 34.0384L25.7265 35.9994Z" fill="white"/>
</svg>
