<svg width="24" height="24" viewBox="0 0 24 24" fill="none" xmlns="http://www.w3.org/2000/svg">
<path d="M11.9995 8.24985C11.9995 6.18735 13.7339 4.47173 15.7964 4.49985C16.5187 4.50819 17.2232 4.72496 17.8253 5.12411C18.4273 5.52326 18.9013 6.08779 19.1902 6.74985H22.4995L19.4714 9.77798C19.276 12.8198 17.9295 15.673 15.7056 17.7575C13.4818 19.842 10.5476 21.0014 7.49953 20.9999C4.49953 20.9999 3.74953 19.8749 3.74953 19.8749C3.74953 19.8749 6.74953 18.7499 8.24953 16.4999C8.24953 16.4999 2.24953 13.4999 3.74953 5.24985C3.74953 5.24985 7.49953 8.99985 11.9995 9.74985V8.24985Z" stroke="#F41C52" stroke-width="1.5" stroke-linecap="round" stroke-linejoin="round"/>
</svg>
