<svg width="72" height="72" viewBox="0 0 72 72" fill="none" xmlns="http://www.w3.org/2000/svg">
<rect width="72" height="72" rx="36" fill="#F82F61"/>
<path d="M25.8655 33.6553H31.0587V44.9072H25.8655C25.636 44.9072 25.4158 44.816 25.2535 44.6537C25.0912 44.4914 25 44.2712 25 44.0417V34.5208C25 34.2913 25.0912 34.0711 25.2535 33.9088C25.4158 33.7465 25.636 33.6553 25.8655 33.6553V33.6553Z" stroke="white" stroke-width="2" stroke-linecap="square"/>
<path d="M31.0586 33.6553L35.3863 25C36.3045 25 37.1851 25.3648 37.8344 26.014C38.4836 26.6633 38.8484 27.5439 38.8484 28.4621V31.0587H45.5455C45.7909 31.0581 46.0336 31.1101 46.2574 31.211C46.4811 31.312 46.6806 31.4597 46.8425 31.6442C47.0045 31.8286 47.125 32.0456 47.1962 32.2805C47.2673 32.5155 47.2873 32.7629 47.2549 33.0062L45.9566 43.3926C45.9041 43.8095 45.7016 44.1931 45.3871 44.4718C45.0726 44.7505 44.6674 44.9053 44.2472 44.9073H31.0586" stroke="white" stroke-width="2" stroke-linecap="square"/>
</svg>
