<svg width="610" height="316" fill="none" xmlns="http://www.w3.org/2000/svg"><path d="M442 1c-.677.183-.97.483-1.198.838-.228.355-.39.764-.802 1.162-13.969 13.469-28.167 27.182-43.649 39.671S364.103 66.424 345 75c-98.091 44.033-192.102 84.75-289 129-21.143 9.655-45.628 17.258-52 32-4.058 9.387-4.252 30.572-1 39 8.144 21.108 41.969 31.55 73 37 76.693 13.47 125.283-15.126 176-38 78.366-35.344 152.151-69.877 229-104 23.542-10.453 49.526-20.347 72-39 9.327-7.741 18.11-16.398 29-26 6.174-5.444 25.79-20.409 27-29 .501-3.558-.576-14.45-3-18-3.989-5.843-28.042-10.985-40-15-31.361-10.528-52.083-17.377-82-28-10.651-3.782-36.868-15.385-42-14Z" fill="#F31B51"/><path d="M443 4c-.678.175-.972.478-1.2.835-.228.357-.389.77-.8 1.165-14.187 13.68-28.445 26.939-43.903 38.899C381.639 56.859 364.983 67.519 346 76c-94.918 42.41-189.978 84.921-287 128-13.964 6.2-48.402 16.724-48 35 .493 22.435 48.376 34.553 68 38 76.307 13.403 120.043-16.739 168-38 76.029-33.706 143.984-64.876 220-99 21.598-9.695 48.76-18.865 71-35 10.424-7.563 15.859-13.614 28-25 4.721-4.428 26.92-22.059 25-25-3.039-4.654-26.809-9.915-36-13-38.987-13.089-77.29-29.407-111-39-1.028-.293-.73.93-1 1Z" fill="#FF7E9F"/><path d="M251 237c-23.769-3.185-49.896-6.349-76.393-9.51-26.497-3.161-53.363-6.318-78.607-9.49-13.93-1.751-28.485-5.074-41.406-5.674-12.921-.6-24.206 1.526-31.594 10.674 55.43 6.807 121.471 14.941 179 22 8.881 1.09 18.59 4.822 25 4 7.423-.952 16.602-9.916 24-12Zm39-18c-32.627-3.029-68.67-7.847-104.409-12.623C149.852 201.6 114.416 196.865 83 194c-7.163-.653-16.685 9.529-24 11 56.211 7.273 122.626 15.96 180 23 8.959 1.099 18.325 4.804 25 4 8.54-1.029 18.23-9.641 26-13Zm216-97c-32.058-2.831-67.598-8.114-102.853-13.297C367.892 103.52 332.921 98.436 302 96c-8.012-.631-17.278 9.296-25 11 55.951 7.556 122.482 15.454 180 23 9.211 1.208 19.472 4.842 26 4 7.168-.925 16.069-9.215 23-12ZM315 90c23.987 2.835 50.125 6.333 76.447 9.874 26.322 3.541 52.828 7.124 77.553 10.126 15.281 1.856 38.132 8.205 53 5 4.187-.902 22.233-14.375 20-16-2.463-1.792-13.119-.654-21-1-56.658-2.491-127.614-14.037-182-19-7.796-.711-17.034 9.984-24 11Z" fill="#F31B51"/><path d="M423 22c-5.061.268-15.702 14.411-16 17-.592 5.141 6.775 18.556 10 27 7.507 19.653 14.311 34.524 23 53 2.888 6.14 13.024 22.717 11 25-.21.237-11.837 2.247-17 3-80.093 11.687-153.438 21.457-230 33-11.822 1.782-26.568 1.726-36 5-7.075 2.456-18.296 15.297-25 22-20.486 20.486-38.613 35.613-60 57-1.181 1.181-11.08 9.334-8 12 2.022 1.75 16.593 4.121 21 3 6.551-1.666 17.703-17.703 22-22 8.769-8.769 15.226-13.748 23-21 11.874-11.077 30.038-37.833 45-43 7.986-2.758 19.905-2.593 30-4 52.096-7.261 101.496-15.229 151-22 20.677-2.828 42.865-2.837 61-8 5.723-1.629 15.387-7.14 24-11 1.119-.502 23.723-10.348 24-11 1.226-2.889-6.22-14.4-6-14-13.069-23.75-23.719-44.307-33-70-2.466-6.827-9.587-31.234-14-31Z" fill="#47D1FF"/><path d="M75 275c-8.282-6.763-18.599-15.379-28.937-23.871C35.725 242.637 25.366 234.268 17 228c-2.529-1.894-6.066 8.014-6 11 .086 3.903 4.675 11.491 6 13 11.443 13.029 40.201 19.778 58 23ZM509 27c5.975 4.968 13.065 11.837 20.366 19.03C536.667 53.223 544.18 60.739 551 67c1.788 1.642 4.69 4.93 7.569 7.788 2.879 2.858 5.734 5.287 7.431 5.212 2.926-.129 11.023-9.278 14-12 5.158-4.715 9.01-8.923 13-13-27.812-8.855-57.279-21.386-84-28ZM336 200c-14.018-11.822-32.179-24.664-50.505-37.254C267.169 150.156 248.678 137.817 234 127c-1.382-1.018-7.785 1.682-14.516 5.037-6.731 3.354-13.791 7.363-16.484 8.963 11.234 7.533 24.244 16.536 37.565 25.905A4292.872 4292.872 0 0 1 280 195c3.105 2.237 7.957 6.663 12.857 10.566 4.9 3.903 9.847 7.284 13.143 7.434 9.213.418 20.721-13.399 30-13Zm48-23c-15.14-9.386-32.251-22.795-49.396-36.277C317.459 127.241 300.278 113.684 285 104c-2.002-1.269-9.102 1.995-16.277 5.82-7.175 3.824-14.423 8.209-16.723 9.18 11.059 7.447 23.676 16.711 36.595 26.356C301.514 155.001 314.734 165.027 327 174c6.57 4.806 19.435 17.797 26 18 3.942.122 11.413-4.951 16-7 5.58-2.493 10.354-4.815 15-8Z" fill="#FFDD3F"/><path d="M353 87c-4.897.676-10.046 1.272-13.897 2.901-3.851 1.63-6.403 4.291-6.103 9.1.484 7.766 16.712 12.764 32.955 13.572 16.243.808 32.501-2.575 33.045-11.573.915-15.112-33.778-15.687-46-14Z" fill="#F31B51"/><path d="M353 87c-4.897.676-10.046 1.272-13.897 2.901-3.851 1.63-6.403 4.291-6.103 9.1.484 7.766 16.712 12.764 32.955 13.572 16.243.808 32.501-2.575 33.045-11.573.915-15.112-33.778-15.687-46-14Z" stroke="#fff" stroke-width="3"/><path d="M371.5 95.5c-1.427-.552-3.967-1.557-6.568-2.484-2.6-.927-5.261-1.776-6.932-2.016-1.579-.227-1.116.737-1.5 1.5-.503 1.001-2.095 3.236-2 5 2.698.988 6.329-.189 9-.5 2.951-.344 6.34.223 8-1.5ZM387 102c.001-1.033-.863-1.557-2.046-1.935-1.182-.379-2.683-.612-3.954-1.065-1.348-.48-2.654-1.012-3.845-1.47-1.191-.459-2.267-.844-3.155-1.03-1.264-.265-2.088 1.132-2.685 2.71-.596 1.577-.964 3.335-1.315 3.79 5.285 1.229 11.13-1.162 17-1Zm-19 1.5c-1.334-.689-3.967-1.76-6.701-2.686-2.733-.925-5.566-1.706-7.299-1.814-.877-.055-1.243.481-1.456 1.2-.213.719-.274 1.621-.544 2.3-.286.72-.783 1.238-1.084 1.692-.302.455-.409.845.084 1.308 6.172-.162 12.217-.45 17-2Z" fill="#fff"/></svg>