<svg width="1920" height="1025" viewBox="0 0 1920 1025" fill="none" xmlns="http://www.w3.org/2000/svg">
<g clip-path="url(#clip0_1418_647)">
<mask id="mask0_1418_647" style="mask-type:luminance" maskUnits="userSpaceOnUse" x="0" y="0" width="1920" height="1025">
<path d="M1920 0H0V1025H1920V0Z" fill="white"/>
</mask>
<g mask="url(#mask0_1418_647)">
<path d="M1920 0H0V1025H1920V0Z" fill="white"/>
<path d="M1210 453.074H1960" stroke="#F3F3F3"/>
<path d="M1209.78 463.543L1959.12 494.95" stroke="#F3F3F3"/>
<path d="M1209.12 473.992L1956.49 536.751" stroke="#F3F3F3"/>
<path d="M1208.03 484.406L1952.11 578.406" stroke="#F3F3F3"/>
<path d="M1206.5 494.766L1946 619.842" stroke="#F3F3F3"/>
<path d="M1204.54 505.051L1938.15 660.985" stroke="#F3F3F3"/>
<path d="M1202.15 515.246L1928.58 701.764" stroke="#F3F3F3"/>
<path d="M1199.33 525.332L1917.32 742.106" stroke="#F3F3F3"/>
<path d="M1196.09 535.291L1904.38 781.941" stroke="#F3F3F3"/>
<path d="M1192.44 545.105L1889.78 821.199" stroke="#F3F3F3"/>
<path d="M1188.39 554.758L1873.55 859.81" stroke="#F3F3F3"/>
<path d="M1183.93 564.232L1855.71 897.709" stroke="#F3F3F3"/>
<path d="M1179.08 573.512L1836.31 934.827" stroke="#F3F3F3"/>
<path d="M1173.84 582.58L1815.36 971.1" stroke="#F3F3F3"/>
<path d="M1168.23 591.422L1792.92 1006.47" stroke="#F3F3F3"/>
<path d="M1162.25 600.02L1769.02 1040.86" stroke="#F3F3F3"/>
<path d="M1155.92 608.361L1743.69 1074.22" stroke="#F3F3F3"/>
<path d="M1149.25 616.43L1717 1106.5" stroke="#F3F3F3"/>
<path d="M1142.24 624.211L1688.97 1137.62" stroke="#F3F3F3"/>
<path d="M1134.92 631.691L1659.66 1167.55" stroke="#F3F3F3"/>
<path d="M1127.28 638.859L1629.13 1196.22" stroke="#F3F3F3"/>
<path d="M1119.36 645.701L1597.42 1223.59" stroke="#F3F3F3"/>
<path d="M1111.15 652.207L1564.6 1249.6" stroke="#F3F3F3"/>
<path d="M1102.68 658.361L1530.71 1274.22" stroke="#F3F3F3"/>
<path d="M1093.96 664.156L1495.83 1297.4" stroke="#F3F3F3"/>
<path d="M1085 669.58L1460 1319.1" stroke="#F3F3F3"/>
<path d="M1075.82 674.625L1423.3 1339.28" stroke="#F3F3F3"/>
<path d="M1066.44 679.281L1385.78 1357.9" stroke="#F3F3F3"/>
<path d="M1056.88 683.539L1347.52 1374.94" stroke="#F3F3F3"/>
<path d="M1047.14 687.395L1308.57 1390.36" stroke="#F3F3F3"/>
<path d="M1037.25 690.838L1269.02 1404.13" stroke="#F3F3F3"/>
<path d="M1027.23 693.863L1228.92 1416.24" stroke="#F3F3F3"/>
<path d="M1017.09 696.469L1188.35 1426.65" stroke="#F3F3F3"/>
<path d="M1006.85 698.645L1147.38 1435.36" stroke="#F3F3F3"/>
<path d="M996.521 700.393L1106.08 1442.35" stroke="#F3F3F3"/>
<path d="M986.132 701.703L1064.53 1447.59" stroke="#F3F3F3"/>
<path d="M975.698 702.58L1022.79 1451.1" stroke="#F3F3F3"/>
<path d="M965.236 703.02L980.942 1452.86" stroke="#F3F3F3"/>
<path d="M954.764 703.02L939.058 1452.86" stroke="#F3F3F3"/>
<path d="M944.302 702.58L897.209 1451.1" stroke="#F3F3F3"/>
<path d="M933.868 701.703L855.472 1447.59" stroke="#F3F3F3"/>
<path d="M923.479 700.393L813.917 1442.35" stroke="#F3F3F3"/>
<path d="M913.155 698.645L772.619 1435.36" stroke="#F3F3F3"/>
<path d="M902.912 696.469L731.649 1426.65" stroke="#F3F3F3"/>
<path d="M892.77 693.863L691.08 1416.24" stroke="#F3F3F3"/>
<path d="M882.746 690.838L650.983 1404.13" stroke="#F3F3F3"/>
<path d="M872.857 687.395L611.428 1390.36" stroke="#F3F3F3"/>
<path d="M863.121 683.539L572.484 1374.94" stroke="#F3F3F3"/>
<path d="M853.555 679.281L534.221 1357.9" stroke="#F3F3F3"/>
<path d="M844.176 674.625L496.704 1339.28" stroke="#F3F3F3"/>
<path d="M835 669.58L460 1319.1" stroke="#F3F3F3"/>
<path d="M826.043 664.156L424.173 1297.4" stroke="#F3F3F3"/>
<path d="M817.322 658.361L389.286 1274.22" stroke="#F3F3F3"/>
<path d="M808.85 652.207L355.401 1249.6" stroke="#F3F3F3"/>
<path d="M800.644 645.701L322.576 1223.59" stroke="#F3F3F3"/>
<path d="M792.717 638.859L290.869 1196.22" stroke="#F3F3F3"/>
<path d="M785.084 631.691L260.337 1167.55" stroke="#F3F3F3"/>
<path d="M777.758 624.211L231.031 1137.62" stroke="#F3F3F3"/>
<path d="M770.751 616.43L203.005 1106.5" stroke="#F3F3F3"/>
<path d="M764.077 608.361L176.307 1074.22" stroke="#F3F3F3"/>
<path d="M757.746 600.02L150.983 1040.86" stroke="#F3F3F3"/>
<path d="M751.77 591.422L127.079 1006.47" stroke="#F3F3F3"/>
<path d="M746.159 582.58L104.636 971.1" stroke="#F3F3F3"/>
<path d="M740.923 573.512L83.6934 934.827" stroke="#F3F3F3"/>
<path d="M736.072 564.232L64.2883 897.709" stroke="#F3F3F3"/>
<path d="M731.614 554.758L46.4546 859.81" stroke="#F3F3F3"/>
<path d="M727.556 545.105L30.2234 821.199" stroke="#F3F3F3"/>
<path d="M723.906 535.291L15.6238 781.941" stroke="#F3F3F3"/>
<path d="M720.67 525.332L2.68042 742.106" stroke="#F3F3F3"/>
<path d="M717.854 515.246L-8.58325 701.764" stroke="#F3F3F3"/>
<path d="M715.463 505.051L-18.1477 660.985" stroke="#F3F3F3"/>
<path d="M713.501 494.766L-25.9961 619.842" stroke="#F3F3F3"/>
<path d="M711.971 484.406L-32.1147 578.406" stroke="#F3F3F3"/>
<path d="M710.877 473.992L-36.4929 536.751" stroke="#F3F3F3"/>
<path d="M710.219 463.543L-39.1228 494.95" stroke="#F3F3F3"/>
<path d="M710 453.074H-40" stroke="#F3F3F3"/>
<path d="M710.219 442.604L-39.1228 411.197" stroke="#F3F3F3"/>
<path d="M710.877 432.155L-36.4929 369.396" stroke="#F3F3F3"/>
<path d="M711.971 421.74L-32.1147 327.74" stroke="#F3F3F3"/>
<path d="M713.501 411.381L-25.9961 286.305" stroke="#F3F3F3"/>
<path d="M715.463 401.096L-18.1477 245.162" stroke="#F3F3F3"/>
<path d="M717.854 390.9L-8.58325 204.383" stroke="#F3F3F3"/>
<path d="M720.67 380.815L2.68042 164.041" stroke="#F3F3F3"/>
<path d="M723.906 370.857L15.6238 124.207" stroke="#F3F3F3"/>
<path d="M727.556 361.043L30.2234 84.9492" stroke="#F3F3F3"/>
<path d="M731.614 351.39L46.4546 46.3379" stroke="#F3F3F3"/>
<path d="M736.072 341.914L64.2883 8.4375" stroke="#F3F3F3"/>
<path d="M740.923 332.636L83.6934 -28.6797" stroke="#F3F3F3"/>
<path d="M746.159 323.567L104.636 -64.9531" stroke="#F3F3F3"/>
<path d="M751.77 314.725L127.079 -100.318" stroke="#F3F3F3"/>
<path d="M757.746 306.128L150.983 -134.711" stroke="#F3F3F3"/>
<path d="M764.077 297.787L176.307 -168.074" stroke="#F3F3F3"/>
<path d="M770.751 289.718L203.005 -200.348" stroke="#F3F3F3"/>
<path d="M777.758 281.938L231.031 -231.473" stroke="#F3F3F3"/>
<path d="M785.084 274.456L260.337 -261.398" stroke="#F3F3F3"/>
<path d="M792.717 267.288L290.869 -290.07" stroke="#F3F3F3"/>
<path d="M800.644 260.445L322.576 -317.439" stroke="#F3F3F3"/>
<path d="M808.85 253.94L355.401 -343.457" stroke="#F3F3F3"/>
<path d="M817.322 247.786L389.286 -368.076" stroke="#F3F3F3"/>
<path d="M826.043 241.992L424.173 -391.254" stroke="#F3F3F3"/>
<path d="M835 236.568L460 -412.951" stroke="#F3F3F3"/>
<path d="M844.176 231.524L496.704 -433.129" stroke="#F3F3F3"/>
<path d="M853.555 226.866L534.221 -451.754" stroke="#F3F3F3"/>
<path d="M863.121 222.608L572.484 -468.789" stroke="#F3F3F3"/>
<path d="M872.857 218.753L611.428 -484.209" stroke="#F3F3F3"/>
<path d="M882.746 215.31L650.983 -497.982" stroke="#F3F3F3"/>
<path d="M892.77 212.282L691.08 -510.09" stroke="#F3F3F3"/>
<path d="M902.912 209.678L731.649 -520.506" stroke="#F3F3F3"/>
<path d="M913.155 207.503L772.619 -529.213" stroke="#F3F3F3"/>
<path d="M923.479 205.755L813.917 -536.199" stroke="#F3F3F3"/>
<path d="M933.868 204.442L855.472 -541.449" stroke="#F3F3F3"/>
<path d="M944.302 203.567L897.209 -544.953" stroke="#F3F3F3"/>
<path d="M954.764 203.128L939.058 -546.707" stroke="#F3F3F3"/>
<path d="M965.236 203.128L980.942 -546.707" stroke="#F3F3F3"/>
<path d="M975.698 203.567L1022.79 -544.953" stroke="#F3F3F3"/>
<path d="M986.132 204.442L1064.53 -541.449" stroke="#F3F3F3"/>
<path d="M996.521 205.755L1106.08 -536.199" stroke="#F3F3F3"/>
<path d="M1006.85 207.503L1147.38 -529.213" stroke="#F3F3F3"/>
<path d="M1017.09 209.678L1188.35 -520.506" stroke="#F3F3F3"/>
<path d="M1027.23 212.282L1228.92 -510.09" stroke="#F3F3F3"/>
<path d="M1037.25 215.31L1269.02 -497.982" stroke="#F3F3F3"/>
<path d="M1047.14 218.753L1308.57 -484.209" stroke="#F3F3F3"/>
<path d="M1056.88 222.608L1347.52 -468.789" stroke="#F3F3F3"/>
<path d="M1066.44 226.866L1385.78 -451.754" stroke="#F3F3F3"/>
<path d="M1075.82 231.524L1423.3 -433.129" stroke="#F3F3F3"/>
<path d="M1085 236.568L1460 -412.951" stroke="#F3F3F3"/>
<path d="M1093.96 241.992L1495.83 -391.254" stroke="#F3F3F3"/>
<path d="M1102.68 247.786L1530.71 -368.076" stroke="#F3F3F3"/>
<path d="M1111.15 253.94L1564.6 -343.457" stroke="#F3F3F3"/>
<path d="M1119.36 260.445L1597.42 -317.439" stroke="#F3F3F3"/>
<path d="M1127.28 267.288L1629.13 -290.07" stroke="#F3F3F3"/>
<path d="M1134.92 274.456L1659.66 -261.398" stroke="#F3F3F3"/>
<path d="M1142.24 281.938L1688.97 -231.473" stroke="#F3F3F3"/>
<path d="M1149.25 289.718L1717 -200.348" stroke="#F3F3F3"/>
<path d="M1155.92 297.787L1743.69 -168.074" stroke="#F3F3F3"/>
<path d="M1162.25 306.128L1769.02 -134.711" stroke="#F3F3F3"/>
<path d="M1168.23 314.725L1792.92 -100.318" stroke="#F3F3F3"/>
<path d="M1173.84 323.567L1815.36 -64.9531" stroke="#F3F3F3"/>
<path d="M1179.08 332.636L1836.31 -28.6797" stroke="#F3F3F3"/>
<path d="M1183.93 341.914L1855.71 8.4375" stroke="#F3F3F3"/>
<path d="M1188.39 351.39L1873.55 46.3379" stroke="#F3F3F3"/>
<path d="M1192.44 361.043L1889.78 84.9492" stroke="#F3F3F3"/>
<path d="M1196.09 370.857L1904.38 124.207" stroke="#F3F3F3"/>
<path d="M1199.33 380.815L1917.32 164.041" stroke="#F3F3F3"/>
<path d="M1202.15 390.9L1928.58 204.383" stroke="#F3F3F3"/>
<path d="M1204.54 401.096L1938.15 245.162" stroke="#F3F3F3"/>
<path d="M1206.5 411.381L1946 286.305" stroke="#F3F3F3"/>
<path d="M1208.03 421.74L1952.11 327.74" stroke="#F3F3F3"/>
<path d="M1209.12 432.155L1956.49 369.396" stroke="#F3F3F3"/>
<path d="M1209.78 442.604L1959.12 411.197" stroke="#F3F3F3"/>
</g>
<circle cx="965.238" cy="453.979" r="1044.54" fill="url(#paint0_radial_1418_647)"/>
</g>
<defs>
<radialGradient id="paint0_radial_1418_647" cx="0" cy="0" r="1" gradientUnits="userSpaceOnUse" gradientTransform="translate(965.238 447.956) rotate(90) scale(1063.47)">
<stop stop-color="white" stop-opacity="0"/>
<stop offset="0.435" stop-color="white" stop-opacity="0.11"/>
<stop offset="1" stop-color="white"/>
</radialGradient>
<clipPath id="clip0_1418_647">
<rect width="1920" height="1025" fill="white"/>
</clipPath>
</defs>
</svg>
