<svg width="80" height="80" viewBox="0 0 80 80" fill="none" xmlns="http://www.w3.org/2000/svg">
<path d="M12 24.3889C12 18.5487 12 15.6286 13.8143 13.8143C15.6286 12 18.5487 12 24.3889 12H55.3611C61.2013 12 64.1214 12 65.9357 13.8143C67.75 15.6286 67.75 18.5487 67.75 24.3889V55.3611C67.75 61.2013 67.75 64.1214 65.9357 65.9357C64.1214 67.75 61.2013 67.75 55.3611 67.75H24.3889C18.5487 67.75 15.6286 67.75 13.8143 65.9357C12 64.1214 12 61.2013 12 55.3611V24.3889Z" stroke="#F52357" stroke-width="6"/>
<path fill-rule="evenodd" clip-rule="evenodd" d="M58.4583 33.6794H41.9094C39.3774 33.6794 38.1115 33.6794 36.9731 33.2078C35.8347 32.7363 34.9395 31.8411 33.1492 30.0507L31.1147 28.0163C29.3244 26.2259 28.4292 25.3307 27.2908 24.8592C26.1524 24.3877 24.8864 24.3877 22.3545 24.3877H12V55.3599C12 61.2001 12 64.1202 13.8143 65.9345C15.6286 67.7488 18.5487 67.7488 24.3889 67.7488H55.3611C61.2013 67.7488 64.1214 67.7488 65.9357 65.9345C67.75 64.1202 67.75 61.2001 67.75 55.3599V24.3877C67.75 27.2739 67.75 28.7171 67.2785 29.8554C66.6498 31.3732 65.4439 32.5791 63.9261 33.2078C62.7877 33.6794 61.3446 33.6794 58.4583 33.6794ZM24.3888 50.2628H22.3888V54.2628H24.3888H49.1666H51.1666V50.2628H49.1666H24.3888Z" fill="#F52357"/>
</svg>
