<svg width="81" height="80" viewBox="0 0 81 80" fill="none" xmlns="http://www.w3.org/2000/svg">
<path d="M11.9009 25.9133C10.5366 25.9133 9.37899 26.3939 8.42745 27.3553C7.47591 28.3167 7 29.4703 7 30.8167V51.4896C7 52.8698 7.47577 54.0383 8.42745 54.9998C9.37899 55.9612 10.5366 56.442 11.9009 56.442C13.2642 56.442 14.4147 55.9613 15.3515 54.9998C16.2864 54.0384 16.7552 52.8698 16.7552 51.4896V30.8167C16.7552 29.4701 16.2794 28.3167 15.3277 27.3553C14.3761 26.3939 13.2335 25.9133 11.9009 25.9133Z" fill="black"/>
<path d="M51.3024 7.35514L54.681 1.0581C54.9028 0.641215 54.8239 0.321531 54.4436 0.0967407C54.0309 -0.0970943 53.7137 0.0011251 53.4921 0.384456L50.0662 6.73183C47.0517 5.38525 43.8633 4.71074 40.5012 4.71074C37.1383 4.71074 33.9497 5.3854 30.9363 6.73183L27.5103 0.384456C27.2876 0.0011251 26.9705 -0.0962263 26.5587 0.0967407C26.1776 0.322544 26.0987 0.641215 26.3213 1.0581L29.7001 7.35514C26.2741 9.12034 23.5455 11.5787 21.5153 14.7356C19.485 17.8943 18.4695 21.346 18.4695 25.0968H62.485C62.485 21.3468 61.4693 17.895 59.4393 14.7356C57.4089 11.5787 54.6961 9.12034 51.3024 7.35514ZM31.7687 16.5143C31.4033 16.8843 30.9669 17.0684 30.4596 17.0684C29.9514 17.0684 29.5239 16.8843 29.1751 16.5143C28.8263 16.146 28.6519 15.7068 28.6519 15.1926C28.6519 14.6801 28.8263 14.24 29.1751 13.8709C29.5239 13.5026 29.9524 13.3185 30.4596 13.3185C30.9669 13.3185 31.4033 13.5026 31.7687 13.8709C32.1332 14.2409 32.3163 14.6801 32.3163 15.1926C32.3153 15.706 32.1323 16.146 31.7687 16.5143ZM51.8254 16.5143C51.4759 16.8843 51.0474 17.0684 50.541 17.0684C50.0326 17.0684 49.5963 16.8843 49.2317 16.5143C48.8664 16.146 48.6842 15.7068 48.6842 15.1926C48.6842 14.6801 48.8664 14.24 49.2317 13.8709C49.5963 13.5026 50.0326 13.3185 50.541 13.3185C51.0483 13.3185 51.4758 13.5026 51.8254 13.8709C52.1745 14.2409 52.3486 14.6801 52.3486 15.1926C52.3486 15.706 52.1743 16.146 51.8254 16.5143Z" fill="black"/>
<path d="M18.6582 58.8452C18.6582 60.321 19.1655 61.5702 20.1801 62.5954C21.1957 63.6205 22.4321 64.133 23.8918 64.133H27.4133L27.4616 75.0477C27.4616 76.4259 27.9373 77.5963 28.8889 78.5578C29.8404 79.5193 30.9831 80 32.3149 80C33.6783 80 34.8366 79.5193 35.7883 78.5578C36.74 77.5963 37.2157 76.4261 37.2157 75.0477V64.134H43.7823V75.0477C43.7823 76.4259 44.2579 77.5963 45.2096 78.5578C46.1613 79.5193 47.3186 80 48.683 80C50.0465 80 51.2047 79.5193 52.1564 78.5578C53.1081 77.5963 53.5837 76.4261 53.5837 75.0477V64.134H57.1528C58.5801 64.134 59.8006 63.6214 60.8172 62.5962C61.8317 61.5711 62.3393 60.3218 62.3393 58.8462V26.8257H18.6582V58.8452Z" fill="black"/>
<path d="M69.0993 25.9133C67.7665 25.9133 66.6248 26.3868 65.6731 27.3314C64.7216 28.2778 64.2458 29.4402 64.2458 30.8167V51.4896C64.2458 52.8698 64.7214 54.0383 65.6731 54.9998C66.6248 55.9613 67.7673 56.442 69.0993 56.442C70.4627 56.442 71.621 55.9613 72.5727 54.9998C73.5244 54.0383 74 52.8698 74 51.4896V30.8167C74 29.44 73.5244 28.2778 72.5727 27.3314C71.621 26.3868 70.4627 25.9133 69.0993 25.9133Z" fill="black"/>
</svg>
