<svg width="81" height="80" viewBox="0 0 81 80" fill="none" xmlns="http://www.w3.org/2000/svg">
<g clip-path="url(#clip0_2124_9502)">
<path d="M75.1316 20.0002C71.6207 13.9199 66.5712 8.87084 60.4907 5.36043C54.4101 1.85002 47.5127 0.00195312 40.4916 0.00195312C33.4704 0.00195312 26.573 1.85002 20.4924 5.36043C14.4119 8.87084 9.36243 13.9199 5.85156 20.0002L8.25156 63.2002L75.1316 20.0002Z" fill="url(#paint0_linear_2124_9502)"/>
<path d="M23.179 50L5.85898 20C2.34829 26.0807 0.500045 32.9784 0.5 39.9997C0.499955 47.0211 2.34812 53.9188 5.85873 59.9996C9.36934 66.0803 14.4187 71.1298 20.4993 74.6406C26.58 78.1514 33.4776 79.9998 40.499 80L79.699 40L23.179 50Z" fill="url(#paint1_linear_2124_9502)"/>
<path d="M57.82 50L40.5 80C47.5207 79.9984 54.4173 78.149 60.4968 74.6376C66.5764 71.1263 71.6246 66.0766 75.1343 59.9961C78.6439 53.9156 80.4914 47.0184 80.491 39.9977C80.4906 32.977 78.6424 26.0801 75.132 20H40.5L57.82 50Z" fill="url(#paint2_linear_2124_9502)"/>
<path d="M40.5 60C43.1264 60 45.7272 59.4827 48.1537 58.4776C50.5802 57.4725 52.785 55.9993 54.6421 54.1421C56.4993 52.285 57.9725 50.0802 58.9776 47.6537C59.9827 45.2272 60.5 42.6264 60.5 40C60.5 37.3736 59.9827 34.7728 58.9776 32.3463C57.9725 29.9198 56.4993 27.715 54.6421 25.8579C52.785 24.0007 50.5802 22.5275 48.1537 21.5224C45.7272 20.5173 43.1264 20 40.5 20C35.1957 20 30.1086 22.1071 26.3579 25.8579C22.6071 29.6086 20.5 34.6957 20.5 40C20.5 45.3043 22.6071 50.3914 26.3579 54.1421C30.1086 57.8929 35.1957 60 40.5 60Z" fill="white"/>
<path d="M40.5002 55.8402C42.5803 55.8402 44.6401 55.4304 46.5619 54.6344C48.4837 53.8384 50.2299 52.6716 51.7007 51.2007C53.1716 49.7299 54.3384 47.9837 55.1344 46.0619C55.9304 44.1401 56.3402 42.0803 56.3402 40.0002C56.3402 37.92 55.9304 35.8602 55.1344 33.9384C54.3384 32.0167 53.1716 30.2705 51.7007 28.7996C50.2299 27.3287 48.4837 26.1619 46.5619 25.3659C44.6401 24.5699 42.5803 24.1602 40.5002 24.1602C36.2991 24.1602 32.2702 25.829 29.2996 28.7996C26.329 31.7702 24.6602 35.7991 24.6602 40.0002C24.6602 44.2012 26.329 48.2302 29.2996 51.2007C32.2702 54.1713 36.2991 55.8402 40.5002 55.8402Z" fill="#1A73E8"/>
</g>
<defs>
<linearGradient id="paint0_linear_2124_9502" x1="5.85956" y1="25.0002" x2="75.1316" y2="25.0002" gradientUnits="userSpaceOnUse">
<stop stop-color="#D93025"/>
<stop offset="1" stop-color="#EA4335"/>
</linearGradient>
<linearGradient id="paint1_linear_2124_9502" x1="44.827" y1="77.496" x2="10.187" y2="17.496" gradientUnits="userSpaceOnUse">
<stop stop-color="#1E8E3E"/>
<stop offset="1" stop-color="#34A853"/>
</linearGradient>
<linearGradient id="paint2_linear_2124_9502" x1="34.66" y1="80" x2="69.3" y2="20.104" gradientUnits="userSpaceOnUse">
<stop stop-color="#FCC934"/>
<stop offset="1" stop-color="#FBBC04"/>
</linearGradient>
<clipPath id="clip0_2124_9502">
<rect x="0.5" width="80" height="80" rx="16" fill="white"/>
</clipPath>
</defs>
</svg>
