<svg width="129" height="36" viewBox="0 0 129 36" fill="none" xmlns="http://www.w3.org/2000/svg">
  <path d="M52.7802 23.362H51.0657C50.9509 23.362 50.8429 23.416 50.7732 23.5082C49.7775 24.9797 48.0957 25.9472 46.1832 25.9472C43.1232 25.9472 40.6448 23.4677 40.6448 20.4088C40.6448 17.35 43.1243 14.8705 46.1832 14.8705C47.0896 14.8703 47.9821 15.0927 48.7824 15.5182C49.5828 15.9436 50.2664 16.5591 50.7732 17.3106C50.8429 17.4006 50.9509 17.4569 51.0657 17.4569H52.7802C52.8428 17.4562 52.9043 17.4397 52.9589 17.4089C53.0135 17.378 53.0594 17.3339 53.0923 17.2805C53.1252 17.2272 53.144 17.1664 53.1471 17.1038C53.1502 17.0411 53.1373 16.9788 53.1098 16.9225C52.464 15.6396 51.4744 14.5614 50.2516 13.8081C49.0287 13.0548 47.6206 12.6561 46.1843 12.6565C41.9026 12.6565 38.4297 16.1282 38.4297 20.4111C38.4297 24.694 41.9014 28.1657 46.1843 28.1657C47.6204 28.1659 49.0282 27.7671 50.2509 27.0138C51.4736 26.2605 52.4629 25.1824 53.1086 23.8997C53.1356 23.848 53.1491 23.7917 53.1491 23.7343C53.1486 23.6365 53.1093 23.5428 53.04 23.4737C52.9707 23.4046 52.8769 23.3656 52.779 23.3653L52.7802 23.362ZM57.9495 10.069C57.9495 12.0377 54.9953 12.0377 54.9953 10.069C54.9953 8.10025 57.9495 8.10025 57.9495 10.069ZM57.5816 27.4232V13.0232H55.3654V27.4232C55.366 27.5209 55.4051 27.6144 55.4741 27.6835C55.5432 27.7525 55.6367 27.7916 55.7344 27.7922H57.2115C57.3092 27.7916 57.4027 27.7525 57.4718 27.6835C57.5409 27.6144 57.5799 27.5209 57.5805 27.4232H57.5816ZM67.1891 12.6632C64.9549 12.769 63.1695 13.8366 62.0141 15.4667V13.3922C62.0135 13.2946 61.9745 13.201 61.9054 13.132C61.8363 13.0629 61.7428 13.0238 61.6451 13.0232H60.1691C60.0714 13.0238 59.9779 13.0629 59.9089 13.132C59.8398 13.201 59.8007 13.2946 59.8001 13.3922V27.4232C59.8001 27.6257 59.9644 27.7922 60.1691 27.7922H61.6463C61.7439 27.7916 61.8374 27.7525 61.9065 27.6835C61.9756 27.6144 62.0147 27.5209 62.0152 27.4232V20.4077C62.0152 17.4827 64.299 15.0719 67.1846 14.8817C67.2827 14.8814 67.3767 14.8423 67.446 14.773C67.5153 14.7036 67.5544 14.6097 67.5547 14.5116V13.0311C67.5542 12.9344 67.5159 12.8417 67.448 12.7728C67.3801 12.7039 67.2881 12.6642 67.1914 12.6621L67.1891 12.6632ZM81.9041 23.3507H80.1896C80.0748 23.3507 79.9668 23.4047 79.8971 23.497C78.9015 24.9685 77.2196 25.936 75.3071 25.936C72.2471 25.936 69.7687 23.4565 69.7687 20.3976C69.7687 17.3387 72.2482 14.8592 75.3071 14.8592C77.2173 14.8592 78.9003 15.8267 79.8971 17.3005C79.9668 17.3905 80.0748 17.4467 80.1896 17.4467H81.9153C82.0132 17.4464 82.107 17.4075 82.1763 17.3384C82.2456 17.2693 82.2849 17.1756 82.2854 17.0777C82.2854 17.0202 82.2715 16.9634 82.2449 16.9124C81.5992 15.6296 80.6099 14.5515 79.3872 13.7983C78.1645 13.045 76.7567 12.6462 75.3206 12.6464C71.0377 12.6464 67.566 16.1181 67.566 20.401C67.566 24.6838 71.0377 28.1556 75.3206 28.1556C76.7567 28.1557 78.1645 27.7569 79.3872 27.0037C80.6099 26.2504 81.5992 25.1723 82.2449 23.8896C82.2719 23.8378 82.2854 23.7816 82.2854 23.7242C82.2849 23.6263 82.2456 23.5327 82.1763 23.4635C82.107 23.3944 82.0132 23.3555 81.9153 23.3552L81.9041 23.3507ZM86.3366 8.21162H84.8594C84.7618 8.21221 84.6682 8.25128 84.5992 8.32035C84.5301 8.38943 84.491 8.48294 84.4904 8.58062V27.4131C84.491 27.5108 84.5301 27.6043 84.5992 27.6733C84.6682 27.7424 84.7618 27.7815 84.8594 27.7821H86.3366C86.4342 27.7815 86.5278 27.7424 86.5968 27.6733C86.6659 27.6043 86.705 27.5108 86.7056 27.4131V8.59075C86.705 8.49307 86.6659 8.39955 86.5968 8.33048C86.5278 8.26141 86.4342 8.22234 86.3366 8.22175V8.21162ZM96.6865 12.6441C92.4037 12.6441 88.9319 16.1159 88.9319 20.3987C88.9319 24.6816 92.4037 28.1533 96.6865 28.1533C98.1226 28.1535 99.5305 27.7547 100.753 27.0014C101.976 26.2482 102.965 25.1701 103.611 23.8873C103.738 23.6421 103.558 23.3496 103.282 23.353H101.558C101.44 23.353 101.329 23.4092 101.26 23.5048C100.264 24.9718 98.5821 25.9371 96.6753 25.9371C93.8673 25.9371 91.5475 23.8468 91.1853 21.1367H104.049C104.143 21.136 104.234 21.0993 104.302 21.0341C104.37 20.9689 104.411 20.88 104.416 20.7857L104.428 20.3976C104.428 16.1147 100.956 12.643 96.6742 12.643L96.6865 12.6441ZM91.3484 18.9216C91.9953 16.5816 94.1384 14.8716 96.6865 14.8716C99.2347 14.8716 101.378 16.5929 102.025 18.9216H91.3484ZM125.888 7.84375C122.934 7.84375 122.934 12.2762 125.888 12.2762C128.842 12.2762 128.842 7.84375 125.888 7.84375ZM127.733 13.0131V27.4131C127.732 27.5108 127.693 27.6043 127.624 27.6733C127.555 27.7424 127.462 27.7815 127.364 27.7821H124.41C124.312 27.7815 124.219 27.7424 124.15 27.6733C124.08 27.6043 124.041 27.5108 124.041 27.4131V13.0131H127.733ZM114.394 28.1612C118.014 28.1612 121.051 25.6806 121.907 22.3281C121.913 22.3034 121.916 22.2781 121.916 22.2527C121.915 22.155 121.876 22.0615 121.807 21.9924C121.738 21.9234 121.644 21.8843 121.547 21.8837H118.421C118.351 21.8841 118.282 21.9046 118.222 21.9429C118.163 21.9811 118.116 22.0355 118.086 22.0997C117.443 23.497 116.033 24.4678 114.394 24.4678C113.665 24.468 112.949 24.2719 112.322 23.9C111.695 23.5282 111.179 22.9944 110.83 22.3547C110.48 21.715 110.309 20.9929 110.334 20.2642C110.36 19.5356 110.581 18.8272 110.975 18.2136C111.369 17.5999 111.92 17.1035 112.572 16.7766C113.224 16.4496 113.951 16.3041 114.679 16.3554C115.406 16.4066 116.106 16.6527 116.705 17.0679C117.305 17.483 117.781 18.0518 118.085 18.7146C118.115 18.7786 118.162 18.8327 118.221 18.8708C118.281 18.9088 118.35 18.9292 118.42 18.9295H121.546C121.643 18.9289 121.737 18.8898 121.806 18.8207C121.875 18.7517 121.914 18.6582 121.915 18.5605C121.914 18.5355 121.911 18.5106 121.906 18.4862C121.051 15.1337 118.013 12.652 114.393 12.652C110.111 12.652 106.638 16.1237 106.638 20.4066C106.638 24.6895 110.111 28.1612 114.393 28.1612H114.394Z" fill="#464646"/>
  <path d="M17.6616 22.2939C20.029 22.2939 21.9482 20.3747 21.9482 18.0073C21.9482 15.6399 20.029 13.7207 17.6616 13.7207C15.2942 13.7207 13.375 15.6399 13.375 18.0073C13.375 20.3747 15.2942 22.2939 17.6616 22.2939Z" fill="#464646"/>
  <path d="M17.6589 0.00628327C9.27097 0.00628327 2.22399 5.74373 0.225145 13.5067C0.206477 13.5764 0.196459 13.6481 0.195312 13.7203C0.195313 14.1913 0.578436 14.5776 1.05263 14.5776H8.31159C8.47589 14.5781 8.63682 14.531 8.77481 14.4418C8.91279 14.3525 9.02189 14.2252 9.08883 14.0751C9.08883 14.0751 9.09982 14.0547 9.10453 14.0437C10.6009 10.8154 13.8685 8.57477 17.662 8.57477C22.8703 8.57477 27.0925 12.7954 27.0925 18.0037C27.0925 23.212 22.8719 27.4327 17.6636 27.4327C13.8716 27.4327 10.6041 25.192 9.1061 21.9637C9.10139 21.9527 9.0904 21.9323 9.0904 21.9323C8.95222 21.6277 8.64761 21.4299 8.31316 21.4299H1.0542C0.580006 21.4299 0.196882 21.813 0.196882 22.2872C0.197698 22.3593 0.207722 22.4311 0.226714 22.5007C2.22556 30.2637 9.27411 36.0012 17.6605 36.0012C27.6029 35.9996 35.6767 27.9414 35.6767 18.0006C35.6767 8.05975 27.617 0 17.6762 0L17.6589 0.00628327Z" fill="#464646"/>
</svg>
  