<svg width="80" height="80" viewBox="0 0 80 80" fill="none" xmlns="http://www.w3.org/2000/svg">
<mask id="mask0_2507_7783" style="mask-type:alpha" maskUnits="userSpaceOnUse" x="0" y="0" width="80" height="80">
<path d="M40 0C62.1091 0 80 17.8909 80 40C80 62.1091 62.1091 80 40 80C17.8909 80 0 62.1091 0 40C0 17.8909 17.8909 0 40 0Z" fill="white"/>
</mask>
<g mask="url(#mask0_2507_7783)">
<g filter="url(#filter0_d_2507_7783)">
<path d="M40 0.9375C61.5909 0.9375 79.0625 18.4091 79.0625 40C79.0625 61.5909 61.5909 79.0625 40 79.0625C18.4091 79.0625 0.9375 61.5909 0.9375 40C0.9375 18.4091 18.4091 0.9375 40 0.9375Z" fill="black"/>
</g>
<path d="M40 0.9375C61.5909 0.9375 79.0625 18.4091 79.0625 40C79.0625 61.5909 61.5909 79.0625 40 79.0625C18.4091 79.0625 0.9375 61.5909 0.9375 40C0.9375 18.4091 18.4091 0.9375 40 0.9375Z" fill="white"/>
<path d="M40.0005 2.30859C60.8338 2.30859 77.6924 19.1671 77.6924 40.0005C77.6924 60.8338 60.8338 77.6924 40.0005 77.6924C19.1671 77.6924 2.30859 60.8338 2.30859 40.0005C2.30859 19.1671 19.1671 2.30859 40.0005 2.30859Z" fill="#5C5C5E"/>
<path d="M60.0103 56.5843C58.6397 60.8332 56.5838 63.9857 53.7055 66.3157C50.8272 68.6457 46.9895 69.8793 42.1923 70.2905L41.2329 63.9857C44.3853 63.5745 46.7154 62.8892 48.223 61.7927C48.7713 61.3815 49.8678 60.1479 49.8678 60.1479L38.4917 23.6896H47.9489L54.5279 50.9648L61.518 23.6896H70.7011L60.0103 56.5843ZM26.9785 22.4561C29.1715 22.4561 31.2274 22.7302 32.8722 23.4155C34.654 24.1008 36.2987 25.0602 37.9434 26.4308L34.1057 31.6392C33.0092 30.8168 31.9127 30.2686 30.9533 29.8574C29.9939 29.4462 28.7603 29.3091 27.6638 29.3091C23.0037 29.3091 20.6737 32.8727 20.6737 40.137C20.6737 43.8376 21.2219 46.4418 22.4555 47.9495C23.689 49.5942 25.3338 50.2795 27.6638 50.2795C28.7603 50.2795 29.8568 50.1425 30.8162 49.7313C31.7757 49.3201 32.8722 48.7718 34.2428 47.9495L38.0805 53.4319C34.9281 56.0361 31.3645 57.2696 27.2526 57.2696C23.9632 57.2696 21.2219 56.5843 18.7548 55.2137C16.4248 53.8431 14.5059 51.7872 13.2724 49.183C12.0388 46.5789 11.3535 43.5635 11.3535 39.9999C11.3535 36.5734 12.0388 33.421 13.2724 30.8168C14.5059 28.0756 16.4248 26.0197 18.7548 24.512C21.0849 23.2784 23.8261 22.4561 26.9785 22.4561Z" fill="white"/>
</g>
<defs>
<filter id="filter0_d_2507_7783" x="-0.3125" y="-0.3125" width="80.625" height="80.625" filterUnits="userSpaceOnUse" color-interpolation-filters="sRGB">
<feFlood flood-opacity="0" result="BackgroundImageFix"/>
<feColorMatrix in="SourceAlpha" type="matrix" values="0 0 0 0 0 0 0 0 0 0 0 0 0 0 0 0 0 0 127 0" result="hardAlpha"/>
<feOffset/>
<feGaussianBlur stdDeviation="0.625"/>
<feColorMatrix type="matrix" values="0 0 0 0 0 0 0 0 0 0 0 0 0 0 0 0 0 0 0.3 0"/>
<feBlend mode="normal" in2="BackgroundImageFix" result="effect1_dropShadow_2507_7783"/>
<feBlend mode="normal" in="SourceGraphic" in2="effect1_dropShadow_2507_7783" result="shape"/>
</filter>
</defs>
</svg>
