<svg viewBox="0 0 150 27" fill="none" xmlns="http://www.w3.org/2000/svg"><path d="M41 20.3202h5.3317c4.3788 0 8.2131-2.5282 8.2131-7.9005 0-5.39494-3.8343-7.90052-8.2131-7.90052H41V20.3202Zm3.4032-2.9345V7.43107h1.5882c2.6091 0 5.1048 1.26408 5.1048 4.98863 0 3.7245-2.4957 4.966-5.1048 4.966h-1.5882ZM57.4327 22.4646h-1.3386v2.4604h1.6789c2.3369 0 3.0856-1.1512 3.8343-3.2505l.4764-1.3543 4.1746-11.37675h-3.2444l-2.3822 7.35875-2.4049-7.35875h-3.2217l4.1292 11.24125-.4311 1.1287c-.2949.8126-.7714 1.1512-1.2705 1.1512ZM67.0935 20.3202h3.1764v-6.2301c0-1.4673.9755-2.5282 2.3595-2.5282 1.3159 0 2.2008.9932 2.2008 2.3702v6.3881h3.1763v-7.0879c0-2.6185-1.6789-4.46943-4.2654-4.46943-1.5655 0-2.836.65461-3.4712 1.76073V8.94345h-3.1764V20.3202ZM84.4047 20.5008c1.3386 0 2.541-.5418 3.1082-1.377v1.1964h3.1764V8.94345h-3.1764v1.12865c-.6352-.79005-1.7696-1.30923-3.1536-1.30923-3.3351 0-5.3544 2.32503-5.3544 5.86893s2.0193 5.869 5.3998 5.869Zm-2.2915-5.869c0-1.9187 1.1117-3.1828 2.7906-3.1828 1.7016 0 2.8133 1.2641 2.8133 3.1828 0 1.8961-1.1117 3.1602-2.8133 3.1602-1.6789 0-2.7906-1.2641-2.7906-3.1602ZM98.2993 20.5008c3.3577 0 5.3997-2.3251 5.3997-5.869s-2.042-5.86893-5.3543-5.86893c-1.4294 0-2.5411.54175-3.1763 1.37693V4h-3.1537v16.3202h3.1537v-1.2415c.6352.8803 1.815 1.4221 3.1309 1.4221Zm-3.3124-5.869c0-1.9187 1.1117-3.1828 2.7906-3.1828s2.7905 1.2641 2.7905 3.1828c0 1.8961-1.1116 3.1602-2.7905 3.1602-1.6789 0-2.7906-1.2641-2.7906-3.1602ZM110.406 20.5008c3.517 0 6.035-2.4831 6.035-5.869s-2.518-5.86893-6.035-5.86893c-3.516 0-6.035 2.48303-6.035 5.86893s2.519 5.869 6.035 5.869Zm-2.858-5.869c0-1.8961 1.157-3.1828 2.858-3.1828 1.702 0 2.859 1.2867 2.859 3.1828 0 1.8736-1.157 3.1602-2.859 3.1602-1.701 0-2.858-1.2866-2.858-3.1602ZM122.704 20.5008c1.339 0 2.541-.5418 3.108-1.377v1.1964h3.177V8.94345h-3.177v1.12865c-.635-.79005-1.769-1.30923-3.153-1.30923-3.336 0-5.355 2.32503-5.355 5.86893s2.019 5.869 5.4 5.869Zm-2.291-5.869c0-1.9187 1.111-3.1828 2.79-3.1828 1.702 0 2.813 1.2641 2.813 3.1828 0 1.8961-1.111 3.1602-2.813 3.1602-1.679 0-2.79-1.2641-2.79-3.1602ZM135.805 11.5619h1.883V8.94345h-1.294c-1.384 0-2.246.47403-2.858 1.89615V8.94345h-3.177V20.3202h3.177v-5.5304c0-1.9412.703-3.2279 2.269-3.2279ZM143.135 20.5008c1.316 0 2.496-.5418 3.131-1.4221v1.2415h3.154V4h-3.154v6.1398c-.635-.83518-1.747-1.37693-3.176-1.37693-3.313 0-5.355 2.32503-5.355 5.86893s2.042 5.869 5.4 5.869Zm-2.269-5.869c0-1.9187 1.112-3.1828 2.791-3.1828 1.679 0 2.79 1.2641 2.79 3.1828 0 1.8961-1.111 3.1602-2.79 3.1602s-2.791-1.2641-2.791-3.1602Z" fill="#464646"/><path fill-rule="evenodd" clip-rule="evenodd" d="M1.02128 0C.457243 0 0 .481926 0 1.07641v4.93356c0 .59448.457243 1.07641 1.02128 1.07641h4.68085c.56403 0 1.02127-.48193 1.02127-1.07641V1.07641C6.7234.481926 6.26616 0 5.70213 0H1.02128ZM19.2553 0h-4.7872c-.564 0-1.0213.481926-1.0213 1.07641v4.89402c0 .59448.4573 1.07641 1.0213 1.07641h4.5545c3.3636 0 6.0904 2.87185 6.0904 6.41446 0 3.5426-2.7268 6.4145-6.0904 6.4145h-4.5545c-.564 0-1.0213.4818-1.0213 1.0764v4.9714c0 .5945.4573 1.0764 1.0213 1.0764h4.7872C26.2941 27 32 20.9131 32 13.5 32 6.08693 26.2941 0 19.2553 0ZM6.7234 8.16279c0-.59448.45725-1.07641 1.02128-1.07641h4.68082c.5641 0 1.0213.48193 1.0213 1.07641V18.8372c0 .5945-.4572 1.0764-1.0213 1.0764H7.74468c-.56403 0-1.02128-.4819-1.02128-1.0764V8.16279Z" fill="#464646"/></svg>