<svg width="80" height="80" viewBox="0 0 80 80" fill="none" xmlns="http://www.w3.org/2000/svg">
<path d="M19.3026 24.7363H15.8684C12.0751 24.7363 9 27.8114 9 31.6047V35.039" stroke="#F52357" stroke-width="6" stroke-miterlimit="1.41421"/>
<path d="M19.3026 69.3818H15.8684C12.0751 69.3818 9 66.3067 9 62.5134V59.0792" stroke="#F52357" stroke-width="6" stroke-miterlimit="1.41421"/>
<path d="M43.3421 69.3818H46.7764C50.5697 69.3818 53.6448 66.3067 53.6448 62.5134V59.0792" stroke="#F52357" stroke-width="6" stroke-miterlimit="1.41421"/>
<path d="M36.4738 69.3818H26.1711" stroke="#F52357" stroke-width="6" stroke-miterlimit="1.41421"/>
<path d="M9 41.9083L9 52.2109" stroke="#F52357" stroke-width="6" stroke-miterlimit="1.41421"/>
<path d="M26.171 21.5117C26.171 17.8322 26.171 15.9925 26.8871 14.5872C27.517 13.351 28.522 12.3459 29.7582 11.7161C31.1635 11 33.0033 11 36.6827 11H41.8529C43.6626 11 44.5675 11 45.406 11.2256C46.149 11.4255 46.851 11.7543 47.4802 12.1971C48.1903 12.6968 48.7696 13.392 49.9282 14.7823L52.2099 17.5204C53.3685 18.9106 53.9478 19.6058 54.6579 20.1055C55.2871 20.5483 55.9891 20.8772 56.7321 21.077C57.5706 21.3026 58.4755 21.3026 60.2852 21.3026H63.7383C67.4177 21.3026 69.2574 21.3026 70.6628 22.0187C71.899 22.6486 72.904 23.6536 73.5339 24.8898C74.25 26.2952 74.25 28.1349 74.25 31.8143V41.6989C74.25 45.3783 74.25 47.218 73.5339 48.6234C72.904 49.8595 71.899 50.8646 70.6628 51.4945C69.2574 52.2105 67.4177 52.2105 63.7383 52.2105H36.6827C33.0033 52.2105 31.1635 52.2105 29.7582 51.4945C28.522 50.8646 27.517 49.8595 26.8871 48.6234C26.171 47.218 26.171 45.3783 26.171 41.6989V21.5117Z" fill="#F52357"/>
</svg>
