<svg width="137" height="43" viewBox="0 0 137 43" fill="none" xmlns="http://www.w3.org/2000/svg">
  <path d="M6.67165 0.718582C5.51839 1.64521 3.74173 3.21577 2.33911 4.56645L1.2326 5.61872L1.4352 7.00082C1.54429 7.75468 1.7469 9.23101 1.87157 10.2676C2.01183 11.3041 2.1521 12.2779 2.19885 12.4192C2.26119 12.6077 2.19885 12.7019 2.02742 12.7019C1.73131 12.7019 1.71573 12.6234 2.52613 15.2148C2.82224 16.2043 3.10276 17.1152 3.13393 17.2094C3.1651 17.3194 3.28978 17.3665 3.43004 17.3194C3.5703 17.2566 3.64823 17.1309 3.60147 17.021C3.55472 16.8953 3.63264 16.7697 3.75732 16.7226C3.92875 16.6597 3.91317 16.5341 3.64823 16.0786C3.22744 15.3719 2.1521 9.34095 2.08976 7.39345C2.043 6.01136 2.043 5.99566 2.61964 5.21038C3.18069 4.44081 4.47421 3.27859 6.46905 1.80227C7.0301 1.37822 7.59115 0.907051 7.747 0.749995C7.98077 0.467295 8.08986 0.54582 10.0535 2.65037C11.1912 3.8597 12.4536 5.10044 12.8588 5.41455L13.6068 5.97995L13.0302 7.20499C12.7185 7.86462 11.4561 10.4089 10.2094 12.8276C7.60673 17.9162 8.13661 17.4293 5.11319 17.4764L3.14952 17.4921L2.49496 18.246C1.80923 19.047 1.71573 19.3454 2.043 19.848C2.16768 20.0207 2.26119 20.3034 2.26119 20.4762C2.26119 20.7589 2.37028 20.806 2.99367 20.8374C3.38329 20.8531 3.74173 20.9002 3.78849 20.9474C3.83524 20.9945 3.89758 21.9682 3.94433 23.1147L4.00667 25.1879L2.9625 27.4495C1.2326 31.2188 0.546875 32.9464 0.546875 33.5118C0.546875 33.8102 0.609214 34.0615 0.671552 34.0615C0.827399 34.0615 0.827399 34.0458 7.17036 20.7118C10.1159 14.5238 12.9055 8.69702 13.3731 7.73898C13.8406 6.78094 14.2614 5.90142 14.2926 5.77578C14.3237 5.63443 13.2484 4.55074 11.5341 3.0273C9.99119 1.64521 8.63532 0.388767 8.51065 0.247417C8.1522 -0.192339 7.62232 -0.0509913 6.67165 0.718582ZM7.20153 18.78C6.48464 20.1778 6.45347 20.1935 4.4898 20.2877C2.7599 20.382 2.72873 20.3663 2.72873 20.0364C2.72873 19.848 2.66639 19.5967 2.58847 19.471C2.49496 19.3297 2.5573 19.0784 2.77548 18.7329L3.11835 18.1989H4.67681C5.53397 18.1832 6.51581 18.1204 6.85867 18.0575C7.20153 17.9947 7.49764 17.9633 7.52881 17.979C7.55998 17.9947 7.40413 18.3559 7.20153 18.78ZM5.89242 21.2929C5.76774 21.6227 5.44046 22.3138 5.17552 22.832C4.73915 23.7115 4.6924 23.743 4.58331 23.3817C4.52097 23.1619 4.47421 22.5179 4.45863 21.9368C4.44304 20.7903 4.41187 20.806 5.72099 20.7275L6.14177 20.7118L5.89242 21.2929Z" fill="#464646"/>
  <path d="M7.1397 4.45613C6.85917 4.6603 6.78125 4.86448 6.78125 5.38276C6.78125 5.99528 6.828 6.08951 7.24879 6.26227C7.66958 6.43504 7.77867 6.41933 8.26179 6.08951C8.90077 5.64976 8.91635 5.53982 8.44881 4.83307C8.04361 4.22055 7.63841 4.11061 7.1397 4.45613ZM8.02802 5.02153C8.27738 5.46129 8.12153 5.79111 7.65399 5.79111C7.23321 5.79111 7.04619 5.36706 7.27996 4.94301C7.46698 4.59748 7.82542 4.62889 8.02802 5.02153Z" fill="#464646"/>
  <path d="M16.9115 7.99031C16.9115 8.06884 16.818 8.14737 16.7089 8.14737C16.6154 8.14737 16.3505 8.58713 16.1479 9.12112C15.5245 10.7545 9.29061 23.1776 9.27503 22.785C9.27503 22.5808 9.18152 22.4394 9.02567 22.4394C8.80749 22.4394 8.77632 22.5651 8.86983 23.1776C8.96333 23.8844 8.90099 24.0414 6.68797 28.3762C5.4412 30.8419 4.10091 33.4176 3.7113 34.1087C3.3061 34.8311 2.9944 35.6164 2.96323 35.9462C2.91648 36.5116 2.97882 36.5902 4.33468 37.7681C5.11392 38.4591 6.11134 39.3229 6.54771 39.7156C8.51138 41.5217 9.43087 42.2442 9.68023 42.1971C10.0543 42.1342 15.8362 36.0248 15.8518 35.6792C15.8518 35.5222 15.5712 33.1349 15.2284 30.3708C14.6362 25.6591 14.0751 20.1464 14.1374 19.6124C14.1842 19.2826 13.9504 17.6178 13.779 16.8954C13.6387 16.33 13.7011 16.0944 14.8232 13.5187C15.4777 11.9952 16.3349 10.1263 16.7089 9.3724C17.0674 8.61854 17.3791 7.9589 17.3791 7.91179C17.3791 7.86467 17.27 7.83326 17.1453 7.83326C17.0206 7.83326 16.9115 7.89608 16.9115 7.99031ZM13.327 19.7224C13.4985 20.8218 13.8413 23.4603 14.0907 25.5806C14.5738 29.4755 15.1349 33.7946 15.2907 34.894C15.3842 35.4437 15.3219 35.5536 14.3089 36.6844C12.5478 38.679 10.6776 40.6422 10.0387 41.1448L9.44646 41.616L6.40745 38.7575C3.60221 36.1504 3.36843 35.8834 3.53987 35.5693C3.63337 35.3965 4.42819 33.9359 5.30093 32.334C6.17368 30.732 7.32694 28.596 7.85682 27.5909C8.40229 26.57 8.90099 25.6905 8.9945 25.6434C9.1036 25.5806 9.13476 27.1668 9.1036 30.5435C9.04126 35.585 9.05684 35.6007 9.55555 35.4908C9.61789 35.4908 9.66464 32.9465 9.66464 29.8525V24.2299L11.301 20.9317C12.2049 19.1099 12.953 17.6492 12.9842 17.6648C13.0153 17.6807 13.1712 18.6073 13.327 19.7224Z" fill="#464646"/>
  <path d="M102.059 20.096C102.223 19.9088 102.363 19.7041 102.468 19.4644C102.924 18.7216 102.825 17.9906 102.439 17.2654C102.439 17.2596 102.433 17.2537 102.433 17.2537C102.345 17.1134 102.305 16.9379 102.164 16.8268C102.035 16.8034 101.983 16.7391 102.035 16.6104C101.995 16.4233 101.924 16.2537 101.761 16.1367C101.761 16.1367 101.761 16.1367 101.755 16.1367C101.427 15.7215 101.123 15.2887 100.778 14.891C100.427 14.4933 100.041 14.1366 99.5441 13.8851C99.0997 13.4114 98.5616 13.0781 97.9827 12.7973H97.9885C97.585 12.581 97.1464 12.4347 96.7428 12.2184C96.6434 12.2008 96.5089 12.2827 96.4563 12.1248C96.1346 11.8265 95.6667 11.8967 95.31 11.6745C95.2691 11.7037 95.2398 11.6979 95.2164 11.6511C94.731 11.423 94.2573 11.1774 93.7134 11.1189C93.6549 11.113 93.6023 11.113 93.5438 11.1072C93.497 11.1072 93.4503 11.1013 93.4035 11.0955C93.2397 11.0838 93.0818 11.0546 92.9356 10.9844C92.9064 10.9727 92.883 10.9551 92.8596 10.9434C92.8186 10.9201 92.7777 10.8908 92.7368 10.8557C92.5262 10.7914 92.304 10.7738 92.0818 10.7446C91.8595 10.7154 91.6431 10.6686 91.4502 10.5399C91.2396 10.382 90.9764 10.3762 90.7425 10.2767H90.7367C90.491 10.037 90.1343 10.0253 89.8594 9.86151C89.7892 9.85567 89.7132 9.84397 89.643 9.83812C89.2805 9.67437 88.9237 9.62173 88.5845 9.89075L88.567 9.86736C88.3389 10.2475 87.871 10.5575 88.257 11.0896V11.0838C88.3798 11.2826 88.4149 11.5517 88.6781 11.6452C88.8184 11.8616 89.0699 11.8441 89.2746 11.9201C89.4442 11.9259 89.6138 11.926 89.7834 11.9318C90.3331 12.1833 90.9531 12.1131 91.5145 12.3412L91.8771 12.3646C92.0642 12.5108 92.2923 12.54 92.5145 12.5634C92.5321 12.5634 92.5438 12.5693 92.5613 12.5693C92.883 12.6979 93.2514 12.5576 93.5614 12.7506L93.5438 12.7856C93.7485 12.9377 94.0351 12.8675 94.2281 13.0547C94.3684 13.2477 94.1228 13.3237 94.1053 13.4699C93.9006 13.7389 93.9766 14.0489 93.9766 14.3471C93.9766 15.1133 94.0175 15.8969 93.8362 16.6338C93.5555 17.7742 93.7836 18.8327 94.1111 19.903C94.117 19.979 94.1287 20.055 94.1345 20.1311C94.2222 20.3299 94.3567 20.482 94.5322 20.6048L94.5439 20.5931C94.5731 20.6399 94.6082 20.6866 94.6199 20.7393C94.6258 20.7568 94.6258 20.7744 94.6258 20.7919C94.4035 20.8679 94.1754 20.9323 93.9474 20.9791H93.9064C93.2339 21.1311 92.5379 21.1662 91.842 21.1662C91.7777 21.1662 91.7075 21.1662 91.6431 21.1662C91.532 21.1662 91.4209 21.1662 91.3039 21.1604C90.2922 21.1779 89.2804 21.1194 88.2687 21.2247C87.9061 21.2656 87.485 21.2013 87.3096 21.6107C87.1224 22.0376 87.2043 22.4587 87.5318 22.8096C87.5318 22.8096 87.5318 22.8096 87.5377 22.8096C87.988 23.0259 88.45 23.0376 88.912 22.8505C89.0933 22.833 89.2746 22.8213 89.4559 22.8096C90.5788 22.6634 91.7075 22.5756 92.8362 22.5581C92.8947 22.5581 92.9473 22.5581 93.0058 22.5581C93.0292 22.5581 93.0526 22.5581 93.076 22.5581C93.2807 22.5522 93.4853 22.5698 93.6608 22.4294C93.8655 22.3768 94.076 22.3359 94.2866 22.406C94.8129 22.2949 95.3568 22.3417 95.8831 22.1955C95.9767 22.1604 96.0761 22.1312 96.1697 22.1136H96.1755C96.4387 22.0551 96.7077 22.0551 96.9826 22.0551H96.9885C97.2575 22.0551 97.5265 22.0551 97.7897 22.0142C97.8072 22.0083 97.8248 22.0025 97.8423 21.9967C97.8715 21.985 97.8949 21.9733 97.9242 21.9674C98.1055 21.9031 98.2926 21.8621 98.4915 21.8563H98.5382C98.5499 21.8563 98.5558 21.8563 98.5675 21.8563C98.6669 21.8446 98.7546 21.7978 98.8365 21.7393L98.819 21.7042C99.0236 21.5405 99.2927 21.599 99.5208 21.5171C99.5383 21.5171 99.55 21.5113 99.5675 21.5054C99.7079 21.482 99.8424 21.4469 99.9711 21.3943C100 21.3592 100.035 21.33 100.065 21.3066C100.088 21.289 100.111 21.2715 100.135 21.2598C100.199 21.2188 100.269 21.1896 100.345 21.1779C100.375 21.172 100.404 21.1662 100.433 21.1604C100.468 21.1545 100.509 21.1487 100.55 21.1487C100.731 21.0843 100.924 21.0551 101.047 20.8796C101.193 20.7978 101.363 20.751 101.474 20.6106C101.696 20.441 101.889 20.2831 102.059 20.096ZM100.597 19.2831C100.047 19.7392 99.4272 20.0843 98.6903 20.1895C98.3043 20.2422 97.93 20.4001 97.5499 20.4761C97.1873 20.5521 96.8189 20.5814 96.4504 20.634C95.8656 20.7042 95.5322 20.634 95.7428 19.8854C95.889 19.3825 95.5322 18.9029 95.4445 18.4C95.2457 17.2888 95.2632 16.1835 95.4036 15.0665C95.4679 14.5635 95.5322 14.0547 95.2866 13.5635C95.1521 13.2886 95.2457 13.1482 95.5615 13.2769C97.7019 14.16 99.7079 15.2244 100.883 17.3765C101.299 18.1426 101.258 18.7333 100.597 19.2831Z" fill="#464646"/>
  <path d="M111.821 21.9844C112.342 22.347 112.745 22.3353 112.868 21.8908C112.991 21.4464 113.108 20.9376 112.588 20.6042C112.307 20.6393 112.354 20.3469 112.219 20.2299C111.985 19.9317 111.745 19.6451 111.395 19.4696C111.278 19.4696 111.143 19.5047 111.108 19.3351C111.12 19.0252 110.886 18.9258 110.669 18.8029C110.541 18.5866 110.318 18.4871 110.12 18.3585C110.032 18.3 109.95 18.2415 109.862 18.183C109.792 17.9491 109.313 17.8789 109.582 17.5046C109.652 17.5046 109.722 17.5046 109.792 17.4988C110.178 17.3818 110.611 17.4754 110.979 17.2473L111.038 17.2122L111.102 17.2239C111.383 17.0836 111.728 17.0543 111.944 16.7911L111.933 16.797C112.161 16.7151 112.348 16.5748 112.517 16.411C112.64 16.3116 112.588 16.0192 112.868 16.0952C113.067 16.025 113.073 15.8028 113.202 15.68C113.441 15.2238 113.558 14.7676 113.219 14.2998V14.2939C112.968 13.8027 112.593 13.4342 112.102 13.1769C111.95 13.0541 111.845 12.8787 111.658 12.7968C111.494 12.5453 111.166 12.6623 110.968 12.4927L110.979 12.4985C110.728 12.1769 110.301 12.2704 109.997 12.0716H110.008C109.78 11.8961 109.517 11.8435 109.237 11.8494C108.962 11.8669 108.716 11.7792 108.476 11.6564C108.435 11.6447 108.389 11.633 108.348 11.6271C107.944 11.3756 107.418 11.5511 107.038 11.2411C106.657 11.0189 106.19 11.1651 105.804 10.9604L105.815 10.9663C105.131 10.4516 104.265 10.5978 104.032 11.2704C103.915 11.6037 103.903 11.9605 103.973 12.3055C104.026 12.5921 103.956 12.7792 103.716 12.9605C103.09 13.4342 103.049 13.6155 103.301 14.4401L103.33 14.4226C103.464 14.6565 103.453 14.9138 103.453 15.1712C103.47 17.3233 103.306 19.4872 103.599 21.6335C103.605 21.7622 103.651 21.8791 103.745 21.9669C103.792 22.0721 103.868 22.1481 103.979 22.1832C104.757 22.4581 105.19 22.1131 105.4 21.0545C105.447 20.1071 104.722 19.3468 104.809 18.3526C104.915 17.2298 104.92 16.101 105.143 14.9899C105.306 14.6156 105.324 14.2413 105.166 13.867C105.131 13.5629 104.669 13.4225 104.85 13.0366C105.078 12.8962 105.342 12.902 105.593 12.8903C105.728 12.8845 105.85 12.8319 105.967 12.7792C106.429 12.7792 106.891 12.7792 107.353 12.7792C107.698 12.9956 108.119 12.8728 108.476 13.0366C109.482 13.4986 110.628 13.6974 111.43 14.5571C111.57 14.7969 111.734 15.0367 111.435 15.2764C110.529 16.0952 108.424 16.2356 107.371 15.5162C106.891 15.1887 106.423 15.0718 106.032 15.5689C105.657 16.0426 105.704 16.5689 106.125 17.0134C106.435 17.3409 106.774 17.6508 107.131 17.9316C108.751 19.2123 110.488 20.3586 111.821 21.9844Z" fill="#464646"/>
  <path d="M113.205 15.6738C113.199 15.6799 113.199 15.6799 113.199 15.686L113.205 15.6738Z" fill="#464646"/>
  <path d="M123.334 22.347C123.334 21.6452 123.153 20.9668 122.942 20.306C122.778 19.7855 122.854 19.4112 123.381 19.1773C123.708 19.031 123.977 18.8264 123.948 18.4111C123.86 18.1187 123.568 18.1831 123.369 18.0778L123.316 18.1012L123.269 18.0602C122.743 17.914 122.591 17.5807 122.626 17.0368C122.679 16.1362 122.527 15.2297 122.568 14.3232C122.574 14.1594 122.544 13.9957 122.427 13.867C122.34 12.4459 122.357 11.0306 122.416 9.6095C122.369 9.42236 122.293 9.25276 122.147 9.1241C122.147 9.1241 122.147 9.1241 122.147 9.11825C121.901 8.70302 121.509 8.85508 121.152 8.86677C121.059 8.90186 120.989 8.96035 120.93 9.03052C120.901 9.05977 120.878 9.09485 120.854 9.12994C120.796 9.22352 120.743 9.31709 120.667 9.39896C120.649 9.44575 120.632 9.48669 120.614 9.53348C120.398 9.93116 120.538 10.4049 120.351 10.8084C120.357 10.8552 120.345 10.8961 120.316 10.9312C120.1 11.2763 120.228 11.6973 120.065 12.0541C119.731 12.3582 119.907 12.8436 119.655 13.1769V13.1711C119.351 13.4284 119.38 13.8319 119.228 14.1594C119.258 14.2062 119.246 14.2472 119.199 14.2764C119.088 14.4051 119.024 14.5571 118.959 14.7092C118.959 14.7092 118.959 14.7092 118.953 14.715C118.673 14.9197 118.708 15.2823 118.527 15.5396C118.298 15.7209 118.252 16.0133 118.105 16.2414V16.2356C117.825 16.5221 117.608 16.8613 117.41 17.2122C117.164 17.5748 116.918 17.9374 116.731 18.3351C116.731 18.3351 116.731 18.341 116.725 18.341C116.421 18.6918 116.187 19.0954 115.877 19.4404C115.573 19.6276 115.368 19.9024 115.199 20.2007C115.07 20.3235 114.942 20.4463 114.813 20.5691C114.614 20.727 114.409 20.8791 114.228 21.0545C114.047 21.23 113.889 21.4288 113.784 21.6686C113.462 21.9259 113.48 22.2593 113.737 22.4991C114.088 22.8207 114.456 22.6921 114.76 22.3587C115.439 21.7797 116.111 21.1949 116.708 20.5341C116.901 20.3761 117.094 20.382 117.293 20.5224C117.339 20.5282 117.38 20.5457 117.415 20.5691C117.603 20.7036 117.79 20.6627 117.977 20.5633C118.491 20.265 119.07 20.2007 119.644 20.113C119.971 19.9843 120.322 19.9785 120.649 19.879C121.223 19.7387 121.486 19.9902 121.492 20.5516C121.497 20.8089 121.533 21.0721 121.48 21.3177C121.351 21.9259 121.603 22.3821 121.977 22.8266C122.24 23.1424 122.533 23.3295 122.93 23.1892C123.34 23.078 123.334 22.6979 123.334 22.347ZM120.521 18.4755C120.24 18.569 119.936 18.5749 119.638 18.6217C119.339 18.5164 119.041 18.61 118.749 18.6275C118.415 18.6509 118.357 18.4872 118.398 18.2123C119.146 17.2005 119.731 16.0894 120.351 14.9957C120.597 14.8729 120.673 14.6799 120.609 14.4168C120.614 14.2589 120.696 14.1419 120.854 14.1244C121.088 14.101 121.012 14.3057 121.018 14.4109C121.053 15.563 121.053 16.7151 121.117 17.8672C121.141 18.3585 120.796 18.3819 120.521 18.4755Z" fill="#464646"/>
  <path d="M61.117 20.5985C61.3042 20.4698 61.4855 20.5225 61.6726 20.5985C61.8597 20.733 62.0469 20.733 62.234 20.5985L62.468 20.5517C62.8539 20.3412 63.2809 20.3529 63.7019 20.2944C63.7195 20.2944 63.737 20.2944 63.7546 20.2885C63.7663 20.2885 63.778 20.2827 63.7838 20.2827C63.8365 20.2651 63.8891 20.2417 63.9359 20.2125C63.9417 20.2066 63.9476 20.2008 63.9534 20.1949C63.9593 20.1891 63.971 20.1774 63.9827 20.1716C64.2049 19.9903 64.4739 20.0253 64.7312 20.0253C64.7839 20.0253 64.8307 20.0254 64.8833 20.0195C64.8891 20.0195 64.895 20.0195 64.895 20.0195C65.1172 20.037 65.3453 19.8499 65.5734 20.0253L65.6143 20.0604L65.6026 20.1131C65.8307 20.4406 65.8775 20.8383 65.7839 21.1833C65.7371 21.3646 65.7137 21.5401 65.7137 21.7038C65.7137 22.2535 65.9828 22.698 66.4272 23.0957C67.0413 23.47 67.3863 23.394 67.6846 22.8208L67.6671 22.7974C67.8074 22.6395 67.8542 22.4641 67.8484 22.2886C67.8425 22.1775 67.8074 22.0605 67.7606 21.9611C67.6027 21.6219 67.5969 21.271 67.5442 20.9201C67.5442 20.9143 67.5442 20.9084 67.5442 20.9026C67.5442 20.885 67.5442 20.8675 67.5384 20.8441C67.5267 20.7447 67.4799 20.657 67.4214 20.5809C67.4156 20.5049 67.4039 20.423 67.398 20.347C67.2869 20.0487 67.1641 19.7505 67.4097 19.4581C67.6086 19.2651 67.9185 19.2592 68.094 19.0253C68.094 19.0253 68.094 19.0195 68.0998 19.0195L68.0881 19.0253L68.094 19.0195C68.2753 18.8323 68.4215 18.6335 68.2168 18.3703C68.2168 18.3644 68.211 18.3644 68.211 18.3586L68.2285 18.3761C68.1408 18.189 67.9536 18.1539 67.7899 18.0779L67.7372 18.1013L67.6963 18.0662C67.4975 17.879 67.1934 17.9609 66.9887 17.7855V17.7972C66.9302 17.6743 66.9243 17.5457 66.9302 17.4112C66.9302 17.4112 66.9302 17.4112 66.9302 17.4053C66.9302 17.2591 66.9477 17.1129 66.9302 16.9726C66.7781 15.9433 67.0004 14.8906 66.7489 13.8671C66.7372 12.3875 66.7255 10.9021 66.7196 9.41661C66.4506 8.83763 65.9886 8.73821 65.4155 8.90196C65.3278 8.93705 65.2634 8.98968 65.2049 9.05401C65.1816 9.07741 65.164 9.10665 65.1406 9.13589C65.0704 9.23531 65.012 9.34058 64.9418 9.44C64.9242 9.56866 64.9067 9.69147 64.8891 9.81429C64.6728 10.4108 64.702 11.06 64.4973 11.6623C64.4915 11.7442 64.4798 11.8261 64.4739 11.9138C64.4096 12.0249 64.3628 12.1419 64.3511 12.2706C64.3511 12.294 64.3511 12.3115 64.3511 12.3349C64.3511 12.5864 64.24 12.7911 64.1055 12.9957C64.0821 13.0367 64.0528 13.0776 64.0294 13.1127C64.0002 13.1653 63.9768 13.2238 63.9534 13.2765C63.9534 13.3057 63.9476 13.3408 63.9417 13.37C63.9417 13.3993 63.9359 13.4285 63.9242 13.4578C63.9066 13.5338 63.8774 13.6098 63.8364 13.6741C63.8189 13.6975 63.8014 13.7209 63.778 13.7385C63.7546 13.7619 63.7312 13.7853 63.7019 13.8028C63.585 13.9432 63.6025 14.1303 63.5206 14.2882C63.2575 14.5046 63.275 14.8613 63.1054 15.1245C62.9358 15.2356 62.9066 15.4286 62.8422 15.5982C62.8422 15.6275 62.8364 15.6567 62.8247 15.6859C62.8189 15.7093 62.813 15.7269 62.8072 15.7444C62.7838 15.7971 62.7545 15.8438 62.7194 15.8906C62.7019 15.9082 62.6843 15.9257 62.661 15.9491C62.6317 15.9784 62.5908 16.0017 62.5498 16.0251C62.3978 16.3234 62.1112 16.5339 61.9943 16.8556L62.0059 16.9082L61.9592 16.9316C61.8188 17.1305 61.6492 17.3001 61.5673 17.534C61.5907 17.5808 61.579 17.61 61.5381 17.6276C61.1696 18.1305 60.8187 18.6452 60.4386 19.1423C60.345 19.2417 60.2515 19.347 60.1579 19.4464C59.9766 19.5926 59.8772 19.8031 59.7427 19.9844C59.6491 20.0838 59.5497 20.1833 59.4503 20.2827C58.9298 20.8266 58.1636 21.1482 57.9531 21.967C57.9473 22.0313 57.9473 22.0956 57.9414 22.1658C57.994 22.2535 58.0408 22.3296 58.0876 22.3939C58.0876 22.3997 58.0935 22.3997 58.0993 22.4056C58.421 22.8442 58.6958 22.7799 59.3099 22.2068L59.2982 22.2184H59.304C59.6082 22.1249 59.8362 21.9377 60.0175 21.6804C60.1871 21.5751 60.3392 21.4465 60.4269 21.2593C60.6901 21.1014 60.9123 20.8558 61.117 20.5985ZM62.7077 18.2533C62.9066 17.9024 63.1405 17.5749 63.3627 17.2416C63.6084 17.2065 63.6435 17.031 63.6435 16.8264C64.0879 16.0017 64.6377 15.2298 64.9184 14.3233C65.2576 14.2707 65.2459 14.5104 65.2927 14.7385C65.357 15.0602 65.1582 15.3818 65.3161 15.6976C65.5032 16.2766 65.4564 16.8848 65.5149 17.4814C65.5792 18.1715 65.2283 18.458 64.6552 18.5574C64.1113 18.6569 63.5557 18.6803 63.0002 18.727C62.6142 18.7504 62.5381 18.5457 62.7077 18.2533Z" fill="#464646"/>
  <path d="M136.62 12.0723C135.72 12.1307 135.386 12.7624 135.164 13.5109C134.93 13.8677 134.702 14.2186 134.468 14.5753C134.298 14.8151 134.199 15.09 134.047 15.3356L134.059 15.3824L134.018 15.4116C133.842 15.5812 133.719 15.7742 133.62 15.9964C133.643 16.0432 133.632 16.0842 133.585 16.1134C133.474 16.2421 133.427 16.4058 133.339 16.5462V16.5403C133.105 16.7216 133.129 17.055 132.918 17.248L132.924 17.2421C132.772 17.3415 132.731 17.5228 132.643 17.6632C132.415 17.8328 132.333 18.1018 132.205 18.3299L132.193 18.3416C132.047 18.4761 131.877 18.5872 131.801 18.7802C131.637 18.944 131.503 19.1253 131.38 19.3241C131.275 19.4996 131.181 19.7335 130.93 19.675C130.643 19.6107 130.749 19.3417 130.743 19.1487C130.737 18.3182 130.772 17.4936 130.795 16.6631C130.819 15.6806 130 15.2479 129.169 15.745L129.187 15.7274C128.959 15.8502 128.988 16.1134 128.877 16.3006C128.865 16.3766 128.86 16.4526 128.848 16.5286C128.631 16.7801 128.602 17.1252 128.456 17.4059C128.438 17.4878 128.427 17.5638 128.409 17.6457C127.953 18.0843 127.725 18.6866 127.321 19.1662C127.023 19.6341 127.017 19.6399 126.889 19.3826C126.678 18.8972 126.859 18.3474 126.649 17.862C126.52 17.5521 126.549 17.2246 126.544 16.9029C126.52 15.6514 126.585 14.3999 126.509 13.1542C126.468 12.9787 126.356 12.8618 126.228 12.7507L126.216 12.739C125.748 12.4232 125.292 12.4699 124.848 12.7916C124.158 13.8443 124.438 14.9087 124.813 15.9731C124.871 16.131 124.894 16.2947 124.824 16.4585C125.099 17.9147 125.064 19.3884 125.052 20.8564C125.046 21.4002 125.31 21.8155 125.713 22.0669C126.076 22.3009 126.544 22.295 126.889 21.909C127.041 21.7453 127.193 21.5874 127.351 21.4236C127.491 21.2774 127.678 21.1839 127.83 21.0493C127.918 20.9265 127.988 20.8037 128.017 20.6517V20.599L128.07 20.5815C128.228 20.4645 128.327 20.2949 128.45 20.1487L128.444 20.1546C128.965 19.7335 128.971 19.7335 129.134 20.3709C129.222 20.7101 129.403 20.9909 129.602 21.2657L129.579 21.254C129.69 21.4295 129.795 21.6049 130 21.6927C130.041 21.6868 130.076 21.6927 130.111 21.716C130.398 21.8798 130.678 21.8856 130.965 21.7102L131.023 21.6927L131.088 21.6985C131.216 21.6225 131.345 21.5348 131.462 21.4412C131.661 21.2131 131.871 20.9909 132.094 20.7803C132.252 20.6458 132.368 20.4645 132.544 20.3476C132.69 20.2072 132.795 20.0376 132.877 19.8563C133.047 19.7686 133.053 19.5639 133.181 19.4469L133.176 19.4586C133.345 19.3534 133.398 19.1721 133.456 19.0025C133.439 18.9264 133.468 18.8855 133.55 18.8913C133.93 18.6106 134.076 18.1662 134.304 17.786V17.7919C134.486 17.6164 134.597 17.3942 134.714 17.1778L134.696 17.131L134.731 17.1018C134.866 16.9848 134.918 16.8152 134.994 16.6631L134.989 16.6748C135.211 16.5286 135.199 16.2772 135.269 16.0608C135.252 15.9847 135.281 15.9497 135.363 15.9614C135.667 15.8327 135.649 15.4818 135.837 15.2654L135.831 15.2771C136.065 14.9438 136.304 14.6104 136.527 14.2654C136.761 13.5402 136.714 12.8091 136.62 12.0723Z" fill="#464646"/>
  <path d="M124.844 12.8032L124.85 12.7971V12.791L124.844 12.8032Z" fill="#464646"/>
  <path d="M58.1026 21.3125C58.0558 20.7979 57.6113 20.792 57.1961 20.7979C55.3364 20.8037 53.4708 20.792 51.611 20.8037C51.073 20.8096 50.5466 20.7569 50.0261 20.6049C49.9033 20.5932 49.7864 20.5756 49.6635 20.5639C49.4939 20.4236 49.26 20.4411 49.0846 20.3183L49.0963 20.3242C48.6576 20.1136 48.26 19.8095 47.8097 19.6224C47.6634 19.4996 47.3652 19.5171 47.4237 19.2013C47.2716 18.9732 47.2307 18.6749 46.9909 18.4995L46.9967 18.5112C46.9207 18.3591 46.8564 18.2012 46.757 18.0667L46.716 18.0843C46.5698 17.7977 46.5172 17.517 46.7102 17.2304L46.7511 17.248C46.833 17.1485 46.8681 17.0316 46.8681 16.9029C46.8447 16.6047 47.0903 16.4234 47.1897 16.1777C47.2833 16.0257 47.3125 15.8444 47.4237 15.704C47.6342 15.511 47.6459 15.2069 47.8447 15.0081C48.2834 14.6572 48.6635 14.2361 49.0904 13.8735L49.0787 13.8794C49.5583 13.6864 50.0378 13.5168 50.5291 13.8501C50.6578 14.2127 51.0671 14.3589 51.1841 14.7274C51.1899 14.8034 51.2016 14.8794 51.2075 14.9555C51.2952 15.1543 51.3186 15.3765 51.4473 15.5637C51.8683 16.5696 52.3771 16.7158 53.1082 16.0549C53.1257 15.5169 53.2544 14.9788 53.0204 14.4525C53.0088 14.2712 52.769 14.1659 52.8509 13.9495C52.6403 13.4583 52.3947 12.9787 52.1666 12.4933L52.1315 12.4524L52.1549 12.4056C51.8333 11.6746 51.652 11.6219 50.9794 12.0489C50.8975 12.1015 50.8215 12.1366 50.7279 12.0957C50.2425 12.0898 49.7513 12.0898 49.2659 12.084C49.0495 12.2126 48.7395 12.1424 48.5758 12.3881C48.336 12.4465 48.1781 12.6337 47.9851 12.7565C47.9559 12.7916 47.9208 12.8033 47.8798 12.7857C47.4938 13.0431 47.1137 13.3179 46.8681 13.7332C46.8154 13.7858 46.7628 13.8384 46.7102 13.8911C46.5874 14.008 46.564 14.1835 46.447 14.3004V14.3063C46.2716 14.4759 46.1312 14.6747 46.0435 14.9028C46.0669 14.9496 46.0552 14.9905 46.0025 15.0081C45.9031 15.1367 45.8388 15.2888 45.8095 15.4467C45.7569 15.704 45.6867 15.9497 45.5054 16.1543C45.4645 16.4292 45.406 16.6982 45.213 16.9146C45.1311 17.4994 45.0025 18.0843 45.3241 18.6399L45.3592 18.6808L45.3358 18.7334C45.4119 18.9381 45.4177 19.172 45.5815 19.3358C45.6166 19.365 45.6224 19.406 45.6107 19.4469C45.7686 19.6282 45.8329 19.8797 46.0435 20.02L46.0376 20.0083C46.3242 20.5464 46.7921 20.8797 47.3301 21.1195C47.5289 21.1371 47.6693 21.2423 47.7629 21.4119C47.9442 21.5172 48.1372 21.6049 48.3243 21.6926C48.4413 21.7043 48.5582 21.7219 48.6693 21.7336C49.1664 22.0669 49.7162 22.1722 50.3127 22.2073C52.266 22.3301 54.2193 22.2365 56.1727 22.2599C56.5645 22.2658 56.9622 22.2307 57.3423 22.1137C57.7517 21.9851 58.1494 21.7745 58.1026 21.3125Z" fill="#464646"/>
  <path d="M37.1015 21.7156C37.3471 21.5577 37.429 21.277 37.581 21.0489C37.6629 20.891 37.6512 20.698 37.774 20.5577L37.7682 20.5752C37.9378 20.353 38.0489 20.1015 38.1951 19.8676L38.1893 19.8793C38.3589 19.7974 38.3706 19.5927 38.4934 19.4816H38.4992C38.7741 19.195 39.0548 19.1599 39.3355 19.4757C39.5344 19.6687 39.5285 19.9962 39.78 20.1541C39.8794 20.3179 39.9905 20.4758 40.1484 20.5928C40.2478 20.6863 40.3473 20.7799 40.4467 20.8735C40.6046 21.0021 40.6923 21.1834 40.7683 21.3647C40.9438 21.5694 41.1251 21.7683 41.2888 21.9846C41.4116 22.1016 41.4175 22.3122 41.5988 22.3765C41.6982 22.5519 41.8503 22.6747 41.9965 22.8093C42.1836 23.09 42.4 23.3414 42.7041 23.4993C42.8503 23.7216 43.055 23.8561 43.3065 23.9204C43.4585 23.9204 43.6164 23.9263 43.7685 23.9263C44.482 23.4292 44.4761 22.6923 43.7685 22.1601C43.6808 21.9671 43.517 21.8501 43.3708 21.7156C42.7684 20.9671 42.1836 20.2009 41.5462 19.4816L41.552 19.4874C41.2771 19.1073 40.9672 18.7564 40.6923 18.3821C40.6104 18.2359 40.5461 18.078 40.4525 17.9377C40.4291 17.6628 40.2361 17.3236 40.7157 17.2359C40.9145 17.154 41.0081 16.961 41.1485 16.8148V16.8206C41.2888 16.6744 41.4643 16.5516 41.5579 16.3645C41.5345 16.1598 41.6339 16.0896 41.8269 16.1188C42.0374 16.0545 42.1427 15.8732 42.283 15.727L42.2947 15.7153C42.4819 15.5106 42.8503 15.534 42.9497 15.2182C43.0433 15.1422 43.131 15.072 43.2246 14.996C43.4468 14.8849 43.6749 14.7854 43.8562 14.6041C43.9498 14.3995 44.1779 14.3995 44.3358 14.2883C44.7276 13.9725 44.675 13.5456 44.6106 13.1187C44.5112 12.8906 44.2598 12.9023 44.0843 12.7912C43.7743 12.7795 43.4585 12.7093 43.1837 12.9315C42.9965 12.9783 42.8211 13.0368 42.7158 13.2181C42.4117 13.376 42.1895 13.6275 42.0082 13.9082C41.8561 14.031 41.7158 14.1655 41.5929 14.3234C41.3239 14.4989 41.0841 14.7153 40.8736 14.9667C40.6631 15.1188 40.5169 15.3176 40.4467 15.5691C40.1484 15.6744 39.9671 15.92 39.7624 16.1422L39.7683 16.1364C39.5285 16.3118 39.2946 16.3996 39.0957 16.0838C38.9086 15.9668 38.7624 15.8206 38.7565 15.5867C38.3355 14.9375 37.9027 14.2942 37.1892 13.914C37.1483 13.9374 37.119 13.9316 37.0956 13.8848C36.7681 13.7094 36.4406 13.686 36.1248 13.9082H36.1307C35.8675 14.0193 35.8149 14.2766 35.7096 14.4989C35.7096 14.6509 35.7154 14.7971 35.7154 14.9492C35.8383 15.2884 36.1014 15.5106 36.3763 15.7212L36.388 15.7329C36.5108 15.8849 36.6453 16.0194 36.7915 16.1422L36.8032 16.1539C37.0021 16.4522 37.2301 16.7388 37.4699 16.9961C37.9085 17.4639 37.8851 17.9143 37.5401 18.3997C37.3413 18.4523 37.353 18.6745 37.2243 18.7857C37.0547 18.8968 36.9377 19.0547 36.8266 19.2243C36.54 19.5459 36.2008 19.8208 35.9962 20.2068C35.85 20.3062 35.8324 20.505 35.6979 20.6103C35.4874 20.9495 35.2417 21.277 35.4406 21.7156L35.4289 21.7039C35.8032 22.4759 36.1482 22.5402 37.0898 22.0022C37.0956 21.8911 37.0956 21.8034 37.1015 21.7156Z" fill="#464646"/>
  <path d="M35.6953 20.5924L35.7008 20.5869L35.6953 20.5924Z" fill="#464646"/>
  <path d="M87.3538 14.5391L87.3477 14.5452C87.3477 14.5452 87.3477 14.5452 87.3477 14.5513L87.3538 14.5391Z" fill="#464646"/>
  <path d="M79.2829 14.9958L79.2773 14.9902L79.2829 14.9958Z" fill="#464646"/>
  <path d="M81.5281 17.7152C81.5164 17.8322 81.5047 17.955 81.4989 18.072C81.2825 18.4229 81.3936 18.8381 81.2533 19.2007C81.0427 19.4112 81.0954 19.7095 81.0135 19.961C80.9024 20.2826 80.7912 20.6043 80.3585 20.6043C80.2298 20.5926 80.107 20.5809 79.9783 20.5692C79.7853 20.4405 79.5982 20.4405 79.4169 20.5867C79.3935 20.6218 79.3584 20.6277 79.3233 20.6043C78.5163 21.1423 78.411 21.7213 78.9958 22.4056C79.1771 22.5693 79.3935 22.6219 79.6333 22.6102C80.3643 22.5635 81.0954 22.5225 81.8322 22.5342C81.9726 22.5342 82.1013 22.4933 82.189 22.3705C82.6802 22.0839 83.2417 22.1892 83.768 22.0897C84.1423 21.8149 84.6277 21.9435 85.0195 21.7272C85.1891 21.7155 85.3587 21.7038 85.5283 21.6921C85.8149 21.6043 86.1307 21.5634 86.2535 21.2242C86.2769 20.9669 86.1073 20.7914 85.9962 20.5867C85.5342 20.3704 85.0839 20.2475 84.54 20.347C84.078 20.4347 83.5867 20.4639 83.1013 20.4464C82.8908 20.4405 82.6685 20.4815 82.4931 20.3177L82.5106 20.2943C82.382 20.0136 82.4054 19.7329 82.4931 19.4522L82.4872 19.4639C82.8147 18.7328 82.6685 17.9141 82.9025 17.1714C82.9083 17.0544 82.92 16.9374 82.9259 16.8205C83.2183 16.2532 83.0136 15.5689 83.3411 15.0075C83.7505 14.6859 84.2943 14.8321 84.733 14.604C85.0605 14.604 85.3821 14.604 85.7096 14.604C86.2711 14.9666 86.8208 15.0777 87.353 14.5572C87.9905 13.7092 87.9378 13.4109 87.0489 12.791C86.5752 12.791 86.1015 12.791 85.6278 12.791C85.078 13.0308 84.4406 12.9021 83.8967 13.1887C83.7095 13.2238 83.5165 13.2706 83.3411 13.1536C83.0019 12.9138 82.6744 12.867 82.3644 13.1945C81.7621 13.5688 81.1187 13.3992 80.4871 13.3232C79.9666 13.2589 79.4286 13.1244 79.0309 13.6449L79.0368 13.6332C78.8087 13.9022 78.8321 14.1771 79.0192 14.4578L79.0543 14.5046L79.0309 14.5572C79.1011 14.7209 79.1596 14.8905 79.2999 15.0075C79.5105 15.1713 79.7444 15.2239 80.0134 15.1888C80.5164 15.1186 81.0252 15.1654 81.534 15.1596C81.8322 15.1771 81.8907 15.3818 81.9024 15.6274C81.92 16.0368 81.8966 16.4403 81.7621 16.8322C81.6451 17.107 81.6158 17.417 81.5281 17.7152Z" fill="#464646"/>
  <path d="M34.8132 16.1308C34.7781 16.1484 34.743 16.1425 34.7138 16.1191C34.474 15.9612 34.1933 15.9203 33.9184 15.9144C33.1347 15.891 32.3511 15.9086 31.5674 15.9846C31.4387 15.9905 31.3276 16.0197 31.2224 16.0957C31.0937 16.1074 30.9709 16.1191 30.8422 16.1367C30.4211 16.3063 29.9533 16.3238 29.5439 16.5402C29.5147 16.5811 29.4737 16.587 29.4386 16.5519C28.9006 16.8034 28.3216 16.6162 27.766 16.6923C27.5906 16.7156 27.3801 16.9437 27.2865 16.5928C27.2338 16.008 27.2514 15.4232 27.4385 14.8559C27.5789 14.7565 27.7543 14.7214 27.8596 14.5752H27.8538C28.1579 14.3705 28.5848 14.4582 28.8421 14.1541L28.8772 14.119L28.9181 14.1424C29.1111 14.0137 29.3685 14.0547 29.5439 13.8909L29.5965 13.8617L29.6609 13.8792C30.5089 13.5927 31.3861 13.5985 32.2634 13.6044C32.5558 13.6044 32.8131 13.6629 33.0178 13.8851C33.1172 13.9728 33.2166 14.0605 33.316 14.1483C33.7254 14.4524 33.9477 14.195 34.1523 13.8734C34.1523 13.5108 34.1465 13.1541 34.1465 12.7915C33.9886 12.4581 33.7254 12.2359 33.3921 12.0897C33.2751 12.078 33.1523 12.0721 33.0353 12.0604C32.2867 11.7797 31.544 11.844 30.8013 12.078L30.772 12.1072L30.7428 12.078C29.9942 12.2125 29.2632 12.4172 28.5731 12.7505C28.5029 12.7622 28.4327 12.7681 28.3567 12.7798C27.7953 13.0488 27.1929 12.9377 26.6022 12.9786C26.38 12.9962 26.0993 12.8207 25.9297 13.119C25.9297 16.1425 25.9297 19.1719 25.9297 22.1955C26.2864 22.4235 26.5204 22.213 26.7367 21.9615C26.9941 21.6048 26.9707 21.2013 26.9297 20.7919C26.8713 20.1603 26.8362 19.5228 27.0233 18.9029C27.6666 18.8327 28.3216 18.8093 28.848 18.3415L28.8831 18.3064L28.9298 18.3298C29.2457 18.1134 29.6667 18.2011 29.9708 17.9496L30.0293 17.9204L30.0936 17.9262C30.5089 17.7625 30.9533 17.6865 31.3627 17.5052L31.4095 17.4759L31.4563 17.4993C32.4505 17.3297 33.4389 17.2595 34.4272 17.5344C34.5734 17.5753 34.7372 17.6631 34.8366 17.4525C34.819 17.2829 34.9009 17.2127 35.0647 17.2186C35.3746 16.7624 35.1992 16.4232 34.8132 16.1308Z" fill="#464646"/>
  <path d="M26.7366 21.9551V21.9612L26.7305 21.9673L26.7366 21.9551Z" fill="#464646"/>
  <path d="M68.9396 21.2767C69.0507 21.3995 69.0682 21.5984 69.2378 21.6744C69.5068 22.0253 69.8811 22.1598 70.2964 22.2475C70.7057 22.3353 71.1268 22.2709 71.5303 22.3879C72.314 22.3236 73.1035 22.3294 73.8872 22.3879C74.7235 22.2826 75.5598 22.2125 76.3902 22.3821C76.6066 22.3236 76.823 22.3528 77.0335 22.4054C77.2675 22.5634 77.5014 22.5692 77.7295 22.3879C77.9751 22.2592 78.0453 22.0195 78.1389 21.7855C78.1389 21.7153 78.1389 21.651 78.1447 21.5808C78.0921 21.3235 77.9517 21.1305 77.7178 21.0077C77.5423 20.7738 77.2324 20.7562 77.0218 20.5749C76.9809 20.5925 76.94 20.5866 76.899 20.5574C76.3844 20.3703 75.8756 20.3644 75.3609 20.5457C75.2674 20.5632 75.1796 20.5749 75.0861 20.5925C74.7352 20.7796 74.3609 20.6861 73.9925 20.7095C73.0977 20.6217 72.1853 20.9843 71.3023 20.5925C71.2555 20.5925 71.2087 20.5749 71.1736 20.5457C71.0449 20.4287 70.8636 20.417 70.7291 20.3001L70.7408 20.3059C70.2203 19.6392 70.5771 18.9784 70.7467 18.3175C70.7233 18.2707 70.7291 18.2298 70.7642 18.1947C70.9046 18.0134 70.9221 17.7795 71.0098 17.5748L70.9864 17.528L71.0274 17.4929C71.3139 17.2063 71.273 16.797 71.4309 16.4636L71.4075 16.4168L71.4485 16.3817C71.6122 16.2004 71.6298 15.9665 71.6531 15.7384C71.6356 15.5103 71.6882 15.2998 71.8344 15.1185C71.8461 15.0776 71.8637 15.0308 71.8812 14.9899C72.0625 14.7325 71.9923 14.3816 72.2087 14.136C72.4017 13.7208 72.39 13.2529 72.5479 12.826C72.5596 12.709 72.5655 12.5921 72.5772 12.4751C72.6649 12.1944 72.776 11.9137 72.5479 11.6446L72.5596 11.6388C72.3374 11.4283 72.0742 11.4926 71.8111 11.5218C71.5303 11.6856 71.3256 11.9371 71.1034 12.1651C70.9631 12.3113 70.928 12.4926 70.9748 12.6798C71.0917 13.1593 70.9514 13.5921 70.7584 14.019V14.0073C70.5595 14.1652 70.6122 14.4401 70.4835 14.6273L70.501 14.6682L70.4718 14.6974C70.2086 15.1302 70.273 15.6624 70.0449 16.1069C70.0683 16.1537 70.0624 16.1946 70.0273 16.2355C69.6297 17.1128 69.2729 18.0076 68.9337 18.9082V18.8965C68.6296 19.7036 68.6004 20.4931 68.9396 21.2767Z" fill="#464646"/>
  <path d="M34.8428 20.3296C34.7142 20.1834 34.5504 20.1191 34.3574 20.0957C33.8486 20.0431 33.3457 19.9729 32.8369 19.9553C31.2111 19.8969 29.5969 20.2244 27.9711 20.0372C27.5442 19.9846 27.3512 20.277 27.1816 20.5987C27.1992 20.6454 27.1933 20.6922 27.1641 20.7273C26.9477 21.0139 26.9477 21.2946 27.1816 21.5695L27.2167 21.6046L27.1992 21.6513C27.6612 22.3122 28.129 22.3882 29.1291 21.973L29.1174 21.9788C29.4741 21.7917 29.9011 21.9321 30.2519 21.7332C30.2987 21.7157 30.3397 21.704 30.3865 21.6864C30.9011 21.4291 31.4742 21.6864 31.9947 21.5051C32.7199 21.4583 33.4568 21.5344 34.1644 21.3063C34.3691 21.2186 34.6323 21.3414 34.8136 21.1367C35.1235 20.8794 35.106 20.6103 34.8428 20.3296V20.3296Z" fill="#464646"/>
  <path d="M87.2713 29.2825C87.1543 28.9667 87.0256 28.6801 86.6747 28.6041C86.2829 28.5222 86.1074 28.8029 85.9437 29.0895C85.6103 29.1304 85.6513 28.6977 85.3881 28.6567C85.3472 28.6333 85.3355 28.5982 85.3589 28.5515C84.9904 28.3058 84.7448 28.4813 84.5284 28.7912C84.3939 28.9784 84.2594 29.1655 84.1249 29.3527C83.9143 29.5223 83.7155 30.0603 83.4874 29.7503C83.1014 29.224 82.7622 29.4989 82.388 29.6334C82.3587 29.4872 82.3587 29.3936 82.3646 29.3059C82.3763 28.9667 82.388 28.6041 81.9026 28.645C81.4464 28.686 81.4639 29.0778 81.4932 29.3878C81.5283 29.7328 81.5283 30.0779 81.5166 30.4229C81.499 31.0838 81.7329 31.2183 82.4172 30.9551C82.4523 30.9258 82.4874 30.8966 82.5225 30.8674C82.7973 30.6802 82.9728 30.9843 83.2009 31.0019C83.2476 30.9492 83.2944 30.9492 83.3354 31.0077C83.774 30.9492 84.0372 30.6627 84.236 30.3001C84.2945 30.2182 84.3588 30.1305 84.4173 30.0486C84.5869 29.9433 84.6805 29.727 84.9144 29.7153C85.1074 29.9258 84.9612 30.148 84.9553 30.3644C84.9436 30.7679 85.0431 30.8498 85.4875 30.8557L85.4758 30.8732C85.7741 30.6393 85.856 30.265 86.0782 29.9843C86.3355 29.6509 86.5695 29.5924 86.7449 30.0545C86.9028 30.2767 86.6455 30.5808 86.9028 30.7796C87.0373 30.9025 87.1426 31.1773 87.3765 30.9902C87.5871 30.8206 87.5988 30.5808 87.4408 30.3469C87.3531 30.0018 87.3999 29.6334 87.2713 29.2825Z" fill="#464646"/>
  <path d="M104.793 29.494C104.664 29.3069 104.676 29.1197 104.798 28.9326C105.22 28.3068 105.132 27.6109 105.062 26.9208C105.038 26.681 104.974 26.4237 104.711 26.3769C104.366 26.3126 104.331 26.6167 104.26 26.8506C104.05 27.1196 104.255 27.453 104.108 27.7337C104.103 27.8097 104.103 27.8858 104.097 27.9559C103.945 28.1899 104.032 28.453 104.027 28.7045C104.021 28.9209 103.98 29.1197 103.91 29.301C103.915 29.225 103.886 29.1256 103.839 29.0203C103.26 28.5876 102.939 28.5992 102.43 29.0847C101.88 29.3888 101.904 29.921 101.945 30.4239C101.98 30.8567 102.202 31.1666 102.717 31.0965C102.945 31.0672 103.179 31.1549 103.395 31.0321C103.465 30.9795 103.541 30.921 103.611 30.8684C103.974 30.6695 104.36 30.0321 104.664 30.9386C104.711 31.0848 104.915 31.1491 105.079 31.038C105.255 30.9269 105.337 30.7631 105.214 30.5701C104.997 30.2426 104.997 29.8274 104.793 29.494ZM103.5 29.8683C103.325 30.0204 103.179 30.2251 102.904 30.1432C102.828 30.1198 102.816 30.0321 102.833 29.9619C102.898 29.6987 103.102 29.5993 103.348 29.5642C103.418 29.5525 103.488 29.5525 103.559 29.5467C103.687 29.535 103.781 29.4999 103.834 29.4531C103.752 29.6051 103.646 29.7455 103.5 29.8683Z" fill="#464646"/>
  <path d="M74.9016 28.5516C75.0771 27.9785 75.0127 27.3645 74.9601 26.7679C74.9425 26.5574 74.849 26.4053 74.6384 26.3761C74.4162 26.3468 74.3402 26.534 74.2349 26.6919C74.0536 26.9668 74.194 27.2884 74.0712 27.5633L74.0829 27.5574C73.8899 27.8265 73.9659 28.1364 73.9951 28.4171C74.0302 28.7388 73.96 29.0137 73.8372 29.2593C73.8489 29.2008 73.8431 29.1306 73.808 29.0487C73.2524 28.5984 72.9541 28.6043 72.3693 29.0546C72.3108 29.1072 72.2523 29.1657 72.1939 29.2183C71.7319 29.7973 71.7494 30.5108 72.2407 31.0196C72.6091 31.16 72.9717 31.16 73.3401 31.0138L73.3284 31.0196C73.4337 30.9728 73.5448 30.9202 73.6208 30.8325C74.0244 30.3763 74.3636 30.3997 74.6501 30.9494C74.6677 30.9845 74.7262 31.0021 74.7671 31.0196L74.7554 31.0079C75.2525 30.9728 75.3695 30.774 75.0946 30.271C74.7963 29.7154 74.7086 29.1833 74.9016 28.5516ZM73.3518 29.9494C73.2466 30.0722 73.1179 30.1775 72.9366 30.1541C72.8606 30.1424 72.8079 30.0897 72.8138 30.0137C72.8196 29.7973 72.9717 29.6921 73.1471 29.6102C73.2933 29.54 73.4629 29.5342 73.6091 29.4698C73.6852 29.4406 73.7437 29.4055 73.7904 29.3587C73.6676 29.5692 73.5156 29.7564 73.3518 29.9494Z" fill="#464646"/>
  <path d="M72.2622 31.0198C72.2622 31.0137 72.2622 31.0137 72.2622 31.0198C72.2561 31.0137 72.25 31.0137 72.25 31.0137L72.2622 31.0198Z" fill="#464646"/>
  <path d="M69.7383 28.3764C69.8318 27.8208 69.8201 27.2593 69.7441 26.7038C69.709 26.6687 69.6973 26.6336 69.7149 26.5868C69.3347 26.0955 69.1885 26.4172 69.0423 26.7739L69.0599 26.809L69.0306 26.8383C68.8552 27.0663 69.0306 27.3529 68.8961 27.5927C68.8903 27.7155 68.8786 27.8383 68.8727 27.9611C68.7557 28.1775 68.8025 28.4173 68.8201 28.6395C68.8376 28.9027 68.7908 29.1249 68.6973 29.3296C68.6973 29.2594 68.668 29.1717 68.6037 29.0781V29.0723C67.937 28.4114 67.2586 28.6395 66.779 29.6688C66.7147 29.7156 66.6738 29.7682 66.6621 29.8267C66.5977 29.4524 66.5042 29.0957 66.2176 28.8091L66.2235 28.815C65.8433 28.3881 65.5451 28.6337 65.2526 28.9319C65.1942 29.0255 65.1357 29.1191 65.0772 29.2127C65.007 29.2068 64.9427 29.201 64.9193 29.1191C64.855 28.9027 64.7555 28.7039 64.4982 28.7623C64.2175 28.8267 64.2058 29.0723 64.2058 29.3179C64.2058 29.7098 64.235 30.1016 64.1883 30.4934C64.1649 30.6747 64.2292 30.8092 64.3871 30.897C64.5976 31.0139 64.738 30.932 64.8316 30.7332C64.8257 30.6221 64.814 30.511 64.9485 30.4642C65.1064 30.2829 65.2994 30.125 65.3696 29.8852C65.6503 29.6045 65.8609 29.5811 65.9486 30.049C66.0071 30.3414 66.0071 30.6513 66.2176 30.897C66.2936 31.0899 66.4691 30.9554 66.586 31.0139C66.6972 30.9847 66.7673 30.9028 66.8492 30.8326C67.2294 31.2888 67.7206 31.1016 68.1943 31.0315C68.3113 30.932 68.4282 30.8326 68.5511 30.7332C68.8493 30.5461 69.171 30.1367 69.3815 30.8326C69.4341 31.0022 69.6154 31.1601 69.8143 31.0607C70.0775 30.9262 70.0307 30.6923 69.902 30.4759C69.4868 29.7975 69.3055 29.1074 69.7383 28.3764ZM66.7381 30.1835C66.7323 30.1776 66.7264 30.1718 66.7206 30.1601C66.7147 30.1191 66.7089 30.0723 66.6972 30.0314C66.7089 30.0548 66.7206 30.0724 66.7381 30.0957C66.7381 30.125 66.7381 30.1542 66.7381 30.1835ZM68.1592 30.0022C68.0364 30.1074 67.9019 30.2069 67.7265 30.1542C67.6563 30.1308 67.6329 30.0548 67.6387 29.9846C67.668 29.7741 67.8142 29.6688 68.0013 29.6162C68.1358 29.5752 68.282 29.6103 68.4107 29.5811C68.4984 29.5636 68.5628 29.5343 68.6095 29.4934C68.4984 29.6805 68.3405 29.8443 68.1592 30.0022Z" fill="#464646"/>
  <path d="M39.2392 28.9497C38.9351 28.7567 38.5316 28.7333 38.2567 28.3707C38.6778 28.09 39.1222 27.973 39.555 27.8268C39.9176 27.704 40.1223 27.4993 39.7889 27.1309H39.1924C38.6193 27.3706 37.9701 27.394 37.4613 27.78C37.3034 27.856 37.0754 27.7625 36.9642 27.9672C36.6952 28.3531 36.7946 28.669 37.1572 28.9263C37.2566 28.9789 37.3561 29.0315 37.4613 29.0842C37.8649 29.3123 38.2918 29.4702 38.7304 29.6105C39.1515 30.0433 39.1456 30.0433 38.438 30.2948C38.2509 30.2948 38.0637 30.2948 37.8766 30.2948C37.6543 30.1778 37.3912 30.1603 37.1923 29.9907C36.9935 29.8211 36.7595 29.7509 36.625 30.0258C36.4847 30.3006 36.4671 30.6223 36.818 30.7802C37.0812 30.903 37.3736 30.9556 37.6602 31.0083H37.666C37.9877 30.9381 38.3152 30.9439 38.6368 31.0083C39.0404 30.9264 39.4673 30.8913 39.672 30.4527V30.4468C39.672 30.4468 39.672 30.4468 39.6661 30.4468C40.0931 29.9088 39.9352 29.3883 39.2392 28.9497Z" fill="#464646"/>
  <path d="M42.1048 30.2071C41.286 29.8562 41.2626 29.6866 41.9293 29.1076C42.2627 28.8562 42.6077 28.6339 43.0054 28.4994C43.2218 28.4409 43.4323 28.3591 43.6429 28.283C43.906 28.1895 44.0406 28.0315 43.7189 27.821C43.1165 27.745 42.5843 27.9263 42.0814 28.2421C41.6135 28.3415 41.3094 28.8269 40.7889 28.8035C40.7129 28.6047 40.7246 28.4 40.7304 28.1953C40.7421 27.9731 40.7538 27.745 40.6661 27.5344C40.6252 27.5111 40.6193 27.476 40.6486 27.435C40.5199 27.3298 40.4205 27.2596 40.3328 27.2245C40.1164 27.1309 40.017 27.2596 39.9585 27.6514C39.8064 28.7275 39.8941 29.8094 39.9702 30.8855C40.017 30.9264 40.0579 30.9732 40.1047 31.0142C40.438 31.1955 40.5199 30.9089 40.6544 30.7159C40.6895 30.5463 40.5141 30.2071 40.941 30.3475C41.2392 30.6691 41.479 31.0726 41.9703 31.1428H42.0054C42.2919 31.096 42.4791 30.9615 42.4557 30.6399C42.4557 30.4176 42.327 30.3065 42.1048 30.2071Z" fill="#464646"/>
  <path d="M99.5036 30.8327C99.0474 30.8794 98.603 31.0198 98.1526 31.09C97.6906 31.166 97.2637 31.0666 96.983 30.6689C96.8368 30.4584 96.7257 30.1894 97.1701 30.1718L97.2169 30.1601L97.2462 30.201C97.6146 30.2771 97.9889 30.3707 98.3456 30.1484C98.4918 29.9788 98.6439 29.8092 98.7901 29.6396C98.872 29.5051 98.9012 29.3647 98.8076 29.2185C98.7609 29.084 98.5796 29.0139 98.6322 28.8384C97.8544 28.3121 97.3748 28.3705 96.6906 29.0723C96.5561 29.1893 96.4332 29.318 96.3982 29.4993C96.0707 30.0548 95.866 30.6163 96.3923 31.1719C96.4917 31.2713 96.5912 31.3649 96.6964 31.4643C97.7199 32.0783 98.7433 31.7625 99.7668 31.4584L99.8019 31.4233L99.8486 31.435C100.018 30.8736 99.9832 30.78 99.5036 30.8327Z" fill="#464646"/>
  <path d="M94.946 30.2188C94.8699 30.1427 94.7939 30.0667 94.712 29.9848C94.4079 29.4644 94.9577 29.3474 95.1448 29.0608C95.174 28.9205 95.2793 28.9088 95.3904 28.9205C95.6653 28.7626 95.9636 28.6456 96.2384 28.4877C96.4314 28.4409 96.6186 28.3707 96.8057 28.3005C97.0806 28.1953 97.1508 28.0432 96.8993 27.8327C96.2852 27.7742 95.7296 27.938 95.2033 28.2538C94.7647 28.3941 94.4489 28.7509 94.0219 28.9029C93.8874 28.6456 94.0278 28.3532 93.905 28.0959C93.8465 27.8327 93.7939 27.5754 93.7354 27.3122C93.3552 27.0432 93.2675 27.242 93.2617 27.5988C93.25 28.4058 93.2968 29.2187 93.2383 30.0258C93.1798 30.3884 92.8113 30.8738 93.6009 30.8796C93.6827 30.7861 93.7646 30.6866 93.8523 30.5931C94.057 30.4936 94.0161 30.3591 93.9167 30.2071C94.2149 30.634 94.5658 30.9907 95.0805 31.1487C95.1273 31.1487 95.174 31.1487 95.2208 31.1487C95.5308 31.0609 95.7004 30.8621 95.6127 30.5404C95.5249 30.2012 95.2091 30.2422 94.946 30.2188Z" fill="#464646"/>
  <path d="M125.677 30.0493C125.279 29.7218 124.8 29.5346 124.314 29.3592C124.197 29.365 124.063 29.3767 124.057 29.213C124.051 29.0434 124.191 29.0609 124.303 29.0551C124.572 28.8855 124.911 29.1253 125.168 28.8972C125.402 28.2188 124.882 28.2831 124.548 28.3474C124.063 28.4352 123.601 28.6457 123.127 28.8036C122.823 29.2949 123.18 29.5229 123.507 29.7686C123.928 29.9616 124.344 30.1487 124.765 30.3417C124.934 30.4821 124.946 30.6107 124.7 30.6575C124.525 30.6926 124.338 30.7043 124.168 30.6166C123.858 30.6633 123.735 30.213 123.396 30.3358C123.156 30.6984 123.326 30.9441 123.618 31.1663C123.724 31.3359 123.917 31.2599 124.063 31.3242C124.525 31.4061 124.993 31.4119 125.455 31.3242C125.618 31.2189 125.782 31.1137 125.94 31.0084C126.291 30.5756 125.969 30.2891 125.677 30.0493Z" fill="#464646"/>
  <path d="M122.675 29.6337C122.534 29.4816 122.476 29.312 122.517 29.1073C122.248 28.6862 121.973 28.6921 121.698 29.1015C121.645 29.3354 121.482 29.4582 121.277 29.581C121.166 29.3412 121.224 29.0547 120.92 28.9903C120.441 28.8968 120.464 29.4173 120.189 29.5986C119.996 29.429 120.008 29.0371 119.628 29.0898C119.4 29.6395 119.552 30.2126 119.528 30.7741C119.522 30.9437 119.692 31.2302 119.99 30.9788C120.236 30.8092 120.236 30.4466 120.522 30.3004C120.721 30.4583 120.546 30.7156 120.704 30.8735C120.967 31.0548 121.113 30.8735 121.248 30.6863C121.756 29.8676 121.797 29.8559 122.119 30.429C122.33 31.0197 122.37 31.0606 122.78 30.9788C122.78 30.7799 122.78 30.5811 122.786 30.3822C122.663 30.1425 122.821 29.8676 122.675 29.6337Z" fill="#464646"/>
  <path d="M63.8564 30.4762C63.7745 30.482 63.7277 30.4411 63.7101 30.3592C63.599 30.1487 63.447 29.9674 63.2774 29.8036L63.2715 29.7978C63.1429 29.5697 63.0785 29.2948 62.8563 29.1252C62.8505 29.1194 62.8446 29.1135 62.8388 29.1135C62.8271 29.1018 62.8154 29.096 62.8037 29.0843C62.2188 28.5814 61.7568 28.5931 60.9264 29.096C60.7977 29.2364 60.669 29.3767 60.5404 29.5229C60.4 29.9265 60.3299 30.33 60.5111 30.7394C60.7041 30.7745 60.634 31.1429 60.9205 31.061C61.2012 31.1487 61.482 31.1663 61.7568 31.0435C61.8329 30.9908 61.9089 30.9441 61.9791 30.8914C62.2656 30.8271 62.406 30.5756 62.5931 30.3826C62.9031 30.4119 62.9382 30.7511 63.1487 30.8914C63.213 30.9382 63.2774 30.9908 63.3476 31.0318C63.3651 31.0435 63.3826 31.0552 63.4002 31.061C63.4528 31.0844 63.5113 31.102 63.5756 31.1078C63.7511 31.1137 63.9616 31.1721 64.0552 30.9441C64.1546 30.7101 64.0318 30.5756 63.8564 30.4762ZM62.3124 29.4995C62.3183 29.868 61.7685 30.4002 61.3884 30.3885C61.1895 30.3826 60.9673 30.3183 61.0258 30.0844C61.1428 29.5873 61.517 29.3299 62.0083 29.2598C62.1837 29.2364 62.3358 29.2598 62.3124 29.4995Z" fill="#464646"/>
  <path d="M81.1619 30.4822C80.542 30.2132 80.4543 29.5348 80.0624 29.0845C79.6063 28.5757 78.9571 28.5699 78.2495 29.0728C78.2027 29.1196 78.15 29.1664 78.1033 29.2132C77.6354 29.5231 77.5418 29.9383 77.7231 30.4413C77.7231 30.4413 77.7231 30.4413 77.7231 30.4354C77.7231 30.4413 77.7231 30.4471 77.729 30.453C77.7991 30.7396 77.9454 30.9559 78.2553 31.0203C78.5302 31.1431 78.8109 31.1431 79.0858 31.0203C79.2144 30.9267 79.3372 30.8331 79.4659 30.7396C79.7934 30.5173 80.1034 30.3711 80.3724 30.8331C80.425 30.9267 80.542 30.9852 80.6589 31.0027C80.6589 31.0027 80.6589 31.0027 80.6531 30.9969C80.7876 31.0905 80.9338 31.1372 81.0683 31.1314C81.2028 31.1255 81.3257 31.0612 81.4251 30.9326C81.6122 30.6752 81.3256 30.5875 81.1619 30.4822ZM78.6939 30.3887C78.5068 30.3887 78.2436 30.3243 78.3138 30.067C78.4425 29.5758 78.8343 29.3243 79.3372 29.2658C79.4659 29.2483 79.618 29.2249 79.6238 29.4471C79.6414 29.8097 79.1326 30.3653 78.6939 30.3887Z" fill="#464646"/>
  <path d="M119.286 30.6225C118.526 30.3301 118.391 29.5055 117.9 28.985C117.134 28.4352 116.075 28.751 115.707 29.64C115.695 29.6868 115.683 29.7277 115.672 29.7745C115.531 30.0084 115.531 30.2365 115.672 30.4704L115.713 30.4997L115.707 30.5465C115.754 30.7804 115.906 30.9207 116.122 30.9968C116.391 31.1605 116.66 31.1254 116.941 31.0143H116.929C117.023 30.9383 117.169 30.9734 117.245 30.8915C117.683 30.4119 118.064 30.4646 118.491 30.9324C118.724 31.1898 119.058 31.1956 119.321 30.8857C119.397 30.7921 119.403 30.6985 119.286 30.6225ZM117.508 29.5172C117.479 29.9148 116.935 30.4236 116.566 30.3885C116.373 30.371 116.157 30.2891 116.221 30.061C116.368 29.5815 116.73 29.3183 117.227 29.254C117.426 29.2364 117.549 29.2891 117.508 29.5172Z" fill="#464646"/>
  <path d="M110.102 30.6225C109.342 30.3301 109.208 29.5055 108.716 28.985C107.95 28.4352 106.892 28.751 106.523 29.64C106.511 29.6868 106.5 29.7277 106.488 29.7745C106.348 30.0084 106.348 30.2365 106.488 30.4704L106.529 30.4997L106.523 30.5465C106.57 30.7804 106.722 30.9207 106.938 30.9968C107.207 31.1605 107.476 31.1254 107.757 31.0143H107.745C107.839 30.9383 107.985 30.9734 108.061 30.8915C108.5 30.4119 108.88 30.4646 109.307 30.9324C109.541 31.1898 109.874 31.1956 110.137 30.8857C110.213 30.7921 110.213 30.6985 110.102 30.6225ZM108.324 29.5172C108.295 29.9148 107.751 30.4236 107.383 30.3885C107.19 30.371 106.973 30.2891 107.038 30.061C107.184 29.5815 107.547 29.3183 108.044 29.254C108.237 29.2364 108.365 29.2891 108.324 29.5172Z" fill="#464646"/>
  <path d="M54.2114 29.2192C54.1237 29.2075 54.0828 29.1608 54.0828 29.073C53.8079 28.7104 53.5272 28.88 53.2465 29.0555C53.1471 29.1549 53.0418 29.2543 52.9424 29.3538C52.6851 29.5234 52.6441 29.3596 52.6149 29.1549C52.5739 28.804 52.7026 28.4414 52.5388 28.0964L52.5038 28.0613L52.5272 28.0204C52.4453 27.7864 52.4336 27.4355 52.0885 27.5116C51.7903 27.5759 51.9248 27.9034 51.9248 28.1139C51.9248 28.4824 51.8546 28.8567 51.9716 29.2192C52.0534 29.5935 52.0417 29.9678 51.9657 30.3421C51.8546 31.0322 51.954 31.1433 52.5213 30.9737C52.7201 30.5702 52.9892 30.2135 53.3225 29.9035C53.6617 29.7573 53.7904 29.962 53.8489 30.2368C53.9132 30.5351 54.0068 30.81 54.2114 31.0381C54.2875 31.079 54.3577 31.1199 54.4337 31.1609C54.5799 31.1316 54.7144 31.0439 54.691 30.8918C54.6091 30.307 54.6852 29.6813 54.2114 29.2192Z" fill="#464646"/>
  <path d="M59.7998 29.108C59.5424 28.7161 59.2617 28.7921 58.9635 29.0612L58.9518 29.0729C58.7822 29.1723 58.6828 29.3945 58.4079 29.3711C58.2675 28.9793 58.2734 28.5641 58.2032 28.1664C58.1564 27.8857 58.2207 27.4646 57.788 27.5231C57.3786 27.5816 57.4897 27.9968 57.5248 28.2717C57.6125 28.9384 57.5716 29.6109 57.5599 30.2776C57.554 30.5993 57.4254 30.9794 57.8523 31.0847C58.2441 31.1782 58.402 30.8273 58.5541 30.5408C58.6009 30.4589 58.6418 30.377 58.6711 30.2893C58.6535 30.0788 58.7763 29.9735 58.9518 29.9092C59.1038 29.8097 59.25 29.7513 59.3962 29.915C59.4606 30.0554 59.3787 30.2367 59.5249 30.3536C59.6887 30.6168 59.6536 31.0262 60.0746 31.0964C60.4489 30.9092 60.3846 30.6285 60.2384 30.3302C60.098 29.9209 59.9518 29.5115 59.7998 29.108Z" fill="#464646"/>
  <path d="M49.2527 28.9557C49.2527 28.7218 49.048 28.6692 48.8725 28.6165C48.662 28.5464 48.4573 28.6341 48.2526 28.6692C48.0187 28.716 47.7906 28.7744 47.6386 28.5171C47.4339 28.3826 47.6152 27.8738 47.1824 27.9791C46.7964 28.0726 47.0596 28.4352 46.9777 28.6633C46.9602 28.7043 46.9543 28.751 46.9426 28.792C46.7496 28.9733 46.4689 28.9089 46.2584 29.0435C46.1297 29.0552 46.0069 29.0727 45.8782 29.0844C45.6677 29.2131 45.6326 28.9089 45.4805 28.8973C44.9601 28.2715 44.346 28.3124 43.5974 29.0259C43.5038 29.137 43.4044 29.2423 43.3108 29.3534C42.8196 30.1429 42.8254 30.6108 43.3167 31.3067C43.4103 31.3594 43.5038 31.412 43.5974 31.4646C43.7612 31.6927 44.0126 31.7571 44.2583 31.7746C45.0361 31.8331 45.8022 31.7746 46.5332 31.4646C46.6794 31.3535 46.8139 31.2424 46.8081 31.0377C46.6268 30.7161 46.3344 30.7979 46.0712 30.8681C45.7379 30.9558 45.3928 31.0026 45.0595 31.0787C44.539 31.1956 44.0945 30.9968 43.7904 30.5699C43.6033 30.3125 43.5799 30.0727 44.036 30.178L44.0243 30.1722C44.3928 30.295 44.7612 30.3301 45.1238 30.1546C45.153 30.0377 45.2349 30.0201 45.3402 30.0318C45.4922 30.0143 45.4981 29.8739 45.5507 29.7745C45.5624 29.7394 45.5683 29.7043 45.58 29.6634C45.6677 29.6517 45.7554 29.7511 45.8431 29.8154C45.8958 29.8564 45.9601 29.8739 46.0244 29.8915C46.3402 29.9032 46.6268 29.6517 46.9543 29.7803C47.1473 30.1312 46.9075 30.5289 47.0947 30.8798C47.1415 30.9266 47.1882 30.9734 47.235 31.026C47.4807 31.143 47.6736 31.1254 47.7789 30.833C47.7789 30.6693 47.7848 30.5055 47.7848 30.3476C47.6678 29.5289 47.6678 29.5289 48.4047 29.3651C48.5626 29.33 48.7146 29.2715 48.8842 29.2774C49.1065 29.2891 49.2527 29.178 49.2527 28.9557Z" fill="#464646"/>
  <path d="M49.4766 28.9502L49.5071 28.9807H49.5132L49.4766 28.9502Z" fill="#464646"/>
  <path d="M51.2536 30.622C50.8091 30.6688 50.4114 30.5167 50.0313 30.3062C49.7389 30.0196 49.7915 29.7682 50.0839 29.505C50.3179 29.2886 50.5226 29.1892 50.7623 29.4816L50.7565 29.4699C50.9436 29.774 51.16 29.8325 51.4232 29.5518C51.4232 29.4056 51.4232 29.2594 51.4232 29.1073C50.8384 28.2827 50.3003 28.2476 49.5108 28.9787C48.8675 29.4582 48.8149 30.043 49.347 30.7507C50.0254 31.3355 50.8501 31.3063 51.6688 31.2887C52.008 30.815 51.9963 30.7916 51.2536 30.622Z" fill="#464646"/>
  <path d="M91.0975 25.815C90.8401 25.8442 90.9045 26.0781 90.8986 26.2477C90.8869 26.4758 90.9279 26.7039 90.8343 26.9203C90.9279 27.2244 90.8694 27.5227 90.8226 27.8209C90.7173 28.8444 90.7115 29.8678 90.8285 30.8971C90.9688 31.1427 91.1618 31.1895 91.3957 31.0433C91.618 30.903 91.4425 30.745 91.4133 30.5754C91.3256 30.0316 91.2612 29.4818 91.3899 28.9379C91.5419 28.6104 91.3548 28.2478 91.5068 27.9203C91.5068 27.3998 91.5068 26.8852 91.5068 26.3647C91.4776 26.277 91.4601 26.1893 91.4308 26.1015C91.3782 25.9378 91.2671 25.7974 91.0975 25.815Z" fill="#464646"/>
  <path d="M115.852 29.2887C115.963 29.0138 115.706 28.9027 115.49 28.8092C114.232 28.1892 113.735 28.3121 113.273 29.3472C113.168 29.5928 113.068 29.8326 113.039 30.0841C112.928 29.4466 112.858 29.4525 112.279 29.8443C112.104 29.9554 111.928 30.0665 111.718 30.1016C111.601 30.1192 111.46 30.1309 111.419 30.008C111.355 29.8268 111.525 29.7858 111.647 29.7332C111.729 29.6981 111.829 29.6981 111.916 29.6864C112.361 29.6279 112.396 29.4057 112.162 29.0782C111.764 28.8442 111.372 28.9495 110.981 29.0899C110.653 29.2361 110.372 29.4408 110.308 29.8209C110.185 30.5168 110.56 30.9145 111.337 30.9672C111.554 30.9847 111.922 30.7976 111.946 31.1952C111.963 31.5111 111.87 31.8386 111.788 32.1485C111.741 32.3357 111.601 32.4117 111.413 32.283C111.285 32.1894 111.174 32.0608 111.004 32.0315C110.951 32.0315 110.899 32.0315 110.846 32.0315C110.554 32.1134 110.425 32.3123 110.507 32.5988C110.601 32.9205 111.46 33.3883 111.887 33.3766L111.87 33.3825C112.215 33.2597 112.326 32.979 112.396 32.6456C112.525 32.0491 112.554 31.435 112.723 30.8443C112.682 30.7157 112.712 30.628 112.852 30.5929C112.952 30.5227 113.004 30.435 113.028 30.3297C113.045 30.4642 113.086 30.6046 113.168 30.7449C113.168 31.0958 113.402 31.1485 113.677 31.1543C113.981 31.0549 113.905 30.7917 113.916 30.5695C113.94 30.201 113.87 29.8268 113.963 29.4642C114.355 28.9554 114.805 29.2419 115.244 29.3881C115.472 29.4642 115.741 29.5753 115.852 29.2887Z" fill="#464646"/>
  <path d="M77.8323 29.3419C78.0078 29.0729 77.7329 28.9267 77.575 28.7805C77.2767 28.4881 76.8791 28.4472 76.4931 28.3887C76.3235 28.5173 76.1246 28.5583 75.9141 28.5349C75.0486 29.1489 74.8907 30.5701 75.6158 31.1666C75.686 31.1666 75.7562 31.1607 75.8264 31.1607C76.2007 30.88 76.0486 30.5057 76.0194 30.1431C75.955 29.3419 76.3937 29.032 77.1364 29.3244C77.1773 29.3419 77.2183 29.3712 77.2592 29.3887C77.4639 29.4648 77.692 29.5525 77.8323 29.3419Z" fill="#464646"/>
  <path d="M71.951 29.0371C71.951 28.9728 71.951 28.9026 71.951 28.8383C71.5709 28.3412 70.8047 28.2827 70.1731 28.6921C70.0328 28.8967 70.0269 29.1014 70.179 29.3061C70.8047 29.6044 71.6294 29.4816 71.951 29.0371Z" fill="#464646"/>
  <path d="M70.1641 28.6996C70.1703 28.6996 70.1703 28.6996 70.1641 28.6996C70.1764 28.6872 70.1764 28.681 70.1826 28.6748L70.1641 28.6996Z" fill="#464646"/>
  <path d="M70.1943 29.3373C70.1882 29.3311 70.182 29.3187 70.1758 29.3125L70.1943 29.3373Z" fill="#464646"/>
  <path d="M92.2872 29.0901C92.0007 29.6866 92.1176 30.2773 92.334 30.8621C92.3984 31.0376 92.5504 31.1721 92.7727 31.0317C93.223 30.6282 93.106 30.2013 92.8077 29.7743C92.7083 29.4878 92.8311 29.0316 92.2872 29.0901Z" fill="#464646"/>
  <path d="M106.047 29.2126C105.919 29.1717 105.79 29.1308 105.661 29.084C105.363 29.663 105.55 30.2536 105.655 30.8268C105.702 31.0665 105.901 31.2361 106.158 30.9788L106.152 30.9847C106.345 30.3764 106.059 29.8033 106.047 29.2126Z" fill="#464646"/>
  <path d="M92.8491 28.4063C93.0245 28.2893 93.0596 28.1197 92.8491 27.9735C92.773 27.88 92.7029 27.7864 92.6268 27.6928C92.4806 27.4413 92.2759 27.4121 92.042 27.5525C91.8899 27.646 91.8432 27.8039 91.8782 27.9735C91.9426 28.2893 92.5859 28.5876 92.8491 28.4063Z" fill="#464646"/>
  <path d="M106.057 27.7918C105.835 27.6105 105.607 27.4233 105.344 27.7157C105.209 27.8619 105.238 28.0198 105.391 28.1368C105.613 28.3006 105.87 28.5111 106.139 28.3532C106.402 28.1953 106.116 27.9964 106.069 27.8152L106.057 27.7918Z" fill="#464646"/>
  </svg>
  