<svg width="81" height="80" viewBox="0 0 81 80" fill="none" xmlns="http://www.w3.org/2000/svg">
<g clip-path="url(#clip0_2507_6828)">
<g clip-path="url(#clip1_2507_6828)">
<path d="M71.944 15.6998C68.3832 10.977 63.8064 7.1149 58.5521 4.39894C53.2977 1.68298 47.5002 0.182639 41.588 0.00882635C32.3 -0.177174 25.884 2.61383 22.254 4.85783C27.111 2.04083 34.14 0.442826 40.294 0.521826C56.124 0.721826 73.126 11.5028 75.651 30.9348C78.551 53.2408 63.014 71.8578 41.158 71.9148C17.113 71.9758 2.48799 50.6858 6.31099 31.5628C6.38208 30.6252 6.5201 29.6938 6.72399 28.7758C7.19572 23.8747 8.62004 19.113 10.917 14.7578C8.14799 16.1908 4.62199 20.7228 2.88199 24.9208C0.349099 31.3259 -0.543925 38.2621 0.283992 45.0998C0.343992 45.6178 0.397992 46.1348 0.465992 46.6488C1.5029 52.6195 3.8808 58.2771 7.42067 63.1957C10.9606 68.1143 15.5702 72.1658 20.9024 75.0451C26.2347 77.9244 32.1507 79.5565 38.2051 79.8185C44.2594 80.0805 50.2943 78.9656 55.8554 76.5577C61.4165 74.1499 66.3589 70.5118 70.3104 65.9173C74.262 61.3229 77.1198 55.8919 78.6686 50.0331C80.2174 44.1744 80.417 38.0406 79.2522 32.0936C78.0874 26.1466 75.5886 20.5414 71.944 15.6998Z" fill="url(#paint0_radial_2507_6828)"/>
<path opacity="0.67" d="M71.944 15.6998C68.3832 10.977 63.8064 7.1149 58.5521 4.39894C53.2977 1.68298 47.5002 0.182639 41.588 0.00882635C32.3 -0.177174 25.884 2.61383 22.254 4.85783C27.111 2.04083 34.14 0.442826 40.294 0.521826C56.124 0.721826 73.126 11.5028 75.651 30.9348C78.551 53.2408 63.014 71.8578 41.158 71.9148C17.113 71.9758 2.48799 50.6858 6.31099 31.5628C6.38208 30.6252 6.5201 29.6938 6.72399 28.7758C7.19572 23.8747 8.62004 19.113 10.917 14.7578C8.14799 16.1908 4.62199 20.7228 2.88199 24.9208C0.349099 31.3259 -0.543925 38.2621 0.283992 45.0998C0.343992 45.6178 0.397992 46.1348 0.465992 46.6488C1.5029 52.6195 3.8808 58.2771 7.42067 63.1957C10.9606 68.1143 15.5702 72.1658 20.9024 75.0451C26.2347 77.9244 32.1507 79.5565 38.2051 79.8185C44.2594 80.0805 50.2943 78.9656 55.8554 76.5577C61.4165 74.1499 66.3589 70.5118 70.3104 65.9173C74.262 61.3229 77.1198 55.8919 78.6686 50.0331C80.2174 44.1744 80.417 38.0406 79.2522 32.0936C78.0874 26.1466 75.5886 20.5414 71.944 15.6998Z" fill="url(#paint1_radial_2507_6828)"/>
<path d="M71.944 15.6998C68.3832 10.977 63.8064 7.1149 58.5521 4.39894C53.2977 1.68298 47.5002 0.182639 41.588 0.00882635C32.3 -0.177174 25.884 2.61383 22.254 4.85783C27.111 2.04083 34.14 0.442826 40.294 0.521826C56.124 0.721826 73.126 11.5028 75.651 30.9348C78.551 53.2408 63.014 71.8578 41.158 71.9148C17.113 71.9758 2.48799 50.6858 6.31099 31.5628C6.38208 30.6252 6.5201 29.6938 6.72399 28.7758C7.19572 23.8747 8.62004 19.113 10.917 14.7578C8.14799 16.1908 4.62199 20.7228 2.88199 24.9208C0.349099 31.3259 -0.543925 38.2621 0.283992 45.0998C0.343992 45.6178 0.397992 46.1348 0.465992 46.6488C1.5029 52.6195 3.8808 58.2771 7.42067 63.1957C10.9606 68.1143 15.5702 72.1658 20.9024 75.0451C26.2347 77.9244 32.1507 79.5565 38.2051 79.8185C44.2594 80.0805 50.2943 78.9656 55.8554 76.5577C61.4165 74.1499 66.3589 70.5118 70.3104 65.9173C74.262 61.3229 77.1198 55.8919 78.6686 50.0331C80.2174 44.1744 80.417 38.0406 79.2522 32.0936C78.0874 26.1466 75.5886 20.5414 71.944 15.6998Z" fill="url(#paint2_radial_2507_6828)"/>
<path d="M71.944 15.6998C68.3832 10.977 63.8064 7.1149 58.5521 4.39894C53.2977 1.68298 47.5002 0.182639 41.588 0.00882635C32.3 -0.177174 25.884 2.61383 22.254 4.85783C27.111 2.04083 34.14 0.442826 40.294 0.521826C56.124 0.721826 73.126 11.5028 75.651 30.9348C78.551 53.2408 63.014 71.8578 41.158 71.9148C17.113 71.9758 2.48799 50.6858 6.31099 31.5628C6.38208 30.6252 6.5201 29.6938 6.72399 28.7758C7.19572 23.8747 8.62004 19.113 10.917 14.7578C8.14799 16.1908 4.62199 20.7228 2.88199 24.9208C0.349099 31.3259 -0.543925 38.2621 0.283992 45.0998C0.343992 45.6178 0.397992 46.1348 0.465992 46.6488C1.5029 52.6195 3.8808 58.2771 7.42067 63.1957C10.9606 68.1143 15.5702 72.1658 20.9024 75.0451C26.2347 77.9244 32.1507 79.5565 38.2051 79.8185C44.2594 80.0805 50.2943 78.9656 55.8554 76.5577C61.4165 74.1499 66.3589 70.5118 70.3104 65.9173C74.262 61.3229 77.1198 55.8919 78.6686 50.0331C80.2174 44.1744 80.417 38.0406 79.2522 32.0936C78.0874 26.1466 75.5886 20.5414 71.944 15.6998Z" fill="url(#paint3_radial_2507_6828)"/>
<path d="M71.944 15.6998C68.3832 10.977 63.8064 7.1149 58.5521 4.39894C53.2977 1.68298 47.5002 0.182639 41.588 0.00882635C32.3 -0.177174 25.884 2.61383 22.254 4.85783C27.111 2.04083 34.14 0.442826 40.294 0.521826C56.124 0.721826 73.126 11.5028 75.651 30.9348C78.551 53.2408 63.014 71.8578 41.158 71.9148C17.113 71.9758 2.48799 50.6858 6.31099 31.5628C6.38208 30.6252 6.5201 29.6938 6.72399 28.7758C7.19572 23.8747 8.62004 19.113 10.917 14.7578C8.14799 16.1908 4.62199 20.7228 2.88199 24.9208C0.349099 31.3259 -0.543925 38.2621 0.283992 45.0998C0.343992 45.6178 0.397992 46.1348 0.465992 46.6488C1.5029 52.6195 3.8808 58.2771 7.42067 63.1957C10.9606 68.1143 15.5702 72.1658 20.9024 75.0451C26.2347 77.9244 32.1507 79.5565 38.2051 79.8185C44.2594 80.0805 50.2943 78.9656 55.8554 76.5577C61.4165 74.1499 66.3589 70.5118 70.3104 65.9173C74.262 61.3229 77.1198 55.8919 78.6686 50.0331C80.2174 44.1744 80.417 38.0406 79.2522 32.0936C78.0874 26.1466 75.5886 20.5414 71.944 15.6998Z" fill="url(#paint4_radial_2507_6828)"/>
<path d="M75.651 30.9348C75.9649 33.3369 76.0653 35.762 75.951 38.1818C77.2777 37.9818 78.6067 37.8052 79.938 37.6518C79.5166 29.7022 76.7333 22.0589 71.944 15.6998C68.3832 10.977 63.8064 7.1149 58.5521 4.39894C53.2978 1.68298 47.5002 0.182639 41.588 0.00882635C32.3 -0.177174 25.884 2.61383 22.254 4.85783C27.111 2.04083 34.14 0.442826 40.294 0.521826C56.124 0.723826 73.126 11.4998 75.651 30.9348Z" fill="url(#paint5_linear_2507_6828)"/>
<path d="M76.624 29.8259C74.373 9.51792 56.262 0.389918 40.293 0.521918C34.138 0.571918 27.11 2.04092 22.253 4.85792C20.9678 5.62 19.7735 6.52582 18.693 7.55792C18.822 7.45092 19.207 7.13392 19.845 6.69592L19.908 6.65292L19.964 6.61492C22.321 5.02137 24.9178 3.81544 27.656 3.04292C31.9456 1.85725 36.3917 1.33686 40.839 1.49992C49.0932 1.99283 56.8676 5.54326 62.6455 11.4585C68.4234 17.3738 71.7902 25.2295 72.089 33.4929C72.456 46.6999 61.647 57.2299 49.187 57.8399C40.125 58.2839 31.587 53.8989 27.417 45.1269C26.4415 43.1291 25.7791 40.9931 25.453 38.7939C23.477 25.4439 32.442 14.0589 40.663 11.2399C36.228 7.36592 25.115 7.62892 16.844 13.7139C10.888 18.0959 7.02404 24.7629 5.74404 32.7139C4.82316 38.8147 5.63394 45.0514 8.08404 50.7139C10.629 56.7189 14.7878 61.9014 20.099 65.6864C25.4103 69.4715 31.6663 71.7112 38.173 72.1569C39.1657 72.2329 40.1604 72.2706 41.157 72.2699C67.619 72.2699 79.099 52.1829 76.624 29.8259Z" fill="url(#paint6_radial_2507_6828)"/>
<path d="M76.624 29.8259C74.373 9.51792 56.262 0.389918 40.293 0.521918C34.138 0.571918 27.11 2.04092 22.253 4.85792C20.9678 5.62 19.7735 6.52582 18.693 7.55792C18.822 7.45092 19.207 7.13392 19.845 6.69592L19.908 6.65292L19.964 6.61492C22.321 5.02137 24.9178 3.81544 27.656 3.04292C31.9456 1.85725 36.3917 1.33686 40.839 1.49992C49.0932 1.99283 56.8676 5.54326 62.6455 11.4585C68.4234 17.3738 71.7902 25.2295 72.089 33.4929C72.456 46.6999 61.647 57.2299 49.187 57.8399C40.125 58.2839 31.587 53.8989 27.417 45.1269C26.4415 43.1291 25.7791 40.9931 25.453 38.7939C23.477 25.4439 32.442 14.0589 40.663 11.2399C36.228 7.36592 25.115 7.62892 16.844 13.7139C10.888 18.0959 7.02404 24.7629 5.74404 32.7139C4.82316 38.8147 5.63394 45.0514 8.08404 50.7139C10.629 56.7189 14.7878 61.9014 20.099 65.6864C25.4103 69.4715 31.6663 71.7112 38.173 72.1569C39.1657 72.2329 40.1604 72.2706 41.157 72.2699C67.619 72.2699 79.099 52.1829 76.624 29.8259Z" fill="url(#paint7_radial_2507_6828)"/>
<path style="mix-blend-mode:multiply" opacity="0.53" d="M76.624 29.8259C74.373 9.51792 56.262 0.389918 40.293 0.521918C34.138 0.571918 27.11 2.04092 22.253 4.85792C20.9678 5.62 19.7735 6.52582 18.693 7.55792C18.822 7.45092 19.207 7.13392 19.845 6.69592L19.908 6.65292L19.964 6.61492C22.321 5.02137 24.9178 3.81544 27.656 3.04292C31.9456 1.85725 36.3917 1.33686 40.839 1.49992C49.0932 1.99283 56.8676 5.54326 62.6455 11.4585C68.4234 17.3738 71.7902 25.2295 72.089 33.4929C72.456 46.6999 61.647 57.2299 49.187 57.8399C40.125 58.2839 31.587 53.8989 27.417 45.1269C26.4415 43.1291 25.7791 40.9931 25.453 38.7939C23.477 25.4439 32.442 14.0589 40.663 11.2399C36.228 7.36592 25.115 7.62892 16.844 13.7139C10.888 18.0959 7.02404 24.7629 5.74404 32.7139C4.82316 38.8147 5.63394 45.0514 8.08404 50.7139C10.629 56.7189 14.7878 61.9014 20.099 65.6864C25.4103 69.4715 31.6663 71.7112 38.173 72.1569C39.1657 72.2329 40.1604 72.2706 41.157 72.2699C67.619 72.2699 79.099 52.1829 76.624 29.8259Z" fill="url(#paint8_radial_2507_6828)"/>
<path style="mix-blend-mode:multiply" opacity="0.53" d="M76.624 29.8259C74.373 9.51792 56.262 0.389918 40.293 0.521918C34.138 0.571918 27.11 2.04092 22.253 4.85792C20.9678 5.62 19.7735 6.52582 18.693 7.55792C18.822 7.45092 19.207 7.13392 19.845 6.69592L19.908 6.65292L19.964 6.61492C22.321 5.02137 24.9178 3.81544 27.656 3.04292C31.9456 1.85725 36.3917 1.33686 40.839 1.49992C49.0932 1.99283 56.8676 5.54326 62.6455 11.4585C68.4234 17.3738 71.7902 25.2295 72.089 33.4929C72.456 46.6999 61.647 57.2299 49.187 57.8399C40.125 58.2839 31.587 53.8989 27.417 45.1269C26.4415 43.1291 25.7791 40.9931 25.453 38.7939C23.477 25.4439 32.442 14.0589 40.663 11.2399C36.228 7.36592 25.115 7.62892 16.844 13.7139C10.888 18.0959 7.02404 24.7629 5.74404 32.7139C4.82316 38.8147 5.63394 45.0514 8.08404 50.7139C10.629 56.7189 14.7878 61.9014 20.099 65.6864C25.4103 69.4715 31.6663 71.7112 38.173 72.1569C39.1657 72.2329 40.1604 72.2706 41.157 72.2699C67.619 72.2699 79.099 52.1829 76.624 29.8259Z" fill="url(#paint9_radial_2507_6828)"/>
<path d="M49.1877 57.8397C66.2877 56.7997 73.6077 42.6397 74.0667 32.5947C74.7827 16.8997 65.4717 -0.0203092 40.8397 1.49969C36.3921 1.33761 31.946 1.85901 27.6567 3.04569C24.9307 3.851 22.3387 5.05467 19.9647 6.61769L19.9087 6.65569L19.8457 6.69869C19.463 6.96536 19.0887 7.24602 18.7227 7.54069C25.0984 3.97552 32.4652 2.59326 39.6997 3.60469C53.8417 5.46069 66.7717 16.4617 66.7717 30.9777C66.7717 42.1467 58.1407 50.6777 48.0337 50.0647C33.0187 49.1647 29.2337 33.7647 37.0447 27.1107C34.9387 26.6577 30.9807 27.5457 28.2247 31.6657C25.7517 35.3657 25.8917 41.0757 27.4177 45.1267C29.3197 49.2107 32.4236 52.6165 36.3141 54.8884C40.2046 57.1603 44.696 58.19 49.1877 57.8397Z" fill="url(#paint10_radial_2507_6828)"/>
<path d="M71.944 15.6996C70.8725 14.2968 69.7093 12.9666 68.462 11.7176C67.4715 10.6704 66.41 9.69272 65.285 8.7916C65.9324 9.35531 66.5496 9.95281 67.134 10.5816C69.3229 12.9174 70.9874 15.6941 72.016 18.7256C74.105 25.0546 73.969 32.9756 69.98 39.1966C67.7651 42.6826 64.6721 45.5244 61.0114 47.4368C57.3508 49.3492 53.2514 50.2648 49.125 50.0916C48.764 50.0916 48.4 50.0916 48.034 50.0646C33.019 49.1646 29.234 33.7646 37.046 27.1106C34.939 26.6576 30.981 27.5456 28.225 31.6656C25.752 35.3656 25.892 41.0756 27.418 45.1266C26.4428 43.1287 25.7807 40.9928 25.455 38.7936C23.478 25.4436 32.443 14.0586 40.664 11.2396C36.229 7.3656 25.116 7.6286 16.845 13.7136C11.9803 17.3499 8.43805 22.4771 6.75796 28.3136C7.2934 23.5774 8.70364 18.9819 10.917 14.7606C8.14796 16.1936 4.62196 20.7256 2.88196 24.9236C0.349565 31.3277 -0.543452 38.2629 0.283958 45.0996C0.343958 45.6176 0.397958 46.1346 0.465958 46.6486C1.50286 52.6192 3.88076 58.2768 7.42064 63.1955C10.9605 68.1141 15.5701 72.1656 20.9024 75.0449C26.2347 77.9242 32.1507 79.5563 38.205 79.8183C44.2594 80.0803 50.2943 78.9654 55.8554 76.5575C61.4165 74.1496 66.3588 70.5115 70.3104 65.9171C74.262 61.3227 77.1197 55.8917 78.6686 50.0329C80.2174 44.1742 80.4169 38.0404 79.2521 32.0934C78.0873 26.1464 75.5886 20.5411 71.944 15.6996Z" fill="url(#paint11_linear_2507_6828)"/>
<path d="M72.0173 18.7263C70.989 15.6948 69.3245 12.918 67.1353 10.5823C64.5339 7.8716 61.4499 5.66965 58.0413 4.08935C55.1957 2.68666 52.1951 1.62304 49.1013 0.92035C43.6477 -0.273416 38.004 -0.307486 32.5363 0.82035C26.8533 2.02035 21.8563 4.47935 18.6953 7.55335C21.2158 6.12943 23.9173 5.05301 26.7263 4.35335C32.1848 2.98168 37.9005 3.00461 43.3478 4.42003C48.7951 5.83546 53.799 8.59793 57.8993 12.4534C59.5612 14.0293 61.0159 15.8103 62.2283 17.7533C67.1233 25.7123 66.6603 35.7183 62.8433 41.6194C60.0083 46.0033 53.9363 50.1194 48.2713 50.0714C52.535 50.3932 56.8061 49.552 60.6294 47.6376C64.4527 45.7231 67.6848 42.8071 69.9813 39.2004C73.9703 32.9764 74.1063 25.0553 72.0173 18.7263Z" fill="url(#paint12_linear_2507_6828)"/>
<path d="M72.0173 18.7263C70.989 15.6948 69.3245 12.918 67.1353 10.5823C64.5339 7.8716 61.4499 5.66965 58.0413 4.08935C55.1957 2.68666 52.1951 1.62304 49.1013 0.92035C43.6477 -0.273416 38.004 -0.307486 32.5363 0.82035C26.8533 2.02035 21.8563 4.47935 18.6953 7.55335C21.2158 6.12943 23.9173 5.05301 26.7263 4.35335C32.1848 2.98168 37.9005 3.00461 43.3478 4.42003C48.7951 5.83546 53.799 8.59793 57.8993 12.4534C59.5612 14.0293 61.0159 15.8103 62.2283 17.7533C67.1233 25.7123 66.6603 35.7183 62.8433 41.6194C60.0083 46.0033 53.9363 50.1194 48.2713 50.0714C52.535 50.3932 56.8061 49.552 60.6294 47.6376C64.4527 45.7231 67.6848 42.8071 69.9813 39.2004C73.9703 32.9764 74.1063 25.0553 72.0173 18.7263Z" fill="url(#paint13_linear_2507_6828)"/>
</g>
</g>
<defs>
<radialGradient id="paint0_radial_2507_6828" cx="0" cy="0" r="1" gradientUnits="userSpaceOnUse" gradientTransform="translate(71.531 16.3848) scale(90.78 90.78)">
<stop stop-color="#FFF36E"/>
<stop offset="0.5" stop-color="#FC4055"/>
<stop offset="1" stop-color="#E31587"/>
</radialGradient>
<radialGradient id="paint1_radial_2507_6828" cx="0" cy="0" r="1" gradientUnits="userSpaceOnUse" gradientTransform="translate(6.62899 20.1398) scale(53.726 53.726)">
<stop offset="0.001" stop-color="#C60084"/>
<stop offset="1" stop-color="#FC4055" stop-opacity="0"/>
</radialGradient>
<radialGradient id="paint2_radial_2507_6828" cx="0" cy="0" r="1" gradientUnits="userSpaceOnUse" gradientTransform="translate(79.291 11.2188) scale(106.599 106.599)">
<stop stop-color="#FFDE67" stop-opacity="0.6"/>
<stop offset="0.093" stop-color="#FFD966" stop-opacity="0.581"/>
<stop offset="0.203" stop-color="#FFCA65" stop-opacity="0.525"/>
<stop offset="0.321" stop-color="#FEB262" stop-opacity="0.432"/>
<stop offset="0.446" stop-color="#FE8F5E" stop-opacity="0.302"/>
<stop offset="0.573" stop-color="#FD6459" stop-opacity="0.137"/>
<stop offset="0.664" stop-color="#FC4055" stop-opacity="0"/>
</radialGradient>
<radialGradient id="paint3_radial_2507_6828" cx="0" cy="0" r="1" gradientUnits="userSpaceOnUse" gradientTransform="translate(42.285 44.4038) scale(137.521 137.521)">
<stop offset="0.153" stop-color="#810220"/>
<stop offset="0.167" stop-color="#920B27" stop-opacity="0.861"/>
<stop offset="0.216" stop-color="#CB2740" stop-opacity="0.398"/>
<stop offset="0.253" stop-color="#EF394F" stop-opacity="0.11"/>
<stop offset="0.272" stop-color="#FC4055" stop-opacity="0"/>
</radialGradient>
<radialGradient id="paint4_radial_2507_6828" cx="0" cy="0" r="1" gradientUnits="userSpaceOnUse" gradientTransform="translate(31.878 42.6748) scale(137.521 137.521)">
<stop offset="0.113" stop-color="#810220"/>
<stop offset="0.133" stop-color="#920B27" stop-opacity="0.861"/>
<stop offset="0.204" stop-color="#CB2740" stop-opacity="0.398"/>
<stop offset="0.257" stop-color="#EF394F" stop-opacity="0.11"/>
<stop offset="0.284" stop-color="#FC4055" stop-opacity="0"/>
</radialGradient>
<linearGradient id="paint5_linear_2507_6828" x1="45.831" y1="7.78682" x2="69.389" y2="48.5908" gradientUnits="userSpaceOnUse">
<stop stop-color="#FFBD4F"/>
<stop offset="0.508" stop-color="#FF9640" stop-opacity="0"/>
</linearGradient>
<radialGradient id="paint6_radial_2507_6828" cx="0" cy="0" r="1" gradientUnits="userSpaceOnUse" gradientTransform="translate(69.4553 12.0913) scale(85.2196 85.3973)">
<stop stop-color="#FF9640"/>
<stop offset="0.8" stop-color="#FC4055"/>
</radialGradient>
<radialGradient id="paint7_radial_2507_6828" cx="0" cy="0" r="1" gradientUnits="userSpaceOnUse" gradientTransform="translate(69.4553 12.0913) scale(85.2196 85.3973)">
<stop offset="0.084" stop-color="#FFDE67"/>
<stop offset="0.147" stop-color="#FFDC66" stop-opacity="0.968"/>
<stop offset="0.246" stop-color="#FFD562" stop-opacity="0.879"/>
<stop offset="0.369" stop-color="#FFCB5D" stop-opacity="0.734"/>
<stop offset="0.511" stop-color="#FFBC55" stop-opacity="0.533"/>
<stop offset="0.667" stop-color="#FFAA4B" stop-opacity="0.28"/>
<stop offset="0.822" stop-color="#FF9640" stop-opacity="0"/>
</radialGradient>
<radialGradient id="paint8_radial_2507_6828" cx="0" cy="0" r="1" gradientUnits="userSpaceOnUse" gradientTransform="translate(49.9363 38.653) rotate(75.728) scale(41.8704 43.614)">
<stop offset="0.363" stop-color="#FC4055"/>
<stop offset="0.443" stop-color="#FD604D" stop-opacity="0.633"/>
<stop offset="0.545" stop-color="#FE8644" stop-opacity="0.181"/>
<stop offset="0.59" stop-color="#FF9640" stop-opacity="0"/>
</radialGradient>
<radialGradient id="paint9_radial_2507_6828" cx="0" cy="0" r="1" gradientUnits="userSpaceOnUse" gradientTransform="translate(42.736 42.0979) scale(41.79 41.79)">
<stop offset="0.216" stop-color="#FC4055" stop-opacity="0.8"/>
<stop offset="0.267" stop-color="#FD5251" stop-opacity="0.633"/>
<stop offset="0.41" stop-color="#FE8345" stop-opacity="0.181"/>
<stop offset="0.474" stop-color="#FF9640" stop-opacity="0"/>
</radialGradient>
<radialGradient id="paint10_radial_2507_6828" cx="0" cy="0" r="1" gradientUnits="userSpaceOnUse" gradientTransform="translate(86.4638 2.44458) scale(144.037 144.337)">
<stop offset="0.054" stop-color="#FFF36E"/>
<stop offset="0.457" stop-color="#FF9640"/>
<stop offset="0.639" stop-color="#FF9640"/>
</radialGradient>
<linearGradient id="paint11_linear_2507_6828" x1="59.052" y1="7.0826" x2="18.155" y2="77.9196" gradientUnits="userSpaceOnUse">
<stop stop-color="#FFF36E" stop-opacity="0.8"/>
<stop offset="0.094" stop-color="#FFF36E" stop-opacity="0.699"/>
<stop offset="0.752" stop-color="#FFF36E" stop-opacity="0"/>
</linearGradient>
<linearGradient id="paint12_linear_2507_6828" x1="40.5863" y1="-0.66965" x2="62.3013" y2="62.2034" gradientUnits="userSpaceOnUse">
<stop stop-color="#B833E1"/>
<stop offset="0.371" stop-color="#9059FF"/>
<stop offset="0.614" stop-color="#5B6DF8"/>
<stop offset="1" stop-color="#0090ED"/>
</linearGradient>
<linearGradient id="paint13_linear_2507_6828" x1="27.7113" y1="0.324349" x2="68.0723" y2="40.6853" gradientUnits="userSpaceOnUse">
<stop offset="0.805" stop-color="#722291" stop-opacity="0"/>
<stop offset="1" stop-color="#592ACB" stop-opacity="0.5"/>
</linearGradient>
<clipPath id="clip0_2507_6828">
<rect x="0.5" width="80" height="80" rx="16" fill="white"/>
</clipPath>
<clipPath id="clip1_2507_6828">
<rect width="80" height="80" rx="16" fill="white"/>
</clipPath>
</defs>
</svg>
