<svg width="159" height="34" viewBox="0 0 159 34" fill="none" xmlns="http://www.w3.org/2000/svg">
  <path d="M20.2237 28.2963C21.0194 28.2963 21.4968 28.9329 21.4968 29.5695C21.4968 30.3652 20.8603 30.8426 20.2237 30.8426C19.4279 30.8426 18.9505 30.2061 18.9505 29.5695C18.9505 28.9329 19.4279 28.2963 20.2237 28.2963ZM41.0719 20.1798C40.2762 20.1798 39.7987 19.5432 39.7987 18.9066C39.7987 18.2701 40.4353 17.6335 41.0719 17.6335C41.8676 17.6335 42.3451 18.2701 42.3451 18.9066C42.3451 19.5432 41.7085 20.1798 41.0719 20.1798ZM41.0719 14.7688C38.8438 14.7688 36.9341 16.6786 36.9341 18.9066C36.9341 19.3841 36.9341 19.8615 37.0932 20.1798L23.5658 27.3414C22.77 26.2274 21.4968 25.5908 20.2237 25.5908C18.6322 25.5908 17.1999 26.5457 16.5633 27.8189L4.46814 21.453C3.19497 20.8164 2.24009 18.5883 2.39924 16.6786C2.39924 15.7237 2.87668 14.928 3.35412 14.6097C3.67241 14.4505 4.14985 14.4505 4.46814 14.6097H4.62729C7.81023 16.3603 18.4731 21.7713 18.7913 22.0896C19.4279 22.4079 19.9054 22.567 21.0194 21.9304L42.8225 10.631C43.1408 10.4719 43.4591 10.1536 43.4591 9.67613C43.4591 9.03954 42.8225 8.72125 42.8225 8.72125C41.5493 8.08466 39.6396 7.28893 37.889 6.33405C33.9103 4.42429 29.4542 2.35538 27.3853 1.4005C25.6347 0.445618 24.3615 1.24135 24.0432 1.4005L23.5658 1.55965C14.6535 6.01575 2.71753 11.9042 2.08094 12.2225C0.80777 13.0182 0.171184 14.4505 0.0120374 16.2011C-0.147109 19.0658 1.28521 22.0896 3.51326 23.2036L16.4041 29.8878C16.7224 31.9567 18.4731 33.389 20.3828 33.389C22.6109 33.389 24.5206 31.6384 24.5206 29.4103L38.6847 21.7713C39.4804 22.4079 40.2762 22.567 41.231 22.567C43.4591 22.567 45.3689 20.6573 45.3689 18.4292C45.0506 16.5194 43.2999 14.7688 41.0719 14.7688Z" fill="#464646"/>
  <path d="M72.1058 25.5909C71.3101 26.3867 70.1961 27.1824 68.7637 27.6598C67.3314 28.1373 65.7399 28.4556 63.9893 28.4556C61.2838 28.4556 59.0558 27.6598 57.4643 25.9092C55.8729 24.3178 54.918 21.9306 54.918 19.0659V17.3153C54.918 15.2464 55.2363 13.4958 56.032 12.0635C56.8277 10.472 57.7826 9.35797 59.0558 8.56223C60.329 7.7665 61.9204 7.28906 63.671 7.28906C66.2174 7.28906 68.2863 7.92565 69.7186 9.03968C71.1509 10.1537 71.9467 11.9043 72.265 14.2915H67.4906C67.3314 13.1775 67.0131 12.3818 66.3765 11.9043C65.7399 11.4269 64.9442 11.1086 63.9893 11.1086C62.7162 11.1086 61.7613 11.586 61.1247 12.7001C60.4881 13.8141 60.1698 15.2464 60.0107 17.1562V18.4293C60.0107 20.4982 60.329 22.0897 61.1247 23.0446C61.7613 23.9995 62.8753 24.6361 64.4668 24.6361C65.7399 24.6361 66.6948 24.3178 67.3314 23.8403V20.6574H63.8302V17.3153H72.265V25.5909H72.1058Z" fill="#464646"/>
  <path d="M74.9677 28.1371H79.7421V12.859H74.9677V28.1371ZM74.8086 8.88036C74.8086 8.24378 75.1269 7.60719 75.6043 7.12975C76.0818 6.65231 76.7184 6.49316 77.5141 6.49316C78.3098 6.49316 78.9464 6.65231 79.4239 7.12975C79.9013 7.60719 80.2196 8.08463 80.2196 8.88036C80.2196 9.51695 79.9013 10.1535 79.4239 10.631C78.9464 11.1084 78.3098 11.2676 77.5141 11.2676C76.7184 11.2676 76.0818 11.1084 75.6043 10.631C74.9677 10.1535 74.8086 9.6761 74.8086 8.88036Z" fill="#464646"/>
  <path d="M88.3404 9.03906V12.8586H90.8868V16.2007H88.3404V23.2031C88.3404 23.8397 88.4996 24.158 88.6587 24.4763C88.8179 24.6354 89.2953 24.7946 89.9319 24.7946C90.4093 24.7946 90.7276 24.7946 91.0459 24.6354V27.9775C90.2502 28.2958 89.2953 28.455 88.3404 28.455C86.7489 28.455 85.4758 28.1367 84.68 27.3409C83.8843 26.5452 83.566 25.4312 83.566 23.8397V16.2007H81.6562V12.8586H83.566V9.03906H88.3404Z" fill="#464646"/>
  <path d="M97.8867 19.3843V24.3178H101.07C102.024 24.3178 102.661 24.1587 103.139 23.6812C103.616 23.2038 103.934 22.7264 103.934 21.9306C103.934 20.18 103.139 19.3843 101.388 19.3843H97.8867ZM97.8867 16.2013H100.433C101.547 16.2013 102.343 16.0422 102.82 15.5648C103.298 15.2465 103.457 14.6099 103.457 13.8141C103.457 13.0184 103.139 12.3818 102.661 11.9044C102.184 11.5861 101.388 11.2678 100.274 11.2678H97.8867V16.2013ZM92.9531 28.1373V7.60742H100.433C103.139 7.60742 105.048 8.08486 106.481 9.03974C107.913 9.99462 108.55 11.4269 108.55 13.3367C108.55 14.4507 108.231 15.2465 107.754 16.0422C107.276 16.8379 106.481 17.3154 105.526 17.6337C106.64 17.952 107.435 18.4294 108.072 19.2251C108.709 20.0209 108.868 20.9757 108.868 22.0898C108.868 24.1587 108.231 25.591 106.958 26.705C105.685 27.6599 103.775 28.2965 101.229 28.2965L92.9531 28.1373Z" fill="#464646"/>
  <path d="M115.552 20.6575C115.552 22.0898 115.711 23.0447 116.188 23.8404C116.666 24.477 117.302 24.7953 118.098 24.7953C119.849 24.7953 120.644 23.5221 120.644 20.8166V20.3392C120.644 17.6337 119.69 16.2014 117.939 16.2014C116.347 16.2014 115.552 17.3154 115.393 19.7026L115.552 20.6575ZM110.777 20.3392C110.777 18.7477 111.096 17.4746 111.732 16.2014C112.369 15.0874 113.165 14.1325 114.279 13.4959C115.393 12.8593 116.666 12.541 118.257 12.541C120.485 12.541 122.395 13.1776 123.668 14.6099C124.941 16.0422 125.578 17.952 125.578 20.3392V20.6575C125.578 23.0447 124.941 24.9545 123.509 26.3868C122.236 27.8191 120.326 28.4557 118.098 28.4557C115.87 28.4557 114.119 27.8191 112.846 26.5459C111.573 25.2728 110.777 23.5221 110.777 21.2941V20.3392Z" fill="#464646"/>
  <path d="M131.946 20.6575C131.946 22.0898 132.105 23.0447 132.583 23.8404C133.06 24.477 133.697 24.7953 134.493 24.7953C136.243 24.7953 137.039 23.5221 137.039 20.8166V20.3392C137.039 17.6337 136.084 16.2014 134.333 16.2014C132.742 16.2014 131.946 17.3154 131.787 19.7026L131.946 20.6575ZM127.172 20.3392C127.172 18.7477 127.49 17.4746 128.127 16.2014C128.763 15.0874 129.559 14.1325 130.673 13.4959C131.787 12.8593 133.06 12.541 134.652 12.541C136.88 12.541 138.79 13.1776 140.063 14.6099C141.336 16.0422 141.973 17.952 141.973 20.3392V20.6575C141.973 23.0447 141.336 24.9545 139.904 26.3868C138.63 27.8191 136.721 28.4557 134.493 28.4557C132.265 28.4557 130.514 27.8191 129.241 26.5459C127.968 25.2728 127.172 23.5221 127.172 21.2941V20.3392Z" fill="#464646"/>
  <path d="M150.246 22.567L148.813 23.8402V28.1371H144.039V6.49316H148.813V17.9517L149.291 17.3151L152.951 12.859H158.681L153.27 19.2249L158.999 28.1371H153.588L150.246 22.567Z" fill="#464646"/>
</svg>
  