<svg width="100" height="31" viewBox="0 0 100 31" fill="none" xmlns="http://www.w3.org/2000/svg">
  <path d="M99.9996 18.1741C99.6915 17.9593 99.7514 17.5978 99.6665 17.2997C99.0819 15.1011 98.0142 13.179 96.1821 11.8032C92.7976 9.27986 89.0483 8.89511 85.2175 10.5607C81.3866 12.2263 79.5228 15.4109 79.2629 19.5066C79.0597 22.6713 79.9292 25.5561 82.2344 27.8346C85.7321 31.2841 91.9848 31.7721 96.0322 28.9639C97.6975 27.8415 98.8851 26.1391 99.3634 24.1886C97.6411 24.1886 95.9905 24.1886 94.3383 24.1886C94.2559 24.177 94.1719 24.1862 94.0939 24.2153C94.016 24.2444 93.9465 24.2924 93.8919 24.3552C92.6827 25.9591 90.9388 26.0374 89.1682 25.9708C87.2028 25.8975 85.0692 24.4534 84.886 22.1732H99.993V21.6736C99.8529 21.2404 99.8529 20.7742 99.993 20.3411V20.1745C99.8529 19.7414 99.8529 19.2752 99.993 18.842L99.9996 18.1741ZM84.8094 18.1542C85.0276 16.1888 87.0863 14.4232 89.6146 14.4199C92.113 14.4199 94.2783 16.0688 94.4798 18.1542H84.8094Z" fill="#464646"/>
  <path d="M99.9987 20.1665C99.872 19.9674 99.8047 19.7362 99.8047 19.5002C99.8047 19.2642 99.872 19.0331 99.9987 18.834V20.1665Z" fill="#464646"/>
  <path d="M99.9993 21.6626C99.8722 21.4636 99.8047 21.2324 99.8047 20.9963C99.8047 20.7602 99.8722 20.529 99.9993 20.3301V21.6626Z" fill="#464646"/>
  <path d="M29.9093 10.7343C27.7657 10.7343 25.7453 10.7343 23.7316 10.7343C23.4085 10.7343 23.2519 10.6127 23.0937 10.3412C21.2165 7.12993 18.2851 5.95568 14.739 6.32211C10.9781 6.7102 8.29151 8.69559 7.03731 12.3299C5.6532 16.339 6.8008 20.5796 9.82052 23.0214C13.3383 25.8679 19.386 25.7513 22.5523 22.7715C23.3171 22.057 23.8742 21.1488 24.1646 20.1432H13.0518C12.8486 19.8534 13.0634 19.6785 13.1451 19.507C13.6264 18.4843 14.2493 17.5083 14.6041 16.4473C15.0688 15.0548 15.9016 14.755 17.3057 14.7917C21.5113 14.9016 25.7236 14.8416 29.9326 14.8183C30.4822 14.8183 30.6688 14.9216 30.7004 15.5162C30.947 20.2448 29.5195 24.3006 25.8702 27.4186C23.1503 29.7504 19.8874 30.7081 16.3563 30.7498C12.7353 30.7864 9.33917 29.9469 6.35109 27.8033C2.68678 25.1683 0.796324 21.509 0.413237 17.0769C0.123423 13.7274 0.724701 10.5177 2.50856 7.61794C4.87537 3.76709 8.3648 1.52686 12.792 0.767351C16.5795 0.119433 20.2488 0.530836 23.6366 2.43295C26.8829 4.26011 28.9199 7.05831 29.9093 10.7343Z" fill="#464646"/>
  <path d="M78.5071 1.62667C78.5771 1.16863 78.5771 0.930451 77.9791 0.947107C76.4018 0.992078 74.8228 0.98375 73.2455 0.947107C72.7458 0.935448 72.6009 1.11366 72.531 1.58503C72.2378 3.60706 71.8947 5.62077 71.5683 7.63781C71.3267 9.13685 71.0802 10.6359 70.8088 12.3015C70.315 11.558 69.6457 10.9476 68.86 10.5243C65.8619 8.80373 60.8102 9.60488 57.9553 12.2115C55.0089 14.9048 53.893 18.3343 54.0262 22.1918C54.1261 25.1432 55.2421 27.6699 57.7838 29.4022C60.8418 31.4875 65.5754 31.281 68.5652 27.7582C68.925 28.5011 69.2514 29.1673 69.5729 29.8352C69.6928 30.0851 69.7811 30.3149 70.1508 30.3116C72.2162 30.2949 74.2832 30.3116 76.4168 30.3116C75.9904 28.7376 75.6007 27.2435 75.1793 25.7595C75.0158 25.2081 74.976 24.6275 75.0627 24.0589C76.2175 16.5826 77.3657 9.1052 78.5071 1.62667ZM66.23 25.1932C62.8272 26.5024 59.8774 24.527 59.9008 20.881C59.9291 17.643 62.1576 15.0314 65.0724 14.8232C67.1761 14.6716 68.8717 15.7476 69.5529 17.7463C70.3624 20.0965 69.3763 23.9823 66.23 25.1932Z" fill="#464646"/>
  <path d="M31.7266 30.3052C32.3928 26.0646 33.059 21.879 33.7253 17.6917C34.5448 12.5095 35.3615 7.32723 36.1754 2.145C36.3603 0.964094 36.3419 0.962428 37.4979 0.962428C38.9103 0.962428 40.3294 0.974089 41.7335 0.954102C42.1998 0.954102 42.3214 1.02239 42.2331 1.55538C40.7474 10.7906 39.2867 20.0307 37.851 29.2759C37.7277 30.0754 37.5178 30.3719 36.6567 30.3286C35.0394 30.2469 33.4155 30.3052 31.7266 30.3052Z" fill="#464646"/>
  <path d="M45.8859 30.3108C45.1114 30.3108 44.3336 30.2708 43.5541 30.3224C42.9562 30.3624 42.8879 30.1558 42.9695 29.6195C43.5691 25.9685 44.1354 22.3126 44.7184 18.6582C45.1348 16.0383 45.5662 13.4216 45.9509 10.7966C46.0275 10.267 46.1574 10.0354 46.7504 10.0538C48.2994 10.0971 49.8534 10.0971 51.4024 10.0538C51.9754 10.0371 52.0187 10.2203 51.9387 10.7117C51.2392 15.0189 50.5629 19.3295 49.8801 23.6384C49.5653 25.6371 49.2288 27.6208 48.954 29.6195C48.8757 30.1842 48.6692 30.3557 48.1212 30.3224C47.3817 30.2758 46.6321 30.3108 45.8859 30.3108Z" fill="#464646"/>
  <path d="M53.6551 2.95115C53.6701 5.4712 51.225 7.3983 48.7866 6.79202C46.8794 6.31732 45.98 4.3769 46.8278 2.46147C47.519 0.904134 48.7599 0.0829962 50.4621 0.0213692C51.7946 -0.0252675 52.8123 0.506056 53.4219 1.73693C53.5937 2.11779 53.6736 2.53373 53.6551 2.95115Z" fill="#464646"/>
</svg>
  