<svg width="80" height="80" viewBox="0 0 80 80" fill="none" xmlns="http://www.w3.org/2000/svg">
<path fill-rule="evenodd" clip-rule="evenodd" d="M30.3911 59.375C30.3911 59.375 27.7058 60.9376 32.3042 61.4654C37.8767 62.1018 40.723 62.0102 46.8618 60.8489C46.8618 60.8489 48.478 61.8609 50.7341 62.7363C36.9685 68.6348 19.5804 62.3951 30.3911 59.375ZM28.7084 51.6777C28.7084 51.6777 25.6959 53.9075 30.2984 54.3835C36.2511 54.9982 40.9499 55.0484 49.0858 53.4829C49.0858 53.4829 50.2091 54.6232 51.977 55.2461C35.336 60.1134 16.8023 55.6293 28.7084 51.6777Z" fill="#3174B9"/>
<path fill-rule="evenodd" clip-rule="evenodd" d="M42.8876 38.619C46.281 42.5251 41.9981 46.0381 41.9981 46.0381C41.9981 46.0381 50.6105 41.5931 46.6548 36.0247C42.9616 30.8342 40.1287 28.2557 55.4632 19.3633C55.4626 19.3627 31.3921 25.3726 42.8876 38.619Z" fill="#CA3132"/>
<path fill-rule="evenodd" clip-rule="evenodd" d="M61.0925 65.0685C61.0925 65.0685 63.0802 66.7075 58.9029 67.9749C50.9595 70.3809 25.8356 71.1064 18.8569 68.0706C16.35 66.9787 21.0535 65.4652 22.5332 65.1455C24.0765 64.8119 24.9572 64.8726 24.9572 64.8726C22.1675 62.9081 6.92515 68.7308 17.2162 70.4013C45.278 74.9513 68.3704 68.3529 61.0925 65.0685ZM31.6828 43.7014C31.6828 43.7014 18.9047 46.7373 27.1584 47.8408C30.6446 48.3068 37.5889 48.1995 44.0625 47.6565C49.3515 47.2126 54.6603 46.2631 54.6603 46.2631C54.6603 46.2631 52.7968 47.0627 51.4465 47.9831C38.4684 51.3969 13.4011 49.807 20.6183 46.3173C26.7204 43.3654 31.6828 43.7014 31.6828 43.7014ZM54.6072 56.5139C67.7988 49.6606 61.6997 43.0732 57.4413 43.961C56.4002 44.1785 55.933 44.3663 55.933 44.3663C55.933 44.3663 56.3214 43.7586 57.0598 43.4973C65.4827 40.5372 71.9592 52.2298 54.3442 56.8603C54.3436 56.8603 54.5466 56.6772 54.6072 56.5139Z" fill="#3174B9"/>
<path fill-rule="evenodd" clip-rule="evenodd" d="M46.6535 5C46.6535 5 53.9577 12.3088 39.7238 23.5442C28.3088 32.5602 37.1213 37.6993 39.7203 43.5733C33.056 37.5616 28.1677 32.2686 31.4467 27.3435C36.261 20.114 49.6007 16.608 46.6535 5Z" fill="#CA3132"/>
<path fill-rule="evenodd" clip-rule="evenodd" d="M32.9815 75.09C45.6418 75.8995 65.087 74.6403 65.5484 68.6484C65.5484 68.6484 64.663 70.9197 55.0841 72.7213C44.2769 74.7558 30.9454 74.5189 23.041 73.2142C23.041 73.2142 24.6607 74.5545 32.9815 75.09Z" fill="#3174B9"/>
</svg>
