<svg width="80" height="80" viewBox="0 0 80 80" fill="none" xmlns="http://www.w3.org/2000/svg">
<g clip-path="url(#clip0_2509_7808)">
<path d="M70.6187 39.0638C70.6187 35.0896 67.397 31.868 63.4229 31.868C63.1672 31.868 62.9151 31.8816 62.6666 31.9076L72.55 2.75781H30.5489L40.4183 31.8825C40.2737 31.8737 40.1282 31.868 39.9811 31.868C36.007 31.868 32.7853 35.0896 32.7853 39.0638C32.7853 42.2761 34.8905 44.9957 37.7963 45.921C36.2615 48.5794 34.3305 50.9736 32.1381 53.0419C29.1568 55.8545 25.7448 57.987 22.0548 59.3011C17.6612 57.0442 15.5864 52.0244 17.4586 47.6234C17.67 47.1266 17.8857 46.6227 18.0921 46.1212C21.275 45.3782 23.6468 42.5246 23.6468 39.1154C23.6468 35.1413 20.4251 31.9196 16.451 31.9196C12.4766 31.9196 9.25492 35.1413 9.25492 39.1154C9.25492 41.5526 10.4676 43.7048 12.321 45.0066C10.5398 49.062 7.92191 53.3057 7.10625 58.2243C6.12871 64.1194 7.10324 70.3767 12.2015 73.9103C24.0752 82.1397 36.964 68.8088 50.5535 65.4576C55.4784 64.243 60.8846 64.4387 65.2237 61.9256C68.4823 60.0383 70.6304 56.9107 71.2402 53.3993C71.8423 49.9304 70.9643 46.4766 68.9452 43.6761C69.9895 42.427 70.6187 40.8192 70.6187 39.0638ZM47.1763 39.0892C47.1763 39.0807 47.1771 39.0722 47.1771 39.0638C47.1771 36.4541 45.7875 34.1687 43.7083 32.9073L51.5636 17.023L59.4326 33.0757C57.5002 34.3658 56.2268 36.5659 56.2268 39.0638C56.2268 39.1162 56.2298 39.1679 56.2309 39.2202L47.1763 39.0892Z" fill="#C63D14"/>
<path d="M72.3747 39.0633C72.3747 34.6924 69.2256 31.0453 65.0772 30.2663L75 1H28.0962L38.034 30.3256C34.03 31.2168 31.0266 34.795 31.0266 39.0633C31.0266 42.2688 32.7206 45.0844 35.2594 46.6665C34.0383 48.4857 32.5901 50.1977 30.9306 51.7631C28.2991 54.2459 25.367 56.1288 22.2061 57.3675C19.0224 55.3676 17.6766 51.5963 19.0744 48.3107L19.1838 48.0537C19.2521 47.8929 19.3208 47.7316 19.3891 47.5702C22.8858 46.351 25.4028 43.0224 25.4028 39.115C25.4028 34.1781 21.3863 30.1618 16.4494 30.1618C11.5125 30.1618 7.49622 34.1781 7.49622 39.115C7.49622 41.6068 8.52024 43.8632 10.1685 45.488C9.86966 46.1251 9.55548 46.7726 9.23255 47.436C7.72536 50.5316 6.0172 54.0403 5.37106 57.9365C4.08782 65.6745 6.15747 71.8602 11.1988 75.3542C14.2581 77.4745 17.3646 78.3084 20.4908 78.3082C26.3776 78.3079 32.3323 75.3507 38.1565 72.4577C42.3513 70.3744 46.6886 68.22 50.9731 67.1634C52.5672 66.7702 54.2076 66.5337 55.9442 66.2832C59.3878 65.7864 62.9491 65.2729 66.1034 63.446C69.7596 61.3282 72.2626 57.7757 72.9703 53.6996C73.5779 50.2004 72.8464 46.6961 71.0631 43.7238C71.8946 42.3653 72.3747 40.7696 72.3747 39.0633ZM68.86 39.0633C68.86 42.0621 66.4204 44.502 63.4213 44.502C60.4228 44.502 57.9829 42.0621 57.9829 39.0633C57.9829 36.0645 60.4228 33.6249 63.4213 33.6249C66.4204 33.6249 68.86 36.0645 68.86 39.0633ZM70.097 4.51477L61.3347 30.3582C60.9549 30.4492 60.5847 30.5641 60.2251 30.7021L51.5692 13.0441L42.8881 30.5977C42.5129 30.4684 42.1268 30.362 41.7309 30.2832L32.9986 4.51477H70.097ZM39.9798 33.6249C42.9786 33.6249 45.4182 36.0645 45.4182 39.0633C45.4182 42.0621 42.9786 44.502 39.9798 44.502C36.9813 44.502 34.5414 42.0621 34.5414 39.0633C34.5414 36.0645 36.9813 33.6249 39.9798 33.6249ZM16.4494 33.6766C19.4484 33.6766 21.8881 36.1162 21.8881 39.115C21.8881 42.1138 19.4484 44.5537 16.4494 44.5537C13.4509 44.5537 11.011 42.1138 11.011 39.115C11.011 36.1162 13.4509 33.6766 16.4494 33.6766ZM69.5072 53.0983C68.9781 56.1466 67.0952 58.8096 64.3417 60.4043C61.7749 61.891 58.699 62.3348 55.4424 62.8043C53.6979 63.0558 51.8937 63.3161 50.1314 63.7509C45.4715 64.8999 40.9579 67.1418 36.593 69.3099C27.858 73.6485 20.3142 77.3952 13.2012 72.4654C7.99087 68.8543 8.23149 62.1729 8.83853 58.5116C9.40099 55.1196 10.9218 51.9955 12.3927 48.9743C12.6472 48.4515 12.8944 47.9394 13.137 47.4305C13.8665 47.7223 14.6422 47.9211 15.4508 48.0113C13.9537 52.9526 16.3083 58.3251 21.2501 60.8639L21.9263 61.2115L22.6427 60.9564C26.5496 59.5651 30.1494 57.3322 33.3426 54.3198C35.4068 52.3726 37.1806 50.2182 38.6391 47.9161C39.0766 47.982 39.5242 48.0168 39.9798 48.0168C44.9167 48.0168 48.9332 44.0005 48.9332 39.0633C48.9332 36.4082 47.7703 34.0206 45.9284 32.3794L51.5552 21.0011L57.2392 32.5963C55.5337 34.2276 54.4681 36.5225 54.4681 39.0633C54.4681 44.0005 58.4844 48.0168 63.4213 48.0168C65.3181 48.0168 67.0777 47.4223 68.5269 46.4122C69.5332 48.472 69.9081 50.7897 69.5072 53.0983Z" fill="white"/>
</g>
<defs>
<clipPath id="clip0_2509_7808">
<rect width="70" height="77.3828" fill="white" transform="translate(5 1)"/>
</clipPath>
</defs>
</svg>
