<svg width="32" height="32" viewBox="0 0 32 32" fill="none" xmlns="http://www.w3.org/2000/svg">
  <path fill-rule="evenodd" clip-rule="evenodd" d="M4.00703 4H27.993C27.9969 4 28 4.00315 28 4.00703V27.993C28 27.9969 27.9969 28 27.993 28H4.00703C4.00315 28 4 27.9969 4 27.993V4.00703C4 4.00315 4.00315 4 4.00703 4ZM10.6562 12.2031C11.6141 12.2031 12.3906 11.4266 12.3906 10.4688C12.3906 9.51088 11.6141 8.73438 10.6562 8.73438C9.69838 8.73438 8.92188 9.51088 8.92188 10.4688C8.92188 11.4266 9.69838 12.2031 10.6562 12.2031ZM16.9844 14.3321V13.0938H13.8906V22.375H16.9844V16.7695C17.146 16.0035 17.7206 15.3438 18.625 15.3438C19.75 15.3438 20.1719 16.1875 20.1719 17.4531V22.375H23.2656V17.0781C23.2656 14.2188 21.7656 12.9062 19.7031 12.9062C18.1729 12.9062 17.3773 13.7273 16.9844 14.3321ZM9.10938 22.375V13.0938H12.2031V22.375H9.10938Z" fill="white"/>
</svg>
  