<svg viewBox="0 0 150 27" fill="none" xmlns="http://www.w3.org/2000/svg"><g clip-path="url(#clip0_2780_7575)" fill="#464646"><path d="m70.311 14.5978 2.7242-9.97939h7.8749V22.1702h-6.1167v-8.4496l-1.7088 7.1209h-5.5483l-1.7086-7.1209v8.4496h-6.116V4.61841h7.8753l2.724 9.97939ZM81.8525 5.08324c0-1.60467 1.1885-2.83324 3.0709-2.83324 1.8823 0 3.0709 1.22857 3.0709 2.83324 0 1.57986-1.1889 2.80879-3.0709 2.80879s-3.0709-1.22893-3.0709-2.80879Zm.2476 3.74792h5.6464V22.1706h-5.6464V8.83116ZM118.958 5.08324c0-1.60467 1.189-2.83324 3.071-2.83324 1.883 0 3.071 1.22857 3.071 2.83324 0 1.57986-1.189 2.80879-3.071 2.80879-1.882 0-3.071-1.22893-3.071-2.80879Zm.248 3.74792h5.647V22.1706h-5.647V8.83116ZM103.643 22.1704h-5.3988v-.7771c-.9227.7368-2.0691 1.1267-3.2438 1.1032-3.9626 0-6.1418-2.9086-6.1418-7.0208 0-4.087 2.1792-6.97033 6.1418-6.97033 1.078.00612 2.1267.35705 2.996 1.00262v-5.4389h5.6466V22.1704Zm-7.3304-9.177c-1.1144 0-1.8091 1.0531-1.8091 2.4831 0 1.5546.6931 2.4831 1.8091 2.4831 1.2134 0 1.8327-1.1031 1.8327-2.4831 0-1.5562-.7189-2.4831-1.8327-2.4831ZM118.005 13.6454v8.5249h-5.646v-7.8732c0-.7771-.347-1.1785-.916-1.1785-.644 0-.917.5769-.917 1.1785v7.8732h-5.646V8.83175h5.399v1.10358c.415-.45097.917-.81061 1.475-1.05649.558-.2459 1.16-.37278 1.769-.37274 2.897 0 4.482 2.0301 4.482 5.1393ZM127.39 6.0481h5.497v2.78397h2.055v4.16233h-2.055v3.9368c0 .7018.669.8776 1.238.8776.299 0 .597-.0252.892-.0753v4.3879c-.714.1736-1.446.2578-2.179.2507-3.592 0-5.598-1.7048-5.598-5.2919v-4.087h-1.188V8.83207h1.337l.001-2.78397ZM141.432 16.805c.198.8272 1.04 1.404 2.08 1.404.42.0073.837-.0735 1.225-.2374.388-.164.738-.4075 1.029-.7152l3.813 2.1062c-.739 1.0027-1.705 1.8108-2.817 2.3563-1.112.5455-2.337.8124-3.572.7782-4.68 0-7.355-3.2847-7.355-7.171 0-3.7858 2.848-6.84539 7.008-6.84539 4.483 0 7.058 2.83329 7.058 6.89549.005.4775-.019.9549-.074 1.4292l-8.395-.0004Zm2.897-2.8585c-.01-.3555-.16-.6922-.415-.9364-.255-.2441-.596-.3759-.947-.3662-.345.0041-.675.1411-.923.3831-.249.2421-.397.5709-.414.9195h2.699ZM39.1056 0l-4.2734 4.6654V0H24.3524L13.9579 11.4183 0 27h17.9154l3.829-4.0833v4.0716l10.9169-.0005 3.8289-4.0788v4.0793h13.0882V0H39.1056Z"/></g><defs><clipPath id="clip0_2780_7575"><path fill="#fff" d="M0 0h150v27H0z"/></clipPath></defs></svg>