<svg width="80" height="80" viewBox="0 0 80 80" fill="none" xmlns="http://www.w3.org/2000/svg">
<path fill-rule="evenodd" clip-rule="evenodd" d="M60.9815 58.7651C60.9815 61.9865 58.3701 64.5979 55.1487 64.5979C51.9274 64.5979 49.316 61.9865 49.316 58.7651C49.316 55.5438 51.9274 52.9324 55.1487 52.9324C58.3701 52.9324 60.9815 55.5438 60.9815 58.7651ZM60.765 68.9922C59.099 69.9091 57.1848 70.4307 55.1487 70.4307C48.7061 70.4307 43.4832 65.2078 43.4832 58.7651C43.4832 52.3224 48.7061 47.0996 55.1487 47.0996C61.5914 47.0996 66.8143 52.3224 66.8143 58.7651C66.8143 61.0551 66.1545 63.1909 65.0146 64.9929L69.8486 69.827L65.7243 73.9514L60.765 68.9922Z" fill="#F52357"/>
<path fill-rule="evenodd" clip-rule="evenodd" d="M10.0001 21.6181C10.0001 14.7271 10.0001 11.2816 12.1408 9.14078C14.2816 7 17.7271 7 24.6182 7H48.9819C55.873 7 59.3185 7 61.4593 9.14078C63.6001 11.2816 63.6001 14.7271 63.6001 21.6181V44.4166C61.1364 42.9914 58.276 42.1758 55.2252 42.1758C45.9744 42.1758 38.4752 49.675 38.4752 58.9258C38.4752 65.5551 42.3264 71.285 47.9136 74H24.6182C17.7271 74 14.2816 74 12.1408 71.8592C10.0001 69.7184 10.0001 66.2729 10.0001 59.3819V21.6181ZM23.4 18.3964H21.395V22.4063H23.4H36.8H38.8049V18.3964H36.8H23.4ZM23.4 28.5539H21.395L21.395 32.5638H23.4L43.5 32.5638H45.5049V28.5539H43.5L23.4 28.5539ZM23.4 38.0775H21.395V42.0874H23.4H33.45H35.4549V38.0775H33.45H23.4Z" fill="#F52357"/>
</svg>
