<svg width="80" height="80" viewBox="0 0 80 80" fill="none" xmlns="http://www.w3.org/2000/svg">
<path fill-rule="evenodd" clip-rule="evenodd" d="M18 21.6667C18 14.7527 18 11.2958 20.1479 9.14788C22.2958 7 25.7527 7 32.6667 7H48C54.9139 7 58.3709 7 60.5188 9.14788C62.6667 11.2958 62.6667 14.7527 62.6667 21.6667V59.3333C62.6667 66.2473 62.6667 69.7042 60.5188 71.8521C58.3709 74 54.9139 74 48 74H32.6667C25.7527 74 22.2958 74 20.1479 71.8521C18 69.7042 18 66.2473 18 59.3333V21.6667ZM30.8739 13.4372H32.8889H47.7778H49.7929V17.4673H47.7778H32.8889H30.8739V13.4372ZM40.3335 66.556C42.3893 66.556 44.0557 64.8895 44.0557 62.8338C44.0557 60.778 42.3893 59.1115 40.3335 59.1115C38.2778 59.1115 36.6113 60.778 36.6113 62.8338C36.6113 64.8895 38.2778 66.556 40.3335 66.556Z" fill="#F52357"/>
</svg>
