<svg width="80" height="80" viewBox="0 0 80 80" fill="none" xmlns="http://www.w3.org/2000/svg">
<path d="M37.177 2.80578C39.0497 1.73383 41.489 1.72899 43.3601 2.80578C52.7737 8.12492 62.1902 13.4357 71.6021 18.7581C73.3724 19.7553 74.5565 21.7254 74.5385 23.7652V55.7672C74.5516 57.8915 73.2505 59.9087 71.3829 60.8833C62.0002 66.1731 52.6225 71.4694 43.2415 76.7592C41.33 77.8521 38.8418 77.7679 36.99 76.5854C34.1771 74.9548 31.3594 73.3322 28.5462 71.7031C27.9713 71.3604 27.3233 71.0877 26.9174 70.5303C27.2763 70.0466 27.9178 69.9864 28.4391 69.7752C29.6133 69.4018 30.6917 68.8025 31.7704 68.2209C32.0432 68.0343 32.3762 68.1058 32.6376 68.2729C35.043 69.652 37.4271 71.0712 39.8406 72.4372C40.3554 72.7345 40.8767 72.3398 41.3168 72.0945C50.524 66.8908 59.7426 61.7067 68.9482 56.5013C69.2893 56.3372 69.4778 55.9751 69.4501 55.6015C69.4566 45.0447 69.4517 34.4861 69.4533 23.9293C69.4924 23.5054 69.247 23.1156 68.8637 22.9421C59.5136 17.6765 50.1684 12.4028 40.82 7.13582C40.658 7.02447 40.4661 6.96473 40.2696 6.96444C40.073 6.96415 39.881 7.02333 39.7187 7.13421C30.3703 12.4028 21.0267 17.6813 11.6782 22.9466C11.2962 23.1204 11.0399 23.5037 11.0853 23.9293C11.087 34.4861 11.0853 45.0447 11.0853 55.6031C11.0691 55.7854 11.1092 55.9683 11.2001 56.1272C11.291 56.286 11.4284 56.4132 11.5938 56.4916C14.0884 57.9063 16.5863 59.311 19.0826 60.7208C20.4889 61.4777 22.2156 61.9275 23.765 61.3475C25.1324 60.8572 26.0908 59.4619 26.0647 58.0101C26.0776 47.5149 26.0582 37.0181 26.0744 26.5246C26.0402 26.0587 26.4822 25.6737 26.9352 25.7176C28.1338 25.7095 29.3341 25.7014 30.5327 25.7208C31.0331 25.7095 31.3774 26.2112 31.3155 26.6806C31.3107 37.2422 31.3284 47.8041 31.3074 58.3657C31.3107 61.1805 30.1543 64.2433 27.5506 65.6206C24.3431 67.2822 20.3786 66.9298 17.2099 65.3365C14.4666 63.9673 11.8488 62.3514 9.15422 60.8846C7.28173 59.9154 5.98705 57.8901 6.00023 55.7675V23.7652C5.98059 21.6832 7.21179 19.6773 9.03721 18.6946C18.4182 13.4005 27.7976 8.10233 37.177 2.80578Z" fill="#8CC84B"/>
<path d="M45.3615 24.9735C49.453 24.7101 53.8331 24.8174 57.5148 26.833C60.3654 28.3776 61.9457 31.6193 61.996 34.7862C61.9164 35.2134 61.4699 35.449 61.0621 35.4197C59.875 35.4181 58.6876 35.4358 57.5006 35.4116C56.997 35.431 56.7043 34.9667 56.6411 34.5215C56.3 33.0062 55.4737 31.5055 54.0474 30.7746C51.8581 29.6785 49.3196 29.7336 46.9322 29.7565C45.1894 29.849 43.3153 29.9999 41.8388 31.0248C40.7052 31.8011 40.3609 33.3683 40.7655 34.6304C41.1469 35.5367 42.193 35.8291 43.049 36.0986C47.9797 37.3882 53.2047 37.2599 58.0412 38.957C60.0437 39.6488 62.0025 40.9938 62.6879 43.0904C63.5845 45.9003 63.1915 49.259 61.1923 51.5148C59.571 53.3712 57.2098 54.3815 54.8547 54.9303C51.7217 55.6289 48.4703 55.6466 45.2886 55.3365C42.2969 54.9954 39.1835 54.2094 36.8739 52.1709C34.8989 50.4561 33.9343 47.7841 34.0301 45.2052C34.0529 44.7697 34.4865 44.466 34.9038 44.5018C36.0992 44.4921 37.2946 44.4889 38.49 44.5034C38.9675 44.4693 39.3215 44.8819 39.346 45.3319C39.5665 46.7756 40.1091 48.2909 41.368 49.1468C43.7976 50.7143 46.8461 50.607 49.6281 50.6508C51.9329 50.5486 54.5201 50.5177 56.4009 48.9943C57.3932 48.1255 57.6872 46.6718 57.4191 45.4212C57.1285 44.3654 56.024 43.8734 55.0756 43.5517C50.2081 42.012 44.9247 42.5707 40.1043 40.8295C38.1473 40.1379 36.2549 38.8303 35.5031 36.8198C34.454 33.9744 34.9347 30.4548 37.1434 28.2751C39.297 26.107 42.4058 25.272 45.3615 24.9732V24.9735Z" fill="#8CC84B"/>
</svg>
