<svg width="80" height="80" viewBox="0 0 80 80" fill="none" xmlns="http://www.w3.org/2000/svg">
<g clip-path="url(#clip0_2507_7767)">
<path d="M26.3688 43.8596C23.3825 44.7071 21.4232 46.1931 20.1326 47.6779C21.3687 46.5961 23.0246 45.6033 25.2583 44.9701C27.5429 44.3226 29.4919 44.3273 31.1024 44.638V43.3787C29.7286 43.2531 28.1536 43.3532 26.3688 43.8596ZM19.9961 33.2731L8.90515 36.195C8.90515 36.195 9.10728 36.4805 9.48157 36.8615L18.8853 34.3836C18.8853 34.3836 18.752 36.1007 17.5948 37.6368C19.7838 35.9806 19.9961 33.2731 19.9961 33.2731ZM29.2799 59.3386C13.672 63.5424 5.41441 45.4545 2.91434 36.0662C1.75928 31.7326 1.25505 28.4505 1.12066 26.3325C1.10622 26.1126 1.1129 25.9272 1.12845 25.7573C0.318792 25.8062 -0.068839 26.2271 0.0100268 27.4433C0.144421 29.5601 0.648647 32.842 1.80371 37.177C4.30266 46.5639 12.5614 64.6518 28.1693 60.448C31.5666 59.5328 34.1189 57.8658 36.0348 55.7379C34.2689 57.3328 32.0586 58.5889 29.2799 59.3386ZM32.213 22.2031V23.3139H38.335C38.2094 22.9206 38.0828 22.5663 37.9572 22.2031H32.213Z" fill="#2D4552"/>
<path d="M39.7027 31.3513C42.456 32.1333 43.9121 34.0635 44.6817 35.7718L47.7515 36.6437C47.7515 36.6437 47.3327 30.6651 41.925 29.1291C36.8661 27.6917 33.7529 31.94 33.3742 32.4897C34.8459 31.4413 36.9949 30.5828 39.7027 31.3513ZM64.1391 35.7994C59.0755 34.3556 55.9635 38.6126 55.5904 39.1547C57.0632 38.1074 59.211 37.2488 61.9177 38.0207C64.6665 38.8038 66.1215 40.7318 66.8935 42.4412L69.9677 43.3163C69.9677 43.3163 69.5422 37.3366 64.1391 35.7994ZM61.0892 51.5628L35.5522 44.4236C35.5522 44.4236 35.8287 45.8253 36.8895 47.6401L58.3904 53.6509C60.1605 52.6268 61.0892 51.5628 61.0892 51.5628ZM43.3844 66.9297C23.1641 61.5085 25.6086 35.7452 28.8805 23.5368C30.2277 18.5057 31.6127 14.7662 32.7612 12.2595C32.0759 12.1184 31.5084 12.4794 30.9475 13.62C29.728 16.0934 28.1686 20.1206 26.6594 25.7582C23.3884 37.9663 20.9439 63.7287 41.1632 69.1499C50.6936 71.7031 58.1181 67.8226 63.6526 61.7284C58.3992 66.4866 51.692 69.1543 43.3844 66.9297Z" fill="#2D4552"/>
<path d="M32.2124 53.3014V48.1025L17.7675 52.1985C17.7675 52.1985 18.8349 45.9967 26.3683 43.8597C28.6529 43.2122 30.6022 43.2166 32.2124 43.5276V22.2033H39.445C38.6575 19.7699 37.8957 17.8964 37.2558 16.5946C36.1974 14.44 35.1124 15.8683 32.649 17.9286C30.9141 19.378 26.5294 22.47 19.9311 24.2481C13.3328 26.0272 7.99834 25.5554 5.77262 25.17C2.61727 24.6256 0.966863 23.9326 1.12126 26.3327C1.25563 28.4495 1.75988 31.7316 2.91494 36.0663C5.41387 45.4535 13.6726 63.5414 29.2805 59.3376C33.3575 58.2391 36.2352 56.0678 38.2299 53.3002H32.2124V53.3014ZM8.90352 36.1952L19.9955 33.2732C19.9955 33.2732 19.6722 37.5403 15.514 38.6365C11.3547 39.7315 8.90352 36.1952 8.90352 36.1952Z" fill="#E2574C"/>
<path d="M73.9584 22.45C71.0752 22.9555 64.158 23.5851 55.6096 21.2938C47.0588 19.0038 41.3855 14.9988 39.1377 13.1162C35.9513 10.4473 34.5497 8.59258 33.1703 11.3981C31.9508 13.8726 30.3913 17.8998 28.8819 23.5374C25.6112 35.7455 23.1666 61.5079 43.3857 66.9291C63.6007 72.3456 74.3626 48.8111 77.6336 36.6018C79.143 30.9653 79.8049 26.6971 79.9871 23.9451C80.1947 20.8275 78.0533 21.7325 73.9584 22.45ZM33.3346 32.5503C33.3346 32.5503 36.521 27.5945 41.9252 29.1305C47.333 30.6666 47.7517 36.6452 47.7517 36.6452L33.3346 32.5503ZM46.5267 54.7887C37.0208 52.0042 35.5548 44.424 35.5548 44.424L61.0906 51.5634C61.0906 51.5622 55.9361 57.5384 46.5267 54.7887ZM55.5551 39.2107C55.5551 39.2107 58.7371 34.2583 64.1404 35.7988C69.5435 37.3372 69.969 43.3157 69.969 43.3157L55.5551 39.2107Z" fill="#2EAD33"/>
<path d="M27.1657 49.5351L17.7687 52.1984C17.7687 52.1984 18.7894 46.3832 25.7119 44.0787L20.3909 24.1094L19.9311 24.2491C13.3327 26.0285 7.99834 25.5564 5.77262 25.171C2.61729 24.6269 0.966884 23.9337 1.12125 26.334C1.25565 28.4508 1.75988 31.7327 2.91494 36.0676C5.41389 45.4546 13.6726 63.5425 29.2805 59.3387L29.7403 59.1943L27.1657 49.5351ZM8.90463 36.1965L19.9966 33.2743C19.9966 33.2743 19.6733 37.5414 15.5152 38.6375C11.3558 39.7326 8.90463 36.1965 8.90463 36.1965Z" fill="#D65348"/>
<path d="M46.9554 54.893L46.5255 54.7885C37.0197 52.0042 35.5536 44.424 35.5536 44.424L48.7214 48.1047L55.6928 21.316L55.6084 21.2938C47.0576 19.0038 41.3845 14.9988 39.1365 13.1162C35.9501 10.4473 34.5485 8.59258 33.1691 11.3981C31.9508 13.8726 30.3913 17.8998 28.8819 23.5374C25.6112 35.7455 23.1666 61.5079 43.3857 66.9289L43.8001 67.0223L46.9554 54.893ZM33.3346 32.5503C33.3346 32.5503 36.521 27.5945 41.9252 29.1305C47.333 30.6666 47.7517 36.6452 47.7517 36.6452L33.3346 32.5503Z" fill="#1D8D22"/>
<path d="M27.6429 49.3984L25.1228 50.1136C25.7181 53.4698 26.7675 56.6908 28.4146 59.5362C28.7013 59.473 28.9856 59.4185 29.2776 59.3385C30.0429 59.1321 30.7525 58.8764 31.4357 58.5976C29.5954 55.8666 28.378 52.7213 27.6429 49.3984ZM26.6588 25.7595C25.3638 30.593 24.2053 37.55 24.5241 44.5281C25.095 44.2804 25.698 44.0495 26.3677 43.8595L26.8343 43.7552C26.2655 36.3015 27.495 28.706 28.88 23.5382C29.2311 22.2308 29.5831 21.0148 29.934 19.8809C29.3687 20.2405 28.7601 20.6093 28.067 20.9891C27.5995 22.432 27.1274 24.0091 26.6588 25.7595Z" fill="#C04B41"/>
</g>
<defs>
<clipPath id="clip0_2507_7767">
<rect width="80" height="80" fill="white"/>
</clipPath>
</defs>
</svg>
