<svg width="81" height="80" viewBox="0 0 81 80" fill="none" xmlns="http://www.w3.org/2000/svg">
<g clip-path="url(#clip0_2507_7691)">
<path d="M39.9422 3.3252C21.2633 3.3252 22.4297 11.4255 22.4297 11.4255L22.4505 19.8173H40.2754V22.3369H15.3706C15.3706 22.3369 3.41797 20.9814 3.41797 39.8286C3.41797 58.6758 13.8505 58.0074 13.8505 58.0074H20.0767V49.2616C20.0767 49.2616 19.7411 38.8291 30.3426 38.8291C40.9441 38.8291 48.0217 38.8291 48.0217 38.8291C48.0217 38.8291 57.9544 38.9896 57.9544 29.2295C57.9544 19.4693 57.9544 13.0914 57.9544 13.0914C57.9544 13.0914 59.4625 3.3252 39.9422 3.3252ZM30.1135 8.96833C31.887 8.96833 33.3203 10.4017 33.3203 12.1751C33.3203 13.9486 31.887 15.3819 30.1135 15.3819C28.3401 15.3819 26.9067 13.9486 26.9067 12.1751C26.9067 10.4017 28.3401 8.96833 30.1135 8.96833Z" fill="url(#paint0_linear_2507_7691)"/>
<path d="M40.4709 76.5211C59.1498 76.5211 57.9833 68.4208 57.9833 68.4208L57.9625 60.029H40.1377V57.5093H65.0425C65.0425 57.5093 76.9951 58.8649 76.9951 40.0177C76.9951 21.1705 66.5626 21.8389 66.5626 21.8389H60.3364V30.5847C60.3364 30.5847 60.672 41.0172 50.0705 41.0172C39.4689 41.0172 32.3914 41.0172 32.3914 41.0172C32.3914 41.0172 22.4587 40.8566 22.4587 50.6168C22.4587 60.3769 22.4587 66.7549 22.4587 66.7549C22.4587 66.7549 20.9506 76.5211 40.4709 76.5211ZM50.2995 70.8779C48.5261 70.8779 47.0927 69.4446 47.0927 67.6711C47.0927 65.8977 48.5261 64.4643 50.2995 64.4643C52.073 64.4643 53.5063 65.8977 53.5063 67.6711C53.5063 69.4446 52.073 70.8779 50.2995 70.8779Z" fill="url(#paint1_linear_2507_7691)"/>
</g>
<defs>
<linearGradient id="paint0_linear_2507_7691" x1="10.489" y1="9.72315" x2="46.8717" y2="46.2275" gradientUnits="userSpaceOnUse">
<stop stop-color="#387EB8"/>
<stop offset="1" stop-color="#366994"/>
</linearGradient>
<linearGradient id="paint1_linear_2507_7691" x1="32.8683" y1="32.9457" x2="71.9434" y2="70.3816" gradientUnits="userSpaceOnUse">
<stop stop-color="#FFE052"/>
<stop offset="1" stop-color="#FFC331"/>
</linearGradient>
<clipPath id="clip0_2507_7691">
<rect width="80" height="80" fill="white" transform="translate(0.5)"/>
</clipPath>
</defs>
</svg>
