<svg width="101" height="37" viewBox="0 0 101 37" fill="none" xmlns="http://www.w3.org/2000/svg">
  <path d="M36.3086 16.3271L36.3925 17.9775C36.3894 17.4264 36.3614 16.8757 36.3086 16.3271Z" fill="#464646"/>
  <path d="M9.64001 16.2335C9.64001 16.2335 4.64049 34.6522 24.6773 34.8136C27.8206 33.6464 30.5748 31.6234 32.6288 28.9732C34.6828 26.323 35.9547 23.1512 36.3008 19.8161C36.3493 19.3373 36.3654 18.85 36.3762 18.3605L36.3955 17.9775C36.3955 17.4202 36.3611 16.8715 36.3116 16.3271C31.0184 37.1665 7.5991 29.005 9.63032 16.2324L9.64001 16.2335Z" fill="#464646"/>
  <path d="M20.0053 9.39417C20.0053 9.39417 1.34989 4.18595 1.63607 24.5283C2.59359 26.9866 4.07612 29.2061 5.98254 31.0286L6.22676 31.2513C6.76637 31.7489 7.33583 32.2131 7.93199 32.6413L8.20418 32.8457C8.83451 33.2768 9.49177 33.667 10.1719 34.0141L10.7744 34.3046C11.3597 34.58 11.96 34.8242 12.5711 35.034L13.0176 35.1975C13.7513 35.4235 14.498 35.5988 15.2554 35.7279C15.4853 35.7675 15.7159 35.8027 15.9471 35.8334C16.7319 35.9467 17.5233 36.0082 18.3162 36.0174C18.3463 36.0174 18.3764 36.0217 18.4065 36.0217C19.0047 36.0217 19.5943 35.9894 20.1774 35.9324C-0.758789 30.9382 7.20256 7.52971 20.0053 9.39848V9.39417Z" fill="#464646"/>
  <path d="M27.2755 19.042C27.2755 19.042 31.6898 0.43288 11.8208 1.26452C8.06086 2.71778 4.90574 5.40458 2.87206 8.885C0.838374 12.3654 0.0466461 16.4332 0.62651 20.4223C4.80837 -0.632218 28.63 6.17473 27.2755 19.042ZM17.7359 27.0507C17.7359 27.0507 36.4257 29.4907 35.2551 11.7219C33.7975 7.74903 30.9781 4.42194 27.2983 2.33224C23.6185 0.242535 19.3167 -0.474317 15.1581 0.309157C35.9835 2.8654 30.5709 27.2325 17.7359 27.0507ZM23.6068 17.9769C23.6068 18.9728 23.3115 19.9463 22.7582 20.7743C22.2049 21.6023 21.4185 22.2477 20.4984 22.6287C19.5783 23.0098 18.5659 23.1094 17.5891 22.9151C16.6124 22.7207 15.7153 22.2411 15.0111 21.5368C14.307 20.8325 13.8276 19.9353 13.6334 18.9585C13.4393 17.9818 13.5391 16.9693 13.9204 16.0493C14.3016 15.1293 14.9472 14.343 15.7753 13.7899C16.6034 13.2368 17.577 12.9417 18.5729 12.9419C19.2341 12.942 19.8888 13.0724 20.4996 13.3256C21.1105 13.5787 21.6654 13.9497 22.1329 14.4174C22.6003 14.885 22.9711 15.4401 23.224 16.0511C23.4769 16.662 23.607 17.3168 23.6068 17.978V17.9769ZM83.7441 17.8499H85.8011V19.907H83.7441V17.8499ZM85.941 20.0533H87.9851V22.1103H85.941V20.0533ZM83.7441 22.2373H85.8011V24.2943H83.7441V22.2373ZM50.1601 11.7993V13.61H49.9417C49.3234 13.5982 48.7112 13.7346 48.1564 14.0079C47.6016 14.2812 47.1204 14.6833 46.7528 15.1807C45.9708 16.2062 45.5617 17.4676 45.5931 18.7569V24.0716H43.7813V11.993H45.5931V14.9645C45.8969 14.0301 46.493 13.2181 47.2934 12.6482C48.0938 12.0783 49.0561 11.7807 50.0385 11.7993H50.1601ZM57.1919 22.6354C58.8186 22.6354 59.9862 21.959 60.6949 20.6063H62.6766C62.2838 21.6666 61.5912 22.5899 60.683 23.2637C59.7722 23.94 58.6002 24.2782 57.1671 24.2782C55.3468 24.2782 53.865 23.6743 52.7217 22.4665C51.61 21.2902 51.0541 19.8198 51.0541 18.0554C51.0541 16.2674 51.5856 14.797 52.6485 13.6444C53.776 12.4366 55.2417 11.8327 57.0456 11.8327C58.8494 11.8327 60.3151 12.4366 61.4426 13.6444C62.5056 14.8042 63.037 16.2745 63.037 18.0554V18.7806H52.924C53.0215 19.8285 53.4932 20.8062 54.2526 21.5348C54.6461 21.9058 55.1092 22.195 55.6152 22.3858C56.1212 22.5766 56.6601 22.665 57.2005 22.6461L57.1919 22.6354ZM57.0466 13.454C56.0133 13.4255 55.009 13.7979 54.244 14.4933C53.5227 15.1778 53.0614 16.0916 52.939 17.0786H61.1543C61.0319 16.0916 60.5706 15.1778 59.8493 14.4933C59.0846 13.7981 58.0807 13.4257 57.0477 13.454H57.0466ZM67.0736 13.9274C68.0398 12.5101 69.4814 11.8015 71.3986 11.8015C73.1379 11.8015 74.5473 12.4054 75.6267 13.6132C76.7054 14.8053 77.2452 16.2756 77.2459 18.0242C77.2459 19.78 76.7062 21.2504 75.6267 22.4352C74.5473 23.6431 73.0977 24.247 71.2781 24.247C69.4585 24.247 68.0573 23.5298 67.0747 22.0953V28.8366H65.2608V11.993H67.0726L67.0736 13.9274ZM71.1565 13.4432C69.8512 13.4432 68.8201 13.8944 68.0634 14.7967C67.3462 15.6573 66.9876 16.7332 66.9876 18.0242C66.9876 19.3296 67.3462 20.4055 68.0634 21.2518C68.8201 22.1742 69.8512 22.6354 71.1565 22.6354C71.7474 22.655 72.3352 22.5439 72.8781 22.3099C73.421 22.0759 73.9055 21.7249 74.297 21.2819C75.0699 20.3845 75.4757 19.2283 75.4331 18.0447C75.4757 16.861 75.0699 15.7049 74.297 14.8074C73.9055 14.3644 73.421 14.0134 72.8781 13.7794C72.3352 13.5455 71.7474 13.4343 71.1565 13.454V13.4432ZM81.4256 24.0749H79.6128V7.16237H81.4245L81.4256 24.0749ZM91.5967 7.59594V9.96283H89.6387V7.59594H91.5967ZM89.7118 11.993H91.5236V24.0749H89.7118V11.993ZM95.969 24.0749V13.5982H93.4946V12.0037H95.969V7.67878H97.7808V12.0037H100.559V13.5982H97.7808V24.0835L95.969 24.0749Z" fill="#464646"/>
</svg>
  