<svg width="81" height="80" viewBox="0 0 81 80" fill="none" xmlns="http://www.w3.org/2000/svg">
<g clip-path="url(#clip0_2507_6846)">
<g opacity="0.53" filter="url(#filter0_f_2507_6846)">
<path d="M74.6837 43.2246C74.6837 47.5696 73.795 51.8721 72.0682 55.8864C70.3414 59.9006 67.8104 63.5481 64.6198 66.6205C61.4291 69.6929 57.6413 72.1301 53.4725 73.7928C49.3037 75.4556 44.8356 76.3114 40.3233 76.3114C35.811 76.3114 31.3429 75.4556 27.1741 73.7928C23.0053 72.1301 19.2175 69.6929 16.0268 66.6205C12.8362 63.5481 10.3052 59.9006 8.57842 55.8864C6.85165 51.8721 5.96289 47.5696 5.96289 43.2246C5.96289 34.4494 9.583 26.0336 16.0268 19.8286C22.4707 13.6236 31.2104 10.1377 40.3233 10.1377C44.8356 10.1377 49.3037 10.9935 53.4725 12.6563C57.6413 14.3191 61.4291 16.7562 64.6198 19.8286C67.8104 22.901 70.3414 26.5485 72.0682 30.5628C73.795 34.577 74.6837 38.8795 74.6837 43.2246Z" fill="black"/>
</g>
<path d="M75.9941 40.3037C75.9941 44.9878 75.0715 49.6261 73.279 53.9536C71.4864 58.2812 68.8591 62.2133 65.5469 65.5255C62.2348 68.8376 58.3026 71.465 53.9751 73.2575C49.6475 75.05 45.0093 75.9726 40.3252 75.9726C30.8652 75.9726 21.7927 72.2147 15.1034 65.5255C8.41421 58.8362 4.65625 49.7637 4.65625 40.3037C4.65625 30.8437 8.41421 21.7712 15.1034 15.082C21.7927 8.39274 30.8652 4.63477 40.3252 4.63477C45.0093 4.63477 49.6475 5.55737 53.9751 7.34991C58.3026 9.14244 62.2348 11.7698 65.5469 15.082C68.8591 18.3941 71.4864 22.3262 73.279 26.6538C75.0715 30.9813 75.9941 35.6196 75.9941 40.3037Z" fill="url(#paint0_linear_2507_6846)" stroke="#CDCDCD" stroke-width="0.10591" stroke-linecap="round" stroke-linejoin="round"/>
<path d="M73.197 40.3046C73.197 49.0233 69.7335 57.3849 63.5684 63.55C57.4034 69.7151 49.0418 73.1786 40.3231 73.1786C31.6043 73.1786 23.2427 69.7151 17.0777 63.55C10.9126 57.3849 7.4491 49.0233 7.4491 40.3046C7.4491 31.5859 10.9126 23.2243 17.0777 17.0592C23.2427 10.8942 31.6043 7.43066 40.3231 7.43066C49.0418 7.43066 57.4034 10.8942 63.5684 17.0592C69.7335 23.2243 73.197 31.5859 73.197 40.3046Z" fill="url(#paint1_radial_2507_6846)"/>
<path d="M40.3287 9.14355C40.0632 9.14355 39.8494 9.3573 39.8494 9.62284V15.1513C39.8494 15.4168 40.0632 15.6305 40.3287 15.6305C40.5943 15.6305 40.808 15.4168 40.808 15.1513V9.62284C40.808 9.3573 40.5943 9.14355 40.3287 9.14355ZM37.1932 9.34173C37.1615 9.33831 37.1288 9.33832 37.0958 9.34213C36.8317 9.36969 36.6413 9.60446 36.6688 9.86857L36.9104 12.1814C36.938 12.4455 37.1728 12.636 37.4369 12.6084C37.701 12.5808 37.8914 12.346 37.8638 12.0819L37.6224 9.7691C37.5983 9.538 37.4155 9.36331 37.1932 9.34173H37.1932ZM43.4862 9.34401C43.2639 9.36541 43.0811 9.54009 43.0567 9.77115L42.8135 12.0838C42.7857 12.3479 42.9762 12.5829 43.2403 12.6107C43.5043 12.6385 43.7391 12.4482 43.7669 12.1841L44.0102 9.87128C44.0379 9.6072 43.8475 9.37238 43.5834 9.34461C43.5504 9.3412 43.5179 9.3412 43.4862 9.34402V9.34401ZM33.9723 9.8088C33.9404 9.80905 33.908 9.81222 33.8755 9.81905C33.6157 9.87404 33.4509 10.1275 33.5059 10.3873L34.6508 15.7957C34.7058 16.0555 34.9593 16.2204 35.219 16.1654C35.4788 16.1104 35.6437 15.8571 35.5887 15.5974L34.4437 10.1887C34.3956 9.9614 34.1956 9.80676 33.9723 9.8085L33.9723 9.8088ZM46.7069 9.81337C46.4836 9.81109 46.2836 9.96587 46.2353 10.1931L45.0864 15.601C45.0312 15.8607 45.196 16.1142 45.4557 16.1694C45.7154 16.2246 45.9689 16.0599 46.0241 15.8002L47.173 10.3923C47.2282 10.1326 47.0634 9.87906 46.8037 9.82389C46.7713 9.81706 46.7388 9.81364 46.707 9.81364L46.7069 9.81337ZM30.8984 10.6755C30.8363 10.6698 30.7723 10.6767 30.7091 10.6976C30.4566 10.7797 30.3193 11.0489 30.4013 11.3014L31.12 13.5131C31.2021 13.7657 31.4714 13.903 31.724 13.8209C31.9765 13.7388 32.1136 13.4694 32.0316 13.2169L31.313 11.0052C31.2515 10.8158 31.0846 10.6913 30.8984 10.6755V10.6755ZM49.7634 10.6767C49.5773 10.6925 49.4104 10.817 49.3489 11.0064L48.6298 13.2179C48.5477 13.4704 48.685 13.7398 48.9374 13.8219C49.19 13.904 49.4594 13.7668 49.5415 13.5143L50.2605 11.3026C50.3426 11.0501 50.2054 10.7807 49.9529 10.6986C49.8898 10.6781 49.8255 10.6714 49.7634 10.6766V10.6767ZM27.8587 11.7879C27.7964 11.789 27.7334 11.8027 27.6727 11.8297C27.4302 11.9375 27.3216 12.2196 27.4294 12.4622L29.6749 17.5141C29.7827 17.7567 30.0648 17.8652 30.3074 17.7573C30.5499 17.6495 30.6588 17.3674 30.5509 17.1248L28.3053 12.0729C28.2244 11.8909 28.0455 11.7843 27.8587 11.7879ZM52.8375 11.8049C52.6507 11.8014 52.4716 11.9074 52.3905 12.0893L50.1382 17.138C50.0301 17.3805 50.1382 17.6628 50.3807 17.771C50.6232 17.8792 50.9055 17.771 51.0137 17.5286L53.2659 12.4798C53.3741 12.2373 53.266 11.955 53.0235 11.8468C52.9629 11.8199 52.8998 11.8062 52.8375 11.8048V11.8049ZM25.0372 13.2808C24.9452 13.2739 24.8503 13.2944 24.7641 13.3443C24.5341 13.4771 24.4559 13.7691 24.5887 13.999L25.7514 16.013C25.8842 16.2429 26.1762 16.3211 26.4061 16.1884C26.6361 16.0556 26.7143 15.7636 26.5816 15.5337L25.4188 13.5197C25.3358 13.376 25.1905 13.2915 25.0372 13.2808V13.2808ZM55.6203 13.2808C55.467 13.291 55.3219 13.376 55.2389 13.5197L54.0759 15.5336C53.9432 15.7636 54.0216 16.0556 54.2516 16.1883C54.4816 16.3211 54.7735 16.2429 54.9063 16.0129L56.069 13.999C56.2018 13.769 56.1236 13.477 55.8936 13.3443C55.8074 13.2945 55.7124 13.2744 55.6203 13.2807V13.2808ZM22.2973 14.9896C22.2051 14.993 22.1128 15.0226 22.0322 15.081C21.8173 15.237 21.7697 15.5355 21.9257 15.7504L25.1719 20.2253C25.3278 20.4403 25.6265 20.4878 25.8415 20.3319C26.0564 20.176 26.1039 19.8774 25.9479 19.6625L22.7016 15.1876C22.6041 15.0533 22.451 14.9844 22.2973 14.9896V14.9896ZM58.3945 15.014C58.2408 15.0083 58.0877 15.0772 57.9901 15.2113L54.7377 19.6819C54.5815 19.8966 54.6286 20.1953 54.8434 20.3515C55.0581 20.5077 55.3567 20.4607 55.513 20.246L58.7651 15.7755C58.9214 15.5607 58.8741 15.2621 58.6595 15.1059C58.579 15.0473 58.4867 15.0173 58.3945 15.014ZM19.8484 17.0434C19.7261 17.0366 19.6012 17.0775 19.5025 17.1663C19.3052 17.3439 19.2893 17.6458 19.467 17.8431L21.023 19.5716C21.2006 19.769 21.5024 19.7848 21.6998 19.6071C21.8972 19.4295 21.913 19.1275 21.7353 18.9301L20.1796 17.2018C20.0908 17.1031 19.9707 17.0498 19.8484 17.0434V17.0434ZM60.8126 17.0468C60.6903 17.0537 60.5703 17.1066 60.4815 17.2053L58.9255 18.9334C58.7478 19.1307 58.7635 19.4327 58.9609 19.6104C59.1582 19.7881 59.4601 19.7721 59.6377 19.5749L61.1939 17.8468C61.3716 17.6495 61.3556 17.3474 61.1584 17.1698C61.0596 17.081 60.9351 17.0405 60.8127 17.0469L60.8126 17.0468ZM17.5012 19.298C17.3789 19.3049 17.259 19.3578 17.1702 19.4565C16.9926 19.6539 17.0085 19.9557 17.2058 20.1333L21.3145 23.8321C21.5119 24.0098 21.8137 23.9939 21.9913 23.7966C22.169 23.5992 22.1533 23.2974 21.9559 23.1197L17.847 19.421C17.7482 19.3322 17.6235 19.2917 17.5011 19.2981L17.5012 19.298ZM63.1712 19.3142C63.0488 19.3074 62.9239 19.3481 62.8251 19.4369L58.7139 23.1328C58.5164 23.3103 58.5002 23.6121 58.6777 23.8096C58.8552 24.0071 59.1572 24.0231 59.3547 23.8456L63.4661 20.1497C63.6636 19.9722 63.6797 19.6703 63.5021 19.4729C63.4133 19.3741 63.2935 19.3207 63.1712 19.3142H63.1712ZM15.5493 21.8079C15.3957 21.8022 15.2425 21.8714 15.1449 22.0056C14.9888 22.2204 15.0362 22.5189 15.2511 22.675L17.1324 24.0419C17.3472 24.198 17.6457 24.1509 17.8018 23.936C17.9578 23.7212 17.9106 23.4225 17.6959 23.2664L15.8145 21.8995C15.734 21.841 15.6415 21.8112 15.5493 21.8078L15.5493 21.8079ZM65.1212 21.8253C65.029 21.8287 64.9366 21.8582 64.856 21.9167L62.9739 23.2824C62.7589 23.4383 62.7114 23.7371 62.8673 23.952C63.0232 24.1669 63.3217 24.2142 63.5367 24.0583L65.4191 22.6927C65.634 22.5367 65.6813 22.2382 65.5254 22.0233C65.428 21.889 65.2749 21.8201 65.1212 21.8253V21.8253ZM13.7253 24.485C13.5719 24.4953 13.4268 24.5802 13.3438 24.724C13.2111 24.9539 13.2893 25.2459 13.5192 25.3787L18.3069 28.1429C18.5369 28.2756 18.8289 28.1974 18.9616 27.9674C19.0944 27.7375 19.0162 27.4455 18.7862 27.3128L13.9985 24.5485C13.9123 24.4988 13.8173 24.4786 13.7253 24.485V24.485ZM66.9322 24.485C66.8402 24.4782 66.7452 24.4987 66.659 24.5486L61.8713 27.3128C61.6414 27.4456 61.5631 27.7375 61.6959 27.9675C61.8287 28.1975 62.1206 28.2757 62.3506 28.1429L67.1385 25.3787C67.3684 25.2459 67.4466 24.9539 67.3139 24.724C67.2309 24.5803 67.0856 24.4958 66.9322 24.4851V24.485ZM12.3461 27.3386C12.1594 27.3341 11.9803 27.441 11.8991 27.6228C11.791 27.8653 11.8991 28.1476 12.1416 28.2558L14.2656 29.2032C14.5081 29.3114 14.7904 29.2033 14.8986 28.9608C15.0067 28.7183 14.8984 28.436 14.6559 28.3278L12.5321 27.3804C12.4715 27.3533 12.4084 27.3399 12.3461 27.3386ZM68.3207 27.3583C68.2584 27.3594 68.1951 27.3731 68.1345 27.4001L66.0101 28.3458C65.7675 28.4539 65.659 28.736 65.767 28.9786C65.8751 29.2212 66.1574 29.3297 66.4 29.2217L68.5244 28.2757C68.767 28.1678 68.8753 27.8855 68.7673 27.6429C68.6863 27.461 68.5074 27.3546 68.3207 27.3583ZM11.117 30.3211C10.9309 30.3367 10.764 30.4611 10.7023 30.6504C10.6201 30.9029 10.7569 31.1724 11.0094 31.2547L16.2659 32.9674C16.5183 33.0496 16.7878 32.9126 16.8701 32.6602C16.9523 32.4078 16.8154 32.1383 16.5629 32.056L11.3065 30.3432C11.2434 30.3226 11.1791 30.3159 11.117 30.3211V30.3211ZM69.5475 30.3416C69.4855 30.3359 69.4214 30.3427 69.3582 30.3637L64.1006 32.0727C63.8481 32.1548 63.7109 32.4242 63.793 32.6767C63.8751 32.9293 64.1445 33.0664 64.397 32.9844L69.6544 31.2753C69.907 31.1932 70.0443 30.9238 69.9623 30.6713C69.9007 30.4819 69.7337 30.3574 69.5475 30.3416V30.3416ZM10.3513 33.4519C10.128 33.4496 9.9277 33.6046 9.87939 33.8319C9.82417 34.0916 9.98894 34.3451 10.2486 34.4003L12.5234 34.8837C12.7832 34.939 13.0367 34.7742 13.0919 34.5145C13.1471 34.2548 12.9824 34.0013 12.7227 33.9461L10.4481 33.4626C10.4156 33.4558 10.3831 33.4524 10.3513 33.4524V33.4519ZM70.3073 33.4565C70.2754 33.4567 70.2432 33.461 70.2107 33.4667L67.936 33.9499C67.6762 34.0051 67.5115 34.2584 67.5667 34.5182C67.6219 34.7779 67.8754 34.9428 68.1351 34.8876L70.4097 34.4044C70.6695 34.3492 70.8343 34.0957 70.7792 33.8359C70.7309 33.6087 70.5306 33.4541 70.3074 33.4559L70.3073 33.4565ZM9.77164 36.6011C9.54937 36.6224 9.36641 36.7967 9.342 37.0278C9.3141 37.2919 9.50407 37.527 9.76813 37.5549L15.2659 38.1361C15.53 38.164 15.7651 37.9739 15.793 37.7098C15.8209 37.4458 15.6307 37.2106 15.3667 37.1827L9.86886 36.6015C9.83584 36.5981 9.8034 36.5981 9.77164 36.6011V36.6011ZM70.891 36.6424C70.8593 36.639 70.8266 36.639 70.7936 36.6428L65.2951 37.2166C65.031 37.2442 64.8406 37.479 64.8682 37.7431C64.8957 38.0072 65.1305 38.1976 65.3946 38.17L70.8931 37.5962C71.1571 37.5686 71.3475 37.3338 71.32 37.0697C71.2959 36.8387 71.1132 36.664 70.891 36.6424L70.891 36.6424ZM9.67854 39.8247C9.41301 39.8247 9.19928 40.0384 9.19928 40.304C9.19928 40.5695 9.41301 40.7832 9.67854 40.7832H12.004C12.2696 40.7832 12.4835 40.5695 12.4835 40.304C12.4835 40.0384 12.2696 39.8247 12.004 39.8247H9.67854ZM68.6535 39.8247C68.388 39.8247 68.1742 40.0384 68.1742 40.304C68.1742 40.5695 68.388 40.7832 68.6535 40.7832H70.979C71.2445 40.7832 71.4582 40.5695 71.4582 40.304C71.4582 40.0384 71.2445 39.8247 70.979 39.8247H68.6535ZM15.3603 42.4375C15.3285 42.434 15.296 42.434 15.263 42.4379L9.76437 43.0117C9.50027 43.0392 9.30991 43.274 9.33744 43.5381C9.365 43.8022 9.59977 43.9927 9.86386 43.9651L15.3625 43.3913C15.6266 43.3637 15.817 43.1289 15.7895 42.8648C15.7653 42.6337 15.5825 42.4591 15.3602 42.4375H15.3603ZM65.2943 42.4714C65.0721 42.4927 64.8891 42.6671 64.8647 42.8981C64.8368 43.1622 65.0268 43.3973 65.2908 43.4252L70.7887 44.0065C71.0527 44.0344 71.2878 43.8442 71.3157 43.5802C71.3436 43.3161 71.1534 43.081 70.8894 43.0531L65.3918 42.4718C65.3588 42.4684 65.3261 42.4684 65.2943 42.4714L65.2943 42.4714ZM12.6194 45.7093C12.5875 45.7096 12.5551 45.7127 12.5226 45.7196L10.2478 46.2028C9.9881 46.258 9.82344 46.5115 9.87859 46.7712C9.93382 47.0309 10.1873 47.1956 10.4471 47.1404L12.7219 46.6574C12.9816 46.6022 13.1462 46.3487 13.0911 46.089C13.0428 45.8617 12.8427 45.7071 12.6194 45.709L12.6194 45.7093ZM68.0375 45.7139C67.8142 45.7116 67.6141 45.8664 67.5658 46.0936C67.5106 46.3534 67.6752 46.6069 67.9349 46.6621L70.2097 47.1455C70.4694 47.2007 70.7229 47.0362 70.7781 46.7765C70.8333 46.5167 70.6685 46.263 70.4089 46.2078L68.1343 45.7244C68.1018 45.7176 68.0694 45.7142 68.0375 45.7142L68.0375 45.7139ZM16.45 47.6016C16.3879 47.5959 16.3238 47.6028 16.2607 47.6237L11.003 49.3328C10.7505 49.4148 10.6134 49.6842 10.6954 49.9368C10.7775 50.1893 11.0469 50.3264 11.2995 50.2444L16.5569 48.5353C16.8095 48.4532 16.9468 48.1838 16.8647 47.9313C16.8031 47.7419 16.6361 47.6174 16.45 47.6016V47.6016ZM64.2024 47.6186C64.0162 47.6342 63.8493 47.7586 63.7876 47.9479C63.7054 48.2004 63.8423 48.4699 64.0948 48.5521L69.3512 50.2649C69.6037 50.3471 69.8732 50.2101 69.9554 49.9577C70.0378 49.7053 69.9008 49.4357 69.6483 49.3535L64.3918 47.6407C64.3288 47.6201 64.2644 47.6134 64.2024 47.6186V47.6186ZM14.4437 51.3449C14.3814 51.346 14.3184 51.3595 14.2577 51.3865L12.1331 52.3324C11.8905 52.4403 11.7822 52.7226 11.8902 52.9652C11.9983 53.2078 12.2804 53.316 12.523 53.208L14.6476 52.2623C14.8902 52.1543 14.9985 51.8721 14.8905 51.6295C14.8095 51.4476 14.6305 51.3411 14.4437 51.3449V51.3449ZM66.2062 51.3631C66.0194 51.3586 65.8403 51.4655 65.7591 51.6473C65.651 51.8898 65.7591 52.1721 66.0016 52.2803L68.1254 53.2277C68.3679 53.3359 68.6502 53.2278 68.7584 52.9853C68.8665 52.7428 68.7584 52.4605 68.5159 52.3523L66.3921 51.4049C66.3316 51.3778 66.2684 51.3643 66.2062 51.3631V51.3631ZM18.5802 52.4017C18.4882 52.3949 18.3932 52.4154 18.3069 52.4653L13.5192 55.2295C13.2893 55.3622 13.2111 55.6542 13.3438 55.8842C13.4766 56.1141 13.7686 56.1924 13.9985 56.0596L18.7862 53.2956C19.0162 53.1628 19.0944 52.8706 18.9616 52.6407C18.8786 52.497 18.7335 52.4125 18.5802 52.4018V52.4017ZM62.0775 52.4017C61.9242 52.412 61.7789 52.4969 61.6959 52.6406C61.5631 52.8706 61.6414 53.1628 61.8713 53.2956L66.659 56.0595C66.8889 56.1923 67.1811 56.1141 67.3139 55.8841C67.4466 55.6542 67.3684 55.3622 67.1385 55.2294L62.3506 52.4652C62.2644 52.4155 62.1695 52.3953 62.0775 52.4017V52.4017ZM17.386 56.4582C17.2937 56.4616 17.2014 56.4913 17.1208 56.5498L15.2386 57.9155C15.0237 58.0714 14.9762 58.3699 15.132 58.5849C15.288 58.7998 15.5865 58.8473 15.8014 58.6913L17.6838 57.3257C17.8988 57.1698 17.9463 56.8712 17.7904 56.6563C17.6929 56.522 17.5396 56.4529 17.386 56.4581V56.4582ZM63.2602 56.4743C63.1065 56.4686 62.9533 56.5379 62.8557 56.6721C62.6996 56.8869 62.747 57.1856 62.9619 57.3417L64.8432 58.7086C65.058 58.8647 65.3565 58.8173 65.5126 58.6025C65.6687 58.3876 65.6215 58.0891 65.4067 57.9331L63.5254 56.5662C63.4449 56.5076 63.3524 56.4776 63.2602 56.4743L63.2602 56.4743ZM21.6489 56.6398C21.5265 56.633 21.4017 56.6737 21.303 56.7625L17.1916 60.4584C16.9941 60.6359 16.978 60.9377 17.1556 61.1352C17.3331 61.3327 17.6349 61.3487 17.8324 61.1712L21.9438 57.4753C22.1413 57.2978 22.1574 56.9959 21.9798 56.7985C21.8911 56.6997 21.7712 56.6463 21.6489 56.6398ZM58.9972 56.653C58.8749 56.6598 58.7549 56.7128 58.6661 56.8115C58.4884 57.0088 58.5043 57.3106 58.7016 57.4883L62.8104 61.1871C63.0077 61.3647 63.3098 61.3489 63.4874 61.1515C63.6651 60.9542 63.6492 60.6524 63.4519 60.4747L59.3429 56.7759C59.2442 56.6871 59.1196 56.6466 58.9972 56.6531V56.653ZM25.5493 60.1642C25.3957 60.1585 25.2423 60.2273 25.1447 60.3615L21.8926 64.8321C21.7363 65.0468 21.7833 65.3455 21.998 65.5017C22.2127 65.6579 22.5114 65.6109 22.6676 65.3961L25.9198 60.9256C26.076 60.7108 26.029 60.4122 25.8143 60.256C25.7338 60.1974 25.6415 60.1674 25.5493 60.1642ZM55.0815 60.1842C54.9892 60.1876 54.8969 60.2171 54.8163 60.2757C54.6014 60.4316 54.5538 60.7301 54.7097 60.945L57.9559 65.42C58.1118 65.6349 58.4103 65.6824 58.6253 65.5265C58.8402 65.3706 58.8877 65.0721 58.7319 64.8572L55.4857 60.3822C55.3882 60.2479 55.2351 60.179 55.0815 60.1843V60.1842ZM21.351 60.8747C21.2286 60.8815 21.1087 60.9345 21.0198 61.0332L19.4639 62.7612C19.2862 62.9586 19.3019 63.2606 19.4993 63.4383C19.6966 63.616 19.9984 63.6 20.1761 63.4026L21.7323 61.6746C21.91 61.4772 21.894 61.1752 21.6967 60.9975C21.598 60.9087 21.4734 60.8682 21.3511 60.8747L21.351 60.8747ZM59.3036 60.877C59.1813 60.8702 59.0566 60.911 58.958 60.9999C58.7606 61.1775 58.7447 61.4793 58.9223 61.6767L60.4781 63.4052C60.6557 63.6025 60.9576 63.6184 61.1549 63.4407C61.3523 63.2631 61.3681 62.961 61.1904 62.7637L59.6347 61.0354C59.5459 60.9367 59.4259 60.8834 59.3035 60.8769L59.3036 60.877ZM30.0909 62.7941C29.9041 62.7896 29.7252 62.8965 29.6441 63.0783L27.3916 68.1271C27.2834 68.3696 27.3915 68.6519 27.634 68.7601C27.8765 68.8682 28.1588 68.7601 28.267 68.5176L30.5195 63.4689C30.6276 63.2264 30.5195 62.9441 30.277 62.8359C30.2164 62.8088 30.1531 62.7954 30.0909 62.7941ZM50.5363 62.808C50.474 62.8091 50.4107 62.8226 50.3501 62.8496C50.1076 62.9574 49.999 63.2395 50.1068 63.4821L52.3522 68.534C52.4601 68.7765 52.7423 68.8851 52.985 68.7772C53.2275 68.6694 53.3361 68.3873 53.2283 68.1447L50.9828 63.0928C50.902 62.911 50.723 62.8044 50.5363 62.808ZM26.1329 64.3551C25.9795 64.3653 25.8344 64.4503 25.7514 64.594L24.5887 66.608C24.4559 66.8379 24.5341 67.1299 24.7641 67.2626C24.9941 67.3954 25.2861 67.3172 25.4188 67.0872L26.5816 65.0733C26.7143 64.8433 26.6361 64.5514 26.4061 64.4186C26.3199 64.3688 26.2249 64.3487 26.1329 64.355V64.3551ZM54.5246 64.3551C54.4326 64.3483 54.3378 64.3689 54.2516 64.4186C54.0216 64.5514 53.9434 64.8434 54.0762 65.0733L55.2389 67.0873C55.3717 67.3172 55.6637 67.3954 55.8936 67.2627C56.1236 67.1299 56.2018 66.8379 56.069 66.608L54.9063 64.594C54.8233 64.4503 54.678 64.3658 54.5246 64.3551V64.3551ZM35.1052 64.4273C34.8819 64.425 34.6819 64.5798 34.6336 64.8071L33.4847 70.2149C33.4295 70.4746 33.5943 70.7282 33.854 70.7833C34.1137 70.8386 34.3672 70.6738 34.4224 70.4141L35.5713 65.0063C35.6265 64.7465 35.4617 64.493 35.202 64.4378C35.1696 64.431 35.1371 64.4276 35.1053 64.4276L35.1052 64.4273ZM45.5353 64.4307C45.5034 64.431 45.4712 64.4341 45.4387 64.4409C45.179 64.4959 45.0141 64.7492 45.0691 65.009L46.214 70.4176C46.269 70.6774 46.5225 70.8423 46.7823 70.7873C47.042 70.7323 47.2069 70.4788 47.1519 70.2191L46.0068 64.8108C45.9586 64.5835 45.7586 64.4288 45.5353 64.4306L45.5353 64.4307ZM40.3287 64.9762C40.0632 64.9762 39.8494 65.1899 39.8494 65.4555V70.9839C39.8494 71.2494 40.0632 71.4632 40.3287 71.4632C40.5943 71.4632 40.808 71.2494 40.808 70.9839V65.4555C40.808 65.1899 40.5943 64.9762 40.3287 64.9762ZM31.5308 66.7626C31.3446 66.7784 31.1776 66.9029 31.116 67.0923L30.3972 69.304C30.3151 69.5565 30.4523 69.8259 30.7048 69.908C30.9573 69.9901 31.2267 69.8527 31.3088 69.6002L32.0277 67.3887C32.1097 67.1362 31.9725 66.8668 31.72 66.7847C31.657 66.7642 31.5928 66.7574 31.5308 66.7626V66.7626ZM49.123 66.7637C49.0609 66.758 48.9969 66.7649 48.9338 66.7857C48.6812 66.8678 48.5439 67.1372 48.6259 67.3897L49.3446 69.6014C49.4267 69.854 49.696 69.9911 49.9486 69.909C50.2011 69.8269 50.3384 69.5577 50.2564 69.3052L49.5376 67.0935C49.476 66.9041 49.3092 66.7796 49.123 66.7638V66.7637ZM37.3203 67.9955C37.098 68.0169 36.9149 68.1914 36.8906 68.4225L36.6475 70.7353C36.6198 70.9994 36.81 71.2342 37.0741 71.262C37.3382 71.2898 37.5732 71.0995 37.601 70.8355L37.844 68.5228C37.8718 68.2587 37.6815 68.0237 37.4175 67.9959C37.3845 67.9925 37.352 67.9925 37.3202 67.9955L37.3203 67.9955ZM43.318 67.9978C43.2863 67.9944 43.2536 67.9944 43.2206 67.9982C42.9565 68.0258 42.766 68.2606 42.7936 68.5247L43.0352 70.8377C43.0628 71.1018 43.2976 71.292 43.5617 71.2645C43.8257 71.2369 44.0162 71.0021 43.9886 70.738L43.7472 68.4252C43.7231 68.1941 43.5402 68.0194 43.318 67.9978L43.318 67.9978Z" fill="#F4F2F3"/>
<g opacity="0.409" filter="url(#filter1_f_2507_6846)">
<path d="M62.7927 21.1318L36.5699 36.3674L19.99 62.4689L44.2451 44.5034L62.7927 21.1318Z" fill="black"/>
</g>
<path d="M44.0886 44.2406L36.5723 36.3693L63.2354 18.433L44.0886 44.2406Z" fill="#FF5150"/>
<path d="M44.0819 44.2396L36.5656 36.3683L17.4188 62.1758L44.0819 44.2396Z" fill="#F1F1F1"/>
<path opacity="0.243" d="M17.4199 62.1765L44.083 44.2402L63.2298 18.4326L17.4199 62.1765Z" fill="black"/>
</g>
<defs>
<filter id="filter0_f_2507_6846" x="3.26548" y="7.44028" width="74.1156" height="71.5686" filterUnits="userSpaceOnUse" color-interpolation-filters="sRGB">
<feFlood flood-opacity="0" result="BackgroundImageFix"/>
<feBlend mode="normal" in="SourceGraphic" in2="BackgroundImageFix" result="shape"/>
<feGaussianBlur stdDeviation="1.34871" result="effect1_foregroundBlur_2507_6846"/>
</filter>
<filter id="filter1_f_2507_6846" x="19.2233" y="20.3651" width="44.3361" height="42.8703" filterUnits="userSpaceOnUse" color-interpolation-filters="sRGB">
<feFlood flood-opacity="0" result="BackgroundImageFix"/>
<feBlend mode="normal" in="SourceGraphic" in2="BackgroundImageFix" result="shape"/>
<feGaussianBlur stdDeviation="0.383347" result="effect1_foregroundBlur_2507_6846"/>
</filter>
<linearGradient id="paint0_linear_2507_6846" x1="40.3252" y1="75.9726" x2="40.3252" y2="4.63477" gradientUnits="userSpaceOnUse">
<stop stop-color="#BDBDBD"/>
<stop offset="1" stop-color="white"/>
</linearGradient>
<radialGradient id="paint1_radial_2507_6846" cx="0" cy="0" r="1" gradientUnits="userSpaceOnUse" gradientTransform="translate(40.4727 35.5116) scale(35.6691 35.6691)">
<stop stop-color="#06C2E7"/>
<stop offset="0.25" stop-color="#0DB8EC"/>
<stop offset="0.5" stop-color="#12AEF1"/>
<stop offset="0.75" stop-color="#1F86F9"/>
<stop offset="1" stop-color="#107DDD"/>
</radialGradient>
<clipPath id="clip0_2507_6846">
<rect x="0.5" width="80" height="80" rx="16" fill="white"/>
</clipPath>
</defs>
</svg>
