<svg width="80" height="80" viewBox="0 0 80 80" fill="none" xmlns="http://www.w3.org/2000/svg">
<path fill-rule="evenodd" clip-rule="evenodd" d="M51.5731 39.5737L74.991 13.2788C75.0354 13.1486 75.1296 13.0415 75.253 12.9808C75.3764 12.9202 75.5188 12.911 75.6489 12.9554C75.7791 12.9998 75.8862 13.094 75.9469 13.2174C76.0075 13.3408 76.0167 13.4832 75.9723 13.6133V77.5999C75.9723 77.7478 75.9136 77.8896 75.809 77.9942C75.7045 78.0988 75.5626 78.1575 75.4148 78.1575H4.04594C3.89807 78.1575 3.75625 78.0988 3.65168 77.9942C3.54712 77.8896 3.48837 77.7478 3.48837 77.5999V2.88569C3.48837 2.73782 3.54712 2.596 3.65168 2.49143C3.75625 2.38687 3.89807 2.32812 4.04594 2.32812H69.7053C69.7968 2.33195 69.8857 2.36022 69.9626 2.41001C70.0395 2.4598 70.1017 2.52928 70.1426 2.61124C70.1836 2.69319 70.2019 2.78463 70.1956 2.87603C70.1893 2.96744 70.1586 3.05549 70.1067 3.13102L51.4616 28.69C51.3946 28.7697 51.311 28.8338 51.2166 28.8778C51.1222 28.9218 51.0193 28.9446 50.9152 28.9446C50.811 28.9446 50.7082 28.9218 50.6138 28.8778C50.5194 28.8338 50.4358 28.7697 50.3688 28.69L43.6779 21.2855C43.6119 21.1934 43.5248 21.1183 43.424 21.0666C43.3231 21.0148 43.2114 20.9878 43.0981 20.9878C42.9847 20.9878 42.873 21.0148 42.7722 21.0666C42.6713 21.1183 42.5843 21.1934 42.5182 21.2855L38.5706 26.3482C38.4693 26.4748 38.414 26.6321 38.414 26.7942C38.414 26.9564 38.4693 27.1137 38.5706 27.2403L50.5249 39.5737C50.5917 39.646 50.6728 39.7037 50.763 39.7432C50.8532 39.7826 50.9505 39.803 51.049 39.803C51.1474 39.803 51.2448 39.7826 51.335 39.7432C51.4252 39.7037 51.5063 39.646 51.5731 39.5737ZM10.8929 65.378C14.4169 68.4745 19.0095 70.0747 23.6947 69.8386H23.6724C32.1251 69.8386 36.2065 65.5118 36.2065 59.8469C36.2065 52.7419 29.6127 51.159 24.4121 49.9105C21.026 49.0977 18.2305 48.4266 18.2305 46.4653C18.2305 44.5919 19.8363 43.3206 22.691 43.3206C25.7988 43.2915 28.8223 44.3308 31.2553 46.2646C31.3272 46.3261 31.411 46.3723 31.5015 46.4001C31.592 46.428 31.6872 46.437 31.7813 46.4265C31.8754 46.4161 31.9663 46.3864 32.0485 46.3394C32.1307 46.2923 32.2023 46.2289 32.2589 46.153L35.0022 42.3393C35.1262 42.2104 35.1955 42.0386 35.1955 41.8598C35.1955 41.6809 35.1262 41.5091 35.0022 41.3803C31.7025 38.6985 27.5425 37.3039 23.2932 37.455C15.8887 37.455 11.4282 41.7817 11.4282 46.9782C11.4282 53.9655 17.7726 55.472 22.9325 56.6972C26.4688 57.5369 29.4488 58.2445 29.4488 60.4937C29.4488 62.2779 27.6646 63.9729 24.0069 63.9729C20.5341 63.9835 17.1865 62.6764 14.6397 60.3153C14.561 60.2673 14.4734 60.2355 14.3822 60.2219C14.2909 60.2082 14.1979 60.213 14.1085 60.2358C14.0192 60.2587 13.9353 60.2992 13.8618 60.355C13.7883 60.4108 13.7268 60.4807 13.6807 60.5606L10.8929 64.4636C10.7816 64.5899 10.7201 64.7525 10.7201 64.9208C10.7201 65.0892 10.7816 65.2517 10.8929 65.378ZM62.951 59.2198C62.9812 59.1426 62.9953 59.06 62.9921 58.9771L62.9698 58.2634C62.9698 50.6582 58.2639 45.4617 51.3278 45.4617C49.7272 45.4339 48.1376 45.7309 46.655 46.3347C45.1725 46.9386 43.8277 47.8367 42.702 48.9749C41.5764 50.1131 40.6931 51.4677 40.1057 52.9569C39.5183 54.446 39.2388 56.0388 39.2843 57.639C39.2196 59.2785 39.4982 60.9134 40.1023 62.4389C40.7064 63.9645 41.6227 65.3469 42.7923 66.4976C43.9619 67.6483 45.3591 68.5419 46.8943 69.1211C48.4294 69.7003 50.0687 69.9523 51.7069 69.8609C54.9864 69.9436 58.2012 68.9399 60.8511 67.0061C60.9714 66.9094 61.0517 66.7716 61.0764 66.6192C61.1011 66.4668 61.0685 66.3107 60.9849 66.1809L58.9776 63.2593C58.9312 63.1877 58.8701 63.1268 58.7984 63.0806C58.7267 63.0345 58.6461 63.004 58.5617 62.9914C58.4774 62.9787 58.3913 62.9841 58.3092 63.0073C58.2271 63.0304 58.1509 63.0706 58.0855 63.1254C56.4108 64.3033 54.423 64.9555 52.376 64.9989C50.816 65.1278 49.2643 64.6682 48.0261 63.7107C46.7879 62.7531 45.9528 61.3669 45.6852 59.8246C45.6821 59.7982 45.6843 59.7715 45.6916 59.746C45.6989 59.7204 45.7112 59.6966 45.7278 59.6758C45.7444 59.6551 45.7649 59.6379 45.7883 59.6251C45.8116 59.6124 45.8372 59.6044 45.8636 59.6016H62.3676C62.4505 59.6047 62.5331 59.5907 62.6103 59.5604C62.6875 59.5302 62.7575 59.4843 62.8162 59.4257C62.8748 59.367 62.9207 59.2969 62.951 59.2198ZM47.5239 51.6557C48.5775 50.7425 49.9361 50.2591 51.3297 50.3015C52.7415 50.2093 54.1327 50.6774 55.2015 51.6043C56.2704 52.5312 56.9307 53.8421 57.0392 55.2527C57.0424 55.2779 57.0401 55.3035 57.0326 55.3278C57.0251 55.3521 57.0124 55.3745 56.9955 55.3935C56.9786 55.4125 56.9579 55.4277 56.9346 55.438C56.9114 55.4484 56.8862 55.4536 56.8608 55.4534H45.8209C45.7932 55.4543 45.7657 55.4487 45.7405 55.4371C45.7153 55.4255 45.6932 55.4082 45.6759 55.3865C45.6586 55.3649 45.6466 55.3395 45.6408 55.3124C45.635 55.2853 45.6356 55.2572 45.6425 55.2304C45.7986 53.8449 46.4702 52.5688 47.5239 51.6557Z" fill="#01A71C"/>
</svg>
