<svg width="130" height="18" viewBox="0 0 130 18" fill="none" xmlns="http://www.w3.org/2000/svg">
  <path d="M1.46909 13.7811C2.62967 14.9113 4.17524 15.5601 5.79482 15.5968C7.61056 15.5968 9.10587 14.5287 9.10587 12.713C9.10587 8.54749 0.828238 9.56217 0.828238 4.43537C0.828238 2.03219 2.9644 0.00283513 6.00844 0.00283513C7.63582 -0.0455652 9.22062 0.527253 10.441 1.60496L9.63991 2.99346C8.64455 2.088 7.35381 1.57551 6.00844 1.55155C3.87227 1.55155 2.53717 2.94006 2.48376 4.38197C2.48376 8.33387 10.7614 7.21239 10.7614 12.6596C10.7614 15.1162 8.83885 17.1455 5.74142 17.1455C4.76955 17.1648 3.80401 16.9852 2.90404 16.6179C2.00406 16.2505 1.18864 15.7032 0.507812 15.0094L1.46909 13.7811ZM27.6905 0.109643C28.8045 0.10462 29.9083 0.321218 30.9378 0.74683C31.9673 1.17244 32.9019 1.79857 33.6871 2.58876C34.4723 3.37896 35.0925 4.31745 35.5117 5.3496C35.9308 6.38175 36.1404 7.48696 36.1283 8.60089C36.1425 9.72302 35.9354 10.8369 35.519 11.879C35.1026 12.9211 34.4849 13.871 33.7014 14.6744C32.9179 15.4777 31.9837 16.1189 30.9524 16.5612C29.921 17.0036 28.8126 17.2384 27.6905 17.2524H27.6371C26.515 17.2384 25.4066 17.0036 24.3752 16.5612C23.3439 16.1189 22.4097 15.4777 21.6262 14.6744C20.8427 13.871 20.225 12.9211 19.8086 11.879C19.3922 10.8369 19.1851 9.72302 19.1992 8.60089V8.54749C19.1942 7.4335 19.4108 6.32964 19.8364 5.30015C20.262 4.27066 20.8882 3.33611 21.6784 2.55088C22.4686 1.76565 23.407 1.14544 24.4392 0.72633C25.4714 0.307222 26.5766 0.097592 27.6905 0.109643ZM27.6371 15.757C29.4776 15.715 31.226 14.9437 32.4979 13.6128C33.7698 12.2818 34.461 10.5001 34.4194 8.65964V8.60089C34.4194 4.64899 31.4288 1.60496 27.6905 1.60496C26.7866 1.60616 25.892 1.78774 25.0592 2.13907C24.2264 2.4904 23.4721 3.0044 22.8404 3.65097C22.2088 4.29754 21.7125 5.06366 21.3807 5.90446C21.0489 6.74526 20.8883 7.64381 20.9082 8.54749C20.9082 12.6062 23.8988 15.7036 27.6371 15.757ZM45.7411 0.430067H47.3432L47.2898 15.5434H54.98V16.9853H45.6343L45.7411 0.430067ZM63.8451 0.483472H65.4472L65.3938 17.0921H63.7917L63.8451 0.483472ZM76.2348 0.483472H81.5752C86.5418 0.483472 89.9063 3.52751 89.9063 8.81451C89.9063 14.1015 86.5418 17.0921 81.5752 17.0921H76.2348V0.483472ZM81.3616 15.6502C85.4203 15.6502 88.1439 13.2471 88.1973 8.81451C88.2507 4.38197 85.4737 1.97879 81.415 1.97879H77.8369L77.7835 15.6502H81.3616ZM103.882 17.0921C105.264 17.1346 106.61 16.654 107.652 15.7464C108.17 15.2655 108.575 14.6764 108.839 14.021C109.103 13.3656 109.22 12.6601 109.18 11.9547V0.681066H105.842V11.709C105.88 12.2922 105.688 12.8671 105.308 13.3111C105.116 13.5058 104.885 13.6575 104.63 13.756C104.375 13.8545 104.102 13.8977 103.829 13.8826C102.782 13.8826 102.018 13.2684 101.538 12.0401L98.7179 13.6155C99.6436 15.9333 101.369 17.0921 103.893 17.0921H103.882ZM123.887 17.1295C125.74 17.1295 127.193 16.6703 128.234 15.7464C128.748 15.2957 129.154 14.7365 129.425 14.1094C129.695 13.4823 129.823 12.8028 129.799 12.1202C129.82 11.5474 129.711 10.9772 129.48 10.4526C129.249 9.92811 128.901 9.46294 128.464 9.09221C127.567 8.32319 126.13 7.66098 124.154 7.0949C123.441 6.93438 122.762 6.65065 122.146 6.25645C121.962 6.12785 121.812 5.95587 121.709 5.75566C121.607 5.55545 121.555 5.33313 121.559 5.10827C121.552 4.87543 121.603 4.6445 121.705 4.43524C121.807 4.22598 121.959 4.04462 122.146 3.90667C122.598 3.58411 123.146 3.4241 123.7 3.45274C124.355 3.40861 125.007 3.5785 125.557 3.93681C126.107 4.29512 126.525 4.82246 126.75 5.43937L129.511 3.92804C129.082 2.85442 128.32 1.9466 127.337 1.33794C126.281 0.713849 125.071 0.399255 123.845 0.430067C122.393 0.390492 120.978 0.884511 119.866 1.81857C119.339 2.23389 118.915 2.76607 118.629 3.37313C118.342 3.98018 118.201 4.64549 118.216 5.31654C118.202 5.87469 118.305 6.42955 118.519 6.94549C118.732 7.46143 119.051 7.92707 119.455 8.31251C120.199 9.06017 121.511 9.71704 123.391 10.2831C124.239 10.4859 125.052 10.8135 125.804 11.2551C126.002 11.3657 126.165 11.5281 126.277 11.7248C126.389 11.9215 126.446 12.145 126.44 12.3712C126.439 12.6183 126.375 12.861 126.254 13.0767C126.134 13.2924 125.961 13.4741 125.751 13.6049C125.228 13.9455 124.612 14.1153 123.989 14.0908C123.243 14.109 122.509 13.9036 121.881 13.501C121.252 13.0984 120.759 12.5171 120.464 11.8318L117.58 13.3218C118.055 14.4887 118.896 15.4692 119.978 16.1148C121.161 16.8121 122.515 17.1636 123.887 17.1295Z" fill="#464646"/>
</svg>
  