<svg width="80" height="80" viewBox="0 0 80 80" fill="none" xmlns="http://www.w3.org/2000/svg">
<path fill-rule="evenodd" clip-rule="evenodd" d="M12.1211 12.1211C9 15.2423 9 20.2657 9 30.3125V49.6875C9 59.7343 9 64.7577 12.1211 67.8789C15.2423 71 20.2657 71 30.3125 71H49.6875C59.7343 71 64.7577 71 67.8789 67.8789C71 64.7577 71 59.7343 71 49.6875V30.3125C71 20.2657 71 15.2423 67.8789 12.1211C64.7577 9 59.7343 9 49.6875 9H30.3125C20.2657 9 15.2423 9 12.1211 12.1211ZM38 26V38L26 38V42H38V54H42V42H54V38H42V26H38Z" fill="#F52357"/>
</svg>
