<svg viewBox="0 0 150 28" fill="none" xmlns="http://www.w3.org/2000/svg"><g clip-path="url(#clip0_2780_7565)" fill="#464646"><path d="M0 1.397C0 .625457.633052 0 1.41396 0H26.8652c.781 0 1.414.625457 1.414 1.397v9.779c0 .7715-.633 1.3969-1.414 1.3969H1.41396C.633052 12.5729 0 11.9475 0 11.176V1.397ZM28.2792 26.5429c0 .7715-.633 1.397-1.414 1.397H11.3117c-.7809 0-1.41399-.6255-1.41399-1.397v-11.176c0-.7715.63309-1.3969 1.41399-1.3969h15.5535c.781 0 1.414.6254 1.414 1.3969v11.176ZM8.48376 26.5429c0 .7715-.63305 1.397-1.41396 1.397H1.41396C.633052 27.9399 0 27.3144 0 26.5429v-11.176c0-.7715.633052-1.3969 1.41396-1.3969H7.0698c.78091 0 1.41396.6254 1.41396 1.3969v11.176ZM47.0535 27.9623c-2.876 0-5.154-.6412-6.8337-1.9237-1.6543-1.2824-2.4815-2.9924-2.4815-5.1297v-1.1693c0-.2515.1273-.3772.3817-.3772h1.8708c.2545 0 .3817.1257.3817.3772v1.0183c0 1.4586.6109 2.6404 1.8325 3.5457 1.2217.8801 2.9142 1.3202 5.0775 1.3202 1.9598 0 3.4487-.4024 4.4667-1.2071 1.0181-.8298 1.5271-1.9237 1.5271-3.2815 0-.8801-.2418-1.6345-.7253-2.2632-.4582-.6286-1.1835-1.2195-2.1761-1.7727-.9672-.5533-2.3415-1.1945-4.1231-1.9237-1.9089-.7544-3.3978-1.4082-4.4667-1.9614-1.0435-.5784-1.8962-1.3075-2.5579-2.1877-.6363-.9052-.9545-2.03681-.9545-3.39468 0-2.11226.7382-3.74675 2.2144-4.90347C41.9887 1.5465 44.0375.955566 46.6335.955566c2.8251 0 5.0521.653794 6.681 1.961374 1.6289 1.30759 2.4433 3.04267 2.4433 5.20522v.82981c0 .25146-.1272.3772-.3818.3772h-1.9089c-.2544 0-.3817-.12574-.3817-.3772v-.67894c0-1.45846-.5853-2.6529-1.7562-3.58329-1.1452-.9304-2.7486-1.3956-4.8102-1.3956-1.807 0-3.1941.36462-4.1613 1.09384-.9671.72924-1.4508 1.78536-1.4508 3.16839 0 .90526.2292 1.65964.6873 2.26313.4836.5784 1.158 1.0939 2.0234 1.5465.8908.4275 2.2523.9932 4.0849 1.6973 1.8579.7544 3.3468 1.4585 4.4667 2.1123 1.1453.6538 2.0615 1.4584 2.7487 2.414.7127.9304 1.069 2.0746 1.069 3.4325 0 2.1122-.789 3.797-2.367 5.0542-1.578 1.2573-3.7668 1.886-6.5664 1.886ZM72.7841 8.95189c0-.25145.1273-.37718.3819-.37718h1.947c.2544 0 .3817.12573.3817.37718V27.2833c0 .2515-.1273.3771-.3817.3771h-1.947c-.2546 0-.3819-.1256-.3819-.3771v-1.6219c0-.0503-.0254-.088-.0763-.1132-.0509-.0251-.089-.0126-.1146.0377-1.0689 1.5591-2.7614 2.3386-5.0775 2.3386-1.2216 0-2.3542-.2389-3.3977-.7166-1.0181-.503-1.8325-1.2196-2.4433-2.1501-.5854-.9304-.8781-2.0493-.8781-3.3569V8.95189c0-.25145.1272-.37718.3818-.37718h1.947c.2545 0 .3817.12573.3817.37718V20.9088c0 1.4333.4073 2.5774 1.2218 3.4324.8143.8298 1.9215 1.2447 3.3214 1.2447 1.4507 0 2.5959-.4275 3.4359-1.2824.8653-.855 1.2979-1.9865 1.2979-3.3947V8.95189ZM96.4208 13.4405c.3054 1.1315.4581 2.6907.4581 4.6772 0 2.0619-.1781 3.6587-.5344 4.7903-.4836 1.559-1.3234 2.7911-2.5197 3.6965-1.1962.9052-2.6851 1.3578-4.4667 1.3578-1.0181 0-1.947-.2012-2.7869-.6035-.8399-.4024-1.5398-.9807-2.0998-1.735-.0254-.0503-.0636-.0629-.1145-.0378-.0509 0-.0763.0252-.0763.0754v1.6219c0 .2516-.1272.3772-.3817.3772h-1.9471c-.2545 0-.3817-.1256-.3817-.3772V1.63452c0-.25146.1272-.3772.3817-.3772h1.9471c.2545 0 .3817.12574.3817.3772v8.90168c0 .0503.0127.088.0381.1131.0509 0 .1018-.0251.1527-.0754.56-.72923 1.2599-1.29502 2.0998-1.69736.8399-.40233 1.7688-.6035 2.7869-.6035 1.807 0 3.3214.46521 4.543 1.3956 1.2218.90526 2.0616 2.16256 2.5197 3.77186Zm-2.9395 9.2412c.2545-.5281.4326-1.119.5344-1.7728.1018-.679.1527-1.6094.1527-2.7912 0-1.2322-.0764-2.1878-.2291-2.8667-.1272-.704-.3436-1.3326-.6489-1.8859-.331-.8298-.8654-1.4962-1.6035-1.9991-.7381-.5029-1.6162-.7544-2.6342-.7544-.9672 0-1.8071.2641-2.5196.7921-.6873.503-1.1836 1.1819-1.4889 2.0368-.2546.5281-.4454 1.1315-.5728 1.8105-.1018.6789-.1527 1.6345-.1527 2.8667 0 1.207.0509 2.15.1527 2.8289.1274.6538.3055 1.2447.5345 1.7727.3309.8802.8399 1.5843 1.5272 2.1123.6871.5281 1.5398.7922 2.5578.7922 1.069 0 1.9852-.2641 2.7487-.7922.789-.528 1.3362-1.2447 1.6417-2.1499ZM108.748 27.8492c-1.425 0-2.698-.2263-3.818-.679-1.094-.4525-1.947-1.056-2.557-1.8104-.586-.7544-.879-1.5968-.879-2.5273V22.38c0-.2515.128-.3772.382-.3772h1.833c.254 0 .381.1257.381.3772v.3017c0 .8299.433 1.559 1.298 2.1877.891.6036 1.998.9053 3.322.9053 1.323 0 2.392-.2893 3.207-.8676.814-.6035 1.221-1.3579 1.221-2.2631 0-.6287-.216-1.1441-.649-1.5465-.407-.4023-.903-.7167-1.489-.9429-.559-.2264-1.438-.5156-2.634-.8675-1.425-.4024-2.596-.8048-3.512-1.2071-.916-.4024-1.692-.9556-2.329-1.6597-.611-.7291-.916-1.647-.916-2.7534 0-1.6093.636-2.8918 1.909-3.84735 1.272-.95555 2.952-1.43332 5.039-1.43332 1.4 0 2.634.22632 3.703.67894 1.095.45263 1.935 1.08133 2.52 1.88593.585.7796.878 1.6597.878 2.6404v.1131c0 .2515-.127.3771-.382.3771h-1.794c-.255 0-.382-.1256-.382-.3771v-.1131c0-.855-.42-1.5717-1.26-2.15-.814-.5784-1.921-.8676-3.321-.8676-1.298 0-2.342.2641-3.131.7921-.789.5029-1.183 1.207-1.183 2.1123 0 .855.382 1.5088 1.145 1.9613.764.4527 1.947.9054 3.551 1.3579 1.476.4276 2.672.8298 3.588 1.207.917.3772 1.706.9304 2.367 1.6597.662.7041.993 1.6344.993 2.7912 0 1.6345-.649 2.9421-1.947 3.9228-1.298.9807-3.016 1.471-5.154 1.471ZM135.604 14.9115c.101.704.152 1.5842.152 2.6404v1.2069c0 .2515-.128.3772-.382.3772h-12.33c-.103 0-.154.0502-.154.1509.051 1.383.128 2.2757.229 2.678.28 1.1315.879 2.0243 1.794 2.6781.917.6538 2.087.9807 3.513.9807 1.069 0 2.01-.239 2.825-.7167.815-.4778 1.451-1.1568 1.909-2.0368.153-.2263.331-.2766.535-.1509l1.488.8675c.204.1258.255.3018.154.5281-.637 1.207-1.591 2.1626-2.865 2.8667-1.272.6788-2.735 1.0183-4.39 1.0183-1.807-.0252-3.321-.4526-4.542-1.2824-1.223-.8298-2.1-1.9866-2.635-3.4701-.457-1.207-.686-2.9421-.686-5.2052 0-1.0562.011-1.9111.037-2.5649.051-.679.153-1.2825.306-1.8106.432-1.6345 1.298-2.942 2.596-3.92271 1.323-.98069 2.914-1.47104 4.772-1.47104 2.316 0 4.097.57836 5.344 1.73505 1.248 1.1567 2.024 2.7912 2.33 4.9035Zm-7.674-4.3c-1.247 0-2.29.3269-3.131.9807-.814.6287-1.349 1.4836-1.603 2.5649-.152.528-.255 1.3831-.306 2.5649 0 .1006.051.1509.154.1509h9.887c.101 0 .153-.0503.153-.1509-.052-1.1315-.127-1.9362-.229-2.4141-.28-1.1315-.853-2.0241-1.718-2.678-.84-.6789-1.909-1.0184-3.207-1.0184ZM149.552 10.4231c0 .2514-.127.3772-.382.3772h-4.314c-.101 0-.152.0503-.152.1508v11.1271c0 1.207.267 2.062.801 2.5649.561.4778 1.425.7167 2.596.7167h.954c.255 0 .383.1257.383.3772v1.5464c0 .2515-.128.3772-.383.3772-.305.0252-.776.0378-1.411.0378-1.833 0-3.22-.3395-4.163-1.0185-.941-.6789-1.412-1.9362-1.412-3.7718v-11.957c0-.1005-.051-.1508-.153-.1508h-2.329c-.254 0-.381-.1258-.381-.3772V8.95203c0-.25145.127-.37718.381-.37718h2.329c.102 0 .153-.05029.153-.15088V4.04858c0-.25146.127-.37719.382-.37719h1.87c.255 0 .383.12573.383.37719v4.37539c0 .10059.051.15088.152.15088h4.314c.255 0 .382.12573.382.37718v1.47107Z"/></g><defs><clipPath id="clip0_2780_7565"><path fill="#fff" d="M0 0h150v28H0z"/></clipPath></defs></svg>