<svg width="32" height="32" viewBox="0 0 32 32" fill="none" xmlns="http://www.w3.org/2000/svg">
  <g clip-path="url(#clip0_2144_5004)">
  <path d="M28 8.3831C27.117 8.77471 26.168 9.03939 25.172 9.15843C26.1886 8.54901 26.9693 7.58406 27.3369 6.43432C26.3856 6.99853 25.3318 7.40831 24.2102 7.62918C23.312 6.67222 22.0323 6.07422 20.6162 6.07422C17.8968 6.07422 15.6921 8.27881 15.6921 10.998C15.6921 11.3839 15.7358 11.7597 15.8197 12.1201C11.7274 11.9148 8.09929 9.95448 5.67076 6.97552C5.24692 7.70275 5.0041 8.54858 5.0041 9.45094C5.0041 11.1592 5.87346 12.6663 7.19464 13.5493C6.38745 13.5237 5.62827 13.3022 4.96434 12.9334C4.96399 12.954 4.96399 12.9746 4.96399 12.9953C4.96399 15.381 6.66125 17.3711 8.91377 17.8234C8.50056 17.936 8.06558 17.9961 7.61646 17.9961C7.2992 17.9961 6.99072 17.9653 6.69014 17.9078C7.31667 19.864 9.13508 21.2876 11.2897 21.3273C9.60456 22.6479 7.48144 23.4351 5.17459 23.4351C4.77718 23.4351 4.38521 23.4118 4 23.3664C6.17904 24.7634 8.76726 25.5785 11.5479 25.5785C20.6047 25.5785 25.5572 18.0756 25.5572 11.569C25.5572 11.3555 25.5525 11.1431 25.543 10.932C26.505 10.2378 27.3398 9.37052 28 8.3831Z" fill="white"/>
  </g>
  <defs>
  <clipPath id="clip0_2144_5004">
  <rect width="24" height="19.5938" fill="white" transform="translate(4 6)"/>
  </clipPath>
  </defs>
</svg>
  