<svg width="104" height="33" viewBox="0 0 104 33" fill="none" xmlns="http://www.w3.org/2000/svg">
  <path d="M8.24501 0.179688L26.8159 32.3169H18.7093L13.4978 23.2589L8.24501 32.3169H0.179688L9.44447 16.269L0.179688 0.179688H8.24501ZM26.7746 0.179688L18.6265 14.325C16.1697 9.94369 16.1857 4.63 18.6343 0.310282L18.7093 0.179688H26.7746Z" fill="#464646"/>
  <path d="M37.0736 7.625C39.1003 7.66636 40.8788 8.24541 42.4091 9.36215L41.0028 11.4715C39.762 10.6443 38.3971 10.1894 36.9495 10.148C36.1636 10.148 35.5432 10.3548 35.0469 10.727C34.5092 11.1407 34.2197 11.7611 34.2197 12.5469C34.2197 13.0432 34.3851 13.4982 34.7574 13.8705C35.1296 14.2841 35.7087 14.5736 36.5359 14.6977C36.9909 14.7804 37.6113 14.8631 38.3971 14.9458C39.9275 15.1526 41.0856 15.7317 41.8301 16.6416C42.5745 17.5516 42.9054 18.5856 42.9054 19.8264C42.7813 23.1766 40.8788 24.7897 37.1149 24.831C34.6747 24.831 32.6066 24.0452 30.8281 22.5148L32.4826 20.6122C33.8061 21.729 35.3364 22.2667 37.1563 22.308C39.3071 22.2667 40.3824 21.4808 40.4238 19.9505C40.4238 18.6683 39.7207 17.9238 38.273 17.6756C37.6113 17.5929 36.8668 17.4688 36.0809 17.3448C34.6747 17.0966 33.5993 16.5589 32.8548 15.7317C32.1103 14.8631 31.6967 13.8291 31.6967 12.5883C31.6967 11.0993 32.193 9.89984 33.1443 8.9899C34.0543 8.07997 35.3778 7.625 37.0736 7.625ZM58.6638 7.74908V10.0239H54.1555V24.7069H51.6739V10.0239H47.1656V7.74908H58.6638ZM68.3009 7.74908L74.2568 24.7069H71.7338L70.4516 20.9018H64.2062L62.924 24.7069H60.2769L66.2328 7.74908H68.3009ZM87.5749 7.74908V10.0239H83.0666V24.7069H80.585V10.0239H76.0767V7.74908H87.5749ZM103.002 7.74908V10.148H94.9785V14.9872H101.803V17.262H94.9785V22.2667H103.002V24.6656H92.4968V7.74908H103.002ZM67.3909 11.2234H67.3496L64.9507 18.6269H69.7485L67.3909 11.2234Z" fill="#464646"/>
</svg>
  