<svg width="1440" height="1440" viewBox="0 0 1440 1440" fill="none" xmlns="http://www.w3.org/2000/svg">
<g clip-path="url(#clip0_659_1351)">
<rect width="1440" height="1440" fill="white"/>
<path d="M-53.3333 80V0M-26.6667 0V80M0 80H-80M0 80H80M0 80V0M0 80V160M-80 80V0M-80 80V160M-80 0H0M-80 0V-80H0M53.3333 -80V0M26.6667 0V-80M0 -80H80M0 -80V0M80 -80V0M80 -80H160M80 0H0M80 0V80M80 0H160M0 26.6667H80M80 53.3333H0M80 80V160M80 80H160M-80 -53.3333H0M0 -26.6667H-80M-53.3333 240V160M-26.6667 160V240M0 240H-80M0 240H80M0 240V160M0 240V320M-80 240V160M-80 240V320M-80 160H0M53.3333 80V160M26.6667 160V80M80 160H0M80 160V240M80 160H160M0 186.667H80M80 213.333H0M80 240V320M80 240H160M-80 106.667H0M0 133.333H-80M-53.3333 400V320M-26.6667 320V400M0 400H-80M0 400H80M0 400V320M0 400V480M-80 400V320M-80 400V480M-80 320H0M53.3333 240V320M26.6667 320V240M80 320H0M80 320V400M80 320H160M0 346.667H80M80 373.333H0M80 400V480M80 400H160M-80 266.667H0M0 293.333H-80M-53.3333 560V480M-26.6667 480V560M0 560H-80M0 560H80M0 560V480M0 560V640M-80 560V480M-80 560V640M-80 480H0M53.3333 400V480M26.6667 480V400M80 480H0M80 480V560M80 480H160M0 506.667H80M80 533.333H0M80 560V640M80 560H160M-80 426.667H0M0 453.333H-80M-53.3333 720V640M-26.6667 640V720M0 720H-80M0 720H80M0 720V640M0 720V800M-80 720V640M-80 720V800M-80 640H0M53.3333 560V640M26.6667 640V560M80 640H0M80 640V720M80 640H160M0 666.667H80M80 693.333H0M80 720V800M80 720H160M-80 586.667H0M0 613.333H-80M-53.3333 880V800M-26.6667 800V880M0 880H-80M0 880H80M0 880V800M0 880V960M-80 880V800M-80 880V960M-80 800H0M53.3333 720V800M26.6667 800V720M80 800H0M80 800V880M80 800H160M0 826.667H80M80 853.333H0M80 880V960M80 880H160M-80 746.667H0M0 773.333H-80M-53.3333 1040V960M-26.6667 960V1040M0 1040H-80M0 1040H80M0 1040V960M0 1040V1120M-80 1040V960M-80 1040V1120M-80 960H0M53.3333 880V960M26.6667 960V880M80 960H0M80 960V1040M80 960H160M0 986.667H80M80 1013.33H0M80 1040V1120M80 1040H160M-80 906.667H0M0 933.333H-80M-53.3333 1200V1120M-26.6667 1120V1200M0 1200H-80M0 1200H80M0 1200V1120M0 1200V1280M-80 1200V1120M-80 1200V1280M-80 1120H0M53.3333 1040V1120M26.6667 1120V1040M80 1120H0M80 1120V1200M80 1120H160M0 1146.67H80M80 1173.33H0M80 1200V1280M80 1200H160M-80 1066.67H0M0 1093.33H-80M-53.3333 1360V1280M-26.6667 1280V1360M0 1360H-80M0 1360H80M0 1360V1280M0 1360V1440M-80 1360V1280M-80 1360V1440M-80 1280H0M53.3333 1200V1280M26.6667 1280V1200M80 1280H0M80 1280V1360M80 1280H160M0 1306.67H80M80 1333.33H0M80 1360V1440M80 1360H160M-80 1226.67H0M0 1253.33H-80M-53.3333 1520V1440M-26.6667 1440V1520M0 1520H-80V1440M0 1520H80M0 1520V1440M-80 1440H0M53.3333 1360V1440M26.6667 1440V1360M80 1440H0M80 1440V1520M80 1440H160M0 1466.67H80M80 1493.33H0M80 1520H160M-80 1386.67H0M0 1413.33H-80M106.667 80V0M133.333 0V80M160 80H240M160 80V0M160 80V160M213.333 -80V0M186.667 0V-80M160 -80H240M160 -80V0M240 -80V0M240 -80H320M240 0H160M240 0V80M240 0H320M160 26.6667H240M240 53.3333H160M240 80V160M240 80H320M80 -53.3333H160M160 -26.6667H80M106.667 240V160M133.333 160V240M160 240H240M160 240V160M160 240V320M213.333 80V160M186.667 160V80M240 160H160M240 160V240M240 160H320M160 186.667H240M240 213.333H160M240 240V320M240 240H320M80 106.667H160M160 133.333H80M106.667 400V320M133.333 320V400M160 400H240M160 400V320M160 400V480M213.333 240V320M186.667 320V240M240 320H160M240 320V400M240 320H320M160 346.667H240M240 373.333H160M240 400V480M240 400H320M80 266.667H160M160 293.333H80M106.667 560V480M133.333 480V560M160 560H240M160 560V480M160 560V640M213.333 400V480M186.667 480V400M240 480H160M240 480V560M240 480H320M160 506.667H240M240 533.333H160M240 560V640M240 560H320M80 426.667H160M160 453.333H80M106.667 720V640M133.333 640V720M160 720H240M160 720V640M160 720V800M213.333 560V640M186.667 640V560M240 640H160M240 640V720M240 640H320M160 666.667H240M240 693.333H160M240 720V800M240 720H320M80 586.667H160M160 613.333H80M106.667 880V800M133.333 800V880M160 880H240M160 880V800M160 880V960M213.333 720V800M186.667 800V720M240 800H160M240 800V880M240 800H320M160 826.667H240M240 853.333H160M240 880V960M240 880H320M80 746.667H160M160 773.333H80M106.667 1040V960M133.333 960V1040M160 1040H240M160 1040V960M160 1040V1120M213.333 880V960M186.667 960V880M240 960H160M240 960V1040M240 960H320M160 986.667H240M240 1013.33H160M240 1040V1120M240 1040H320M80 906.667H160M160 933.333H80M106.667 1200V1120M133.333 1120V1200M160 1200H240M160 1200V1120M160 1200V1280M213.333 1040V1120M186.667 1120V1040M240 1120H160M240 1120V1200M240 1120H320M160 1146.67H240M240 1173.33H160M240 1200V1280M240 1200H320M80 1066.67H160M160 1093.33H80M106.667 1360V1280M133.333 1280V1360M160 1360H240M160 1360V1280M160 1360V1440M213.333 1200V1280M186.667 1280V1200M240 1280H160M240 1280V1360M240 1280H320M160 1306.67H240M240 1333.33H160M240 1360V1440M240 1360H320M80 1226.67H160M160 1253.33H80M106.667 1520V1440M133.333 1440V1520M160 1520H240M160 1520V1440M213.333 1360V1440M186.667 1440V1360M240 1440H160M240 1440V1520M240 1440H320M160 1466.67H240M240 1493.33H160M240 1520H320M80 1386.67H160M160 1413.33H80M266.667 80V0M293.333 0V80M320 80H400M320 80V0M320 80V160M373.333 -80V0M346.667 0V-80M320 -80H400M320 -80V0M400 -80V0M400 -80H480M400 0H320M400 0V80M400 0H480M320 26.6667H400M400 53.3333H320M400 80V160M400 80H480M240 -53.3333H320M320 -26.6667H240M266.667 240V160M293.333 160V240M320 240H400M320 240V160M320 240V320M373.333 80V160M346.667 160V80M400 160H320M400 160V240M400 160H480M320 186.667H400M400 213.333H320M400 240V320M400 240H480M240 106.667H320M320 133.333H240M266.667 400V320M293.333 320V400M320 400H400M320 400V320M320 400V480M373.333 240V320M346.667 320V240M400 320H320M400 320V400M400 320H480M320 346.667H400M400 373.333H320M400 400V480M400 400H480M240 266.667H320M320 293.333H240M266.667 560V480M293.333 480V560M320 560H400M320 560V480M320 560V640M373.333 400V480M346.667 480V400M400 480H320M400 480V560M400 480H480M320 506.667H400M400 533.333H320M400 560V640M400 560H480M240 426.667H320M320 453.333H240M266.667 720V640M293.333 640V720M320 720H400M320 720V640M320 720V800M373.333 560V640M346.667 640V560M400 640H320M400 640V720M400 640H480M320 666.667H400M400 693.333H320M400 720V800M400 720H480M240 586.667H320M320 613.333H240M266.667 880V800M293.333 800V880M320 880H400M320 880V800M320 880V960M373.333 720V800M346.667 800V720M400 800H320M400 800V880M400 800H480M320 826.667H400M400 853.333H320M400 880V960M400 880H480M240 746.667H320M320 773.333H240M266.667 1040V960M293.333 960V1040M320 1040H400M320 1040V960M320 1040V1120M373.333 880V960M346.667 960V880M400 960H320M400 960V1040M400 960H480M320 986.667H400M400 1013.33H320M400 1040V1120M400 1040H480M240 906.667H320M320 933.333H240M266.667 1200V1120M293.333 1120V1200M320 1200H400M320 1200V1120M320 1200V1280M373.333 1040V1120M346.667 1120V1040M400 1120H320M400 1120V1200M400 1120H480M320 1146.67H400M400 1173.33H320M400 1200V1280M400 1200H480M240 1066.67H320M320 1093.33H240M266.667 1360V1280M293.333 1280V1360M320 1360H400M320 1360V1280M320 1360V1440M373.333 1200V1280M346.667 1280V1200M400 1280H320M400 1280V1360M400 1280H480M320 1306.67H400M400 1333.33H320M400 1360V1440M400 1360H480M240 1226.67H320M320 1253.33H240M266.667 1520V1440M293.333 1440V1520M320 1520H400M320 1520V1440M373.333 1360V1440M346.667 1440V1360M400 1440H320M400 1440V1520M400 1440H480M320 1466.67H400M400 1493.33H320M400 1520H480M240 1386.67H320M320 1413.33H240M426.667 80V0M453.333 0V80M480 80H560M480 80V0M480 80V160M533.333 -80V0M506.667 0V-80M480 -80H560M480 -80V0M560 -80V0M560 -80H640M560 0H480M560 0V80M560 0H640M480 26.6667H560M560 53.3333H480M560 80V160M560 80H640M400 -53.3333H480M480 -26.6667H400M426.667 240V160M453.333 160V240M480 240H560M480 240V160M480 240V320M533.333 80V160M506.667 160V80M560 160H480M560 160V240M560 160H640M480 186.667H560M560 213.333H480M560 240V320M560 240H640M400 106.667H480M480 133.333H400M426.667 400V320M453.333 320V400M480 400H560M480 400V320M480 400V480M533.333 240V320M506.667 320V240M560 320H480M560 320V400M560 320H640M480 346.667H560M560 373.333H480M560 400V480M560 400H640M400 266.667H480M480 293.333H400M426.667 560V480M453.333 480V560M480 560H560M480 560V480M480 560V640M533.333 400V480M506.667 480V400M560 480H480M560 480V560M560 480H640M480 506.667H560M560 533.333H480M560 560V640M560 560H640M400 426.667H480M480 453.333H400M426.667 720V640M453.333 640V720M480 720H560M480 720V640M480 720V800M533.333 560V640M506.667 640V560M560 640H480M560 640V720M560 640H640M480 666.667H560M560 693.333H480M560 720V800M560 720H640M400 586.667H480M480 613.333H400M426.667 880V800M453.333 800V880M480 880H560M480 880V800M480 880V960M533.333 720V800M506.667 800V720M560 800H480M560 800V880M560 800H640M480 826.667H560M560 853.333H480M560 880V960M560 880H640M400 746.667H480M480 773.333H400M426.667 1040V960M453.333 960V1040M480 1040H560M480 1040V960M480 1040V1120M533.333 880V960M506.667 960V880M560 960H480M560 960V1040M560 960H640M480 986.667H560M560 1013.33H480M560 1040V1120M560 1040H640M400 906.667H480M480 933.333H400M426.667 1200V1120M453.333 1120V1200M480 1200H560M480 1200V1120M480 1200V1280M533.333 1040V1120M506.667 1120V1040M560 1120H480M560 1120V1200M560 1120H640M480 1146.67H560M560 1173.33H480M560 1200V1280M560 1200H640M400 1066.67H480M480 1093.33H400M426.667 1360V1280M453.333 1280V1360M480 1360H560M480 1360V1280M480 1360V1440M533.333 1200V1280M506.667 1280V1200M560 1280H480M560 1280V1360M560 1280H640M480 1306.67H560M560 1333.33H480M560 1360V1440M560 1360H640M400 1226.67H480M480 1253.33H400M426.667 1520V1440M453.333 1440V1520M480 1520H560M480 1520V1440M533.333 1360V1440M506.667 1440V1360M560 1440H480M560 1440V1520M560 1440H640M480 1466.67H560M560 1493.33H480M560 1520H640M400 1386.67H480M480 1413.33H400M586.667 80V0M613.333 0V80M640 80H720M640 80V0M640 80V160M693.333 -80V0M666.667 0V-80M640 -80H720M640 -80V0M720 -80V0M720 -80H800M720 0H640M720 0V80M720 0H800M640 26.6667H720M720 53.3333H640M720 80V160M720 80H800M560 -53.3333H640M640 -26.6667H560M586.667 240V160M613.333 160V240M640 240H720M640 240V160M640 240V320M693.333 80V160M666.667 160V80M720 160H640M720 160V240M720 160H800M640 186.667H720M720 213.333H640M720 240V320M720 240H800M560 106.667H640M640 133.333H560M586.667 400V320M613.333 320V400M640 400H720M640 400V320M640 400V480M693.333 240V320M666.667 320V240M720 320H640M720 320V400M720 320H800M640 346.667H720M720 373.333H640M720 400V480M720 400H800M560 266.667H640M640 293.333H560M586.667 560V480M613.333 480V560M640 560H720M640 560V480M640 560V640M693.333 400V480M666.667 480V400M720 480H640M720 480V560M720 480H800M640 506.667H720M720 533.333H640M720 560V640M720 560H800M560 426.667H640M640 453.333H560M586.667 720V640M613.333 640V720M640 720H720M640 720V640M640 720V800M693.333 560V640M666.667 640V560M720 640H640M720 640V720M720 640H800M640 666.667H720M720 693.333H640M720 720V800M720 720H800M560 586.667H640M640 613.333H560M586.667 880V800M613.333 800V880M640 880H720M640 880V800M640 880V960M693.333 720V800M666.667 800V720M720 800H640M720 800V880M720 800H800M640 826.667H720M720 853.333H640M720 880V960M720 880H800M560 746.667H640M640 773.333H560M586.667 1040V960M613.333 960V1040M640 1040H720M640 1040V960M640 1040V1120M693.333 880V960M666.667 960V880M720 960H640M720 960V1040M720 960H800M640 986.667H720M720 1013.33H640M720 1040V1120M720 1040H800M560 906.667H640M640 933.333H560M586.667 1200V1120M613.333 1120V1200M640 1200H720M640 1200V1120M640 1200V1280M693.333 1040V1120M666.667 1120V1040M720 1120H640M720 1120V1200M720 1120H800M640 1146.67H720M720 1173.33H640M720 1200V1280M720 1200H800M560 1066.67H640M640 1093.33H560M586.667 1360V1280M613.333 1280V1360M640 1360H720M640 1360V1280M640 1360V1440M693.333 1200V1280M666.667 1280V1200M720 1280H640M720 1280V1360M720 1280H800M640 1306.67H720M720 1333.33H640M720 1360V1440M720 1360H800M560 1226.67H640M640 1253.33H560M586.667 1520V1440M613.333 1440V1520M640 1520H720M640 1520V1440M693.333 1360V1440M666.667 1440V1360M720 1440H640M720 1440V1520M720 1440H800M640 1466.67H720M720 1493.33H640M720 1520H800M560 1386.67H640M640 1413.33H560M746.667 80V0M773.333 0V80M800 80H880M800 80V0M800 80V160M853.333 -80V0M826.667 0V-80M800 -80H880M800 -80V0M880 -80V0M880 -80H960M880 0H800M880 0V80M880 0H960M800 26.6667H880M880 53.3333H800M880 80V160M880 80H960M720 -53.3333H800M800 -26.6667H720M746.667 240V160M773.333 160V240M800 240H880M800 240V160M800 240V320M853.333 80V160M826.667 160V80M880 160H800M880 160V240M880 160H960M800 186.667H880M880 213.333H800M880 240V320M880 240H960M720 106.667H800M800 133.333H720M746.667 400V320M773.333 320V400M800 400H880M800 400V320M800 400V480M853.333 240V320M826.667 320V240M880 320H800M880 320V400M880 320H960M800 346.667H880M880 373.333H800M880 400V480M880 400H960M720 266.667H800M800 293.333H720M746.667 560V480M773.333 480V560M800 560H880M800 560V480M800 560V640M853.333 400V480M826.667 480V400M880 480H800M880 480V560M880 480H960M800 506.667H880M880 533.333H800M880 560V640M880 560H960M720 426.667H800M800 453.333H720M746.667 720V640M773.333 640V720M800 720H880M800 720V640M800 720V800M853.333 560V640M826.667 640V560M880 640H800M880 640V720M880 640H960M800 666.667H880M880 693.333H800M880 720V800M880 720H960M720 586.667H800M800 613.333H720M746.667 880V800M773.333 800V880M800 880H880M800 880V800M800 880V960M853.333 720V800M826.667 800V720M880 800H800M880 800V880M880 800H960M800 826.667H880M880 853.333H800M880 880V960M880 880H960M720 746.667H800M800 773.333H720M746.667 1040V960M773.333 960V1040M800 1040H880M800 1040V960M800 1040V1120M853.333 880V960M826.667 960V880M880 960H800M880 960V1040M880 960H960M800 986.667H880M880 1013.33H800M880 1040V1120M880 1040H960M720 906.667H800M800 933.333H720M746.667 1200V1120M773.333 1120V1200M800 1200H880M800 1200V1120M800 1200V1280M853.333 1040V1120M826.667 1120V1040M880 1120H800M880 1120V1200M880 1120H960M800 1146.67H880M880 1173.33H800M880 1200V1280M880 1200H960M720 1066.67H800M800 1093.33H720M906.667 80V0M933.333 0V80M960 80H1040M960 80V0M960 80V160M1013.33 -80V0M986.667 0V-80M960 -80H1040M960 -80V0M1040 -80V0M1040 -80H1120M1040 0H960M1040 0V80M1040 0H1120M960 26.6667H1040M1040 53.3333H960M1040 80V160M1040 80H1120M880 -53.3333H960M960 -26.6667H880M746.667 1360V1280M773.333 1280V1360M800 1360H880M800 1360V1280M800 1360V1440M853.333 1200V1280M826.667 1280V1200M880 1280H800M880 1280V1360M880 1280H960M800 1306.67H880M880 1333.33H800M880 1360V1440M880 1360H960M720 1226.67H800M800 1253.33H720M746.667 1520V1440M773.333 1440V1520M800 1520H880M800 1520V1440M853.333 1360V1440M826.667 1440V1360M880 1440H800M880 1440V1520M880 1440H960M800 1466.67H880M880 1493.33H800M880 1520H960M720 1386.67H800M800 1413.33H720M906.667 240V160M933.333 160V240M960 240H1040M960 240V160M960 240V320M1013.33 80V160M986.667 160V80M1040 160H960M1040 160V240M1040 160H1120M960 186.667H1040M1040 213.333H960M1040 240V320M1040 240H1120M880 106.667H960M960 133.333H880M906.667 400V320M933.333 320V400M960 400H1040M960 400V320M960 400V480M1013.33 240V320M986.667 320V240M1040 320H960M1040 320V400M1040 320H1120M960 346.667H1040M1040 373.333H960M1040 400V480M1040 400H1120M880 266.667H960M960 293.333H880M906.667 560V480M933.333 480V560M960 560H1040M960 560V480M960 560V640M1013.33 400V480M986.667 480V400M1040 480H960M1040 480V560M1040 480H1120M960 506.667H1040M1040 533.333H960M1040 560V640M1040 560H1120M880 426.667H960M960 453.333H880M906.667 720V640M933.333 640V720M960 720H1040M960 720V640M960 720V800M1013.33 560V640M986.667 640V560M1040 640H960M1040 640V720M1040 640H1120M960 666.667H1040M1040 693.333H960M1040 720V800M1040 720H1120M880 586.667H960M960 613.333H880M906.667 880V800M933.333 800V880M960 880H1040M960 880V800M960 880V960M1013.33 720V800M986.667 800V720M1040 800H960M1040 800V880M1040 800H1120M960 826.667H1040M1040 853.333H960M1040 880V960M1040 880H1120M880 746.667H960M960 773.333H880M906.667 1040V960M933.333 960V1040M960 1040H1040M960 1040V960M960 1040V1120M1013.33 880V960M986.667 960V880M1040 960H960M1040 960V1040M1040 960H1120M960 986.667H1040M1040 1013.33H960M1040 1040V1120M1040 1040H1120M880 906.667H960M960 933.333H880M906.667 1200V1120M933.333 1120V1200M960 1200H1040M960 1200V1120M960 1200V1280M1013.33 1040V1120M986.667 1120V1040M1040 1120H960M1040 1120V1200M1040 1120H1120M960 1146.67H1040M1040 1173.33H960M1040 1200V1280M1040 1200H1120M880 1066.67H960M960 1093.33H880M906.667 1360V1280M933.333 1280V1360M960 1360H1040M960 1360V1280M960 1360V1440M1013.33 1200V1280M986.667 1280V1200M1040 1280H960M1040 1280V1360M1040 1280H1120M960 1306.67H1040M1040 1333.33H960M1040 1360V1440M1040 1360H1120M880 1226.67H960M960 1253.33H880M906.667 1520V1440M933.333 1440V1520M960 1520H1040M960 1520V1440M1013.33 1360V1440M986.667 1440V1360M1040 1440H960M1040 1440V1520M1040 1440H1120M960 1466.67H1040M1040 1493.33H960M1040 1520H1120M880 1386.67H960M960 1413.33H880M1066.67 80V0M1093.33 0V80M1120 80H1200M1120 80V0M1120 80V160M1173.33 -80V0M1146.67 0V-80M1120 -80H1200M1120 -80V0M1200 -80V0M1200 -80H1280M1200 0H1120M1200 0V80M1200 0H1280M1120 26.6667H1200M1200 53.3333H1120M1200 80V160M1200 80H1280M1040 -53.3333H1120M1120 -26.6667H1040M1066.67 240V160M1093.33 160V240M1120 240H1200M1120 240V160M1120 240V320M1173.33 80V160M1146.67 160V80M1200 160H1120M1200 160V240M1200 160H1280M1120 186.667H1200M1200 213.333H1120M1200 240V320M1200 240H1280M1040 106.667H1120M1120 133.333H1040M1066.67 400V320M1093.33 320V400M1120 400H1200M1120 400V320M1120 400V480M1173.33 240V320M1146.67 320V240M1200 320H1120M1200 320V400M1200 320H1280M1120 346.667H1200M1200 373.333H1120M1200 400V480M1200 400H1280M1040 266.667H1120M1120 293.333H1040M1066.67 560V480M1093.33 480V560M1120 560H1200M1120 560V480M1120 560V640M1173.33 400V480M1146.67 480V400M1200 480H1120M1200 480V560M1200 480H1280M1120 506.667H1200M1200 533.333H1120M1200 560V640M1200 560H1280M1040 426.667H1120M1120 453.333H1040M1066.67 720V640M1093.33 640V720M1120 720H1200M1120 720V640M1120 720V800M1173.33 560V640M1146.67 640V560M1200 640H1120M1200 640V720M1200 640H1280M1120 666.667H1200M1200 693.333H1120M1200 720V800M1200 720H1280M1040 586.667H1120M1120 613.333H1040M1066.67 880V800M1093.33 800V880M1120 880H1200M1120 880V800M1120 880V960M1173.33 720V800M1146.67 800V720M1200 800H1120M1200 800V880M1200 800H1280M1120 826.667H1200M1200 853.333H1120M1200 880V960M1200 880H1280M1040 746.667H1120M1120 773.333H1040M1066.67 1040V960M1093.33 960V1040M1120 1040H1200M1120 1040V960M1120 1040V1120M1173.33 880V960M1146.67 960V880M1200 960H1120M1200 960V1040M1200 960H1280M1120 986.667H1200M1200 1013.33H1120M1200 1040V1120M1200 1040H1280M1040 906.667H1120M1120 933.333H1040M1066.67 1200V1120M1093.33 1120V1200M1120 1200H1200M1120 1200V1120M1120 1200V1280M1173.33 1040V1120M1146.67 1120V1040M1200 1120H1120M1200 1120V1200M1200 1120H1280M1120 1146.67H1200M1200 1173.33H1120M1200 1200V1280M1200 1200H1280M1040 1066.67H1120M1120 1093.33H1040M1066.67 1360V1280M1093.33 1280V1360M1120 1360H1200M1120 1360V1280M1120 1360V1440M1173.33 1200V1280M1146.67 1280V1200M1200 1280H1120M1200 1280V1360M1200 1280H1280M1120 1306.67H1200M1200 1333.33H1120M1200 1360V1440M1200 1360H1280M1040 1226.67H1120M1120 1253.33H1040M1066.67 1520V1440M1093.33 1440V1520M1120 1520H1200M1120 1520V1440M1173.33 1360V1440M1146.67 1440V1360M1200 1440H1120M1200 1440V1520M1200 1440H1280M1120 1466.67H1200M1200 1493.33H1120M1200 1520H1280M1040 1386.67H1120M1120 1413.33H1040M1226.67 80V0M1253.33 0V80M1280 80H1360M1280 80V0M1280 80V160M1333.33 -80V0M1306.67 0V-80M1280 -80H1360M1280 -80V0M1360 -80V0M1360 -80H1440M1360 0H1280M1360 0V80M1360 0H1440M1280 26.6667H1360M1360 53.3333H1280M1360 80V160M1360 80H1440M1200 -53.3333H1280M1280 -26.6667H1200M1226.67 240V160M1253.33 160V240M1280 240H1360M1280 240V160M1280 240V320M1333.33 80V160M1306.67 160V80M1360 160H1280M1360 160V240M1360 160H1440M1280 186.667H1360M1360 213.333H1280M1360 240V320M1360 240H1440M1200 106.667H1280M1280 133.333H1200M1226.67 400V320M1253.33 320V400M1280 400H1360M1280 400V320M1280 400V480M1333.33 240V320M1306.67 320V240M1360 320H1280M1360 320V400M1360 320H1440M1280 346.667H1360M1360 373.333H1280M1360 400V480M1360 400H1440M1200 266.667H1280M1280 293.333H1200M1226.67 560V480M1253.33 480V560M1280 560H1360M1280 560V480M1280 560V640M1333.33 400V480M1306.67 480V400M1360 480H1280M1360 480V560M1360 480H1440M1280 506.667H1360M1360 533.333H1280M1360 560V640M1360 560H1440M1200 426.667H1280M1280 453.333H1200M1226.67 720V640M1253.33 640V720M1280 720H1360M1280 720V640M1280 720V800M1333.33 560V640M1306.67 640V560M1360 640H1280M1360 640V720M1360 640H1440M1280 666.667H1360M1360 693.333H1280M1360 720V800M1360 720H1440M1200 586.667H1280M1280 613.333H1200M1226.67 880V800M1253.33 800V880M1280 880H1360M1280 880V800M1280 880V960M1333.33 720V800M1306.67 800V720M1360 800H1280M1360 800V880M1360 800H1440M1280 826.667H1360M1360 853.333H1280M1360 880V960M1360 880H1440M1200 746.667H1280M1280 773.333H1200M1226.67 1040V960M1253.33 960V1040M1280 1040H1360M1280 1040V960M1280 1040V1120M1333.33 880V960M1306.67 960V880M1360 960H1280M1360 960V1040M1360 960H1440M1280 986.667H1360M1360 1013.33H1280M1360 1040V1120M1360 1040H1440M1200 906.667H1280M1280 933.333H1200M1226.67 1200V1120M1253.33 1120V1200M1280 1200H1360M1280 1200V1120M1280 1200V1280M1333.33 1040V1120M1306.67 1120V1040M1360 1120H1280M1360 1120V1200M1360 1120H1440M1280 1146.67H1360M1360 1173.33H1280M1360 1200V1280M1360 1200H1440M1200 1066.67H1280M1280 1093.33H1200M1226.67 1360V1280M1253.33 1280V1360M1280 1360H1360M1280 1360V1280M1280 1360V1440M1333.33 1200V1280M1306.67 1280V1200M1360 1280H1280M1360 1280V1360M1360 1280H1440M1280 1306.67H1360M1360 1333.33H1280M1360 1360V1440M1360 1360H1440M1200 1226.67H1280M1280 1253.33H1200M1226.67 1520V1440M1253.33 1440V1520M1280 1520H1360M1280 1520V1440M1333.33 1360V1440M1306.67 1440V1360M1360 1440H1280M1360 1440V1520M1360 1440H1440M1280 1466.67H1360M1360 1493.33H1280M1360 1520H1440M1200 1386.67H1280M1280 1413.33H1200M1386.67 80V0M1413.33 0V80M1440 80H1520M1440 80V0M1440 80V160M1493.33 -80V0M1466.67 0V-80M1440 -80H1520V0M1440 -80V0M1520 0H1440M1520 0V80M1440 26.6667H1520M1520 53.3333H1440M1520 80V160M1360 -53.3333H1440M1440 -26.6667H1360M1386.67 240V160M1413.33 160V240M1440 240H1520M1440 240V160M1440 240V320M1493.33 80V160M1466.67 160V80M1520 160H1440M1520 160V240M1440 186.667H1520M1520 213.333H1440M1520 240V320M1360 106.667H1440M1440 133.333H1360M1386.67 400V320M1413.33 320V400M1440 400H1520M1440 400V320M1440 400V480M1493.33 240V320M1466.67 320V240M1520 320H1440M1520 320V400M1440 346.667H1520M1520 373.333H1440M1520 400V480M1360 266.667H1440M1440 293.333H1360M1386.67 560V480M1413.33 480V560M1440 560H1520M1440 560V480M1440 560V640M1493.33 400V480M1466.67 480V400M1520 480H1440M1520 480V560M1440 506.667H1520M1520 533.333H1440M1520 560V640M1360 426.667H1440M1440 453.333H1360M1386.67 720V640M1413.33 640V720M1440 720H1520M1440 720V640M1440 720V800M1493.33 560V640M1466.67 640V560M1520 640H1440M1520 640V720M1440 666.667H1520M1520 693.333H1440M1520 720V800M1360 586.667H1440M1440 613.333H1360M1386.67 880V800M1413.33 800V880M1440 880H1520M1440 880V800M1440 880V960M1493.33 720V800M1466.67 800V720M1520 800H1440M1520 800V880M1440 826.667H1520M1520 853.333H1440M1520 880V960M1360 746.667H1440M1440 773.333H1360M1386.67 1040V960M1413.33 960V1040M1440 1040H1520M1440 1040V960M1440 1040V1120M1493.33 880V960M1466.67 960V880M1520 960H1440M1520 960V1040M1440 986.667H1520M1520 1013.33H1440M1520 1040V1120M1360 906.667H1440M1440 933.333H1360M1386.67 1200V1120M1413.33 1120V1200M1440 1200H1520M1440 1200V1120M1440 1200V1280M1493.33 1040V1120M1466.67 1120V1040M1520 1120H1440M1520 1120V1200M1440 1146.67H1520M1520 1173.33H1440M1520 1200V1280M1360 1066.67H1440M1440 1093.33H1360M1386.67 1360V1280M1413.33 1280V1360M1440 1360H1520M1440 1360V1280M1440 1360V1440M1493.33 1200V1280M1466.67 1280V1200M1520 1280H1440M1520 1280V1360M1440 1306.67H1520M1520 1333.33H1440M1520 1360V1440M1360 1226.67H1440M1440 1253.33H1360M1386.67 1520V1440M1413.33 1440V1520M1440 1520H1520V1440M1440 1520V1440M1493.33 1360V1440M1466.67 1440V1360M1520 1440H1440M1440 1466.67H1520M1520 1493.33H1440M1360 1386.67H1440M1440 1413.33H1360" stroke="#0A0A0A"/>
</g>
<defs>
<clipPath id="clip0_659_1351">
<rect width="1440" height="1440" fill="white"/>
</clipPath>
</defs>
</svg>
