<svg width="1440" height="1440" viewBox="0 0 1440 1440" fill="none" xmlns="http://www.w3.org/2000/svg">
<g clip-path="url(#clip0_659_1366)">
<rect width="1440" height="1440" fill="white"/>
<path d="M-40 40H-20V20H20V40H40M-40 40V20H-60V-20H-40V-40M-40 40V60H-20V100H-40V120M-40 40H-60V60H-80M40 40V20H60V-20H40V-40M40 40V60H20V80M40 40H60V60H100V40H120M40 -40H20V-20H-20V-40H-40M40 -40V-60H20V-80M40 -40H60V-60H100V-40H120M-40 -40H-60V-60H-80M-40 -40V-60H-20V-80M80 80H20M80 80V-80M80 80H0M80 80V0M80 80H160M80 80V240M80 80V160M20 80V100H40V120M-80 0V-80H0M-80 0H80M-80 0V80M0 -80V80M0 -80H80M80 0V-80M80 0H240M-80 80H0M-80 80V160M0 80V240M80 -80H160M120 40H140V20H180V40H200M120 40V20H100V-20H120V-40M120 40V60H140V100H120V120M200 40V20H220V-20H200V-40M200 40V60H180V80M200 40H220V60H260V40H280M200 -40H180V-20H140V-40H120M200 -40V-60H180V-80M200 -40H220V-60H260V-40H280M120 -40V-60H140V-80M240 80H180M240 80V-80M240 80H160M240 80V0M240 80H320M240 80V240M240 80V160M180 80V100H200V120M160 -80V80M160 -80H240M240 0V-80M240 0H400M160 80V240M240 -80H320M280 40H300V20H340V40H360M280 40V20H260V-20H280V-40M280 40V60H300V100H280V120M360 40V20H380V-20H360V-40M360 40V60H340V80M360 40H380V60H420V40H440M360 -40H340V-20H300V-40H280M360 -40V-60H340V-80M360 -40H380V-60H420V-40H440M280 -40V-60H300V-80M400 80H340M400 80V-80M400 80H320M400 80V0M400 80H480M400 80V240M400 80V160M340 80V100H360V120M320 -80V80M320 -80H400M400 0V-80M400 0H560M320 80V240M400 -80H480M440 40H460V20H500V40H520M440 40V20H420V-20H440V-40M440 40V60H460V100H440V120M520 40V20H540V-20H520V-40M520 40V60H500V80M520 40H540V60H580V40H600M520 -40H500V-20H460V-40H440M520 -40V-60H500V-80M520 -40H540V-60H580V-40H600M440 -40V-60H460V-80M560 80H500M560 80V-80M560 80H480M560 80V0M560 80H640M560 80V240M560 80V160M500 80V100H520V120M480 -80V80M480 -80H560M560 0V-80M560 0H720M480 80V240M560 -80H640M600 40H620V20H660V40H680M600 40V20H580V-20H600V-40M600 40V60H620V100H600V120M680 40V20H700V-20H680V-40M680 40V60H660V80M680 40H700V60H740V40H760M680 -40H660V-20H620V-40H600M680 -40V-60H660V-80M680 -40H700V-60H740V-40H760M600 -40V-60H620V-80M720 80H660M720 80V-80M720 80H640M720 80V0M720 80H800M720 80V240M720 80V160M660 80V100H680V120M640 -80V80M640 -80H720M720 0V-80M720 0H880M640 80V240M720 -80H800M760 40H780V20H820V40H840M760 40V20H740V-20H760V-40M760 40V60H780V100H760V120M840 40V20H860V-20H840V-40M840 40V60H820V80M840 40H860V60H900V40H920M840 -40H820V-20H780V-40H760M840 -40V-60H820V-80M840 -40H860V-60H900V-40H920M760 -40V-60H780V-80M880 80H820M880 80V-80M880 80H800M880 80V0M880 80H960M880 80V240M880 80V160M820 80V100H840V120M800 -80V80M800 -80H880M880 0V-80M880 0H1040M800 80V240M880 -80H960M920 40H940V20H980V40H1000M920 40V20H900V-20H920V-40M920 40V60H940V100H920V120M1000 40V20H1020V-20H1000V-40M1000 40V60H980V80M1000 40H1020V60H1060V40H1080M1000 -40H980V-20H940V-40H920M1000 -40V-60H980V-80M1000 -40H1020V-60H1060V-40H1080M920 -40V-60H940V-80M1040 80H980M1040 80V-80M1040 80H960M1040 80V0M1040 80H1120M1040 80V240M1040 80V160M980 80V100H1000V120M960 -80V80M960 -80H1040M1040 0V-80M1040 0H1200M960 80V240M1040 -80H1120M1080 40H1100V20H1140V40H1160M1080 40V20H1060V-20H1080V-40M1080 40V60H1100V100H1080V120M1160 40V20H1180V-20H1160V-40M1160 40V60H1140V80M1160 40H1180V60H1220V40H1240M1160 -40H1140V-20H1100V-40H1080M1160 -40V-60H1140V-80M1160 -40H1180V-60H1220V-40H1240M1080 -40V-60H1100V-80M1200 80H1140M1200 80V-80M1200 80H1120M1200 80V0M1200 80H1280M1200 80V240M1200 80V160M1140 80V100H1160V120M1120 -80V80M1120 -80H1200M1200 0V-80M1200 0H1360M1120 80V240M1200 -80H1280M1240 40H1260V20H1300V40H1320M1240 40V20H1220V-20H1240V-40M1240 40V60H1260V100H1240V120M1320 40V20H1340V-20H1320V-40M1320 40V60H1300V80M1320 40H1340V60H1380V40H1400M1320 -40H1300V-20H1260V-40H1240M1320 -40V-60H1300V-80M1320 -40H1340V-60H1380V-40H1400M1240 -40V-60H1260V-80M1360 80H1300M1360 80V-80M1360 80H1280M1360 80V0M1360 80H1440M1360 80V240M1360 80V160M1300 80V100H1320V120M1280 -80V80M1280 -80H1360M1360 0V-80M1360 0H1520M1280 80V240M1360 -80H1440M1400 40H1420V20H1460V40H1480M1400 40V20H1380V-20H1400V-40M1400 40V60H1420V100H1400V120M1480 40V20H1500V-20H1480V-40M1480 40V60H1460V80M1480 40H1500V60H1520M1480 -40H1460V-20H1420V-40H1400M1480 -40V-60H1460V-80M1480 -40H1500V-60H1520M1400 -40V-60H1420V-80M1520 80H1460M1520 80V-80H1440M1520 80H1440M1520 80V240M1460 80V100H1480V120M1440 -80V80M1440 80V240M-40 200H-20V180H20V200H40M-40 200V180H-60V140H-40V120M-40 200V220H-20V260H-40V280M-40 200H-60V220H-80M40 200V180H60V140H40V120M40 200V220H20V240M40 200H60V220H100V200H120M40 120H20V140H-20V120H-40M40 120H60V100H100V120H120M-40 120H-60V100H-80M80 240H20M80 240H0M80 240V400M80 240V160M80 240H160M80 240V320M20 240V260H40V280M-80 160H80M-80 160V240M80 160H240M-80 240H0M-80 240V320M0 240V400M-40 360H-20V340H20V360H40M-40 360V340H-60V300H-40V280M-40 360V380H-20V420H-40V440M-40 360H-60V380H-80M40 360V340H60V300H40V280M40 360V380H20V400M40 360H60V380H100V360H120M40 280H20V300H-20V280H-40M40 280H60V260H100V280H120M-40 280H-60V260H-80M80 400H20M80 400H0M80 400V560M80 400V320M80 400H160M80 400V480M20 400V420H40V440M-80 320H80M-80 320V400M80 320H240M-80 400H0M-80 400V480M0 400V560M-40 520H-20V500H20V520H40M-40 520V500H-60V460H-40V440M-40 520V540H-20V580H-40V600M-40 520H-60V540H-80M40 520V500H60V460H40V440M40 520V540H20V560M40 520H60V540H100V520H120M40 440H20V460H-20V440H-40M40 440H60V420H100V440H120M-40 440H-60V420H-80M80 560H20M80 560H0M80 560V720M80 560V480M80 560H160M80 560V640M20 560V580H40V600M-80 480H80M-80 480V560M80 480H240M-80 560H0M-80 560V640M0 560V720M-40 680H-20V660H20V680H40M-40 680V660H-60V620H-40V600M-40 680V700H-20V740H-40V760M-40 680H-60V700H-80M40 680V660H60V620H40V600M40 680V700H20V720M40 680H60V700H100V680H120M40 600H20V620H-20V600H-40M40 600H60V580H100V600H120M-40 600H-60V580H-80M80 720H20M80 720H0M80 720V880M80 720V640M80 720H160M80 720V800M20 720V740H40V760M-80 640H80M-80 640V720M80 640H240M-80 720H0M-80 720V800M0 720V880M-40 840H-20V820H20V840H40M-40 840V820H-60V780H-40V760M-40 840V860H-20V900H-40V920M-40 840H-60V860H-80M40 840V820H60V780H40V760M40 840V860H20V880M40 840H60V860H100V840H120M40 760H20V780H-20V760H-40M40 760H60V740H100V760H120M-40 760H-60V740H-80M80 880H20M80 880H0M80 880V1040M80 880V800M80 880H160M80 880V960M20 880V900H40V920M-80 800H80M-80 800V880M80 800H240M-80 880H0M-80 880V960M0 880V1040M-40 1000H-20V980H20V1000H40M-40 1000V980H-60V940H-40V920M-40 1000V1020H-20V1060H-40V1080M-40 1000H-60V1020H-80M40 1000V980H60V940H40V920M40 1000V1020H20V1040M40 1000H60V1020H100V1000H120M40 920H20V940H-20V920H-40M40 920H60V900H100V920H120M-40 920H-60V900H-80M80 1040H20M80 1040H0M80 1040V1200M80 1040V960M80 1040H160M80 1040V1120M20 1040V1060H40V1080M-80 960H80M-80 960V1040M80 960H240M-80 1040H0M-80 1040V1120M0 1040V1200M-40 1160H-20V1140H20V1160H40M-40 1160V1140H-60V1100H-40V1080M-40 1160V1180H-20V1220H-40V1240M-40 1160H-60V1180H-80M40 1160V1140H60V1100H40V1080M40 1160V1180H20V1200M40 1160H60V1180H100V1160H120M40 1080H20V1100H-20V1080H-40M40 1080H60V1060H100V1080H120M-40 1080H-60V1060H-80M80 1200H20M80 1200H0M80 1200V1360M80 1200V1120M80 1200H160M80 1200V1280M20 1200V1220H40V1240M-80 1120H80M-80 1120V1200M80 1120H240M-80 1200H0M-80 1200V1280M0 1200V1360M-40 1320H-20V1300H20V1320H40M-40 1320V1300H-60V1260H-40V1240M-40 1320V1340H-20V1380H-40V1400M-40 1320H-60V1340H-80M40 1320V1300H60V1260H40V1240M40 1320V1340H20V1360M40 1320H60V1340H100V1320H120M40 1240H20V1260H-20V1240H-40M40 1240H60V1220H100V1240H120M-40 1240H-60V1220H-80M80 1360H20M80 1360H0M80 1360V1520M80 1360V1280M80 1360H160M80 1360V1440M20 1360V1380H40V1400M-80 1280H80M-80 1280V1360M80 1280H240M-80 1360H0M-80 1360V1440M0 1360V1520M-40 1480H-20V1460H20V1480H40M-40 1480V1460H-60V1420H-40V1400M-40 1480V1500H-20V1520M-40 1480H-60V1500H-80M40 1480V1460H60V1420H40V1400M40 1480V1500H20V1520H80M40 1480H60V1500H100V1480H120M40 1400H20V1420H-20V1400H-40M40 1400H60V1380H100V1400H120M-40 1400H-60V1380H-80M80 1520H0M80 1520V1440M80 1520H160M-80 1440H80M-80 1440V1520H0M80 1440H240M120 200H140V180H180V200H200M120 200V180H100V140H120V120M120 200V220H140V260H120V280M200 200V180H220V140H200V120M200 200V220H180V240M200 200H220V220H260V200H280M200 120H180V140H140V120H120M200 120H220V100H260V120H280M240 240H180M240 240H160M240 240V400M240 240V160M240 240H320M240 240V320M180 240V260H200V280M240 160H400M160 240V400M120 360H140V340H180V360H200M120 360V340H100V300H120V280M120 360V380H140V420H120V440M200 360V340H220V300H200V280M200 360V380H180V400M200 360H220V380H260V360H280M200 280H180V300H140V280H120M200 280H220V260H260V280H280M240 400H180M240 400H160M240 400V560M240 400V320M240 400H320M240 400V480M180 400V420H200V440M240 320H400M160 400V560M120 520H140V500H180V520H200M120 520V500H100V460H120V440M120 520V540H140V580H120V600M200 520V500H220V460H200V440M200 520V540H180V560M200 520H220V540H260V520H280M200 440H180V460H140V440H120M200 440H220V420H260V440H280M240 560H180M240 560H160M240 560V720M240 560V480M240 560H320M240 560V640M180 560V580H200V600M240 480H400M160 560V720M120 680H140V660H180V680H200M120 680V660H100V620H120V600M120 680V700H140V740H120V760M200 680V660H220V620H200V600M200 680V700H180V720M200 680H220V700H260V680H280M200 600H180V620H140V600H120M200 600H220V580H260V600H280M240 720H180M240 720H160M240 720V880M240 720V640M240 720H320M240 720V800M180 720V740H200V760M240 640H400M160 720V880M120 840H140V820H180V840H200M120 840V820H100V780H120V760M120 840V860H140V900H120V920M200 840V820H220V780H200V760M200 840V860H180V880M200 840H220V860H260V840H280M200 760H180V780H140V760H120M200 760H220V740H260V760H280M240 880H180M240 880H160M240 880V1040M240 880V800M240 880H320M240 880V960M180 880V900H200V920M240 800H400M160 880V1040M120 1000H140V980H180V1000H200M120 1000V980H100V940H120V920M120 1000V1020H140V1060H120V1080M200 1000V980H220V940H200V920M200 1000V1020H180V1040M200 1000H220V1020H260V1000H280M200 920H180V940H140V920H120M200 920H220V900H260V920H280M240 1040H180M240 1040H160M240 1040V1200M240 1040V960M240 1040H320M240 1040V1120M180 1040V1060H200V1080M240 960H400M160 1040V1200M120 1160H140V1140H180V1160H200M120 1160V1140H100V1100H120V1080M120 1160V1180H140V1220H120V1240M200 1160V1140H220V1100H200V1080M200 1160V1180H180V1200M200 1160H220V1180H260V1160H280M200 1080H180V1100H140V1080H120M200 1080H220V1060H260V1080H280M240 1200H180M240 1200H160M240 1200V1360M240 1200V1120M240 1200H320M240 1200V1280M180 1200V1220H200V1240M240 1120H400M160 1200V1360M120 1320H140V1300H180V1320H200M120 1320V1300H100V1260H120V1240M120 1320V1340H140V1380H120V1400M200 1320V1300H220V1260H200V1240M200 1320V1340H180V1360M200 1320H220V1340H260V1320H280M200 1240H180V1260H140V1240H120M200 1240H220V1220H260V1240H280M240 1360H180M240 1360H160M240 1360V1520M240 1360V1280M240 1360H320M240 1360V1440M180 1360V1380H200V1400M240 1280H400M160 1360V1520M120 1480H140V1460H180V1480H200M120 1480V1460H100V1420H120V1400M120 1480V1500H140V1520M200 1480V1460H220V1420H200V1400M200 1480V1500H180V1520H240M200 1480H220V1500H260V1480H280M200 1400H180V1420H140V1400H120M200 1400H220V1380H260V1400H280M240 1520H160M240 1520V1440M240 1520H320M240 1440H400M280 200H300V180H340V200H360M280 200V180H260V140H280V120M280 200V220H300V260H280V280M360 200V180H380V140H360V120M360 200V220H340V240M360 200H380V220H420V200H440M360 120H340V140H300V120H280M360 120H380V100H420V120H440M400 240H340M400 240H320M400 240V400M400 240V160M400 240H480M400 240V320M340 240V260H360V280M400 160H560M320 240V400M280 360H300V340H340V360H360M280 360V340H260V300H280V280M280 360V380H300V420H280V440M360 360V340H380V300H360V280M360 360V380H340V400M360 360H380V380H420V360H440M360 280H340V300H300V280H280M360 280H380V260H420V280H440M400 400H340M400 400H320M400 400V560M400 400V320M400 400H480M400 400V480M340 400V420H360V440M400 320H560M320 400V560M280 520H300V500H340V520H360M280 520V500H260V460H280V440M280 520V540H300V580H280V600M360 520V500H380V460H360V440M360 520V540H340V560M360 520H380V540H420V520H440M360 440H340V460H300V440H280M360 440H380V420H420V440H440M400 560H340M400 560H320M400 560V720M400 560V480M400 560H480M400 560V640M340 560V580H360V600M400 480H560M320 560V720M280 680H300V660H340V680H360M280 680V660H260V620H280V600M280 680V700H300V740H280V760M360 680V660H380V620H360V600M360 680V700H340V720M360 680H380V700H420V680H440M360 600H340V620H300V600H280M360 600H380V580H420V600H440M400 720H340M400 720H320M400 720V880M400 720V640M400 720H480M400 720V800M340 720V740H360V760M400 640H560M320 720V880M280 840H300V820H340V840H360M280 840V820H260V780H280V760M280 840V860H300V900H280V920M360 840V820H380V780H360V760M360 840V860H340V880M360 840H380V860H420V840H440M360 760H340V780H300V760H280M360 760H380V740H420V760H440M400 880H340M400 880H320M400 880V1040M400 880V800M400 880H480M400 880V960M340 880V900H360V920M400 800H560M320 880V1040M280 1000H300V980H340V1000H360M280 1000V980H260V940H280V920M280 1000V1020H300V1060H280V1080M360 1000V980H380V940H360V920M360 1000V1020H340V1040M360 1000H380V1020H420V1000H440M360 920H340V940H300V920H280M360 920H380V900H420V920H440M400 1040H340M400 1040H320M400 1040V1200M400 1040V960M400 1040H480M400 1040V1120M340 1040V1060H360V1080M400 960H560M320 1040V1200M280 1160H300V1140H340V1160H360M280 1160V1140H260V1100H280V1080M280 1160V1180H300V1220H280V1240M360 1160V1140H380V1100H360V1080M360 1160V1180H340V1200M360 1160H380V1180H420V1160H440M360 1080H340V1100H300V1080H280M360 1080H380V1060H420V1080H440M400 1200H340M400 1200H320M400 1200V1360M400 1200V1120M400 1200H480M400 1200V1280M340 1200V1220H360V1240M400 1120H560M320 1200V1360M280 1320H300V1300H340V1320H360M280 1320V1300H260V1260H280V1240M280 1320V1340H300V1380H280V1400M360 1320V1300H380V1260H360V1240M360 1320V1340H340V1360M360 1320H380V1340H420V1320H440M360 1240H340V1260H300V1240H280M360 1240H380V1220H420V1240H440M400 1360H340M400 1360H320M400 1360V1520M400 1360V1280M400 1360H480M400 1360V1440M340 1360V1380H360V1400M400 1280H560M320 1360V1520M280 1480H300V1460H340V1480H360M280 1480V1460H260V1420H280V1400M280 1480V1500H300V1520M360 1480V1460H380V1420H360V1400M360 1480V1500H340V1520H400M360 1480H380V1500H420V1480H440M360 1400H340V1420H300V1400H280M360 1400H380V1380H420V1400H440M400 1520H320M400 1520V1440M400 1520H480M400 1440H560M440 200H460V180H500V200H520M440 200V180H420V140H440V120M440 200V220H460V260H440V280M520 200V180H540V140H520V120M520 200V220H500V240M520 200H540V220H580V200H600M520 120H500V140H460V120H440M520 120H540V100H580V120H600M560 240H500M560 240H480M560 240V400M560 240V160M560 240H640M560 240V320M500 240V260H520V280M560 160H720M480 240V400M440 360H460V340H500V360H520M440 360V340H420V300H440V280M440 360V380H460V420H440V440M520 360V340H540V300H520V280M520 360V380H500V400M520 360H540V380H580V360H600M520 280H500V300H460V280H440M520 280H540V260H580V280H600M560 400H500M560 400H480M560 400V560M560 400V320M560 400H640M560 400V480M500 400V420H520V440M560 320H720M480 400V560M440 520H460V500H500V520H520M440 520V500H420V460H440V440M440 520V540H460V580H440V600M520 520V500H540V460H520V440M520 520V540H500V560M520 520H540V540H580V520H600M520 440H500V460H460V440H440M520 440H540V420H580V440H600M560 560H500M560 560H480M560 560V720M560 560V480M560 560H640M560 560V640M500 560V580H520V600M560 480H720M480 560V720M440 680H460V660H500V680H520M440 680V660H420V620H440V600M440 680V700H460V740H440V760M520 680V660H540V620H520V600M520 680V700H500V720M520 680H540V700H580V680H600M520 600H500V620H460V600H440M520 600H540V580H580V600H600M560 720H500M560 720H480M560 720V880M560 720V640M560 720H640M560 720V800M500 720V740H520V760M560 640H720M480 720V880M440 840H460V820H500V840H520M440 840V820H420V780H440V760M440 840V860H460V900H440V920M520 840V820H540V780H520V760M520 840V860H500V880M520 840H540V860H580V840H600M520 760H500V780H460V760H440M520 760H540V740H580V760H600M560 880H500M560 880H480M560 880V1040M560 880V800M560 880H640M560 880V960M500 880V900H520V920M560 800H720M480 880V1040M440 1000H460V980H500V1000H520M440 1000V980H420V940H440V920M440 1000V1020H460V1060H440V1080M520 1000V980H540V940H520V920M520 1000V1020H500V1040M520 1000H540V1020H580V1000H600M520 920H500V940H460V920H440M520 920H540V900H580V920H600M560 1040H500M560 1040H480M560 1040V1200M560 1040V960M560 1040H640M560 1040V1120M500 1040V1060H520V1080M560 960H720M480 1040V1200M440 1160H460V1140H500V1160H520M440 1160V1140H420V1100H440V1080M440 1160V1180H460V1220H440V1240M520 1160V1140H540V1100H520V1080M520 1160V1180H500V1200M520 1160H540V1180H580V1160H600M520 1080H500V1100H460V1080H440M520 1080H540V1060H580V1080H600M560 1200H500M560 1200H480M560 1200V1360M560 1200V1120M560 1200H640M560 1200V1280M500 1200V1220H520V1240M560 1120H720M480 1200V1360M440 1320H460V1300H500V1320H520M440 1320V1300H420V1260H440V1240M440 1320V1340H460V1380H440V1400M520 1320V1300H540V1260H520V1240M520 1320V1340H500V1360M520 1320H540V1340H580V1320H600M520 1240H500V1260H460V1240H440M520 1240H540V1220H580V1240H600M560 1360H500M560 1360H480M560 1360V1520M560 1360V1280M560 1360H640M560 1360V1440M500 1360V1380H520V1400M560 1280H720M480 1360V1520M440 1480H460V1460H500V1480H520M440 1480V1460H420V1420H440V1400M440 1480V1500H460V1520M520 1480V1460H540V1420H520V1400M520 1480V1500H500V1520H560M520 1480H540V1500H580V1480H600M520 1400H500V1420H460V1400H440M520 1400H540V1380H580V1400H600M560 1520H480M560 1520V1440M560 1520H640M560 1440H720M600 200H620V180H660V200H680M600 200V180H580V140H600V120M600 200V220H620V260H600V280M680 200V180H700V140H680V120M680 200V220H660V240M680 200H700V220H740V200H760M680 120H660V140H620V120H600M680 120H700V100H740V120H760M720 240H660M720 240H640M720 240V400M720 240V160M720 240H800M720 240V320M660 240V260H680V280M720 160H880M640 240V400M600 360H620V340H660V360H680M600 360V340H580V300H600V280M600 360V380H620V420H600V440M680 360V340H700V300H680V280M680 360V380H660V400M680 360H700V380H740V360H760M680 280H660V300H620V280H600M680 280H700V260H740V280H760M720 400H660M720 400H640M720 400V560M720 400V320M720 400H800M720 400V480M660 400V420H680V440M720 320H880M640 400V560M600 520H620V500H660V520H680M600 520V500H580V460H600V440M600 520V540H620V580H600V600M680 520V500H700V460H680V440M680 520V540H660V560M680 520H700V540H740V520H760M680 440H660V460H620V440H600M680 440H700V420H740V440H760M720 560H660M720 560H640M720 560V720M720 560V480M720 560H800M720 560V640M660 560V580H680V600M720 480H880M640 560V720M600 680H620V660H660V680H680M600 680V660H580V620H600V600M600 680V700H620V740H600V760M680 680V660H700V620H680V600M680 680V700H660V720M680 680H700V700H740V680H760M680 600H660V620H620V600H600M680 600H700V580H740V600H760M720 720H660M720 720H640M720 720V880M720 720V640M720 720H800M720 720V800M660 720V740H680V760M720 640H880M640 720V880M600 840H620V820H660V840H680M600 840V820H580V780H600V760M600 840V860H620V900H600V920M680 840V820H700V780H680V760M680 840V860H660V880M680 840H700V860H740V840H760M680 760H660V780H620V760H600M680 760H700V740H740V760H760M720 880H660M720 880H640M720 880V1040M720 880V800M720 880H800M720 880V960M660 880V900H680V920M720 800H880M640 880V1040M600 1000H620V980H660V1000H680M600 1000V980H580V940H600V920M600 1000V1020H620V1060H600V1080M680 1000V980H700V940H680V920M680 1000V1020H660V1040M680 1000H700V1020H740V1000H760M680 920H660V940H620V920H600M680 920H700V900H740V920H760M720 1040H660M720 1040H640M720 1040V1200M720 1040V960M720 1040H800M720 1040V1120M660 1040V1060H680V1080M720 960H880M640 1040V1200M600 1160H620V1140H660V1160H680M600 1160V1140H580V1100H600V1080M600 1160V1180H620V1220H600V1240M680 1160V1140H700V1100H680V1080M680 1160V1180H660V1200M680 1160H700V1180H740V1160H760M680 1080H660V1100H620V1080H600M680 1080H700V1060H740V1080H760M720 1200H660M720 1200H640M720 1200V1360M720 1200V1120M720 1200H800M720 1200V1280M660 1200V1220H680V1240M720 1120H880M640 1200V1360M600 1320H620V1300H660V1320H680M600 1320V1300H580V1260H600V1240M600 1320V1340H620V1380H600V1400M680 1320V1300H700V1260H680V1240M680 1320V1340H660V1360M680 1320H700V1340H740V1320H760M680 1240H660V1260H620V1240H600M680 1240H700V1220H740V1240H760M720 1360H660M720 1360H640M720 1360V1520M720 1360V1280M720 1360H800M720 1360V1440M660 1360V1380H680V1400M720 1280H880M640 1360V1520M600 1480H620V1460H660V1480H680M600 1480V1460H580V1420H600V1400M600 1480V1500H620V1520M680 1480V1460H700V1420H680V1400M680 1480V1500H660V1520H720M680 1480H700V1500H740V1480H760M680 1400H660V1420H620V1400H600M680 1400H700V1380H740V1400H760M720 1520H640M720 1520V1440M720 1520H800M720 1440H880M760 200H780V180H820V200H840M760 200V180H740V140H760V120M760 200V220H780V260H760V280M840 200V180H860V140H840V120M840 200V220H820V240M840 200H860V220H900V200H920M840 120H820V140H780V120H760M840 120H860V100H900V120H920M880 240H820M880 240H800M880 240V400M880 240V160M880 240H960M880 240V320M820 240V260H840V280M880 160H1040M800 240V400M760 360H780V340H820V360H840M760 360V340H740V300H760V280M760 360V380H780V420H760V440M840 360V340H860V300H840V280M840 360V380H820V400M840 360H860V380H900V360H920M840 280H820V300H780V280H760M840 280H860V260H900V280H920M880 400H820M880 400H800M880 400V560M880 400V320M880 400H960M880 400V480M820 400V420H840V440M880 320H1040M800 400V560M760 520H780V500H820V520H840M760 520V500H740V460H760V440M760 520V540H780V580H760V600M840 520V500H860V460H840V440M840 520V540H820V560M840 520H860V540H900V520H920M840 440H820V460H780V440H760M840 440H860V420H900V440H920M880 560H820M880 560H800M880 560V720M880 560V480M880 560H960M880 560V640M820 560V580H840V600M880 480H1040M800 560V720M760 680H780V660H820V680H840M760 680V660H740V620H760V600M760 680V700H780V740H760V760M840 680V660H860V620H840V600M840 680V700H820V720M840 680H860V700H900V680H920M840 600H820V620H780V600H760M840 600H860V580H900V600H920M880 720H820M880 720H800M880 720V880M880 720V640M880 720H960M880 720V800M820 720V740H840V760M880 640H1040M800 720V880M760 840H780V820H820V840H840M760 840V820H740V780H760V760M760 840V860H780V900H760V920M840 840V820H860V780H840V760M840 840V860H820V880M840 840H860V860H900V840H920M840 760H820V780H780V760H760M840 760H860V740H900V760H920M880 880H820M880 880H800M880 880V1040M880 880V800M880 880H960M880 880V960M820 880V900H840V920M880 800H1040M800 880V1040M760 1000H780V980H820V1000H840M760 1000V980H740V940H760V920M760 1000V1020H780V1060H760V1080M840 1000V980H860V940H840V920M840 1000V1020H820V1040M840 1000H860V1020H900V1000H920M840 920H820V940H780V920H760M840 920H860V900H900V920H920M880 1040H820M880 1040H800M880 1040V1200M880 1040V960M880 1040H960M880 1040V1120M820 1040V1060H840V1080M880 960H1040M800 1040V1200M760 1160H780V1140H820V1160H840M760 1160V1140H740V1100H760V1080M760 1160V1180H780V1220H760V1240M840 1160V1140H860V1100H840V1080M840 1160V1180H820V1200M840 1160H860V1180H900V1160H920M840 1080H820V1100H780V1080H760M840 1080H860V1060H900V1080H920M880 1200H820M880 1200H800M880 1200V1360M880 1200V1120M880 1200H960M880 1200V1280M820 1200V1220H840V1240M880 1120H1040M800 1200V1360M760 1320H780V1300H820V1320H840M760 1320V1300H740V1260H760V1240M760 1320V1340H780V1380H760V1400M840 1320V1300H860V1260H840V1240M840 1320V1340H820V1360M840 1320H860V1340H900V1320H920M840 1240H820V1260H780V1240H760M840 1240H860V1220H900V1240H920M880 1360H820M880 1360H800M880 1360V1520M880 1360V1280M880 1360H960M880 1360V1440M820 1360V1380H840V1400M880 1280H1040M800 1360V1520M920 200H940V180H980V200H1000M920 200V180H900V140H920V120M920 200V220H940V260H920V280M1000 200V180H1020V140H1000V120M1000 200V220H980V240M1000 200H1020V220H1060V200H1080M1000 120H980V140H940V120H920M1000 120H1020V100H1060V120H1080M1040 240H980M1040 240H960M1040 240V400M1040 240V160M1040 240H1120M1040 240V320M980 240V260H1000V280M1040 160H1200M960 240V400M760 1480H780V1460H820V1480H840M760 1480V1460H740V1420H760V1400M760 1480V1500H780V1520M840 1480V1460H860V1420H840V1400M840 1480V1500H820V1520H880M840 1480H860V1500H900V1480H920M840 1400H820V1420H780V1400H760M840 1400H860V1380H900V1400H920M880 1520H800M880 1520V1440M880 1520H960M880 1440H1040M920 360H940V340H980V360H1000M920 360V340H900V300H920V280M920 360V380H940V420H920V440M1000 360V340H1020V300H1000V280M1000 360V380H980V400M1000 360H1020V380H1060V360H1080M1000 280H980V300H940V280H920M1000 280H1020V260H1060V280H1080M1040 400H980M1040 400H960M1040 400V560M1040 400V320M1040 400H1120M1040 400V480M980 400V420H1000V440M1040 320H1200M960 400V560M920 520H940V500H980V520H1000M920 520V500H900V460H920V440M920 520V540H940V580H920V600M1000 520V500H1020V460H1000V440M1000 520V540H980V560M1000 520H1020V540H1060V520H1080M1000 440H980V460H940V440H920M1000 440H1020V420H1060V440H1080M1040 560H980M1040 560H960M1040 560V720M1040 560V480M1040 560H1120M1040 560V640M980 560V580H1000V600M1040 480H1200M960 560V720M920 680H940V660H980V680H1000M920 680V660H900V620H920V600M920 680V700H940V740H920V760M1000 680V660H1020V620H1000V600M1000 680V700H980V720M1000 680H1020V700H1060V680H1080M1000 600H980V620H940V600H920M1000 600H1020V580H1060V600H1080M1040 720H980M1040 720H960M1040 720V880M1040 720V640M1040 720H1120M1040 720V800M980 720V740H1000V760M1040 640H1200M960 720V880M920 840H940V820H980V840H1000M920 840V820H900V780H920V760M920 840V860H940V900H920V920M1000 840V820H1020V780H1000V760M1000 840V860H980V880M1000 840H1020V860H1060V840H1080M1000 760H980V780H940V760H920M1000 760H1020V740H1060V760H1080M1040 880H980M1040 880H960M1040 880V1040M1040 880V800M1040 880H1120M1040 880V960M980 880V900H1000V920M1040 800H1200M960 880V1040M920 1000H940V980H980V1000H1000M920 1000V980H900V940H920V920M920 1000V1020H940V1060H920V1080M1000 1000V980H1020V940H1000V920M1000 1000V1020H980V1040M1000 1000H1020V1020H1060V1000H1080M1000 920H980V940H940V920H920M1000 920H1020V900H1060V920H1080M1040 1040H980M1040 1040H960M1040 1040V1200M1040 1040V960M1040 1040H1120M1040 1040V1120M980 1040V1060H1000V1080M1040 960H1200M960 1040V1200M920 1160H940V1140H980V1160H1000M920 1160V1140H900V1100H920V1080M920 1160V1180H940V1220H920V1240M1000 1160V1140H1020V1100H1000V1080M1000 1160V1180H980V1200M1000 1160H1020V1180H1060V1160H1080M1000 1080H980V1100H940V1080H920M1000 1080H1020V1060H1060V1080H1080M1040 1200H980M1040 1200H960M1040 1200V1360M1040 1200V1120M1040 1200H1120M1040 1200V1280M980 1200V1220H1000V1240M1040 1120H1200M960 1200V1360M920 1320H940V1300H980V1320H1000M920 1320V1300H900V1260H920V1240M920 1320V1340H940V1380H920V1400M1000 1320V1300H1020V1260H1000V1240M1000 1320V1340H980V1360M1000 1320H1020V1340H1060V1320H1080M1000 1240H980V1260H940V1240H920M1000 1240H1020V1220H1060V1240H1080M1040 1360H980M1040 1360H960M1040 1360V1520M1040 1360V1280M1040 1360H1120M1040 1360V1440M980 1360V1380H1000V1400M1040 1280H1200M960 1360V1520M1080 200H1100V180H1140V200H1160M1080 200V180H1060V140H1080V120M1080 200V220H1100V260H1080V280M1160 200V180H1180V140H1160V120M1160 200V220H1140V240M1160 200H1180V220H1220V200H1240M1160 120H1140V140H1100V120H1080M1160 120H1180V100H1220V120H1240M1200 240H1140M1200 240H1120M1200 240V400M1200 240V160M1200 240H1280M1200 240V320M1140 240V260H1160V280M1200 160H1360M1120 240V400M920 1480H940V1460H980V1480H1000M920 1480V1460H900V1420H920V1400M920 1480V1500H940V1520M1000 1480V1460H1020V1420H1000V1400M1000 1480V1500H980V1520H1040M1000 1480H1020V1500H1060V1480H1080M1000 1400H980V1420H940V1400H920M1000 1400H1020V1380H1060V1400H1080M1040 1520H960M1040 1520V1440M1040 1520H1120M1040 1440H1200M1080 360H1100V340H1140V360H1160M1080 360V340H1060V300H1080V280M1080 360V380H1100V420H1080V440M1160 360V340H1180V300H1160V280M1160 360V380H1140V400M1160 360H1180V380H1220V360H1240M1160 280H1140V300H1100V280H1080M1160 280H1180V260H1220V280H1240M1200 400H1140M1200 400H1120M1200 400V560M1200 400V320M1200 400H1280M1200 400V480M1140 400V420H1160V440M1200 320H1360M1120 400V560M1080 520H1100V500H1140V520H1160M1080 520V500H1060V460H1080V440M1080 520V540H1100V580H1080V600M1160 520V500H1180V460H1160V440M1160 520V540H1140V560M1160 520H1180V540H1220V520H1240M1160 440H1140V460H1100V440H1080M1160 440H1180V420H1220V440H1240M1200 560H1140M1200 560H1120M1200 560V720M1200 560V480M1200 560H1280M1200 560V640M1140 560V580H1160V600M1200 480H1360M1120 560V720M1080 680H1100V660H1140V680H1160M1080 680V660H1060V620H1080V600M1080 680V700H1100V740H1080V760M1160 680V660H1180V620H1160V600M1160 680V700H1140V720M1160 680H1180V700H1220V680H1240M1160 600H1140V620H1100V600H1080M1160 600H1180V580H1220V600H1240M1200 720H1140M1200 720H1120M1200 720V880M1200 720V640M1200 720H1280M1200 720V800M1140 720V740H1160V760M1200 640H1360M1120 720V880M1080 840H1100V820H1140V840H1160M1080 840V820H1060V780H1080V760M1080 840V860H1100V900H1080V920M1160 840V820H1180V780H1160V760M1160 840V860H1140V880M1160 840H1180V860H1220V840H1240M1160 760H1140V780H1100V760H1080M1160 760H1180V740H1220V760H1240M1200 880H1140M1200 880H1120M1200 880V1040M1200 880V800M1200 880H1280M1200 880V960M1140 880V900H1160V920M1200 800H1360M1120 880V1040M1080 1000H1100V980H1140V1000H1160M1080 1000V980H1060V940H1080V920M1080 1000V1020H1100V1060H1080V1080M1160 1000V980H1180V940H1160V920M1160 1000V1020H1140V1040M1160 1000H1180V1020H1220V1000H1240M1160 920H1140V940H1100V920H1080M1160 920H1180V900H1220V920H1240M1200 1040H1140M1200 1040H1120M1200 1040V1200M1200 1040V960M1200 1040H1280M1200 1040V1120M1140 1040V1060H1160V1080M1200 960H1360M1120 1040V1200M1080 1160H1100V1140H1140V1160H1160M1080 1160V1140H1060V1100H1080V1080M1080 1160V1180H1100V1220H1080V1240M1160 1160V1140H1180V1100H1160V1080M1160 1160V1180H1140V1200M1160 1160H1180V1180H1220V1160H1240M1160 1080H1140V1100H1100V1080H1080M1160 1080H1180V1060H1220V1080H1240M1200 1200H1140M1200 1200H1120M1200 1200V1360M1200 1200V1120M1200 1200H1280M1200 1200V1280M1140 1200V1220H1160V1240M1200 1120H1360M1120 1200V1360M1080 1320H1100V1300H1140V1320H1160M1080 1320V1300H1060V1260H1080V1240M1080 1320V1340H1100V1380H1080V1400M1160 1320V1300H1180V1260H1160V1240M1160 1320V1340H1140V1360M1160 1320H1180V1340H1220V1320H1240M1160 1240H1140V1260H1100V1240H1080M1160 1240H1180V1220H1220V1240H1240M1200 1360H1140M1200 1360H1120M1200 1360V1520M1200 1360V1280M1200 1360H1280M1200 1360V1440M1140 1360V1380H1160V1400M1200 1280H1360M1120 1360V1520M1240 200H1260V180H1300V200H1320M1240 200V180H1220V140H1240V120M1240 200V220H1260V260H1240V280M1320 200V180H1340V140H1320V120M1320 200V220H1300V240M1320 200H1340V220H1380V200H1400M1320 120H1300V140H1260V120H1240M1320 120H1340V100H1380V120H1400M1360 240H1300M1360 240H1280M1360 240V400M1360 240V160M1360 240H1440M1360 240V320M1300 240V260H1320V280M1360 160H1520M1280 240V400M1080 1480H1100V1460H1140V1480H1160M1080 1480V1460H1060V1420H1080V1400M1080 1480V1500H1100V1520M1160 1480V1460H1180V1420H1160V1400M1160 1480V1500H1140V1520H1200M1160 1480H1180V1500H1220V1480H1240M1160 1400H1140V1420H1100V1400H1080M1160 1400H1180V1380H1220V1400H1240M1200 1520H1120M1200 1520V1440M1200 1520H1280M1200 1440H1360M1240 360H1260V340H1300V360H1320M1240 360V340H1220V300H1240V280M1240 360V380H1260V420H1240V440M1320 360V340H1340V300H1320V280M1320 360V380H1300V400M1320 360H1340V380H1380V360H1400M1320 280H1300V300H1260V280H1240M1320 280H1340V260H1380V280H1400M1360 400H1300M1360 400H1280M1360 400V560M1360 400V320M1360 400H1440M1360 400V480M1300 400V420H1320V440M1360 320H1520M1280 400V560M1240 520H1260V500H1300V520H1320M1240 520V500H1220V460H1240V440M1240 520V540H1260V580H1240V600M1320 520V500H1340V460H1320V440M1320 520V540H1300V560M1320 520H1340V540H1380V520H1400M1320 440H1300V460H1260V440H1240M1320 440H1340V420H1380V440H1400M1360 560H1300M1360 560H1280M1360 560V720M1360 560V480M1360 560H1440M1360 560V640M1300 560V580H1320V600M1360 480H1520M1280 560V720M1240 680H1260V660H1300V680H1320M1240 680V660H1220V620H1240V600M1240 680V700H1260V740H1240V760M1320 680V660H1340V620H1320V600M1320 680V700H1300V720M1320 680H1340V700H1380V680H1400M1320 600H1300V620H1260V600H1240M1320 600H1340V580H1380V600H1400M1360 720H1300M1360 720H1280M1360 720V880M1360 720V640M1360 720H1440M1360 720V800M1300 720V740H1320V760M1360 640H1520M1280 720V880M1240 840H1260V820H1300V840H1320M1240 840V820H1220V780H1240V760M1240 840V860H1260V900H1240V920M1320 840V820H1340V780H1320V760M1320 840V860H1300V880M1320 840H1340V860H1380V840H1400M1320 760H1300V780H1260V760H1240M1320 760H1340V740H1380V760H1400M1360 880H1300M1360 880H1280M1360 880V1040M1360 880V800M1360 880H1440M1360 880V960M1300 880V900H1320V920M1360 800H1520M1280 880V1040M1240 1000H1260V980H1300V1000H1320M1240 1000V980H1220V940H1240V920M1240 1000V1020H1260V1060H1240V1080M1320 1000V980H1340V940H1320V920M1320 1000V1020H1300V1040M1320 1000H1340V1020H1380V1000H1400M1320 920H1300V940H1260V920H1240M1320 920H1340V900H1380V920H1400M1360 1040H1300M1360 1040H1280M1360 1040V1200M1360 1040V960M1360 1040H1440M1360 1040V1120M1300 1040V1060H1320V1080M1360 960H1520M1280 1040V1200M1240 1160H1260V1140H1300V1160H1320M1240 1160V1140H1220V1100H1240V1080M1240 1160V1180H1260V1220H1240V1240M1320 1160V1140H1340V1100H1320V1080M1320 1160V1180H1300V1200M1320 1160H1340V1180H1380V1160H1400M1320 1080H1300V1100H1260V1080H1240M1320 1080H1340V1060H1380V1080H1400M1360 1200H1300M1360 1200H1280M1360 1200V1360M1360 1200V1120M1360 1200H1440M1360 1200V1280M1300 1200V1220H1320V1240M1360 1120H1520M1280 1200V1360M1240 1320H1260V1300H1300V1320H1320M1240 1320V1300H1220V1260H1240V1240M1240 1320V1340H1260V1380H1240V1400M1320 1320V1300H1340V1260H1320V1240M1320 1320V1340H1300V1360M1320 1320H1340V1340H1380V1320H1400M1320 1240H1300V1260H1260V1240H1240M1320 1240H1340V1220H1380V1240H1400M1360 1360H1300M1360 1360H1280M1360 1360V1520M1360 1360V1280M1360 1360H1440M1360 1360V1440M1300 1360V1380H1320V1400M1360 1280H1520M1280 1360V1520M1240 1480H1260V1460H1300V1480H1320M1240 1480V1460H1220V1420H1240V1400M1240 1480V1500H1260V1520M1320 1480V1460H1340V1420H1320V1400M1320 1480V1500H1300V1520H1360M1320 1480H1340V1500H1380V1480H1400M1320 1400H1300V1420H1260V1400H1240M1320 1400H1340V1380H1380V1400H1400M1360 1520H1280M1360 1520V1440M1360 1520H1440M1360 1440H1520M1400 200H1420V180H1460V200H1480M1400 200V180H1380V140H1400V120M1400 200V220H1420V260H1400V280M1480 200V180H1500V140H1480V120M1480 200V220H1460V240M1480 200H1500V220H1520M1480 120H1460V140H1420V120H1400M1480 120H1500V100H1520M1520 240H1460M1520 240H1440M1520 240V400M1460 240V260H1480V280M1440 240V400M1400 360H1420V340H1460V360H1480M1400 360V340H1380V300H1400V280M1400 360V380H1420V420H1400V440M1480 360V340H1500V300H1480V280M1480 360V380H1460V400M1480 360H1500V380H1520M1480 280H1460V300H1420V280H1400M1480 280H1500V260H1520M1520 400H1460M1520 400H1440M1520 400V560M1460 400V420H1480V440M1440 400V560M1400 520H1420V500H1460V520H1480M1400 520V500H1380V460H1400V440M1400 520V540H1420V580H1400V600M1480 520V500H1500V460H1480V440M1480 520V540H1460V560M1480 520H1500V540H1520M1480 440H1460V460H1420V440H1400M1480 440H1500V420H1520M1520 560H1460M1520 560H1440M1520 560V720M1460 560V580H1480V600M1440 560V720M1400 680H1420V660H1460V680H1480M1400 680V660H1380V620H1400V600M1400 680V700H1420V740H1400V760M1480 680V660H1500V620H1480V600M1480 680V700H1460V720M1480 680H1500V700H1520M1480 600H1460V620H1420V600H1400M1480 600H1500V580H1520M1520 720H1460M1520 720H1440M1520 720V880M1460 720V740H1480V760M1440 720V880M1400 840H1420V820H1460V840H1480M1400 840V820H1380V780H1400V760M1400 840V860H1420V900H1400V920M1480 840V820H1500V780H1480V760M1480 840V860H1460V880M1480 840H1500V860H1520M1480 760H1460V780H1420V760H1400M1480 760H1500V740H1520M1520 880H1460M1520 880H1440M1520 880V1040M1460 880V900H1480V920M1440 880V1040M1400 1000H1420V980H1460V1000H1480M1400 1000V980H1380V940H1400V920M1400 1000V1020H1420V1060H1400V1080M1480 1000V980H1500V940H1480V920M1480 1000V1020H1460V1040M1480 1000H1500V1020H1520M1480 920H1460V940H1420V920H1400M1480 920H1500V900H1520M1520 1040H1460M1520 1040H1440M1520 1040V1200M1460 1040V1060H1480V1080M1440 1040V1200M1400 1160H1420V1140H1460V1160H1480M1400 1160V1140H1380V1100H1400V1080M1400 1160V1180H1420V1220H1400V1240M1480 1160V1140H1500V1100H1480V1080M1480 1160V1180H1460V1200M1480 1160H1500V1180H1520M1480 1080H1460V1100H1420V1080H1400M1480 1080H1500V1060H1520M1520 1200H1460M1520 1200H1440M1520 1200V1360M1460 1200V1220H1480V1240M1440 1200V1360M1400 1320H1420V1300H1460V1320H1480M1400 1320V1300H1380V1260H1400V1240M1400 1320V1340H1420V1380H1400V1400M1480 1320V1300H1500V1260H1480V1240M1480 1320V1340H1460V1360M1480 1320H1500V1340H1520M1480 1240H1460V1260H1420V1240H1400M1480 1240H1500V1220H1520M1520 1360H1460M1520 1360H1440M1520 1360V1520M1460 1360V1380H1480V1400M1440 1360V1520M1400 1480H1420V1460H1460V1480H1480M1400 1480V1460H1380V1420H1400V1400M1400 1480V1500H1420V1520M1480 1480V1460H1500V1420H1480V1400M1480 1480V1500H1460V1520H1520M1480 1480H1500V1500H1520M1480 1400H1460V1420H1420V1400H1400M1480 1400H1500V1380H1520M1520 1520H1440" stroke="#0A0A0A" stroke-linecap="square"/>
</g>
<defs>
<clipPath id="clip0_659_1366">
<rect width="1440" height="1440" fill="white"/>
</clipPath>
</defs>
</svg>
