<?xml version="1.0" standalone="no"?>
<!DOCTYPE svg PUBLIC "-//W3C//DTD SVG 20010904//EN"
 "http://www.w3.org/TR/2001/REC-SVG-20010904/DTD/svg10.dtd">
<svg version="1.0" xmlns="http://www.w3.org/2000/svg"
 width="700.000000pt" height="700.000000pt" viewBox="0 0 700.000000 700.000000"
 preserveAspectRatio="xMidYMid meet">
<metadata>
Created by potrace 1.14, written by Peter Selinger 2001-2017
</metadata>
<g transform="translate(0.000000,700.000000) scale(0.100000,-0.100000)"
fill="#000000" stroke="none">
<path d="M1673 6080 c-46 -10 -119 -56 -143 -89 -51 -73 -50 -38 -50 -1120 0
-1138 -4 -1077 75 -1156 67 -68 154 -86 254 -54 20 6 41 15 46 19 9 7 186 110
295 172 35 20 238 138 515 299 83 48 166 96 185 107 33 18 303 174 594 343 81
47 139 88 157 111 76 95 69 240 -13 319 -28 26 -117 82 -248 156 -19 11 -69
40 -110 65 -41 24 -82 47 -90 51 -8 4 -31 16 -50 28 -121 72 -736 428 -785
455 -22 12 -132 75 -245 141 -113 65 -221 127 -241 136 -43 20 -101 26 -146
17z"/>
<path d="M4056 4705 c-57 -20 -107 -65 -135 -121 l-25 -49 -1 -1010 c-1 -728
2 -1024 10 -1062 24 -106 120 -182 230 -181 75 1 82 4 320 143 139 82 1044
605 1095 633 51 29 107 61 135 80 11 6 27 15 35 19 40 18 278 163 287 175 78
96 80 239 5 324 -32 37 -49 48 -312 199 -113 65 -259 149 -325 188 -66 38
-138 79 -160 92 -22 12 -224 129 -450 260 -546 317 -520 303 -563 315 -50 13
-99 12 -146 -5z"/>
<path d="M1642 3341 c-68 -26 -118 -75 -141 -137 -20 -53 -21 -71 -21 -1068 0
-1123 -3 -1068 65 -1141 46 -48 117 -79 180 -77 66 1 102 17 315 144 41 24 82
47 90 51 8 4 29 15 45 26 24 15 327 190 450 261 17 9 102 59 190 110 88 51
176 102 195 112 19 11 64 37 100 58 36 21 84 48 106 61 375 216 382 221 417
299 41 91 17 214 -53 274 -15 12 -150 93 -301 181 -151 87 -357 206 -459 265
-102 59 -201 117 -220 128 -19 10 -86 49 -149 86 -62 37 -137 80 -165 95 -28
16 -144 83 -257 149 -113 66 -216 123 -228 127 -44 14 -117 12 -159 -4z"/>
</g>
</svg>
