<svg width="72" height="72" viewBox="0 0 72 72" fill="none" xmlns="http://www.w3.org/2000/svg">
<rect width="72" height="72" rx="36" fill="#F82F61"/>
<path d="M36.0632 42.6213C38.9318 42.6213 41.2573 40.2959 41.2573 37.4272C41.2573 34.5586 38.9318 32.2332 36.0632 32.2332C33.1946 32.2332 30.8691 34.5586 30.8691 37.4272C30.8691 40.2959 33.1946 42.6213 36.0632 42.6213Z" stroke="white" stroke-width="2" stroke-linecap="round" stroke-linejoin="round"/>
<path d="M44.8926 34.3108C46.1025 34.3088 47.2961 34.5895 48.3783 35.1306C49.4604 35.6717 50.4012 36.4581 51.1255 37.4273" stroke="white" stroke-width="2" stroke-linecap="square" stroke-linejoin="round"/>
<path d="M21 37.4273C21.7243 36.4581 22.6651 35.6717 23.7472 35.1306C24.8294 34.5895 26.023 34.3088 27.2329 34.3108" stroke="white" stroke-width="2" stroke-linecap="square" stroke-linejoin="round"/>
<path d="M28.583 47.2959C29.2671 45.8949 30.3309 44.7142 31.6533 43.8883C32.9757 43.0624 34.5034 42.6245 36.0625 42.6245C37.6216 42.6245 39.1493 43.0624 40.4717 43.8883C41.7941 44.7142 42.8579 45.8949 43.542 47.2959" stroke="white" stroke-width="2" stroke-linecap="square" stroke-linejoin="round"/>
<path d="M27.2337 34.3105C26.445 34.3113 25.6724 34.0877 25.0062 33.6657C24.3399 33.2437 23.8075 32.6408 23.4711 31.9275C23.1347 31.2141 23.0083 30.4198 23.1066 29.6373C23.2049 28.8548 23.5239 28.1164 24.0263 27.5084C24.5287 26.9005 25.1937 26.448 25.9436 26.204C26.6936 25.9599 27.4975 25.9343 28.2615 26.1302C29.0254 26.3261 29.7179 26.7353 30.2579 27.3101C30.7979 27.8849 31.1632 28.6015 31.3111 29.3762" stroke="white" stroke-width="2" stroke-linecap="square" stroke-linejoin="round"/>
<path d="M40.8164 29.3762C40.9643 28.6015 41.3296 27.8849 41.8696 27.3101C42.4096 26.7353 43.102 26.3261 43.866 26.1302C44.63 25.9343 45.4339 25.9599 46.1838 26.204C46.9338 26.448 47.5988 26.9005 48.1012 27.5084C48.6035 28.1164 48.9225 28.8548 49.0208 29.6373C49.1192 30.4198 48.9927 31.2141 48.6564 31.9275C48.32 32.6408 47.7876 33.2437 47.1213 33.6657C46.455 34.0877 45.6824 34.3113 44.8938 34.3105" stroke="white" stroke-width="2" stroke-linecap="square" stroke-linejoin="round"/>
</svg>
