<svg width="72" height="72" viewBox="0 0 72 72" fill="none" xmlns="http://www.w3.org/2000/svg">
<rect width="72" height="72" rx="36" fill="#F82F61"/>
<path d="M31.2009 39.8452C34.4719 39.8452 37.1235 37.1935 37.1235 33.9226C37.1235 30.6516 34.4719 28 31.2009 28C27.93 28 25.2783 30.6516 25.2783 33.9226C25.2783 37.1935 27.93 39.8452 31.2009 39.8452Z" stroke="white" stroke-width="2" stroke-linecap="round" stroke-linejoin="round"/>
<path d="M38.877 28.2164C39.4005 28.0744 39.9404 28.0017 40.4829 28C42.0537 28 43.5601 28.624 44.6708 29.7347C45.7815 30.8454 46.4055 32.3518 46.4055 33.9226C46.4055 35.4933 45.7815 36.9998 44.6708 38.1105C43.5601 39.2212 42.0537 39.8452 40.4829 39.8452" stroke="white" stroke-width="2" stroke-linecap="square" stroke-linejoin="round"/>
<path d="M23 44.1048C23.9248 42.7889 25.1527 41.7148 26.58 40.9733C28.0073 40.2318 29.5921 39.8447 31.2005 39.8447C32.8089 39.8447 34.3937 40.2318 35.821 40.9733C37.2483 41.7148 38.4762 42.7889 39.401 44.1048" stroke="white" stroke-width="2" stroke-linecap="square" stroke-linejoin="round"/>
<path d="M40.4824 39.8452C42.091 39.8442 43.6761 40.2308 45.1035 40.9723C46.531 41.7138 47.7588 42.7883 48.6829 44.1049" stroke="white" stroke-width="2" stroke-linecap="square" stroke-linejoin="round"/>
</svg>
