<svg width="210" height="48" viewBox="0 0 210 48" fill="none" xmlns="http://www.w3.org/2000/svg">
<path d="M110.154 29C104.854 29 100.654 33.1 100.654 38.5C100.654 43.9 104.954 48 110.154 48C115.454 48 119.654 43.8 119.654 38.5C119.654 33.1 115.454 29 110.154 29ZM110.154 32.8C113.354 32.8 115.754 35.2 115.754 38.5C115.754 41.8 113.254 44.2 110.154 44.2C106.954 44.2 104.554 41.8 104.554 38.5C104.454 35.2 106.954 32.8 110.154 32.8ZM189.254 41.9V33.2H193.754V29.4H189.254V24.3L185.354 25.5V29.4H182.054V33.2H185.354V41.9C185.354 46.6 187.754 48.3 193.754 47.5V44C190.754 44.2 189.254 44.2 189.254 41.9ZM209.454 43.9H200.554L209.454 33.2V29.6H195.654V33.2H204.554L195.654 43.9V47.6H209.454V43.9ZM130.654 29.2V33.4C128.054 33.2 125.054 34.4 125.054 38.5V47.6H121.154V29.5H125.054V32.5C126.154 30.1 128.354 29.2 130.654 29.2ZM140.054 29C134.754 29 130.554 33.1 130.554 38.5C130.554 43.9 134.854 48 140.054 48C145.354 48 149.554 43.8 149.554 38.5C149.654 33.1 145.454 29 140.054 29ZM140.054 32.8C143.254 32.8 145.654 35.2 145.654 38.5C145.654 41.8 143.154 44.2 140.054 44.2C136.854 44.2 134.454 41.8 134.454 38.5C134.454 35.2 136.954 32.8 140.054 32.8ZM175.354 29.5L169.654 47.6H165.854L162.054 35.4L158.254 47.6H154.454L148.754 29.5H152.854L156.354 42L160.154 29.5H163.854L167.654 42L171.154 29.5H175.354ZM180.554 29.5H176.654V47.6H180.554V29.5ZM53.6538 1.2V8.7C52.1538 7.6 50.0538 6.7 48.0538 6.7C42.4538 6.7 37.9538 11.6 38.5538 17.3C39.0538 21.7 42.6538 25.3 47.0538 25.8C49.5538 26 51.8538 25.3 53.6538 24V25.4H57.6538V0L53.6538 1.2ZM53.5538 16.3C53.5538 19.8 50.3538 22.5 46.7538 21.7C44.6538 21.3 42.9538 19.6 42.4538 17.4C41.7538 13.8 44.5538 10.6 48.0538 10.6C51.0538 10.6 53.5538 13.1 53.5538 16.3ZM15.0538 7.3V8.5C13.5538 7.4 11.5538 6.7 9.55379 6.7C3.95379 6.7 -0.546215 11.6 0.0537849 17.3C0.553785 21.7 4.15379 25.3 8.55379 25.8C11.0538 26 13.3538 25.3 15.1538 24V25.4H19.1538V7.3H15.0538ZM15.0538 16.3C15.0538 19.8 11.8538 22.5 8.25379 21.7C6.15379 21.3 4.45378 19.6 3.95378 17.4C3.25378 13.8 6.05379 10.6 9.55379 10.6C12.5538 10.6 15.0538 13.1 15.0538 16.3ZM30.1538 6.8C27.6538 6.8 25.7538 7.7 24.5538 9.6V7.2H20.6538V25.3H24.5538V15.6C24.5538 11.9 26.5538 10.4 29.1538 10.4C31.6538 10.4 33.1538 11.8 33.1538 14.6V25.3H37.0538V14.3C37.1538 9.6 34.2538 6.8 30.1538 6.8ZM102.854 20C101.954 21.3 100.354 22.2 98.1538 22.2C95.2538 22.2 92.9538 20.8 92.3538 17.9H106.754C106.854 17.4 106.854 16.8 106.854 16.3C106.854 11.1 103.154 6.8 97.7538 6.8C92.0538 6.8 88.2538 11 88.2538 16.3C88.2538 21.7 92.1538 25.8 98.0538 25.8C101.554 25.8 104.354 24.3 105.954 21.9L102.854 20ZM97.8538 10.4C100.254 10.4 102.454 11.7 103.054 14.8H92.3538C92.9538 12.1 94.9538 10.4 97.8538 10.4ZM147.554 22.3C149.754 22.3 151.354 21.3 152.254 20.1L155.454 22C153.754 24.5 151.054 25.9 147.554 25.9C141.554 25.9 137.754 21.8 137.754 16.4C137.754 11 141.654 6.9 147.254 6.9C152.654 6.9 156.354 11.2 156.354 16.4C156.354 16.6 156.354 16.9 156.254 17.2C156.254 17.5 156.154 17.7 156.154 18H141.754C142.354 20.8 144.654 22.3 147.554 22.3ZM152.354 14.8C151.854 11.7 149.554 10.4 147.154 10.4C144.254 10.4 142.254 12.1 141.654 14.8H152.354ZM180.554 25.4H176.654V21.9H180.554V25.4ZM158.254 25.4H162.154V15.7C162.154 12 164.154 10.5 166.754 10.5C169.154 10.5 170.754 12 170.754 14.7V25.3H174.654V14.2C174.654 9.5 171.754 6.8 167.754 6.8C165.254 6.8 163.354 7.7 162.154 9.6V7.3H158.254V25.4ZM112.054 12.3C112.054 11 113.254 10.4 114.654 10.4C116.054 10.4 117.254 11 117.954 12.2L121.354 10.5C120.054 8.2 117.654 6.8 114.654 6.8C110.954 6.8 108.054 8.9 108.054 12.3C108.054 16.1 111.254 17 114.054 17.8H114.154C114.254 17.8 114.354 17.9 114.454 17.9C116.354 18.5 117.754 18.9 117.754 20.2C117.754 21.6 116.454 22.2 114.654 22.2C112.954 22.2 111.554 21.5 110.854 20.2L107.354 21.9C108.554 24.3 111.154 25.8 114.554 25.8C118.454 25.8 121.654 23.8 121.654 20.2C121.654 16.3 118.254 15.3 115.554 14.6C113.754 14.1 112.054 13.6 112.054 12.3ZM127.154 12.3C127.154 11 128.354 10.4 129.754 10.4C131.154 10.4 132.354 11 133.154 12.3L136.554 10.6C135.254 8.3 132.754 6.9 129.854 6.9C126.154 6.9 123.254 9 123.254 12.4C123.254 16.2 126.454 17.1 129.254 17.9H129.554C131.354 18.5 132.954 19 132.954 20.3C132.954 21.7 131.554 22.3 129.854 22.3C128.054 22.3 126.754 21.6 126.054 20.3L122.554 22C123.754 24.4 126.254 25.9 129.754 25.9C133.754 25.9 136.854 23.9 136.854 20.3C136.854 16.4 133.654 15.5 130.854 14.7H130.754C130.554 14.7 130.454 14.6 130.254 14.6C128.554 14 127.154 13.6 127.154 12.3ZM68.7538 11.2V7C66.4538 7 64.2538 7.9 63.1538 10.3V7.3H59.2538V25.4H63.1538V16.3C63.1538 12.2 66.1538 11 68.7538 11.2ZM86.6538 21.9V31.8C87.8538 29.9 89.7538 29 92.2538 29C96.2538 29 99.1538 31.7 99.1538 36.4V47.6H95.2538V36.9C95.2538 34.2 93.6538 32.7 91.2538 32.7C88.6538 32.7 86.6538 34.2 86.6538 37.9V47.6H82.7538V25.1C81.5538 25.6 80.2538 25.9 78.7538 25.9C72.7538 25.9 68.9538 21.8 68.9538 16.4C68.9538 11 72.8538 6.9 78.4538 6.9C83.8538 6.9 87.5538 11.2 87.5538 16.4C87.5538 16.6 87.5538 16.9 87.4538 17.2C87.4538 17.5 87.3538 17.7 87.3538 18H72.9538C73.5538 20.8 75.8538 22.3 78.7538 22.3C80.4538 22.3 81.7538 21.7 82.7538 20.9C83.0538 20.7 83.2538 20.4 83.4538 20.1L86.6538 21.9ZM83.5538 14.8C82.9538 11.7 80.7538 10.4 78.3538 10.4C75.4538 10.4 73.4538 12.1 72.9538 14.8H83.5538Z" fill="#9CA3AF"/>
</svg>
  