<svg width="210" height="51" viewBox="0 0 210 51" fill="none" xmlns="http://www.w3.org/2000/svg">
  <path d="M25.2832 0.958984L42.9637 50.8396H51.8214L33.4809 0.958984H25.2832Z" fill="#464646"/>
  <path d="M74.6068 26.6288C73.7732 29.0603 73.1827 30.8665 72.2795 33.2633H72.1406C71.2375 30.8665 70.647 29.0603 69.8133 26.6288L65.7492 15.0965H64.1166L71.3764 34.8611H73.0437L80.234 15.0965H78.6709L74.6068 26.6288ZM85.5486 24.9267H94.3368V23.7457H85.5486V16.2775H96.0041V15.0965H84.0203V34.8611H96.3515V33.6801H85.5486V24.9267ZM113.893 27.1845C113.893 29.095 113.997 31.0055 114.067 32.9507H113.928L111.531 28.9908L102.604 15.0617H101.041V34.8264H102.43V22.5647C102.43 20.6542 102.326 18.8479 102.257 16.9722H102.395L104.792 20.8973L113.719 34.8264H115.282V15.0617H113.893V27.1845ZM120.007 16.2775H126.85V34.8611H128.343V16.2775H135.186V15.0965H120.041V16.2775H120.007ZM152.623 27.4624C152.623 32.8812 149.74 34.5138 146.51 34.5138C143.314 34.5138 140.535 32.8812 140.535 27.4624V15.0965H138.972V27.6361C138.972 33.9927 142.654 35.799 146.51 35.799C150.4 35.799 154.117 33.9927 154.117 27.6361V15.0965H152.623V27.4624ZM162.315 24.6141V16.2427H166.761C170.721 16.2427 172.944 17.3196 172.944 20.3068C172.944 23.2246 170.756 24.6141 166.761 24.6141H162.315ZM174.542 20.3068C174.542 16.5206 171.624 15.0965 167.178 15.0965H160.786V34.8611H162.35V25.7951H167.108L173.187 34.8611H174.993L168.81 25.6909C172.319 25.2741 174.542 23.4331 174.542 20.3068ZM180.273 24.9267H189.061V23.7457H180.273V16.2775H190.729V15.0965H178.745V34.8611H191.076V33.6801H180.273V24.9267ZM204.519 25.1004L201.254 23.7457C199.691 23.1204 197.502 22.2173 197.502 19.89C197.502 17.7364 199.413 16.3122 202.261 16.3122C204.415 16.3122 206.151 17.1111 207.402 18.3616L208.27 17.4238C206.95 16.1385 204.866 15.027 202.261 15.027C198.683 15.027 195.974 17.0417 195.974 19.9595C195.974 22.912 198.475 24.1625 200.351 24.9267L203.616 26.2814C205.735 27.1498 207.506 27.9487 207.506 30.4497C207.506 32.8117 205.422 34.479 202.122 34.479C199.621 34.479 197.363 33.4022 195.765 31.7697L194.793 32.7423C196.495 34.5138 198.926 35.7643 202.087 35.7643C206.29 35.7643 209 33.437 209 30.3802C209.069 27.3582 206.95 26.1077 204.519 25.1004ZM9.16457 0.958984H0.654297V50.8049L9.16457 29.2687V0.958984ZM33.8617 30.7276H21.2526L27.7135 13.0123L23.2326 1.89685L4.4405 50.8396H13.9234L18.578 38.0568H36.6406L33.8617 30.7276Z" fill="#464646"/>
</svg>
  