<svg width="213" height="33" viewBox="0 0 213 33" fill="none" xmlns="http://www.w3.org/2000/svg">
  <path d="M42.7929 17.3657C42.7058 15.416 42.2702 13.5486 41.2773 11.8456C40.2429 10.0061 38.5388 8.63658 36.5199 8.02202C35.0207 7.5453 33.4985 7.51243 31.9763 7.6127C31.0114 7.67517 29.979 7.82476 29.1226 8.23737C24.8781 10.2839 22.7839 13.8577 22.3499 18.4161C22.1078 20.6402 22.3004 22.8902 22.917 25.0408C23.4925 27.0876 24.6318 28.9315 26.2047 30.362C28.2316 32.1916 30.7056 32.8146 33.3473 32.9034C34.1561 32.9297 34.9698 32.7522 35.7835 32.6946C38.0043 32.5303 39.9244 31.6425 41.6849 30.3357C42.0137 30.0891 42.0893 29.7784 41.9167 29.4809C41.4614 28.6902 40.9518 27.9324 40.4471 27.1367C40.2416 27.2715 40.0986 27.3488 39.9753 27.4491C38.3315 28.7855 36.3457 29.2294 34.3188 29.5022C33.5676 29.6025 32.818 29.448 32.0602 29.3017C31.0409 29.1299 30.095 28.661 29.3412 27.9537C27.5839 26.277 26.9724 24.1137 26.8015 21.7778C26.7686 21.3487 26.9921 21.1794 27.3735 21.1515C27.6185 21.1317 27.8667 21.1399 28.1116 21.1399H41.7441C42.0729 21.1399 42.3869 21.112 42.7584 21.0939C42.7798 20.7931 42.811 20.5547 42.811 20.3164C42.8143 19.3317 42.8389 18.347 42.7929 17.3657ZM38.4137 17.7585H27.0398C27.013 17.4852 27.013 17.2099 27.0398 16.9366C27.4458 15.0412 28.207 13.3201 29.7259 12.0428C30.4853 11.4017 31.3582 10.9513 32.3971 11.0121C33.2026 11.0598 33.9933 10.9727 34.8169 11.2258C36.2799 11.6763 37.1446 12.6774 37.7758 13.9399C38.2591 14.8933 38.4087 15.9503 38.4827 17.0089C38.4819 17.2604 38.4588 17.5112 38.4137 17.7585ZM114.238 20.2243C114.171 19.0654 114.238 17.9131 114.006 16.741C113.617 14.7766 112.892 13.0012 111.705 11.4215C110.487 9.81054 108.93 8.64011 106.964 8.05161C104.709 7.37434 102.435 7.39407 100.164 7.90695C98.4769 8.28504 97.0566 9.18752 95.855 10.4056C93.3892 12.9009 92.5525 16.0489 92.3421 19.4205C92.2779 20.4462 92.4045 21.4704 92.518 22.5011C92.6667 24.0942 93.1005 25.6477 93.7985 27.0874C94.5108 28.5533 95.5454 29.8391 96.8249 30.8486C98.7416 32.3379 100.969 32.8212 103.313 32.9034C104.009 32.928 104.712 32.7604 105.412 32.6815C106.574 32.5557 107.697 32.1956 108.715 31.6228C110.73 30.4869 112.108 28.797 113.068 26.7258C113.673 25.3634 114.062 23.9146 114.219 22.432C114.314 21.7071 114.238 20.9608 114.238 20.2243ZM108.713 26.0649C107.83 27.7746 106.591 28.922 104.604 29.3181C102.271 29.785 100.372 29.1817 98.8287 27.4425C97.9706 26.4726 97.5136 25.2742 97.1767 24.0381C96.5898 21.9208 96.6736 19.764 96.9136 17.627C97.1208 15.7777 97.8112 14.0303 99.0835 12.6264C99.5127 12.1306 100.043 11.7319 100.638 11.4567C101.233 11.1815 101.88 11.0361 102.536 11.0302C103.45 11.0302 104.357 10.9415 105.286 11.2406C106.92 11.765 107.974 12.8664 108.68 14.3163C109.588 16.1755 109.943 17.387 109.89 20.4578C109.994 22.3975 109.588 24.3305 108.713 26.0649ZM122.252 11.4428C122.836 10.8132 123.275 10.3036 123.75 9.83355C125.293 8.30806 127.133 7.52064 129.339 7.57653C130.54 7.60612 131.724 7.6012 132.896 8.0138C134.86 8.70258 136.228 9.97655 137.014 11.8752C137.52 13.0819 137.779 14.3773 137.778 15.6856C137.765 21.0084 137.778 26.3312 137.778 31.6541C137.778 31.8415 137.752 32.0305 137.729 32.3116C136.346 32.4513 134.975 32.3856 133.519 32.3445C133.498 31.9434 133.465 31.5998 133.465 31.2546C133.465 26.2869 133.465 21.3191 133.465 16.3514C133.473 15.2036 133.19 14.0725 132.643 13.0637C132.287 12.3834 131.698 11.8537 130.984 11.5711C129.571 10.9629 127.992 10.859 126.511 11.2768C124.867 11.7289 123.674 12.6642 122.721 14.022C122.454 14.4018 122.444 14.7716 122.444 15.1727C122.444 20.5504 122.444 25.9274 122.444 31.3039V32.3264H118.128C118.106 32.0091 118.07 31.7198 118.07 31.4288C118.07 23.923 118.07 16.4161 118.07 8.90806C118.07 7.98422 118.08 7.97928 118.969 7.97106C119.709 7.97106 120.449 7.99079 121.187 7.97106C121.693 7.95298 121.93 8.11736 121.961 8.65655C122.012 9.51957 122.137 10.3858 122.252 11.4428ZM79.3211 15.0889H75.269C75.1785 14.8078 75.0701 14.5333 75.0043 14.2505C74.6163 12.582 72.5928 10.9119 70.6809 11.0056C69.6502 11.0565 68.6195 10.93 67.6184 11.3491C65.2644 12.3354 64.7269 15.2599 66.2853 16.6867C66.5525 16.9566 66.8718 17.1691 67.2239 17.3114C68.4289 17.7142 69.6453 18.0972 70.8766 18.4128C73.2454 19.021 75.6339 19.6062 77.6164 21.1153C78.6726 21.8964 79.3934 23.049 79.6334 24.3405C80.4076 28.2578 77.9172 30.8551 75.4153 31.8924C74.3714 32.3264 73.3243 32.6453 72.1917 32.7045C71.3796 32.7472 70.5626 32.9593 69.7637 32.8968C67.5889 32.7324 65.4255 32.4382 63.5893 31.0886C62.3186 30.1532 61.2436 29.0354 60.7225 27.5247C60.4463 26.7208 60.1175 25.8808 60.3016 24.9208H64.5132C64.5609 25.2331 64.5888 25.5537 64.6628 25.8644C64.8006 26.5189 65.0981 27.1292 65.5289 27.6409C65.9597 28.1526 66.5104 28.5497 67.1319 28.797C68.2612 29.2754 69.4546 29.6387 70.6859 29.4973C72.0503 29.3412 73.4361 29.1472 74.4881 28.0852C75.9528 26.6058 75.5928 24.4474 74.0887 23.3427C73.2503 22.7148 72.2541 22.4222 71.2563 22.1476C69.0404 21.5345 66.7686 21.1021 64.6809 20.0517C63.0485 19.2298 61.6808 18.1383 61.214 16.2972C60.8605 14.9064 60.8852 13.4714 61.5214 12.1448C62.6277 9.85325 64.5132 8.47244 66.9543 7.90038C69.3955 7.32832 71.8629 7.32338 74.2366 8.14367C76.6695 8.98368 78.4367 10.6094 79.1813 13.1459C79.3589 13.7262 79.28 14.3788 79.3211 15.0889ZM0 8.08449C0.196291 8.03264 0.396369 7.99637 0.598367 7.976C1.63728 7.976 2.67785 7.99079 3.7217 7.96285C4.25759 7.94805 4.50582 8.21435 4.66034 8.67135C5.405 10.8741 6.16283 13.0719 6.90256 15.2763C7.32503 16.5339 7.70805 17.8046 8.13216 19.0572C8.69601 20.7191 9.30423 22.3663 9.85164 24.0331C10.1442 24.9274 10.3448 25.8414 10.7508 26.803C10.8577 26.5532 10.9843 26.3099 11.0665 26.0534C11.6665 24.1762 12.255 22.2956 12.8484 20.415C13.3761 18.7399 13.8955 17.0632 14.4364 15.3914C15.1947 13.0494 15.9646 10.7108 16.746 8.37545C16.7953 8.22751 16.9909 8.02695 17.1224 8.02367C18.477 7.99736 19.8315 8.00723 21.3406 8.00723C20.9641 9.03957 20.6337 9.94205 20.3049 10.8461C19.1953 13.8938 18.0956 16.9465 16.9761 19.9909C16.1739 22.1706 15.3438 24.3405 14.5333 26.517C13.8758 28.2891 13.2084 30.0612 12.5804 31.8464C12.4456 32.231 12.2319 32.3741 11.8703 32.3757C11.0763 32.3757 10.2823 32.3757 9.48999 32.3757C9.12834 32.3757 8.94094 32.2113 8.80122 31.825C7.86915 29.2869 6.87955 26.7702 5.93597 24.237C4.63568 20.7405 3.36498 17.2325 2.06633 13.736C1.52221 12.2697 0.930423 10.8215 0.374799 9.35848C0.226852 8.98861 0.143016 8.5908 0 8.08449ZM51.3475 32.333H47.0916V8.00394C48.2785 8.00394 49.4193 7.98421 50.5601 8.0138C50.9974 8.02531 50.9908 8.41983 51.0319 8.75025C51.1286 9.58804 51.2708 10.4199 51.4577 11.2423C52.2385 10.2001 52.9914 9.1941 54.0698 8.50039C54.9295 7.94805 55.8583 7.58312 56.9005 7.58476C57.4199 7.58476 57.9427 7.56996 58.4605 7.60449C59.0359 7.64394 59.1181 7.74421 59.0523 8.31463C58.9257 9.42095 58.7745 10.5239 58.6167 11.7667C58.1449 11.7453 57.6435 11.742 57.1454 11.6976C54.9492 11.502 53.1196 12.1004 51.8851 14.0434C51.5263 14.5839 51.3374 15.2194 51.3426 15.8681C51.364 20.9986 51.3541 26.1291 51.3541 31.2612L51.3475 32.333ZM88.29 32.333H84.08V8.04504H88.29V32.333ZM88.29 0V4.36938H84.0669V0.001646L88.29 0Z" fill="#9CA3AF"/>
  <path d="M211.992 16.961C211.981 15.606 211.683 14.2686 211.118 13.0371C210.509 11.6334 209.58 10.3916 208.405 9.41085C207.02 8.27823 205.349 7.8574 203.65 7.6848C202.451 7.56315 201.227 7.55658 199.995 7.88042C198.251 8.33905 196.731 9.14947 195.491 10.3938C193.262 12.636 191.937 15.3172 191.952 18.549C191.952 19.56 191.963 20.5693 191.952 21.5803C191.913 23.5428 192.369 25.4835 193.277 27.2236C194.804 30.1941 197.247 32.0434 200.484 32.5448C202.513 32.8788 204.588 32.8152 206.594 32.3574C208.169 31.9842 209.541 31.2872 210.853 30.3848C211.275 30.0938 211.302 29.7749 211.106 29.4132C210.72 28.7047 210.284 28.0225 209.863 27.3239C209.799 27.3256 209.735 27.3344 209.673 27.3502C209.518 27.462 209.367 27.5803 209.212 27.6921C207.44 28.9924 205.409 29.4856 203.255 29.5826C202.524 29.6105 201.792 29.5223 201.088 29.3212C200.191 29.0779 199.39 28.7426 198.723 28.108C196.946 26.4198 196.205 24.3025 196.175 21.9008C196.163 21.0789 196.234 21.0214 197.056 21.0033C197.275 21.0033 197.493 21.0033 197.714 21.0033C202.12 21.0033 206.527 21.0033 210.935 21.0033C211.264 21.0033 211.575 20.972 211.94 20.9523C211.966 20.64 212.002 20.4016 212.002 20.1633C212.002 19.098 212.005 18.0295 211.992 16.961ZM207.784 17.4378C207.784 17.7928 207.557 17.9079 207.25 17.9161C206.868 17.9276 206.485 17.926 206.099 17.9276H202.006C200.362 17.9276 198.718 17.9276 197.086 17.9276C196.183 17.9276 196.099 17.7632 196.38 16.9101C196.527 16.4777 196.573 16.0125 196.685 15.5687C196.976 14.4277 197.567 13.3852 198.396 12.5489C199.326 11.6021 200.438 10.8294 201.915 10.9675C202.675 11.0366 203.465 10.9363 204.192 11.1155C205.732 11.4952 206.633 12.6574 207.329 14.0004C207.896 15.092 207.802 16.2723 207.786 17.441L207.784 17.4378ZM164.222 18.3238C164.132 17.1388 163.894 15.9697 163.513 14.8437C163.087 13.4971 162.404 12.2459 161.501 11.1599C159.828 9.13797 157.638 7.9922 155.067 7.68315C153.33 7.45118 151.563 7.59925 149.889 8.11713C148.303 8.62379 146.879 9.54149 145.763 10.7768C143.8 12.9139 142.94 15.5276 142.623 18.2958C142.4 20.4325 142.576 22.5922 143.144 24.6641C143.634 26.5878 144.612 28.3529 145.981 29.7897C147.729 31.6489 149.876 32.5925 152.424 32.6516C152.752 32.6516 153.081 32.6516 153.41 32.6516C154.58 32.6418 155.741 32.6631 156.892 32.3097C158.887 31.7074 160.631 30.4677 161.855 28.7804C162.867 27.4176 163.498 25.8789 163.908 24.2203C164.207 23.0104 164.22 21.7759 164.45 20.5644C164.587 19.8131 164.259 19.0668 164.215 18.3271L164.222 18.3238ZM160.012 22.4762C159.861 23.7131 159.514 24.9179 158.983 26.045C158.37 27.3716 157.437 28.4516 156.098 29.0253C154.809 29.611 153.358 29.7352 151.988 29.3771C150.764 29.0889 149.659 28.4264 148.829 27.4817C148.112 26.6762 147.755 25.6735 147.392 24.6872C146.856 23.2154 146.648 21.6448 146.78 20.0844C146.568 18.1545 147.073 16.3035 147.847 14.5232C148.572 12.8596 149.751 11.487 151.564 11.1089C152.854 10.8652 154.179 10.8826 155.462 11.1599C157.206 11.5199 158.233 12.8892 158.984 14.4393C160.229 17.0071 160.331 19.7063 160.005 22.4795L160.012 22.4762ZM172.375 32.2588H168.241V8.15165C169.466 8.08425 170.679 8.11056 172.022 8.1385C172.038 8.92427 172.022 9.65249 172.079 10.3741C172.102 10.7029 172.158 11.2174 172.355 11.3078C172.814 11.5166 172.926 10.9642 173.163 10.6979C174.359 9.34838 175.739 8.34892 177.55 7.88042C178.717 7.59499 179.927 7.53141 181.117 7.69302C183.157 7.93631 185.033 8.69248 186.24 10.4875C186.694 11.1668 187.049 11.9074 187.295 12.687C187.867 14.5051 187.992 16.384 187.972 18.2925C187.928 22.6044 187.957 26.9179 187.957 31.2297V32.2489H183.818C183.797 31.8757 183.761 31.5305 183.761 31.187C183.761 26.2554 183.761 21.3074 183.739 16.3676C183.718 15.3343 183.48 14.3168 183.042 13.3807C182.422 11.9801 181.234 11.2601 179.797 11.0547C177.742 10.7604 175.732 10.9807 174.111 12.4618C173.508 13.0459 172.97 13.6935 172.507 14.3933C172.342 14.6268 172.377 15.0229 172.377 15.3435C172.37 20.6389 172.37 25.9337 172.377 31.2281L172.375 32.2588Z" fill="#9CA3AF"/>
</svg>
  