<svg width="16" height="16" viewBox="0 0 16 16" fill="none" xmlns="http://www.w3.org/2000/svg">
  <circle cx="8" cy="8" r="8" fill="white"/>
  <g clip-path="url(#clip0_2888_7600)">
  <path d="M12.3449 10.671C12.3255 10.7969 12.3419 10.9267 12.3014 11.0501C12.2689 11.1492 12.2178 11.2222 12.1017 11.1936C12.0253 11.1749 12.0107 11.2005 12.0157 11.2692C12.0219 11.3446 12.0226 11.4203 12.0178 11.4958C12.0093 11.6105 11.9567 11.6941 11.8279 11.6558C11.7191 11.6235 11.7327 11.6843 11.7265 11.7513C11.6986 12.0514 11.6651 12.0783 11.3743 12.015C11.2961 11.9979 11.2922 12.0282 11.2799 12.0892C11.2169 12.4008 11.1203 12.4419 10.8598 12.2564C10.7157 12.1538 10.7448 12.2764 10.7247 12.3437C10.697 12.4366 10.6894 12.5484 10.5718 12.576C10.4631 12.6015 10.3824 12.5399 10.3148 12.4618C10.2847 12.427 10.2582 12.3892 10.2189 12.3383C10.1343 12.4869 10.1597 12.6819 9.97149 12.7154C9.78857 12.7479 9.71606 12.5885 9.60518 12.4613C9.54885 12.6188 9.51134 12.7786 9.35088 12.8272C9.16843 12.8825 9.09668 12.7073 8.98658 12.6143C8.75377 13.0556 8.65347 13.0705 8.40314 12.6987C8.32393 12.8324 8.30471 13.027 8.08756 13.0112C7.89964 12.9976 7.8815 12.8312 7.81128 12.6984C7.72005 12.8101 7.66057 12.9747 7.48966 12.9549C7.31148 12.9343 7.31148 12.748 7.23777 12.6163C7.11368 12.6953 7.04573 12.8793 6.8688 12.8312C6.70242 12.786 6.66512 12.625 6.61101 12.4672C6.49333 12.5714 6.43296 12.744 6.25061 12.7169C6.05484 12.6877 6.07858 12.4938 5.99256 12.3382C5.95742 12.3898 5.91877 12.4389 5.87689 12.4852C5.70561 12.6478 5.54394 12.6075 5.49739 12.3803C5.46733 12.2336 5.45187 12.1729 5.29832 12.2933C5.113 12.4387 4.96469 12.3669 4.93709 12.1306C4.92492 12.0266 4.91718 11.9872 4.79647 12.0296C4.5934 12.1009 4.51205 12.0399 4.4889 11.812C4.47868 11.7114 4.49581 11.616 4.33788 11.6611C4.26602 11.6817 4.21994 11.6162 4.2067 11.5493C4.1957 11.4863 4.19206 11.4223 4.19583 11.3585C4.19961 11.2609 4.22781 11.1626 4.05971 11.1943C3.97928 11.2094 3.92898 11.1326 3.91477 11.0488C3.90411 10.9859 3.88813 10.9237 3.88248 10.8603C3.87687 10.7977 3.88125 10.7343 3.88125 10.6676C3.61442 10.724 3.5693 10.6881 3.56557 10.43C3.56456 10.3602 3.56795 10.2903 3.57241 10.2207C3.57692 10.1502 3.57707 10.1022 3.4757 10.1086C3.36378 10.1157 3.32958 10.0237 3.33253 9.92963C3.33506 9.84244 3.34806 9.75588 3.37124 9.67179C3.39498 9.58731 3.39866 9.53599 3.29632 9.50096C3.18513 9.46291 3.2071 9.35779 3.23823 9.27771C3.28315 9.16715 3.33703 9.06044 3.39933 8.95865C3.43814 8.89315 3.48318 8.85085 3.37155 8.80615C3.26468 8.76335 3.28853 8.6648 3.32354 8.58082C3.37968 8.44658 3.45473 8.32107 3.54642 8.20808C3.58572 8.1594 3.61231 8.11795 3.52335 8.07943C3.39824 8.02521 3.42302 7.92333 3.47536 7.82983C3.51621 7.75956 3.56201 7.6923 3.61244 7.62856C3.65792 7.56923 3.71008 7.51502 3.76933 7.44701C3.59545 7.38665 3.59886 7.27584 3.68174 7.14896C3.72605 7.08119 3.77519 7.01652 3.82474 6.95246C3.88383 6.87606 4.00647 6.81994 3.84559 6.70854C3.77665 6.66079 3.82612 6.5448 3.87637 6.48582C3.97975 6.36446 3.94988 6.25105 3.91161 6.1152C3.66673 5.24616 3.71438 4.39027 4.07027 3.55929C4.16869 3.32952 4.27215 3.29121 4.51859 3.34329C5.06437 3.4586 5.46439 3.79591 5.80156 4.21646C5.88166 4.31637 5.9237 4.35461 6.05356 4.27594C6.25332 4.15492 6.48608 4.20208 6.70208 4.24133C6.87276 4.27407 7.04749 4.28003 7.21999 4.25898C7.85859 4.17739 8.49702 4.19181 9.13394 4.27237C9.33647 4.298 9.52328 4.21639 9.72069 4.21503C9.89903 4.2137 10.0789 4.18433 10.2259 4.33126C10.2896 4.39488 10.323 4.32325 10.3584 4.27759C10.5735 4.0002 10.8222 3.75861 11.1221 3.57339C11.2695 3.47952 11.4303 3.40852 11.5989 3.36281C11.9525 3.27195 12.0942 3.34102 12.2117 3.68682C12.494 4.51739 12.5503 5.35743 12.2766 6.20254C12.2453 6.29885 12.2678 6.36333 12.3133 6.44419C12.3718 6.54845 12.473 6.66574 12.302 6.77099C12.2329 6.81358 12.3016 6.84991 12.3245 6.87731C12.4045 6.96882 12.4788 7.06512 12.5471 7.16567C12.6394 7.30796 12.6457 7.39619 12.4389 7.43317C12.5459 7.57421 12.6683 7.68222 12.7383 7.82866C12.7882 7.93331 12.8188 8.03165 12.6777 8.08589C12.5865 8.121 12.6403 8.16695 12.6666 8.20295C12.7525 8.32053 12.8365 8.43913 12.89 8.57526C12.9281 8.67241 12.9508 8.77179 12.8181 8.82004C12.7309 8.85171 12.7746 8.89737 12.8041 8.93884C12.8695 9.02806 12.9224 9.12577 12.9614 9.22929C13.0047 9.34851 13.0484 9.4694 12.8692 9.52163C12.8044 9.5405 12.8274 9.59201 12.836 9.63754C12.857 9.72798 12.8723 9.81966 12.8817 9.91203C12.8871 10.002 12.8661 10.1108 12.7558 10.1053C12.6142 10.0982 12.6429 10.1795 12.6447 10.2573C12.6459 10.3097 12.6501 10.362 12.6499 10.4143C12.6487 10.6814 12.6032 10.72 12.3449 10.671ZM10.4193 10.6118C10.6683 10.617 10.7772 10.5553 10.7572 10.4004C10.7416 10.279 10.7854 10.2732 10.8814 10.2664C11.0969 10.2511 11.2279 10.1546 11.1913 10.0184C11.1507 9.86772 11.2356 9.84265 11.329 9.79224C11.5477 9.67424 11.6053 9.49601 11.4604 9.32289C11.3569 9.19918 11.4206 9.16207 11.516 9.10305C11.6854 8.99832 11.72 8.86195 11.627 8.68711C11.601 8.63529 11.5673 8.58769 11.5272 8.54591C11.446 8.46636 11.4071 8.40057 11.516 8.30611C11.6159 8.21945 11.6035 8.10674 11.5242 8.00947C11.4724 7.94703 11.4131 7.89116 11.3477 7.8431C11.2454 7.76678 11.1071 7.7245 11.1727 7.54181C11.1947 7.48064 11.1219 7.43041 11.0565 7.41047C11.001 7.39355 10.9442 7.38057 10.8873 7.36877C10.8113 7.35292 10.7655 7.34385 10.8166 7.23867C10.8865 7.09498 10.8163 6.97946 10.6596 6.93171C10.6154 6.91826 10.5684 6.91476 10.523 6.9046C10.4605 6.89055 10.4215 6.87718 10.4589 6.79018C10.5444 6.59096 10.5004 6.49679 10.3058 6.40441C10.2248 6.36592 10.1382 6.35898 10.0507 6.3569C9.98169 6.35523 9.92765 6.35416 9.94642 6.25099C9.97329 6.1031 9.87643 6.02436 9.74999 5.98461C9.63868 5.94868 9.52015 5.94114 9.40518 5.96269C9.35685 5.97184 9.28304 5.99428 9.26787 5.92922C9.21087 5.68489 9.0501 5.78683 8.90945 5.81071C8.8514 5.82056 8.80483 5.88085 8.73221 5.83111C8.52757 5.69081 8.47632 5.69584 8.29796 5.84657C8.10659 6.00833 8.10628 6.00869 7.92002 5.84931C7.81943 5.76329 7.68424 5.66018 7.58071 5.75341C7.44434 5.87623 7.33546 5.8247 7.20725 5.7867C7.12689 5.7629 7.0146 5.73978 6.99197 5.82939C6.94855 6.00142 6.84533 5.96975 6.72778 5.95352C6.63472 5.94207 6.54027 5.95408 6.45303 5.98844C6.34616 6.02897 6.24039 6.09361 6.26596 6.2267C6.29046 6.35413 6.22851 6.36104 6.13749 6.35911C6.01433 6.35558 5.89426 6.3979 5.80054 6.47789C5.71117 6.55087 5.67765 6.63342 5.72808 6.73679C5.79064 6.86493 5.74758 6.90622 5.61452 6.92321C5.43136 6.94667 5.32965 7.05244 5.38572 7.18037C5.46913 7.37064 5.34894 7.36728 5.23408 7.39108C5.13375 7.41193 5.0144 7.44482 5.0426 7.56892C5.07367 7.70566 5.01393 7.7525 4.91386 7.80486C4.82098 7.85438 4.74107 7.92508 4.68061 8.01124C4.61745 8.09968 4.59105 8.20725 4.67321 8.28336C4.80669 8.40701 4.7311 8.48901 4.64952 8.58801C4.46534 8.81157 4.49023 8.98386 4.73414 9.13016C4.83152 9.1886 4.83283 9.22566 4.76449 9.31452C4.62512 9.49564 4.65123 9.61844 4.83637 9.75439C4.88314 9.78859 4.93305 9.81826 4.98544 9.84301C5.02347 9.86102 5.05024 9.86673 5.04703 9.92564C5.03288 10.1858 5.08045 10.246 5.32971 10.2651C5.43657 10.2732 5.47999 10.2865 5.45635 10.4114C5.43386 10.5302 5.53046 10.5871 5.63537 10.6066C5.69857 10.6173 5.76304 10.6181 5.82648 10.609C5.9157 10.5973 5.95649 10.6183 5.94447 10.7176C5.92985 10.8386 6.01224 10.8831 6.11311 10.8957C6.18836 10.9031 6.26406 10.9046 6.33954 10.9002C6.41993 10.8976 6.47787 10.909 6.46539 11.0125C6.45043 11.1365 6.52453 11.1891 6.63481 11.2132C6.74384 11.2371 6.85073 11.2502 6.96216 11.2233C7.01483 11.2105 7.07398 11.1912 7.12441 11.2445C7.32819 11.4599 7.39835 11.4772 7.65668 11.3489C7.7679 11.2937 7.8174 11.3072 7.87714 11.4245C7.9863 11.6389 8.22889 11.6518 8.32499 11.4418C8.4035 11.2701 8.48023 11.3096 8.5993 11.3695C8.73413 11.4373 8.91208 11.4861 9.00245 11.3575C9.11135 11.2026 9.22095 11.2079 9.36848 11.2373C9.46143 11.2559 9.55242 11.2191 9.64146 11.1938C9.70983 11.1744 9.75664 11.1238 9.74718 11.0523C9.72776 10.9054 9.80713 10.8902 9.92202 10.8998C9.99164 10.9051 10.0616 10.9029 10.1308 10.8931C10.2142 10.8818 10.2793 10.832 10.2685 10.7431C10.2506 10.5972 10.3274 10.5913 10.4193 10.6118ZM11.9962 5.14688C11.9875 4.9865 11.987 4.85282 11.9715 4.72088C11.948 4.52033 11.9331 4.31603 11.8419 4.13084C11.7916 4.02898 11.7183 3.9549 11.5942 4.02682C11.4386 4.11697 11.4027 4.21876 11.4804 4.33485C11.5986 4.51149 11.6736 4.70237 11.6779 4.91753C11.6803 5.03764 11.6684 5.15718 11.7837 5.24721C11.8352 5.28745 11.8238 5.35597 11.7878 5.42119C11.7325 5.5213 11.8433 5.53587 11.89 5.56155C11.9594 5.59968 11.9581 5.51776 11.9632 5.48195C11.9802 5.36181 11.9876 5.2403 11.9962 5.14688ZM4.21916 5.13812C4.22768 5.24238 4.23172 5.34716 4.24681 5.45036C4.25336 5.49493 4.24316 5.57896 4.31546 5.56483C4.37718 5.55279 4.45006 5.50606 4.41451 5.41366C4.37765 5.31761 4.4049 5.24118 4.48307 5.18363C4.54041 5.14148 4.53676 5.08505 4.53454 5.02724C4.52412 4.76373 4.6038 4.50453 4.76044 4.29237C4.7826 4.26127 4.82498 4.23273 4.78099 4.18863C4.70522 4.1127 4.65454 3.99243 4.52555 4.00148C4.40745 4.00977 4.37669 4.11643 4.34288 4.20951C4.23391 4.5099 4.24639 4.82675 4.21907 5.13812H4.21916Z" fill="#F49662"/>
  <path d="M10.4194 10.6114C10.3275 10.5909 10.2508 10.5968 10.2686 10.7428C10.2795 10.8318 10.2144 10.8815 10.1309 10.8928C10.0618 10.9026 9.99178 10.9049 9.92216 10.8995C9.80714 10.8899 9.7279 10.9052 9.74732 11.0521C9.75678 11.1236 9.70997 11.1741 9.6416 11.1935C9.55256 11.2188 9.46157 11.2556 9.36862 11.2371C9.22109 11.2077 9.11149 11.2023 9.00259 11.3572C8.91217 11.4858 8.73428 11.437 8.59944 11.3692C8.48038 11.3093 8.40364 11.2699 8.32514 11.4415C8.22903 11.6516 7.98644 11.6386 7.87728 11.4242C7.81754 11.3069 7.76804 11.2933 7.65683 11.3486C7.39849 11.477 7.32841 11.4596 7.12455 11.2442C7.07412 11.1909 7.01508 11.2103 6.9623 11.223C6.85087 11.25 6.74398 11.2368 6.63495 11.2129C6.52475 11.1888 6.45065 11.1361 6.46553 11.0122C6.47801 10.9087 6.42007 10.8973 6.33968 10.8999C6.26421 10.9043 6.1885 10.9028 6.11326 10.8955C6.01241 10.8829 5.92999 10.8383 5.94462 10.7173C5.95663 10.618 5.91595 10.5971 5.82662 10.6087C5.76318 10.6178 5.69871 10.617 5.63551 10.6063C5.5306 10.5868 5.434 10.53 5.4565 10.4112C5.48014 10.2862 5.43661 10.273 5.32985 10.2648C5.08059 10.2458 5.03302 10.1856 5.04717 9.92537C5.05038 9.86646 5.02372 9.86075 4.98558 9.84274C4.9332 9.818 4.88328 9.78832 4.83652 9.75412C4.65145 9.61817 4.62539 9.49537 4.76463 9.31425C4.83297 9.22539 4.83167 9.18833 4.73429 9.12989C4.49037 8.98351 4.46548 8.81122 4.64966 8.58774C4.73124 8.48869 4.80683 8.40674 4.67335 8.28309C4.59119 8.20698 4.61759 8.09941 4.68075 8.01097C4.74121 7.92481 4.82112 7.85411 4.91401 7.80459C5.01415 7.75223 5.07382 7.70539 5.04275 7.56865C5.01454 7.44456 5.13397 7.41161 5.23422 7.39081C5.34909 7.36701 5.46929 7.37051 5.38586 7.1801C5.32979 7.05217 5.4315 6.94645 5.61466 6.92294C5.74772 6.90587 5.79075 6.86466 5.72822 6.73652C5.67779 6.63315 5.71131 6.5506 5.80069 6.47762C5.8944 6.39764 6.01447 6.35531 6.13763 6.35884C6.22865 6.36077 6.2906 6.35387 6.2661 6.22643C6.24053 6.09335 6.34641 6.0287 6.45317 5.98817C6.54041 5.95381 6.63486 5.9418 6.72792 5.95324C6.84548 5.96948 6.94869 6.00113 6.99212 5.82912C7.01474 5.73951 7.12703 5.76263 7.20739 5.78643C7.3356 5.82443 7.44458 5.87596 7.58085 5.75314C7.68438 5.65991 7.81958 5.76295 7.92016 5.84904C8.1064 6.00843 8.10671 6.00804 8.2981 5.8463C8.47647 5.69557 8.52771 5.69054 8.73235 5.83084C8.80492 5.88058 8.85149 5.82042 8.90959 5.81043C9.05034 5.78656 9.21101 5.68462 9.26801 5.92895C9.28318 5.99411 9.35699 5.97157 9.40532 5.96242C9.52029 5.94088 9.63882 5.94841 9.75013 5.98434C9.87657 6.02409 9.97343 6.10283 9.94656 6.25073C9.9278 6.35389 9.98183 6.35499 10.0508 6.35663C10.1383 6.35871 10.2249 6.36565 10.3059 6.40414C10.5006 6.49657 10.5445 6.59074 10.459 6.7899C10.4217 6.87691 10.4606 6.89028 10.5232 6.90433C10.5684 6.9145 10.6156 6.91799 10.6598 6.93144C10.8164 6.97919 10.8865 7.09471 10.8168 7.23841C10.7657 7.34358 10.8116 7.35265 10.8875 7.3685C10.9443 7.38033 11.0012 7.39331 11.0566 7.4102C11.122 7.43014 11.1948 7.48037 11.1729 7.54154C11.1073 7.72423 11.2455 7.76651 11.3479 7.84283C11.4133 7.89089 11.4725 7.94676 11.5244 8.0092C11.6036 8.10648 11.6161 8.21918 11.5162 8.30585C11.4073 8.40036 11.4462 8.46614 11.5273 8.54564C11.5675 8.58742 11.6011 8.63502 11.6271 8.68684C11.7201 8.86168 11.6856 8.99805 11.5161 9.10278C11.4207 9.16179 11.3571 9.19891 11.4606 9.32262C11.6054 9.49574 11.5479 9.67397 11.3292 9.79197C11.2358 9.84238 11.1508 9.86756 11.1914 10.0181C11.228 10.1543 11.0971 10.2508 10.8815 10.2661C10.7856 10.273 10.7417 10.2788 10.7574 10.4001C10.7774 10.5549 10.6684 10.6167 10.4194 10.6114ZM8.10223 9.93525C8.64161 9.94204 9.16733 9.76561 9.59341 9.4348C9.64814 9.3933 9.72355 9.3449 9.66561 9.26663C9.60216 9.18095 9.53528 9.23824 9.47314 9.28748C9.21599 9.48903 8.9166 9.62981 8.59736 9.69931C8.19857 9.79158 8.19919 9.79372 8.19927 9.39565C8.19927 9.35494 8.20015 9.3142 8.19927 9.27351C8.19809 9.2177 8.22012 9.18304 8.28028 9.18721C8.51982 9.20381 8.58558 9.017 8.67556 8.85485C8.7336 8.75025 8.70044 8.69033 8.59428 8.65861C8.2751 8.5624 7.93461 8.56269 7.6156 8.65945C7.56433 8.67448 7.51689 8.69875 7.51115 8.76183C7.50073 8.87737 7.72124 9.18254 7.83749 9.17595C8.02659 9.16521 8.02864 9.26837 8.01759 9.40157C8.01113 9.45948 8.01133 9.51795 8.01822 9.57581C8.0411 9.72811 7.97766 9.76669 7.83456 9.74234C7.43918 9.67512 7.07115 9.54612 6.75237 9.29522C6.69427 9.2495 6.62802 9.17488 6.55921 9.25766C6.47973 9.35327 6.58076 9.40412 6.64097 9.44903C7.06066 9.7686 7.57466 9.93963 8.10215 9.93525H8.10223ZM9.45028 8.63249C9.72157 8.63135 9.96957 8.41446 9.97468 8.1739C9.98096 7.87702 9.75274 7.65185 9.44638 7.6526C9.15781 7.65336 8.91694 7.87677 8.91726 8.14328C8.91736 8.4051 9.16652 8.63372 9.45021 8.63249H9.45028ZM6.77453 8.63195C7.05918 8.62918 7.30323 8.39773 7.29904 8.13452C7.29479 7.86746 7.05142 7.65013 6.76069 7.65349C6.4679 7.65691 6.23459 7.87859 6.23972 8.14852C6.24473 8.41631 6.48636 8.63474 6.77445 8.63187L6.77453 8.63195Z" fill="#FDF6E8"/>
  <path d="M11.9964 5.14678C11.9878 5.2402 11.9804 5.36171 11.9634 5.48185C11.9581 5.51766 11.9596 5.59958 11.8901 5.56145C11.8434 5.5358 11.7326 5.5212 11.7879 5.42109C11.8239 5.35592 11.8354 5.28735 11.7838 5.24711C11.6685 5.15708 11.6804 5.03754 11.678 4.91743C11.6738 4.70237 11.5987 4.51139 11.4805 4.33475C11.4028 4.21866 11.4388 4.11687 11.5944 4.02671C11.7186 3.9548 11.7919 4.02888 11.842 4.13074C11.9332 4.3158 11.948 4.52023 11.9716 4.72077C11.9872 4.85272 11.9877 4.9864 11.9964 5.14678Z" fill="#FDF6E8"/>
  <path d="M4.21924 5.13821C4.2464 4.82678 4.23391 4.50988 4.34305 4.20949C4.37693 4.11641 4.40761 4.00975 4.52571 4.00146C4.65466 3.99241 4.70533 4.11268 4.78115 4.18861C4.82515 4.23271 4.78276 4.26125 4.76061 4.29235C4.60397 4.50451 4.52429 4.76371 4.5347 5.02722C4.53692 5.08498 4.54049 5.14141 4.48322 5.18361C4.40503 5.24116 4.37782 5.31759 4.41467 5.41364C4.45012 5.50609 4.37724 5.55282 4.31563 5.56481C4.24332 5.57894 4.25351 5.49491 4.24697 5.45034C4.23172 5.34714 4.22768 5.24228 4.21924 5.13821Z" fill="#FDF6E8"/>
  <path d="M8.10206 9.93537C7.57456 9.93984 7.06053 9.76885 6.64083 9.44928C6.58061 9.40437 6.47959 9.35351 6.55906 9.25791C6.62787 9.17513 6.69413 9.24975 6.75222 9.29547C7.071 9.54637 7.43904 9.67537 7.83442 9.74259C7.97752 9.76693 8.04096 9.72836 8.01807 9.57606C8.01119 9.51819 8.01098 9.45973 8.01745 9.40181C8.0285 9.26862 8.02644 9.16545 7.83734 9.17619C7.72109 9.18279 7.50048 8.87762 7.51101 8.76207C7.51674 8.699 7.56417 8.67473 7.61544 8.65969C7.93446 8.56294 8.27496 8.56265 8.59414 8.65886C8.7003 8.69058 8.73345 8.7505 8.6754 8.8551C8.58543 9.01725 8.51967 9.20406 8.28013 9.18745C8.21992 9.18328 8.19795 9.21795 8.19912 9.27376C8.19998 9.31444 8.19912 9.35518 8.19912 9.3959C8.19912 9.79396 8.19854 9.79183 8.59721 9.69956C8.91645 9.63006 9.21585 9.48927 9.473 9.28773C9.53508 9.23839 9.60202 9.18109 9.66546 9.26687C9.7234 9.34507 9.64794 9.39355 9.59326 9.43505C9.16718 9.76585 8.64144 9.94225 8.10206 9.93537Z" fill="#08360C"/>
  <path d="M9.4502 8.63313C9.16651 8.63436 8.91735 8.40574 8.91711 8.144C8.91685 7.87743 9.15772 7.65397 9.44624 7.65332C9.7526 7.65249 9.98083 7.87766 9.97455 8.17462C9.96949 8.4151 9.72154 8.63198 9.4502 8.63313ZM9.75133 7.94366C9.74429 7.87701 9.70441 7.8394 9.63896 7.84394C9.58475 7.84764 9.53916 7.87759 9.54166 7.94113C9.54427 8.0089 9.58396 8.04359 9.65269 8.04049C9.71296 8.03778 9.74533 8.00489 9.75133 7.94366Z" fill="#08360C"/>
  <path d="M6.77451 8.6323C6.48642 8.63509 6.24479 8.41667 6.23971 8.14888C6.2345 7.87895 6.46788 7.65726 6.76067 7.65385C7.05151 7.65048 7.29477 7.86781 7.29901 8.13488C7.30321 8.39816 7.05917 8.6297 6.77451 8.6323ZM6.95934 8.04063C7.02377 8.04151 7.06464 8.01308 7.06954 7.95318C7.07517 7.88442 7.03305 7.8448 6.96726 7.84313C6.9113 7.84172 6.86405 7.87204 6.86003 7.93209C6.85555 7.99926 6.89477 8.03711 6.95934 8.04084V8.04063Z" fill="#08360C"/>
  <path d="M9.75115 7.94285C9.74516 8.00408 9.71278 8.03698 9.65252 8.03969C9.58379 8.04279 9.54415 8.00815 9.54149 7.94033C9.53888 7.87678 9.58457 7.84683 9.63879 7.84313C9.70434 7.83867 9.74412 7.8762 9.75115 7.94285Z" fill="#FDF6E8"/>
  <path d="M6.95927 8.04032C6.89471 8.03659 6.85548 7.99861 6.85997 7.93178C6.86398 7.87183 6.91123 7.84141 6.96719 7.84282C7.03298 7.84449 7.0751 7.88411 7.06947 7.95287C7.06457 8.01277 7.02381 8.0412 6.95927 8.04032Z" fill="#FDF6E8"/>
  </g>
  <defs>
  <clipPath id="clip0_2888_7600">
  <rect width="9.78702" height="9.68927" fill="white" transform="translate(3.21301 3.32275)"/>
  </clipPath>
  </defs>
  </svg>
  