
<svg viewBox="0 0 1607 1710" fill="none" xmlns="http://www.w3.org/2000/svg"><mask id="mask0_2850_7586" style="mask-type:alpha" maskUnits="userSpaceOnUse" x="10" y="10" width="1480" height="1494"><path d="M804.053 389.358 343.76 26.5287c-9.982-7.8626-21.896-13.0594-34.544-15.0684-12.648-2.00906-25.586-.7596-37.513 3.6228-11.927 4.3825-22.424 11.7437-30.437 21.3442-8.012 9.6005-13.259 21.1023-15.211 33.3502L136.21 634.744c-1.944 12.25-.525 24.812 4.114 36.425 4.639 11.612 12.334 21.867 22.314 29.734 9.979 7.866 21.891 13.068 34.539 15.081 12.647 2.014 25.585.77 37.515-3.609l550.138-202.14c11.929-4.382 22.428-11.745 30.44-21.349 8.013-9.603 13.257-21.108 15.205-33.359 1.948-12.251.532-24.815-4.106-36.43-4.638-11.616-12.335-21.872-22.316-29.739ZM678.94 1176.09 218.647 813.265c-9.982-7.862-21.896-13.059-34.544-15.068-12.649-2.009-25.586-.76-37.514 3.623-11.927 4.383-22.424 11.745-30.437 21.346-8.012 9.6-13.258 21.103-15.21 33.351L11.097 1421.48c-1.94363 12.25-.5248 24.81 4.1142 36.43 4.6389 11.61 12.3346 21.86 22.314 29.73 9.9794 7.87 21.8911 13.07 34.5387 15.08 12.6477 2.01 25.5859.77 37.5151-3.61l550.138-202.14c11.93-4.38 22.429-11.74 30.442-21.35 8.013-9.6 13.257-21.11 15.206-33.36 1.948-12.25.532-24.81-4.107-36.43-4.638-11.61-12.335-21.87-22.318-29.74ZM1461.93 897.374l-460.3-362.827c-9.977-7.862-21.891-13.059-34.539-15.068-12.648-2.009-25.586-.76-37.513 3.623-11.927 4.382-22.424 11.743-30.437 21.344-8.013 9.6-13.259 21.102-15.211 33.35l-89.846 564.964c-1.943 12.25-.523 24.81 4.116 36.43 4.639 11.61 12.335 21.86 22.314 29.73 9.98 7.87 21.891 13.07 34.539 15.08 12.647 2.01 25.585.77 37.514-3.61l550.143-202.14c11.93-4.38 22.42-11.74 30.44-21.348 8.01-9.603 13.25-21.109 15.2-33.359 1.95-12.251.53-24.816-4.11-36.431-4.63-11.615-12.33-21.871-22.31-29.738Z" fill="#F41C52"/></mask><g mask="url(#mask0_2850_7586)"><g filter="url(#filter0_f_2850_7586)"><circle cx="1326.47" cy="1108.47" r="304.465" fill="url(#paint0_linear_2850_7586)"/></g><g filter="url(#filter1_f_2850_7586)"><circle cx="199.466" cy="357.465" r="304.465" fill="url(#paint1_linear_2850_7586)"/></g></g><defs><linearGradient id="paint0_linear_2850_7586" x1="845.772" y1="919.493" x2="1261.74" y2="590.781" gradientUnits="userSpaceOnUse"><stop stop-color="#BB8AFA"/><stop offset=".494792" stop-color="#FF698F"/><stop offset="1" stop-color="#FFEDAD"/></linearGradient><linearGradient id="paint1_linear_2850_7586" x1="-281.228" y1="168.493" x2="134.738" y2="-160.219" gradientUnits="userSpaceOnUse"><stop stop-color="#BB8AFA"/><stop offset=".494792" stop-color="#FF698F"/><stop offset="1" stop-color="#FFEDAD"/></linearGradient><filter id="filter0_f_2850_7586" x="664.646" y="446.646" width="1323.64" height="1323.64" filterUnits="userSpaceOnUse" color-interpolation-filters="sRGB"><feFlood flood-opacity="0" result="BackgroundImageFix"/><feBlend in="SourceGraphic" in2="BackgroundImageFix" result="shape"/><feGaussianBlur stdDeviation="178.677" result="effect1_foregroundBlur_2850_7586"/></filter><filter id="filter1_f_2850_7586" x="-462.354" y="-304.354" width="1323.64" height="1323.64" filterUnits="userSpaceOnUse" color-interpolation-filters="sRGB"><feFlood flood-opacity="0" result="BackgroundImageFix"/><feBlend in="SourceGraphic" in2="BackgroundImageFix" result="shape"/><feGaussianBlur stdDeviation="178.677" result="effect1_foregroundBlur_2850_7586"/></filter></defs></svg>