<svg viewBox="0 0 1920 1466" fill="none" xmlns="http://www.w3.org/2000/svg"><mask id="b" style="mask-type:alpha" maskUnits="userSpaceOnUse" x="0" y="0" width="1920" height="1466"><path fill="url(#a)" d="M0 0h1920v1466H0z"/></mask><g mask="url(#b)"><mask id="c" style="mask-type:alpha" maskUnits="userSpaceOnUse" x="-101" y="-261" width="2123" height="2311"><path d="M849.232 191.144 66.4754-246.531C49.5012-256.013 30.2495-261.004 10.6537-261c-19.59585.004-38.8459 5.001-55.8164 14.49-16.9705 9.488-31.0639 23.135-40.865 39.568-9.8011 16.434-14.9653 35.075-14.9723 54.053v875.34c.007 18.978 5.1698 37.621 14.9706 54.055 9.8008 16.434 23.8941 30.081 40.8647 39.57 16.9707 9.49 36.22105 14.487 55.8173 14.491 19.5962.004 38.8483-4.987 55.8228-14.469L849.232 378.427c16.974-9.489 31.069-23.139 40.869-39.577 9.8-16.437 14.959-35.084 14.959-54.064 0-18.981-5.159-37.628-14.959-54.065-9.8-16.438-23.895-30.088-40.869-39.577ZM849.232 1410.08 66.4754 972.413c-16.9746-9.483-36.2269-14.473-55.8231-14.469-19.59624.004-38.8464 5.001-55.817 14.49-16.9706 9.49-31.0642 23.137-40.865 39.566-9.8008 16.44-14.9633 35.08-14.9703 54.06v875.34c.007 18.97 5.1695 37.62 14.9703 54.05 9.8008 16.43 23.8944 30.08 40.865 39.57 16.9706 9.49 36.22076 14.49 55.817 14.49 19.5962 0 38.8485-4.99 55.8231-14.47l782.7566-437.67c16.975-9.49 31.071-23.14 40.871-39.58 9.801-16.43 14.961-35.08 14.961-54.06 0-18.98-5.16-37.63-14.961-54.07-9.8-16.44-23.896-30.09-40.871-39.58ZM1965.45 800.735l-782.75-437.67c-16.98-9.483-36.23-14.473-55.83-14.469-19.59.003-38.84 5-55.81 14.489s-31.07 23.136-40.87 39.569c-9.8 16.433-14.96 35.075-14.97 54.053v875.343c.01 18.97 5.17 37.62 14.97 54.05s23.9 30.08 40.87 39.57c16.97 9.49 36.22 14.48 55.81 14.49 19.6 0 38.85-4.99 55.83-14.47l782.75-437.671c16.98-9.49 31.07-23.14 40.87-39.577 9.8-16.438 14.96-35.084 14.96-54.065 0-18.981-5.16-37.627-14.96-54.065-9.8-16.437-23.89-30.087-40.87-39.577Z" fill="#F41C52"/></mask><g filter="url(#d)" mask="url(#c)"><ellipse cx="1014.28" cy="776.755" rx="425" ry="483.5" fill="#FF738D"/></g><mask id="e" style="mask-type:alpha" maskUnits="userSpaceOnUse" x="1015" y="348" width="1007" height="1093"><path d="m1965.45 800.735-782.76-437.67c-16.97-9.483-36.22-14.473-55.82-14.469-19.59.003-38.84 5-55.81 14.489s-31.07 23.136-40.87 39.569c-9.8 16.433-14.96 35.075-14.97 54.053v875.343c.01 18.97 5.17 37.62 14.97 54.05s23.9 30.08 40.87 39.57c16.97 9.49 36.22 14.48 55.81 14.49 19.6 0 38.85-4.99 55.82-14.47l782.76-437.671c16.98-9.49 31.07-23.14 40.87-39.577 9.8-16.438 14.96-35.084 14.96-54.065 0-18.981-5.16-37.627-14.96-54.065-9.8-16.438-23.89-30.087-40.87-39.577Z" fill="#F41C52"/></mask><g opacity=".3" mask="url(#e)"><path d="M1127.05 552.995 730.192 330.607c-8.606-4.818-18.367-7.354-28.302-7.352-9.935.002-19.695 2.541-28.299 7.362-8.604 4.822-15.75 11.756-20.719 20.106-4.969 8.35-7.587 17.822-7.591 27.464v444.772c.004 9.643 2.621 19.116 7.59 27.466 4.969 8.35 12.115 15.284 20.719 20.106 8.604 4.822 18.364 7.361 28.299 7.363 9.936.002 19.696-2.534 28.303-7.352l396.858-222.386c8.61-4.822 15.75-11.757 20.72-20.109 4.97-8.353 7.59-17.827 7.59-27.471 0-9.645-2.62-19.119-7.59-27.471-4.97-8.353-12.11-15.288-20.72-20.11Z" fill="url(#f)"/><path d="M1127.05 1172.35 730.192 949.968c-8.607-4.819-18.368-7.354-28.303-7.352-9.935.002-19.695 2.541-28.299 7.363-8.604 4.821-15.75 11.756-20.719 20.106-4.969 8.35-7.586 17.823-7.59 27.466v444.769c.004 9.64 2.621 19.12 7.59 27.47 4.969 8.35 12.115 15.28 20.719 20.1 8.604 4.82 18.364 7.36 28.299 7.36 9.935.01 19.696-2.53 28.303-7.35l396.858-222.38c8.61-4.82 15.75-11.76 20.72-20.11 4.97-8.36 7.59-17.83 7.59-27.47 0-9.65-2.62-19.12-7.59-27.48-4.97-8.35-12.11-15.28-20.72-20.11Z" fill="url(#g)"/><path d="M1692.98 862.736 1296.12 640.35c-8.61-4.818-18.37-7.354-28.3-7.352-9.94.002-19.7 2.541-28.3 7.363-8.61 4.821-15.75 11.755-20.72 20.105-4.97 8.35-7.59 17.822-7.59 27.465V1132.7c0 9.65 2.62 19.12 7.59 27.47 4.97 8.35 12.11 15.28 20.72 20.1 8.6 4.82 18.36 7.36 28.3 7.37 9.93 0 19.69-2.54 28.3-7.36l396.86-222.383c8.6-4.821 15.75-11.757 20.72-20.109 4.97-8.352 7.58-17.827 7.58-27.471 0-9.645-2.61-19.119-7.58-27.471-4.97-8.352-12.12-15.288-20.72-20.11Z" fill="url(#h)"/></g></g><defs><linearGradient id="a" x1="960" y1="59.4643" x2="960" y2="1725.84" gradientUnits="userSpaceOnUse"><stop stop-color="#D9D9D9"/><stop offset="1" stop-color="#D9D9D9" stop-opacity="0"/></linearGradient><linearGradient id="f" x1="645.281" y1="876.755" x2="1721.28" y2="876.755" gradientUnits="userSpaceOnUse"><stop offset=".520833" stop-color="#F41C52"/><stop offset="1" stop-color="#F41C52" stop-opacity="0"/></linearGradient><linearGradient id="g" x1="645.281" y1="876.755" x2="1721.28" y2="876.755" gradientUnits="userSpaceOnUse"><stop offset=".520833" stop-color="#F41C52"/><stop offset="1" stop-color="#F41C52" stop-opacity="0"/></linearGradient><linearGradient id="h" x1="645.281" y1="876.755" x2="1721.28" y2="876.755" gradientUnits="userSpaceOnUse"><stop offset=".520833" stop-color="#F41C52"/><stop offset="1" stop-color="#F41C52" stop-opacity="0"/></linearGradient><filter id="d" x="89.2812" y="-206.745" width="1850" height="1967" filterUnits="userSpaceOnUse" color-interpolation-filters="sRGB"><feFlood flood-opacity="0" result="BackgroundImageFix"/><feBlend in="SourceGraphic" in2="BackgroundImageFix" result="shape"/><feGaussianBlur stdDeviation="250" result="effect1_foregroundBlur_2124_9389"/></filter></defs></svg>