<svg width="93" height="123" viewBox="0 0 93 123" fill="none" xmlns="http://www.w3.org/2000/svg">
<g clip-path="url(#clip0_13206_107673)">
<rect x="0.083374" width="92.0459" height="122.728" rx="9.20459" fill="white"/>
<rect x="0.083374" width="92.0459" height="122.728" rx="9.20459" stroke="#E7E7E7"/>
<path d="M0.083374 9.20459C0.083374 4.12103 4.20441 0 9.28796 0H82.9247C88.0082 0 92.1292 4.12103 92.1292 9.20459V76.7049H0.083374V9.20459Z" fill="#2050E0"/>
<path d="M0.083374 9.20459C0.083374 4.12103 4.20441 0 9.28796 0H82.9247C88.0082 0 92.1292 4.12103 92.1292 9.20459V76.7049H0.083374V9.20459Z" stroke="#E7E7E7"/>
<path fill-rule="evenodd" clip-rule="evenodd" d="M51.46 36.649H52.3053C53.2387 36.649 53.996 37.432 53.996 38.3972V45.3903C53.996 46.3555 53.2387 47.1386 52.3053 47.1386H39.9073C38.9739 47.1386 38.2167 46.3555 38.2167 45.3903V38.3972C38.2167 37.432 38.9739 36.649 39.9073 36.649H40.7526V34.0266C40.7526 30.9744 43.1547 28.4904 46.1063 28.4904C49.0579 28.4904 51.46 30.9744 51.46 34.0266V36.649ZM43.5703 34.0265V36.6489H48.6422V34.0265C48.6422 32.5805 47.5046 31.4041 46.1063 31.4041C44.708 31.4041 43.5703 32.5805 43.5703 34.0265Z" fill="white"/>
<path d="M46.1064 10.7386L47.001 13.6341H49.8964L47.5541 15.4235L48.4487 18.3189L46.1064 16.5284L43.7645 18.3189L44.6593 15.4235L42.3162 13.6341H45.2116L46.1064 10.7386Z" fill="#F8D12E"/>
<path d="M46.1064 58.386L47.001 61.2823H49.8964L47.5541 63.0714L48.4487 65.9662L46.1064 64.1773L43.7645 65.9662L44.6593 63.0714L42.3162 61.2823H45.2116L46.1064 58.386Z" fill="#F8D12E"/>
<path d="M58.018 15.0702L58.9123 17.9656H61.8082L59.4653 19.7557L60.3602 22.6504L58.018 20.8603L55.6754 22.6504L56.5701 19.7557L54.2279 17.9656H57.1238L58.018 15.0702Z" fill="#F8D12E"/>
<path d="M67.6485 46.2421L68.5427 49.1384H71.4383L69.0958 50.9277L69.9911 53.8223L67.6485 52.0337L65.3059 53.8223L66.2007 50.9277L63.858 49.1384H66.7537L67.6485 46.2421Z" fill="#F8D12E"/>
<path d="M69.9302 34.5624L70.8244 37.4576H73.7201L71.3776 39.2468L72.2723 42.1426L69.9302 40.354L67.5877 42.1426L68.483 39.2468L66.1399 37.4576H69.035L69.9302 34.5624Z" fill="#F8D12E"/>
<path d="M22.2832 34.5624L23.1775 37.4576H26.0728L23.7301 39.2468L24.6255 42.1426L22.2832 40.354L19.9404 42.1426L20.8353 39.2468L18.4926 37.4576H21.3883L22.2832 34.5624Z" fill="#F8D12E"/>
<path d="M24.2558 46.2421L25.15 49.1384H28.0453L25.7033 50.9277L26.5974 53.8223L24.2558 52.0337L21.9131 53.8223L22.8078 50.9277L20.4651 49.1384H23.361L24.2558 46.2421Z" fill="#F8D12E"/>
<path d="M67.6485 22.5731L68.5427 25.4695H71.4383L69.0958 27.2588L69.9911 30.1534L67.6485 28.3647L65.3059 30.1534L66.2007 27.2588L63.858 25.4695H66.7537L67.6485 22.5731Z" fill="#F8D12E"/>
<path d="M25.2418 22.5731L26.1361 25.4695H29.0314L26.6893 27.2588L27.5835 30.1534L25.2418 28.3647L22.8991 30.1534L23.7939 27.2588L21.4512 25.4695H24.3471L25.2418 22.5731Z" fill="#F8D12E"/>
<path d="M60.1842 56.2202L61.0784 59.1152H63.974L61.6309 60.9055L62.5262 63.8005L60.1842 62.0113L57.841 63.8005L58.7365 60.9055L56.3938 59.1152H59.2895L60.1842 56.2202Z" fill="#F8D12E"/>
<path d="M34.1945 15.0702L35.0886 17.9656H37.9845L35.6418 19.7557L36.5372 22.6504L34.1945 20.8603L31.8523 22.6504L32.747 19.7557L30.4043 17.9656H33.2996L34.1945 15.0702Z" fill="#F8D12E"/>
<path d="M32.0284 56.2202L32.9231 59.1167H35.8188L33.4763 60.9053L34.3709 63.8005L32.0284 62.0124L29.6864 63.8005L30.581 60.9053L28.2385 59.1167H31.1336L32.0284 56.2202Z" fill="#F8D12E"/>
<path fill-rule="evenodd" clip-rule="evenodd" d="M24.6289 89.7447C24.6289 93.0441 27.1562 95.114 30.2608 95.114C32.2265 95.114 33.7398 94.3203 34.8631 93.0908V89.0288H29.8396V91.2543H32.2265V92.1259C31.8053 92.4683 31.072 92.7484 30.2608 92.7484C28.5603 92.7484 27.3591 91.4411 27.3591 89.7447C27.3591 88.0483 28.5603 86.741 30.2608 86.741C31.2437 86.741 32.0393 87.2857 32.4605 87.9705L34.707 86.7877C33.9426 85.4959 32.5385 84.3754 30.2608 84.3754C27.1562 84.3754 24.6289 86.4453 24.6289 89.7447ZM36.4388 94.9273V84.5465H40.807C44.0832 84.5465 46.4389 86.5075 46.4389 89.7291C46.4389 92.9507 44.0832 94.9273 40.8226 94.9273H36.4388ZM39.1221 92.5927H40.807C42.6323 92.5927 43.6932 91.2699 43.6932 89.7291C43.6932 88.1261 42.7259 86.881 40.8226 86.881H39.1221V92.5927ZM47.7805 94.9273V84.5465H52.9912C55.3313 84.5465 56.6105 86.1184 56.6105 88.0016C56.6105 89.8692 55.3313 91.4099 52.9912 91.4099H50.4638V94.9273H47.7805ZM53.8804 87.9861C53.8804 87.2702 53.35 86.8033 52.6324 86.8033H50.4638V89.1378H52.6324C53.35 89.1378 53.8804 88.6865 53.8804 87.9861ZM63.6154 94.9273L61.8681 91.4099H60.4952V94.9273H57.8118V84.5465H63.0225C65.3314 84.5465 66.6419 86.0717 66.6419 88.0016C66.6419 89.8069 65.5343 90.7719 64.567 91.1142L66.6887 94.9273H63.6154ZM63.9118 87.9705C63.9118 87.2546 63.319 86.8033 62.6169 86.8033H60.4952V89.1378H62.6169C63.319 89.1378 63.9118 88.6865 63.9118 87.9705Z" fill="#2B3945"/>
<path d="M18.7303 105.188C18.6697 104.953 18.5865 104.737 18.4805 104.541C18.3746 104.344 18.2384 104.174 18.0719 104.03C17.9054 103.886 17.7086 103.776 17.4815 103.701C17.2621 103.617 17.0047 103.576 16.7096 103.576C16.2782 103.576 15.9036 103.663 15.5857 103.837C15.2754 104.011 15.0219 104.245 14.8251 104.541C14.6283 104.828 14.4807 105.157 14.3824 105.528C14.2915 105.899 14.2461 106.278 14.2461 106.664C14.2461 107.05 14.2915 107.428 14.3824 107.799C14.4807 108.17 14.6283 108.503 14.8251 108.798C15.0219 109.085 15.2754 109.316 15.5857 109.49C15.9036 109.664 16.2782 109.751 16.7096 109.751C17.0274 109.751 17.3075 109.698 17.5497 109.592C17.7918 109.479 18 109.328 18.174 109.138C18.3481 108.942 18.4843 108.715 18.5827 108.457C18.6811 108.2 18.7454 107.924 18.7757 107.628H20.1607C20.1304 108.113 20.0245 108.556 19.8428 108.957C19.6688 109.358 19.4304 109.706 19.1276 110.001C18.8249 110.289 18.4692 110.512 18.0605 110.671C17.6518 110.83 17.2015 110.909 16.7096 110.909C16.1041 110.909 15.5592 110.8 15.0748 110.58C14.598 110.353 14.1931 110.047 13.8601 109.661C13.5271 109.275 13.2698 108.824 13.0882 108.31C12.9141 107.795 12.8271 107.246 12.8271 106.664C12.8271 106.088 12.9141 105.543 13.0882 105.029C13.2698 104.514 13.5271 104.064 13.8601 103.678C14.1931 103.292 14.598 102.985 15.0748 102.758C15.5592 102.531 16.1041 102.418 16.7096 102.418C17.1637 102.418 17.5913 102.482 17.9924 102.611C18.3935 102.732 18.7454 102.913 19.0482 103.156C19.3585 103.39 19.6082 103.678 19.7974 104.018C19.9866 104.359 20.1039 104.749 20.1493 105.188H18.7303ZM25.1861 103.576C24.7547 103.576 24.3801 103.663 24.0622 103.837C23.752 104.011 23.4984 104.245 23.3016 104.541C23.1049 104.828 22.9573 105.157 22.8589 105.528C22.7681 105.899 22.7227 106.278 22.7227 106.664C22.7227 107.05 22.7681 107.428 22.8589 107.799C22.9573 108.17 23.1049 108.503 23.3016 108.798C23.4984 109.085 23.752 109.316 24.0622 109.49C24.3801 109.664 24.7547 109.751 25.1861 109.751C25.6175 109.751 25.9884 109.664 26.2987 109.49C26.6165 109.316 26.8738 109.085 27.0706 108.798C27.2674 108.503 27.4112 108.17 27.502 107.799C27.6004 107.428 27.6496 107.05 27.6496 106.664C27.6496 106.278 27.6004 105.899 27.502 105.528C27.4112 105.157 27.2674 104.828 27.0706 104.541C26.8738 104.245 26.6165 104.011 26.2987 103.837C25.9884 103.663 25.6175 103.576 25.1861 103.576ZM25.1861 102.418C25.7916 102.418 26.3327 102.531 26.8095 102.758C27.2939 102.985 27.7026 103.292 28.0356 103.678C28.3686 104.064 28.6221 104.514 28.7962 105.029C28.9778 105.543 29.0686 106.088 29.0686 106.664C29.0686 107.246 28.9778 107.795 28.7962 108.31C28.6221 108.824 28.3686 109.275 28.0356 109.661C27.7026 110.047 27.2939 110.353 26.8095 110.58C26.3327 110.8 25.7916 110.909 25.1861 110.909C24.5807 110.909 24.0358 110.8 23.5514 110.58C23.0746 110.353 22.6697 110.047 22.3367 109.661C22.0037 109.275 21.7464 108.824 21.5647 108.31C21.3907 107.795 21.3036 107.246 21.3036 106.664C21.3036 106.088 21.3907 105.543 21.5647 105.029C21.7464 104.514 22.0037 104.064 22.3367 103.678C22.6697 103.292 23.0746 102.985 23.5514 102.758C24.0358 102.531 24.5807 102.418 25.1861 102.418ZM30.6212 102.611H32.6192L34.8556 108.957H34.8784L37.058 102.611H39.0333V110.716H37.6824V104.461H37.6597L35.4119 110.716H34.2426L31.9949 104.461H31.9722V110.716H30.6212V102.611ZM41.0162 102.611H44.5922C45.1674 102.611 45.6366 102.694 45.9999 102.861C46.3632 103.027 46.6432 103.235 46.84 103.485C47.0367 103.735 47.1692 104.007 47.2373 104.302C47.313 104.597 47.3508 104.87 47.3508 105.12C47.3508 105.369 47.313 105.642 47.2373 105.937C47.1692 106.225 47.0367 106.493 46.84 106.743C46.6432 106.993 46.3632 107.201 45.9999 107.367C45.6366 107.526 45.1674 107.606 44.5922 107.606H42.4353V110.716H41.0162V102.611ZM42.4353 106.448H44.5127C44.6717 106.448 44.8344 106.425 45.0009 106.38C45.1674 106.334 45.3188 106.262 45.455 106.164C45.5988 106.058 45.7123 105.922 45.7956 105.755C45.8864 105.581 45.9318 105.366 45.9318 105.108C45.9318 104.843 45.8939 104.624 45.8183 104.45C45.7426 104.276 45.6404 104.14 45.5118 104.041C45.3831 103.935 45.2355 103.863 45.069 103.825C44.9025 103.788 44.7247 103.769 44.5355 103.769H42.4353V106.448ZM48.872 102.611H50.291V109.49H54.4119V110.716H48.872V102.611ZM55.6745 102.611H57.0935V110.716H55.6745V102.611ZM61.2862 102.611H62.796L65.9179 110.716H64.3967L63.6361 108.571H60.4007L59.6401 110.716H58.1756L61.2862 102.611ZM60.7867 107.492H63.2615L62.0468 104.007H62.0127L60.7867 107.492ZM66.9168 102.611H68.4153L72.1162 108.582H72.1389V102.611H73.4898V110.716H71.9913L68.3018 104.756H68.2677V110.716H66.9168V102.611ZM74.6782 102.611H81.2398V103.837H78.6628V110.716H77.2438V103.837H74.6782V102.611Z" fill="#2B3945"/>
</g>
<defs>
<clipPath id="clip0_13206_107673">
<rect width="92.0459" height="122.728" fill="white" transform="translate(0.083374)"/>
</clipPath>
</defs>
</svg>
