<svg width="17" height="16" viewBox="0 0 17 16" fill="none" xmlns="http://www.w3.org/2000/svg">
<circle cx="8.77563" cy="8" r="8" fill="black"/>
<path d="M9.5338 9.27485C9.77831 9.67409 10.0964 9.96755 10.6591 9.96755C11.1317 9.96755 11.4337 9.73132 11.4337 9.40491C11.4337 9.01377 11.1234 8.87523 10.6032 8.64767L10.318 8.52532C9.49488 8.17463 8.94804 7.73532 8.94804 6.80658C8.94804 5.95107 9.59989 5.2998 10.6186 5.2998C11.3439 5.2998 11.8653 5.55222 12.241 6.21312L11.3527 6.78346C11.1572 6.43278 10.9462 6.29463 10.6186 6.29463C10.2845 6.29463 10.0727 6.50658 10.0727 6.78346C10.0727 7.12567 10.2847 7.26421 10.7741 7.47616L11.0593 7.59832C12.0285 8.01393 12.5757 8.43764 12.5757 9.39027C12.5757 10.4173 11.7689 10.9799 10.6855 10.9799C9.62609 10.9799 8.94168 10.4751 8.6068 9.8134L9.5338 9.27485ZM5.50422 9.3737C5.68342 9.69162 5.84643 9.96042 6.23834 9.96042C6.61311 9.96042 6.84953 9.81379 6.84953 9.24364V5.36493H7.99022V9.25905C7.99022 10.4402 7.29771 10.9778 6.2869 10.9778C5.37358 10.9778 4.84467 10.5051 4.57568 9.93585L5.50422 9.3737Z" fill="white"/>
</svg>
