<svg viewBox="0 0 1440 415" fill="none" xmlns="http://www.w3.org/2000/svg"><circle cx="203.486" cy="58.4997" r="1.80711" fill="#fff"/><circle cx="150.477" cy="99.4608" r="1.80711" fill="#fff" fill-opacity=".75"/><circle cx="305.888" cy="21.1529" r="1.80711" fill="#fff"/><circle cx="305.888" cy="21.1529" r="2.30711" stroke="#fff" stroke-opacity=".1"/><circle cx="192.643" cy="99.4608" r="1.80711" fill="#fff"/><circle cx="192.643" cy="99.4608" r="2.30711" stroke="#fff" stroke-opacity=".1"/><circle cx="111.926" cy="156.083" r="1.80711" fill="#fff"/><circle cx="21.5703" cy="213.911" r="1.80711" fill="#fff"/><circle cx="445.638" cy="112.713" r="1.80711" fill="#fff"/><circle cx="11.9326" cy="-.532371" r="1.80711" fill="#fff"/><circle cx="11.9326" cy="-.532371" r="2.30711" stroke="#fff" stroke-opacity=".1"/><circle cx="103.493" cy="59.7044" r="1.80711" fill="#fff"/><circle cx="103.493" cy="59.7044" r="2.30711" stroke="#fff" stroke-opacity=".1"/><circle cx="262.518" cy="12.7197" r="1.80711" fill="#fff"/><circle cx="262.518" cy="12.7197" r="2.30711" stroke="#fff" stroke-opacity=".1"/><circle cx="176.981" cy="192.226" r="1.80711" fill="#fff"/><circle cx="402.268" cy="104.28" r="1.80711" fill="#fff"/><circle cx="54.0981" cy="107.894" r="1.80711" fill="#fff"/><circle cx="251.675" cy="47.6571" r="1.80711" fill="#fff"/><circle cx="336.007" cy="27.1766" r="1.80711" fill="#fff"/><circle cx="336.007" cy="27.1766" r="2.30711" stroke="#fff" stroke-opacity=".1"/><circle cx="25.1845" cy="159.698" r="1.80711" fill="#fff"/><circle cx="25.1845" cy="159.698" r="2.30711" stroke="#fff" stroke-opacity=".1"/><circle cx="222.762" cy="105.484" r="1.80711" fill="#fff"/><circle cx="222.762" cy="105.484" r="2.30711" stroke="#fff" stroke-opacity=".1"/><circle cx="186.619" cy="158.493" r="1.80711" fill="#fff" fill-opacity=".6"/><circle cx="186.619" cy="158.493" r="2.30711" stroke="#fff" stroke-opacity=".1"/><circle cx="386.606" cy="85.004" r="1.80711" fill="#fff"/><circle cx="386.606" cy="85.004" r="2.30711" stroke="#fff" stroke-opacity=".1"/><circle cx="274.565" cy="52.4761" r="1.80711" fill="#fff"/><circle cx="376.968" cy="15.1291" r="1.80711" fill="#fff"/><circle cx="66.1455" cy="147.65" r="1.80711" fill="#fff"/><circle cx="263.723" cy="93.4371" r="1.80711" fill="#fff"/><circle cx="227.581" cy="146.446" r="1.80711" fill="#fff"/><circle cx="427.567" cy="72.9566" r="1.80711" fill="#fff"/><circle cx="425.157" cy="21.1529" r="1.80711" fill="#fff" fill-opacity=".2"/><circle cx="310.707" cy="76.5708" r="1.80711" fill="#fff"/><circle cx="475.756" cy="78.9803" r="1.80711" fill="#fff"/><circle cx="133.611" cy="51.2713" r="1.80711" fill="#fff"/><circle cx="54.0981" cy="45.2477" r="1.80711" fill="#fff"/><circle cx="104.697" cy="103.075" r="1.80711" fill="#fff"/><circle cx="20.3657" cy="36.8144" r="1.80711" fill="#fff"/><circle cx="360.704" cy="41.031" r="1.20474" fill="#fff"/><circle cx="49.8815" cy="173.552" r="1.20474" fill="#fff"/><circle cx="247.459" cy="119.339" r="1.20474" fill="#fff"/><circle cx="66.7477" cy="19.3457" r="1.20474" fill="#fff"/><circle cx="5.3063" cy="57.8974" r="1.20474" fill="#fff"/><circle cx="286.613" cy="10.3103" r=".602369" fill="#fff"/><circle cx="32.4129" cy="57.295" r=".602369" fill="#fff"/><circle cx="4.70393" cy="9.10554" r=".602369" fill="#fff"/><circle cx="96.264" cy="69.3424" r=".602369" fill="#fff"/><circle cx="16.7513" cy="105.485" r=".602369" fill="#fff"/><circle cx="227.58" cy="1.87703" r=".602369" fill="#fff"/><circle cx="145.658" cy="163.312" r=".602369" fill="#fff"/><circle cx="161.32" cy="29.586" r=".602369" fill="#fff"/><circle cx="50.4842" cy="46.4523" r=".602369" fill="#fff"/><circle cx="120.359" cy="134.398" r=".602369" fill="#fff"/><circle cx="30.0032" cy="192.226" r=".602369" fill="#fff"/><circle cx="454.071" cy="91.0277" r=".602369" fill="#fff"/><circle cx="249.265" cy="25.9719" r=".602369" fill="#fff"/><circle cx="226.376" cy="53.6807" r=".602369" fill="#fff"/><circle cx="343.838" cy="4.88894" r="1.20474" fill="#fff"/><circle cx="343.838" cy="4.88894" r="1.70474" stroke="#fff" stroke-opacity=".1"/><circle cx="33.0153" cy="137.41" r="1.20474" fill="#fff"/><circle cx="33.0153" cy="137.41" r="1.70474" stroke="#fff" stroke-opacity=".1"/><circle cx="230.592" cy="83.1969" r="1.20474" fill="#fff"/><circle cx="230.592" cy="83.1969" r="1.70474" stroke="#fff" stroke-opacity=".1"/><circle cx="200.474" cy="18.141" r="1.20474" fill="#fff"/><circle cx="28.1964" cy="237.403" r="1.20474" fill="#fff"/><circle cx="452.264" cy="136.205" r="1.20474" fill="#fff"/><circle cx="406.484" cy="43.4406" r="1.20474" fill="#fff"/><circle cx="451.059" cy="7.29837" r="1.20474" fill="#fff"/><circle cx="451.059" cy="7.29837" r="1.70474" stroke="#fff" stroke-opacity=".1"/><circle cx="336.609" cy="62.7163" r="1.20474" fill="#fff"/><circle cx="336.609" cy="62.7163" r="1.70474" stroke="#fff" stroke-opacity=".1"/><circle cx="183.608" cy="63.921" r="1.20474" fill="#fff"/><circle cx="149.875" cy="139.819" r="1.20474" fill="#fff"/><circle cx="81.2047" cy="62.7163" r="1.20474" fill="#fff"/><circle cx="90.8429" cy="39.8263" r="1.20474" fill="#fff"/><circle cx="206.498" cy="200.056" r="1.20474" fill="#fff"/><circle cx="104.697" cy="9.10545" r="1.80711" fill="#fff"/><circle cx="104.697" cy="9.10545" r="2.30711" stroke="#fff" stroke-opacity=".1"/><circle cx="4.70408" cy="87.4134" r="1.80711" fill="#fff"/><circle cx="183.005" cy="292.219" r="1.80711" transform="rotate(-180 183.005 292.219)" fill="#fff"/><circle cx="236.014" cy="251.258" r="1.80711" transform="rotate(-180 236.014 251.258)" fill="#fff" fill-opacity=".75"/><circle cx="413.11" cy="331.975" r="1.80711" transform="rotate(-180 413.11 331.975)" fill="#fff" fill-opacity=".1"/><circle cx="436" cy="297.038" r="1.80711" transform="rotate(-180 436 297.038)" fill="#fff"/><circle cx="497.442" cy="248.848" r="1.80711" transform="rotate(-180 497.442 248.848)" fill="#fff"/><circle cx="80.6026" cy="329.566" r="1.80711" transform="rotate(-180 80.6026 329.566)" fill="#fff"/><circle cx="80.6026" cy="329.566" r="2.30711" transform="rotate(-180 80.6026 329.566)" stroke="#fff" stroke-opacity=".1"/><circle cx="391.425" cy="197.045" r="1.80711" transform="rotate(-180 391.425 197.045)" fill="#fff"/><circle cx="391.425" cy="197.045" r="2.30711" transform="rotate(-180 391.425 197.045)" stroke="#fff" stroke-opacity=".1"/><circle cx="193.848" cy="251.258" r="1.80711" transform="rotate(-180 193.848 251.258)" fill="#fff"/><circle cx="193.848" cy="251.258" r="2.30711" transform="rotate(-180 193.848 251.258)" stroke="#fff" stroke-opacity=".1"/><circle cx="540.812" cy="39.2239" r="1.80711" transform="rotate(-180 540.812 39.2239)" fill="#fff"/><circle cx="540.812" cy="39.2239" r="2.30711" transform="rotate(-180 540.812 39.2239)" stroke="#fff" stroke-opacity=".1"/><circle cx="192.643" cy="356.07" r="1.80711" transform="rotate(-180 192.643 356.07)" fill="#fff"/><circle cx="274.565" cy="194.635" r="1.80711" transform="rotate(-180 274.565 194.635)" fill="#fff"/><circle cx="364.92" cy="136.808" r="1.80711" transform="rotate(-180 364.92 136.808)" fill="#fff"/><circle cx="374.559" cy="351.251" r="1.80711" transform="rotate(-180 374.559 351.251)" fill="#fff"/><circle cx="374.559" cy="351.251" r="2.30711" transform="rotate(-180 374.559 351.251)" stroke="#fff" stroke-opacity=".1"/><circle cx="282.999" cy="291.014" r="1.80711" transform="rotate(-180 282.999 291.014)" fill="#fff"/><circle cx="282.999" cy="291.014" r="2.30711" transform="rotate(-180 282.999 291.014)" stroke="#fff" stroke-opacity=".1"/><circle cx="525.151" cy="360.889" r="1.80711" transform="rotate(-180 525.151 360.889)" fill="#fff"/><circle cx="123.973" cy="337.999" r="1.80711" transform="rotate(-180 123.973 337.999)" fill="#fff"/><circle cx="123.973" cy="337.999" r="2.30711" transform="rotate(-180 123.973 337.999)" stroke="#fff" stroke-opacity=".1"/><circle cx="236.014" cy="364.503" r="1.80711" transform="rotate(-180 236.014 364.503)" fill="#fff" fill-opacity=".8"/><circle cx="209.509" cy="158.493" r="1.80711" transform="rotate(-180 209.509 158.493)" fill="#fff"/><circle cx="408.291" cy="145.241" r="1.80711" transform="rotate(-180 408.291 145.241)" fill="#fff"/><circle cx="21.5703" cy="375.346" r="1.80711" transform="rotate(-180 21.5703 375.346)" fill="#fff"/><circle cx="332.393" cy="242.825" r="1.80711" transform="rotate(-180 332.393 242.825)" fill="#fff"/><circle cx="134.815" cy="303.062" r="1.80711" transform="rotate(-180 134.815 303.062)" fill="#fff"/><circle cx="451.662" cy="101.87" r="1.80711" transform="rotate(-180 451.662 101.87)" fill="#fff"/><circle cx="50.4839" cy="323.542" r="1.80711" transform="rotate(-180 50.4839 323.542)" fill="#fff"/><circle cx="50.4839" cy="323.542" r="2.30711" transform="rotate(-180 50.4839 323.542)" stroke="#fff" stroke-opacity=".1"/><circle cx="361.306" cy="191.021" r="1.80711" transform="rotate(-180 361.306 191.021)" fill="#fff"/><circle cx="361.306" cy="191.021" r="2.30711" transform="rotate(-180 361.306 191.021)" stroke="#fff" stroke-opacity=".1"/><circle cx="163.73" cy="245.234" r="1.80711" transform="rotate(-180 163.73 245.234)" fill="#fff"/><circle cx="163.73" cy="245.234" r="2.30711" transform="rotate(-180 163.73 245.234)" stroke="#fff" stroke-opacity=".1"/><circle cx="510.694" cy="33.2002" r="1.80711" transform="rotate(-180 510.694 33.2002)" fill="#fff"/><circle cx="510.694" cy="33.2002" r="2.30711" transform="rotate(-180 510.694 33.2002)" stroke="#fff" stroke-opacity=".1"/><circle cx="199.872" cy="192.226" r="1.80711" transform="rotate(-180 199.872 192.226)" fill="#fff" fill-opacity=".6"/><circle cx="199.872" cy="192.226" r="2.30711" transform="rotate(-180 199.872 192.226)" stroke="#fff" stroke-opacity=".1"/><circle cx="-.115212" cy="265.715" r="1.80711" transform="rotate(-180 -.115212 265.715)" fill="#fff"/><circle cx="-.115212" cy="265.715" r="2.30711" transform="rotate(-180 -.115212 265.715)" stroke="#fff" stroke-opacity=".1"/><circle cx="111.926" cy="298.242" r="1.80711" transform="rotate(-180 111.926 298.242)" fill="#fff"/><circle cx="9.52297" cy="335.589" r="1.80711" transform="rotate(-180 9.52297 335.589)" fill="#fff"/><circle cx="320.345" cy="203.068" r="1.80711" transform="rotate(-180 320.345 203.068)" fill="#fff"/><circle cx="122.768" cy="257.282" r="1.80711" transform="rotate(-180 122.768 257.282)" fill="#fff"/><circle cx="469.733" cy="45.2476" r="1.80711" transform="rotate(-180 469.733 45.2476)" fill="#fff"/><circle cx="158.91" cy="204.273" r="1.80711" transform="rotate(-180 158.91 204.273)" fill="#fff"/><circle cx="75.7837" cy="274.148" r="1.80711" transform="rotate(-180 75.7837 274.148)" fill="#fff"/><circle cx="421.543" cy="39.2239" r="1.80711" transform="rotate(-180 421.543 39.2239)" fill="#fff"/><circle cx="303.479" cy="357.275" r="1.80711" transform="rotate(-180 303.479 357.275)" fill="#fff"/><circle cx="452.866" cy="225.958" r="1.80711" transform="rotate(-180 452.866 225.958)" fill="#fff"/><circle cx="252.88" cy="299.447" r="1.80711" transform="rotate(-180 252.88 299.447)" fill="#fff"/><circle cx="332.393" cy="305.471" r="1.80711" transform="rotate(-180 332.393 305.471)" fill="#fff"/><circle cx="478.166" cy="270.534" r="1.80711" transform="rotate(-180 478.166 270.534)" fill="#fff"/><circle cx="481.78" cy="174.155" r="1.80711" transform="rotate(-180 481.78 174.155)" fill="#fff"/><circle cx="281.793" cy="247.644" r="1.80711" transform="rotate(-180 281.793 247.644)" fill="#fff"/><circle cx="366.126" cy="313.904" r="1.80711" transform="rotate(-180 366.126 313.904)" fill="#fff"/><circle cx="497.442" cy="154.879" r="1.80711" transform="rotate(-180 497.442 154.879)" fill="#fff"/><circle cx="25.787" cy="309.688" r="1.20474" transform="rotate(-180 25.787 309.688)" fill="#fff"/><circle cx="336.609" cy="177.166" r="1.20474" transform="rotate(-180 336.609 177.166)" fill="#fff"/><circle cx="139.032" cy="231.38" r="1.20474" transform="rotate(-180 139.032 231.38)" fill="#fff"/><circle cx="485.997" cy="19.3458" r="1.20474" transform="rotate(-180 485.997 19.3458)" fill="#fff"/><circle cx="319.743" cy="331.373" r="1.20474" transform="rotate(-180 319.743 331.373)" fill="#fff"/><circle cx="451.059" cy="172.348" r="1.20474" transform="rotate(-180 451.059 172.348)" fill="#fff"/><circle cx="279.987" cy="356.672" r="1.20474" transform="rotate(-180 279.987 356.672)" fill="#fff"/><circle cx="411.303" cy="197.647" r="1.20474" transform="rotate(-180 411.303 197.647)" fill="#fff"/><circle cx="457.083" cy="326.554" r="1.20474" transform="rotate(-180 457.083 326.554)" fill="#fff"/><circle cx="588.399" cy="167.529" r="1.20474" transform="rotate(-180 588.399 167.529)" fill="#fff"/><circle cx="341.428" cy="355.468" r="1.20474" transform="rotate(-180 341.428 355.468)" fill="#fff"/><circle cx="472.744" cy="196.442" r="1.20474" transform="rotate(-180 472.744 196.442)" fill="#fff"/><circle cx="369.137" cy="365.105" r="1.20474" transform="rotate(-180 369.137 365.105)" fill="#fff"/><circle cx="369.137" cy="365.105" r="1.70474" transform="rotate(-180 369.137 365.105)" stroke="#fff" stroke-opacity=".1"/><circle cx="500.453" cy="206.08" r="1.20474" transform="rotate(-180 500.453 206.08)" fill="#fff"/><circle cx="500.453" cy="206.08" r="1.70474" transform="rotate(-180 500.453 206.08)" stroke="#fff" stroke-opacity=".1"/><circle cx="381.184" cy="292.821" r="1.20474" transform="rotate(-180 381.184 292.821)" fill="#fff"/><circle cx="251.073" cy="375.948" r="1.20474" transform="rotate(-180 251.073 375.948)" fill="#fff"/><circle cx="99.8781" cy="340.408" r=".602369" transform="rotate(-180 99.8781 340.408)" fill="#fff"/><circle cx="121.564" cy="365.708" r=".602369" transform="rotate(-180 121.564 365.708)" fill="#fff"/><circle cx="448.048" cy="344.023" r=".602369" transform="rotate(-180 448.048 344.023)" fill="#fff"/><circle cx="354.078" cy="293.424" r=".602369" transform="rotate(-180 354.078 293.424)" fill="#fff"/><circle cx="381.787" cy="341.613" r=".602369" transform="rotate(-180 381.787 341.613)" fill="#fff"/><circle cx="290.227" cy="281.376" r=".602369" transform="rotate(-180 290.227 281.376)" fill="#fff"/><circle cx="421.543" cy="300.652" r=".602369" transform="rotate(-180 421.543 300.652)" fill="#fff"/><circle cx="503.466" cy="283.786" r=".602369" transform="rotate(-180 503.466 283.786)" fill="#fff"/><circle cx="421.543" cy="268.124" r=".602369" transform="rotate(-180 421.543 268.124)" fill="#fff"/><circle cx="369.739" cy="245.234" r=".602369" transform="rotate(-180 369.739 245.234)" fill="#fff"/><circle cx="158.91" cy="348.841" r=".602369" transform="rotate(-180 158.91 348.841)" fill="#fff"/><circle cx="240.833" cy="187.407" r=".602369" transform="rotate(-180 240.833 187.407)" fill="#fff"/><circle cx="225.171" cy="321.133" r=".602369" transform="rotate(-180 225.171 321.133)" fill="#fff"/><circle cx="397.448" cy="101.87" r=".602369" transform="rotate(-180 397.448 101.87)" fill="#fff"/><circle cx="420.339" cy="260.896" r=".602369" transform="rotate(-180 420.339 260.896)" fill="#fff"/><circle cx="458.89" cy="244.029" r=".602369" transform="rotate(-180 458.89 244.029)" fill="#fff"/><circle cx="427.567" cy="364.503" r=".602369" transform="rotate(-180 427.567 364.503)" fill="#fff"/><circle cx="336.007" cy="304.266" r=".602369" transform="rotate(-180 336.007 304.266)" fill="#fff"/><circle cx="515.513" cy="376.55" r=".602369" transform="rotate(-180 515.513 376.55)" fill="#fff"/><circle cx="184.21" cy="377.755" r=".602369" transform="rotate(-180 184.21 377.755)" fill="#fff"/><circle cx="266.132" cy="216.32" r=".602369" transform="rotate(-180 266.132 216.32)" fill="#fff"/><circle cx="356.487" cy="158.493" r=".602369" transform="rotate(-180 356.487 158.493)" fill="#fff"/><circle cx="137.225" cy="324.747" r=".602369" transform="rotate(-180 137.225 324.747)" fill="#fff"/><circle cx="160.115" cy="297.038" r=".602369" transform="rotate(-180 160.115 297.038)" fill="#fff"/><circle cx="42.6532" cy="345.83" r="1.20474" transform="rotate(-180 42.6532 345.83)" fill="#fff"/><circle cx="42.6532" cy="345.83" r="1.70474" transform="rotate(-180 42.6532 345.83)" stroke="#fff" stroke-opacity=".1"/><circle cx="353.475" cy="213.309" r="1.20474" transform="rotate(-180 353.475 213.309)" fill="#fff"/><circle cx="353.475" cy="213.309" r="1.70474" transform="rotate(-180 353.475 213.309)" stroke="#fff" stroke-opacity=".1"/><circle cx="155.899" cy="267.522" r="1.20474" transform="rotate(-180 155.899 267.522)" fill="#fff"/><circle cx="155.899" cy="267.522" r="1.70474" transform="rotate(-180 155.899 267.522)" stroke="#fff" stroke-opacity=".1"/><circle cx="502.863" cy="55.4879" r="1.20474" transform="rotate(-180 502.863 55.4879)" fill="#fff"/><circle cx="502.863" cy="55.4879" r="1.70474" transform="rotate(-180 502.863 55.4879)" stroke="#fff" stroke-opacity=".1"/><circle cx="186.017" cy="332.577" r="1.20474" transform="rotate(-180 186.017 332.577)" fill="#fff"/><circle cx="358.294" cy="113.315" r="1.20474" transform="rotate(-180 358.294 113.315)" fill="#fff"/><circle cx="404.075" cy="74.7638" r="1.20474" transform="rotate(-180 404.075 74.7638)" fill="#fff"/><circle cx="440.217" cy="16.9363" r="1.20474" transform="rotate(-180 440.217 16.9363)" fill="#fff"/><circle cx="49.8817" cy="288.002" r="1.20474" transform="rotate(-180 49.8817 288.002)" fill="#fff"/><circle cx="49.8817" cy="288.002" r="1.70474" transform="rotate(-180 49.8817 288.002)" stroke="#fff" stroke-opacity=".1"/><circle cx="395.641" cy="53.0785" r="1.20474" transform="rotate(-180 395.641 53.0785)" fill="#fff"/><circle cx="395.641" cy="53.0785" r="1.70474" transform="rotate(-180 395.641 53.0785)" stroke="#fff" stroke-opacity=".1"/><circle cx="437.807" cy="68.7401" r="1.20474" transform="rotate(-180 437.807 68.7401)" fill="#fff"/><circle cx="389.618" cy="80.7875" r="1.20474" transform="rotate(-180 389.618 80.7875)" fill="#fff"/><circle cx="89.638" cy="365.105" r="1.20474" transform="rotate(-180 89.638 365.105)" fill="#fff"/><circle cx="400.46" cy="232.584" r="1.20474" transform="rotate(-180 400.46 232.584)" fill="#fff"/><circle cx="455.878" cy="116.93" r="1.20474" transform="rotate(-180 455.878 116.93)" fill="#fff"/><circle cx="202.883" cy="286.797" r="1.20474" transform="rotate(-180 202.883 286.797)" fill="#fff"/><circle cx="154.694" cy="372.334" r="1.20474" transform="rotate(-180 154.694 372.334)" fill="#fff"/><circle cx="236.616" cy="210.899" r="1.20474" transform="rotate(-180 236.616 210.899)" fill="#fff"/><circle cx="336.609" cy="367.515" r="1.20474" transform="rotate(-180 336.609 367.515)" fill="#fff"/><circle cx="396.846" cy="348.239" r="1.20474" transform="rotate(-180 396.846 348.239)" fill="#fff"/><circle cx="305.286" cy="288.002" r="1.20474" transform="rotate(-180 305.286 288.002)" fill="#fff"/><circle cx="408.893" cy="374.743" r="1.20474" transform="rotate(-180 408.893 374.743)" fill="#fff"/><circle cx="522.139" cy="281.979" r="1.20474" transform="rotate(-180 522.139 281.979)" fill="#fff"/><circle cx="507.682" cy="269.931" r="1.20474" transform="rotate(-180 507.682 269.931)" fill="#fff"/><circle cx="522.139" cy="318.121" r="1.20474" transform="rotate(-180 522.139 318.121)" fill="#fff"/><circle cx="499.249" cy="318.121" r="1.20474" transform="rotate(-180 499.249 318.121)" fill="#fff"/><circle cx="295.648" cy="310.892" r="1.20474" transform="rotate(-180 295.648 310.892)" fill="#fff"/><circle cx="179.993" cy="150.662" r="1.20474" transform="rotate(-180 179.993 150.662)" fill="#fff"/><circle cx="449.855" cy="302.459" r="1.20474" transform="rotate(-180 449.855 302.459)" fill="#fff"/><circle cx="487.202" cy="377.153" r="1.20474" transform="rotate(-180 487.202 377.153)" fill="#fff"/><circle cx="281.793" cy="341.613" r="1.80711" transform="rotate(-180 281.793 341.613)" fill="#fff"/><circle cx="281.793" cy="341.613" r="2.30711" transform="rotate(-180 281.793 341.613)" stroke="#fff" stroke-opacity=".1"/><circle cx="499.851" cy="356.07" r="1.80711" transform="rotate(-180 499.851 356.07)" fill="#fff"/><circle cx="381.787" cy="263.305" r="1.80711" transform="rotate(-180 381.787 263.305)" fill="#fff"/><circle cx="1227.51" cy="292.219" r="1.80711" transform="rotate(-180 1227.51 292.219)" fill="#fff"/><circle cx="1280.52" cy="251.258" r="1.80711" transform="rotate(-180 1280.52 251.258)" fill="#fff" fill-opacity=".75"/><circle cx="1125.11" cy="329.566" r="1.80711" transform="rotate(-180 1125.11 329.566)" fill="#fff"/><circle cx="1125.11" cy="329.566" r="2.30711" transform="rotate(-180 1125.11 329.566)" stroke="#fff" stroke-opacity=".1"/><circle cx="1435.93" cy="197.044" r="1.80711" transform="rotate(-180 1435.93 197.044)" fill="#fff"/><circle cx="1435.93" cy="197.044" r="2.30711" transform="rotate(-180 1435.93 197.044)" stroke="#fff" stroke-opacity=".1"/><circle cx="1238.36" cy="251.258" r="1.80711" transform="rotate(-180 1238.36 251.258)" fill="#fff"/><circle cx="1238.36" cy="251.258" r="2.30711" transform="rotate(-180 1238.36 251.258)" stroke="#fff" stroke-opacity=".1"/><circle cx="1237.15" cy="356.07" r="1.80711" transform="rotate(-180 1237.15 356.07)" fill="#fff"/><circle cx="1319.07" cy="194.635" r="1.80711" transform="rotate(-180 1319.07 194.635)" fill="#fff"/><circle cx="1409.43" cy="136.808" r="1.80711" transform="rotate(-180 1409.43 136.808)" fill="#fff"/><circle cx="985.361" cy="238.006" r="1.80711" transform="rotate(-180 985.361 238.006)" fill="#fff"/><circle cx="1419.07" cy="351.251" r="1.80711" transform="rotate(-180 1419.07 351.251)" fill="#fff"/><circle cx="1419.07" cy="351.251" r="2.30711" transform="rotate(-180 1419.07 351.251)" stroke="#fff" stroke-opacity=".1"/><circle cx="1327.51" cy="291.014" r="1.80711" transform="rotate(-180 1327.51 291.014)" fill="#fff"/><circle cx="1327.51" cy="291.014" r="2.30711" transform="rotate(-180 1327.51 291.014)" stroke="#fff" stroke-opacity=".1"/><circle cx="1168.48" cy="337.999" r="1.80711" transform="rotate(-180 1168.48 337.999)" fill="#fff"/><circle cx="1168.48" cy="337.999" r="2.30711" transform="rotate(-180 1168.48 337.999)" stroke="#fff" stroke-opacity=".1"/><circle cx="1280.52" cy="364.503" r="1.80711" transform="rotate(-180 1280.52 364.503)" fill="#fff" fill-opacity=".8"/><circle cx="1254.02" cy="158.493" r="1.80711" transform="rotate(-180 1254.02 158.493)" fill="#fff"/><circle cx="1028.73" cy="246.439" r="1.80711" transform="rotate(-180 1028.73 246.439)" fill="#fff"/><circle cx="1066.08" cy="375.346" r="1.80711" transform="rotate(-180 1066.08 375.346)" fill="#fff"/><circle cx="1376.9" cy="242.824" r="1.80711" transform="rotate(-180 1376.9 242.824)" fill="#fff"/><circle cx="1179.32" cy="303.061" r="1.80711" transform="rotate(-180 1179.32 303.061)" fill="#fff"/><circle cx="1094.99" cy="323.542" r="1.80711" transform="rotate(-180 1094.99 323.542)" fill="#fff"/><circle cx="1094.99" cy="323.542" r="2.30711" transform="rotate(-180 1094.99 323.542)" stroke="#fff" stroke-opacity=".1"/><circle cx="1405.81" cy="191.021" r="1.80711" transform="rotate(-180 1405.81 191.021)" fill="#fff"/><circle cx="1405.81" cy="191.021" r="2.30711" transform="rotate(-180 1405.81 191.021)" stroke="#fff" stroke-opacity=".1"/><circle cx="1208.24" cy="245.234" r="1.80711" transform="rotate(-180 1208.24 245.234)" fill="#fff"/><circle cx="1208.24" cy="245.234" r="2.30711" transform="rotate(-180 1208.24 245.234)" stroke="#fff" stroke-opacity=".1"/><circle cx="1244.38" cy="192.225" r="1.80711" transform="rotate(-180 1244.38 192.225)" fill="#fff" fill-opacity=".6"/><circle cx="1244.38" cy="192.225" r="2.30711" transform="rotate(-180 1244.38 192.225)" stroke="#fff" stroke-opacity=".1"/><circle cx="1044.39" cy="265.715" r="1.80711" transform="rotate(-180 1044.39 265.715)" fill="#fff"/><circle cx="1044.39" cy="265.715" r="2.30711" transform="rotate(-180 1044.39 265.715)" stroke="#fff" stroke-opacity=".1"/><circle cx="1156.43" cy="298.242" r="1.80711" transform="rotate(-180 1156.43 298.242)" fill="#fff"/><circle cx="1054.03" cy="335.589" r="1.80711" transform="rotate(-180 1054.03 335.589)" fill="#fff"/><circle cx="1364.85" cy="203.068" r="1.80711" transform="rotate(-180 1364.85 203.068)" fill="#fff"/><circle cx="1167.28" cy="257.281" r="1.80711" transform="rotate(-180 1167.28 257.281)" fill="#fff"/><circle cx="1203.42" cy="204.273" r="1.80711" transform="rotate(-180 1203.42 204.273)" fill="#fff"/><circle cx="1003.43" cy="277.762" r="1.80711" transform="rotate(-180 1003.43 277.762)" fill="#fff"/><circle cx="1005.84" cy="329.566" r="1.80711" transform="rotate(-180 1005.84 329.566)" fill="#fff" fill-opacity=".2"/><circle cx="1120.29" cy="274.148" r="1.80711" transform="rotate(-180 1120.29 274.148)" fill="#fff"/><circle cx="955.242" cy="271.738" r="1.80711" transform="rotate(-180 955.242 271.738)" fill="#fff"/><circle cx="1347.99" cy="357.275" r="1.80711" transform="rotate(-180 1347.99 357.275)" fill="#fff"/><circle cx="1297.39" cy="299.447" r="1.80711" transform="rotate(-180 1297.39 299.447)" fill="#fff"/><circle cx="1376.9" cy="305.471" r="1.80711" transform="rotate(-180 1376.9 305.471)" fill="#fff"/><circle cx="1326.3" cy="247.643" r="1.80711" transform="rotate(-180 1326.3 247.643)" fill="#fff"/><circle cx="1410.63" cy="313.904" r="1.80711" transform="rotate(-180 1410.63 313.904)" fill="#fff"/><circle cx="1070.29" cy="309.687" r="1.20474" transform="rotate(-180 1070.29 309.687)" fill="#fff"/><circle cx="1381.12" cy="177.166" r="1.20474" transform="rotate(-180 1381.12 177.166)" fill="#fff"/><circle cx="1183.54" cy="231.379" r="1.20474" transform="rotate(-180 1183.54 231.379)" fill="#fff"/><circle cx="1364.25" cy="331.373" r="1.20474" transform="rotate(-180 1364.25 331.373)" fill="#fff"/><circle cx="1324.49" cy="356.672" r="1.20474" transform="rotate(-180 1324.49 356.672)" fill="#fff"/><circle cx="1385.94" cy="355.467" r="1.20474" transform="rotate(-180 1385.94 355.467)" fill="#fff"/><circle cx="1413.64" cy="365.105" r="1.20474" transform="rotate(-180 1413.64 365.105)" fill="#fff"/><circle cx="1413.64" cy="365.105" r="1.70474" transform="rotate(-180 1413.64 365.105)" stroke="#fff" stroke-opacity=".1"/><circle cx="1425.69" cy="292.821" r="1.20474" transform="rotate(-180 1425.69 292.821)" fill="#fff"/><circle cx="1295.58" cy="375.948" r="1.20474" transform="rotate(-180 1295.58 375.948)" fill="#fff"/><circle cx="1144.39" cy="340.408" r=".602369" transform="rotate(-180 1144.39 340.408)" fill="#fff"/><circle cx="1166.07" cy="365.708" r=".602369" transform="rotate(-180 1166.07 365.708)" fill="#fff"/><circle cx="1398.59" cy="293.424" r=".602369" transform="rotate(-180 1398.59 293.424)" fill="#fff"/><circle cx="1426.29" cy="341.613" r=".602369" transform="rotate(-180 1426.29 341.613)" fill="#fff"/><circle cx="1334.73" cy="281.376" r=".602369" transform="rotate(-180 1334.73 281.376)" fill="#fff"/><circle cx="1414.25" cy="245.234" r=".602369" transform="rotate(-180 1414.25 245.234)" fill="#fff"/><circle cx="1203.42" cy="348.841" r=".602369" transform="rotate(-180 1203.42 348.841)" fill="#fff"/><circle cx="1285.34" cy="187.407" r=".602369" transform="rotate(-180 1285.34 187.407)" fill="#fff"/><circle cx="1269.68" cy="321.133" r=".602369" transform="rotate(-180 1269.68 321.133)" fill="#fff"/><circle cx="1380.51" cy="304.266" r=".602369" transform="rotate(-180 1380.51 304.266)" fill="#fff"/><circle cx="1228.72" cy="377.755" r=".602369" transform="rotate(-180 1228.72 377.755)" fill="#fff"/><circle cx="1310.64" cy="216.32" r=".602369" transform="rotate(-180 1310.64 216.32)" fill="#fff"/><circle cx="1400.99" cy="158.493" r=".602369" transform="rotate(-180 1400.99 158.493)" fill="#fff"/><circle cx="976.927" cy="259.691" r=".602369" transform="rotate(-180 976.927 259.691)" fill="#fff"/><circle cx="1181.73" cy="324.747" r=".602369" transform="rotate(-180 1181.73 324.747)" fill="#fff"/><circle cx="1204.62" cy="297.038" r=".602369" transform="rotate(-180 1204.62 297.038)" fill="#fff"/><circle cx="1087.16" cy="345.83" r="1.20474" transform="rotate(-180 1087.16 345.83)" fill="#fff"/><circle cx="1087.16" cy="345.83" r="1.70474" transform="rotate(-180 1087.16 345.83)" stroke="#fff" stroke-opacity=".1"/><circle cx="1397.98" cy="213.308" r="1.20474" transform="rotate(-180 1397.98 213.308)" fill="#fff"/><circle cx="1397.98" cy="213.308" r="1.70474" transform="rotate(-180 1397.98 213.308)" stroke="#fff" stroke-opacity=".1"/><circle cx="1200.41" cy="267.522" r="1.20474" transform="rotate(-180 1200.41 267.522)" fill="#fff"/><circle cx="1200.41" cy="267.522" r="1.70474" transform="rotate(-180 1200.41 267.522)" stroke="#fff" stroke-opacity=".1"/><circle cx="1230.52" cy="332.577" r="1.20474" transform="rotate(-180 1230.52 332.577)" fill="#fff"/><circle cx="1402.8" cy="113.315" r="1.20474" transform="rotate(-180 1402.8 113.315)" fill="#fff"/><circle cx="978.734" cy="214.513" r="1.20474" transform="rotate(-180 978.734 214.513)" fill="#fff"/><circle cx="988.372" cy="365.105" r="1.20474" transform="rotate(-180 988.372 365.105)" fill="#fff"/><circle cx="1024.51" cy="307.278" r="1.20474" transform="rotate(-180 1024.51 307.278)" fill="#fff"/><circle cx="979.939" cy="343.42" r="1.20474" transform="rotate(-180 979.939 343.42)" fill="#fff"/><circle cx="979.939" cy="343.42" r="1.70474" transform="rotate(-180 979.939 343.42)" stroke="#fff" stroke-opacity=".1"/><circle cx="1094.39" cy="288.002" r="1.20474" transform="rotate(-180 1094.39 288.002)" fill="#fff"/><circle cx="1094.39" cy="288.002" r="1.70474" transform="rotate(-180 1094.39 288.002)" stroke="#fff" stroke-opacity=".1"/><circle cx="1440.15" cy="53.0783" r="1.20474" transform="rotate(-180 1440.15 53.0783)" fill="#fff"/><circle cx="1440.15" cy="53.0783" r="1.70474" transform="rotate(-180 1440.15 53.0783)" stroke="#fff" stroke-opacity=".1"/><circle cx="1022.11" cy="359.082" r="1.20474" transform="rotate(-180 1022.11 359.082)" fill="#fff"/><circle cx="973.916" cy="371.129" r="1.20474" transform="rotate(-180 973.916 371.129)" fill="#fff"/><circle cx="1434.13" cy="80.7873" r="1.20474" transform="rotate(-180 1434.13 80.7873)" fill="#fff"/><circle cx="1134.15" cy="365.105" r="1.20474" transform="rotate(-180 1134.15 365.105)" fill="#fff"/><circle cx="1247.39" cy="286.797" r="1.20474" transform="rotate(-180 1247.39 286.797)" fill="#fff"/><circle cx="1199.2" cy="372.334" r="1.20474" transform="rotate(-180 1199.2 372.334)" fill="#fff"/><circle cx="1281.12" cy="210.899" r="1.20474" transform="rotate(-180 1281.12 210.899)" fill="#fff"/><circle cx="1381.12" cy="367.515" r="1.20474" transform="rotate(-180 1381.12 367.515)" fill="#fff"/><circle cx="1349.79" cy="288.002" r="1.20474" transform="rotate(-180 1349.79 288.002)" fill="#fff"/><circle cx="1340.16" cy="310.892" r="1.20474" transform="rotate(-180 1340.16 310.892)" fill="#fff"/><circle cx="1224.5" cy="150.662" r="1.20474" transform="rotate(-180 1224.5 150.662)" fill="#fff"/><circle cx="1326.3" cy="341.613" r="1.80711" transform="rotate(-180 1326.3 341.613)" fill="#fff"/><circle cx="1326.3" cy="341.613" r="2.30711" transform="rotate(-180 1326.3 341.613)" stroke="#fff" stroke-opacity=".1"/><circle cx="1426.29" cy="263.305" r="1.80711" transform="rotate(-180 1426.29 263.305)" fill="#fff"/><circle cx="1247.99" cy="58.4996" r="1.80711" fill="#fff"/><circle cx="1194.98" cy="99.4607" r="1.80711" fill="#fff" fill-opacity=".75"/><circle cx="1017.89" cy="18.7433" r="1.80711" fill="#fff" fill-opacity=".1"/><circle cx="994.999" cy="53.6808" r="1.80711" fill="#fff"/><circle cx="933.557" cy="101.87" r="1.80711" fill="#fff"/><circle cx="1350.4" cy="21.1528" r="1.80711" fill="#fff"/><circle cx="1350.4" cy="21.1528" r="2.30711" stroke="#fff" stroke-opacity=".1"/><circle cx="1039.57" cy="153.674" r="1.80711" fill="#fff"/><circle cx="1039.57" cy="153.674" r="2.30711" stroke="#fff" stroke-opacity=".1"/><circle cx="1237.15" cy="99.4607" r="1.80711" fill="#fff"/><circle cx="1237.15" cy="99.4607" r="2.30711" stroke="#fff" stroke-opacity=".1"/><circle cx="890.186" cy="311.495" r="1.80711" fill="#fff"/><circle cx="890.186" cy="311.495" r="2.30711" stroke="#fff" stroke-opacity=".1"/><circle cx="1156.43" cy="156.083" r="1.80711" fill="#fff"/><circle cx="1066.08" cy="213.911" r="1.80711" fill="#fff"/><circle cx="1056.44" cy="-.532493" r="1.80711" fill="#fff"/><circle cx="1056.44" cy="-.532493" r="2.30711" stroke="#fff" stroke-opacity=".1"/><circle cx="1148" cy="59.7043" r="1.80711" fill="#fff"/><circle cx="1148" cy="59.7043" r="2.30711" stroke="#fff" stroke-opacity=".1"/><circle cx="1307.03" cy="12.7196" r="1.80711" fill="#fff"/><circle cx="1307.03" cy="12.7196" r="2.30711" stroke="#fff" stroke-opacity=".1"/><circle cx="1221.49" cy="192.226" r="1.80711" fill="#fff"/><circle cx="1022.71" cy="205.478" r="1.80711" fill="#fff"/><circle cx="1098.61" cy="107.894" r="1.80711" fill="#fff"/><circle cx="1296.18" cy="47.657" r="1.80711" fill="#fff"/><circle cx="979.337" cy="248.848" r="1.80711" fill="#fff"/><circle cx="1380.51" cy="27.1765" r="1.80711" fill="#fff"/><circle cx="1380.51" cy="27.1765" r="2.30711" stroke="#fff" stroke-opacity=".1"/><circle cx="1069.69" cy="159.698" r="1.80711" fill="#fff"/><circle cx="1069.69" cy="159.698" r="2.30711" stroke="#fff" stroke-opacity=".1"/><circle cx="1267.27" cy="105.484" r="1.80711" fill="#fff"/><circle cx="1267.27" cy="105.484" r="2.30711" stroke="#fff" stroke-opacity=".1"/><circle cx="920.305" cy="317.518" r="1.80711" fill="#fff"/><circle cx="920.305" cy="317.518" r="2.30711" stroke="#fff" stroke-opacity=".1"/><circle cx="1231.13" cy="158.493" r="1.80711" fill="#fff" fill-opacity=".6"/><circle cx="1231.13" cy="158.493" r="2.30711" stroke="#fff" stroke-opacity=".1"/><circle cx="1431.11" cy="85.0039" r="1.80711" fill="#fff"/><circle cx="1431.11" cy="85.0039" r="2.30711" stroke="#fff" stroke-opacity=".1"/><circle cx="1319.07" cy="52.4759" r="1.80711" fill="#fff"/><circle cx="1421.48" cy="15.1291" r="1.80711" fill="#fff"/><circle cx="1110.65" cy="147.65" r="1.80711" fill="#fff"/><circle cx="1308.23" cy="93.437" r="1.80711" fill="#fff"/><circle cx="961.266" cy="305.471" r="1.80711" fill="#fff"/><circle cx="1272.09" cy="146.446" r="1.80711" fill="#fff"/><circle cx="1355.22" cy="76.5708" r="1.80711" fill="#fff"/><circle cx="1009.46" cy="311.495" r="1.80711" fill="#fff"/><circle cx="931.147" cy="387.393" r="1.80711" fill="#fff"/><circle cx="978.132" cy="124.76" r="1.80711" fill="#fff"/><circle cx="1178.12" cy="51.2712" r="1.80711" fill="#fff"/><circle cx="1098.61" cy="45.2475" r="1.80711" fill="#fff"/><circle cx="952.833" cy="80.1849" r="1.80711" fill="#fff"/><circle cx="949.219" cy="176.564" r="1.80711" fill="#fff"/><circle cx="1149.2" cy="103.075" r="1.80711" fill="#fff"/><circle cx="1064.87" cy="36.8143" r="1.80711" fill="#fff"/><circle cx="933.557" cy="195.84" r="1.80711" fill="#fff"/><circle cx="1405.21" cy="41.0309" r="1.20474" fill="#fff"/><circle cx="1094.39" cy="173.552" r="1.20474" fill="#fff"/><circle cx="1291.97" cy="119.339" r="1.20474" fill="#fff"/><circle cx="945.002" cy="331.373" r="1.20474" fill="#fff"/><circle cx="1111.26" cy="19.3457" r="1.20474" fill="#fff"/><circle cx="979.939" cy="178.371" r="1.20474" fill="#fff"/><circle cx="1019.7" cy="153.072" r="1.20474" fill="#fff"/><circle cx="973.916" cy="24.1646" r="1.20474" fill="#fff"/><circle cx="842.599" cy="183.19" r="1.20474" fill="#fff"/><circle cx="958.254" cy="154.276" r="1.20474" fill="#fff"/><circle cx="930.545" cy="144.638" r="1.20474" fill="#fff"/><circle cx="930.545" cy="144.638" r="1.70474" stroke="#fff" stroke-opacity=".1"/><circle cx="1049.81" cy="57.8972" r="1.20474" fill="#fff"/><circle cx="1331.12" cy="10.3101" r=".602369" fill="#fff"/><circle cx="982.951" cy="6.69587" r=".602369" fill="#fff"/><circle cx="1076.92" cy="57.2949" r=".602369" fill="#fff"/><circle cx="1049.21" cy="9.10542" r=".602369" fill="#fff"/><circle cx="1140.77" cy="69.3422" r=".602369" fill="#fff"/><circle cx="1009.46" cy="50.0665" r=".602369" fill="#fff"/><circle cx="927.533" cy="66.9328" r=".602369" fill="#fff"/><circle cx="1009.46" cy="82.5944" r=".602369" fill="#fff"/><circle cx="1061.26" cy="105.484" r=".602369" fill="#fff"/><circle cx="1272.09" cy="1.87691" r=".602369" fill="#fff"/><circle cx="1190.17" cy="163.312" r=".602369" fill="#fff"/><circle cx="1205.83" cy="29.5859" r=".602369" fill="#fff"/><circle cx="1033.55" cy="248.848" r=".602369" fill="#fff"/><circle cx="1010.66" cy="89.8228" r=".602369" fill="#fff"/><circle cx="972.108" cy="106.689" r=".602369" fill="#fff"/><circle cx="1094.99" cy="46.4522" r=".602369" fill="#fff"/><circle cx="1164.87" cy="134.398" r=".602369" fill="#fff"/><circle cx="1074.51" cy="192.226" r=".602369" fill="#fff"/><circle cx="1293.77" cy="25.9718" r=".602369" fill="#fff"/><circle cx="1270.88" cy="53.6807" r=".602369" fill="#fff"/><circle cx="1388.35" cy="4.88882" r="1.20474" fill="#fff"/><circle cx="1388.35" cy="4.88882" r="1.70474" stroke="#fff" stroke-opacity=".1"/><circle cx="1077.52" cy="137.41" r="1.20474" fill="#fff"/><circle cx="1077.52" cy="137.41" r="1.70474" stroke="#fff" stroke-opacity=".1"/><circle cx="1275.1" cy="83.1968" r="1.20474" fill="#fff"/><circle cx="1275.1" cy="83.1968" r="1.70474" stroke="#fff" stroke-opacity=".1"/><circle cx="928.136" cy="295.231" r="1.20474" fill="#fff"/><circle cx="928.136" cy="295.231" r="1.70474" stroke="#fff" stroke-opacity=".1"/><circle cx="1244.98" cy="18.1409" r="1.20474" fill="#fff"/><circle cx="1072.7" cy="237.403" r="1.20474" fill="#fff"/><circle cx="1026.92" cy="275.955" r="1.20474" fill="#fff"/><circle cx="990.782" cy="333.782" r="1.20474" fill="#fff"/><circle cx="1381.12" cy="62.7162" r="1.20474" fill="#fff"/><circle cx="1381.12" cy="62.7162" r="1.70474" stroke="#fff" stroke-opacity=".1"/><circle cx="1035.36" cy="297.64" r="1.20474" fill="#fff"/><circle cx="1035.36" cy="297.64" r="1.70474" stroke="#fff" stroke-opacity=".1"/><circle cx="993.192" cy="281.978" r="1.20474" fill="#fff"/><circle cx="1041.38" cy="269.931" r="1.20474" fill="#fff"/><circle cx="1030.54" cy="118.134" r="1.20474" fill="#fff"/><circle cx="975.12" cy="233.789" r="1.20474" fill="#fff"/><circle cx="1228.12" cy="63.9209" r="1.20474" fill="#fff"/><circle cx="1194.38" cy="139.819" r="1.20474" fill="#fff"/><circle cx="898.017" cy="377.153" r="1.20474" fill="#fff"/><circle cx="1034.15" cy="2.4794" r="1.20474" fill="#fff"/><circle cx="1125.71" cy="62.7162" r="1.20474" fill="#fff"/><circle cx="908.86" cy="68.7399" r="1.20474" fill="#fff"/><circle cx="923.317" cy="80.7873" r="1.20474" fill="#fff"/><circle cx="908.86" cy="32.5978" r="1.20474" fill="#fff"/><circle cx="931.75" cy="32.5978" r="1.20474" fill="#fff"/><circle cx="1135.35" cy="39.8262" r="1.20474" fill="#fff"/><circle cx="1251.01" cy="200.056" r="1.20474" fill="#fff"/><circle cx="981.144" cy="48.2594" r="1.20474" fill="#fff"/><circle cx="1149.2" cy="9.10545" r="1.80711" fill="#fff"/><circle cx="1149.2" cy="9.10545" r="2.30711" stroke="#fff" stroke-opacity=".1"/><circle cx="1049.21" cy="87.4133" r="1.80711" fill="#fff"/><circle cx="604.664" cy="165.118" r="1.80711" transform="rotate(-90 604.664 165.118)" fill="#fff"/><circle cx="645.625" cy="218.127" r="1.80711" transform="rotate(-90 645.625 218.127)" fill="#fff" fill-opacity=".75"/><circle cx="564.907" cy="395.223" r="1.80711" transform="rotate(-90 564.907 395.223)" fill="#fff" fill-opacity=".1"/><circle cx="567.317" cy="62.7156" r="1.80711" transform="rotate(-90 567.317 62.7156)" fill="#fff"/><circle cx="567.317" cy="62.7156" r="2.30711" transform="rotate(-90 567.317 62.7156)" stroke="#fff" stroke-opacity=".1"/><circle cx="699.838" cy="373.538" r="1.80711" transform="rotate(-90 699.838 373.538)" fill="#fff"/><circle cx="699.838" cy="373.538" r="2.30711" transform="rotate(-90 699.838 373.538)" stroke="#fff" stroke-opacity=".1"/><circle cx="645.625" cy="175.961" r="1.80711" transform="rotate(-90 645.625 175.961)" fill="#fff"/><circle cx="645.625" cy="175.961" r="2.30711" transform="rotate(-90 645.625 175.961)" stroke="#fff" stroke-opacity=".1"/><circle cx="540.813" cy="174.756" r="1.80711" transform="rotate(-90 540.813 174.756)" fill="#fff"/><circle cx="702.248" cy="256.678" r="1.80711" transform="rotate(-90 702.248 256.678)" fill="#fff"/><circle cx="760.075" cy="347.034" r="1.80711" transform="rotate(-90 760.075 347.034)" fill="#fff"/><circle cx="545.632" cy="356.672" r="1.80711" transform="rotate(-90 545.632 356.672)" fill="#fff"/><circle cx="545.632" cy="356.672" r="2.30711" transform="rotate(-90 545.632 356.672)" stroke="#fff" stroke-opacity=".1"/><circle cx="605.869" cy="265.112" r="1.80711" transform="rotate(-90 605.869 265.112)" fill="#fff"/><circle cx="605.869" cy="265.112" r="2.30711" transform="rotate(-90 605.869 265.112)" stroke="#fff" stroke-opacity=".1"/><circle cx="558.884" cy="106.086" r="1.80711" transform="rotate(-90 558.884 106.086)" fill="#fff"/><circle cx="558.884" cy="106.086" r="2.30711" transform="rotate(-90 558.884 106.086)" stroke="#fff" stroke-opacity=".1"/><circle cx="532.38" cy="218.127" r="1.80711" transform="rotate(-90 532.38 218.127)" fill="#fff" fill-opacity=".8"/><circle cx="738.39" cy="191.623" r="1.80711" transform="rotate(-90 738.39 191.623)" fill="#fff"/><circle cx="751.642" cy="390.404" r="1.80711" transform="rotate(-90 751.642 390.404)" fill="#fff"/><circle cx="521.537" cy="3.68349" r="1.80711" transform="rotate(-90 521.537 3.68349)" fill="#fff"/><circle cx="654.058" cy="314.506" r="1.80711" transform="rotate(-90 654.058 314.506)" fill="#fff"/><circle cx="593.821" cy="116.929" r="1.80711" transform="rotate(-90 593.821 116.929)" fill="#fff"/><circle cx="573.341" cy="32.5972" r="1.80711" transform="rotate(-90 573.341 32.5972)" fill="#fff"/><circle cx="573.341" cy="32.5972" r="2.30711" transform="rotate(-90 573.341 32.5972)" stroke="#fff" stroke-opacity=".1"/><circle cx="705.862" cy="343.42" r="1.80711" transform="rotate(-90 705.862 343.42)" fill="#fff"/><circle cx="705.862" cy="343.42" r="2.30711" transform="rotate(-90 705.862 343.42)" stroke="#fff" stroke-opacity=".1"/><circle cx="651.649" cy="145.843" r="1.80711" transform="rotate(-90 651.649 145.843)" fill="#fff"/><circle cx="651.649" cy="145.843" r="2.30711" transform="rotate(-90 651.649 145.843)" stroke="#fff" stroke-opacity=".1"/><circle cx="704.657" cy="181.985" r="1.80711" transform="rotate(-90 704.657 181.985)" fill="#fff" fill-opacity=".6"/><circle cx="704.657" cy="181.985" r="2.30711" transform="rotate(-90 704.657 181.985)" stroke="#fff" stroke-opacity=".1"/><circle cx="598.64" cy="94.0388" r="1.80711" transform="rotate(-90 598.64 94.0388)" fill="#fff"/><circle cx="693.814" cy="302.458" r="1.80711" transform="rotate(-90 693.814 302.458)" fill="#fff"/><circle cx="639.601" cy="104.881" r="1.80711" transform="rotate(-90 639.601 104.881)" fill="#fff"/><circle cx="692.61" cy="141.024" r="1.80711" transform="rotate(-90 692.61 141.024)" fill="#fff"/><circle cx="622.735" cy="57.8968" r="1.80711" transform="rotate(-90 622.735 57.8968)" fill="#fff"/><circle cx="857.659" cy="403.656" r="1.80711" transform="rotate(-90 857.659 403.656)" fill="#fff"/><circle cx="539.608" cy="285.592" r="1.80711" transform="rotate(-90 539.608 285.592)" fill="#fff"/><circle cx="597.436" cy="234.993" r="1.80711" transform="rotate(-90 597.436 234.993)" fill="#fff"/><circle cx="591.412" cy="314.506" r="1.80711" transform="rotate(-90 591.412 314.506)" fill="#fff"/><circle cx="649.239" cy="263.907" r="1.80711" transform="rotate(-90 649.239 263.907)" fill="#fff"/><circle cx="582.979" cy="348.238" r="1.80711" transform="rotate(-90 582.979 348.238)" fill="#fff"/><circle cx="587.195" cy="7.90012" r="1.20474" transform="rotate(-90 587.195 7.90012)" fill="#fff"/><circle cx="719.716" cy="318.722" r="1.20474" transform="rotate(-90 719.716 318.722)" fill="#fff"/><circle cx="665.503" cy="121.145" r="1.20474" transform="rotate(-90 665.503 121.145)" fill="#fff"/><circle cx="565.51" cy="301.856" r="1.20474" transform="rotate(-90 565.51 301.856)" fill="#fff"/><circle cx="540.21" cy="262.1" r="1.20474" transform="rotate(-90 540.21 262.1)" fill="#fff"/><circle cx="699.236" cy="393.416" r="1.20474" transform="rotate(-90 699.236 393.416)" fill="#fff"/><circle cx="541.415" cy="323.541" r="1.20474" transform="rotate(-90 541.415 323.541)" fill="#fff"/><circle cx="531.777" cy="351.25" r="1.20474" transform="rotate(-90 531.777 351.25)" fill="#fff"/><circle cx="531.777" cy="351.25" r="1.70474" transform="rotate(-90 531.777 351.25)" stroke="#fff" stroke-opacity=".1"/><circle cx="604.061" cy="363.298" r="1.20474" transform="rotate(-90 604.061 363.298)" fill="#fff"/><circle cx="520.935" cy="233.186" r="1.20474" transform="rotate(-90 520.935 233.186)" fill="#fff"/><circle cx="556.474" cy="81.9915" r=".602369" transform="rotate(-90 556.474 81.9915)" fill="#fff"/><circle cx="531.175" cy="103.677" r=".602369" transform="rotate(-90 531.175 103.677)" fill="#fff"/><circle cx="603.459" cy="336.191" r=".602369" transform="rotate(-90 603.459 336.191)" fill="#fff"/><circle cx="555.27" cy="363.9" r=".602369" transform="rotate(-90 555.27 363.9)" fill="#fff"/><circle cx="615.506" cy="272.34" r=".602369" transform="rotate(-90 615.506 272.34)" fill="#fff"/><circle cx="596.231" cy="403.656" r=".602369" transform="rotate(-90 596.231 403.656)" fill="#fff"/><circle cx="628.759" cy="403.656" r=".602369" transform="rotate(-90 628.759 403.656)" fill="#fff"/><circle cx="651.649" cy="351.853" r=".602369" transform="rotate(-90 651.649 351.853)" fill="#fff"/><circle cx="548.041" cy="141.024" r=".602369" transform="rotate(-90 548.041 141.024)" fill="#fff"/><circle cx="709.476" cy="222.946" r=".602369" transform="rotate(-90 709.476 222.946)" fill="#fff"/><circle cx="575.75" cy="207.284" r=".602369" transform="rotate(-90 575.75 207.284)" fill="#fff"/><circle cx="795.013" cy="379.562" r=".602369" transform="rotate(-90 795.013 379.562)" fill="#fff"/><circle cx="635.987" cy="402.452" r=".602369" transform="rotate(-90 635.987 402.452)" fill="#fff"/><circle cx="532.38" cy="409.68" r=".602369" transform="rotate(-90 532.38 409.68)" fill="#fff"/><circle cx="592.617" cy="318.12" r=".602369" transform="rotate(-90 592.617 318.12)" fill="#fff"/><circle cx="519.128" cy="166.323" r=".602369" transform="rotate(-90 519.128 166.323)" fill="#fff"/><circle cx="680.562" cy="248.245" r=".602369" transform="rotate(-90 680.562 248.245)" fill="#fff"/><circle cx="738.39" cy="338.601" r=".602369" transform="rotate(-90 738.39 338.601)" fill="#fff"/><circle cx="572.136" cy="119.338" r=".602369" transform="rotate(-90 572.136 119.338)" fill="#fff"/><circle cx="599.845" cy="142.228" r=".602369" transform="rotate(-90 599.845 142.228)" fill="#fff"/><circle cx="551.053" cy="24.7665" r="1.20474" transform="rotate(-90 551.053 24.7665)" fill="#fff"/><circle cx="551.053" cy="24.7665" r="1.70474" transform="rotate(-90 551.053 24.7665)" stroke="#fff" stroke-opacity=".1"/><circle cx="683.574" cy="335.589" r="1.20474" transform="rotate(-90 683.574 335.589)" fill="#fff"/><circle cx="683.574" cy="335.589" r="1.70474" transform="rotate(-90 683.574 335.589)" stroke="#fff" stroke-opacity=".1"/><circle cx="629.361" cy="138.012" r="1.20474" transform="rotate(-90 629.361 138.012)" fill="#fff"/><circle cx="629.361" cy="138.012" r="1.70474" transform="rotate(-90 629.361 138.012)" stroke="#fff" stroke-opacity=".1"/><circle cx="564.305" cy="168.13" r="1.20474" transform="rotate(-90 564.305 168.13)" fill="#fff"/><circle cx="783.568" cy="340.408" r="1.20474" transform="rotate(-90 783.568 340.408)" fill="#fff"/><circle cx="822.119" cy="386.188" r="1.20474" transform="rotate(-90 822.119 386.188)" fill="#fff"/><circle cx="608.88" cy="31.9948" r="1.20474" transform="rotate(-90 608.88 31.9948)" fill="#fff"/><circle cx="608.88" cy="31.9948" r="1.70474" transform="rotate(-90 608.88 31.9948)" stroke="#fff" stroke-opacity=".1"/><circle cx="843.804" cy="377.754" r="1.20474" transform="rotate(-90 843.804 377.754)" fill="#fff"/><circle cx="843.804" cy="377.754" r="1.70474" transform="rotate(-90 843.804 377.754)" stroke="#fff" stroke-opacity=".1"/><circle cx="816.095" cy="371.731" r="1.20474" transform="rotate(-90 816.095 371.731)" fill="#fff"/><circle cx="531.777" cy="71.7512" r="1.20474" transform="rotate(-90 531.777 71.7512)" fill="#fff"/><circle cx="664.298" cy="382.573" r="1.20474" transform="rotate(-90 664.298 382.573)" fill="#fff"/><circle cx="610.085" cy="184.997" r="1.20474" transform="rotate(-90 610.085 184.997)" fill="#fff"/><circle cx="524.549" cy="136.807" r="1.20474" transform="rotate(-90 524.549 136.807)" fill="#fff"/><circle cx="685.984" cy="218.729" r="1.20474" transform="rotate(-90 685.984 218.729)" fill="#fff"/><circle cx="529.368" cy="318.722" r="1.20474" transform="rotate(-90 529.368 318.722)" fill="#fff"/><circle cx="548.644" cy="378.959" r="1.20474" transform="rotate(-90 548.644 378.959)" fill="#fff"/><circle cx="608.88" cy="287.399" r="1.20474" transform="rotate(-90 608.88 287.399)" fill="#fff"/><circle cx="522.139" cy="391.007" r="1.20474" transform="rotate(-90 522.139 391.007)" fill="#fff"/><circle cx="585.99" cy="277.761" r="1.20474" transform="rotate(-90 585.99 277.761)" fill="#fff"/><circle cx="746.221" cy="162.107" r="1.20474" transform="rotate(-90 746.221 162.107)" fill="#fff"/><circle cx="555.27" cy="263.907" r="1.80711" transform="rotate(-90 555.27 263.907)" fill="#fff"/><circle cx="555.27" cy="263.907" r="2.30711" transform="rotate(-90 555.27 263.907)" stroke="#fff" stroke-opacity=".1"/><circle cx="633.578" cy="363.9" r="1.80711" transform="rotate(-90 633.578 363.9)" fill="#fff"/><circle cx="838.383" cy="185.599" r="1.80711" transform="rotate(90 838.383 185.599)" fill="#fff"/><circle cx="797.422" cy="132.59" r="1.80711" transform="rotate(90 797.422 132.59)" fill="#fff" fill-opacity=".75"/><circle cx="875.73" cy="288.002" r="1.80711" transform="rotate(90 875.73 288.002)" fill="#fff"/><circle cx="875.73" cy="288.002" r="2.30711" transform="rotate(90 875.73 288.002)" stroke="#fff" stroke-opacity=".1"/><circle cx="797.422" cy="174.756" r="1.80711" transform="rotate(90 797.422 174.756)" fill="#fff"/><circle cx="797.422" cy="174.756" r="2.30711" transform="rotate(90 797.422 174.756)" stroke="#fff" stroke-opacity=".1"/><circle cx="902.234" cy="175.961" r="1.80711" transform="rotate(90 902.234 175.961)" fill="#fff"/><circle cx="740.799" cy="94.0388" r="1.80711" transform="rotate(90 740.799 94.0388)" fill="#fff"/><circle cx="682.972" cy="3.68345" r="1.80711" transform="rotate(90 682.972 3.68345)" fill="#fff"/><circle cx="837.178" cy="85.6057" r="1.80711" transform="rotate(90 837.178 85.6057)" fill="#fff"/><circle cx="837.178" cy="85.6057" r="2.30711" transform="rotate(90 837.178 85.6057)" stroke="#fff" stroke-opacity=".1"/><circle cx="884.163" cy="244.631" r="1.80711" transform="rotate(90 884.163 244.631)" fill="#fff"/><circle cx="884.163" cy="244.631" r="2.30711" transform="rotate(90 884.163 244.631)" stroke="#fff" stroke-opacity=".1"/><circle cx="910.667" cy="132.59" r="1.80711" transform="rotate(90 910.667 132.59)" fill="#fff" fill-opacity=".8"/><circle cx="704.657" cy="159.095" r="1.80711" transform="rotate(90 704.657 159.095)" fill="#fff"/><circle cx="792.603" cy="384.381" r="1.80711" transform="rotate(90 792.603 384.381)" fill="#fff"/><circle cx="921.51" cy="347.034" r="1.80711" transform="rotate(90 921.51 347.034)" fill="#fff"/><circle cx="788.989" cy="36.2114" r="1.80711" transform="rotate(90 788.989 36.2114)" fill="#fff"/><circle cx="849.226" cy="233.788" r="1.80711" transform="rotate(90 849.226 233.788)" fill="#fff"/><circle cx="869.706" cy="318.12" r="1.80711" transform="rotate(90 869.706 318.12)" fill="#fff"/><circle cx="869.706" cy="318.12" r="2.30711" transform="rotate(90 869.706 318.12)" stroke="#fff" stroke-opacity=".1"/><circle cx="737.185" cy="7.29771" r="1.80711" transform="rotate(90 737.185 7.29771)" fill="#fff"/><circle cx="737.185" cy="7.29771" r="2.30711" transform="rotate(90 737.185 7.29771)" stroke="#fff" stroke-opacity=".1"/><circle cx="791.398" cy="204.875" r="1.80711" transform="rotate(90 791.398 204.875)" fill="#fff"/><circle cx="791.398" cy="204.875" r="2.30711" transform="rotate(90 791.398 204.875)" stroke="#fff" stroke-opacity=".1"/><circle cx="738.39" cy="168.733" r="1.80711" transform="rotate(90 738.39 168.733)" fill="#fff" fill-opacity=".6"/><circle cx="738.39" cy="168.733" r="2.30711" transform="rotate(90 738.39 168.733)" stroke="#fff" stroke-opacity=".1"/><circle cx="811.879" cy="368.719" r="1.80711" transform="rotate(90 811.879 368.719)" fill="#fff"/><circle cx="811.879" cy="368.719" r="2.30711" transform="rotate(90 811.879 368.719)" stroke="#fff" stroke-opacity=".1"/><circle cx="844.407" cy="256.678" r="1.80711" transform="rotate(90 844.407 256.678)" fill="#fff"/><circle cx="881.753" cy="359.081" r="1.80711" transform="rotate(90 881.753 359.081)" fill="#fff"/><circle cx="749.232" cy="48.2588" r="1.80711" transform="rotate(90 749.232 48.2588)" fill="#fff"/><circle cx="803.446" cy="245.836" r="1.80711" transform="rotate(90 803.446 245.836)" fill="#fff"/><circle cx="750.437" cy="209.694" r="1.80711" transform="rotate(90 750.437 209.694)" fill="#fff"/><circle cx="875.73" cy="407.271" r="1.80711" transform="rotate(90 875.73 407.271)" fill="#fff" fill-opacity=".2"/><circle cx="820.312" cy="292.821" r="1.80711" transform="rotate(90 820.312 292.821)" fill="#fff"/><circle cx="903.439" cy="65.1251" r="1.80711" transform="rotate(90 903.439 65.1251)" fill="#fff"/><circle cx="845.611" cy="115.724" r="1.80711" transform="rotate(90 845.611 115.724)" fill="#fff"/><circle cx="851.635" cy="36.2114" r="1.80711" transform="rotate(90 851.635 36.2114)" fill="#fff"/><circle cx="793.808" cy="86.8104" r="1.80711" transform="rotate(90 793.808 86.8104)" fill="#fff"/><circle cx="860.068" cy="2.47874" r="1.80711" transform="rotate(90 860.068 2.47874)" fill="#fff"/><circle cx="855.852" cy="342.817" r="1.20474" transform="rotate(90 855.852 342.817)" fill="#fff"/><circle cx="723.331" cy="31.9949" r="1.20474" transform="rotate(90 723.331 31.9949)" fill="#fff"/><circle cx="777.544" cy="229.572" r="1.20474" transform="rotate(90 777.544 229.572)" fill="#fff"/><circle cx="877.537" cy="48.8612" r="1.20474" transform="rotate(90 877.537 48.8612)" fill="#fff"/><circle cx="902.837" cy="88.6176" r="1.20474" transform="rotate(90 902.837 88.6176)" fill="#fff"/><circle cx="901.632" cy="27.1759" r="1.20474" transform="rotate(90 901.632 27.1759)" fill="#fff"/><circle cx="911.27" cy="-.533055" r="1.20474" transform="rotate(90 911.27 -.533055)" fill="#fff"/><circle cx="911.27" cy="-.533055" r="1.70474" transform="rotate(90 911.27 -.533055)" stroke="#fff" stroke-opacity=".1"/><circle cx="922.112" cy="117.531" r="1.20474" transform="rotate(90 922.112 117.531)" fill="#fff"/><circle cx="886.572" cy="268.726" r=".602369" transform="rotate(90 886.572 268.726)" fill="#fff"/><circle cx="911.872" cy="247.04" r=".602369" transform="rotate(90 911.872 247.04)" fill="#fff"/><circle cx="839.588" cy="14.5262" r=".602369" transform="rotate(90 839.588 14.5262)" fill="#fff"/><circle cx="827.54" cy="78.3773" r=".602369" transform="rotate(90 827.54 78.3773)" fill="#fff"/><circle cx="895.006" cy="209.694" r=".602369" transform="rotate(90 895.006 209.694)" fill="#fff"/><circle cx="733.571" cy="127.771" r=".602369" transform="rotate(90 733.571 127.771)" fill="#fff"/><circle cx="867.297" cy="143.433" r=".602369" transform="rotate(90 867.297 143.433)" fill="#fff"/><circle cx="850.43" cy="32.5972" r=".602369" transform="rotate(90 850.43 32.5972)" fill="#fff"/><circle cx="923.919" cy="184.394" r=".602369" transform="rotate(90 923.919 184.394)" fill="#fff"/><circle cx="762.485" cy="102.472" r=".602369" transform="rotate(90 762.485 102.472)" fill="#fff"/><circle cx="704.657" cy="12.1167" r=".602369" transform="rotate(90 704.657 12.1167)" fill="#fff"/><circle cx="870.911" cy="231.379" r=".602369" transform="rotate(90 870.911 231.379)" fill="#fff"/><circle cx="843.202" cy="208.489" r=".602369" transform="rotate(90 843.202 208.489)" fill="#fff"/><circle cx="891.994" cy="325.951" r="1.20474" transform="rotate(90 891.994 325.951)" fill="#fff"/><circle cx="891.994" cy="325.951" r="1.70474" transform="rotate(90 891.994 325.951)" stroke="#fff" stroke-opacity=".1"/><circle cx="759.473" cy="15.1286" r="1.20474" transform="rotate(90 759.473 15.1286)" fill="#fff"/><circle cx="759.473" cy="15.1286" r="1.70474" transform="rotate(90 759.473 15.1286)" stroke="#fff" stroke-opacity=".1"/><circle cx="813.686" cy="212.705" r="1.20474" transform="rotate(90 813.686 212.705)" fill="#fff"/><circle cx="813.686" cy="212.705" r="1.70474" transform="rotate(90 813.686 212.705)" stroke="#fff" stroke-opacity=".1"/><circle cx="878.742" cy="182.587" r="1.20474" transform="rotate(90 878.742 182.587)" fill="#fff"/><circle cx="659.479" cy="10.3096" r="1.20474" transform="rotate(90 659.479 10.3096)" fill="#fff"/><circle cx="853.442" cy="388.597" r="1.20474" transform="rotate(90 853.442 388.597)" fill="#fff"/><circle cx="834.166" cy="318.722" r="1.20474" transform="rotate(90 834.166 318.722)" fill="#fff"/><circle cx="834.166" cy="318.722" r="1.70474" transform="rotate(90 834.166 318.722)" stroke="#fff" stroke-opacity=".1"/><circle cx="905.246" cy="391.007" r="1.20474" transform="rotate(90 905.246 391.007)" fill="#fff"/><circle cx="911.27" cy="278.966" r="1.20474" transform="rotate(90 911.27 278.966)" fill="#fff"/><circle cx="832.962" cy="165.721" r="1.20474" transform="rotate(90 832.962 165.721)" fill="#fff"/><circle cx="918.498" cy="213.91" r="1.20474" transform="rotate(90 918.498 213.91)" fill="#fff"/><circle cx="757.063" cy="131.988" r="1.20474" transform="rotate(90 757.063 131.988)" fill="#fff"/><circle cx="913.679" cy="31.9949" r="1.20474" transform="rotate(90 913.679 31.9949)" fill="#fff"/><circle cx="834.166" cy="63.318" r="1.20474" transform="rotate(90 834.166 63.318)" fill="#fff"/><circle cx="857.057" cy="72.956" r="1.20474" transform="rotate(90 857.057 72.956)" fill="#fff"/><circle cx="696.826" cy="188.611" r="1.20474" transform="rotate(90 696.826 188.611)" fill="#fff"/><circle cx="887.777" cy="86.8104" r="1.80711" transform="rotate(90 887.777 86.8104)" fill="#fff"/><circle cx="887.777" cy="86.8104" r="2.30711" transform="rotate(90 887.777 86.8104)" stroke="#fff" stroke-opacity=".1"/></svg>