<svg width="17" height="17" viewBox="0 0 17 17" fill="none" xmlns="http://www.w3.org/2000/svg">
<circle cx="8.73853" cy="8.47656" r="8" fill="black"/>
<path fill-rule="evenodd" clip-rule="evenodd" d="M7.08379 4.4712C6.80803 4.38199 6.60243 4.39795 6.45591 4.48254C6.30939 4.56713 6.19278 4.73721 6.13215 5.02063C6.07154 5.30402 6.0732 5.67658 6.14402 6.11863C6.17123 6.28847 6.20837 6.46684 6.25525 6.65219C6.66659 6.55908 7.11492 6.48867 7.58887 6.44485C7.8638 6.05632 8.14893 5.70327 8.43523 5.3936C8.29815 5.26032 8.16224 5.13897 8.02875 5.03048C7.68134 4.74812 7.35952 4.5604 7.08379 4.4712ZM8.73857 5.08211C8.59243 4.94003 8.44683 4.81 8.30297 4.69308C7.93145 4.39113 7.5623 4.16904 7.21762 4.05753C6.87296 3.94603 6.5287 3.93847 6.23852 4.10601C5.94834 4.27354 5.78276 4.57546 5.70699 4.92969C5.63122 5.28395 5.63898 5.71469 5.71472 6.18741C5.74404 6.37045 5.78385 6.56155 5.83383 6.75914C5.63773 6.81465 5.45234 6.87572 5.27917 6.94184C4.83191 7.11261 4.455 7.32126 4.18609 7.56401C3.9172 7.80674 3.73853 8.1011 3.73853 8.43617C3.73853 8.77124 3.9172 9.0656 4.18609 9.30833C4.455 9.55108 4.83191 9.75973 5.27917 9.9305C5.45234 9.99662 5.63773 10.0577 5.83383 10.1132C5.78385 10.3108 5.74404 10.5019 5.71472 10.6849C5.63898 11.1577 5.63122 11.5884 5.70699 11.9427C5.78276 12.2969 5.94834 12.5988 6.23852 12.7663C6.5287 12.9339 6.87296 12.9263 7.21762 12.8148C7.5623 12.7033 7.93145 12.4812 8.30297 12.1793C8.44683 12.0624 8.59243 11.9323 8.73856 11.7902C8.88467 11.9323 9.03024 12.0623 9.17407 12.1792C9.54559 12.4811 9.91474 12.7032 10.2594 12.8147C10.6041 12.9262 10.9483 12.9338 11.2385 12.7663C11.5287 12.5987 11.6943 12.2968 11.7701 11.9426C11.8458 11.5883 11.8381 11.1576 11.7623 10.6849C11.733 10.5018 11.6932 10.3108 11.6432 10.1132C11.8393 10.0577 12.0247 9.99662 12.1979 9.9305C12.6451 9.75973 13.022 9.55108 13.291 9.30833C13.5599 9.0656 13.7385 8.77124 13.7385 8.43617C13.7385 8.1011 13.5599 7.80674 13.291 7.56401C13.022 7.32126 12.6451 7.11261 12.1979 6.94184C12.0247 6.87572 11.8393 6.81465 11.6432 6.75914C11.6932 6.56158 11.733 6.37051 11.7623 6.18749C11.8381 5.71477 11.8458 5.28403 11.7701 4.92977C11.6943 4.57555 11.5287 4.27363 11.2385 4.10609C10.9483 3.93856 10.6041 3.94611 10.2594 4.05761C9.91474 4.16912 9.54559 4.39121 9.17407 4.69316C9.03024 4.81006 8.88467 4.94006 8.73857 5.08211ZM8.73856 5.70602C8.54382 5.91785 8.34854 6.152 8.15619 6.40586C8.34733 6.39716 8.54166 6.39269 8.73853 6.39269C8.93541 6.39269 9.12976 6.39716 9.32093 6.40587C9.12857 6.152 8.9333 5.91785 8.73856 5.70602ZM7.27145 6.91666C6.95541 6.95631 6.65497 7.00835 6.37415 7.07109C6.46023 7.34566 6.56538 7.63186 6.68906 7.92538C6.77709 7.7555 6.87039 7.58496 6.96882 7.41448C7.06727 7.24396 7.16832 7.07787 7.27145 6.91666ZM6.91974 8.43618C7.04753 8.17087 7.18952 7.90178 7.34535 7.63187C7.5012 7.36193 7.66327 7.10438 7.82916 6.86104C8.12282 6.83905 8.42686 6.82747 8.73853 6.82747C9.05021 6.82747 9.35427 6.83905 9.64795 6.86104C9.81382 7.10436 9.97586 7.36188 10.1317 7.63179C10.2875 7.90172 10.4295 8.17084 10.5573 8.43617C10.4295 8.70151 10.2875 8.97063 10.1317 9.24057C9.97586 9.51047 9.81382 9.76798 9.64796 10.0113C9.35428 10.0333 9.05022 10.0449 8.73853 10.0449C8.42685 10.0449 8.12281 10.0333 7.82915 10.0113C7.66326 9.76796 7.5012 9.51042 7.34535 9.24048C7.18952 8.97057 7.04753 8.70148 6.91974 8.43618ZM6.43917 8.43618C6.24015 8.00382 6.07696 7.58035 5.95192 7.17757C5.76797 7.22965 5.59494 7.28667 5.43425 7.34802C5.01602 7.50771 4.69254 7.69255 4.47743 7.88674C4.26229 8.08095 4.17331 8.26698 4.17331 8.43617C4.17331 8.60536 4.26229 8.79139 4.47743 8.9856C4.69254 9.17979 5.01602 9.36463 5.43425 9.52432C5.59494 9.58567 5.76798 9.64269 5.95192 9.69477C6.07696 9.29199 6.24015 8.86853 6.43917 8.43618ZM6.37415 9.80125C6.46023 9.52669 6.56538 9.24049 6.68906 8.94697C6.77709 9.11686 6.87039 9.28739 6.96882 9.45787C7.06726 9.62838 7.16831 9.79447 7.27144 9.95568C6.9554 9.91603 6.65497 9.86399 6.37415 9.80125ZM6.25525 10.2202C6.20837 10.4055 6.17124 10.5839 6.14402 10.7537C6.0732 11.1958 6.07154 11.5683 6.13215 11.8517C6.19278 12.1351 6.30939 12.3052 6.45591 12.3898C6.60243 12.4744 6.80803 12.4904 7.08379 12.4012C7.35952 12.312 7.68134 12.1242 8.02875 11.8419C8.16224 11.7334 8.29815 11.612 8.43523 11.4788C8.14893 11.1691 7.86379 10.816 7.58886 10.4275C7.11492 10.3837 6.66659 10.3133 6.25525 10.2202ZM9.04189 11.4788C9.17895 11.612 9.31483 11.7333 9.44829 11.8418C9.7957 12.1241 10.1175 12.3119 10.3933 12.4011C10.669 12.4903 10.8746 12.4743 11.0211 12.3897C11.1677 12.3051 11.2843 12.1351 11.3449 11.8516C11.4055 11.5682 11.4038 11.1957 11.333 10.7536C11.3058 10.5838 11.2687 10.4055 11.2218 10.2201C10.8105 10.3132 10.3622 10.3837 9.88825 10.4275C9.61333 10.816 9.32819 11.1691 9.04189 11.4788ZM9.32093 10.4665C9.12858 10.7203 8.9333 10.9545 8.73856 11.1663C8.54382 10.9545 8.34853 10.7203 8.15618 10.4665C8.34732 10.4752 8.54166 10.4796 8.73853 10.4796C8.93541 10.4796 9.12977 10.4752 9.32093 10.4665ZM10.2057 9.95567C10.5217 9.91602 10.8221 9.86398 11.1029 9.80124C11.0168 9.52669 10.9117 9.24049 10.788 8.94698C10.7 9.11689 10.6067 9.28745 10.5082 9.45796C10.4098 9.62844 10.3088 9.79449 10.2057 9.95567ZM11.0379 8.43618C11.2369 8.86853 11.4001 9.29199 11.5251 9.69476C11.7091 9.64269 11.8821 9.58567 12.0428 9.52432C12.461 9.36463 12.7845 9.17979 12.9996 8.9856C13.2148 8.79139 13.3037 8.60536 13.3037 8.43617C13.3037 8.26698 13.2148 8.08095 12.9996 7.88674C12.7845 7.69255 12.461 7.50771 12.0428 7.34802C11.8821 7.28667 11.7091 7.22965 11.5252 7.17758C11.4001 7.58036 11.2369 8.00382 11.0379 8.43618ZM11.2218 6.65219C10.8105 6.55909 10.3622 6.48868 9.88824 6.44486C9.61332 6.05633 9.32819 5.70328 9.04189 5.3936C9.17895 5.26036 9.31483 5.13903 9.44829 5.03056C9.7957 4.74821 10.1175 4.56049 10.3933 4.47129C10.669 4.38208 10.8746 4.39803 11.0211 4.48262C11.1677 4.56722 11.2843 4.73729 11.3449 5.02071C11.4055 5.3041 11.4038 5.67667 11.333 6.11871C11.3058 6.28853 11.2687 6.46687 11.2218 6.65219ZM11.1029 7.07109C11.0168 7.34566 10.9117 7.63185 10.788 7.92537C10.7 7.75546 10.6067 7.58491 10.5082 7.41439C10.4098 7.24391 10.3088 7.07785 10.2057 6.91667C10.5217 6.95632 10.8221 7.00836 11.1029 7.07109ZM9.62983 8.43613C9.62983 8.92838 9.23078 9.32743 8.73853 9.32743C8.24628 9.32743 7.84723 8.92838 7.84723 8.43613C7.84723 7.94387 8.24628 7.54482 8.73853 7.54482C9.23078 7.54482 9.62983 7.94387 9.62983 8.43613Z" fill="white"/>
</svg>
