<svg width="32" height="32" viewBox="0 0 32 32" fill="none" xmlns="http://www.w3.org/2000/svg">
<g clip-path="url(#clip0_2932_88889)">
<rect width="32" height="32" rx="8" fill="url(#paint0_linear_2932_88889)"/>
<mask id="mask0_2932_88889" style="mask-type:alpha" maskUnits="userSpaceOnUse" x="0" y="0" width="32" height="32">
<rect width="32" height="32" fill="url(#paint1_radial_2932_88889)"/>
</mask>
<g mask="url(#mask0_2932_88889)">
<path d="M18.8309 -6.9801L18.9239 -6.34611L19.0257 -5.65904L19.1386 -4.90796L19.2603 -4.08617L19.3953 -3.18262L19.5436 -2.18408L19.7096 -1.07952L19.8933 0.159827L20.1014 1.55596L20.336 3.13552L20.606 4.94257L20.9159 7.02577L21.2766 9.45581L21.7039 12.3277L22.2173 15.7739L22.8437 19.9713L23.6251 25.229L24.6299 31.9845M59.1739 31.9978H-27.185H59.1739ZM110.989 31.9978H59.1739L53.8619 25.2422L49.7273 19.9846L46.4183 15.7872L43.7025 12.3299L41.4427 9.45802L39.5325 7.02798L37.8946 4.94478L36.4737 3.13773L35.2297 1.55817L34.123 0.162038L33.147 -1.07731L32.2749 -2.18187L31.4892 -3.1804L30.7787 -4.08396L30.1323 -4.90575L29.5414 -5.65683L29.0013 -6.34389L28.5033 -6.97789H4.29126L3.77998 -6.34389L3.22443 -5.65683L2.61797 -4.90575L1.95396 -4.08396L1.22353 -3.1804L0.417863 -2.18187L-0.467484 -1.07731L-1.4679 0.162038L-2.59453 1.55817L-3.87162 3.13773L-5.33025 4.94478L-7.0124 7.02798L-8.97566 9.45802L-11.2931 12.3299L-14.0753 15.7762L-17.4728 19.9735L-21.718 25.2312L-27.174 31.9867H-78.9889L110.989 31.9978ZM111 31.9867L99.2293 25.2312H68.9814L63.1713 19.9735L58.5232 15.7762L54.7162 12.3299L51.5422 9.45802L48.8575 7.02798L46.5533 4.94478L44.5613 3.13773L42.8149 1.55817L41.2656 0.162038L39.8933 -1.07731L38.6671 -2.18187L37.5604 -3.1804H-4.83224L-5.95662 -2.18187L-7.20718 -1.07731L-8.6038 0.162038L-10.1753 1.55817L-11.946 3.13773L-13.9801 4.94478L-16.3285 7.02798L-19.0664 9.45802L-22.3001 12.3299L-26.178 15.7762L-30.919 19.9735L-36.8398 25.2312H-67.0854L-79 31.9867H111ZM82.722 15.7651H-50.39H82.722ZM93.7246 31.9978L84.1054 25.2422L76.6197 19.9846H-44.363L-51.9593 25.2422L-61.7202 31.9978H93.7246ZM-44.3077 12.3365H76.726H-44.3077ZM99.2249 25.2489L90.0615 19.9911H76.6197L70.6281 15.7938L65.7233 12.3476L61.6352 9.47571L58.1735 7.04567H-25.649L-29.1616 9.47571L-33.3116 12.3476L-38.2895 15.7938L-44.3696 19.9911H-57.8114L-67.0854 25.2489H99.2249ZM71.7149 9.46687H-39.2501H71.7149ZM76.4449 32L68.9814 25.2445H-36.8486L-44.456 32H76.4449ZM-31.2886 4.947H63.8442H-31.2886ZM90.0504 19.9868L82.7176 15.7894L76.7149 12.3432L71.7105 9.47129L67.4763 7.04125H58.1625L55.1965 4.95805L52.6246 3.15094L50.3736 1.57144L48.3815 0.175252L46.6109 -1.06404L45.0305 -2.16861L43.6074 -3.16714H37.5516L36.5511 -4.07069L35.6437 -4.89248L34.8136 -5.64356L34.0544 -6.33063H-1.26872L-2.0434 -5.64356L-2.8889 -4.89248L-3.8141 -4.07069L-4.83224 -3.16714H-10.8902L-12.3333 -2.16861L-13.9358 -1.06404L-15.7286 0.175252L-17.745 1.57144L-20.0292 3.15094L-22.6388 4.95805L-25.649 7.04125H-34.9628L-39.2501 9.47129L-44.3143 12.3432L-50.39 15.7894L-57.8114 19.9868H90.0504ZM-28.1014 3.13994H60.7012H-28.1014ZM57.9478 1.56038H-25.3147H57.9478ZM9.13633 -6.98231L8.82866 -6.34832L8.49225 -5.66125L8.12483 -4.91017L7.7242 -4.08838L7.28152 -3.18483L6.79238 -2.1863L6.25011 -1.08173L5.64365 0.157615L4.96192 1.55375L4.18945 3.13331L3.3041 4.94036L2.28375 7.02356L1.09738 9.4536L-0.305885 12.3255L-1.99026 15.7717L-4.04648 19.9691L-6.6162 25.2268L-9.91634 31.9823L9.13633 -6.98231ZM-22.8579 0.146559H55.5109H-22.8579ZM13.9792 -7L13.8707 -6.36595L13.7556 -5.67894L13.6273 -4.92781L13.4878 -4.10602L13.3329 -3.20252L13.1647 -2.20399L12.9765 -1.09942L12.7552 0.139925L12.5184 1.53611L12.2506 3.11562L11.9429 4.92267L11.5888 7.00592L11.1771 9.43596L10.6879 12.3078L10.1036 15.754L9.38644 19.9514L8.50109 25.2091L7.35236 31.9647L13.9792 -7ZM53.355 -1.07952H-20.6667H53.355ZM51.4206 -2.18408H-18.7145H51.4206ZM45.3581 -5.65904L44.1585 -6.34611L43.0518 -6.9801H33.3594L45.3581 -5.65904ZM49.6697 -3.18262L48.0939 -4.08617L46.6618 -4.90796L45.3537 -5.65904H40.0858L39.1076 -6.34611H34.0589L33.3594 -6.9801H28.5122L49.6697 -3.18262ZM67.4675 7.0324L63.8353 4.94921L60.6879 3.14215L57.9345 1.56259L55.4998 0.166406L53.3395 -1.07289L51.405 -2.17745L49.6653 -3.17598H43.6074L42.3214 -4.07954L41.1505 -4.90133L40.0814 -5.65241H-7.3112L-8.39576 -4.90133L-9.58212 -4.07954L-10.8902 -3.17598H-16.9438L-18.7145 -2.17745L-20.6733 -1.07289L-22.8601 0.166406L-25.3214 1.56259L-28.108 3.14215L-31.2953 4.94921L-34.9694 7.0324H67.4675ZM48.0983 -4.08617H-15.359L-16.9526 -3.18262L48.0983 -4.08617ZM46.6662 -4.90796H-13.9026L-15.3524 -4.08617L46.6662 -4.90796ZM4.29126 -6.9801H-5.40328L-6.3174 -6.34611L-7.3112 -5.65904H-12.579L-13.9071 -4.90796L4.29126 -6.9801ZM-0.560428 -6.9801L-1.27313 -6.34611H-11.3661L-12.579 -5.65904L-0.560428 -6.9801ZM-5.40328 -6.98452H-10.2483L-11.355 -6.35053L-5.40328 -6.98452ZM38.2244 -6.98452L39.1275 -6.35053H44.1739L38.2244 -6.98452ZM41.9119 31.9978L38.7534 25.2422L36.2944 19.9846L34.3267 15.7872L32.7154 12.3409L31.3741 9.46908L30.2364 7.03904L29.2625 4.95584L28.4192 3.14873L27.68 1.56923L27.016 0.17304L26.4382 -1.07952L25.9203 -2.18408L25.4533 -3.18262L25.0305 -4.08617L24.6454 -4.90796L24.2935 -5.65904L23.9726 -6.34611L23.676 -6.9801L41.9119 31.9978Z" stroke="url(#paint2_linear_2932_88889)" stroke-opacity="0.8" stroke-width="0.4" stroke-linecap="round" stroke-linejoin="round"/>
</g>
<path d="M19.125 14.75L23.0583 10.8167C23.1457 10.7294 23.2571 10.6699 23.3782 10.6459C23.4994 10.6218 23.625 10.6342 23.7391 10.6814C23.8532 10.7287 23.9508 10.8087 24.0195 10.9114C24.0882 11.0141 24.1249 11.1348 24.125 11.2583V20.7417C24.1249 20.8652 24.0882 20.9859 24.0195 21.0886C23.9508 21.1913 23.8532 21.2713 23.7391 21.3186C23.625 21.3658 23.4994 21.3782 23.3782 21.3541C23.2571 21.3301 23.1457 21.2706 23.0583 21.1833L19.125 17.25M9.75 21.625H17.25C17.7473 21.625 18.2242 21.4275 18.5758 21.0758C18.9275 20.7242 19.125 20.2473 19.125 19.75V12.25C19.125 11.7527 18.9275 11.2758 18.5758 10.9242C18.2242 10.5725 17.7473 10.375 17.25 10.375H9.75C9.25272 10.375 8.77581 10.5725 8.42417 10.9242C8.07254 11.2758 7.875 11.7527 7.875 12.25V19.75C7.875 20.2473 8.07254 20.7242 8.42417 21.0758C8.77581 21.4275 9.25272 21.625 9.75 21.625Z" fill="white" fill-opacity="0.16"/>
<path d="M19.125 14.75L23.0583 10.8167C23.1457 10.7294 23.2571 10.6699 23.3782 10.6459C23.4994 10.6218 23.625 10.6342 23.7391 10.6814C23.8532 10.7287 23.9508 10.8087 24.0195 10.9114C24.0882 11.0141 24.1249 11.1348 24.125 11.2583V20.7417C24.1249 20.8652 24.0882 20.9859 24.0195 21.0886C23.9508 21.1913 23.8532 21.2713 23.7391 21.3186C23.625 21.3658 23.4994 21.3782 23.3782 21.3541C23.2571 21.3301 23.1457 21.2706 23.0583 21.1833L19.125 17.25M9.75 21.625H17.25C17.7473 21.625 18.2242 21.4275 18.5758 21.0758C18.9275 20.7242 19.125 20.2473 19.125 19.75V12.25C19.125 11.7527 18.9275 11.2758 18.5758 10.9242C18.2242 10.5725 17.7473 10.375 17.25 10.375H9.75C9.25272 10.375 8.77581 10.5725 8.42417 10.9242C8.07254 11.2758 7.875 11.7527 7.875 12.25V19.75C7.875 20.2473 8.07254 20.7242 8.42417 21.0758C8.77581 21.4275 9.25272 21.625 9.75 21.625Z" stroke="white" stroke-linecap="round"/>
</g>
<rect x="0.5" y="0.5" width="31" height="31" rx="7.5" stroke="white" stroke-opacity="0.24"/>
<defs>
<linearGradient id="paint0_linear_2932_88889" x1="32" y1="-1.81805e-06" x2="40.5728" y2="24.9553" gradientUnits="userSpaceOnUse">
<stop stop-color="#F41C52"/>
<stop offset="1" stop-color="#FF537E"/>
</linearGradient>
<radialGradient id="paint1_radial_2932_88889" cx="0" cy="0" r="1" gradientUnits="userSpaceOnUse" gradientTransform="translate(16 17) rotate(90) scale(20 16)">
<stop stop-color="#D9D9D9"/>
<stop offset="1" stop-color="#D9D9D9" stop-opacity="0"/>
</radialGradient>
<linearGradient id="paint2_linear_2932_88889" x1="16" y1="-7" x2="16" y2="32" gradientUnits="userSpaceOnUse">
<stop stop-color="#FAFAFA" stop-opacity="0.32"/>
<stop offset="1" stop-color="#FAFAFA"/>
</linearGradient>
<clipPath id="clip0_2932_88889">
<rect width="32" height="32" rx="8" fill="white"/>
</clipPath>
</defs>
</svg>
