<svg width="33" height="32" viewBox="0 0 33 32" fill="none" xmlns="http://www.w3.org/2000/svg">
<g clip-path="url(#clip0_2932_88901)">
<rect x="0.5" width="32" height="32" rx="8" fill="url(#paint0_linear_2932_88901)"/>
<mask id="mask0_2932_88901" style="mask-type:alpha" maskUnits="userSpaceOnUse" x="0" y="0" width="33" height="32">
<rect x="0.5" width="32" height="32" fill="url(#paint1_radial_2932_88901)"/>
</mask>
<g mask="url(#mask0_2932_88901)">
<path d="M19.3309 -6.9801L19.4239 -6.34611L19.5257 -5.65904L19.6386 -4.90796L19.7603 -4.08617L19.8953 -3.18262L20.0436 -2.18408L20.2096 -1.07952L20.3933 0.159827L20.6014 1.55596L20.836 3.13552L21.106 4.94257L21.4159 7.02577L21.7766 9.45581L22.2039 12.3277L22.7173 15.7739L23.3437 19.9713L24.1251 25.229L25.1299 31.9845M59.6739 31.9978H-26.685H59.6739ZM111.489 31.9978H59.6739L54.3619 25.2422L50.2273 19.9846L46.9183 15.7872L44.2025 12.3299L41.9427 9.45802L40.0325 7.02798L38.3946 4.94478L36.9737 3.13773L35.7297 1.55817L34.623 0.162038L33.647 -1.07731L32.7749 -2.18187L31.9892 -3.1804L31.2787 -4.08396L30.6323 -4.90575L30.0414 -5.65683L29.5013 -6.34389L29.0033 -6.97789H4.79126L4.27998 -6.34389L3.72443 -5.65683L3.11797 -4.90575L2.45396 -4.08396L1.72353 -3.1804L0.917863 -2.18187L0.032516 -1.07731L-0.967904 0.162038L-2.09453 1.55817L-3.37162 3.13773L-4.83025 4.94478L-6.5124 7.02798L-8.47566 9.45802L-10.7931 12.3299L-13.5753 15.7762L-16.9728 19.9735L-21.218 25.2312L-26.674 31.9867H-78.4889L111.489 31.9978ZM111.5 31.9867L99.7293 25.2312H69.4814L63.6713 19.9735L59.0232 15.7762L55.2162 12.3299L52.0422 9.45802L49.3575 7.02798L47.0533 4.94478L45.0613 3.13773L43.3149 1.55817L41.7656 0.162038L40.3933 -1.07731L39.1671 -2.18187L38.0604 -3.1804H-4.33224L-5.45662 -2.18187L-6.70718 -1.07731L-8.1038 0.162038L-9.67532 1.55817L-11.446 3.13773L-13.4801 4.94478L-15.8285 7.02798L-18.5664 9.45802L-21.8001 12.3299L-25.678 15.7762L-30.419 19.9735L-36.3398 25.2312H-66.5854L-78.5 31.9867H111.5ZM83.222 15.7651H-49.89H83.222ZM94.2246 31.9978L84.6054 25.2422L77.1197 19.9846H-43.863L-51.4593 25.2422L-61.2202 31.9978H94.2246ZM-43.8077 12.3365H77.226H-43.8077ZM99.7249 25.2489L90.5615 19.9911H77.1197L71.1281 15.7938L66.2233 12.3476L62.1352 9.47571L58.6735 7.04567H-25.149L-28.6616 9.47571L-32.8116 12.3476L-37.7895 15.7938L-43.8696 19.9911H-57.3114L-66.5854 25.2489H99.7249ZM72.2149 9.46687H-38.7501H72.2149ZM76.9449 32L69.4814 25.2445H-36.3486L-43.956 32H76.9449ZM-30.7886 4.947H64.3442H-30.7886ZM90.5504 19.9868L83.2176 15.7894L77.2149 12.3432L72.2105 9.47129L67.9763 7.04125H58.6625L55.6965 4.95805L53.1246 3.15094L50.8736 1.57144L48.8815 0.175252L47.1109 -1.06404L45.5305 -2.16861L44.1074 -3.16714H38.0516L37.0511 -4.07069L36.1437 -4.89248L35.3136 -5.64356L34.5544 -6.33063H-0.768722L-1.5434 -5.64356L-2.3889 -4.89248L-3.3141 -4.07069L-4.33224 -3.16714H-10.3902L-11.8333 -2.16861L-13.4358 -1.06404L-15.2286 0.175252L-17.245 1.57144L-19.5292 3.15094L-22.1388 4.95805L-25.149 7.04125H-34.4628L-38.7501 9.47129L-43.8143 12.3432L-49.89 15.7894L-57.3114 19.9868H90.5504ZM-27.6014 3.13994H61.2012H-27.6014ZM58.4478 1.56038H-24.8147H58.4478ZM9.63633 -6.98231L9.32866 -6.34832L8.99225 -5.66125L8.62483 -4.91017L8.2242 -4.08838L7.78152 -3.18483L7.29238 -2.1863L6.75011 -1.08173L6.14365 0.157615L5.46192 1.55375L4.68945 3.13331L3.8041 4.94036L2.78375 7.02356L1.59738 9.4536L0.194115 12.3255L-1.49026 15.7717L-3.54648 19.9691L-6.1162 25.2268L-9.41634 31.9823L9.63633 -6.98231ZM-22.3579 0.146559H56.0109H-22.3579ZM14.4792 -7L14.3707 -6.36595L14.2556 -5.67894L14.1273 -4.92781L13.9878 -4.10602L13.8329 -3.20252L13.6647 -2.20399L13.4765 -1.09942L13.2552 0.139925L13.0184 1.53611L12.7506 3.11562L12.4429 4.92267L12.0888 7.00592L11.6771 9.43596L11.1879 12.3078L10.6036 15.754L9.88644 19.9514L9.00109 25.2091L7.85236 31.9647L14.4792 -7ZM53.855 -1.07952H-20.1667H53.855ZM51.9206 -2.18408H-18.2145H51.9206ZM45.8581 -5.65904L44.6585 -6.34611L43.5518 -6.9801H33.8594L45.8581 -5.65904ZM50.1697 -3.18262L48.5939 -4.08617L47.1618 -4.90796L45.8537 -5.65904H40.5858L39.6076 -6.34611H34.5589L33.8594 -6.9801H29.0122L50.1697 -3.18262ZM67.9675 7.0324L64.3353 4.94921L61.1879 3.14215L58.4345 1.56259L55.9998 0.166406L53.8395 -1.07289L51.905 -2.17745L50.1653 -3.17598H44.1074L42.8214 -4.07954L41.6505 -4.90133L40.5814 -5.65241H-6.8112L-7.89576 -4.90133L-9.08212 -4.07954L-10.3902 -3.17598H-16.4438L-18.2145 -2.17745L-20.1733 -1.07289L-22.3601 0.166406L-24.8214 1.56259L-27.608 3.14215L-30.7953 4.94921L-34.4694 7.0324H67.9675ZM48.5983 -4.08617H-14.859L-16.4526 -3.18262L48.5983 -4.08617ZM47.1662 -4.90796H-13.4026L-14.8524 -4.08617L47.1662 -4.90796ZM4.79126 -6.9801H-4.90328L-5.8174 -6.34611L-6.8112 -5.65904H-12.079L-13.4071 -4.90796L4.79126 -6.9801ZM-0.0604282 -6.9801L-0.773126 -6.34611H-10.8661L-12.079 -5.65904L-0.0604282 -6.9801ZM-4.90328 -6.98452H-9.74835L-10.855 -6.35053L-4.90328 -6.98452ZM38.7244 -6.98452L39.6275 -6.35053H44.6739L38.7244 -6.98452ZM42.4119 31.9978L39.2534 25.2422L36.7944 19.9846L34.8267 15.7872L33.2154 12.3409L31.8741 9.46908L30.7364 7.03904L29.7625 4.95584L28.9192 3.14873L28.18 1.56923L27.516 0.17304L26.9382 -1.07952L26.4203 -2.18408L25.9533 -3.18262L25.5305 -4.08617L25.1454 -4.90796L24.7935 -5.65904L24.4726 -6.34611L24.176 -6.9801L42.4119 31.9978Z" stroke="url(#paint2_linear_2932_88901)" stroke-opacity="0.8" stroke-width="0.4" stroke-linecap="round" stroke-linejoin="round"/>
</g>
<path d="M16.6639 10.5207L13.7133 8.81568L10.7626 7.11066C10.6346 7.03678 10.4895 6.9979 10.3418 6.99792C10.194 6.99795 10.0489 7.03689 9.92096 7.11082C9.79302 7.18475 9.68677 7.29107 9.61288 7.41911C9.53899 7.54714 9.50006 7.69239 9.5 7.84025V14.6603C9.50005 14.8081 9.53898 14.9534 9.61286 15.0814C9.68675 15.2095 9.793 15.3158 9.92095 15.3897C10.0489 15.4636 10.194 15.5026 10.3418 15.5026C10.4895 15.5026 10.6346 15.4638 10.7626 15.3899L13.7133 13.6849L16.6639 11.9799C16.7919 11.9059 16.8981 11.7996 16.972 11.6715C17.0459 11.5435 17.0848 11.3982 17.0848 11.2503C17.0848 11.1024 17.0459 10.9571 16.972 10.8291C16.8981 10.701 16.7919 10.5946 16.6639 10.5207Z" fill="white"/>
<path d="M16.6639 20.018L13.7133 18.313L10.7626 16.608C10.6346 16.5341 10.4895 16.4952 10.3418 16.4952C10.194 16.4953 10.0489 16.5342 9.92095 16.6081C9.793 16.6821 9.68675 16.7884 9.61286 16.9164C9.53897 17.0445 9.50005 17.1897 9.5 17.3376V24.1576C9.50005 24.3054 9.53897 24.4507 9.61286 24.5787C9.68675 24.7068 9.793 24.8131 9.92095 24.887C10.0489 24.961 10.194 24.9999 10.3418 24.9999C10.4895 25 10.6346 24.9611 10.7626 24.8872L13.7133 23.1822L16.6639 21.4772C16.7919 21.4033 16.8981 21.2969 16.972 21.1688C17.0459 21.0408 17.0848 20.8955 17.0848 20.7476C17.0848 20.5997 17.0459 20.4544 16.972 20.3263C16.8981 20.1983 16.7919 20.0919 16.6639 20.018Z" fill="white"/>
<path d="M25.0789 15.2704L22.1283 13.5654L19.1777 11.8604C19.0497 11.7865 18.9045 11.7477 18.7568 11.7477C18.6091 11.7477 18.4639 11.7866 18.336 11.8606C18.2081 11.9345 18.1018 12.0408 18.0279 12.1689C17.954 12.2969 17.9151 12.4421 17.915 12.59V19.41C17.9151 19.5579 17.954 19.7031 18.0279 19.8312C18.1018 19.9592 18.2081 20.0655 18.336 20.1394C18.4639 20.2134 18.6091 20.2523 18.7568 20.2523C18.9045 20.2524 19.0497 20.2135 19.1777 20.1396L22.1283 18.4346L25.0789 16.7296C25.2069 16.6557 25.3132 16.5493 25.387 16.4212C25.4609 16.2932 25.4998 16.1479 25.4998 16C25.4998 15.8521 25.4609 15.7068 25.387 15.5788C25.3132 15.4507 25.2069 15.3444 25.0789 15.2704Z" fill="white"/>
</g>
<rect x="1" y="0.5" width="31" height="31" rx="7.5" stroke="white" stroke-opacity="0.24"/>
<defs>
<linearGradient id="paint0_linear_2932_88901" x1="32.5" y1="-1.81805e-06" x2="41.0728" y2="24.9553" gradientUnits="userSpaceOnUse">
<stop stop-color="#F41C52"/>
<stop offset="1" stop-color="#FF537E"/>
</linearGradient>
<radialGradient id="paint1_radial_2932_88901" cx="0" cy="0" r="1" gradientUnits="userSpaceOnUse" gradientTransform="translate(16.5 17) rotate(90) scale(20 16)">
<stop stop-color="#D9D9D9"/>
<stop offset="1" stop-color="#D9D9D9" stop-opacity="0"/>
</radialGradient>
<linearGradient id="paint2_linear_2932_88901" x1="16.5" y1="-7" x2="16.5" y2="32" gradientUnits="userSpaceOnUse">
<stop stop-color="#FAFAFA" stop-opacity="0.32"/>
<stop offset="1" stop-color="#FAFAFA"/>
</linearGradient>
<clipPath id="clip0_2932_88901">
<rect x="0.5" width="32" height="32" rx="8" fill="white"/>
</clipPath>
</defs>
</svg>
