<svg width="147" height="147" viewBox="0 0 147 147" fill="none" xmlns="http://www.w3.org/2000/svg">
<path d="M73.7 144.4C112.747 144.4 144.4 112.747 144.4 73.7C144.4 34.6535 112.747 3 73.7 3C34.6535 3 3 34.6535 3 73.7C3 112.747 34.6535 144.4 73.7 144.4Z" fill="#F7F8FA"/>
<path d="M73.7 3C87.6831 3 101.352 7.14648 112.979 14.9151C124.605 22.6837 133.667 33.7255 139.018 46.6443C144.369 59.563 145.769 73.7784 143.041 87.4929C140.314 101.207 133.58 113.805 123.692 123.692C113.805 133.58 101.207 140.314 87.4929 143.042C73.7784 145.769 59.563 144.369 46.6443 139.018C33.7255 133.667 22.6837 124.605 14.9151 112.979C7.14648 101.352 3 87.6831 3 73.7C3 54.9492 10.4487 36.9664 23.7075 23.7076C36.9664 10.4487 54.9492 3 73.7 3V3ZM73.7 1C59.3213 1 45.2655 5.26378 33.31 13.2522C21.3546 21.2405 12.0364 32.5947 6.53396 45.8789C1.03147 59.1631 -0.408233 73.7806 2.39691 87.8831C5.20206 101.985 12.1261 114.939 22.2933 125.107C32.4606 135.274 45.4145 142.198 59.5169 145.003C73.6193 147.808 88.2369 146.369 101.521 140.866C114.805 135.364 126.159 126.045 134.148 114.09C142.136 102.135 146.4 88.0787 146.4 73.7C146.379 54.4253 138.713 35.946 125.083 22.3167C111.454 8.68742 92.9747 1.02118 73.7 1V1Z" fill="#1C171E"/>
<path d="M25.81 118.39L28.24 116.52C28.86 116.05 29.48 115.59 30.11 115.16C29.54 115.42 28.82 115.72 27.93 116.08L24.93 117.26L23.84 115.83L25.75 113.24C26.32 112.47 26.8 111.85 27.2 111.37C26.62 111.86 26.02 112.37 25.4 112.82L22.97 114.69L22.1 113.55L27.1 109.73L28.58 111.66L26.8 114C26.31 114.65 25.8 115.27 25.31 115.84C25.96 115.51 26.68 115.19 27.46 114.84L30.16 113.78L31.64 115.71L26.64 119.53L25.81 118.39Z" fill="#1C171E"/>
<path d="M35.55 119.92C35.7045 120.425 35.7045 120.965 35.55 121.47C35.3436 122.044 35.0003 122.559 34.55 122.97C34.1419 123.415 33.6349 123.757 33.07 123.97C32.5718 124.147 32.0321 124.171 31.52 124.04C30.9772 123.892 30.4837 123.602 30.09 123.2C29.6786 122.817 29.3781 122.33 29.22 121.79C29.0655 121.285 29.0655 120.745 29.22 120.24C29.4316 119.669 29.7741 119.155 30.22 118.74C30.6281 118.295 31.1351 117.953 31.7 117.74C32.1982 117.563 32.7378 117.539 33.25 117.67C33.7952 117.818 34.2897 118.112 34.68 118.52C35.0891 118.901 35.3894 119.384 35.55 119.92V119.92ZM32.63 119.08C32.1479 119.223 31.7106 119.487 31.3604 119.848C31.0101 120.209 30.7586 120.654 30.63 121.14C30.5983 121.344 30.6183 121.552 30.6882 121.746C30.7581 121.94 30.8756 122.113 31.03 122.25C31.1686 122.401 31.3432 122.513 31.5373 122.578C31.7314 122.643 31.9388 122.657 32.14 122.62C32.6209 122.478 33.0574 122.215 33.4075 121.856C33.7577 121.497 34.0099 121.054 34.14 120.57C34.1729 120.367 34.1544 120.159 34.0863 119.965C34.0182 119.771 33.9026 119.598 33.75 119.46C33.6092 119.309 33.4332 119.195 33.2378 119.129C33.0423 119.063 32.8335 119.046 32.63 119.08V119.08Z" fill="#1C171E"/>
<path d="M36.63 128.6L37.26 125.97C37.48 125.04 37.72 124.17 37.97 123.36C37.44 124.13 36.97 124.85 36.43 125.5L35 127.36L33.84 126.47L37.63 121.47L39.38 122.8L38.76 125.44C38.52 126.44 38.29 127.26 38.05 128.05C38.49 127.4 39.05 126.69 39.6 125.91L41 124.06L42.16 124.95L38.36 129.95L36.63 128.6Z" fill="#1C171E"/>
<path d="M40.21 131.08L43.53 125.77L44.82 126.57L41.5 131.89L40.21 131.08Z" fill="#1C171E"/>
<path d="M48.05 129.84L45.75 134.25L44.4 133.55L46.7 129.13L45 128.25L45.6 127.1L50.35 129.57L49.75 130.72L48.05 129.84Z" fill="#1C171E"/>
<path d="M54.9 131.66C55.2235 132.075 55.4182 132.576 55.46 133.1C55.5034 133.7 55.4076 134.303 55.18 134.86C54.9638 135.426 54.6219 135.935 54.18 136.35C53.7941 136.707 53.3099 136.941 52.79 137.02C52.2334 137.083 51.6699 137.011 51.1475 136.809C50.6251 136.607 50.1593 136.281 49.79 135.86C49.4608 135.447 49.2624 134.946 49.22 134.42C49.1877 133.82 49.2833 133.22 49.5006 132.66C49.7178 132.099 50.0516 131.591 50.48 131.17C50.865 130.81 51.3491 130.573 51.87 130.49C52.4271 130.432 52.9899 130.508 53.5116 130.712C54.0334 130.915 54.4991 131.24 54.87 131.66H54.9ZM51.9 132.03C51.4869 132.329 51.1817 132.753 51.03 133.24C50.8192 133.7 50.7597 134.214 50.86 134.71C50.9185 134.909 51.022 135.091 51.1625 135.244C51.3029 135.396 51.4766 135.514 51.67 135.589C51.8634 135.663 52.0713 135.692 52.2776 135.673C52.484 135.654 52.6833 135.588 52.86 135.48C53.2729 135.185 53.5783 134.764 53.73 134.28C53.9402 133.817 53.9997 133.299 53.9 132.8C53.8398 132.602 53.7353 132.421 53.5946 132.27C53.4538 132.119 53.2805 132.002 53.0877 131.927C52.895 131.853 52.6878 131.824 52.482 131.842C52.2762 131.859 52.0772 131.924 51.9 132.03V132.03Z" fill="#1C171E"/>
<path d="M61.67 135.2C61.5943 135.54 61.404 135.844 61.1309 136.061C60.8578 136.278 60.5186 136.394 60.17 136.39V136.39C60.3591 136.511 60.5085 136.685 60.6 136.89C60.7078 137.213 60.7717 137.55 60.79 137.89L60.96 139.66L59.37 139.25L59.27 137.76C59.2641 137.493 59.1919 137.232 59.06 137C58.9082 136.815 58.6954 136.691 58.46 136.65L57.91 136.51L57.34 138.72L55.86 138.34L57.43 132.27L59.9 132.91C61.37 133.27 62 134 61.67 135.2ZM58.19 135.37L59 135.58C59.63 135.74 60 135.58 60.16 135.01C60.32 134.44 60.03 134.14 59.35 134.01L58.6 133.82L58.19 135.37Z" fill="#1C171E"/>
<path d="M64.81 135.21L64.64 136.38L67.32 136.77L67.14 138L64.45 137.61L64.27 138.86L67.22 139.29L67 140.58L62.55 139.92L63.46 133.72L67.84 134.36L67.65 135.63L64.81 135.21Z" fill="#1C171E"/>
<path d="M73.9 135.47C74.1883 135.785 74.4076 136.157 74.5436 136.561C74.6797 136.966 74.7296 137.395 74.69 137.82C74.6977 138.251 74.6123 138.679 74.4398 139.074C74.2672 139.469 74.0115 139.823 73.69 140.11C72.9845 140.672 72.0868 140.934 71.19 140.84L69 140.77L69.21 134.5L71.43 134.58C72.3381 134.542 73.225 134.861 73.9 135.47V135.47ZM70.58 139.52H71.25C71.4918 139.547 71.7365 139.523 71.9688 139.451C72.201 139.378 72.4159 139.259 72.6 139.1C72.9065 138.712 73.0813 138.236 73.0993 137.741C73.1173 137.247 72.9774 136.76 72.7 136.35C72.524 136.18 72.3155 136.047 72.087 135.959C71.8584 135.872 71.6146 135.831 71.37 135.84H70.7L70.58 139.52Z" fill="#1C171E"/>
<path d="M82.5 134.42C82.6996 134.531 82.8688 134.689 82.9926 134.881C83.1164 135.073 83.1911 135.292 83.21 135.52C83.2583 135.835 83.2058 136.157 83.06 136.44C82.8808 136.718 82.6233 136.938 82.32 137.07V137.07C82.6743 137.067 83.0162 137.2 83.2749 137.442C83.5337 137.684 83.6895 138.016 83.71 138.37C83.7509 138.613 83.7312 138.863 83.6527 139.096C83.5742 139.33 83.4393 139.541 83.26 139.71C82.8126 140.106 82.2462 140.342 81.65 140.38L79.07 140.69L78.32 134.47L80.75 134.17C81.3451 134.065 81.9581 134.153 82.5 134.42V134.42ZM80.11 136.82L80.9 136.73C81.1571 136.715 81.404 136.625 81.61 136.47C81.6799 136.4 81.7318 136.315 81.7614 136.221C81.791 136.127 81.7974 136.027 81.78 135.93C81.7739 135.834 81.7454 135.74 81.6968 135.657C81.6482 135.574 81.5808 135.503 81.5 135.45C81.2762 135.354 81.0282 135.33 80.79 135.38L79.95 135.48L80.11 136.82ZM80.41 139.35L81.24 139.25C81.5134 139.249 81.7796 139.162 82 139C82.0722 138.93 82.1255 138.843 82.1553 138.747C82.185 138.651 82.19 138.549 82.17 138.45C82.1655 138.346 82.1358 138.244 82.0836 138.153C82.0314 138.063 81.9581 137.986 81.87 137.93C81.6188 137.818 81.3383 137.79 81.07 137.85L80.27 137.94L80.41 139.35Z" fill="#1C171E"/>
<path d="M88.15 139.23L86.66 139.56L86.14 137.25L83.2 133.91L84.85 133.54L85.63 134.54C85.9878 134.985 86.3216 135.449 86.63 135.93V135.93C86.6963 135.365 86.7965 134.804 86.93 134.25L87.22 133.02L88.87 132.65L87.62 136.93L88.15 139.23Z" fill="#1C171E"/>
<path d="M95.44 137L91.44 131.85L92.92 131.27L94.44 133.27C94.95 133.94 95.44 134.63 95.89 135.35C95.76 134.62 95.65 133.78 95.56 132.84L95.32 130.33L96.79 129.76L97.31 136.28L95.44 137Z" fill="#1C171E"/>
<path d="M100.72 133.3L100.97 134.67L99.55 135.41L98.55 128.86L100.32 127.94L105.1 132.52L103.68 133.26L102.68 132.26L100.72 133.3ZM101.52 131C100.92 130.38 100.38 129.8 99.91 129.27C100.09 130 100.25 130.76 100.41 131.58L100.49 132.01L101.85 131.31L101.52 131Z" fill="#1C171E"/>
<path d="M109.24 129.81L106.94 128.38C106.13 127.87 105.38 127.38 104.69 126.87C105.25 127.62 105.77 128.34 106.23 129.02L107.54 130.96L106.33 131.78L102.81 126.59L104.63 125.36L106.93 126.79C107.75 127.31 108.5 127.81 109.18 128.29C108.71 127.67 108.18 126.96 107.64 126.14L106.33 124.21L107.54 123.39L111.06 128.57L109.24 129.81Z" fill="#1C171E"/>
<path d="M111.68 121.58L114.92 125.35L113.77 126.35L110.52 122.58L109.07 123.83L108.22 122.83L112.29 119.33L113.13 120.33L111.68 121.58Z" fill="#1C171E"/>
<path d="M117 121.62L117.68 122.84L116.52 124L113.52 118.12L114.91 116.68L120.91 119.47L119.8 120.63L118.57 119.99L117 121.62ZM117 119.19C116.23 118.79 115.53 118.42 114.92 118.07C115.32 118.7 115.73 119.38 116.13 120.07L116.35 120.46L117.41 119.36L117 119.19Z" fill="#1C171E"/>
<mask id="mask0_10_796" style="mask-type:alpha" maskUnits="userSpaceOnUse" x="19" y="19" width="110" height="110">
<ellipse cx="74" cy="74" rx="55" ry="55" fill="#C4C4C4"/>
</mask>
<g mask="url(#mask0_10_796)">
<path d="M95 149.92C94.8334 149.797 94.7092 149.624 94.6447 149.427C94.5802 149.23 94.5785 149.018 94.64 148.82C94.7892 148.341 94.7892 147.829 94.64 147.35C94.4932 146.825 94.3025 146.313 94.07 145.82C93.9784 145.672 93.9179 145.507 93.8921 145.335C93.8663 145.164 93.8758 144.988 93.92 144.82C93.9629 144.325 93.8511 143.829 93.6 143.4C93.33 142.81 92.81 141.84 92.46 141.25C92.11 140.66 91.98 140.25 92.17 140.43L93.39 141.32C93.86 141.68 94.18 141.45 94.1 140.82C94.0143 140.171 93.8074 139.543 93.49 138.97C93.1804 138.506 92.8105 138.086 92.39 137.72C92.03 137.42 91.95 137.17 92.21 137.15C92.47 137.13 92.53 136.77 92.35 136.36C92.17 135.95 92.29 135.71 92.6 135.82C92.6656 135.852 92.7386 135.865 92.8112 135.858C92.8838 135.852 92.9531 135.825 93.0118 135.782C93.0705 135.739 93.1162 135.68 93.1441 135.613C93.172 135.546 93.1809 135.472 93.17 135.4C93.1615 134.994 93.0767 134.594 92.92 134.22C92.773 133.898 92.6559 133.563 92.57 133.22C92.51 132.95 92.31 132.32 92.14 131.83C91.97 131.34 91.98 131.06 92.14 131.22C92.4173 131.49 92.6472 131.804 92.82 132.15C93 132.5 93.08 132.36 93 131.83C92.9103 131.276 92.717 130.743 92.43 130.26C92.1565 129.842 91.9507 129.383 91.82 128.9C91.7104 128.361 91.6635 127.81 91.68 127.26C91.7006 126.759 91.6772 126.257 91.61 125.76C91.4638 125.278 91.207 124.836 90.86 124.47C90.5 124.1 90.41 123.87 90.64 123.97C91.0022 124.167 91.3382 124.409 91.64 124.69C91.97 124.98 92.26 125.03 92.28 124.79C92.2755 124.39 92.2149 123.993 92.1 123.61C91.9759 123.186 91.757 122.797 91.46 122.47C91.22 122.26 90.66 121.68 90.21 121.19C89.76 120.7 89.53 120.36 89.71 120.44C90.0353 120.544 90.3704 120.614 90.71 120.65C90.7961 120.662 90.8837 120.654 90.9667 120.629C91.0497 120.603 91.1262 120.56 91.1908 120.502C91.2555 120.444 91.3068 120.373 91.3412 120.293C91.3756 120.213 91.3922 120.127 91.39 120.04C91.3437 119.547 91.1562 119.079 90.85 118.69C90.4661 118.186 90.1312 117.647 89.85 117.08C89.61 116.57 89.79 116.47 90.24 116.87C90.69 117.27 90.92 117.32 90.74 117.01C90.5705 116.758 90.506 116.449 90.56 116.15C90.6599 115.827 90.6973 115.487 90.67 115.15C90.6241 114.685 90.4511 114.243 90.17 113.87C89.91 113.55 89.88 113.34 90.1 113.4C90.32 113.46 90.25 113.14 89.96 112.69C89.67 112.24 89.71 111.98 90.06 112.12C90.41 112.26 90.61 112.12 90.49 111.94C90.3611 111.623 90.3231 111.277 90.38 110.94C90.387 110.436 90.2518 109.941 89.99 109.51C89.72 109.02 89.7 108.67 89.99 108.73C90.28 108.79 90.24 108.45 89.99 107.98C89.74 107.51 89.76 107.15 90.06 107.19C90.36 107.23 90.32 106.94 89.99 106.55C89.66 106.16 89.6 105.93 89.88 106.05C90.16 106.17 90.17 105.96 89.88 105.59C89.59 105.22 89.73 104.97 90.1 105.05C90.47 105.13 90.46 104.95 90.1 104.66C89.911 104.521 89.7529 104.345 89.6359 104.142C89.5188 103.938 89.4453 103.713 89.42 103.48C89.4508 103.087 89.4508 102.693 89.42 102.3C89.3799 101.554 89.3799 100.806 89.42 100.06C89.4488 99.7066 89.5583 99.3645 89.74 99.06C89.9413 98.874 90.1851 98.7401 90.45 98.67C90.7399 98.5902 90.994 98.4138 91.17 98.17C91.31 97.95 91.24 97.83 91.03 97.88C90.7107 97.9129 90.3905 97.8275 90.13 97.64C89.9433 97.4528 89.8208 97.2112 89.78 96.95C89.78 96.95 90.07 96.4 90.35 96.52C90.63 96.64 90.67 96.38 90.45 95.95C90.23 95.52 90.29 95.29 90.56 95.45C90.83 95.61 90.92 95.51 90.74 95.23C90.56 94.95 90.61 94.78 90.85 94.84C91.09 94.9 91.16 94.84 91.03 94.59C90.7928 94.3172 90.4994 94.0989 90.17 93.95C90.0061 93.8756 89.8604 93.7663 89.743 93.6299C89.6255 93.4935 89.5392 93.3331 89.49 93.16C89.49 92.89 89.39 92.39 89.35 92.05C89.31 91.71 89.35 91.42 89.53 91.38C89.6197 91.3254 89.6972 91.2527 89.7574 91.1667C89.8176 91.0806 89.8594 90.983 89.88 90.88C89.94 90.64 90.09 90.45 90.2 90.45C90.31 90.45 90.43 90.26 90.45 90.02C90.4564 89.9061 90.4932 89.7959 90.5565 89.701C90.6198 89.606 90.7073 89.5297 90.81 89.48C90.99 89.42 91.04 89.28 90.92 89.16C90.8921 89.1289 90.8716 89.0919 90.8599 89.0518C90.8482 89.0117 90.8456 88.9695 90.8523 88.9283C90.859 88.887 90.8748 88.8478 90.8987 88.8135C90.9225 88.7792 90.9537 88.7507 90.99 88.73C91.0673 88.6753 91.1215 88.5938 91.1418 88.5013C91.1622 88.4088 91.1473 88.3121 91.1 88.23C91 88.0826 90.9476 87.9081 90.95 87.73C91.0252 87.5219 91.137 87.3289 91.28 87.16C91.43 86.97 91.45 86.76 91.28 86.7C91.11 86.64 91.16 86.38 91.28 86.13C91.4 85.88 91.43 85.68 91.28 85.7C91.1917 85.6984 91.1068 85.6653 91.0408 85.6066C90.9748 85.5479 90.9319 85.4675 90.92 85.38C90.8957 85.139 90.9596 84.8974 91.1 84.7C91.24 84.52 91.27 84.31 91.17 84.23C91.0378 84.0038 90.9883 83.7387 91.03 83.48C91.03 83.15 90.93 82.97 90.78 83.09C90.63 83.21 90.52 83.09 90.56 82.77C90.5913 82.3673 90.5913 81.9627 90.56 81.56C90.56 81.18 90.44 80.97 90.34 81.09C90.24 81.21 90.1 81.16 90.02 80.98C89.9637 80.6562 89.9569 80.3258 90 80C90 79.66 89.89 79.55 89.79 79.75C89.69 79.95 89.5 79.89 89.36 79.64C89.1779 79.3166 88.9741 79.0059 88.75 78.71C88.4811 78.3766 88.1721 78.0777 87.83 77.82C87.51 77.58 87.25 77.55 87.25 77.75C87.25 77.95 87.03 78.01 86.75 77.89C86.444 77.7516 86.1468 77.5947 85.86 77.42C85.5737 77.2699 85.253 77.1975 84.93 77.21C84.64 77.21 84.53 77.54 84.68 77.89C84.83 78.24 84.87 78.55 84.75 78.57C84.4709 78.5599 84.1947 78.5094 83.93 78.42C83.6 78.33 83.45 78.42 83.61 78.57C83.6798 78.6621 83.7175 78.7745 83.7175 78.89C83.7175 79.0055 83.6798 79.1179 83.61 79.21C83.47 79.39 83.61 79.64 83.93 79.78C84.25 79.92 84.42 80.16 84.32 80.32C84.2114 80.5929 84.2114 80.8971 84.32 81.17C84.4487 81.5497 84.5096 81.9491 84.5 82.35C84.5 82.69 84.35 82.99 84.21 83.03C84.07 83.07 84.01 83.42 84.07 83.82C84.13 84.22 84.07 84.53 83.89 84.53C83.71 84.53 83.52 84.85 83.42 85.25C83.32 85.65 83.15 85.81 83.03 85.64C82.9633 85.5455 82.8786 85.465 82.7808 85.4032C82.683 85.3415 82.574 85.2996 82.46 85.28C82.362 85.2718 82.2679 85.2378 82.1871 85.1817C82.1063 85.1255 82.0418 85.049 82 84.96C81.9684 84.8813 81.9127 84.8147 81.8408 84.7698C81.7689 84.7248 81.6846 84.7039 81.6 84.71C81.45 84.71 81.25 84.52 81.17 84.25C81.09 83.98 80.89 83.76 80.71 83.78C80.53 83.8 80.29 83.5 80.17 83.1C80.05 82.7 79.78 82.55 79.57 82.75C79.36 82.95 79.11 82.89 79.03 82.64C78.95 82.39 78.78 82.32 78.64 82.5C78.5 82.68 78.16 82.59 77.89 82.32C77.8379 82.2544 77.7729 82.2003 77.6989 82.1609C77.625 82.1216 77.5437 82.0979 77.4602 82.0913C77.3767 82.0848 77.2928 82.0955 77.2136 82.1228C77.1344 82.1501 77.0617 82.1934 77 82.25C76.78 82.48 76.54 82.51 76.46 82.32C76.38 82.13 76.19 82.17 76.03 82.42C75.9941 82.4779 75.9441 82.5256 75.8846 82.5588C75.8251 82.5919 75.7581 82.6093 75.69 82.6093C75.6219 82.6093 75.5549 82.5919 75.4954 82.5588C75.4359 82.5256 75.3859 82.4779 75.35 82.42C75.14 82.18 74.92 82 74.87 82.02C74.8104 82.0301 74.7496 82.0301 74.69 82.02C74.69 82.02 74.43 82.18 74.21 82.42C74.1741 82.4779 74.1241 82.5256 74.0646 82.5588C74.0051 82.5919 73.9381 82.6093 73.87 82.6093C73.8019 82.6093 73.7349 82.5919 73.6754 82.5588C73.6159 82.5256 73.5659 82.4779 73.53 82.42C73.38 82.17 73.18 82.12 73.11 82.32C73.04 82.52 72.79 82.48 72.57 82.25C72.5083 82.1934 72.4356 82.1501 72.3564 82.1228C72.2772 82.0955 72.1933 82.0848 72.1098 82.0913C72.0263 82.0979 71.945 82.1216 71.8711 82.1609C71.7972 82.2003 71.7321 82.2544 71.68 82.32C71.4 82.59 71.07 82.67 70.93 82.5C70.79 82.33 70.61 82.38 70.54 82.64C70.47 82.9 70.22 82.94 70 82.75C69.78 82.56 69.51 82.75 69.39 83.1C69.27 83.45 69.03 83.8 68.86 83.78C68.69 83.76 68.47 83.97 68.39 84.25C68.31 84.53 68.12 84.73 67.96 84.71C67.8768 84.7045 67.7941 84.7258 67.7239 84.7708C67.6537 84.8158 67.5998 84.8821 67.57 84.96C67.5259 85.0473 67.4607 85.1222 67.3804 85.1781C67.3001 85.2339 67.2072 85.269 67.11 85.28C66.9956 85.2985 66.8862 85.3399 66.7883 85.4018C66.6903 85.4637 66.6059 85.5447 66.54 85.64C66.42 85.81 66.24 85.64 66.14 85.25C66.04 84.86 65.84 84.53 65.68 84.53C65.52 84.53 65.44 84.21 65.5 83.82C65.56 83.43 65.5 83.07 65.36 83.03C65.22 82.99 65.09 82.69 65.07 82.35C65.0604 81.9491 65.1213 81.5497 65.25 81.17C65.3528 80.896 65.3528 80.594 65.25 80.32C65.15 80.16 65.32 79.92 65.64 79.78C65.96 79.64 66.1 79.39 65.96 79.21C65.887 79.1193 65.8471 79.0064 65.8471 78.89C65.8471 78.7736 65.887 78.6606 65.96 78.57C66.11 78.39 65.96 78.33 65.63 78.42C65.3658 78.5109 65.0893 78.5615 64.81 78.57C64.69 78.57 64.73 78.24 64.88 77.89C65.03 77.54 64.88 77.23 64.63 77.21C64.3103 77.1988 63.9932 77.2712 63.71 77.42C63.4209 77.5967 63.1202 77.7537 62.81 77.89C62.54 78.01 62.31 77.89 62.31 77.75C62.31 77.61 62.06 77.58 61.74 77.82C61.3972 78.0803 61.0852 78.3789 60.81 78.71C60.589 79.006 60.3886 79.3167 60.21 79.64C60.07 79.89 59.88 79.94 59.78 79.75C59.68 79.56 59.58 79.66 59.56 80C59.5449 80.3138 59.4843 80.6237 59.38 80.92C59.31 81.1 59.16 81.15 59.06 81.03C58.96 80.91 58.87 81.12 58.85 81.5C58.819 81.9027 58.819 82.3073 58.85 82.71C58.85 83 58.8 83.15 58.64 83.03C58.48 82.91 58.37 83.09 58.39 83.42C58.4317 83.6787 58.3822 83.9438 58.25 84.17C58.15 84.25 58.18 84.46 58.32 84.64C58.4604 84.8374 58.5243 85.079 58.5 85.32C58.4881 85.4075 58.4452 85.4879 58.3792 85.5466C58.3132 85.6053 58.2283 85.6384 58.14 85.64C57.98 85.64 57.98 85.81 58.14 86.07C58.3 86.33 58.31 86.58 58.14 86.64C57.97 86.7 58.01 86.91 58.14 87.1C58.2808 87.2687 58.3892 87.462 58.46 87.67C58.4666 87.8472 58.4177 88.022 58.32 88.17C58.2727 88.2521 58.2578 88.3488 58.2782 88.4413C58.2985 88.5338 58.3527 88.6153 58.43 88.67C58.4649 88.6919 58.4948 88.721 58.5176 88.7553C58.5404 88.7897 58.5557 88.8285 58.5623 88.8692C58.5689 88.9099 58.5668 88.9515 58.556 88.9913C58.5453 89.0311 58.5262 89.0682 58.5 89.1C58.38 89.22 58.43 89.36 58.61 89.42C58.7096 89.4727 58.794 89.5499 58.8553 89.6444C58.9165 89.739 58.9526 89.8476 58.96 89.96C58.96 90.2 59.09 90.39 59.21 90.39C59.33 90.39 59.48 90.58 59.53 90.82C59.5506 90.9243 59.5934 91.023 59.6555 91.1092C59.7176 91.1955 59.7976 91.2674 59.89 91.32C60.03 91.32 60.11 91.66 60.07 91.99C60.03 92.32 59.97 92.83 59.93 93.1C59.879 93.2723 59.792 93.4318 59.6748 93.568C59.5576 93.7042 59.4128 93.8139 59.25 93.89C58.9189 94.0361 58.625 94.2548 58.39 94.53C58.25 94.73 58.33 94.84 58.57 94.78C58.81 94.72 58.85 94.9 58.68 95.17C58.51 95.44 58.58 95.54 58.86 95.39C59.14 95.24 59.18 95.46 58.96 95.89C58.74 96.32 58.79 96.58 59.07 96.46C59.35 96.34 59.6 96.53 59.64 96.89C59.68 97.25 59.56 97.38 59.28 97.58C59.0239 97.7686 58.7063 97.8543 58.39 97.82C58.18 97.82 58.11 97.89 58.25 98.11C58.4241 98.3514 58.6741 98.5275 58.96 98.61C59.2288 98.6778 59.4763 98.8119 59.68 99C59.8577 99.3063 59.9669 99.6475 60 100C60.0401 100.746 60.0401 101.494 60 102.24C59.969 102.633 59.969 103.027 60 103.42C59.9772 103.654 59.9047 103.88 59.7874 104.083C59.6702 104.287 59.5108 104.463 59.32 104.6C58.93 104.89 58.92 105.07 59.32 104.99C59.72 104.91 59.79 105.15 59.53 105.53C59.27 105.91 59.29 106.11 59.53 105.99C59.77 105.87 59.76 106.1 59.42 106.49C59.08 106.88 59.06 107.17 59.35 107.13C59.64 107.09 59.68 107.45 59.42 107.92C59.16 108.39 59.17 108.73 59.42 108.67C59.67 108.61 59.66 108.96 59.42 109.45C59.1561 109.88 59.0176 110.375 59.02 110.88C59.0801 111.216 59.0455 111.562 58.92 111.88C58.8 112.11 58.99 112.19 59.34 112.06C59.69 111.93 59.75 112.18 59.45 112.63C59.15 113.08 59.09 113.4 59.31 113.34C59.53 113.28 59.49 113.49 59.24 113.81C58.9589 114.183 58.7859 114.625 58.74 115.09C58.7157 115.427 58.7495 115.765 58.84 116.09C58.8938 116.388 58.8331 116.695 58.67 116.95C58.49 117.26 58.67 117.2 59.17 116.81C59.67 116.42 59.79 116.51 59.56 117.02C59.2784 117.587 58.9436 118.126 58.56 118.63C58.2608 119.022 58.0772 119.489 58.03 119.98C58.0278 120.067 58.0444 120.153 58.0788 120.233C58.1132 120.313 58.1645 120.384 58.2292 120.442C58.2938 120.5 58.3703 120.543 58.4533 120.569C58.5363 120.594 58.6239 120.602 58.71 120.59C59.0496 120.554 59.3847 120.484 59.71 120.38C59.88 120.3 59.66 120.64 59.21 121.13C58.76 121.62 58.21 122.2 57.96 122.41C57.6596 122.736 57.4374 123.126 57.31 123.55C57.2024 123.934 57.1452 124.331 57.14 124.73C57.14 124.97 57.44 124.92 57.78 124.63C58.0816 124.349 58.4176 124.107 58.78 123.91C59.02 123.81 58.92 124.04 58.57 124.41C58.223 124.776 57.9662 125.217 57.82 125.7C57.7528 126.197 57.7294 126.699 57.75 127.2C57.7615 127.75 57.7146 128.3 57.61 128.84C57.4749 129.321 57.2694 129.779 57 130.2C56.7087 130.681 56.5151 131.214 56.43 131.77C56.35 132.3 56.43 132.44 56.61 132.09C56.7796 131.745 57.0061 131.43 57.28 131.16C57.48 131 57.5 131.28 57.28 131.77C57.1127 132.226 56.9691 132.69 56.85 133.16C56.7606 133.504 56.6401 133.838 56.49 134.16C56.338 134.536 56.2534 134.935 56.24 135.34C56.2314 135.412 56.2423 135.486 56.2716 135.553C56.301 135.62 56.3476 135.677 56.4067 135.72C56.4658 135.763 56.5353 135.789 56.6079 135.796C56.6806 135.803 56.7538 135.791 56.82 135.76C57.13 135.65 57.24 135.89 57.07 136.3C56.9 136.71 56.95 137.07 57.21 137.09C57.47 137.11 57.38 137.36 57.03 137.66C56.7013 138.072 56.4227 138.522 56.2 139C55.8861 139.574 55.6826 140.201 55.6 140.85C55.52 141.48 55.84 141.71 56.31 141.35L57.52 140.46C57.72 140.32 57.59 140.69 57.24 141.28C56.89 141.87 56.37 142.84 56.1 143.43C55.8519 143.86 55.7371 144.354 55.77 144.85C55.8163 145.017 55.8277 145.193 55.8037 145.365C55.7796 145.537 55.7205 145.702 55.63 145.85C55.3932 146.341 55.2023 146.853 55.06 147.38C54.9056 147.858 54.9056 148.372 55.06 148.85C55.1215 149.048 55.1198 149.26 55.0553 149.457C54.9908 149.654 54.8667 149.827 54.7 149.95C54.35 150.27 56.21 150.53 58.83 150.53H90.81C93.44 150.5 95.3 150.24 95 149.92Z" fill="#C6C2DF"/>
<path d="M80.78 95.05C80.78 95.05 79.84 91.28 83.2 89.57C79.35 90.43 78.85 96.08 78.85 96.08C77.999 92.8141 78.1701 89.3657 79.34 86.2C75.96 89.1 76.34 95.3 76.34 95.3L74.85 84.09L73.33 95.3C73.33 95.3 73.73 89.1 70.33 86.2C71.4999 89.3657 71.671 92.8141 70.82 96.08C70.82 96.08 70.32 90.43 66.47 89.57C69.83 91.28 68.89 95.05 68.89 95.05C67.0151 93.4095 64.5788 92.5568 62.09 92.67C66.83 93.8 66.65 95.06 68.65 97.31C70.59 97.03 72.65 96.08 74.82 96.08C76.99 96.08 79.05 97.08 80.99 97.31C82.99 95.06 82.8 93.8 87.55 92.67C85.0715 92.5646 82.6473 93.4168 80.78 95.05V95.05Z" fill="white"/>
<path d="M86.4 79.57C86.4 79.27 86.59 79.12 86.77 79.24C87.091 79.4332 87.4251 79.6036 87.77 79.75C88.1608 79.9228 88.4717 80.2372 88.64 80.63C88.74 80.95 88.92 81.11 89.04 80.99C89.16 80.87 89.41 81.27 89.59 81.87C89.81 82.6921 89.9573 83.532 90.03 84.38C90.0887 85.2011 90.028 86.0263 89.85 86.83C89.69 87.39 89.46 88.23 89.34 88.69C89.2496 89.083 89.1361 89.4704 89 89.85C88.8892 90.068 88.7281 90.2566 88.53 90.4C88.4285 90.4543 88.3151 90.4827 88.2 90.4827C88.0849 90.4827 87.9715 90.4543 87.87 90.4C87.69 90.3 87.72 90.1 87.94 89.96C88.1989 89.7667 88.3713 89.4793 88.42 89.16C88.42 88.86 88.29 88.76 88.05 88.94C87.7553 89.1357 87.4022 89.224 87.05 89.19C86.75 89.19 86.75 89.01 87.05 88.87C87.4164 88.6755 87.7531 88.4297 88.05 88.14C88.31 87.88 88.21 87.81 87.83 87.99C87.3411 88.2021 86.8269 88.35 86.3 88.43C85.84 88.49 85.54 88.37 85.64 88.17C85.8512 87.8922 86.1454 87.689 86.48 87.59C86.8803 87.4345 87.2274 87.1672 87.48 86.82C87.68 86.52 87.54 86.41 87.16 86.57C86.8036 86.7194 86.4357 86.8397 86.06 86.93C85.84 86.93 85.81 86.76 85.99 86.46C86.17 86.16 85.99 85.93 85.7 85.95C85.41 85.97 85.42 85.81 85.84 85.58C86.292 85.3892 86.6903 85.0905 87 84.71C87.16 84.43 87 84.22 86.56 84.24C86.12 84.26 85.82 84.09 85.8 83.87C85.78 83.65 86.07 83.29 86.45 83.07C86.83 82.85 87.11 82.52 87.07 82.34C87.03 82.16 86.77 82.06 86.49 82.12C86.21 82.18 86.14 81.97 86.34 81.65C86.5401 81.3353 86.6183 80.9583 86.56 80.59C86.4551 80.2601 86.4011 79.9162 86.4 79.57V79.57Z" fill="#5230D7"/>
<path d="M63.3 79.57C63.3 79.27 63.11 79.12 62.93 79.24C62.609 79.4332 62.2749 79.6036 61.93 79.75C61.5365 79.9224 61.2224 80.2365 61.05 80.63C60.95 80.95 60.77 81.11 60.65 80.99C60.53 80.87 60.29 81.27 60.11 81.87C59.89 82.6921 59.7427 83.532 59.67 84.38C59.6113 85.2011 59.672 86.0263 59.85 86.83C60.01 87.39 60.24 88.23 60.36 88.69C60.4602 89.0837 60.5837 89.471 60.73 89.85C60.8408 90.068 61.0019 90.2566 61.2 90.4C61.3015 90.4543 61.4149 90.4827 61.53 90.4827C61.6451 90.4827 61.7585 90.4543 61.86 90.4C62.04 90.3 62 90.1 61.78 89.96C61.5273 89.7628 61.3592 89.4767 61.31 89.16C61.31 88.86 61.43 88.76 61.67 88.94C61.966 89.1328 62.3181 89.2208 62.67 89.19C62.97 89.19 62.97 89.01 62.67 88.87C62.3036 88.6755 61.9669 88.4297 61.67 88.14C61.41 87.88 61.51 87.81 61.89 87.99C62.3789 88.2021 62.8931 88.35 63.42 88.43C63.88 88.49 64.18 88.37 64.07 88.17C63.8629 87.8924 63.5718 87.689 63.24 87.59C62.8398 87.4345 62.4926 87.1672 62.24 86.82C62.03 86.52 62.18 86.41 62.56 86.57C62.9159 86.7208 63.2838 86.8412 63.66 86.93C63.88 86.93 63.91 86.76 63.73 86.46C63.55 86.16 63.73 85.93 64.02 85.95C64.31 85.97 64.3 85.81 63.88 85.58C63.46 85.3643 63.0968 85.0525 62.82 84.67C62.66 84.39 62.82 84.18 63.26 84.2C63.7 84.22 64 84.05 64.02 83.83C64.04 83.61 63.75 83.25 63.37 83.03C62.99 82.81 62.71 82.48 62.75 82.3C62.79 82.12 63.05 82.02 63.33 82.08C63.61 82.14 63.68 81.93 63.47 81.61C63.2725 81.2943 63.1978 80.9171 63.26 80.55C63.3206 80.227 63.3341 79.8969 63.3 79.57V79.57Z" fill="#5230D7"/>
<path d="M81 106.42C80.8082 105.152 80.5275 103.899 80.16 102.67C79.7777 101.455 79.2647 100.285 78.63 99.18C78.13 98.37 77.46 97.34 77.13 96.89C76.8203 96.4546 76.4381 96.0758 76 95.77C75.7673 95.6242 75.5147 95.513 75.25 95.44C75.1672 95.4529 75.0828 95.4529 75 95.44C74.9703 95.4341 74.9397 95.4341 74.91 95.44H74.74C74.7136 95.4343 74.6864 95.4343 74.66 95.44C74.5772 95.4529 74.4928 95.4529 74.41 95.44C74.1453 95.513 73.8927 95.6242 73.66 95.77C73.2329 96.0787 72.861 96.4574 72.56 96.89C72.24 97.34 71.56 98.37 71.07 99.18C70.4353 100.285 69.9223 101.455 69.54 102.67C69.1725 103.899 68.8918 105.152 68.7 106.42C68.5905 107.432 68.7032 108.456 69.03 109.42C69.4471 110.286 70.0277 111.064 70.74 111.71C71.4432 112.29 72.2158 112.781 73.04 113.17C73.5045 113.386 73.9954 113.541 74.5 113.63H75.16C75.6646 113.541 76.1555 113.386 76.62 113.17C77.4442 112.781 78.2168 112.29 78.92 111.71C79.6322 111.064 80.2129 110.286 80.63 109.42C80.9703 108.459 81.0966 107.435 81 106.42V106.42Z" fill="white"/>
<path d="M71.11 103.13C71.11 102.87 70.92 102.87 70.78 103.13C70.7196 103.28 70.7083 103.445 70.7479 103.601C70.7874 103.757 70.8757 103.897 71 104C71.2372 104.217 71.5116 104.39 71.81 104.51C72.0344 104.592 72.2247 104.747 72.35 104.95C72.428 105.057 72.5265 105.148 72.6398 105.216C72.7532 105.285 72.879 105.33 73.01 105.35C73.3254 105.433 73.5994 105.628 73.78 105.9C73.9859 106.203 74.2599 106.453 74.58 106.63C74.9556 106.761 75.3644 106.761 75.74 106.63C76.11 106.51 76.33 106.25 76.25 106.05C76.1968 105.948 76.1101 105.867 76.0045 105.822C75.8988 105.776 75.7807 105.769 75.67 105.8C75.3492 105.851 75.0207 105.813 74.72 105.69C74.4435 105.57 74.1871 105.408 73.96 105.21C73.7875 105 73.6737 104.748 73.63 104.48C73.5883 104.344 73.5051 104.225 73.3921 104.139C73.2791 104.053 73.142 104.004 73 104C72.721 103.966 72.439 103.966 72.16 104C71.9378 104.023 71.7154 103.958 71.54 103.82C71.3271 103.641 71.1765 103.4 71.11 103.13V103.13Z" fill="#5230D7"/>
<path d="M76.69 105.21C76.47 105.29 76.32 105.15 76.36 104.91C76.4035 104.666 76.5184 104.439 76.69 104.26C76.9948 104.087 77.3396 103.998 77.69 104C77.8821 103.987 78.0682 103.928 78.232 103.827C78.3959 103.726 78.5325 103.586 78.63 103.42C78.78 103.12 78.94 103.12 79 103.42C79.0797 103.749 79.0797 104.091 79 104.42C78.9342 104.546 78.8422 104.657 78.7301 104.745C78.618 104.833 78.4884 104.896 78.35 104.93C78.07 104.99 77.69 105.05 77.51 105.07C77.2325 105.088 76.9577 105.135 76.69 105.21V105.21Z" fill="#5230D7"/>
<path d="M77.76 101.27C77.6228 101.133 77.4584 101.027 77.2775 100.958C77.0966 100.889 76.9033 100.859 76.71 100.87C76.2526 100.875 75.8006 100.97 75.38 101.15C75.2145 101.229 75.0334 101.27 74.85 101.27C74.6666 101.27 74.4855 101.229 74.32 101.15C73.9025 100.971 73.454 100.876 73 100.87C72.8053 100.86 72.6105 100.89 72.428 100.959C72.2456 101.028 72.0794 101.134 71.94 101.27C71.8 101.49 72 101.67 72.38 101.67C72.8471 101.692 73.3055 101.804 73.73 102C74.044 102.15 74.3422 102.331 74.62 102.54L74.86 102.74L75.1 102.54C75.3794 102.328 75.6812 102.147 76 102C76.4245 101.804 76.8829 101.692 77.35 101.67C77.71 101.67 77.9 101.49 77.76 101.27Z" fill="#C6C2DF"/>
<path d="M79.2 109.41C78.7525 110.058 78.1467 110.582 77.44 110.93C76.9349 111.044 76.4142 111.071 75.9 111.01C75.56 110.95 75.08 110.64 75.04 110.32C75.0563 109.472 75.1602 108.627 75.35 107.8C75.47 107.62 75.41 107.5 75.21 107.52C74.9709 107.55 74.7291 107.55 74.49 107.52C74.29 107.52 74.23 107.62 74.35 107.8C74.5537 108.626 74.671 109.47 74.7 110.32C74.7 110.64 74.14 110.95 73.8 111.01C73.3239 111.059 72.8429 111.021 72.38 110.9C71.94 110.78 71.17 109.78 70.85 109.39C70.53 109 70.35 109.12 70.41 109.39C70.7418 110.346 71.4006 111.153 72.27 111.67C72.7192 111.805 73.1821 111.888 73.65 111.92C73.9816 111.962 74.3157 111.982 74.65 111.98C74.7932 111.97 74.9368 111.97 75.08 111.98C75.4143 111.983 75.7484 111.963 76.08 111.92C76.5491 111.873 77.0139 111.789 77.47 111.67C77.8678 111.55 78.2382 111.353 78.56 111.09C79.037 110.606 79.4171 110.036 79.68 109.41C79.74 109.07 79.45 109 79.2 109.41Z" fill="#5230D7"/>
<path d="M67.26 103.93C65.6938 105.592 64.8316 107.796 64.854 110.079C64.8764 112.363 65.7816 114.549 67.38 116.18V116.18C67.4862 116.117 67.577 116.032 67.6455 115.929C67.7141 115.827 67.7587 115.71 67.776 115.588C67.7933 115.466 67.7828 115.342 67.7454 115.225C67.7081 115.107 67.6447 115 67.56 114.91C66.19 113.45 63.82 109.75 67.26 103.93Z" fill="#5230D7"/>
<path d="M82.44 103.93C84.0062 105.592 84.8684 107.796 84.846 110.079C84.8236 112.363 83.9184 114.549 82.32 116.18V116.18C82.2138 116.117 82.123 116.032 82.0544 115.929C81.9859 115.827 81.9413 115.71 81.924 115.588C81.9067 115.466 81.9171 115.342 81.9545 115.225C81.9919 115.107 82.0553 115 82.14 114.91C83.5 113.45 85.88 109.75 82.44 103.93Z" fill="#5230D7"/>
<path d="M59.92 94.68C61.4724 94.6572 63.0233 94.7879 64.55 95.07C65.5463 95.2529 66.5079 95.5903 67.4 96.07C67.8811 96.3762 68.3155 96.75 68.69 97.18C68.9207 97.558 69.0289 97.9981 69 98.44C68.8408 99.0783 68.4922 99.6535 68 100.09C67.4155 100.637 66.8012 101.151 66.16 101.63C65.66 101.99 64.96 102.45 64.59 102.63C64.1407 102.865 63.6365 102.976 63.13 102.95C62.5593 102.846 62.0234 102.602 61.57 102.24C61.13 101.88 60.88 101.8 61.01 102.06C61.14 102.32 61.36 102.75 61.51 103.06C61.7882 103.488 62.1248 103.875 62.51 104.21C62.91 104.57 62.83 104.73 62.34 104.57C61.816 104.39 61.3522 104.068 61 103.64C60.7036 103.193 60.4396 102.725 60.21 102.24C59.9991 101.708 59.8482 101.155 59.76 100.59C59.6992 100.125 59.6992 99.6547 59.76 99.19C59.8328 99.0058 59.8636 98.8076 59.85 98.61C59.85 98.41 59.74 97.95 58.85 99.1C58.7694 99.2395 58.6418 99.3458 58.49 99.4C58.26 99.5 57.69 99.4 58.27 99.1C58.85 98.8 58.7 98.42 58.17 98.64C57.64 98.86 57.04 98.79 57.26 98.53C57.48 98.27 57.78 98.39 58.37 98.17C58.96 97.95 59.04 97.56 58.51 97.56C58.0937 97.6043 57.674 97.5169 57.31 97.31C56.98 97.07 57.09 96.89 57.55 96.91C58.2688 96.8677 58.9722 96.6842 59.62 96.37C60.3 96.06 58.34 95.99 58.86 95.71C59.6357 95.5551 60.4343 95.5551 61.21 95.71C61.98 95.71 62.14 95.56 61.55 95.28C61.2395 95.1138 60.9001 95.0086 60.55 94.97C60.08 94.89 59.27 94.8 59.92 94.68Z" fill="white"/>
<path d="M89.78 94.68C88.2276 94.6569 86.6767 94.7875 85.15 95.07C84.1511 95.2549 83.1865 95.5922 82.29 96.07C81.8075 96.3901 81.3731 96.7773 81 97.22C80.7877 97.5899 80.6903 98.0146 80.72 98.44C80.8821 99.0771 81.2302 99.6515 81.72 100.09C82.31 100.635 82.9275 101.149 83.57 101.63C84.06 101.99 84.77 102.45 85.14 102.63C85.589 102.866 86.0934 102.977 86.6 102.95C87.1707 102.846 87.7067 102.602 88.16 102.24C88.59 101.88 88.85 101.8 88.72 102.06C88.59 102.32 88.37 102.75 88.22 103.06C87.9388 103.486 87.6025 103.872 87.22 104.21C86.82 104.57 86.9 104.73 87.39 104.57C87.914 104.39 88.3778 104.068 88.73 103.64C89.0264 103.193 89.2904 102.725 89.52 102.24C89.7458 101.711 89.907 101.157 90 100.59C90.071 100.126 90.071 99.654 90 99.19C89.936 99.0037 89.9088 98.8067 89.92 98.61C89.92 98.41 90.02 97.95 90.97 99.1C91.0494 99.2366 91.1728 99.3424 91.32 99.4C91.56 99.5 92.12 99.4 91.55 99.1C90.98 98.8 91.12 98.42 91.64 98.64C92.16 98.86 92.78 98.79 92.56 98.53C92.34 98.27 92.04 98.39 91.45 98.17C90.86 97.95 90.77 97.56 91.31 97.56C91.7263 97.6043 92.146 97.5169 92.51 97.31C92.84 97.07 92.73 96.89 92.27 96.91C91.5482 96.8667 90.8417 96.6833 90.19 96.37C89.52 96.06 91.48 95.99 90.96 95.71C90.1811 95.5538 89.3789 95.5538 88.6 95.71C87.83 95.71 87.68 95.56 88.27 95.28C88.5805 95.1138 88.9199 95.0086 89.27 94.97C89.62 94.89 90.43 94.8 89.78 94.68Z" fill="white"/>
<path d="M78.28 115.73C78.28 115.73 77.74 118.31 79.68 119.48C77.45 118.88 77.16 115.03 77.16 115.03C76.6699 117.264 76.7698 119.587 77.45 121.77C75.45 119.77 75.73 115.57 75.73 115.57L74.85 123.21L74 115.57C74 115.57 74.23 119.79 72.28 121.77C72.9597 119.586 73.0562 117.263 72.56 115.03C72.56 115.03 72.27 118.88 70.04 119.48C71.99 118.31 71.45 115.73 71.45 115.73C70.9465 116.266 70.3348 116.688 69.6555 116.969C68.9762 117.25 68.2448 117.383 67.51 117.36C70.26 116.59 70.15 115.73 71.31 114.2C72.4744 114.579 73.6686 114.86 74.88 115.04C76.0914 114.86 77.2856 114.579 78.45 114.2C79.61 115.73 79.45 116.59 82.25 117.36C81.5102 117.388 80.7731 117.257 80.0883 116.975C79.4034 116.694 78.7868 116.27 78.28 115.73Z" fill="#5230D7"/>
<path d="M61.83 99C61.83 99.19 61.52 98.27 61.64 97.75C61.6872 97.5214 61.7796 97.3045 61.9118 97.1122C62.0441 96.9198 62.2135 96.7559 62.41 96.63C64.61 94.95 67.65 97.63 67.8 97.91C67.95 98.19 68.09 99.24 67.97 99.21C67.85 99.18 67.28 98.02 66.97 98.41C66.867 98.8435 66.7299 99.2681 66.56 99.68C66.46 99.91 65.56 101.27 64.65 101.39C62 101.73 62 98.8 62 98.8C61.9598 98.8204 61.9241 98.8486 61.8949 98.8829C61.8657 98.9173 61.8437 98.9571 61.83 99V99Z" fill="#5230D7"/>
<path d="M63.428 97.8067C63.8588 97.6201 64.1208 97.2675 64.0133 97.0192C63.9057 96.7708 63.4693 96.7208 63.0385 96.9074C62.6078 97.094 62.3458 97.4465 62.4533 97.6949C62.5609 97.9432 62.9973 97.9932 63.428 97.8067Z" fill="white"/>
<path d="M62.41 99.33C62.526 99.6208 62.7004 99.8848 62.9224 100.106C63.1444 100.326 63.4093 100.499 63.7008 100.614C63.9923 100.728 64.3041 100.781 64.617 100.77C64.9299 100.759 65.2372 100.684 65.52 100.55C64.922 100.592 64.3224 100.493 63.77 100.26C63.2555 100.051 62.7917 99.7336 62.41 99.33V99.33Z" fill="white"/>
<path d="M87.92 99C87.92 99.19 88.23 98.27 88.11 97.75C88.0628 97.5214 87.9704 97.3045 87.8382 97.1122C87.7059 96.9198 87.5365 96.7559 87.34 96.63C85.14 94.95 82.1 97.63 81.94 97.91C81.78 98.19 81.66 99.24 81.78 99.21C81.9 99.18 82.47 98.02 82.78 98.41C82.883 98.8435 83.0201 99.2681 83.19 99.68C83.29 99.91 84.19 101.27 85.1 101.39C87.68 101.71 87.7 98.78 87.7 98.78C87.7515 98.7965 87.7984 98.8251 87.8366 98.8634C87.8749 98.9016 87.9035 98.9485 87.92 99V99Z" fill="#5230D7"/>
<path d="M87.3707 97.6991C87.4783 97.4508 87.2163 97.0982 86.7855 96.9116C86.3548 96.7251 85.9184 96.7751 85.8108 97.0234C85.7032 97.2718 85.9652 97.6243 86.396 97.8109C86.8268 97.9975 87.2632 97.9475 87.3707 97.6991Z" fill="white"/>
<path d="M87.42 99.33C87.3146 99.6204 87.1474 99.8844 86.9298 100.104C86.7122 100.323 86.4496 100.492 86.16 100.6C85.8708 100.743 85.5526 100.817 85.23 100.817C84.9074 100.817 84.5892 100.743 84.3 100.6C84.8773 100.634 85.4552 100.543 85.9939 100.332C86.5325 100.122 87.0191 99.7968 87.42 99.38V99.33Z" fill="white"/>
</g>
<path d="M52.48 18.43C52.1668 17.2278 51.5779 16.1151 50.76 15.18H56.3C55.57 16.01 55.3 17.11 55.96 18.74L58.38 25.43L60.63 19.28C61.32 17.42 61.04 15.88 59.99 15.18H63.31C62.4347 16.1146 61.7908 17.2414 61.43 18.47L57.87 28.23H56.08L52.48 18.43Z" fill="#1C171E"/>
<path d="M66.31 27.06C66.0374 27.4772 65.6673 27.8218 65.2318 28.064C64.7962 28.3061 64.3082 28.4386 63.81 28.45C63.5582 28.483 63.3022 28.4615 63.0594 28.3868C62.8166 28.3121 62.5928 28.1861 62.4031 28.0172C62.2133 27.8484 62.0622 27.6406 61.9598 27.4082C61.8575 27.1757 61.8064 26.924 61.81 26.67C61.81 24.74 64.24 23.91 66.26 23.48V22.39C66.26 21.34 65.83 20.86 64.55 20.86C63.7563 20.8699 62.9719 21.0329 62.24 21.34L62.16 21.2C62.6588 20.5707 63.2945 20.0635 64.0189 19.7169C64.7432 19.3704 65.537 19.1936 66.34 19.2C68.27 19.2 69.12 20.12 69.12 21.53V26.09C69.106 26.1958 69.116 26.3033 69.1493 26.4047C69.1826 26.506 69.2383 26.5986 69.3123 26.6754C69.3863 26.7523 69.4767 26.8115 69.5767 26.8487C69.6767 26.8858 69.7838 26.8999 69.89 26.89C70.1301 26.8828 70.3642 26.8139 70.57 26.69V26.76C70.391 27.2468 70.0644 27.6655 69.636 27.9577C69.2075 28.2499 68.6985 28.401 68.18 28.39C67.7592 28.4373 67.3358 28.3278 66.9908 28.0824C66.6457 27.837 66.4033 27.473 66.31 27.06V27.06ZM66.25 26.72V23.86C64.99 24.2 64.25 24.91 64.25 25.74C64.2389 25.8973 64.2624 26.0552 64.3189 26.2025C64.3753 26.3498 64.4634 26.4829 64.5768 26.5925C64.6902 26.7021 64.8263 26.7856 64.9754 26.837C65.1245 26.8883 65.2831 26.9065 65.44 26.89C65.7202 26.9049 65.9994 26.8463 66.25 26.72Z" fill="#1C171E"/>
<path d="M71.11 28.17C71.441 27.1713 71.59 26.1213 71.55 25.07V23C71.6404 21.9729 71.3204 20.9518 70.66 20.16V20.16L74.33 19.16V20.94H74.41C74.7146 20.4163 75.1529 19.9829 75.6801 19.6842C76.2072 19.3855 76.8042 19.2322 77.41 19.24C77.7521 19.2059 78.0975 19.2449 78.4234 19.3542C78.7493 19.4636 79.0484 19.6408 79.3007 19.8743C79.5531 20.1077 79.753 20.392 79.8873 20.7085C80.0217 21.0249 80.0873 21.3663 80.08 21.71V25C80.0377 26.0539 80.1833 27.107 80.51 28.11V28.16H76.77C77.091 27.166 77.2365 26.1238 77.2 25.08V21.87C77.2236 21.7014 77.2099 21.5296 77.1597 21.3669C77.1095 21.2042 77.0241 21.0545 76.9096 20.9285C76.795 20.8026 76.6542 20.7033 76.497 20.6379C76.3398 20.5725 76.1701 20.5424 76 20.55C75.6886 20.5626 75.3845 20.6479 75.1119 20.799C74.8393 20.95 74.6058 21.1627 74.43 21.42V25C74.3912 26.0505 74.5367 27.0997 74.86 28.1V28.1L71.11 28.17Z" fill="#1C171E"/>
<path d="M82.11 26V19.9H81.11V19.73L84.77 17.44H85V19.5H87.12V19.88H85V25.88C85 26.95 85.56 27.29 86.27 27.29C86.6267 27.2987 86.977 27.1937 87.27 26.99L87.33 27.05C87.0314 27.5033 86.6198 27.8708 86.1358 28.1163C85.6518 28.3619 85.112 28.4769 84.57 28.45C84.2378 28.4921 83.9004 28.4577 83.5834 28.3496C83.2665 28.2415 82.9785 28.0625 82.7412 27.8262C82.5039 27.5899 82.3237 27.3026 82.2144 26.9861C82.105 26.6696 82.0693 26.3324 82.11 26V26Z" fill="#1C171E"/>
<path d="M92.36 27.06C92.0896 27.477 91.7214 27.8216 91.2874 28.0639C90.8535 28.3062 90.3669 28.4387 89.87 28.45C89.6182 28.483 89.3622 28.4614 89.1194 28.3868C88.8766 28.3121 88.6528 28.186 88.4631 28.0172C88.2733 27.8483 88.1222 27.6406 88.0198 27.4082C87.9175 27.1757 87.8664 26.9239 87.87 26.67C87.87 24.74 90.3 23.91 92.31 23.48V22.39C92.31 21.34 91.88 20.86 90.61 20.86C89.8163 20.8699 89.0319 21.0329 88.3 21.34L88.22 21.22C88.7173 20.589 89.3527 20.0806 90.0774 19.7338C90.8021 19.3871 91.5967 19.2113 92.4 19.22C94.33 19.22 95.17 20.13 95.17 21.54V26.11C95.156 26.2157 95.166 26.3233 95.1993 26.4246C95.2326 26.526 95.2883 26.6186 95.3623 26.6954C95.4363 26.7723 95.5266 26.8315 95.6266 26.8686C95.7267 26.9058 95.8338 26.9199 95.94 26.91C96.1849 26.9049 96.4237 26.8322 96.63 26.7V26.77C96.4526 27.2586 96.1268 27.6795 95.6982 27.9736C95.2696 28.2677 94.7597 28.4203 94.24 28.41C93.8167 28.4481 93.3939 28.3327 93.0487 28.0848C92.7036 27.837 92.4591 27.4732 92.36 27.06ZM92.3 26.72V23.86C91.04 24.2 90.36 24.91 90.36 25.74C90.3489 25.8973 90.3724 26.0552 90.4289 26.2025C90.4853 26.3497 90.5734 26.4829 90.6868 26.5925C90.8002 26.7021 90.9363 26.7855 91.0854 26.8369C91.2345 26.8883 91.3931 26.9064 91.55 26.89C91.8102 26.8964 92.0679 26.8379 92.3 26.72V26.72Z" fill="#1C171E"/>
<path d="M100.628 24.75L100.288 25.7C110.889 31.6494 119.202 40.9667 123.909 52.1753C128.615 63.384 129.447 75.8428 126.271 87.5774C123.095 99.312 116.094 109.651 106.378 116.957C96.6607 124.262 84.7837 128.115 72.6287 127.907C60.4738 127.698 48.7362 123.438 39.276 115.803C29.8159 108.169 23.1743 97.5949 20.4037 85.7581C17.6332 73.9213 18.8922 61.4984 23.9812 50.4581C29.0702 39.4178 37.6982 30.3916 48.4978 24.81L48.1478 23.87C37.0651 29.5733 28.2212 38.8362 23.0366 50.1708C17.852 61.5054 16.6278 74.2537 19.5605 86.3679C22.4933 98.482 29.4128 109.259 39.2076 116.967C49.0023 124.675 61.1037 128.867 73.5678 128.87V128.87C85.8765 128.875 97.8387 124.794 107.577 117.266C117.316 109.739 124.279 99.1908 127.375 87.2779C130.472 75.3649 129.525 62.7611 124.684 51.4444C119.843 40.1276 111.382 30.7384 100.628 24.75V24.75Z" fill="#63676D"/>
<path d="M58.5421 67.785V74H56.6391V67.785H54.2411V66.168H60.9401V67.785H58.5421ZM65.6366 74H63.7336V71.041L61.0496 66.168H63.1616L63.8436 67.587C64.1589 68.2397 64.4376 68.896 64.6796 69.556H64.7016C64.9216 68.9253 65.1966 68.269 65.5266 67.587L66.2086 66.168H68.3206L65.6366 71.041V74ZM71.9705 66.168C72.9459 66.168 73.6865 66.399 74.1925 66.861C74.6985 67.323 74.9515 67.961 74.9515 68.775C74.9515 69.5817 74.6985 70.216 74.1925 70.678C73.6865 71.14 72.9459 71.371 71.9705 71.371H70.7385V74H68.8355V66.168H71.9705ZM70.7385 69.842H71.7065C72.5719 69.842 73.0045 69.4863 73.0045 68.775C73.0045 68.0563 72.5719 67.697 71.7065 67.697H70.7385V69.842ZM77.9358 67.763V69.248H81.3238V70.821H77.9358V72.405H81.6538V74H76.0328V66.168H81.5658V67.763H77.9358ZM85.5396 74V66.168H87.4426V74H85.5396ZM89.1168 74V66.168H91.0198V74H89.1168Z" fill="#1C171E"/>
<path d="M45.142 40.528C47.302 40.528 48.958 41.008 50.11 41.968C51.262 42.912 51.838 44.296 51.838 46.12H47.518C47.518 45.352 47.294 44.768 46.846 44.368C46.414 43.952 45.79 43.744 44.974 43.744C44.286 43.744 43.734 43.896 43.318 44.2C42.918 44.488 42.718 44.872 42.718 45.352C42.718 45.72 42.822 46.024 43.03 46.264C43.254 46.488 43.598 46.688 44.062 46.864C44.526 47.04 45.214 47.24 46.126 47.464C47.486 47.8 48.582 48.152 49.414 48.52C50.262 48.872 50.95 49.4 51.478 50.104C52.022 50.808 52.294 51.744 52.294 52.912C52.294 54.016 52.006 54.984 51.43 55.816C50.854 56.632 50.038 57.264 48.982 57.712C47.942 58.16 46.718 58.384 45.31 58.384C43.07 58.384 41.318 57.864 40.054 56.824C38.79 55.784 38.158 54.32 38.158 52.432H42.574C42.574 54.192 43.518 55.072 45.406 55.072C46.19 55.072 46.806 54.912 47.254 54.592C47.702 54.272 47.926 53.832 47.926 53.272C47.926 52.856 47.814 52.528 47.59 52.288C47.382 52.048 47.07 51.856 46.654 51.712C46.238 51.552 45.574 51.352 44.662 51.112C43.27 50.76 42.158 50.408 41.326 50.056C40.494 49.704 39.806 49.184 39.262 48.496C38.718 47.808 38.446 46.888 38.446 45.736C38.446 44.696 38.718 43.784 39.262 43C39.806 42.216 40.582 41.608 41.59 41.176C42.614 40.744 43.798 40.528 45.142 40.528ZM62.2405 40.528C63.9205 40.528 65.3765 40.888 66.6085 41.608C67.8565 42.328 68.8165 43.36 69.4885 44.704C70.1605 46.048 70.4965 47.632 70.4965 49.456C70.4965 51.28 70.1605 52.864 69.4885 54.208C68.8165 55.552 67.8565 56.584 66.6085 57.304C65.3765 58.024 63.9205 58.384 62.2405 58.384C60.5445 58.384 59.0725 58.024 57.8245 57.304C56.5925 56.584 55.6405 55.552 54.9685 54.208C54.2965 52.864 53.9605 51.28 53.9605 49.456C53.9605 47.632 54.2965 46.048 54.9685 44.704C55.6405 43.36 56.5925 42.328 57.8245 41.608C59.0725 40.888 60.5445 40.528 62.2405 40.528ZM62.2405 44.128C60.9925 44.128 60.0245 44.6 59.3365 45.544C58.6485 46.472 58.3045 47.776 58.3045 49.456C58.3045 51.136 58.6485 52.448 59.3365 53.392C60.0245 54.32 60.9925 54.784 62.2405 54.784C63.4725 54.784 64.4325 54.32 65.1205 53.392C65.8085 52.448 66.1525 51.136 66.1525 49.456C66.1525 47.776 65.8085 46.472 65.1205 45.544C64.4325 44.6 63.4725 44.128 62.2405 44.128ZM80.5853 40.528C82.0413 40.528 83.3213 40.8 84.4253 41.344C85.5293 41.872 86.3933 42.632 87.0173 43.624C87.6413 44.6 87.9773 45.744 88.0253 47.056H83.7293C83.6333 46.128 83.3053 45.408 82.7453 44.896C82.2013 44.384 81.4813 44.128 80.5853 44.128C79.4493 44.128 78.5533 44.608 77.8973 45.568C77.2573 46.512 76.9373 47.808 76.9373 49.456C76.9373 51.104 77.2573 52.408 77.8973 53.368C78.5533 54.312 79.4333 54.784 80.5373 54.784C81.4333 54.784 82.1613 54.52 82.7213 53.992C83.2973 53.464 83.6413 52.72 83.7533 51.76H88.0973C87.9373 53.872 87.1853 55.504 85.8413 56.656C84.4973 57.808 82.7293 58.384 80.5373 58.384C78.9053 58.384 77.4893 58.024 76.2893 57.304C75.1053 56.584 74.1933 55.56 73.5533 54.232C72.9133 52.888 72.5933 51.296 72.5933 49.456C72.5933 47.616 72.9133 46.032 73.5533 44.704C74.2093 43.36 75.1373 42.328 76.3373 41.608C77.5373 40.888 78.9533 40.528 80.5853 40.528ZM101.905 41.44C103.121 41.44 104.185 41.64 105.097 42.04C106.009 42.44 106.713 43.008 107.209 43.744C107.705 44.464 107.953 45.296 107.953 46.24C107.953 47.152 107.777 47.936 107.425 48.592C107.089 49.248 106.625 49.808 106.033 50.272C105.441 50.736 104.681 51.208 103.753 51.688C102.793 52.184 102.065 52.6 101.569 52.936C101.089 53.272 100.761 53.576 100.585 53.848C100.409 54.104 100.305 54.392 100.273 54.712H108.361V58H95.4488C95.4328 57.856 95.4248 57.608 95.4248 57.256C95.4248 56.104 95.5608 55.12 95.8328 54.304C96.1048 53.472 96.5768 52.704 97.2488 52C97.9208 51.296 98.8648 50.608 100.081 49.936C100.993 49.424 101.689 49.008 102.169 48.688C102.649 48.352 103.025 47.992 103.297 47.608C103.585 47.224 103.729 46.784 103.729 46.288C103.729 45.776 103.569 45.376 103.249 45.088C102.929 44.784 102.481 44.632 101.905 44.632C101.201 44.632 100.665 44.84 100.297 45.256C99.9288 45.656 99.7448 46.248 99.7448 47.032H95.6408C95.6568 45.24 96.2168 43.864 97.3208 42.904C98.4248 41.928 99.9528 41.44 101.905 41.44Z" fill="#1C171E"/>
</svg>
