<svg width="16" height="16" viewBox="0 0 16 16" fill="none" xmlns="http://www.w3.org/2000/svg">
  <circle cx="8" cy="8" r="8" fill="black"/>
  <path d="M9.99995 5.43144C10.3274 5.10398 10.3274 4.57306 9.99995 4.2456C9.67248 3.91813 9.14155 3.91813 8.81408 4.2456C8.48661 4.57306 8.48661 5.10398 8.81408 5.43144C9.14155 5.7589 9.67248 5.7589 9.99995 5.43144Z" fill="white"/>
  <path d="M11.4362 8.52365L8.09841 5.18584L6.91403 4.00146C6.25821 4.65728 6.26474 5.71115 6.91729 6.36697L8.35617 7.80584L8.3529 7.80911L9.16858 8.6248C9.19796 8.65415 9.21752 8.69657 9.21752 8.73899C9.21752 8.78465 9.19469 8.82707 9.16534 8.85645L8.2126 9.80918C8.14735 9.87443 8.0462 9.87443 7.98095 9.80918L7.02822 8.85318C6.96297 8.78793 6.96297 8.68678 7.02822 8.62153C7.68078 7.92655 7.19462 7.09455 6.89119 6.81396L6.67911 6.60187L4.77366 8.51058C4.64641 8.63784 4.64641 8.84338 4.77366 8.97064L7.86676 12.0637C7.99399 12.191 8.19956 12.191 8.32679 12.0637L11.4134 8.97716C11.4819 8.9217 11.5243 8.83686 11.5243 8.74226C11.5243 8.65742 11.4884 8.57911 11.4362 8.52365Z" fill="white"/>
  </svg>
  