<svg width="12" height="13" viewBox="0 0 12 13" fill="none" xmlns="http://www.w3.org/2000/svg">
<path d="M1.44016 7.12109H0.773438V7.78782H1.44016V7.12109Z" fill="#FCF1FE"/>
<path d="M2.10423 7.12109H1.4375V7.78782H2.10423V7.12109Z" fill="#FCF1FE"/>
<path d="M2.7761 7.12109H2.10938V7.78782H2.7761V7.12109Z" fill="#FCF1FE"/>
<path d="M1.44016 7.78711H0.773438V8.45383H1.44016V7.78711Z" fill="#FCF1FE"/>
<path d="M2.10423 7.78711H1.4375V8.45383H2.10423V7.78711Z" fill="#FCF1FE"/>
<path d="M2.7761 7.78711H2.10938V8.45383H2.7761V7.78711Z" fill="#FCF1FE"/>
<path d="M1.44016 8.45508H0.773438V9.1218H1.44016V8.45508Z" fill="#FCF1FE"/>
<path d="M2.10423 8.45508H1.4375V9.1218H2.10423V8.45508Z" fill="#FCF1FE"/>
<path d="M2.7761 8.45508H2.10938V9.1218H2.7761V8.45508Z" fill="#FCF1FE"/>
<path d="M3.44407 7.12109H2.77734V7.78782H3.44407V7.12109Z" fill="#FCF1FE"/>
<path d="M2.10423 6.45508H1.4375V7.1218H2.10423V6.45508Z" fill="#FCF1FE"/>
<path d="M2.7761 6.45508H2.10938V7.1218H2.7761V6.45508Z" fill="#EACEF2"/>
<path d="M3.44407 6.45508H2.77734V7.1218H3.44407V6.45508Z" fill="#EACEF2"/>
<path d="M3.44407 7.78711H2.77734V8.45383H3.44407V7.78711Z" fill="#FCF1FE"/>
<path d="M3.44407 8.45508H2.77734V9.1218H3.44407V8.45508Z" fill="#FCF1FE"/>
<path d="M4.10813 7.12109H3.44141V7.78782H4.10813V7.12109Z" fill="#FCF1FE"/>
<path d="M4.10813 5.78711H3.44141V6.45383H4.10813V5.78711Z" fill="#EACEF2"/>
<path d="M4.7761 5.78711H4.10938V6.45383H4.7761V5.78711Z" fill="#EACEF2"/>
<path d="M5.44407 5.78711H4.77734V6.45383H5.44407V5.78711Z" fill="#EACEF2"/>
<path d="M4.10813 7.78711H3.44141V8.45383H4.10813V7.78711Z" fill="#FCF1FE"/>
<path d="M4.10813 6.45508H3.44141V7.1218H4.10813V6.45508Z" fill="#FCF1FE"/>
<path d="M4.10813 8.45508H3.44141V9.1218H4.10813V8.45508Z" fill="#FCF1FE"/>
<path d="M2.10423 9.12109H1.4375V9.78782H2.10423V9.12109Z" fill="#FCF1FE"/>
<path d="M4.7761 9.12109H4.10938V9.78782H4.7761V9.12109Z" fill="#FCF1FE"/>
<path d="M4.7761 8.45508H4.10938V9.1218H4.7761V8.45508Z" fill="#FCF1FE"/>
<path d="M4.7761 7.78711H4.10938V8.45383H4.7761V7.78711Z" fill="#FCF1FE"/>
<path d="M2.7761 9.12109H2.10938V9.78782H2.7761V9.12109Z" fill="#FCF1FE"/>
<path d="M5.44407 9.12109H4.77734V9.78782H5.44407V9.12109Z" fill="#FCF1FE"/>
<path d="M5.44407 8.45508H4.77734V9.1218H5.44407V8.45508Z" fill="#FCF1FE"/>
<path d="M5.44407 7.78711H4.77734V8.45383H5.44407V7.78711Z" fill="#FCF1FE"/>
<path d="M5.44407 7.12109H4.77734V7.78782H5.44407V7.12109Z" fill="#FCF1FE"/>
<path d="M5.44407 6.45508H4.77734V7.1218H5.44407V6.45508Z" fill="#FCF1FE"/>
<path d="M3.44407 9.12109H2.77734V9.78782H3.44407V9.12109Z" fill="#FCF1FE"/>
<path d="M6.10813 9.12109H5.44141V9.78782H6.10813V9.12109Z" fill="#FCF1FE"/>
<path d="M6.10813 11.1211H5.44141V11.7878H6.10813V11.1211Z" fill="#FCF1FE"/>
<path d="M7.44407 11.1211H6.77734V11.7878H7.44407V11.1211Z" fill="#FCF1FE"/>
<path d="M7.44407 10.4551H6.77734V11.1218H7.44407V10.4551Z" fill="#EACEF2"/>
<path d="M7.44407 9.78906H6.77734V10.4558H7.44407V9.78906Z" fill="#EACEF2"/>
<path d="M8.10813 11.1211H7.44141V11.7878H8.10813V11.1211Z" fill="#EACEF2"/>
<path d="M5.44407 11.1211H4.77734V11.7878H5.44407V11.1211Z" fill="#FCF1FE"/>
<path d="M6.10813 8.45508H5.44141V9.1218H6.10813V8.45508Z" fill="#FCF1FE"/>
<path d="M6.10813 10.4551H5.44141V11.1218H6.10813V10.4551Z" fill="#FCF1FE"/>
<path d="M5.44407 10.4551H4.77734V11.1218H5.44407V10.4551Z" fill="#EACEF2"/>
<path d="M6.10813 7.78711H5.44141V8.45383H6.10813V7.78711Z" fill="#FCF1FE"/>
<path d="M6.10813 9.78906H5.44141V10.4558H6.10813V9.78906Z" fill="#EACEF2"/>
<path d="M6.10813 11.7891H5.44141V12.4558H6.10813V11.7891Z" fill="#FCF1FE"/>
<path d="M7.44407 11.7891H6.77734V12.4558H7.44407V11.7891Z" fill="#FCF1FE"/>
<path d="M8.10813 11.7891H7.44141V12.4558H8.10813V11.7891Z" fill="#FCF1FE"/>
<path d="M5.44407 11.7891H4.77734V12.4558H5.44407V11.7891Z" fill="#FCF1FE"/>
<path d="M8.7761 11.7891H8.10938V12.4558H8.7761V11.7891Z" fill="#EACEF2"/>
<path d="M6.10813 7.12109H5.44141V7.78782H6.10813V7.12109Z" fill="#FCF1FE"/>
<path d="M6.10813 6.45508H5.44141V7.1218H6.10813V6.45508Z" fill="#EACEF2"/>
<path d="M4.10813 9.12109H3.44141V9.78782H4.10813V9.12109Z" fill="#FCF1FE"/>
<path d="M6.7761 9.12109H6.10938V9.78782H6.7761V9.12109Z" fill="#FCF1FE"/>
<path d="M6.7761 11.1211H6.10938V11.7878H6.7761V11.1211Z" fill="#FCF1FE"/>
<path d="M6.7761 8.45508H6.10938V9.1218H6.7761V8.45508Z" fill="#FCF1FE"/>
<path d="M6.7761 10.4551H6.10938V11.1218H6.7761V10.4551Z" fill="#FCF1FE"/>
<path d="M6.7761 7.78711H6.10938V8.45383H6.7761V7.78711Z" fill="#EACEF2"/>
<path d="M6.7761 9.78906H6.10938V10.4558H6.7761V9.78906Z" fill="#FCF1FE"/>
<path d="M6.7761 11.7891H6.10938V12.4558H6.7761V11.7891Z" fill="#FCF1FE"/>
<path d="M10.112 11.7891H9.44531V12.4558H10.112V11.7891Z" fill="#EACEF2"/>
<path d="M10.7761 11.7891H10.1094V12.4558H10.7761V11.7891Z" fill="#EACEF2"/>
<path d="M4.7761 4.45312H4.10938V5.11985H4.7761V4.45312Z" fill="#CCCCCC"/>
<path d="M6.7761 4.45312H6.10938V5.11985H6.7761V4.45312Z" fill="#CCCCCC"/>
<path d="M6.7761 5.12109H6.10938V5.78782H6.7761V5.12109Z" fill="#CCCCCC"/>
<path d="M6.7761 5.78711H6.10938V6.45383H6.7761V5.78711Z" fill="#CCCCCC"/>
<path d="M5.44407 4.45312H4.77734V5.11985H5.44407V4.45312Z" fill="#CCCCCC"/>
<path d="M7.44407 4.45312H6.77734V5.11985H7.44407V4.45312Z" fill="#CCCCCC"/>
<path d="M7.44407 5.12109H6.77734V5.78782H7.44407V5.12109Z" fill="#CCCCCC"/>
<path d="M7.44407 5.78711H6.77734V6.45383H7.44407V5.78711Z" fill="#CCCCCC"/>
<path d="M7.44407 3.78711H6.77734V4.45383H7.44407V3.78711Z" fill="#CCCCCC"/>
<path d="M6.10813 4.45312H5.44141V5.11985H6.10813V4.45312Z" fill="#CCCCCC"/>
<path d="M6.10813 5.12109H5.44141V5.78782H6.10813V5.12109Z" fill="#CCCCCC"/>
<path d="M8.10813 4.45312H7.44141V5.11985H8.10813V4.45312Z" fill="#CCCCCC"/>
<path d="M8.10813 3.78711H7.44141V4.45383H8.10813V3.78711Z" fill="#CCCCCC"/>
<path d="M2.77596 1.78711H2.10923V2.45383H2.77596V1.78711Z" fill="#EBC85B"/>
<path d="M2.10813 1.78711H1.44141V2.45383H2.10813V1.78711Z" fill="#F2A642"/>
<path d="M2.10813 1.11914H1.44141V1.78587H2.10813V1.11914Z" fill="#EBC85B"/>
<path d="M2.77596 2.45312H2.10923V3.11985H2.77596V2.45312Z" fill="#F2A642"/>
<path d="M3.44391 2.45312H2.77718V3.11985H3.44391V2.45312Z" fill="#EBC85B"/>
<path d="M3.44391 3.12109H2.77718V3.78782H3.44391V3.12109Z" fill="#F2A642"/>
<path d="M4.10813 3.12109H3.44141V3.78782H4.10813V3.12109Z" fill="#EBC85B"/>
<path d="M3.44391 3.78711H2.77718V4.45383H3.44391V3.78711Z" fill="#F2A642"/>
<path d="M4.10813 3.78711H3.44141V4.45383H4.10813V3.78711Z" fill="#F2A642"/>
<path d="M4.7761 3.78711H4.10938V4.45383H4.7761V3.78711Z" fill="#C811A0"/>
<path d="M3.44407 4.45312H2.77734V5.11985H3.44407V4.45312Z" fill="#C811A0"/>
<path d="M4.10813 4.45312H3.44141V5.11985H4.10813V4.45312Z" fill="#C811A0"/>
<path d="M4.7761 4.45312H4.10938V5.11985H4.7761V4.45312Z" fill="#CCCCCC"/>
<path d="M6.7761 4.45312H6.10938V5.11985H6.7761V4.45312Z" fill="#CCCCCC"/>
<path d="M6.7761 5.12109H6.10938V5.78782H6.7761V5.12109Z" fill="#CCCCCC"/>
<path d="M6.7761 5.78711H6.10938V6.45383H6.7761V5.78711Z" fill="#CCCCCC"/>
<path d="M5.44407 4.45312H4.77734V5.11985H5.44407V4.45312Z" fill="#CCCCCC"/>
<path d="M7.44407 4.45312H6.77734V5.11985H7.44407V4.45312Z" fill="#CCCCCC"/>
<path d="M7.44407 5.12109H6.77734V5.78782H7.44407V5.12109Z" fill="#CCCCCC"/>
<path d="M7.44407 5.78711H6.77734V6.45383H7.44407V5.78711Z" fill="#CCCCCC"/>
<path d="M8.10813 5.78711H7.44141V6.45383H8.10813V5.78711Z" fill="#CCCCCC"/>
<path d="M8.10813 7.78711H7.44141V8.45383H8.10813V7.78711Z" fill="#CCCCCC"/>
<path d="M8.7761 7.78711H8.10938V8.45383H8.7761V7.78711Z" fill="#CCCCCC"/>
<path d="M9.44407 7.78711H8.77734V8.45383H9.44407V7.78711Z" fill="#CCCCCC"/>
<path d="M10.112 7.78711H9.44531V8.45383H10.112V7.78711Z" fill="#CCCCCC"/>
<path d="M7.44407 6.45508H6.77734V7.1218H7.44407V6.45508Z" fill="#CCCCCC"/>
<path d="M8.10813 6.45508H7.44141V7.1218H8.10813V6.45508Z" fill="#CCCCCC"/>
<path d="M8.7761 6.45508H8.10938V7.1218H8.7761V6.45508Z" fill="#CCCCCC"/>
<path d="M8.10813 8.45508H7.44141V9.1218H8.10813V8.45508Z" fill="#CCCCCC"/>
<path d="M8.7761 8.45508H8.10938V9.1218H8.7761V8.45508Z" fill="#CCCCCC"/>
<path d="M9.44407 8.45508H8.77734V9.1218H9.44407V8.45508Z" fill="#CCCCCC"/>
<path d="M10.112 8.45508H9.44531V9.1218H10.112V8.45508Z" fill="#CCCCCC"/>
<path d="M10.7761 8.45508H10.1094V9.1218H10.7761V8.45508Z" fill="#CCCCCC"/>
<path d="M11.4441 8.45508H10.7773V9.1218H11.4441V8.45508Z" fill="#CCCCCC"/>
<path d="M7.44407 7.12109H6.77734V7.78782H7.44407V7.12109Z" fill="#CCCCCC"/>
<path d="M8.10813 7.12109H7.44141V7.78782H8.10813V7.12109Z" fill="#CCCCCC"/>
<path d="M8.7761 7.12109H8.10938V7.78782H8.7761V7.12109Z" fill="#CCCCCC"/>
<path d="M9.44407 7.12109H8.77734V7.78782H9.44407V7.12109Z" fill="#CCCCCC"/>
<path d="M8.10813 9.12109H7.44141V9.78782H8.10813V9.12109Z" fill="#CCCCCC"/>
<path d="M8.7761 9.12109H8.10938V9.78782H8.7761V9.12109Z" fill="#CCCCCC"/>
<path d="M8.7761 9.78906H8.10938V10.4558H8.7761V9.78906Z" fill="#CCCCCC"/>
<path d="M8.7761 10.4551H8.10938V11.1218H8.7761V10.4551Z" fill="#CCCCCC"/>
<path d="M9.44407 9.12109H8.77734V9.78782H9.44407V9.12109Z" fill="#CCCCCC"/>
<path d="M9.44407 9.78906H8.77734V10.4558H9.44407V9.78906Z" fill="#CCCCCC"/>
<path d="M9.44407 10.4551H8.77734V11.1218H9.44407V10.4551Z" fill="#CCCCCC"/>
<path d="M10.112 9.12109H9.44531V9.78782H10.112V9.12109Z" fill="#CCCCCC"/>
<path d="M10.112 9.78906H9.44531V10.4558H10.112V9.78906Z" fill="#CCCCCC"/>
<path d="M10.112 10.4551H9.44531V11.1218H10.112V10.4551Z" fill="#CCCCCC"/>
<path d="M10.7761 9.12109H10.1094V9.78782H10.7761V9.12109Z" fill="#CCCCCC"/>
<path d="M10.7761 9.78906H10.1094V10.4558H10.7761V9.78906Z" fill="#CCCCCC"/>
<path d="M11.4441 9.12109H10.7773V9.78782H11.4441V9.12109Z" fill="#CCCCCC"/>
<path d="M11.4441 10.4551H10.7773V11.1218H11.4441V10.4551Z" fill="#CCCCCC"/>
<path d="M11.4441 9.78906H10.7773V10.4558H11.4441V9.78906Z" fill="#CCCCCC"/>
<path d="M11.4441 11.1211H10.7773V11.7878H11.4441V11.1211Z" fill="#CCCCCC"/>
<path d="M7.44407 3.78711H6.77734V4.45383H7.44407V3.78711Z" fill="#CCCCCC"/>
<path d="M6.10813 4.45312H5.44141V5.11985H6.10813V4.45312Z" fill="#CCCCCC"/>
<path d="M6.10813 5.12109H5.44141V5.78782H6.10813V5.12109Z" fill="#CCCCCC"/>
<path d="M8.10813 4.45312H7.44141V5.11985H8.10813V4.45312Z" fill="#CCCCCC"/>
<path d="M8.10813 3.78711H7.44141V4.45383H8.10813V3.78711Z" fill="#CCCCCC"/>
<path d="M4.7761 4.45312H4.10938V5.11985H4.7761V4.45312Z" fill="#F02D5E"/>
<path d="M6.7761 4.45312H6.10938V5.11985H6.7761V4.45312Z" fill="#EACEF2"/>
<path d="M6.7761 5.12109H6.10938V5.78782H6.7761V5.12109Z" fill="#D33824"/>
<path d="M6.7761 5.78711H6.10938V6.45383H6.7761V5.78711Z" fill="#D33824"/>
<path d="M5.44407 4.45312H4.77734V5.11985H5.44407V4.45312Z" fill="#F02D5E"/>
<path d="M7.44407 4.45312H6.77734V5.11985H7.44407V4.45312Z" fill="#FCF1FE"/>
<path d="M7.44407 5.12109H6.77734V5.78782H7.44407V5.12109Z" fill="#EACEF2"/>
<path d="M7.44407 5.78711H6.77734V6.45383H7.44407V5.78711Z" fill="#D33824"/>
<path d="M8.10813 5.78711H7.44141V6.45383H8.10813V5.78711Z" fill="#DE5230"/>
<path d="M8.10813 7.78711H7.44141V8.45383H8.10813V7.78711Z" fill="#EB8A36"/>
<path d="M8.7761 7.78711H8.10938V8.45383H8.7761V7.78711Z" fill="#EDBD46"/>
<path d="M9.44407 7.78711H8.77734V8.45383H9.44407V7.78711Z" fill="#EDBD46"/>
<path d="M10.112 7.78711H9.44531V8.45383H10.112V7.78711Z" fill="#B8E34D"/>
<path d="M7.44407 6.45508H6.77734V7.1218H7.44407V6.45508Z" fill="#DE5230"/>
<path d="M8.10813 6.45508H7.44141V7.1218H8.10813V6.45508Z" fill="#DE5230"/>
<path d="M8.7761 6.45508H8.10938V7.1218H8.7761V6.45508Z" fill="#EB8A36"/>
<path d="M8.10813 8.45508H7.44141V9.1218H8.10813V8.45508Z" fill="#EDBD46"/>
<path d="M8.7761 8.45508H8.10938V9.1218H8.7761V8.45508Z" fill="#EDBD46"/>
<path d="M9.44407 8.45508H8.77734V9.1218H9.44407V8.45508Z" fill="#B8E34D"/>
<path d="M10.112 8.45508H9.44531V9.1218H10.112V8.45508Z" fill="#B8E34D"/>
<path d="M10.7761 8.45508H10.1094V9.1218H10.7761V8.45508Z" fill="#5CA939"/>
<path d="M11.4441 8.45508H10.7773V9.1218H11.4441V8.45508Z" fill="#01ACFD"/>
<path d="M7.44407 7.12109H6.77734V7.78782H7.44407V7.12109Z" fill="#DE5230"/>
<path d="M8.10813 7.12109H7.44141V7.78782H8.10813V7.12109Z" fill="#EB8A36"/>
<path d="M8.7761 7.12109H8.10938V7.78782H8.7761V7.12109Z" fill="#EB8A36"/>
<path d="M9.44407 7.12109H8.77734V7.78782H9.44407V7.12109Z" fill="#EDBD46"/>
<path d="M8.10813 9.12109H7.44141V9.78782H8.10813V9.12109Z" fill="#EDBD46"/>
<path d="M8.7761 9.12109H8.10938V9.78782H8.7761V9.12109Z" fill="#B8E34D"/>
<path d="M8.7761 9.78906H8.10938V10.4558H8.7761V9.78906Z" fill="#B8E34D"/>
<path d="M8.7761 10.4551H8.10938V11.1218H8.7761V10.4551Z" fill="#B8E34D"/>
<path d="M9.44407 9.12109H8.77734V9.78782H9.44407V9.12109Z" fill="#B8E34D"/>
<path d="M9.44407 9.78906H8.77734V10.4558H9.44407V9.78906Z" fill="#5CA939"/>
<path d="M9.44407 10.4551H8.77734V11.1218H9.44407V10.4551Z" fill="#5CA939"/>
<path d="M9.44407 11.1211H8.77734V11.7878H9.44407V11.1211Z" fill="#5CA939"/>
<path d="M10.112 9.12109H9.44531V9.78782H10.112V9.12109Z" fill="#5CA939"/>
<path d="M10.112 9.78906H9.44531V10.4558H10.112V9.78906Z" fill="#5CA939"/>
<path d="M10.112 10.4551H9.44531V11.1218H10.112V10.4551Z" fill="#01ACFD"/>
<path d="M10.7761 9.12109H10.1094V9.78782H10.7761V9.12109Z" fill="#5CA939"/>
<path d="M10.7761 9.78906H10.1094V10.4558H10.7761V9.78906Z" fill="#01ACFD"/>
<path d="M11.4441 9.12109H10.7773V9.78782H11.4441V9.12109Z" fill="#01ACFD"/>
<path d="M11.4441 10.4551H10.7773V11.1218H11.4441V10.4551Z" fill="#01ACFD"/>
<path d="M11.4441 9.78906H10.7773V10.4558H11.4441V9.78906Z" fill="#01ACFD"/>
<path d="M11.4441 11.1211H10.7773V11.7878H11.4441V11.1211Z" fill="#01ACFD"/>
<path d="M7.44407 3.78711H6.77734V4.45383H7.44407V3.78711Z" fill="#FCF1FE"/>
<path d="M6.10813 4.45312H5.44141V5.11985H6.10813V4.45312Z" fill="#F02D5E"/>
<path d="M6.10813 5.12109H5.44141V5.78782H6.10813V5.12109Z" fill="#D33824"/>
<path d="M8.10813 4.45312H7.44141V5.11985H8.10813V4.45312Z" fill="#EACEF2"/>
<path d="M8.10813 3.78711H7.44141V4.45383H8.10813V3.78711Z" fill="#FCF1FE"/>
<path d="M2.7761 4.45312H2.10938V5.11985H2.7761V4.45312Z" fill="#C811A0"/>
<path d="M2.10813 4.45312H1.44141V5.11985H2.10813V4.45312Z" fill="#F02D5E"/>
<path d="M3.44407 5.12109H2.77734V5.78782H3.44407V5.12109Z" fill="#F02D5E"/>
<path d="M2.7761 5.12109H2.10938V5.78782H2.7761V5.12109Z" fill="#F02D5E"/>
<path d="M2.10813 5.12109H1.44141V5.78782H2.10813V5.12109Z" fill="#F02D5E"/>
<path d="M0.7761 7.12109H0.109375V7.78782H0.7761V7.12109Z" fill="#3D4552"/>
<path d="M0.7761 7.78711H0.109375V8.45383H0.7761V7.78711Z" fill="#3D4552"/>
<path d="M4.7761 6.45508H4.10938V7.1218H4.7761V6.45508Z" fill="#3D4552"/>
<path d="M4.7761 7.12109H4.10938V7.78782H4.7761V7.12109Z" fill="#3D4552"/>
<path d="M1.44016 9.12109H0.773438V9.78782H1.44016V9.12109Z" fill="#3D4552"/>
<path d="M2.10813 9.78906H1.44141V10.4558H2.10813V9.78906Z" fill="#3D4552"/>
<path d="M2.7761 9.78906H2.10938V10.4558H2.7761V9.78906Z" fill="#3D4552"/>
<path d="M2.10813 5.78711H1.44141V6.45383H2.10813V5.78711Z" fill="#3D4552"/>
<path d="M2.7761 5.78711H2.10938V6.45383H2.7761V5.78711Z" fill="#3D4552"/>
<path d="M3.44407 5.78711H2.77734V6.45383H3.44407V5.78711Z" fill="#3D4552"/>
<path d="M6.10813 5.78711H5.44141V6.45383H6.10813V5.78711Z" fill="#3D4552"/>
<path d="M6.7761 6.45508H6.10938V7.1218H6.7761V6.45508Z" fill="#3D4552"/>
<path d="M6.7761 7.12109H6.10938V7.78782H6.7761V7.12109Z" fill="#3D4552"/>
<path d="M7.44407 7.78711H6.77734V8.45383H7.44407V7.78711Z" fill="#3D4552"/>
<path d="M7.44407 8.45508H6.77734V9.1218H7.44407V8.45508Z" fill="#3D4552"/>
<path d="M7.44407 9.12109H6.77734V9.78782H7.44407V9.12109Z" fill="#3D4552"/>
<path d="M8.10813 9.78906H7.44141V10.4558H8.10813V9.78906Z" fill="#3D4552"/>
<path d="M8.10813 10.4551H7.44141V11.1218H8.10813V10.4551Z" fill="#3D4552"/>
<path d="M8.7761 11.1211H8.10938V11.7878H8.7761V11.1211Z" fill="#3D4552"/>
<path d="M9.44407 11.7891H8.77734V12.4558H9.44407V11.7891Z" fill="#3D4552"/>
<path d="M10.112 11.1211H9.44531V11.7878H10.112V11.1211Z" fill="#3D4552"/>
<path d="M10.7761 11.1211H10.1094V11.7878H10.7761V11.1211Z" fill="#3D4552"/>
<path d="M11.4441 11.7891H10.7773V12.4558H11.4441V11.7891Z" fill="#3D4552"/>
<path d="M11.4441 7.78711H10.7773V8.45383H11.4441V7.78711Z" fill="#3D4552"/>
<path d="M10.7761 7.78711H10.1094V8.45383H10.7761V7.78711Z" fill="#3D4552"/>
<path d="M10.112 7.12109H9.44531V7.78782H10.112V7.12109Z" fill="#3D4552"/>
<path d="M9.44407 6.45508H8.77734V7.1218H9.44407V6.45508Z" fill="#3D4552"/>
<path d="M8.7761 5.78711H8.10938V6.45383H8.7761V5.78711Z" fill="#3D4552"/>
<path d="M8.10813 5.12109H7.44141V5.78782H8.10813V5.12109Z" fill="#3D4552"/>
<path d="M8.7761 4.45312H8.10938V5.11985H8.7761V4.45312Z" fill="#3D4552"/>
<path d="M8.7761 3.78711H8.10938V4.45383H8.7761V3.78711Z" fill="#3D4552"/>
<path d="M8.10813 3.12109H7.44141V3.78782H8.10813V3.12109Z" fill="#3D4552"/>
<path d="M7.44407 3.12109H6.77734V3.78782H7.44407V3.12109Z" fill="#3D4552"/>
<path d="M6.7761 3.78711H6.10938V4.45383H6.7761V3.78711Z" fill="#3D4552"/>
<path d="M6.10813 3.78711H5.44141V4.45383H6.10813V3.78711Z" fill="#3D4552"/>
<path d="M5.44407 3.78711H4.77734V4.45383H5.44407V3.78711Z" fill="#3D4552"/>
<path d="M4.7761 3.12109H4.10938V3.78782H4.7761V3.12109Z" fill="#3D4552"/>
<path d="M4.10813 2.45312H3.44141V3.11985H4.10813V2.45312Z" fill="#3D4552"/>
<path d="M3.44391 1.78711H2.77718V2.45383H3.44391V1.78711Z" fill="#3D4552"/>
<path d="M2.77596 1.11914H2.10923V1.78587H2.77596V1.11914Z" fill="#3D4552"/>
<path d="M2.10813 0.453125H1.44141V1.11985H2.10813V0.453125Z" fill="#3D4552"/>
<path d="M2.10813 2.45312H1.44141V3.11985H2.10813V2.45312Z" fill="#3D4552"/>
<path d="M1.44016 1.78711H0.773438V2.45383H1.44016V1.78711Z" fill="#3D4552"/>
<path d="M1.44016 1.11914H0.773438V1.78587H1.44016V1.11914Z" fill="#3D4552"/>
<path d="M1.44016 0.453125H0.773438V1.11985H1.44016V0.453125Z" fill="#3D4552"/>
<path d="M2.77596 3.12109H2.10923V3.78782H2.77596V3.12109Z" fill="#3D4552"/>
<path d="M2.77596 3.78711H2.10923V4.45383H2.77596V3.78711Z" fill="#3D4552"/>
<path d="M2.10813 3.78711H1.44141V4.45383H2.10813V3.78711Z" fill="#3D4552"/>
<path d="M1.44016 3.78711H0.773438V4.45383H1.44016V3.78711Z" fill="#3D4552"/>
<path d="M1.44016 4.45312H0.773438V5.11985H1.44016V4.45312Z" fill="#3D4552"/>
<path d="M1.44016 5.12109H0.773438V5.78782H1.44016V5.12109Z" fill="#3D4552"/>
<path d="M10.7761 10.4551H10.1094V11.1218H10.7761V10.4551Z" fill="#3D4552"/>
<path d="M4.10813 5.12109H3.44141V5.78782H4.10813V5.12109Z" fill="#3D4552"/>
<path d="M4.7761 5.12109H4.10938V5.78782H4.7761V5.12109Z" fill="#3D4552"/>
<path d="M5.44407 5.12109H4.77734V5.78782H5.44407V5.12109Z" fill="#3D4552"/>
<path d="M3.44407 9.78906H2.77734V10.4558H3.44407V9.78906Z" fill="#3D4552"/>
<path d="M4.10813 9.78906H3.44141V10.4558H4.10813V9.78906Z" fill="#3D4552"/>
<path d="M4.7761 9.78906H4.10938V10.4558H4.7761V9.78906Z" fill="#3D4552"/>
<path d="M4.7761 10.4551H4.10938V11.1218H4.7761V10.4551Z" fill="#3D4552"/>
<path d="M4.7761 11.1211H4.10938V11.7878H4.7761V11.1211Z" fill="#3D4552"/>
<path d="M4.7761 11.7891H4.10938V12.4558H4.7761V11.7891Z" fill="#3D4552"/>
<path d="M5.44407 9.78906H4.77734V10.4558H5.44407V9.78906Z" fill="#3D4552"/>
<path d="M1.44016 6.45508H0.773438V7.1218H1.44016V6.45508Z" fill="#3D4552"/>
<path d="M0.7761 8.45508H0.109375V9.1218H0.7761V8.45508Z" fill="#3D4552"/>
</svg>
