<svg width="112" height="34" viewBox="0 0 112 34" fill="none" xmlns="http://www.w3.org/2000/svg">
<path d="M18.9476 9.81585H15.6176L10.8056 22.3019H13.8206L14.6066 20.1869H19.1526L18.3296 17.8469H15.3326L17.2796 12.4739L20.7456 22.3019H23.7596L18.9476 9.81585ZM69.5656 22.3019V9.81585H72.2426V19.9619H77.5206V22.3019H69.5656ZM84.9956 22.3019V9.81585H87.6726V19.9619H92.9526V22.3019H84.9956ZM54.7406 12.0619C55.805 12.0632 56.8255 12.4866 57.5782 13.2393C58.3308 13.992 58.7543 15.0124 58.7556 16.0769C58.7543 17.1413 58.3308 18.1618 57.5782 18.9144C56.8255 19.6671 55.805 20.0905 54.7406 20.0919C53.6761 20.0905 52.6557 19.6671 51.903 18.9144C51.1503 18.1618 50.7269 17.1413 50.7256 16.0769C50.7269 15.0124 51.1503 13.992 51.903 13.2393C52.6557 12.4866 53.6761 12.0632 54.7406 12.0619ZM54.7406 9.61885C53.028 9.61938 51.3857 10.2999 50.1747 11.5109C48.9637 12.7219 48.2831 14.3642 48.2826 16.0769C48.2829 17.7896 48.9633 19.4322 50.1743 20.6434C51.3853 21.8546 53.0278 22.5353 54.7406 22.5359C56.4535 22.5356 58.0963 21.855 59.3075 20.6438C60.5187 19.4325 61.1993 17.7898 61.1996 16.0769C61.1991 14.3641 60.5184 12.7216 59.3071 11.5106C58.0959 10.2996 56.4534 9.61912 54.7406 9.61885ZM105.258 12.0619C106.322 12.0632 107.342 12.4866 108.095 13.2393C108.848 13.992 109.271 15.0124 109.273 16.0769C109.271 17.1413 108.848 18.1618 108.095 18.9144C107.342 19.6671 106.322 20.0905 105.258 20.0919C104.193 20.0908 103.172 19.6675 102.419 18.9148C101.666 18.1621 101.243 17.1415 101.242 16.0769C101.243 15.0122 101.666 13.9916 102.419 13.2389C103.172 12.4862 104.193 12.0629 105.258 12.0619ZM105.258 9.61885C103.545 9.61912 101.902 10.2996 100.691 11.5106C99.4798 12.7216 98.7991 14.3641 98.7986 16.0769C98.7989 17.7898 99.4794 19.4325 100.691 20.6438C101.902 21.855 103.545 22.5356 105.258 22.5359C106.971 22.5356 108.613 21.855 109.825 20.6438C111.036 19.4325 111.716 17.7898 111.717 16.0769C111.716 14.3641 111.035 12.7216 109.824 11.5106C108.613 10.2996 106.97 9.61912 105.258 9.61885ZM37.3696 9.82485H31.5456V22.3019H34.2056V18.0049H37.3696C39.5896 18.0049 41.3876 16.1289 41.3876 13.9099C41.3876 11.6909 39.5876 9.81585 37.3696 9.81585V9.82485ZM37.3696 15.5699H34.2056V12.2669H37.3696C38.2376 12.2669 38.9436 13.0469 38.9436 13.9169C38.9436 14.7869 38.2376 15.5669 37.3696 15.5669V15.5699ZM29.2516 26.0999C29.1407 26.0996 29.0315 26.1269 28.9338 26.1793C28.836 26.2316 28.7528 26.3074 28.6916 26.3999L27.7686 27.4079C26.4006 28.7759 24.8086 29.8479 23.0356 30.6079C21.2023 31.3839 19.2313 31.7818 17.2406 31.7779C15.2286 31.7779 13.2806 31.3849 11.4456 30.6079C9.67613 29.8612 8.06865 28.7778 6.71259 27.4179C5.35249 26.0615 4.26847 24.4541 3.52059 22.6849C2.74455 20.8418 2.34667 18.8616 2.35059 16.8619C2.34688 14.8712 2.74482 12.9002 3.52059 11.0669C4.26824 9.29747 5.3523 7.69007 6.71259 6.33385C8.08059 4.96585 9.67459 3.89385 11.4456 3.14185C13.2788 2.36583 15.2499 1.96788 17.2406 1.97185C19.2526 1.97185 21.2006 2.36485 23.0356 3.14185C24.3203 3.68478 25.5219 4.40659 26.6046 5.28585C26.5446 5.46085 26.5046 5.64385 26.5046 5.82885C26.5046 6.16113 26.6031 6.48594 26.7877 6.76221C26.9723 7.03849 27.2347 7.25382 27.5417 7.38097C27.8487 7.50813 28.1864 7.5414 28.5123 7.47657C28.8382 7.41175 29.1376 7.25175 29.3725 7.01679C29.6075 6.78184 29.7675 6.48249 29.8323 6.15661C29.8971 5.83072 29.8639 5.49292 29.7367 5.18595C29.6095 4.87897 29.3942 4.61659 29.1179 4.43199C28.8417 4.24738 28.5169 4.14885 28.1846 4.14885C27.9613 4.14864 27.7403 4.19318 27.5346 4.27985C24.7296 1.97985 21.1416 0.599854 17.2306 0.599854C8.24559 0.597854 0.975586 7.87885 0.975586 16.8619C0.975586 25.8449 8.25759 33.1259 17.2396 33.1259C22.2646 33.1259 26.7546 30.8459 29.7376 27.2659C29.8616 27.1419 29.9376 26.9699 29.9376 26.7799C29.9371 26.5975 29.8644 26.4229 29.7355 26.2939C29.6066 26.165 29.4319 26.0924 29.2496 26.0919L29.2516 26.0999Z" fill="#333333"/>
</svg>
