<svg width="132" height="40" viewBox="0 0 132 40" fill="none" xmlns="http://www.w3.org/2000/svg">
<path d="M26.7102 12.6653H23.2443L18.236 25.6608H21.374L22.1921 23.4595H26.9235L26.067 21.024H22.9477L24.9741 15.4318L28.5815 25.6608H31.7185L26.7102 12.6653ZM79.3934 25.6608V12.6653H82.1797V23.2253H87.673V25.6608H79.3934ZM95.453 25.6608V12.6653H98.2392V23.2253H103.735V25.6608H95.453ZM63.9636 15.003C65.0714 15.0043 66.1335 15.445 66.9169 16.2284C67.7002 17.0118 68.141 18.0738 68.1424 19.1818C68.141 20.2896 67.7002 21.3517 66.9169 22.135C66.1335 22.9184 65.0714 23.3591 63.9636 23.3606C62.8556 23.3591 61.7936 22.9184 61.0102 22.135C60.2268 21.3517 59.7861 20.2896 59.7847 19.1818C59.7861 18.0738 60.2268 17.0118 61.0102 16.2284C61.7936 15.445 62.8556 15.0043 63.9636 15.003ZM63.9636 12.4602C62.1811 12.4608 60.4718 13.1691 59.2114 14.4295C57.951 15.6899 57.2426 17.3992 57.2421 19.1818C57.2424 20.9643 57.9505 22.674 59.211 23.9346C60.4714 25.1952 62.1809 25.9037 63.9636 25.9043C65.7463 25.904 67.4562 25.1956 68.7168 23.935C69.9774 22.6743 70.6858 20.9646 70.6861 19.1818C70.6856 17.3991 69.9771 15.6896 68.7164 14.4292C67.4558 13.1687 65.7462 12.4605 63.9636 12.4602ZM116.542 15.003C117.65 15.0043 118.711 15.445 119.495 16.2284C120.279 17.0118 120.719 18.0738 120.721 19.1818C120.719 20.2896 120.279 21.3517 119.495 22.135C118.711 22.9184 117.65 23.3591 116.542 23.3606C115.434 23.3594 114.371 22.9189 113.587 22.1355C112.804 21.352 112.363 20.2898 112.362 19.1818C112.363 18.0736 112.804 17.0114 113.587 16.228C114.371 15.4446 115.434 15.004 116.542 15.003ZM116.542 12.4602C114.759 12.4605 113.049 13.1687 111.789 14.4292C110.528 15.6896 109.82 17.3991 109.819 19.1818C109.819 20.9646 110.528 22.6743 111.789 23.935C113.049 25.1956 114.759 25.904 116.542 25.9043C118.325 25.904 120.034 25.1956 121.295 23.935C122.556 22.6743 123.264 20.9646 123.265 19.1818C123.264 17.3991 122.555 15.6896 121.294 14.4292C120.034 13.1687 118.324 12.4605 116.542 12.4602ZM45.8838 12.6746H39.8222V25.6608H42.5907V21.1884H45.8838C48.1944 21.1884 50.0657 19.2359 50.0657 16.9264C50.0657 14.6168 48.1923 12.6653 45.8838 12.6653V12.6746ZM45.8838 18.6541H42.5907V15.2163H45.8838C46.7872 15.2163 47.522 16.0281 47.522 16.9336C47.522 17.8391 46.7872 18.651 45.8838 18.651V18.6541ZM37.4346 29.6137C37.3192 29.6134 37.2055 29.6418 37.1038 29.6964C37.002 29.7508 36.9154 29.8297 36.8517 29.926L35.8911 30.9751C34.4673 32.3989 32.8103 33.5146 30.965 34.3056C29.0569 35.1133 27.0054 35.5274 24.9335 35.5234C22.8394 35.5234 20.812 35.1143 18.9021 34.3056C17.0604 33.5285 15.3874 32.4009 13.976 30.9855C12.5604 29.5737 11.4321 27.9008 10.6537 26.0594C9.84602 24.1411 9.43191 22.0801 9.43599 19.9988C9.43213 17.9269 9.8463 15.8755 10.6537 13.9674C11.4319 12.1257 12.5602 10.4527 13.976 9.04119C15.3998 7.61738 17.0588 6.50164 18.9021 5.71895C20.8101 4.91127 22.8616 4.49709 24.9335 4.50122C27.0276 4.50122 29.0551 4.91025 30.965 5.71895C32.3021 6.28404 33.5527 7.0353 34.6796 7.95043C34.6171 8.13257 34.5755 8.32304 34.5755 8.51559C34.5755 8.86142 34.678 9.19949 34.8702 9.48703C35.0623 9.77458 35.3354 9.9987 35.6549 10.131C35.9744 10.2634 36.3259 10.298 36.6651 10.2305C37.0043 10.1631 37.3159 9.99654 37.5604 9.752C37.805 9.50746 37.9715 9.1959 38.039 8.85672C38.1064 8.51753 38.0719 8.16595 37.9395 7.84646C37.8071 7.52695 37.583 7.25387 37.2954 7.06173C37.008 6.86959 36.6699 6.76704 36.3241 6.76704C36.0916 6.76682 35.8616 6.81318 35.6475 6.90339C32.7281 4.50954 28.9937 3.07324 24.9231 3.07324C15.5715 3.07116 8.00488 10.6492 8.00488 19.9988C8.00488 29.3483 15.584 36.9264 24.9325 36.9264C30.1625 36.9264 34.8357 34.5534 37.9404 30.8273C38.0695 30.6982 38.1486 30.5192 38.1486 30.3215C38.1481 30.1316 38.0724 29.9499 37.9382 29.8156C37.8041 29.6815 37.6222 29.6059 37.4325 29.6054L37.4346 29.6137Z" fill="#333333"/>
</svg>
