<svg width="180" height="26" viewBox="0 0 180 26" fill="none" xmlns="http://www.w3.org/2000/svg">
<g clip-path="url(#clip0_1248_10591)">
<path fill-rule="evenodd" clip-rule="evenodd" d="M0 25.8927H25.4239V0.46875H0V25.8927ZM22.8525 23.3212V3.08165H2.6129V23.3212H22.8525Z" fill="#464646"/>
<path d="M51.8034 15.4408H49.0661C48.6514 17.9293 46.9924 19.3394 44.7113 19.3394C41.6836 19.3394 39.6929 16.9754 39.6929 13.2012C39.6929 9.46845 41.6007 7.06293 44.5454 7.06293C46.9509 7.06293 48.4855 8.47307 48.9417 11.003H51.679C51.1398 7.31178 48.1537 4.90625 44.4624 4.90625C39.9832 4.90625 36.9141 8.59749 36.9141 13.2012C36.9141 17.9707 40.0661 21.4961 44.5454 21.4961C48.2366 21.4961 51.2228 19.132 51.8034 15.4408Z" fill="#464646"/>
<path fill-rule="evenodd" clip-rule="evenodd" d="M64.3689 15.4415C64.3689 12.2894 62.1707 9.34473 58.6454 9.34473C55.0786 9.34473 52.9219 12.2894 52.9219 15.4415C52.9219 18.5936 55.12 21.5383 58.6454 21.5383C62.1707 21.4968 64.3689 18.5936 64.3689 15.4415ZM55.5763 15.4415C55.5763 12.953 56.6961 11.2526 58.6039 11.2526C60.5532 11.2526 61.673 12.953 61.673 15.4415C61.673 17.93 60.5532 19.6304 58.6039 19.6304C56.6546 19.6304 55.5763 17.93 55.5763 15.4415Z" fill="#464646"/>
<path fill-rule="evenodd" clip-rule="evenodd" d="M74.319 18.8414H74.2361C73.6554 20.4589 72.3283 21.5372 70.5448 21.5372C67.3513 21.5372 65.6094 18.7169 65.6094 15.4405C65.6094 12.164 67.3928 9.34369 70.5448 9.34369C72.3283 9.34369 73.6969 10.3806 74.2361 11.9981H74.319V5.11328H76.8075V21.2469H74.319V18.8414ZM71.3743 11.2515C69.425 11.2515 68.3467 12.952 68.3467 15.4405C68.3467 17.9289 69.4665 19.6294 71.3743 19.6294C73.3236 19.6294 74.402 17.9289 74.402 15.4405C74.402 12.9105 73.3236 11.2515 71.3743 11.2515Z" fill="#464646"/>
<path fill-rule="evenodd" clip-rule="evenodd" d="M89.4191 17.6391H86.8477C86.5573 18.593 85.8938 19.5884 84.4007 19.5884C82.6173 19.5884 81.373 18.3442 81.2486 16.229H89.6265C89.9583 12.1645 87.6772 9.30273 84.1933 9.30273C80.7094 9.30273 78.7188 12.1645 78.7188 15.3995C78.7188 18.6345 80.7509 21.4963 84.2348 21.4963C87.0965 21.4963 88.9214 19.9617 89.4191 17.6391ZM84.1933 11.252C85.8938 11.252 86.8891 12.4548 87.055 14.3626H81.2901C81.456 12.4548 82.4928 11.252 84.1933 11.252Z" fill="#464646"/>
<path d="M99.4963 11.9989C102.524 12.7039 104.059 14.28 104.059 16.8514C104.059 19.5472 101.446 21.538 97.6714 21.538C93.3995 21.538 91.077 18.5518 90.8281 15.6072H93.5655C93.7313 17.7224 95.4318 19.3399 97.7129 19.3399C99.7866 19.3399 101.28 18.4689 101.28 16.9343C101.28 15.6071 100.284 14.9021 98.2106 14.4459L95.888 13.9067C92.7359 13.1602 91.1599 11.6671 91.1599 9.42744C91.1599 6.73159 93.8143 4.86523 97.0908 4.86523C101.197 4.86523 103.312 7.10486 103.602 9.88366H100.865C100.658 7.97582 99.0401 7.02191 97.1323 7.02191C95.2659 7.02191 93.9387 7.80993 93.9387 9.17859C93.9387 10.2984 94.7682 10.7961 97.1323 11.3353L99.4963 11.9989Z" fill="#464646"/>
<path fill-rule="evenodd" clip-rule="evenodd" d="M113.888 18.8419H113.971V21.2889H116.46V9.59312H113.971V12.0401H113.888C113.308 10.4226 111.981 9.38574 110.197 9.38574C107.087 9.38574 105.262 12.206 105.262 15.4825C105.262 18.759 107.004 21.5793 110.197 21.5793C111.981 21.4963 113.349 20.418 113.888 18.8419ZM107.999 15.441C107.999 12.9526 109.119 11.2521 111.027 11.2521C112.935 11.2521 114.096 12.9526 114.096 15.441C114.096 17.9295 112.935 19.63 111.027 19.63C109.119 19.63 107.999 17.9295 107.999 15.441Z" fill="#464646"/>
<path d="M121.603 14.2382V21.2474H119.031V9.55159H121.52V11.8327H121.561C122.059 10.1737 123.262 9.30273 124.962 9.30273C127.534 9.30273 128.819 11.0447 128.819 13.6161V21.2059H126.248V14.3626C126.248 12.206 125.46 11.2106 123.925 11.2106C122.391 11.2106 121.603 12.3304 121.603 14.2382Z" fill="#464646"/>
<path fill-rule="evenodd" clip-rule="evenodd" d="M139.271 18.8419H139.354V21.2889H141.843V5.15527H139.354V12.0401H139.271C138.691 10.4225 137.363 9.38568 135.58 9.38568C132.469 9.38568 130.645 12.2059 130.645 15.4824C130.645 18.7589 132.386 21.5792 135.58 21.5792C137.322 21.4963 138.691 20.4179 139.271 18.8419ZM133.34 15.441C133.34 12.9525 134.46 11.252 136.368 11.252C138.317 11.252 139.396 12.9525 139.396 15.441C139.396 17.9294 138.317 19.6299 136.368 19.6299C134.419 19.6299 133.34 17.9294 133.34 15.441Z" fill="#464646"/>
<path fill-rule="evenodd" clip-rule="evenodd" d="M150.677 9.34421C153.787 9.34421 155.612 12.1645 155.612 15.441C155.612 18.7175 153.87 21.5377 150.677 21.5377C148.893 21.5377 147.525 20.4594 146.985 18.8419H146.903V21.2889H144.414V5.15527H146.903V12.0401H146.985C147.525 10.3811 148.893 9.34421 150.677 9.34421ZM149.847 11.252C147.898 11.252 146.82 12.9525 146.82 15.441C146.82 17.9294 147.898 19.6299 149.847 19.6299C151.797 19.6299 152.875 17.9294 152.875 15.441C152.875 12.911 151.797 11.252 149.847 11.252Z" fill="#464646"/>
<path fill-rule="evenodd" clip-rule="evenodd" d="M168.345 15.4415C168.345 12.2894 166.147 9.34473 162.622 9.34473C159.097 9.34473 156.898 12.2894 156.898 15.4415C156.898 18.5936 159.055 21.5383 162.622 21.5383C166.189 21.5383 168.345 18.5936 168.345 15.4415ZM159.553 15.4415C159.553 12.953 160.673 11.2526 162.58 11.2526C164.53 11.2526 165.65 12.953 165.65 15.4415C165.65 17.93 164.53 19.6304 162.58 19.6304C160.673 19.6304 159.553 17.93 159.553 15.4415Z" fill="#464646"/>
<path d="M174.027 16.7264L170.916 21.2886H168.055L172.534 14.9845L168.635 9.59277H171.497L174.027 13.2425L176.557 9.59277H179.419L175.52 14.9845L179.999 21.2886H177.138L174.027 16.7264Z" fill="#464646"/>
</g>
<defs>
<clipPath id="clip0_1248_10591">
<rect width="180" height="26" fill="white"/>
</clipPath>
</defs>
</svg>
