<svg width="171" height="40" viewBox="0 0 171 40" fill="none" xmlns="http://www.w3.org/2000/svg">
<mask id="mask0_1412_235" style="mask-type:luminance" maskUnits="userSpaceOnUse" x="16" y="8" width="140" height="20">
<path d="M155.215 8H16.7536V28H155.215V8Z" fill="white"/>
</mask>
<g mask="url(#mask0_1412_235)">
<path fill-rule="evenodd" clip-rule="evenodd" d="M16.7536 27.9175H36.3104V8.36058H16.7536V27.9175ZM34.3324 25.9394V10.3705H18.7635V25.9394H34.3324Z" fill="#464646"/>
<path d="M56.6023 19.8773H54.4967C54.1777 21.7916 52.9016 22.8763 51.1469 22.8763C48.8179 22.8763 47.2866 21.0578 47.2866 18.1546C47.2866 15.2832 48.7541 13.4328 51.0193 13.4328C52.8696 13.4328 54.0501 14.5175 54.401 16.4636H56.5066C56.0919 13.6242 53.7949 11.7738 50.9554 11.7738C47.5099 11.7738 45.149 14.6133 45.149 18.1546C45.149 21.8234 47.5736 24.5353 51.0193 24.5353C53.8586 24.5353 56.1557 22.7167 56.6023 19.8773Z" fill="#464646"/>
<path fill-rule="evenodd" clip-rule="evenodd" d="M66.2681 19.8779C66.2681 17.4532 64.5772 15.1881 61.8654 15.1881C59.1217 15.1881 57.4627 17.4532 57.4627 19.8779C57.4627 22.3026 59.1536 24.5677 61.8654 24.5677C64.5772 24.5358 66.2681 22.3026 66.2681 19.8779ZM59.5046 19.8779C59.5046 17.9636 60.366 16.6556 61.8335 16.6556C63.333 16.6556 64.1944 17.9636 64.1944 19.8779C64.1944 21.7921 63.333 23.1001 61.8335 23.1001C60.334 23.1001 59.5046 21.7921 59.5046 19.8779Z" fill="#464646"/>
<path fill-rule="evenodd" clip-rule="evenodd" d="M73.922 22.4932H73.8583C73.4116 23.7374 72.3907 24.5669 71.0188 24.5669C68.5623 24.5669 67.2224 22.3974 67.2224 19.8771C67.2224 17.3567 68.5942 15.1873 71.0188 15.1873C72.3907 15.1873 73.4435 15.9849 73.8583 17.2291H73.922V11.9331H75.8363V24.3436H73.922V22.4932ZM71.6569 16.6548C70.1574 16.6548 69.328 17.9629 69.328 19.8771C69.328 21.7913 70.1894 23.0993 71.6569 23.0993C73.1564 23.0993 73.9859 21.7913 73.9859 19.8771C73.9859 17.931 73.1564 16.6548 71.6569 16.6548Z" fill="#464646"/>
<path fill-rule="evenodd" clip-rule="evenodd" d="M85.5375 21.5683H83.5595C83.3361 22.3021 82.8257 23.0678 81.6772 23.0678C80.3053 23.0678 79.3482 22.1107 79.2525 20.4837H85.697C85.9523 17.3571 84.1976 15.1558 81.5176 15.1558C78.8377 15.1558 77.3065 17.3571 77.3065 19.8456C77.3065 22.334 78.8696 24.5354 81.5496 24.5354C83.7509 24.5354 85.1546 23.355 85.5375 21.5683ZM81.5176 16.6552C82.8257 16.6552 83.5913 17.5804 83.7189 19.048H79.2844C79.412 17.5804 80.2096 16.6552 81.5176 16.6552Z" fill="#464646"/>
<path d="M93.2892 17.2297C95.6182 17.772 96.799 18.9844 96.799 20.9624C96.799 23.0361 94.789 24.5675 91.8855 24.5675C88.5994 24.5675 86.8129 22.2704 86.6214 20.0053H88.7271C88.8546 21.6324 90.1627 22.8767 91.9174 22.8767C93.5126 22.8767 94.6613 22.2067 94.6613 21.0262C94.6613 20.0053 93.8952 19.463 92.3002 19.112L90.5136 18.6973C88.0889 18.123 86.8766 16.9745 86.8766 15.2517C86.8766 13.178 88.9185 11.7423 91.4389 11.7423C94.5975 11.7423 96.2244 13.4651 96.4475 15.6026H94.3421C94.1829 14.1351 92.9383 13.4013 91.4708 13.4013C90.0351 13.4013 89.0142 14.0074 89.0142 15.0603C89.0142 15.9217 89.6522 16.3045 91.4708 16.7193L93.2892 17.2297Z" fill="#464646"/>
<path fill-rule="evenodd" clip-rule="evenodd" d="M104.36 22.4936H104.423V24.3759H106.338V15.3791H104.423V17.2614H104.36C103.913 16.0172 102.893 15.2196 101.52 15.2196C99.128 15.2196 97.7242 17.389 97.7242 19.9094C97.7242 22.4298 99.0641 24.5993 101.52 24.5993C102.893 24.5354 103.945 23.706 104.36 22.4936ZM99.8295 19.8775C99.8295 17.9633 100.691 16.6553 102.159 16.6553C103.626 16.6553 104.52 17.9633 104.52 19.8775C104.52 21.7917 103.626 23.0998 102.159 23.0998C100.691 23.0998 99.8295 21.7917 99.8295 19.8775Z" fill="#464646"/>
<path d="M110.295 18.9523V24.344H108.316V15.3472H110.231V17.1019H110.262C110.645 15.8257 111.571 15.1558 112.878 15.1558C114.857 15.1558 115.845 16.4957 115.845 18.4737V24.312H113.868V19.048C113.868 17.389 113.261 16.6233 112.081 16.6233C110.901 16.6233 110.295 17.4847 110.295 18.9523Z" fill="#464646"/>
<path fill-rule="evenodd" clip-rule="evenodd" d="M123.885 22.4936H123.949V24.3759H125.863V11.9654H123.949V17.2614H123.885C123.439 16.0171 122.417 15.2196 121.046 15.2196C118.652 15.2196 117.249 17.389 117.249 19.9093C117.249 22.4297 118.589 24.5992 121.046 24.5992C122.386 24.5354 123.439 23.7059 123.885 22.4936ZM119.322 19.8775C119.322 17.9633 120.184 16.6552 121.652 16.6552C123.151 16.6552 123.981 17.9633 123.981 19.8775C123.981 21.7917 123.151 23.0997 121.652 23.0997C120.152 23.0997 119.322 21.7917 119.322 19.8775Z" fill="#464646"/>
<path fill-rule="evenodd" clip-rule="evenodd" d="M132.659 15.1877C135.051 15.1877 136.455 17.3571 136.455 19.8775C136.455 22.3979 135.115 24.5673 132.659 24.5673C131.287 24.5673 130.234 23.7378 129.819 22.4936H129.756V24.3759H127.841V11.9654H129.756V17.2614H129.819C130.234 15.9853 131.287 15.1877 132.659 15.1877ZM132.021 16.6552C130.521 16.6552 129.692 17.9633 129.692 19.8775C129.692 21.7917 130.521 23.0997 132.021 23.0997C133.521 23.0997 134.35 21.7917 134.35 19.8775C134.35 17.9313 133.521 16.6552 132.021 16.6552Z" fill="#464646"/>
<path fill-rule="evenodd" clip-rule="evenodd" d="M146.25 19.8779C146.25 17.4532 144.559 15.1881 141.848 15.1881C139.136 15.1881 137.445 17.4532 137.445 19.8779C137.445 22.3026 139.104 24.5677 141.848 24.5677C144.592 24.5677 146.25 22.3026 146.25 19.8779ZM139.487 19.8779C139.487 17.9636 140.349 16.6556 141.815 16.6556C143.315 16.6556 144.177 17.9636 144.177 19.8779C144.177 21.7921 143.315 23.1001 141.815 23.1001C140.349 23.1001 139.487 21.7921 139.487 19.8779Z" fill="#464646"/>
<path d="M150.62 20.8663L148.227 24.3757H146.026L149.472 19.5263L146.473 15.3789H148.674L150.62 18.1863L152.566 15.3789H154.768L151.769 19.5263L155.214 24.3757H153.013L150.62 20.8663Z" fill="#464646"/>
</g>
</svg>
