<svg width="69" height="40" viewBox="0 0 69 40" fill="none" xmlns="http://www.w3.org/2000/svg">
<path d="M60.0871 21.4417C59.9269 21.33 59.958 21.142 59.9138 20.9869C59.6098 19.8435 59.0545 18.8439 58.1017 18.1285C56.3416 16.8162 54.3918 16.6161 52.3996 17.4823C50.4073 18.3485 49.4381 20.0047 49.3029 22.1347C49.1973 23.7804 49.6494 25.2807 50.8483 26.4656C52.6673 28.2595 55.919 28.5134 58.0238 27.053C58.8898 26.4692 59.5074 25.5839 59.7563 24.5696C58.8605 24.5696 58.0021 24.5696 57.143 24.5696C57.1 24.5635 57.0564 24.5683 57.0158 24.5834C56.9753 24.5986 56.9392 24.6235 56.9108 24.6561C56.2819 25.4903 55.375 25.531 54.4542 25.4964C53.4321 25.4582 52.3225 24.7072 52.2272 23.5214H60.0837V23.2616C60.0108 23.0363 60.0108 22.7938 60.0837 22.5686V22.4819C60.0108 22.2567 60.0108 22.0143 60.0837 21.789L60.0871 21.4417ZM52.1873 21.4313C52.3009 20.4092 53.3715 19.491 54.6864 19.4893C55.9856 19.4893 57.1117 20.3468 57.2165 21.4313H52.1873Z" fill="#464646"/>
<path d="M60.0864 22.4781C60.0205 22.3745 59.9855 22.2543 59.9855 22.1316C59.9855 22.0088 60.0205 21.8887 60.0864 21.785V22.4781Z" fill="#464646"/>
<path d="M60.0867 23.2562C60.0206 23.1527 59.9855 23.0325 59.9855 22.9096C59.9855 22.7869 60.0206 22.6666 60.0867 22.5632V23.2562Z" fill="#464646"/>
<path d="M23.6364 17.5732C22.5216 17.5732 21.4709 17.5732 20.4236 17.5732C20.2556 17.5732 20.1742 17.5099 20.0919 17.3687C19.1156 15.6987 17.5912 15.0881 15.7471 15.2785C13.7911 15.4804 12.394 16.5129 11.7418 18.403C11.0219 20.4879 11.6187 22.6932 13.1891 23.963C15.0186 25.4434 18.1637 25.3828 19.8104 23.8332C20.2081 23.4615 20.4978 22.9892 20.6488 22.4663H14.8696C14.7639 22.3156 14.8756 22.2246 14.9181 22.1354C15.1684 21.6036 15.4924 21.096 15.6768 20.5442C15.9185 19.8201 16.3516 19.6641 17.0819 19.6832C19.269 19.7403 21.4596 19.7091 23.6485 19.6971C23.9343 19.6971 24.0314 19.7507 24.0478 20.0599C24.176 22.5191 23.4337 24.6283 21.5359 26.2499C20.1213 27.4625 18.4245 27.9605 16.5882 27.9822C14.705 28.0013 12.9388 27.5647 11.3849 26.4499C9.47924 25.0796 8.4961 23.1766 8.29688 20.8716C8.14616 19.1297 8.45885 17.4605 9.38656 15.9525C10.6174 13.9498 12.4322 12.7848 14.7345 12.3898C16.7041 12.0529 18.6124 12.2668 20.3742 13.256C22.0625 14.2062 23.1219 15.6614 23.6364 17.5732Z" fill="#464646"/>
<path d="M48.9097 12.8365C48.9462 12.5984 48.9462 12.4745 48.6351 12.4831C47.8149 12.5065 46.9937 12.5022 46.1734 12.4831C45.9136 12.477 45.8382 12.5697 45.8019 12.8149C45.6494 13.8665 45.471 14.9136 45.3012 15.9626C45.1755 16.7422 45.0474 17.5218 44.9063 18.388C44.6495 18.0013 44.3013 17.6839 43.8928 17.4638C42.3336 16.569 39.7064 16.9857 38.2217 18.3412C36.6894 19.7419 36.1091 21.5254 36.1784 23.5315C36.2303 25.0664 36.8107 26.3804 38.1325 27.2813C39.7229 28.3658 42.1846 28.2583 43.7395 26.4263C43.9265 26.8127 44.0963 27.1591 44.2634 27.5065C44.3259 27.6365 44.3717 27.756 44.564 27.7542C45.6381 27.7455 46.7131 27.7542 47.8227 27.7542C47.6009 26.9356 47.3982 26.1586 47.1791 25.3869C47.0941 25.1001 47.0734 24.7981 47.1185 24.5024C47.719 20.6144 48.3161 16.7257 48.9097 12.8365ZM42.525 25.0923C40.7554 25.7732 39.2213 24.7459 39.2335 22.8498C39.2482 21.1658 40.4072 19.8077 41.923 19.6994C43.017 19.6205 43.8988 20.1802 44.2531 21.2196C44.6741 22.4418 44.1613 24.4626 42.525 25.0923Z" fill="#464646"/>
<path d="M24.5815 27.7506C24.928 25.5452 25.2744 23.3685 25.6209 21.1909C26.0472 18.4959 26.4718 15.8009 26.8951 13.1058C26.9913 12.4917 26.9817 12.4908 27.5829 12.4908C28.3174 12.4908 29.0554 12.4969 29.7857 12.4864C30.0281 12.4864 30.0914 12.522 30.0454 12.7992C29.2728 17.602 28.5132 22.4073 27.7666 27.2153C27.7024 27.6311 27.5932 27.7852 27.1454 27.7628C26.3043 27.7202 25.4598 27.7506 24.5815 27.7506Z" fill="#464646"/>
<path d="M31.9443 27.7534C31.5415 27.7534 31.137 27.7326 30.7316 27.7594C30.4206 27.7803 30.3851 27.6729 30.4276 27.3939C30.7394 25.4952 31.0339 23.5939 31.3371 21.6935C31.5536 20.331 31.778 18.9702 31.9781 17.605C32.0179 17.3296 32.0855 17.2092 32.3939 17.2187C33.1994 17.2413 34.0076 17.2413 34.8132 17.2187C35.1112 17.2101 35.1336 17.3053 35.092 17.5609C34.7283 19.8008 34.3765 22.0426 34.0215 24.2835C33.8577 25.3228 33.6827 26.3545 33.5398 27.3939C33.4991 27.6876 33.3918 27.7768 33.1067 27.7594C32.7221 27.7353 32.3323 27.7534 31.9443 27.7534Z" fill="#464646"/>
<path d="M35.9855 13.5251C35.9933 14.8357 34.7218 15.8379 33.4537 15.5226C32.4618 15.2756 31.994 14.2666 32.4349 13.2704C32.7944 12.4605 33.4398 12.0335 34.325 12.0015C35.018 11.9772 35.5472 12.2535 35.8642 12.8937C35.9536 13.0917 35.9951 13.308 35.9855 13.5251Z" fill="#464646"/>
</svg>
