<svg width="66" height="48" viewBox="0 0 66 48" fill="none" xmlns="http://www.w3.org/2000/svg">
<rect width="66" height="48" fill="transparent"/>
<path d="M60.8594 25.9416C60.691 25.8242 60.7237 25.6266 60.6773 25.4636C60.3578 24.2619 59.7742 23.2113 58.7728 22.4594C56.9229 21.0801 54.8736 20.8698 52.7798 21.7802C50.6859 22.6906 49.6672 24.4313 49.5251 26.6699C49.4141 28.3996 49.8893 29.9764 51.1493 31.2218C53.0611 33.1072 56.4787 33.374 58.6909 31.8391C59.6011 31.2256 60.2502 30.2951 60.5117 29.229C59.5703 29.229 58.6681 29.229 57.7651 29.229C57.72 29.2226 57.6741 29.2277 57.6315 29.2436C57.5889 29.2595 57.5509 29.2857 57.5211 29.32C56.8601 30.1967 55.907 30.2395 54.9392 30.2031C53.8649 30.163 52.6987 29.3737 52.5986 28.1274H60.8558V27.8543C60.7792 27.6175 60.7792 27.3627 60.8558 27.126V27.0349C60.7792 26.7982 60.7792 26.5434 60.8558 26.3066L60.8594 25.9416ZM52.5567 25.9307C52.676 24.8564 53.8013 23.8914 55.1832 23.8896C56.5487 23.8896 57.7323 24.7908 57.8424 25.9307H52.5567Z" fill="#464646"/>
<path d="M60.8587 27.0306C60.7895 26.9217 60.7527 26.7954 60.7527 26.6664C60.7527 26.5374 60.7895 26.4111 60.8587 26.3022V27.0306Z" fill="#464646"/>
<path d="M60.859 27.8482C60.7896 27.7394 60.7527 27.6131 60.7527 27.484C60.7527 27.355 60.7896 27.2286 60.859 27.1199V27.8482Z" fill="#464646"/>
<path d="M22.5494 21.8753C21.3777 21.8753 20.2734 21.8753 19.1727 21.8753C18.9961 21.8753 18.9106 21.8088 18.8241 21.6604C17.798 19.9052 16.1958 19.2634 14.2576 19.4636C12.2019 19.6758 10.7335 20.7609 10.048 22.7474C9.29145 24.9387 9.9187 27.2565 11.5692 28.5911C13.492 30.147 16.7975 30.0833 18.5282 28.4546C18.9462 28.064 19.2507 27.5676 19.4094 27.018H13.3354C13.2243 26.8596 13.3417 26.764 13.3864 26.6702C13.6494 26.1113 13.9899 25.5778 14.1838 24.9979C14.4378 24.2368 14.893 24.0729 15.6605 24.0929C17.9592 24.153 20.2615 24.1202 22.5621 24.1075C22.8625 24.1075 22.9645 24.1639 22.9818 24.4889C23.1165 27.0735 22.3363 29.2903 20.3417 30.9946C18.855 32.2691 17.0716 32.7925 15.1416 32.8153C13.1624 32.8353 11.3061 32.3765 9.6729 31.2048C7.67006 29.7646 6.63677 27.7645 6.42738 25.342C6.26898 23.5112 6.59762 21.7569 7.57265 20.1719C8.8663 18.0671 10.7736 16.8426 13.1934 16.4275C15.2635 16.0734 17.2691 16.2982 19.1208 17.3379C20.8952 18.3366 22.0086 19.866 22.5494 21.8753Z" fill="#464646"/>
<path d="M49.1119 16.897C49.1502 16.6467 49.1502 16.5165 48.8233 16.5256C47.9612 16.5502 47.0981 16.5456 46.236 16.5256C45.9629 16.5192 45.8837 16.6166 45.8455 16.8743C45.6852 17.9795 45.4977 19.0801 45.3193 20.1826C45.1872 21.0019 45.0525 21.8213 44.9042 22.7317C44.6343 22.3253 44.2684 21.9917 43.839 21.7603C42.2003 20.8199 39.4391 21.2578 37.8787 22.6825C36.2682 24.1546 35.6583 26.0291 35.7311 28.1375C35.7857 29.7507 36.3957 31.1318 37.7849 32.0786C39.4564 33.2184 42.0437 33.1055 43.6779 31.18C43.8745 31.5861 44.0529 31.9502 44.2286 32.3153C44.2942 32.4519 44.3424 32.5775 44.5445 32.5757C45.6734 32.5665 46.8032 32.5757 47.9694 32.5757C47.7363 31.7153 47.5233 30.8987 47.293 30.0876C47.2036 29.7862 47.1819 29.4688 47.2293 29.158C47.8604 25.0716 48.488 20.9846 49.1119 16.897ZM42.4015 29.778C40.5416 30.4936 38.9293 29.4139 38.9421 27.4211C38.9575 25.6512 40.1756 24.2238 41.7688 24.11C42.9186 24.0271 43.8454 24.6153 44.2177 25.7077C44.6602 26.9923 44.1212 29.1162 42.4015 29.778Z" fill="#464646"/>
<path d="M23.5425 32.5723C23.9066 30.2544 24.2707 27.9667 24.6349 25.678C25.0829 22.8455 25.5292 20.013 25.9741 17.1805C26.0752 16.535 26.0651 16.5341 26.697 16.5341C27.4689 16.5341 28.2446 16.5405 29.0121 16.5295C29.2669 16.5295 29.3334 16.5669 29.2851 16.8582C28.4731 21.906 27.6747 26.9564 26.89 32.0097C26.8226 32.4467 26.7078 32.6087 26.2372 32.5851C25.3532 32.5404 24.4656 32.5723 23.5425 32.5723Z" fill="#464646"/>
<path d="M31.2818 32.5751C30.8584 32.5751 30.4333 32.5532 30.0072 32.5814C29.6804 32.6033 29.6431 32.4904 29.6877 32.1972C30.0154 30.2017 30.325 28.2034 30.6436 26.206C30.8712 24.774 31.107 23.3438 31.3173 21.909C31.3591 21.6195 31.4302 21.493 31.7543 21.503C32.6009 21.5267 33.4503 21.5267 34.297 21.503C34.6102 21.4939 34.6338 21.594 34.5901 21.8626C34.2078 24.2168 33.8381 26.5729 33.4649 28.9281C33.2928 30.0205 33.1089 31.1048 32.9587 32.1972C32.9159 32.5059 32.8031 32.5996 32.5035 32.5814C32.0993 32.556 31.6896 32.5751 31.2818 32.5751Z" fill="#464646"/>
<path d="M35.5284 17.621C35.5366 18.9984 34.2002 20.0517 32.8674 19.7203C31.8249 19.4608 31.3333 18.4003 31.7967 17.3533C32.1745 16.5021 32.8528 16.0533 33.7832 16.0196C34.5115 15.9941 35.0677 16.2845 35.4009 16.9573C35.4948 17.1655 35.5385 17.3928 35.5284 17.621Z" fill="#464646"/>
</svg>
