<svg width="132" height="40" viewBox="0 0 132 40" fill="none" xmlns="http://www.w3.org/2000/svg">
<path d="M10.7138 13.0288C11.9678 13.0288 12.9842 11.9931 12.9842 10.7156C12.9842 9.43802 11.9678 8.40234 10.7138 8.40234C9.45988 8.40234 8.44336 9.43802 8.44336 10.7156C8.44336 11.9931 9.45988 13.0288 10.7138 13.0288Z" fill="#464646"/>
<path d="M10.7138 19.5059C11.9678 19.5059 12.9842 18.4702 12.9842 17.1927C12.9842 15.9151 11.9678 14.8794 10.7138 14.8794C9.45988 14.8794 8.44336 15.9151 8.44336 17.1927C8.44336 18.4702 9.45988 19.5059 10.7138 19.5059Z" fill="#464646"/>
<path opacity="0.2" d="M17.0713 13.0288C18.3252 13.0288 19.3418 11.9931 19.3418 10.7156C19.3418 9.43802 18.3252 8.40234 17.0713 8.40234C15.8173 8.40234 14.8008 9.43802 14.8008 10.7156C14.8008 11.9931 15.8173 13.0288 17.0713 13.0288Z" fill="#464646"/>
<path d="M17.0713 19.5684C18.3252 19.5684 19.3418 18.5327 19.3418 17.2552C19.3418 15.9776 18.3252 14.9419 17.0713 14.9419C15.8173 14.9419 14.8008 15.9776 14.8008 17.2552C14.8008 18.5327 15.8173 19.5684 17.0713 19.5684Z" fill="#464646"/>
<path opacity="0.2" d="M23.4277 13.0288C24.6816 13.0288 25.6981 11.9931 25.6981 10.7156C25.6981 9.43802 24.6816 8.40234 23.4277 8.40234C22.1737 8.40234 21.1572 9.43802 21.1572 10.7156C21.1572 11.9931 22.1737 13.0288 23.4277 13.0288Z" fill="#464646"/>
<path opacity="0.2" d="M23.4277 5.62648C24.6816 5.62648 25.6981 4.59079 25.6981 3.31323C25.6981 2.03567 24.6816 1 23.4277 1C22.1737 1 21.1572 2.03567 21.1572 3.31323C21.1572 4.59079 22.1737 5.62648 23.4277 5.62648Z" fill="#464646"/>
<path opacity="0.2" d="M23.4277 19.5684C24.6816 19.5684 25.6981 18.5327 25.6981 17.2552C25.6981 15.9776 24.6816 14.9419 23.4277 14.9419C22.1737 14.9419 21.1572 15.9776 21.1572 17.2552C21.1572 18.5327 22.1737 19.5684 23.4277 19.5684Z" fill="#464646"/>
<path opacity="0.2" d="M29.7861 13.0288C31.04 13.0288 32.0565 11.9931 32.0565 10.7156C32.0565 9.43802 31.04 8.40234 29.7861 8.40234C28.5321 8.40234 27.5156 9.43802 27.5156 10.7156C27.5156 11.9931 28.5321 13.0288 29.7861 13.0288Z" fill="#464646"/>
<path d="M36.1434 13.0288C37.3974 13.0288 38.4139 11.9931 38.4139 10.7156C38.4139 9.43802 37.3974 8.40234 36.1434 8.40234C34.8895 8.40234 33.873 9.43802 33.873 10.7156C33.873 11.9931 34.8895 13.0288 36.1434 13.0288Z" fill="#464646"/>
<path d="M29.7861 19.5684C31.04 19.5684 32.0565 18.5327 32.0565 17.2552C32.0565 15.9776 31.04 14.9419 29.7861 14.9419C28.5321 14.9419 27.5156 15.9776 27.5156 17.2552C27.5156 18.5327 28.5321 19.5684 29.7861 19.5684Z" fill="#464646"/>
<path d="M36.1434 19.5684C37.3974 19.5684 38.4139 18.5327 38.4139 17.2552C38.4139 15.9776 37.3974 14.9419 36.1434 14.9419C34.8895 14.9419 33.873 15.9776 33.873 17.2552C33.873 18.5327 34.8895 19.5684 36.1434 19.5684Z" fill="#464646"/>
<path d="M10.7138 25.9828C11.9678 25.9828 12.9842 24.9472 12.9842 23.6696C12.9842 22.3921 11.9678 21.3564 10.7138 21.3564C9.45988 21.3564 8.44336 22.3921 8.44336 23.6696C8.44336 24.9472 9.45988 25.9828 10.7138 25.9828Z" fill="#464646"/>
<path opacity="0.2" d="M17.0713 26.0459C18.3252 26.0459 19.3418 25.0102 19.3418 23.7327C19.3418 22.4551 18.3252 21.4194 17.0713 21.4194C15.8173 21.4194 14.8008 22.4551 14.8008 23.7327C14.8008 25.0102 15.8173 26.0459 17.0713 26.0459Z" fill="#464646"/>
<path d="M23.4277 26.0459C24.6816 26.0459 25.6981 25.0102 25.6981 23.7327C25.6981 22.4551 24.6816 21.4194 23.4277 21.4194C22.1737 21.4194 21.1572 22.4551 21.1572 23.7327C21.1572 25.0102 22.1737 26.0459 23.4277 26.0459Z" fill="#464646"/>
<path opacity="0.2" d="M29.7861 26.0459C31.04 26.0459 32.0565 25.0102 32.0565 23.7327C32.0565 22.4551 31.04 21.4194 29.7861 21.4194C28.5321 21.4194 27.5156 22.4551 27.5156 23.7327C27.5156 25.0102 28.5321 26.0459 29.7861 26.0459Z" fill="#464646"/>
<path d="M36.1434 26.0459C37.3974 26.0459 38.4139 25.0102 38.4139 23.7327C38.4139 22.4551 37.3974 21.4194 36.1434 21.4194C34.8895 21.4194 33.873 22.4551 33.873 23.7327C33.873 25.0102 34.8895 26.0459 36.1434 26.0459Z" fill="#464646"/>
<path d="M10.7138 32.46C11.9678 32.46 12.9842 31.4243 12.9842 30.1467C12.9842 28.8692 11.9678 27.8335 10.7138 27.8335C9.45988 27.8335 8.44336 28.8692 8.44336 30.1467C8.44336 31.4243 9.45988 32.46 10.7138 32.46Z" fill="#464646"/>
<path opacity="0.2" d="M17.0713 32.523C18.3252 32.523 19.3418 31.4873 19.3418 30.2097C19.3418 28.9322 18.3252 27.8965 17.0713 27.8965C15.8173 27.8965 14.8008 28.9322 14.8008 30.2097C14.8008 31.4873 15.8173 32.523 17.0713 32.523Z" fill="#464646"/>
<path opacity="0.2" d="M23.4277 32.523C24.6816 32.523 25.6981 31.4873 25.6981 30.2097C25.6981 28.9322 24.6816 27.8965 23.4277 27.8965C22.1737 27.8965 21.1572 28.9322 21.1572 30.2097C21.1572 31.4873 22.1737 32.523 23.4277 32.523Z" fill="#464646"/>
<path opacity="0.2" d="M23.4277 39C24.6816 39 25.6981 37.9643 25.6981 36.6867C25.6981 35.4092 24.6816 34.3735 23.4277 34.3735C22.1737 34.3735 21.1572 35.4092 21.1572 36.6867C21.1572 37.9643 22.1737 39 23.4277 39Z" fill="#464646"/>
<path opacity="0.2" d="M29.7861 32.523C31.04 32.523 32.0565 31.4873 32.0565 30.2097C32.0565 28.9322 31.04 27.8965 29.7861 27.8965C28.5321 27.8965 27.5156 28.9322 27.5156 30.2097C27.5156 31.4873 28.5321 32.523 29.7861 32.523Z" fill="#464646"/>
<path d="M36.1434 32.523C37.3974 32.523 38.4139 31.4873 38.4139 30.2097C38.4139 28.9322 37.3974 27.8965 36.1434 27.8965C34.8895 27.8965 33.873 28.9322 33.873 30.2097C33.873 31.4873 34.8895 32.523 36.1434 32.523Z" fill="#464646"/>
<path d="M52.5014 21.037L52.7577 21.6602L53.0184 21.0234L53.304 20.4227L57.1344 13.2338C57.1741 13.1558 57.224 13.0833 57.2828 13.0186C57.3334 12.9655 57.3907 12.9284 57.4514 12.9014C57.5121 12.8743 57.584 12.8619 57.6616 12.8562C57.7536 12.8493 57.8458 12.8463 57.9381 12.8472H59.7545V25.8227H57.6335V17.4425L57.647 16.9319L57.6886 16.3661L53.7772 23.7263C53.6873 23.8931 53.5714 24.0239 53.4399 24.1162C53.3085 24.2087 53.1286 24.256 52.9398 24.256H52.6082C52.4312 24.2612 52.2568 24.2125 52.108 24.1162C51.9609 24.018 51.841 23.8837 51.7596 23.7263L47.7943 16.3402L47.8448 16.9196L47.8583 17.4448V25.825H45.7373V12.8472H47.5537L47.8302 12.8562C47.9021 12.8611 47.9729 12.8768 48.0404 12.9025C48.1067 12.9275 48.1663 12.9677 48.2145 13.0197C48.2749 13.0838 48.3263 13.1559 48.3675 13.2338L52.234 20.4384L52.5126 21.0358L52.5014 21.037ZM66.0364 16.4721C66.5809 16.4651 67.1219 16.5591 67.6324 16.7494C68.118 16.9364 68.5372 17.2058 68.8889 17.5609C69.2524 17.9346 69.5328 18.3815 69.7117 18.8717C69.9084 19.3902 70.0062 19.9809 70.0062 20.6436C70.0084 20.7829 70.0008 20.9222 69.9838 21.0606C69.9741 21.152 69.9474 21.2407 69.905 21.3221C69.8679 21.3864 69.8151 21.4303 69.7477 21.4574C69.6803 21.4844 69.5993 21.499 69.496 21.499H63.8221C63.8895 22.4458 64.1425 23.138 64.5831 23.5797C65.0236 24.0215 65.6093 24.256 66.3364 24.256C66.6961 24.256 67.004 24.2143 67.2615 24.1298C67.5189 24.0452 67.7481 23.9528 67.9425 23.8526L68.4517 23.5752C68.5979 23.4907 68.7395 23.449 68.8766 23.449C68.9665 23.449 69.043 23.467 69.1093 23.502C69.1756 23.5369 69.2217 23.5888 69.2779 23.6553L69.9219 24.4622C69.6847 24.7422 69.4074 24.9853 69.0992 25.1837C68.8005 25.3759 68.4807 25.5329 68.146 25.6514C67.8183 25.7676 67.4798 25.8507 67.1356 25.8994C66.8045 25.9463 66.4706 25.97 66.1364 25.9704C65.499 25.9704 64.9045 25.8645 64.356 25.6514C63.8164 25.4442 63.3276 25.1228 62.9229 24.7092C62.516 24.2943 62.198 23.7792 61.9653 23.1672C61.7326 22.5551 61.6281 21.8428 61.6281 21.0256C61.6281 20.3979 61.7405 19.8062 61.9315 19.2538C62.1234 18.7188 62.4204 18.2278 62.8049 17.81C63.1951 17.3927 63.6674 17.0611 64.1919 16.8361C64.7404 16.596 65.3574 16.4755 66.0431 16.4755L66.0364 16.4721ZM66.0813 18.0501C65.4372 18.0501 64.9314 18.2337 64.5685 18.5978C64.2054 18.9619 63.9727 19.4804 63.8715 20.1488H68.0236C68.0236 19.8625 67.9841 19.5919 67.9066 19.3373C67.834 19.0918 67.712 18.864 67.5481 18.6677C67.3884 18.4761 67.185 18.3262 66.9411 18.2135C66.6972 18.1007 66.4083 18.0489 66.0824 18.0489L66.0813 18.0501ZM74.8235 25.967C74.0301 25.967 73.4185 25.7416 72.9881 25.2885C72.5577 24.8353 72.344 24.2132 72.344 23.4175V18.2755H71.4134C71.2943 18.2755 71.192 18.236 71.1055 18.1583C71.0189 18.0805 70.975 17.9632 70.975 17.8201V16.9409L72.4508 16.6975L72.9172 14.1862C72.9397 14.0668 72.996 13.9609 73.0814 13.909C73.1668 13.8572 73.2758 13.8109 73.4185 13.8109H74.5651V16.71H76.9816V18.2879H74.5651V23.2766C74.5651 23.5628 74.6359 23.7872 74.7898 23.9505C74.8604 24.0295 74.9471 24.0921 75.0442 24.1342C75.1412 24.1762 75.2462 24.1966 75.3518 24.1941C75.489 24.1941 75.6036 24.1782 75.6969 24.1433C75.7802 24.1153 75.8615 24.081 75.9397 24.0407L76.1229 23.9281C76.1757 23.8965 76.2308 23.8773 76.2847 23.8773C76.3521 23.8773 76.4038 23.8931 76.4444 23.9281C76.4952 23.9718 76.5406 24.0218 76.5792 24.0768L77.2536 25.1544C76.9253 25.4263 76.5485 25.6333 76.1431 25.7641C75.724 25.9019 75.2858 25.9714 74.8449 25.9704L74.8235 25.967ZM85.9284 25.825H84.9348C84.7269 25.825 84.5639 25.7935 84.4437 25.7315C84.3233 25.6694 84.2357 25.5398 84.1761 25.3505L83.9795 24.6967C83.7616 24.8938 83.5326 25.0782 83.2938 25.2491C83.069 25.4068 82.8386 25.5398 82.6014 25.648C82.3578 25.7577 82.1025 25.8393 81.8405 25.8914C81.5453 25.9483 81.2452 25.9748 80.9447 25.9704C80.5806 25.9741 80.218 25.9209 79.8701 25.8126C79.5584 25.7162 79.2703 25.5549 79.025 25.3392C78.7889 25.117 78.5981 24.851 78.463 24.5558C78.3191 24.2459 78.2663 23.8795 78.2663 23.467C78.2663 23.1289 78.3562 22.775 78.5383 22.4357C78.7204 22.0965 79.0216 21.7933 79.4454 21.5171C79.869 21.241 80.4322 21.0178 81.1369 20.8363C81.8416 20.6549 82.7138 20.5658 83.758 20.5658V20.0225C83.758 19.4026 83.6276 18.9405 83.3692 18.6429C83.1106 18.3454 82.7318 18.1966 82.2384 18.1966C81.8788 18.1966 81.582 18.2382 81.3425 18.3228C81.1273 18.3976 80.9193 18.492 80.721 18.6046L80.2343 18.8864C80.0846 18.971 79.9151 19.0145 79.7432 19.0126C79.6059 19.0159 79.4711 18.9748 79.3587 18.8954C79.2531 18.819 79.1643 18.7216 79.098 18.6091L78.6956 17.9013C79.7522 16.9319 81.0245 16.436 82.5172 16.436C83.0544 16.436 83.5321 16.5262 83.9525 16.702C84.3576 16.8678 84.7225 17.1187 85.0225 17.438C85.3207 17.7623 85.5481 18.1454 85.6901 18.5629C85.8469 19.0255 85.924 19.5114 85.9183 20L85.9284 25.825ZM81.6326 24.4431C81.8428 24.4448 82.0528 24.424 82.2586 24.3811C82.446 24.341 82.6278 24.2786 82.8004 24.1952C82.9739 24.1106 83.1385 24.0087 83.2915 23.8909C83.4609 23.7598 83.6205 23.6167 83.7692 23.4625V21.9341C83.1252 21.9341 82.5857 21.9758 82.1541 22.0559C81.7225 22.1359 81.3752 22.2418 81.1122 22.3681C80.8491 22.4944 80.6626 22.6431 80.5525 22.8099C80.4445 22.9737 80.3874 23.1658 80.3883 23.3622C80.3883 23.7545 80.503 24.034 80.7334 24.2031C80.9638 24.3721 81.2639 24.4555 81.6326 24.4555V24.4431ZM88.1291 25.825V12.4888H90.3389V17.748C90.7019 17.358 91.1256 17.0492 91.573 16.8204C92.0203 16.5916 92.5688 16.4744 93.1836 16.4744C93.6593 16.4683 94.1296 16.5741 94.5571 16.7832C94.9708 16.9895 95.3294 17.2904 95.6316 17.6848C95.934 18.0794 96.1666 18.5674 96.3286 19.1467C96.4904 19.7261 96.5758 20.3934 96.5758 21.1474C96.5758 21.8237 96.4859 22.4718 96.2993 23.059C96.1319 23.6129 95.8628 24.1304 95.5058 24.5851C95.1629 25.0157 94.7472 25.3516 94.2627 25.5962C93.7783 25.8408 93.2319 25.9602 92.6284 25.9602C92.3475 25.9602 92.0911 25.9332 91.8585 25.8757C91.6258 25.8182 91.4157 25.7404 91.2234 25.6502C91.0316 25.5483 90.8527 25.4233 90.6907 25.2783C90.5224 25.1271 90.365 24.9639 90.2197 24.7903L90.1219 25.4102C90.0849 25.5658 90.0264 25.6762 89.9388 25.7427C89.8511 25.8092 89.7364 25.8408 89.5847 25.8408H88.1291V25.825ZM92.425 18.1966C91.9754 18.1966 91.573 18.2924 91.2481 18.4874C90.8985 18.7033 90.5912 18.9813 90.3412 19.3079V23.4354C90.5929 23.7476 90.8649 23.963 91.1594 24.0858C91.4539 24.2087 91.7776 24.2696 92.1215 24.2696C92.4333 24.2745 92.7423 24.2102 93.0263 24.0813C93.2957 23.9547 93.5279 23.7606 93.7006 23.5178C93.9035 23.2224 94.0505 22.8924 94.1345 22.5439C94.247 22.1517 94.2874 21.6896 94.2874 21.1575C94.2874 20.6187 94.2425 20.1634 94.157 19.7892C94.0716 19.415 93.9468 19.1107 93.7862 18.8796C93.6407 18.6597 93.4387 18.4833 93.2016 18.369C92.969 18.2631 92.7071 18.209 92.4149 18.209L92.425 18.1966ZM105.5 25.825H104.506C104.299 25.825 104.135 25.7935 104.016 25.7315C103.895 25.6694 103.807 25.5398 103.748 25.3505L103.551 24.6967C103.333 24.8938 103.105 25.0782 102.866 25.2491C102.647 25.4041 102.415 25.5378 102.171 25.648C101.927 25.7572 101.672 25.8388 101.41 25.8914C101.142 25.9478 100.844 25.9704 100.514 25.9704C100.15 25.9741 99.7876 25.9209 99.4397 25.8126C99.1278 25.7162 98.8398 25.5549 98.5944 25.3392C98.3585 25.117 98.1676 24.851 98.0325 24.5558C97.8886 24.2459 97.8358 23.8795 97.8358 23.467C97.8358 23.1289 97.9257 22.775 98.1078 22.4357C98.2899 22.0965 98.5911 21.7933 99.0148 21.5171C99.4386 21.241 100.002 21.0178 100.706 20.8363C101.411 20.6549 102.285 20.5658 103.327 20.5658V20.0225C103.327 19.4026 103.198 18.9405 102.939 18.6429C102.68 18.3454 102.302 18.1966 101.808 18.1966C101.449 18.1966 101.151 18.2382 100.912 18.3228C100.697 18.3976 100.488 18.492 100.29 18.6046L99.8039 18.8864C99.6537 18.9701 99.4845 19.0135 99.3127 19.0126C99.1753 19.0159 99.0406 18.9748 98.9283 18.8954C98.8226 18.819 98.7338 18.7216 98.6675 18.6091L98.2652 17.9013C99.3217 16.9319 100.594 16.436 102.087 16.436C102.623 16.436 103.104 16.5262 103.526 16.702C103.93 16.8678 104.296 17.1187 104.595 17.438C104.893 17.7623 105.121 18.1454 105.263 18.5629C105.42 19.0255 105.497 19.5114 105.491 20L105.5 25.825ZM101.204 24.4431C101.415 24.4448 101.624 24.424 101.831 24.3811C102.018 24.341 102.2 24.2786 102.372 24.1952C102.546 24.1106 102.71 24.0087 102.864 23.8909C103.033 23.7598 103.192 23.6167 103.341 23.4625V21.9341C102.697 21.9341 102.158 21.9758 101.725 22.0559C101.294 22.1359 100.947 22.2418 100.683 22.3681C100.421 22.4944 100.234 22.6431 100.125 22.8099C100.016 22.9737 99.9592 23.1658 99.9602 23.3622C99.9602 23.7545 100.075 24.034 100.305 24.2031C100.535 24.3721 100.836 24.4555 101.204 24.4555V24.4431ZM113.124 18.4108C113.078 18.4918 113.014 18.5609 112.936 18.6124C112.869 18.652 112.788 18.6688 112.685 18.6688C112.564 18.6657 112.446 18.6352 112.34 18.5798L111.915 18.377C111.755 18.3014 111.569 18.2349 111.353 18.1741C111.135 18.1132 110.903 18.0839 110.622 18.0839C110.186 18.0839 109.843 18.1775 109.594 18.3611C109.344 18.5448 109.22 18.7895 109.22 19.0881C109.217 19.1794 109.232 19.2702 109.265 19.3553C109.298 19.4405 109.348 19.5183 109.411 19.5841C109.538 19.716 109.707 19.8365 109.92 19.9391C110.153 20.0483 110.393 20.1394 110.639 20.2118L111.462 20.4756L112.285 20.8138C112.552 20.9264 112.79 21.091 113.004 21.2815C113.217 21.4713 113.39 21.702 113.513 21.9601C113.64 22.2238 113.704 22.5394 113.704 22.9114C113.704 23.3532 113.625 23.7612 113.461 24.1377C113.297 24.5141 113.063 24.8342 112.756 25.107C112.418 25.3935 112.027 25.61 111.605 25.7438C111.151 25.8972 110.626 25.9726 110.035 25.9726C109.726 25.9737 109.415 25.9453 109.111 25.8881C108.809 25.8318 108.52 25.7528 108.241 25.6627C107.963 25.5725 107.707 25.4406 107.472 25.302C107.237 25.1634 107.029 25.0157 106.85 24.8512L107.36 24.008C107.419 23.9141 107.498 23.8344 107.591 23.7747C107.696 23.7167 107.814 23.6894 107.933 23.6958C108.071 23.6959 108.206 23.7367 108.322 23.813L108.746 24.0656C108.927 24.1681 109.118 24.2527 109.315 24.318C109.582 24.4028 109.861 24.4424 110.142 24.4353C110.405 24.4353 110.629 24.4037 110.819 24.3417C111.009 24.2797 111.162 24.1974 111.285 24.0938C111.409 23.9901 111.51 23.8739 111.553 23.7387C111.602 23.6048 111.631 23.4642 111.637 23.3216C111.645 23.1266 111.576 22.9363 111.445 22.7918C111.317 22.6543 111.146 22.5349 110.936 22.4312C110.701 22.3215 110.459 22.2303 110.211 22.1585L109.379 21.8924C109.095 21.7963 108.817 21.6834 108.548 21.5543C108.282 21.4307 108.037 21.266 107.822 21.0663C107.605 20.8612 107.432 20.6138 107.314 20.3392C107.185 20.053 107.123 19.7047 107.123 19.299C107.121 18.928 107.197 18.5611 107.346 18.2214C107.495 17.8777 107.721 17.5723 108.004 17.3276C108.296 17.0728 108.653 16.8688 109.088 16.7189C109.523 16.569 110.021 16.4901 110.588 16.4901C111.22 16.4901 111.796 16.596 112.315 16.8057C112.833 17.0154 113.265 17.2904 113.613 17.6308L113.124 18.4108ZM119.291 16.4721C119.835 16.4651 120.376 16.5591 120.886 16.7494C121.372 16.9364 121.791 17.2058 122.143 17.5609C122.507 17.9346 122.786 18.3815 122.965 18.8717C123.162 19.3902 123.26 19.9809 123.26 20.6436C123.263 20.7829 123.254 20.9222 123.238 21.0606C123.228 21.152 123.201 21.2407 123.159 21.3221C123.122 21.3864 123.069 21.4303 123.002 21.4574C122.935 21.4844 122.853 21.499 122.75 21.499H117.076C117.143 22.4458 117.397 23.138 117.837 23.5797C118.277 24.0215 118.864 24.256 119.59 24.256C119.95 24.256 120.258 24.2143 120.515 24.1298C120.773 24.0452 121.002 23.9528 121.197 23.8526L121.706 23.5752C121.852 23.4907 121.994 23.449 122.131 23.449C122.22 23.449 122.297 23.467 122.364 23.502C122.43 23.5369 122.476 23.5888 122.532 23.6553L123.176 24.4622C122.939 24.7422 122.661 24.9853 122.353 25.1837C122.054 25.3759 121.734 25.5329 121.4 25.6514C121.072 25.7676 120.734 25.8507 120.39 25.8994C120.059 25.9463 119.725 25.97 119.391 25.9704C118.753 25.9704 118.159 25.8645 117.61 25.6514C117.071 25.4442 116.581 25.1228 116.177 24.7092C115.77 24.2943 115.451 23.7792 115.22 23.1672C114.987 22.5551 114.882 21.8428 114.882 21.0256C114.882 20.3979 114.995 19.8062 115.186 19.2538C115.377 18.7188 115.674 18.2278 116.058 17.81C116.449 17.3927 116.922 17.0611 117.446 16.8361C118.007 16.596 118.614 16.4755 119.301 16.4755L119.291 16.4721ZM119.336 18.0501C118.691 18.0501 118.185 18.2337 117.823 18.5978C117.459 18.9619 117.227 19.4804 117.126 20.1488H121.278C121.278 19.8625 121.238 19.5919 121.16 19.3373C121.088 19.0918 120.966 18.864 120.802 18.6677C120.64 18.4761 120.439 18.3262 120.195 18.2135C119.952 18.1007 119.664 18.0489 119.337 18.0489L119.336 18.0501Z" fill="#464646"/>
</svg>
