<svg width="129" height="48" viewBox="0 0 129 48" fill="none" xmlns="http://www.w3.org/2000/svg">
<rect width="129" height="48" fill="transparent"/>
<path d="M9.50947 18.2951C10.8954 18.2951 12.0189 17.1504 12.0189 15.7384C12.0189 14.3263 10.8954 13.1816 9.50947 13.1816C8.12353 13.1816 7 14.3263 7 15.7384C7 17.1504 8.12353 18.2951 9.50947 18.2951Z" fill="#464646"/>
<path d="M9.50947 25.4538C10.8954 25.4538 12.0189 24.3091 12.0189 22.8971C12.0189 21.485 10.8954 20.3403 9.50947 20.3403C8.12353 20.3403 7 21.485 7 22.8971C7 24.3091 8.12353 25.4538 9.50947 25.4538Z" fill="#464646"/>
<path opacity="0.2" d="M16.5361 18.2951C17.922 18.2951 19.0456 17.1504 19.0456 15.7384C19.0456 14.3263 17.922 13.1816 16.5361 13.1816C15.1501 13.1816 14.0266 14.3263 14.0266 15.7384C14.0266 17.1504 15.1501 18.2951 16.5361 18.2951Z" fill="#464646"/>
<path d="M16.5361 25.5234C17.922 25.5234 19.0456 24.3787 19.0456 22.9667C19.0456 21.5546 17.922 20.4099 16.5361 20.4099C15.1501 20.4099 14.0266 21.5546 14.0266 22.9667C14.0266 24.3787 15.1501 25.5234 16.5361 25.5234Z" fill="#464646"/>
<path opacity="0.2" d="M23.5625 18.2951C24.9484 18.2951 26.0719 17.1504 26.0719 15.7384C26.0719 14.3263 24.9484 13.1816 23.5625 13.1816C22.1765 13.1816 21.053 14.3263 21.053 15.7384C21.053 17.1504 22.1765 18.2951 23.5625 18.2951Z" fill="#464646"/>
<path opacity="0.2" d="M23.5625 10.1135C24.9484 10.1135 26.0719 8.96879 26.0719 7.55674C26.0719 6.14469 24.9484 5 23.5625 5C22.1765 5 21.053 6.14469 21.053 7.55674C21.053 8.96879 22.1765 10.1135 23.5625 10.1135Z" fill="#464646"/>
<path opacity="0.2" d="M23.5625 25.5234C24.9484 25.5234 26.0719 24.3787 26.0719 22.9667C26.0719 21.5546 24.9484 20.4099 23.5625 20.4099C22.1765 20.4099 21.053 21.5546 21.053 22.9667C21.053 24.3787 22.1765 25.5234 23.5625 25.5234Z" fill="#464646"/>
<path opacity="0.2" d="M30.5891 18.2951C31.975 18.2951 33.0985 17.1504 33.0985 15.7384C33.0985 14.3263 31.975 13.1816 30.5891 13.1816C29.2031 13.1816 28.0796 14.3263 28.0796 15.7384C28.0796 17.1504 29.2031 18.2951 30.5891 18.2951Z" fill="#464646"/>
<path d="M37.6154 18.2951C39.0014 18.2951 40.1249 17.1504 40.1249 15.7384C40.1249 14.3263 39.0014 13.1816 37.6154 13.1816C36.2295 13.1816 35.106 14.3263 35.106 15.7384C35.106 17.1504 36.2295 18.2951 37.6154 18.2951Z" fill="#464646"/>
<path d="M30.5891 25.5234C31.975 25.5234 33.0985 24.3787 33.0985 22.9667C33.0985 21.5546 31.975 20.4099 30.5891 20.4099C29.2031 20.4099 28.0796 21.5546 28.0796 22.9667C28.0796 24.3787 29.2031 25.5234 30.5891 25.5234Z" fill="#464646"/>
<path d="M37.6154 25.5234C39.0014 25.5234 40.1249 24.3787 40.1249 22.9667C40.1249 21.5546 39.0014 20.4099 37.6154 20.4099C36.2295 20.4099 35.106 21.5546 35.106 22.9667C35.106 24.3787 36.2295 25.5234 37.6154 25.5234Z" fill="#464646"/>
<path d="M9.50947 32.6127C10.8954 32.6127 12.0189 31.4681 12.0189 30.056C12.0189 28.644 10.8954 27.4993 9.50947 27.4993C8.12353 27.4993 7 28.644 7 30.056C7 31.4681 8.12353 32.6127 9.50947 32.6127Z" fill="#464646"/>
<path opacity="0.2" d="M16.5361 32.6823C17.922 32.6823 19.0456 31.5376 19.0456 30.1256C19.0456 28.7135 17.922 27.5688 16.5361 27.5688C15.1501 27.5688 14.0266 28.7135 14.0266 30.1256C14.0266 31.5376 15.1501 32.6823 16.5361 32.6823Z" fill="#464646"/>
<path d="M23.5625 32.6823C24.9484 32.6823 26.0719 31.5376 26.0719 30.1256C26.0719 28.7135 24.9484 27.5688 23.5625 27.5688C22.1765 27.5688 21.053 28.7135 21.053 30.1256C21.053 31.5376 22.1765 32.6823 23.5625 32.6823Z" fill="#464646"/>
<path opacity="0.2" d="M30.5891 32.6823C31.975 32.6823 33.0985 31.5376 33.0985 30.1256C33.0985 28.7135 31.975 27.5688 30.5891 27.5688C29.2031 27.5688 28.0796 28.7135 28.0796 30.1256C28.0796 31.5376 29.2031 32.6823 30.5891 32.6823Z" fill="#464646"/>
<path d="M37.6154 32.6823C39.0014 32.6823 40.1249 31.5376 40.1249 30.1256C40.1249 28.7135 39.0014 27.5688 37.6154 27.5688C36.2295 27.5688 35.106 28.7135 35.106 30.1256C35.106 31.5376 36.2295 32.6823 37.6154 32.6823Z" fill="#464646"/>
<path d="M9.50947 39.7717C10.8954 39.7717 12.0189 38.627 12.0189 37.2149C12.0189 35.8029 10.8954 34.6582 9.50947 34.6582C8.12353 34.6582 7 35.8029 7 37.2149C7 38.627 8.12353 39.7717 9.50947 39.7717Z" fill="#464646"/>
<path opacity="0.2" d="M16.5361 39.8413C17.922 39.8413 19.0456 38.6966 19.0456 37.2845C19.0456 35.8725 17.922 34.7278 16.5361 34.7278C15.1501 34.7278 14.0266 35.8725 14.0266 37.2845C14.0266 38.6966 15.1501 39.8413 16.5361 39.8413Z" fill="#464646"/>
<path opacity="0.2" d="M23.5625 39.8413C24.9484 39.8413 26.0719 38.6966 26.0719 37.2845C26.0719 35.8725 24.9484 34.7278 23.5625 34.7278C22.1765 34.7278 21.053 35.8725 21.053 37.2845C21.053 38.6966 22.1765 39.8413 23.5625 39.8413Z" fill="#464646"/>
<path opacity="0.2" d="M23.5625 47C24.9484 47 26.0719 45.8553 26.0719 44.4432C26.0719 43.0312 24.9484 41.8865 23.5625 41.8865C22.1765 41.8865 21.053 43.0312 21.053 44.4432C21.053 45.8553 22.1765 47 23.5625 47Z" fill="#464646"/>
<path opacity="0.2" d="M30.5891 39.8413C31.975 39.8413 33.0985 38.6966 33.0985 37.2845C33.0985 35.8725 31.975 34.7278 30.5891 34.7278C29.2031 34.7278 28.0796 35.8725 28.0796 37.2845C28.0796 38.6966 29.2031 39.8413 30.5891 39.8413Z" fill="#464646"/>
<path d="M37.6154 39.8413C39.0014 39.8413 40.1249 38.6966 40.1249 37.2845C40.1249 35.8725 39.0014 34.7278 37.6154 34.7278C36.2295 34.7278 35.106 35.8725 35.106 37.2845C35.106 38.6966 36.2295 39.8413 37.6154 39.8413Z" fill="#464646"/>
<path d="M53.7359 27.7699L53.9868 28.38L54.242 27.7566L54.5215 27.1686L58.271 20.1316C58.3099 20.0552 58.3587 19.9843 58.4163 19.9209C58.4658 19.869 58.5219 19.8326 58.5813 19.8062C58.6407 19.7797 58.7111 19.7675 58.7871 19.762C58.8771 19.7552 58.9674 19.7523 59.0577 19.7532H60.8357V32.4545H58.7596V24.2514L58.7728 23.7516L58.8135 23.1977L54.9847 30.4024C54.8967 30.5657 54.7833 30.6937 54.6546 30.7841C54.5259 30.8746 54.3498 30.9209 54.165 30.9209H53.8404C53.6672 30.926 53.4965 30.8783 53.3508 30.7841C53.2068 30.6879 53.0894 30.5565 53.0098 30.4024L49.1282 23.1724L49.1777 23.7395L49.1909 24.2536V32.4568H47.1147V19.7532H48.8927L49.1634 19.762C49.2338 19.7668 49.3031 19.7821 49.3691 19.8073C49.434 19.8318 49.4924 19.8711 49.5396 19.922C49.5987 19.9848 49.649 20.0553 49.6893 20.1316L53.4741 27.184L53.7469 27.7688L53.7359 27.7699ZM66.9849 23.3015C67.5179 23.2946 68.0475 23.3866 68.5472 23.5729C69.0225 23.756 69.4329 24.0197 69.7772 24.3673C70.133 24.7331 70.4075 25.1705 70.5826 25.6504C70.7751 26.1579 70.8709 26.7361 70.8709 27.3848C70.873 27.5212 70.8656 27.6576 70.8489 27.793C70.8394 27.8825 70.8133 27.9693 70.7718 28.049C70.7355 28.1119 70.6838 28.1549 70.6178 28.1814C70.5518 28.2079 70.4726 28.2222 70.3714 28.2222H64.8174C64.8834 29.149 65.131 29.8265 65.5623 30.2589C65.9935 30.6914 66.5668 30.9209 67.2786 30.9209C67.6307 30.9209 67.9321 30.8801 68.1841 30.7974C68.4361 30.7146 68.6605 30.6241 68.8508 30.526L69.3492 30.2545C69.4923 30.1718 69.6309 30.131 69.7651 30.131C69.8531 30.131 69.928 30.1486 69.9929 30.1828C70.0578 30.217 70.1029 30.2678 70.1579 30.3329L70.7883 31.1228C70.5561 31.3968 70.2847 31.6348 69.983 31.829C69.6906 32.0172 69.3776 32.1708 69.05 32.2868C68.7292 32.4006 68.3978 32.4819 68.0609 32.5296C67.7368 32.5755 67.41 32.5987 67.0828 32.5991C66.4589 32.5991 65.8769 32.4954 65.34 32.2868C64.8118 32.084 64.3334 31.7694 63.9372 31.3645C63.5389 30.9584 63.2276 30.4542 62.9998 29.8551C62.7721 29.256 62.6698 28.5587 62.6698 27.7588C62.6698 27.1443 62.7798 26.5651 62.9668 26.0244C63.1546 25.5007 63.4453 25.0201 63.8217 24.6111C64.2037 24.2026 64.666 23.878 65.1794 23.6578C65.7163 23.4228 66.3203 23.3048 66.9915 23.3048L66.9849 23.3015ZM67.0289 24.8461C66.3984 24.8461 65.9033 25.0259 65.548 25.3823C65.1926 25.7387 64.9648 26.2462 64.8658 26.9005H68.9301C68.9301 26.6202 68.8915 26.3554 68.8156 26.1061C68.7446 25.8658 68.6251 25.6428 68.4647 25.4507C68.3084 25.2631 68.1093 25.1164 67.8705 25.0061C67.6318 24.8957 67.349 24.845 67.03 24.845L67.0289 24.8461ZM75.5864 32.5958C74.8097 32.5958 74.2111 32.3751 73.7898 31.9316C73.3684 31.488 73.1593 30.879 73.1593 30.1001V25.0668H72.2483C72.1317 25.0668 72.0316 25.0281 71.9469 24.952C71.8622 24.8759 71.8192 24.7611 71.8192 24.621V23.7604L73.2638 23.5221L73.7204 21.0639C73.7424 20.947 73.7975 20.8433 73.8811 20.7925C73.9647 20.7418 74.0714 20.6965 74.2111 20.6965H75.3334V23.5343H77.6989V25.0789H75.3334V29.9622C75.3334 30.2424 75.4027 30.462 75.5534 30.6219C75.6225 30.6992 75.7074 30.7605 75.8024 30.8017C75.8974 30.8428 76.0001 30.8628 76.1035 30.8603C76.2378 30.8603 76.35 30.8448 76.4413 30.8106C76.5229 30.7832 76.6024 30.7496 76.679 30.7102L76.8583 30.5999C76.91 30.569 76.9639 30.5502 77.0167 30.5502C77.0827 30.5502 77.1333 30.5657 77.173 30.5999C77.2228 30.6427 77.2672 30.6917 77.305 30.7455L77.9651 31.8003C77.6438 32.0665 77.2749 32.2691 76.8781 32.3972C76.4679 32.532 76.0389 32.6001 75.6073 32.5991L75.5864 32.5958ZM86.4567 32.4568H85.4841C85.2805 32.4568 85.121 32.4259 85.0033 32.3652C84.8855 32.3045 84.7997 32.1776 84.7414 31.9923L84.5489 31.3523C84.3356 31.5452 84.1115 31.7257 83.8777 31.893C83.6577 32.0474 83.4321 32.1776 83.2 32.2835C82.9615 32.3909 82.7116 32.4708 82.4551 32.5218C82.1662 32.5775 81.8724 32.6034 81.5783 32.5991C81.2218 32.6027 80.8669 32.5506 80.5264 32.4446C80.2212 32.3503 79.9392 32.1924 79.6991 31.9812C79.468 31.7637 79.2812 31.5033 79.149 31.2144C79.0081 30.911 78.9564 30.5524 78.9564 30.1486C78.9564 29.8176 79.0444 29.4712 79.2227 29.1391C79.4009 28.807 79.6958 28.5102 80.1106 28.2399C80.5253 27.9696 81.0766 27.7511 81.7664 27.5735C82.4562 27.3959 83.31 27.3087 84.3321 27.3087V26.7769C84.3321 26.1701 84.2045 25.7177 83.9515 25.4264C83.6984 25.1352 83.3276 24.9895 82.8446 24.9895C82.4926 24.9895 82.2021 25.0303 81.9677 25.1131C81.757 25.1863 81.5534 25.2787 81.3593 25.3889L80.8829 25.6648C80.7363 25.7476 80.5704 25.7902 80.4021 25.7883C80.2677 25.7915 80.1358 25.7513 80.0258 25.6736C79.9224 25.5988 79.8355 25.5034 79.7706 25.3933L79.3767 24.7005C80.4109 23.7516 81.6564 23.2661 83.1175 23.2661C83.6434 23.2661 84.111 23.3544 84.5225 23.5265C84.919 23.6888 85.2762 23.9344 85.5699 24.247C85.8618 24.5644 86.0844 24.9394 86.2234 25.3481C86.3769 25.8009 86.4524 26.2766 86.4468 26.7548L86.4567 32.4568ZM82.2516 31.1041C82.4574 31.1057 82.6629 31.0854 82.8644 31.0434C83.0478 31.0041 83.2258 30.943 83.3947 30.8614C83.5646 30.7786 83.7257 30.6788 83.8755 30.5635C84.0413 30.4352 84.1975 30.2951 84.3431 30.1442V28.6481C83.7127 28.6481 83.1846 28.6889 82.7621 28.7673C82.3396 28.8456 81.9997 28.9493 81.7422 29.0729C81.4847 29.1965 81.3021 29.3421 81.1943 29.5054C81.0886 29.6657 81.0327 29.8538 81.0336 30.046C81.0336 30.43 81.1459 30.7036 81.3714 30.8691C81.597 31.0346 81.8907 31.1162 82.2516 31.1162V31.1041ZM88.6109 32.4568V19.4023H90.774V24.5504C91.1293 24.1687 91.5441 23.8664 91.982 23.6424C92.4199 23.4184 92.9568 23.3037 93.5586 23.3037C94.0242 23.2978 94.4846 23.4013 94.9031 23.606C95.308 23.8079 95.659 24.1025 95.9549 24.4886C96.2509 24.8748 96.4786 25.3525 96.6371 25.9196C96.7955 26.4867 96.8791 27.1399 96.8791 27.878C96.8791 28.54 96.7911 29.1744 96.6085 29.7492C96.4446 30.2914 96.1812 30.798 95.8317 31.2431C95.4961 31.6646 95.0891 31.9934 94.6149 32.2328C94.1407 32.4722 93.6059 32.5891 93.0151 32.5891C92.7401 32.5891 92.4892 32.5627 92.2615 32.5064C92.0337 32.4501 91.828 32.374 91.6398 32.2857C91.452 32.1859 91.2769 32.0636 91.1183 31.9216C90.9536 31.7736 90.7995 31.6139 90.6573 31.4439L90.5616 32.0507C90.5253 32.203 90.4681 32.3111 90.3823 32.3762C90.2965 32.4413 90.1842 32.4722 90.0357 32.4722H88.6109V32.4568ZM92.816 24.9895C92.3759 24.9895 91.982 25.0833 91.664 25.2742C91.3218 25.4855 91.0209 25.7577 90.7762 26.0774V30.1177C91.0226 30.4233 91.2889 30.6341 91.5771 30.7543C91.8654 30.8746 92.1823 30.9342 92.5189 30.9342C92.8241 30.939 93.1266 30.8761 93.4046 30.7499C93.6683 30.626 93.8956 30.436 94.0647 30.1983C94.2633 29.9092 94.4072 29.5861 94.4894 29.245C94.5995 28.8611 94.6391 28.4087 94.6391 27.8879C94.6391 27.3605 94.5951 26.9148 94.5114 26.5485C94.4278 26.1822 94.3057 25.8843 94.1484 25.6581C94.006 25.4429 93.8083 25.2702 93.5762 25.1583C93.3485 25.0546 93.0921 25.0017 92.8061 25.0017L92.816 24.9895ZM105.615 32.4568H104.642C104.439 32.4568 104.279 32.4259 104.162 32.3652C104.044 32.3045 103.958 32.1776 103.9 31.9923L103.707 31.3523C103.494 31.5452 103.27 31.7257 103.036 31.893C102.822 32.0448 102.595 32.1756 102.356 32.2835C102.117 32.3904 101.868 32.4703 101.611 32.5218C101.349 32.577 101.057 32.5991 100.734 32.5991C100.378 32.6027 100.023 32.5506 99.6825 32.4446C99.3772 32.3503 99.0953 32.1924 98.8551 31.9812C98.6241 31.7637 98.4373 31.5033 98.305 31.2144C98.1642 30.911 98.1125 30.5524 98.1125 30.1486C98.1125 29.8176 98.2005 29.4712 98.3787 29.1391C98.557 28.807 98.8518 28.5102 99.2666 28.2399C99.6814 27.9696 100.233 27.7511 100.922 27.5735C101.612 27.3959 102.468 27.3087 103.488 27.3087V26.7769C103.488 26.1701 103.361 25.7177 103.108 25.4264C102.854 25.1352 102.484 24.9895 102.001 24.9895C101.649 24.9895 101.358 25.0303 101.124 25.1131C100.913 25.1863 100.709 25.2787 100.515 25.3889L100.039 25.6648C99.892 25.7467 99.7264 25.7892 99.5582 25.7883C99.4237 25.7915 99.2918 25.7513 99.1819 25.6736C99.0784 25.5988 98.9915 25.5034 98.9266 25.3933L98.5328 24.7005C99.567 23.7516 100.812 23.2661 102.274 23.2661C102.799 23.2661 103.269 23.3544 103.682 23.5265C104.078 23.6888 104.436 23.9344 104.729 24.247C105.021 24.5644 105.244 24.9394 105.383 25.3481C105.536 25.8009 105.612 26.2766 105.606 26.7548L105.615 32.4568ZM101.41 31.1041C101.616 31.1057 101.821 31.0854 102.023 31.0434C102.206 31.0041 102.384 30.943 102.553 30.8614C102.723 30.7786 102.884 30.6788 103.034 30.5635C103.2 30.4352 103.356 30.2951 103.501 30.1442V28.6481C102.871 28.6481 102.343 28.6889 101.92 28.7673C101.498 28.8456 101.158 28.9493 100.9 29.0729C100.643 29.1965 100.46 29.3421 100.353 29.5054C100.247 29.6657 100.191 29.8538 100.192 30.046C100.192 30.43 100.304 30.7036 100.53 30.8691C100.755 31.0346 101.049 31.1162 101.41 31.1162V31.1041ZM113.078 25.1992C113.033 25.2785 112.97 25.3461 112.894 25.3966C112.828 25.4353 112.749 25.4518 112.648 25.4518C112.53 25.4487 112.414 25.4189 112.31 25.3646L111.894 25.1661C111.738 25.0921 111.556 25.027 111.344 24.9675C111.131 24.9079 110.904 24.8792 110.629 24.8792C110.202 24.8792 109.866 24.9708 109.622 25.1506C109.378 25.3304 109.256 25.5699 109.256 25.8622C109.253 25.9516 109.268 26.0405 109.3 26.1238C109.333 26.2072 109.381 26.2833 109.443 26.3477C109.567 26.4768 109.733 26.5948 109.941 26.6952C110.169 26.8021 110.404 26.8913 110.645 26.9622L111.451 27.2204L112.256 27.5514C112.518 27.6617 112.751 27.8228 112.96 28.0093C113.169 28.1951 113.338 28.4209 113.458 28.6735C113.583 28.9317 113.645 29.2406 113.645 29.6047C113.645 30.0372 113.568 30.4366 113.408 30.8051C113.247 31.1736 113.018 31.4869 112.717 31.7539C112.387 32.0344 112.004 32.2463 111.591 32.3773C111.146 32.5274 110.632 32.6013 110.054 32.6013C109.751 32.6023 109.447 32.5745 109.149 32.5185C108.854 32.4634 108.571 32.3861 108.298 32.2979C108.026 32.2096 107.775 32.0805 107.545 31.9448C107.315 31.8091 107.111 31.6646 106.936 31.5035L107.435 30.6782C107.493 30.5862 107.571 30.5082 107.662 30.4498C107.764 30.393 107.88 30.3663 107.996 30.3726C108.131 30.3727 108.264 30.4126 108.377 30.4873L108.792 30.7345C108.969 30.8349 109.156 30.9177 109.349 30.9816C109.611 31.0646 109.884 31.1034 110.159 31.0964C110.416 31.0964 110.635 31.0655 110.821 31.0048C111.007 30.9441 111.157 30.8636 111.278 30.7621C111.399 30.6606 111.498 30.5469 111.54 30.4145C111.588 30.2835 111.616 30.1458 111.622 30.0063C111.63 29.8154 111.562 29.6291 111.434 29.4877C111.309 29.3531 111.141 29.2362 110.936 29.1347C110.706 29.0273 110.469 28.938 110.226 28.8677L109.412 28.6073C109.134 28.5132 108.862 28.4027 108.598 28.2763C108.338 28.1553 108.098 27.9941 107.888 27.7986C107.675 27.5978 107.506 27.3557 107.39 27.0869C107.264 26.8067 107.203 26.4658 107.203 26.0686C107.202 25.7055 107.276 25.3463 107.422 25.0138C107.568 24.6774 107.789 24.3784 108.066 24.1389C108.352 23.8895 108.701 23.6898 109.127 23.5431C109.553 23.3963 110.04 23.3191 110.595 23.3191C111.214 23.3191 111.778 23.4228 112.286 23.628C112.793 23.8333 113.216 24.1025 113.556 24.4357L113.078 25.1992ZM119.114 23.3015C119.647 23.2946 120.176 23.3866 120.676 23.5729C121.151 23.756 121.562 24.0197 121.906 24.3673C122.262 24.7331 122.536 25.1705 122.711 25.6504C122.904 26.1579 123 26.7361 123 27.3848C123.002 27.5212 122.994 27.6576 122.978 27.793C122.968 27.8825 122.942 27.9693 122.901 28.049C122.864 28.1119 122.813 28.1549 122.747 28.1814C122.681 28.2079 122.601 28.2222 122.5 28.2222H116.946C117.012 29.149 117.26 29.8265 117.691 30.2589C118.122 30.6914 118.696 30.9209 119.407 30.9209C119.759 30.9209 120.061 30.8801 120.313 30.7974C120.565 30.7146 120.789 30.6241 120.98 30.526L121.478 30.2545C121.621 30.1718 121.76 30.131 121.894 30.131C121.982 30.131 122.057 30.1486 122.122 30.1828C122.187 30.217 122.232 30.2678 122.287 30.3329L122.917 31.1228C122.685 31.3968 122.413 31.6348 122.112 31.829C121.819 32.0172 121.506 32.1708 121.179 32.2868C120.858 32.4006 120.527 32.4819 120.19 32.5296C119.866 32.5755 119.539 32.5987 119.212 32.5991C118.588 32.5991 118.006 32.4954 117.469 32.2868C116.941 32.084 116.462 31.7694 116.066 31.3645C115.668 30.9584 115.356 30.4542 115.129 29.8551C114.901 29.256 114.799 28.5587 114.799 27.7588C114.799 27.1443 114.909 26.5651 115.096 26.0244C115.283 25.5007 115.574 25.0201 115.95 24.6111C116.332 24.2026 116.795 23.878 117.308 23.6578C117.858 23.4228 118.452 23.3048 119.124 23.3048L119.114 23.3015ZM119.158 24.8461C118.527 24.8461 118.032 25.0259 117.677 25.3823C117.321 25.7387 117.094 26.2462 116.995 26.9005H121.059C121.059 26.6202 121.02 26.3554 120.944 26.1061C120.873 25.8658 120.754 25.6428 120.593 25.4507C120.435 25.2631 120.238 25.1164 119.999 25.0061C119.761 24.8957 119.48 24.845 119.159 24.845L119.158 24.8461Z" fill="#464646"/>
</svg>
