<svg width="112" height="40" viewBox="0 0 112 40" fill="none" xmlns="http://www.w3.org/2000/svg">
<path d="M25.7103 23.224C27.5077 23.224 28.9647 21.7669 28.9647 19.9695C28.9647 18.1722 27.5077 16.7151 25.7103 16.7151C23.9129 16.7151 22.4558 18.1722 22.4558 19.9695C22.4558 21.7669 23.9129 23.224 25.7103 23.224Z" fill="#464646"/>
<path fill-rule="evenodd" clip-rule="evenodd" d="M25.7096 13.3527C30.0792 13.3527 34.1383 13.9797 37.199 15.0333C40.8866 16.3028 43.1539 18.2272 43.1539 19.9696C43.1539 21.7855 40.751 23.8298 36.791 25.1418C33.7971 26.1337 29.8575 26.6516 25.7096 26.6516C21.4569 26.6516 17.4299 26.1655 14.4023 25.1309C10.5718 23.8216 8.26465 21.7508 8.26465 19.9696C8.26465 18.2413 10.4295 16.3319 14.0653 15.0643C17.1373 13.9932 21.2973 13.3527 25.7096 13.3527Z" stroke="#464646" stroke-width="1.66272"/>
<path fill-rule="evenodd" clip-rule="evenodd" d="M19.9499 16.68C22.1329 12.8949 24.7039 9.6917 27.1457 7.56674C30.0876 5.00647 32.8873 4.0038 34.3967 4.8742C35.9698 5.78131 36.5402 8.88424 35.6985 12.97C35.0628 16.0592 33.5426 19.7306 31.4704 23.3237C29.3458 27.0077 26.9131 30.2534 24.5046 32.3586C21.4569 35.0228 18.5104 35.987 16.9674 35.0971C15.4701 34.2343 14.8975 31.4045 15.6158 27.6216C16.2227 24.4254 17.7464 20.5022 19.9499 16.68Z" stroke="#464646" stroke-width="1.66272"/>
<path fill-rule="evenodd" clip-rule="evenodd" d="M19.9546 23.3332C17.7654 19.5523 16.2749 15.7246 15.6528 12.5479C14.904 8.72037 15.4334 5.79397 16.9415 4.92105C18.513 4.01127 21.4861 5.06663 24.6056 7.83642C26.964 9.93051 29.3859 13.0805 31.464 16.6703C33.5948 20.3508 35.1917 24.0794 35.8129 27.2175C36.5989 31.1885 35.9627 34.2226 34.4211 35.115C32.9253 35.981 30.1882 35.0642 27.2696 32.5526C24.8036 30.4306 22.1653 27.1518 19.9546 23.3332Z" stroke="#464646" stroke-width="1.66272"/>
<path fill-rule="evenodd" clip-rule="evenodd" d="M61.8349 26.2845L57.8459 20.258C59.862 20.08 61.6786 18.6193 61.6786 15.9506C61.6786 13.2351 59.7515 11.4972 57.0481 11.4972H51.1115V26.2733H52.9505V20.4022H55.8973L59.6635 26.2733L61.8349 26.2845ZM56.8281 18.7963H52.9515V13.1471H56.8281C58.5791 13.1471 59.7749 14.2988 59.7749 15.9609C59.7749 17.623 58.5782 18.7981 56.8281 18.7981V18.7963ZM68.6808 26.5495C70.4319 26.5495 71.8711 25.9736 72.9348 24.9108L72.137 23.8246C71.2943 24.6889 70.0545 25.1758 68.8363 25.1758C66.5328 25.1758 65.1142 23.4922 64.9812 21.4771H73.6427V21.0558C73.6427 17.844 71.7372 15.3176 68.502 15.3176C65.4447 15.3176 63.2301 17.8215 63.2301 20.9228C63.2301 24.2685 65.5121 26.5411 68.6799 26.5411L68.6808 26.5495ZM72.005 20.257H64.9821C65.0711 18.6184 66.1994 16.6894 68.4823 16.6894C70.9197 16.6894 71.9825 18.6614 72.005 20.257ZM84.678 26.2836V18.9283C84.678 16.3364 82.7959 15.3167 80.5354 15.3167C78.7844 15.3167 77.4117 15.8925 76.2599 17.0892L77.0352 18.241C77.9875 17.2222 79.0297 16.7568 80.3145 16.7568C81.8651 16.7568 83.0178 17.5762 83.0178 19.0163V20.9434C82.1535 19.9461 80.9353 19.4808 79.4726 19.4808C77.6561 19.4808 75.7271 20.611 75.7271 23.0034C75.7271 25.3294 77.6542 26.5486 79.4726 26.5486C80.9128 26.5486 82.132 26.0392 83.0178 25.0644V26.2817L84.678 26.2836ZM80.071 25.3528C78.5203 25.3528 77.4341 24.379 77.4341 23.0268C77.4341 21.6532 78.5203 20.6784 80.071 20.6784C81.2452 20.6784 82.3745 21.1213 83.0178 22.0081V24.0241C82.3754 24.9099 81.2452 25.3528 80.071 25.3528ZM92.7119 26.5495C94.6614 26.5495 95.8132 25.7517 96.6335 24.6889L95.5257 23.6701C94.8169 24.6224 93.9086 25.0653 92.8102 25.0653C90.5282 25.0653 89.1118 23.2928 89.1118 20.9228C89.1118 18.5528 90.5292 16.8027 92.8102 16.8027C93.9179 16.8027 94.8262 17.2241 95.5257 18.1979L96.6335 17.1791C95.8141 16.1154 94.6614 15.3185 92.7119 15.3185C89.5219 15.3185 87.3729 17.7559 87.3729 20.9237C87.3729 24.114 89.5219 26.542 92.7119 26.542V26.5495ZM101.664 26.5495C102.638 26.5495 103.237 26.2611 103.658 25.8631L103.171 24.6224C102.949 24.8659 102.516 25.0653 102.041 25.0653C101.311 25.0653 100.955 24.4895 100.955 23.6917V17.0452H103.127V15.5835H100.955V12.6592H99.2928V15.5835H97.5202V17.0462H99.2928V24.0475C99.2928 25.6431 100.091 26.5514 101.664 26.5514V26.5495Z" fill="#464646"/>
</svg>
