<svg width="127" height="35" viewBox="0 0 127 35" fill="none" xmlns="http://www.w3.org/2000/svg">
<path d="M31.1929 20.9248C33.1124 20.9248 34.6684 19.3687 34.6684 17.4492C34.6684 15.5297 33.1124 13.9736 31.1929 13.9736C29.2734 13.9736 27.7173 15.5297 27.7173 17.4492C27.7173 19.3687 29.2734 20.9248 31.1929 20.9248Z" fill="#464646"/>
<path fill-rule="evenodd" clip-rule="evenodd" d="M31.1928 10.3826C35.8593 10.3826 40.1942 11.0522 43.4628 12.1774C47.401 13.5332 49.8223 15.5883 49.8223 17.4491C49.8223 19.3883 47.2562 21.5715 43.0271 22.9727C39.8298 24.032 35.6225 24.585 31.1928 24.585C26.6512 24.585 22.3506 24.0659 19.1173 22.961C15.0266 21.5628 12.5627 19.3513 12.5627 17.4491C12.5627 15.6034 14.8746 13.5642 18.7574 12.2105C22.0382 11.0666 26.4802 10.3826 31.1922 10.3826H31.1928Z" stroke="#464646" stroke-width="1.66272"/>
<path fill-rule="evenodd" clip-rule="evenodd" d="M25.0412 13.9362C27.3725 9.89388 30.1181 6.47311 32.7258 4.20378C35.8676 1.46957 38.8575 0.398783 40.4695 1.32831C42.1494 2.29705 42.7586 5.61079 41.8597 9.97418C41.1808 13.2732 39.5573 17.194 37.3443 21.0313C35.0754 24.9655 32.4774 28.4318 29.9053 30.68C26.6505 33.5252 23.5038 34.5549 21.856 33.6045C20.257 32.6831 19.6455 29.6611 20.4126 25.6212C21.0607 22.2078 22.6872 18.0181 25.0405 13.9362L25.0412 13.9362Z" stroke="#464646" stroke-width="1.66272"/>
<path fill-rule="evenodd" clip-rule="evenodd" d="M25.0471 21.0417C22.7092 17.0039 21.1175 12.9161 20.4531 9.52356C19.6534 5.43604 20.2188 2.31082 21.8293 1.37859C23.5076 0.407008 26.6827 1.53406 30.0141 4.49203C32.5328 6.72839 35.1192 10.0924 37.3385 13.9261C39.614 17.8566 41.3194 21.8386 41.9828 25.1898C42.8223 29.4306 42.1428 32.6709 40.4965 33.6239C38.8991 34.5487 35.976 33.5696 32.8591 30.8874C30.2256 28.6212 27.408 25.1196 25.0471 21.0416V21.0417Z" stroke="#464646" stroke-width="1.66272"/>
<path fill-rule="evenodd" clip-rule="evenodd" d="M69.7723 26.3289L65.5123 19.8929C67.6653 19.7029 69.6053 18.1429 69.6053 15.2929C69.6053 12.3929 67.5473 10.5369 64.6603 10.5369H58.3203V26.3169H60.2843V20.0469H63.4313L67.4533 26.3169L69.7723 26.3289ZM64.4253 18.3319H60.2853V12.2989H64.4253C66.2953 12.2989 67.5723 13.5289 67.5723 15.3039C67.5723 17.0789 66.2943 18.3339 64.4253 18.3339V18.3319ZM77.0833 26.6119C78.9533 26.6119 80.4903 25.9969 81.6263 24.8619L80.7743 23.7019C79.8743 24.6249 78.5503 25.1449 77.2493 25.1449C74.7893 25.1449 73.2743 23.3469 73.1323 21.1949H82.3823V20.7449C82.3823 17.3149 80.3473 14.6169 76.8923 14.6169C73.6273 14.6169 71.2623 17.2909 71.2623 20.6029C71.2623 24.1759 73.6993 26.6029 77.0823 26.6029L77.0833 26.6119ZM80.6333 19.8919H73.1333C73.2283 18.1419 74.4333 16.0819 76.8713 16.0819C79.4743 16.0819 80.6093 18.1879 80.6333 19.8919ZM94.1673 26.3279V18.4729C94.1673 15.7049 92.1573 14.6159 89.7433 14.6159C87.8733 14.6159 86.4073 15.2309 85.1773 16.5089L86.0053 17.7389C87.0223 16.6509 88.1353 16.1539 89.5073 16.1539C91.1633 16.1539 92.3943 17.0289 92.3943 18.5669V20.6249C91.4713 19.5599 90.1703 19.0629 88.6083 19.0629C86.6683 19.0629 84.6083 20.2699 84.6083 22.8249C84.6083 25.3089 86.6663 26.6109 88.6083 26.6109C90.1463 26.6109 91.4483 26.0669 92.3943 25.0259V26.3259L94.1673 26.3279ZM89.2473 25.3339C87.5913 25.3339 86.4313 24.2939 86.4313 22.8499C86.4313 21.3829 87.5913 20.3419 89.2473 20.3419C90.5013 20.3419 91.7073 20.8149 92.3943 21.7619V23.9149C91.7083 24.8609 90.5013 25.3339 89.2473 25.3339ZM102.747 26.6119C104.829 26.6119 106.059 25.7599 106.935 24.6249L105.752 23.5369C104.995 24.5539 104.025 25.0269 102.852 25.0269C100.415 25.0269 98.9023 23.1339 98.9023 20.6029C98.9023 18.0719 100.416 16.2029 102.852 16.2029C104.035 16.2029 105.005 16.6529 105.752 17.6929L106.935 16.6049C106.06 15.4689 104.829 14.6179 102.747 14.6179C99.3403 14.6179 97.0453 17.2209 97.0453 20.6039C97.0453 24.0109 99.3403 26.6039 102.747 26.6039V26.6119ZM112.307 26.6119C113.347 26.6119 113.987 26.3039 114.437 25.8789L113.917 24.5539C113.68 24.8139 113.217 25.0269 112.71 25.0269C111.93 25.0269 111.55 24.4119 111.55 23.5599V16.4619H113.87V14.9009H111.55V11.7779H109.775V14.9009H107.882V16.4629H109.775V23.9399C109.775 25.6439 110.627 26.6139 112.307 26.6139V26.6119Z" fill="#464646"/>
</svg>
