<svg width="105" height="48" viewBox="0 0 105 48" fill="none" xmlns="http://www.w3.org/2000/svg">
<rect width="105" height="48" fill="transparent"/>
<path d="M50.8023 20.3141C47.1727 20.3141 44.5556 22.6812 44.5556 26.2319C44.5556 29.7825 47.4982 32.1497 51.1312 32.1497C53.3239 32.1497 55.2572 31.2818 56.4538 29.8187L53.9387 28.3656C53.2746 29.0921 52.2653 29.5163 51.1312 29.5163C49.5563 29.5163 48.2183 28.6943 47.7217 27.3793H56.9339C57.0061 27.0111 57.049 26.6297 57.049 26.2286C57.049 22.6812 54.4353 20.3141 50.8023 20.3141ZM47.6954 25.0812C48.1063 23.7694 49.2308 22.9442 50.8023 22.9442C52.3771 22.9442 53.5015 23.7694 53.9092 25.0812H47.6954ZM46.9524 16.6976L37.8422 32.4784L28.7289 16.6976H32.1447L37.8391 26.5607L43.5332 16.6976H46.9524ZM18.4837 14.8884L30.6317 35.9296H6.33569L18.4837 14.8884ZM70.2654 26.2319C70.2654 28.2045 71.5542 29.5196 73.5531 29.5196C74.9077 29.5196 75.9236 28.9048 76.4463 27.902L78.9712 29.3584C77.9256 31.1009 75.9663 32.1497 73.5531 32.1497C69.9201 32.1497 67.3065 29.7825 67.3065 26.2319C67.3065 22.6812 69.9235 20.3141 73.5531 20.3141C75.9663 20.3141 77.9225 21.3628 78.9712 23.1053L76.4463 24.5617C75.9236 23.559 74.9077 22.9442 73.5531 22.9442C71.5576 22.9442 70.2654 24.2593 70.2654 26.2319ZM97.3818 16.6976V31.821H94.4232V16.6976H97.3818ZM86.2042 20.3141C82.5748 20.3141 79.9576 22.6812 79.9576 26.2319C79.9576 29.7825 82.9032 32.1497 86.5333 32.1497C88.7254 32.1497 90.6592 31.2818 91.8552 29.8187L89.3402 28.3656C88.6764 29.0921 87.6671 29.5163 86.5333 29.5163C84.9583 29.5163 83.6199 28.6943 83.1234 27.3793H92.3354C92.4077 27.0111 92.4506 26.6297 92.4506 26.2286C92.4506 22.6812 89.8367 20.3141 86.2042 20.3141ZM83.0969 25.0812C83.5086 23.7694 84.6291 22.9442 86.2042 22.9442C87.7792 22.9442 88.9029 23.7694 89.3114 25.0812H83.0969ZM66.3202 20.6428V23.8286C65.9915 23.7333 65.6429 23.6675 65.2681 23.6675C63.358 23.6675 61.9804 24.9825 61.9804 26.9552V31.821H59.0217V20.6428H61.9804V23.6675C61.9804 21.9973 63.9234 20.6428 66.3202 20.6428Z" fill="#464646"/>
</svg>
