<svg width="108" height="40" viewBox="0 0 108 40" fill="none" xmlns="http://www.w3.org/2000/svg">
<path d="M52.8641 14.9052C49.2345 14.9052 46.6174 17.2723 46.6174 20.823C46.6174 24.3736 49.56 26.7408 53.193 26.7408C55.3857 26.7408 57.319 25.8729 58.5156 24.4098L56.0005 22.9567C55.3364 23.6832 54.3271 24.1074 53.193 24.1074C51.6181 24.1074 50.2801 23.2854 49.7835 21.9704H58.9957C59.0679 21.6022 59.1108 21.2208 59.1108 20.8197C59.1108 17.2723 56.4971 14.9052 52.8641 14.9052ZM49.7572 19.6723C50.1681 18.3605 51.2926 17.5353 52.8641 17.5353C54.4389 17.5353 55.5633 18.3605 55.971 19.6723H49.7572ZM49.0142 11.2887L39.904 27.0695L30.7907 11.2887H34.2065L39.9009 21.1518L45.595 11.2887H49.0142ZM20.5455 9.47949L32.6935 30.5207H8.39746L20.5455 9.47949ZM72.3272 20.823C72.3272 22.7956 73.616 24.1107 75.6149 24.1107C76.9695 24.1107 77.9854 23.4959 78.5081 22.4931L81.033 23.9495C79.9874 25.692 78.0281 26.7408 75.6149 26.7408C71.9819 26.7408 69.3683 24.3736 69.3683 20.823C69.3683 17.2723 71.9853 14.9052 75.6149 14.9052C78.0281 14.9052 79.9843 15.9539 81.033 17.6964L78.5081 19.1528C77.9854 18.1501 76.9695 17.5353 75.6149 17.5353C73.6194 17.5353 72.3272 18.8504 72.3272 20.823ZM99.4436 11.2887V26.4121H96.485V11.2887H99.4436ZM88.266 14.9052C84.6366 14.9052 82.0194 17.2723 82.0194 20.823C82.0194 24.3736 84.965 26.7408 88.5951 26.7408C90.7872 26.7408 92.721 25.8729 93.917 24.4098L91.402 22.9567C90.7382 23.6832 89.7289 24.1074 88.5951 24.1074C87.0201 24.1074 85.6817 23.2854 85.1852 21.9704H94.3972C94.4695 21.6022 94.5124 21.2208 94.5124 20.8197C94.5124 17.2723 91.8985 14.9052 88.266 14.9052ZM85.1587 19.6723C85.5704 18.3605 86.6909 17.5353 88.266 17.5353C89.841 17.5353 90.9647 18.3605 91.3732 19.6723H85.1587ZM68.382 15.2339V18.4197C68.0533 18.3244 67.7047 18.2586 67.3299 18.2586C65.4198 18.2586 64.0422 19.5736 64.0422 21.5463V26.4121H61.0835V15.2339H64.0422V18.2586C64.0422 16.5884 65.9852 15.2339 68.382 15.2339Z" fill="#464646"/>
</svg>
