<svg width="226" height="48" viewBox="0 0 226 48" fill="none" xmlns="http://www.w3.org/2000/svg">
<rect width="226" height="48" fill="transparent"/>
<path d="M5.43848 20.4132C5.43848 22.2663 6.94073 23.7685 8.79385 23.7685C10.647 23.7685 12.1492 22.2663 12.1492 20.4132C12.1492 18.5601 10.647 17.0579 8.79385 17.0579C6.94073 17.0579 5.43848 18.5601 5.43848 20.4132Z" fill="#464646"/>
<path d="M5.43848 37.1901C5.43848 39.0433 6.94073 40.5455 8.79385 40.5455C10.647 40.5455 12.1492 39.0433 12.1492 37.1901C12.1492 35.337 10.647 33.8347 8.79385 33.8347C6.94073 33.8347 5.43848 35.337 5.43848 37.1901Z" fill="#464646"/>
<path d="M6.69678 28.8017C6.69678 29.96 7.6357 30.8989 8.79391 30.8989C9.95214 30.8989 10.8911 29.96 10.8911 28.8017C10.8911 27.6435 9.95214 26.7046 8.79391 26.7046C7.6357 26.7046 6.69678 27.6435 6.69678 28.8017Z" fill="#464646"/>
<path d="M6.69678 12.0246C6.69678 13.1829 7.6357 14.1218 8.79391 14.1218C9.95214 14.1218 10.8911 13.1829 10.8911 12.0246C10.8911 10.8664 9.95214 9.92749 8.79391 9.92749C7.6357 9.92749 6.69678 10.8664 6.69678 12.0246Z" fill="#464646"/>
<path d="M18.3147 31.9052C18.3147 33.7583 19.817 35.2606 21.67 35.2606C23.5232 35.2606 25.0255 33.7583 25.0255 31.9052C25.0255 30.0521 23.5232 28.5498 21.67 28.5498C19.817 28.5498 18.3147 30.0521 18.3147 31.9052Z" fill="#464646"/>
<path d="M19.573 23.5168C19.573 24.6751 20.512 25.614 21.6701 25.614C22.8284 25.614 23.7673 24.6751 23.7673 23.5168C23.7673 22.3586 22.8284 21.4197 21.6701 21.4197C20.512 21.4197 19.573 22.3586 19.573 23.5168Z" fill="#464646"/>
<path d="M19.573 15.1286C19.573 16.2868 20.512 17.2258 21.6701 17.2258C22.8284 17.2258 23.7673 16.2868 23.7673 15.1286C23.7673 13.9704 22.8284 13.0315 21.6701 13.0315C20.512 13.0315 19.573 13.9704 19.573 15.1286Z" fill="#464646"/>
<path d="M31.1909 20.4132C31.1909 22.2663 32.6931 23.7685 34.5463 23.7685C36.3995 23.7685 37.9017 22.2663 37.9017 20.4132C37.9017 18.5601 36.3995 17.0579 34.5463 17.0579C32.6931 17.0579 31.1909 18.5601 31.1909 20.4132Z" fill="#464646"/>
<path d="M32.45 12.0246C32.45 13.1829 33.3888 14.1218 34.5471 14.1218C35.7052 14.1218 36.6442 13.1829 36.6442 12.0246C36.6442 10.8664 35.7052 9.92749 34.5471 9.92749C33.3888 9.92749 32.45 10.8664 32.45 12.0246Z" fill="#464646"/>
<path d="M32.45 28.8017C32.45 29.96 33.3888 30.8989 34.5471 30.8989C35.7052 30.8989 36.6442 29.96 36.6442 28.8017C36.6442 27.6435 35.7052 26.7046 34.5471 26.7046C33.3888 26.7046 32.45 27.6435 32.45 28.8017Z" fill="#464646"/>
<path d="M32.45 37.1902C32.45 38.3483 33.3888 39.2873 34.5471 39.2873C35.7052 39.2873 36.6442 38.3483 36.6442 37.1902C36.6442 36.0319 35.7052 35.093 34.5471 35.093C33.3888 35.093 32.45 36.0319 32.45 37.1902Z" fill="#464646"/>
<path fill-rule="evenodd" clip-rule="evenodd" d="M101.898 27.1405C101.898 28.1291 101.877 29.6119 101.854 30.7352L100.169 31.0498V31.8586H105.381V31.0498L103.831 30.7352C103.808 29.6119 103.786 28.1291 103.786 27.1405V23.9728C104.932 22.9393 105.853 22.5124 106.954 22.5124C108.279 22.5124 108.796 23.1639 108.796 25.2309V27.1405C108.796 28.174 108.774 29.6343 108.751 30.7577L107.111 31.0498V31.8586H112.323V31.0498L110.751 30.7352C110.728 29.6119 110.706 28.174 110.706 27.1405V25.0512C110.706 22.108 109.762 20.8947 107.83 20.8947C106.415 20.8947 104.819 21.7485 103.719 22.9842V18.6256L103.808 15.4353L103.494 15.2556L100.056 16.2666V17.0529L101.898 17.2776L101.898 27.1405ZM84.8319 18.4234C85.6628 18.4234 86.3368 17.8168 86.3368 16.9855C86.3368 16.1093 85.6628 15.5476 84.8319 15.5476C83.9778 15.5476 83.3262 16.1093 83.3262 16.9855C83.3262 17.8168 83.9778 18.4234 84.8319 18.4234ZM87.3926 31.0497L85.8205 30.7352C85.7973 29.6118 85.7749 28.129 85.7749 27.1405V24.1749L85.8421 21.1194L85.5051 20.8947L82.0457 22.2653V23.0516L83.8433 23.2538C83.8881 24.1525 83.9105 24.8489 83.9105 26.0846V27.1405C83.9105 28.129 83.8881 29.6118 83.8649 30.7352L82.1803 31.0497V31.8585H87.3926V31.0497ZM65.6585 32.0158H64.6925L60.8057 20.3555L57.1439 32.0158H56.1776L52.1335 17.9741L50.269 17.7494V16.8283H56.38V17.7494L54.3128 17.9965L57.0764 28.3313L60.4913 18.019L58.2445 17.7494V16.8283H64.3555V17.7494L62.0865 18.019L65.4342 28.4212L68.2872 18.0415L66.2429 17.7494V16.8283H71.3427V17.7494L69.4556 18.019L65.6585 32.0158ZM78.4343 24.3546C78.4343 23.0741 77.3782 21.9282 75.9854 21.9282C74.7272 21.9282 73.267 22.9168 73.0196 25.5229H77.1087C78.187 25.5229 78.4343 25.0062 78.4343 24.3546ZM70.9528 26.6238C70.9528 23.1864 73.3119 20.8947 76.1201 20.8947C78.4565 20.8947 80.2991 22.4899 80.2991 25.2084C80.2991 25.7251 80.2316 26.1745 80.1418 26.4665H72.9748C73.0196 29.2299 74.4576 30.6902 76.6144 30.6902C78.0523 30.6902 78.9286 30.0612 79.7373 29.1176L80.2765 29.5444C79.4451 31.1396 78.0074 32.1506 75.9629 32.1506C72.9299 32.1506 70.9528 30.0612 70.9528 26.6238ZM95.7025 24.5119C95.7025 22.9168 94.8933 21.8159 93.5004 21.8159C92.0852 21.8159 91.2318 22.9617 91.2318 24.6018C91.2318 26.2418 92.0179 27.3652 93.4108 27.3652C94.8484 27.3652 95.7025 26.1745 95.7025 24.5119ZM91.1414 27.7471C90.0632 27.163 89.4116 26.107 89.4116 24.5793C89.4116 22.2203 91.1414 20.8947 93.478 20.8947C94.6243 20.8947 95.6129 21.1868 96.3317 21.771L98.8701 20.8947L99.207 21.1194V22.5349H97.0057C97.3427 23.0741 97.522 23.7705 97.522 24.5793C97.522 26.9383 95.7922 28.2639 93.4556 28.2639C92.8496 28.2639 92.2877 28.174 91.793 28.0167C91.4112 28.511 91.2318 28.9378 91.2318 29.4546C91.2318 30.0612 91.4784 30.4431 92.5343 30.4431H95.4776C97.9487 30.4431 99.095 31.5215 99.095 33.3413C99.095 35.296 97.2299 37.2281 93.546 37.2281C90.2881 37.2281 88.8952 36.1048 88.8952 34.5096C88.8952 33.5435 89.434 32.7572 91.0966 31.9484C90.108 31.6788 89.6141 31.1171 89.6141 30.2409C89.6141 29.5444 90.0183 28.7806 91.1414 27.7471ZM90.7372 34.1502C90.7372 35.6105 91.861 36.1947 93.6357 36.1947C96.0844 36.1947 97.41 35.1837 97.41 33.9255C97.41 32.9369 96.7808 32.173 95.163 32.173H92.5343C92.2197 32.173 91.9058 32.1506 91.6137 32.1281C90.9845 32.8021 90.7372 33.4087 90.7372 34.1502ZM116.855 22.3776V29.3423C116.855 30.4881 117.326 30.9824 118.09 30.9824C118.585 30.9824 119.034 30.7802 119.596 30.3758L120.135 30.9599C119.551 31.7238 118.63 32.1507 117.484 32.1507C115.911 32.1507 114.923 31.3419 114.923 29.5895C114.923 29.3398 114.928 29.1078 114.932 28.8501C114.938 28.5283 114.945 28.1664 114.945 27.6798V22.3776H113.081V21.3891L115.079 21.1419L115.664 18.1314H117.012L116.9 21.1869H119.91V22.3776H116.855ZM124.679 32.1506C127.576 32.1506 129.06 30.6453 129.06 28.9378C129.06 27.5224 128.206 26.4665 125.959 25.6352L125.262 25.3881C123.735 24.8265 123.195 24.4445 123.195 23.456C123.195 22.5349 123.914 21.9282 125.285 21.9282C125.824 21.9282 126.341 22.063 126.835 22.3102L127.194 24.1075H128.363L128.453 21.8159C127.487 21.2318 126.52 20.8947 125.308 20.8947C122.791 20.8947 121.398 22.4225 121.398 24.0626C121.398 25.5903 122.476 26.489 124.117 27.0956L125.15 27.4775C126.565 27.9718 127.239 28.466 127.239 29.4321C127.239 30.4431 126.431 31.1396 124.723 31.1396C124.027 31.1396 123.443 31.0272 122.903 30.7801L122.476 28.8255H121.241L121.331 31.2969C122.432 31.8585 123.42 32.1506 124.679 32.1506ZM139.146 19.367C139.146 20.1758 139.327 20.8723 140.157 21.9058C140.36 22.1754 140.562 22.4225 140.764 22.6472C142.157 21.6811 143.146 20.6925 143.146 19.3895C143.146 18.0864 142.292 17.2776 141.191 17.2776C140.045 17.2776 139.146 18.1763 139.146 19.367ZM150.312 30.9374L150.223 31.9259C149.549 32.0832 149.1 32.1506 148.515 32.1506C147.324 32.1506 146.628 31.881 145.887 31.1172C145.754 30.9632 145.623 30.8201 145.493 30.6797L145.492 30.6789C145.358 30.5329 145.226 30.3896 145.1 30.2409C144.112 31.3194 142.674 32.1506 140.517 32.1506C137.709 32.1506 135.776 30.3308 135.776 28.0617C135.776 26.0397 136.922 24.5344 139.169 23.4111C139.158 23.3886 139.141 23.3718 139.124 23.355C139.107 23.3381 139.09 23.3212 139.079 23.2987C137.955 22.0181 137.529 20.8723 137.529 19.6815C137.529 17.7045 139.102 16.4913 141.213 16.4913C143.438 16.4913 144.628 17.682 144.628 19.367C144.628 20.9172 143.595 22.0181 141.303 23.2538C141.775 23.793 142.314 24.3996 143.101 25.2533C143.716 25.9305 144.29 26.5443 144.872 27.1672C145.139 27.4536 145.408 27.742 145.685 28.0392C146.516 26.6463 147.145 25.186 147.549 23.4111L145.774 23.119V22.2203H150.335V23.119L148.627 23.4335C148.111 25.478 147.324 27.1405 146.291 28.6907C146.541 28.9513 146.796 29.2254 147.064 29.5129L147.064 29.5136L147.066 29.5153L147.067 29.5158C147.398 29.8717 147.749 30.2482 148.134 30.6453L150.312 30.9374ZM144.449 29.522C143.64 28.6009 142.921 27.7921 142.157 26.9384C141.146 25.7027 140.45 24.8939 139.708 24.0402C138.158 24.9838 137.731 26.3318 137.731 27.4551C137.731 29.0951 138.944 30.7128 141.124 30.7128C142.382 30.7128 143.595 30.2859 144.449 29.522ZM159.684 24.8939C159.684 26.8485 159.684 28.8031 159.639 30.6903L157.572 30.9374V31.8586H163.751C168.064 31.8586 169.749 29.7916 169.749 27.7471C169.749 25.9274 168.491 24.467 165.503 24.0402C167.996 23.5234 168.985 22.0855 168.985 20.4903C168.985 18.356 167.21 16.8283 164.088 16.8283H157.572V17.7494L159.639 17.9965C159.684 19.9287 159.684 21.8608 159.684 23.793V24.8939ZM163.054 24.6018C166.155 24.6018 167.503 25.6578 167.503 27.7471C167.503 29.7242 166.11 30.8026 163.234 30.8026H161.863C161.818 28.8929 161.818 26.9608 161.818 24.6018H163.054ZM163.414 17.8617C165.705 17.8617 166.873 18.6031 166.873 20.6476C166.873 22.6921 165.705 23.5684 162.986 23.5684H161.818C161.818 21.7934 161.818 19.7939 161.863 17.8617H163.414ZM175.656 16.9855C175.656 17.8168 174.982 18.4234 174.15 18.4234C173.297 18.4234 172.645 17.8168 172.645 16.9855C172.645 16.1093 173.297 15.5476 174.15 15.5476C174.982 15.5476 175.656 16.1093 175.656 16.9855ZM175.139 30.7352L176.711 31.0497V31.8585H171.499V31.0497L173.184 30.7352C173.206 29.6118 173.229 28.129 173.229 27.1405V26.0846C173.229 24.8489 173.206 24.1525 173.161 23.2538L171.364 23.0516V22.2653L174.824 20.8947L175.161 21.1194L175.094 24.1749V27.1405C175.094 28.129 175.116 29.6118 175.139 30.7352ZM186.751 32.0832C187.537 32.0832 188.166 31.7911 188.705 30.9149L188.256 30.4206C188.009 30.7127 187.761 30.9149 187.38 30.9149C186.886 30.9149 186.571 30.5555 186.571 29.5894V24.804C186.571 21.9732 185.448 20.8947 183.089 20.8947C180.797 20.8947 179.135 21.9732 178.708 23.6807C178.775 24.2648 179.135 24.6018 179.764 24.6018C180.371 24.6018 180.73 24.2199 180.932 23.5234L181.359 22.063C181.831 21.9507 182.235 21.9282 182.572 21.9282C184.055 21.9282 184.684 22.4675 184.684 24.6467V25.2084C183.785 25.4106 182.842 25.7026 182.145 25.9498C179.112 27.0506 178.416 28.0617 178.416 29.3422C178.416 31.207 179.786 32.1506 181.426 32.1506C182.752 32.1506 183.493 31.5664 184.729 30.3533C184.908 31.4092 185.673 32.0832 186.751 32.0832ZM180.415 29.0053C180.415 28.3312 180.663 27.4775 182.617 26.7137C183.089 26.5339 183.897 26.2643 184.684 26.0396V29.4995C183.404 30.3982 182.976 30.6678 182.212 30.6678C181.179 30.6678 180.415 30.196 180.415 29.0053ZM197.71 28.9378C197.71 30.6453 196.227 32.1506 193.329 32.1506C192.071 32.1506 191.082 31.8585 189.981 31.2969L189.892 28.8255H191.128L191.554 30.7801C192.093 31.0272 192.677 31.1396 193.374 31.1396C195.081 31.1396 195.89 30.4431 195.89 29.4321C195.89 28.466 195.216 27.9718 193.801 27.4775L192.768 27.0956C191.128 26.489 190.049 25.5903 190.049 24.0626C190.049 22.4225 191.441 20.8948 193.958 20.8948C195.172 20.8948 196.137 21.2318 197.103 21.8159L197.014 24.1075H195.845L195.486 22.3102C194.992 22.063 194.474 21.9283 193.936 21.9283C192.565 21.9283 191.846 22.5349 191.846 23.456C191.846 24.4445 192.385 24.8265 193.913 25.3881L194.61 25.6352C196.857 26.4665 197.71 27.5224 197.71 28.9378ZM204.62 21.9283C206.014 21.9283 207.069 23.0741 207.069 24.3546C207.069 25.0062 206.822 25.5229 205.744 25.5229H201.655C201.902 22.9168 203.362 21.9283 204.62 21.9283ZM204.755 20.8948C201.946 20.8948 199.588 23.1864 199.588 26.6238C199.588 30.0612 201.565 32.1506 204.598 32.1506C206.642 32.1506 208.081 31.1396 208.911 29.5444L208.373 29.1176C207.563 30.0612 206.688 30.6902 205.249 30.6902C203.093 30.6902 201.655 29.2299 201.61 26.4665H208.777C208.867 26.1745 208.934 25.7251 208.934 25.2084C208.934 22.4899 207.092 20.8948 204.755 20.8948ZM218.904 28.9378C218.904 30.6453 217.421 32.1506 214.523 32.1506C213.265 32.1506 212.276 31.8585 211.175 31.2969L211.086 28.8255H212.322L212.748 30.7801C213.287 31.0272 213.871 31.1396 214.568 31.1396C216.275 31.1396 217.084 30.4431 217.084 29.4321C217.084 28.466 216.41 27.9718 214.994 27.4775L213.961 27.0956C212.322 26.489 211.243 25.5903 211.243 24.0626C211.243 22.4225 212.635 20.8947 215.152 20.8947C216.365 20.8947 217.331 21.2318 218.297 21.8159L218.208 24.1075H217.039L216.679 22.3102C216.186 22.063 215.668 21.9282 215.13 21.9282C213.759 21.9282 213.04 22.5349 213.04 23.456C213.04 24.4445 213.579 24.8265 215.107 25.3881L215.804 25.6352C218.051 26.4665 218.904 27.5224 218.904 28.9378Z" fill="#464646"/>
</svg>
