<svg width="197" height="40" viewBox="0 0 197 40" fill="none" xmlns="http://www.w3.org/2000/svg">
<path d="M8 15.8615C8 17.4514 9.28785 18.7402 10.8765 18.7402C12.4652 18.7402 13.753 17.4514 13.753 15.8615C13.753 14.2717 12.4652 12.9829 10.8765 12.9829C9.28785 12.9829 8 14.2717 8 15.8615Z" fill="#464646"/>
<path d="M8 30.2552C8 31.8451 9.28785 33.1339 10.8765 33.1339C12.4652 33.1339 13.753 31.8451 13.753 30.2552C13.753 28.6653 12.4652 27.3765 10.8765 27.3765C9.28785 27.3765 8 28.6653 8 30.2552Z" fill="#464646"/>
<path d="M9.0791 23.0585C9.0791 24.0522 9.88402 24.8577 10.8769 24.8577C11.8699 24.8577 12.6748 24.0522 12.6748 23.0585C12.6748 22.0648 11.8699 21.2593 10.8769 21.2593C9.88402 21.2593 9.0791 22.0648 9.0791 23.0585Z" fill="#464646"/>
<path d="M9.0791 8.66491C9.0791 9.65866 9.88402 10.4642 10.8769 10.4642C11.8699 10.4642 12.6748 9.65866 12.6748 8.66491C12.6748 7.67125 11.8699 6.86572 10.8769 6.86572C9.88402 6.86572 9.0791 7.67125 9.0791 8.66491Z" fill="#464646"/>
<path d="M19.0371 25.721C19.0371 27.3108 20.325 28.5997 21.9135 28.5997C23.5023 28.5997 24.7902 27.3108 24.7902 25.721C24.7902 24.1312 23.5023 22.8423 21.9135 22.8423C20.325 22.8423 19.0371 24.1312 19.0371 25.721Z" fill="#464646"/>
<path d="M20.1182 18.5243C20.1182 19.518 20.9232 20.3235 21.916 20.3235C22.909 20.3235 23.7139 19.518 23.7139 18.5243C23.7139 17.5306 22.909 16.7251 21.916 16.7251C20.9232 16.7251 20.1182 17.5306 20.1182 18.5243Z" fill="#464646"/>
<path d="M20.1182 11.3275C20.1182 12.3212 20.9232 13.1268 21.916 13.1268C22.909 13.1268 23.7139 12.3212 23.7139 11.3275C23.7139 10.3338 22.909 9.52832 21.916 9.52832C20.9232 9.52832 20.1182 10.3338 20.1182 11.3275Z" fill="#464646"/>
<path d="M30.0771 15.8615C30.0771 17.4514 31.365 18.7402 32.9537 18.7402C34.5424 18.7402 35.8302 17.4514 35.8302 15.8615C35.8302 14.2717 34.5424 12.9829 32.9537 12.9829C31.365 12.9829 30.0771 14.2717 30.0771 15.8615Z" fill="#464646"/>
<path d="M31.1562 8.66491C31.1562 9.65866 31.9611 10.4642 32.9541 10.4642C33.9469 10.4642 34.7519 9.65866 34.7519 8.66491C34.7519 7.67125 33.9469 6.86572 32.9541 6.86572C31.9611 6.86572 31.1562 7.67125 31.1562 8.66491Z" fill="#464646"/>
<path d="M31.1562 23.0585C31.1562 24.0522 31.9611 24.8577 32.9541 24.8577C33.9469 24.8577 34.7519 24.0522 34.7519 23.0585C34.7519 22.0648 33.9469 21.2593 32.9541 21.2593C31.9611 21.2593 31.1562 22.0648 31.1562 23.0585Z" fill="#464646"/>
<path d="M31.1562 30.2548C31.1562 31.2484 31.9611 32.054 32.9541 32.054C33.9469 32.054 34.7519 31.2484 34.7519 30.2548C34.7519 29.2611 33.9469 28.4556 32.9541 28.4556C31.9611 28.4556 31.1562 29.2611 31.1562 30.2548Z" fill="#464646"/>
<path fill-rule="evenodd" clip-rule="evenodd" d="M88.0906 20.7712C88.0906 21.6194 88.0726 22.8915 88.0529 23.8552L86.6084 24.1251V24.819H91.0766V24.1251L89.7478 23.8552C89.7281 22.8915 89.7092 21.6194 89.7092 20.7712V18.0535C90.6916 17.1668 91.4812 16.8006 92.4251 16.8006C93.561 16.8006 94.0042 17.3595 94.0042 19.1329V20.7712C94.0042 21.6579 93.9853 22.9107 93.9656 23.8745L92.5597 24.1251V24.819H97.0278V24.1251L95.6802 23.8552C95.6604 22.8915 95.6416 21.6579 95.6416 20.7712V18.9787C95.6416 16.4536 94.8323 15.4127 93.176 15.4127C91.963 15.4127 90.5948 16.1452 89.6518 17.2054V13.466L89.7281 10.7289L89.4589 10.5747L86.5115 11.4421V12.1167L88.0906 12.3095V20.7712ZM73.4602 13.2925C74.1725 13.2925 74.7503 12.7721 74.7503 12.0589C74.7503 11.3071 74.1725 10.8252 73.4602 10.8252C72.728 10.8252 72.1694 11.3071 72.1694 12.0589C72.1694 12.7721 72.728 13.2925 73.4602 13.2925ZM75.6554 24.1251L74.3077 23.8552C74.2878 22.8914 74.2686 21.6193 74.2686 20.7712V18.2269L74.3262 15.6055L74.0373 15.4127L71.0716 16.5886V17.2632L72.6127 17.4367C72.6511 18.2077 72.6703 18.8052 72.6703 19.8653V20.7712C72.6703 21.6193 72.6511 22.8914 72.6312 23.8552L71.187 24.1251V24.819H75.6554V24.1251ZM57.0232 24.9539H56.1951L52.863 14.9501L49.7238 24.9539H48.8954L45.4285 12.907L43.8301 12.7142V11.924H49.0689V12.7142L47.2968 12.9262L49.6659 21.7928L52.5935 12.9455L50.6673 12.7142V11.924H55.9062V12.7142L53.961 12.9455L56.8309 21.87L59.2767 12.9648L57.5242 12.7142V11.924H61.8962V12.7142L60.2784 12.9455L57.0232 24.9539ZM67.9757 18.3811C67.9757 17.2825 67.0703 16.2994 65.8763 16.2994C64.7976 16.2994 63.5458 17.1475 63.3337 19.3834H66.8392C67.7637 19.3834 67.9757 18.9401 67.9757 18.3811ZM61.5619 20.3279C61.5619 17.3788 63.5843 15.4127 65.9917 15.4127C67.9947 15.4127 69.5743 16.7813 69.5743 19.1136C69.5743 19.5569 69.5164 19.9424 69.4395 20.193H63.2953C63.3337 22.5638 64.5665 23.8166 66.4155 23.8166C67.6482 23.8166 68.3994 23.277 69.0927 22.4674L69.5549 22.8336C68.8422 24.2022 67.6097 25.0696 65.857 25.0696C63.2568 25.0696 61.5619 23.277 61.5619 20.3279ZM82.7794 18.516C82.7794 17.1475 82.0856 16.203 80.8915 16.203C79.6783 16.203 78.9467 17.1861 78.9467 18.5932C78.9467 20.0002 79.6206 20.964 80.8147 20.964C82.0472 20.964 82.7794 19.9424 82.7794 18.516ZM78.8692 21.2916C77.9449 20.7905 77.3863 19.8845 77.3863 18.5739C77.3863 16.55 78.8692 15.4127 80.8723 15.4127C81.855 15.4127 82.7026 15.6633 83.3188 16.1645L85.4949 15.4127L85.7837 15.6055V16.8199H83.8966C84.1855 17.2825 84.3392 17.88 84.3392 18.5739C84.3392 20.5977 82.8563 21.735 80.8531 21.735C80.3336 21.735 79.8519 21.6579 79.4278 21.5229C79.1005 21.947 78.9467 22.3132 78.9467 22.7566C78.9467 23.277 79.1581 23.6046 80.0633 23.6046H82.5866C84.705 23.6046 85.6877 24.5298 85.6877 26.0911C85.6877 27.7681 84.0888 29.4257 80.9306 29.4257C78.1377 29.4257 76.9436 28.462 76.9436 27.0934C76.9436 26.2646 77.4055 25.59 78.8308 24.8961C77.9833 24.6648 77.5599 24.1829 77.5599 23.4312C77.5599 22.8336 77.9064 22.1783 78.8692 21.2916ZM78.5227 26.7851C78.5227 28.0379 79.4861 28.5391 81.0075 28.5391C83.1068 28.5391 84.2432 27.6718 84.2432 26.5923C84.2432 25.7442 83.7038 25.0888 82.3169 25.0888H80.0633C79.7936 25.0888 79.5245 25.0696 79.2741 25.0503C78.7347 25.6285 78.5227 26.1489 78.5227 26.7851ZM100.913 16.6849V22.6602C100.913 23.6432 101.317 24.0673 101.972 24.0673C102.396 24.0673 102.781 23.8938 103.263 23.5469L103.725 24.048C103.224 24.7034 102.435 25.0696 101.452 25.0696C100.104 25.0696 99.2567 24.3757 99.2567 22.8723C99.2567 22.6581 99.261 22.459 99.2644 22.2379C99.2696 21.9619 99.2756 21.6514 99.2756 21.2339V16.6849H97.6776V15.8369L99.3905 15.6248L99.892 13.042H101.048L100.952 15.6634H103.532V16.6849H100.913ZM107.62 25.0696C110.104 25.0696 111.376 23.7781 111.376 22.3132C111.376 21.0989 110.644 20.193 108.718 19.4798L108.12 19.2678C106.811 18.7859 106.348 18.4582 106.348 17.6101C106.348 16.8199 106.965 16.2994 108.14 16.2994C108.602 16.2994 109.045 16.415 109.469 16.6271L109.776 18.1691H110.779L110.856 16.203C110.028 15.7019 109.199 15.4127 108.16 15.4127C106.002 15.4127 104.808 16.7235 104.808 18.1306C104.808 19.4412 105.732 20.2123 107.139 20.7327L108.024 21.0603C109.237 21.4844 109.815 21.9084 109.815 22.7373C109.815 23.6046 109.122 24.2022 107.658 24.2022C107.061 24.2022 106.561 24.1058 106.098 23.8938L105.732 22.2168H104.673L104.75 24.3371C105.694 24.819 106.541 25.0696 107.62 25.0696ZM120.023 14.102C120.023 14.7959 120.178 15.3935 120.889 16.2802C121.063 16.5115 121.237 16.7235 121.41 16.9162C122.604 16.0874 123.452 15.2392 123.452 14.1213C123.452 13.0034 122.72 12.3095 121.776 12.3095C120.793 12.3095 120.023 13.0805 120.023 14.102ZM129.595 24.0287L129.519 24.8768C128.941 25.0117 128.556 25.0696 128.055 25.0696C127.034 25.0696 126.437 24.8383 125.802 24.183C125.688 24.0508 125.575 23.9281 125.464 23.8076L125.463 23.8069C125.348 23.6817 125.235 23.5587 125.127 23.4312C124.28 24.3564 123.047 25.0696 121.198 25.0696C118.791 25.0696 117.134 23.5083 117.134 21.5615C117.134 19.8268 118.116 18.5353 120.042 17.5716C120.033 17.5523 120.018 17.5379 120.004 17.5235C119.989 17.509 119.975 17.4945 119.965 17.4752C119.002 16.3765 118.636 15.3935 118.636 14.3719C118.636 12.6757 119.985 11.6349 121.795 11.6349C123.702 11.6349 124.722 12.6564 124.722 14.102C124.722 15.432 123.837 16.3765 121.872 17.4367C122.276 17.8993 122.739 18.4197 123.413 19.1521C123.94 19.7331 124.433 20.2597 124.931 20.7941C125.16 21.0398 125.391 21.2873 125.628 21.5422C126.341 20.3472 126.88 19.0944 127.226 17.5716L125.705 17.321V16.55H129.615V17.321L128.151 17.5908C127.708 19.3449 127.034 20.7712 126.148 22.1012C126.362 22.3248 126.581 22.5599 126.811 22.8066L126.812 22.8086L126.813 22.8091C127.097 23.1144 127.398 23.4374 127.728 23.7781L129.595 24.0287ZM124.569 22.8144C123.875 22.0241 123.259 21.3302 122.604 20.5978C121.737 19.5377 121.141 18.8438 120.504 18.1113C119.176 18.9209 118.81 20.0774 118.81 21.0411C118.81 22.4481 119.849 23.836 121.718 23.836C122.797 23.836 123.837 23.4698 124.569 22.8144ZM137.63 18.8438C137.63 20.5207 137.63 22.1976 137.591 23.8167L135.819 24.0287V24.819H141.116C144.814 24.819 146.258 23.0457 146.258 21.2916C146.258 19.7304 145.18 18.4775 142.618 18.1113C144.755 17.668 145.603 16.4343 145.603 15.0658C145.603 13.2347 144.081 11.924 141.405 11.924H135.819V12.7142L137.591 12.9262C137.63 14.5839 137.63 16.2416 137.63 17.8993V18.8438ZM140.519 18.5932C143.177 18.5932 144.333 19.4991 144.333 21.2916C144.333 22.9879 143.138 23.9131 140.673 23.9131H139.498C139.459 22.2747 139.459 20.617 139.459 18.5932H140.519ZM140.827 12.8106C142.791 12.8106 143.792 13.4467 143.792 15.2007C143.792 16.9548 142.791 17.7066 140.46 17.7066H139.459C139.459 16.1837 139.459 14.4683 139.498 12.8106H140.827ZM151.322 12.0589C151.322 12.7721 150.744 13.2925 150.031 13.2925C149.3 13.2925 148.741 12.7721 148.741 12.0589C148.741 11.3071 149.3 10.8252 150.031 10.8252C150.744 10.8252 151.322 11.3071 151.322 12.0589ZM150.879 23.8552L152.226 24.1251V24.819H147.758V24.1251L149.203 23.8552C149.222 22.8914 149.241 21.6193 149.241 20.7712V19.8653C149.241 18.8052 149.222 18.2077 149.183 17.4367L147.643 17.2632V16.5886L150.609 15.4127L150.898 15.6055L150.84 18.2269V20.7712C150.84 21.6193 150.859 22.8914 150.879 23.8552ZM160.834 25.0117C161.507 25.0117 162.047 24.7611 162.509 24.0094L162.124 23.5853C161.912 23.8359 161.699 24.0094 161.373 24.0094C160.949 24.0094 160.679 23.7011 160.679 22.8722V18.7666C160.679 16.338 159.716 15.4127 157.694 15.4127C155.729 15.4127 154.304 16.338 153.938 17.8029C153.996 18.304 154.304 18.5932 154.844 18.5932C155.364 18.5932 155.672 18.2655 155.845 17.668L156.211 16.415C156.616 16.3187 156.962 16.2994 157.251 16.2994C158.522 16.2994 159.062 16.7621 159.062 18.6317V19.1136C158.291 19.2871 157.482 19.5376 156.885 19.7497C154.285 20.6941 153.688 21.5615 153.688 22.6601C153.688 24.26 154.863 25.0696 156.268 25.0696C157.405 25.0696 158.041 24.5684 159.1 23.5276C159.254 24.4335 159.909 25.0117 160.834 25.0117ZM155.402 22.3711C155.402 21.7928 155.614 21.0603 157.29 20.405C157.694 20.2508 158.387 20.0195 159.062 19.8267V22.7951C157.964 23.5661 157.597 23.7974 156.942 23.7974C156.057 23.7974 155.402 23.3926 155.402 22.3711ZM170.228 22.3132C170.228 23.7781 168.957 25.0696 166.473 25.0696C165.394 25.0696 164.546 24.819 163.603 24.3371L163.526 22.2168H164.586L164.951 23.8938C165.413 24.1058 165.914 24.2022 166.511 24.2022C167.975 24.2022 168.668 23.6046 168.668 22.7373C168.668 21.9084 168.09 21.4844 166.877 21.0603L165.992 20.7327C164.586 20.2123 163.661 19.4412 163.661 18.1306C163.661 16.7235 164.854 15.4128 167.012 15.4128C168.053 15.4128 168.88 15.7019 169.708 16.203L169.632 18.1691H168.63L168.322 16.6271C167.898 16.415 167.454 16.2995 166.993 16.2995C165.818 16.2995 165.201 16.8199 165.201 17.6101C165.201 18.4582 165.663 18.7859 166.973 19.2678L167.571 19.4798C169.497 20.193 170.228 21.0989 170.228 22.3132ZM176.152 16.2995C177.347 16.2995 178.252 17.2825 178.252 18.3811C178.252 18.9401 178.04 19.3834 177.116 19.3834H173.61C173.822 17.1475 175.074 16.2995 176.152 16.2995ZM176.268 15.4128C173.86 15.4128 171.838 17.3788 171.838 20.3279C171.838 23.277 173.533 25.0696 176.133 25.0696C177.886 25.0696 179.119 24.2022 179.831 22.8336L179.37 22.4674C178.675 23.277 177.925 23.8166 176.692 23.8166C174.843 23.8166 173.61 22.5638 173.572 20.193H179.716C179.793 19.9424 179.851 19.5569 179.851 19.1136C179.851 16.7813 178.271 15.4128 176.268 15.4128ZM188.398 22.3132C188.398 23.7781 187.126 25.0696 184.642 25.0696C183.563 25.0696 182.716 24.819 181.772 24.3371L181.695 22.2168H182.755L183.12 23.8938C183.582 24.1058 184.083 24.2022 184.681 24.2022C186.144 24.2022 186.837 23.6046 186.837 22.7373C186.837 21.9084 186.26 21.4844 185.046 21.0603L184.16 20.7327C182.755 20.2123 181.83 19.4412 181.83 18.1306C181.83 16.7235 183.023 15.4127 185.181 15.4127C186.221 15.4127 187.049 15.7019 187.877 16.203L187.801 18.1691H186.799L186.49 16.6271C186.068 16.415 185.624 16.2994 185.162 16.2994C183.987 16.2994 183.371 16.8199 183.371 17.6101C183.371 18.4582 183.833 18.7859 185.143 19.2678L185.74 19.4798C187.666 20.193 188.398 21.0989 188.398 22.3132Z" fill="#464646"/>
</svg>
