<svg width="630" height="630" viewBox="0 0 630 630" fill="none" xmlns="http://www.w3.org/2000/svg">
<g clip-path="url(#clip0_432_239)">
<path d="M315.005 625.009C486.215 625.009 625.009 486.215 625.009 315.005C625.009 143.795 486.215 5.00146 315.005 5.00146C143.795 5.00146 5.00134 143.795 5.00134 315.005C5.00134 486.215 143.795 625.009 315.005 625.009Z" fill="white" stroke="#240642" stroke-width="10" stroke-miterlimit="10"/>
<mask id="mask0_432_239" style="mask-type:luminance" maskUnits="userSpaceOnUse" x="5" y="5" width="621" height="621">
<path d="M315.005 625.009C486.215 625.009 625.009 486.215 625.009 315.005C625.009 143.795 486.215 5.00146 315.005 5.00146C143.795 5.00146 5.00134 143.795 5.00134 315.005C5.00134 486.215 143.795 625.009 315.005 625.009Z" fill="white"/>
</mask>
<g mask="url(#mask0_432_239)">
<path d="M-335.451 -236.144C-335.451 -236.144 -439.519 -70.4489 -307.793 69.1387C-176.068 208.726 -200.694 351.795 -200.694 351.795C-200.694 351.795 -113.451 367.229 -97.2362 314.725C-97.2362 314.725 -42.8016 417.793 39.1906 353.395C39.1906 353.395 104.748 487.502 255.839 404.189C406.93 320.877 479.129 440.929 479.129 440.929C479.129 440.929 514.919 401.548 516.559 361.718C516.559 361.718 768.697 551.959 823.142 311.254L988.287 -38.3002L-198.414 -598.961C-198.414 -598.961 -491.573 -378.662 -335.451 -236.144Z" fill="#240642"/>
</g>
<path d="M344.513 555.06C343.343 553.619 342.702 551.819 342.702 549.969V536.585C342.702 527.082 338.221 521.641 330.309 521.641C319.766 521.641 317.726 527.382 314.915 532.274C314.775 532.514 314.475 532.594 314.235 532.464L313.645 532.154C313.394 532.024 313.304 531.704 313.444 531.454L314.245 530.053C314.755 529.183 315.025 528.203 315.025 527.192V525.172C315.025 523.872 313.965 522.811 312.664 522.811H301.181C299.451 522.811 298.52 524.842 299.651 526.152L301.321 528.103C303.012 530.063 303.932 532.564 303.932 535.155V549.048C303.932 550.589 303.602 552.109 302.962 553.519L301.631 556.45C301.021 557.791 302.001 559.311 303.472 559.311H317.816C319.526 559.311 320.466 557.32 319.376 556L318.216 554.59C317.035 553.149 316.385 551.339 316.385 549.468V541.796C316.385 539.116 317.025 536.465 318.366 534.144C319.996 531.333 322.117 529.893 324.788 529.893C328.368 529.893 330.299 532.444 330.299 537.055V549.508C330.299 551.009 329.989 552.499 329.379 553.88L328.238 556.46C327.648 557.801 328.629 559.301 330.089 559.301H343.703C345.403 559.301 346.343 557.32 345.273 556L344.503 555.05L344.513 555.06Z" fill="#240642"/>
<path d="M370.08 553.97C369.62 554.06 369.17 554.12 368.779 554.13C365.078 554.13 363.298 551.799 363.298 547.008V527.963H370.04C370.82 527.963 371.45 527.332 371.45 526.552V524.242C371.45 523.461 370.82 522.831 370.04 522.831H361.417C361.177 522.831 360.977 522.631 360.977 522.391V521.741C360.977 521.501 361.167 521.301 361.407 521.301H362.288C362.848 521.301 363.298 520.851 363.298 520.291V515.249C363.298 514.289 362.518 513.509 361.557 513.509H356.596C355.696 513.509 354.896 514.099 354.626 514.959C354.055 516.85 352.675 522.821 348.194 522.821H346.864C346.083 522.821 345.453 523.452 345.453 524.232V526.542C345.453 527.323 346.083 527.953 346.864 527.953H350.975V547.478C350.975 555.42 355.016 559.801 362.338 559.801C365.989 559.801 369.31 558.471 371.32 556.06C372.1 555.12 371.29 553.72 370.09 553.95L370.08 553.97Z" fill="#240642"/>
<path d="M298.08 552.539C295.9 552.929 294.419 551.219 294.419 548.538V535.615C294.419 526.402 288.578 521.451 277.235 521.451C267.072 521.451 260.14 525.352 260.12 531.254C260.12 532.314 260.51 533.354 261.1 534.354C262.041 535.795 263.741 536.765 265.692 536.765C268.652 536.765 271.063 534.524 271.063 531.774C271.063 528.943 268.662 527.513 267.942 527.242C268.462 526.802 270.683 525.092 273.964 525.092C279.185 525.092 281.986 529.053 281.986 535.215V537.665C278.065 537.665 273.674 538.055 270.583 538.816C263.021 540.466 259.03 544.777 259.03 550.139C259.03 556.19 263.841 559.961 271.473 559.961C276.765 559.961 281.166 558.111 283.226 555.01C284.527 557.621 287.417 559.271 291.128 559.271C295.93 559.271 298.45 556.76 299.241 553.79C299.451 552.939 298.801 552.409 298.08 552.549V552.539ZM281.976 549.639C281.566 552.519 279.575 554.24 276.685 554.24C273.524 554.24 271.393 552.109 271.393 548.738C271.393 546.128 272.563 543.847 275.104 542.747C276.825 541.986 279.495 541.576 281.976 541.506V549.639Z" fill="#240642"/>
<path d="M413.001 552.539C410.821 552.929 409.34 551.219 409.34 548.538V535.615C409.34 526.402 403.499 521.451 392.156 521.451C381.993 521.451 375.061 525.352 375.041 531.254C375.041 532.314 375.431 533.354 376.021 534.354C376.962 535.795 378.662 536.765 380.613 536.765C383.573 536.765 385.984 534.524 385.984 531.774C385.984 528.943 383.583 527.513 382.863 527.242C383.383 526.802 385.604 525.092 388.885 525.092C394.106 525.092 396.907 529.053 396.907 535.215V537.665C392.986 537.665 388.595 538.055 385.504 538.816C377.942 540.466 373.951 544.777 373.951 550.139C373.951 556.19 378.762 559.961 386.394 559.961C391.686 559.961 396.087 558.111 398.147 555.01C399.448 557.621 402.338 559.271 406.049 559.271C410.851 559.271 413.371 556.76 414.162 553.79C414.372 552.939 413.722 552.409 413.001 552.549V552.539ZM396.897 549.639C396.487 552.519 394.496 554.24 391.606 554.24C388.445 554.24 386.314 552.109 386.314 548.738C386.314 546.128 387.484 543.847 390.025 542.747C391.746 541.986 394.416 541.576 396.897 541.506V549.639Z" fill="#240642"/>
<path d="M260.97 510.658H254.739C253.398 510.658 252.588 512.148 253.328 513.269L254.399 514.889C255.309 516.279 255.489 518.02 254.879 519.56L243.696 547.698C243.186 549.048 242.655 549.979 242.425 550.209C242.295 550.329 242.085 550.369 241.925 550.249L241.335 549.779C241.145 549.638 241.155 549.438 241.335 549.238C241.665 548.798 241.865 548.278 241.985 547.798C242.125 547.228 242.075 546.618 241.865 546.067L232.393 521.031C231.762 519.38 231.792 517.55 232.463 515.919L233.473 513.449C234.013 512.118 233.043 510.658 231.602 510.658H216.338C214.278 510.658 213.207 513.109 214.608 514.619L215.578 515.669C217.359 517.61 218.769 519.85 219.739 522.301L233.343 557.841C233.703 558.741 234.573 559.331 235.533 559.331H243.066C244.036 559.331 244.906 558.741 245.256 557.841L262.871 513.419C263.401 512.088 262.421 510.648 260.99 510.648L260.97 510.658Z" fill="#240642"/>
<path d="M52.3641 287.898C60.8464 151.541 178.268 44.7922 314.245 45.0123C397.167 44.4221 477.659 84.5429 527.022 151.171C536.785 164.304 545.317 178.308 552.469 192.962C566.673 222.3 575.355 254.219 577.476 286.427C577.536 290.168 572.294 290.919 571.504 287.068C555.75 176.828 470.227 86.1534 360.217 67.0182C251.078 46.8728 139.518 101.718 87.4436 199.684C72.5896 227.091 62.8569 257.32 58.3357 288.518C58.0957 290.158 56.5752 291.299 54.9348 291.059C53.3844 290.839 52.2741 289.438 52.3641 287.908V287.898Z" fill="#AC55FF"/>
<path d="M170.041 494.117H175.003V479.55H181.78C192.665 479.55 196.667 474.481 196.667 468.131C196.667 461.781 192.665 456.765 181.886 456.765H170.041V494.117ZM175.003 475.495V460.928H181.833C188.983 460.928 191.438 464.022 191.438 468.238C191.438 472.453 188.983 475.495 181.833 475.495H175.003ZM214.09 494.864C223.001 494.864 228.337 488.888 228.337 480.137C228.337 471.333 223.001 465.356 214.09 465.356C205.126 465.356 199.79 471.333 199.79 480.137C199.79 488.888 205.126 494.864 214.09 494.864ZM214.09 490.969C208.381 490.969 204.699 487.181 204.699 480.137C204.699 473.094 208.381 469.252 214.09 469.252C219.8 469.252 223.428 473.094 223.428 480.137C223.428 487.181 219.8 490.969 214.09 490.969ZM267.778 466.103L261.161 488.888L254.544 466.103H249.689L243.072 488.621L236.509 466.103H231.44L240.297 494.117H245.313L251.823 471.813L258.44 494.117H263.402L272.313 466.103H267.778ZM288.742 465.356C280.791 465.356 275.402 470.959 275.402 479.977C275.402 488.728 280.417 494.864 289.062 494.864C296.265 494.864 300.481 490.542 301.495 485.313L297.119 484.566C296.052 488.942 293.17 490.969 289.062 490.969C282.872 490.969 280.204 486.434 280.097 480.991H301.708C302.242 471.76 297.279 465.356 288.742 465.356ZM280.097 477.469C280.364 473.574 283.085 469.198 288.742 469.198C294.504 469.198 296.906 473.734 296.906 477.469H280.097ZM308.273 494.117H312.969V478.803C312.969 472.026 316.01 469.572 320.439 469.572C321.56 469.572 322.68 469.732 323.854 470.052V465.89C323 465.57 322.093 465.356 320.866 465.356C317.451 465.356 314.569 467.011 312.969 470.746V466.103H308.273V494.117ZM339.392 465.356C331.441 465.356 326.052 470.959 326.052 479.977C326.052 488.728 331.068 494.864 339.712 494.864C346.916 494.864 351.131 490.542 352.145 485.313L347.769 484.566C346.702 488.942 343.821 490.969 339.712 490.969C333.522 490.969 330.854 486.434 330.748 480.991H352.358C352.892 471.76 347.929 465.356 339.392 465.356ZM330.748 477.469C331.014 473.574 333.736 469.198 339.392 469.198C345.155 469.198 347.556 473.734 347.556 477.469H330.748ZM379.2 456.765V470.959C377.706 467.491 374.344 465.356 369.809 465.356C362.392 465.356 357.056 471.333 357.056 480.137C357.056 488.888 362.285 494.864 369.809 494.864C374.398 494.864 377.759 492.623 379.2 488.995V494.117H383.789V456.765H379.2ZM370.716 490.916C365.913 490.916 362.018 487.447 362.018 480.137C362.018 472.72 365.913 469.252 370.716 469.252C375.518 469.252 379.467 472.72 379.467 480.137C379.467 487.447 375.518 490.916 370.716 490.916ZM420.026 465.356C415.49 465.356 411.755 467.544 409.994 471.013V456.765H405.405V494.117H409.46L409.994 489.422C411.968 492.837 415.383 494.864 419.919 494.864C427.709 494.864 432.245 488.621 432.245 480.084C432.245 471.333 427.443 465.356 420.026 465.356ZM418.638 490.916C413.836 490.916 409.887 487.447 409.887 480.084C409.887 472.72 413.782 469.252 418.638 469.252C423.441 469.252 427.336 472.72 427.336 480.084C427.336 487.447 423.441 490.916 418.638 490.916ZM458.621 466.103L449.23 488.141L439.678 466.103H434.449L446.615 493.477L445.708 495.185C443.627 499.293 442.666 500.734 439.678 500.734C438.558 500.734 437.01 500.361 435.676 499.827V504.042C437.064 504.629 438.718 505.003 439.998 505.003C444.961 505.003 447.362 502.495 450.457 495.451L463.37 466.103H458.621Z" fill="black"/>
<path d="M163.702 253.074L175.727 247.276C182.062 250.926 190.651 253.181 198.275 253.181C213.736 253.181 224.15 244.055 224.15 230.634C224.15 219.36 216.635 211.952 199.133 205.617L187.86 201.537C177.982 197.672 174.117 193.592 174.117 187.794C174.117 181.996 178.089 178.345 184.639 178.345C191.081 178.345 198.811 182.103 208.26 190.048L217.493 197.886V174.48L205.361 180.171C198.704 175.232 190.973 172.547 183.565 172.547C170.681 172.547 161.555 180.922 161.555 192.84C161.555 203.684 169.07 211.844 183.995 217.32L196.449 221.722C207.508 226.017 211.373 229.775 211.373 236.217C211.373 243.196 206.757 247.168 198.704 247.168C191.296 247.168 182.921 243.84 174.224 237.398L163.702 229.023V253.074ZM232.821 213.025C232.821 238.042 246.564 253.181 269.004 253.181C291.659 253.181 305.51 238.042 305.51 213.025C305.51 187.794 291.659 172.547 269.004 172.547C246.994 172.547 232.821 188.331 232.821 213.025ZM288.867 212.811C288.867 235.787 282.103 247.491 269.004 247.491C256.12 247.491 249.463 236.002 249.463 212.811C249.463 189.726 256.227 178.238 269.004 178.238C281.889 178.238 288.867 189.834 288.867 212.811ZM373.418 234.284C368.479 243.088 361.286 247.705 353.018 247.705C339.49 247.705 332.296 235.895 332.296 212.918C332.296 190.371 339.168 178.023 351.837 178.023C359.031 178.023 365.366 182.211 370.305 190.478L376.317 200.463V173.621L368.909 177.057C364.614 174.158 357.957 172.547 351.086 172.547C329.827 172.547 315.654 188.653 315.654 214.206C315.654 238.901 328.646 253.181 351.515 253.181C360.319 253.181 369.875 251.034 377.928 247.168V226.446L373.418 234.284ZM469.246 252V225.802L457.328 238.042H434.351L441.33 231.707C460.978 216.998 468.279 206.905 468.279 195.095C468.279 181.137 457.757 172.547 441.222 172.547C423.936 172.547 411.803 181.996 411.803 194.88C411.803 200.571 414.38 203.684 418.782 203.684C423.292 203.684 425.439 200.678 425.547 193.914C425.761 184.143 430.378 178.238 438.753 178.238C447.02 178.238 451.745 184.251 451.745 195.524C451.745 208.623 446.054 219.789 433.814 231.063L411.159 252H469.246Z" fill="white"/>
<path d="M214.637 323H223.875V286.544H236.709V279.6H201.803V286.544H214.637V323ZM258.022 323H267.012V303.284L283.442 279.6H274.204L263.106 295.658L252.07 279.6H241.406L258.022 303.222V323ZM291.955 323H301.069V306.88H308.447C320.661 306.88 326.241 301.3 326.241 293.24C326.241 285.118 320.661 279.6 309.005 279.6H291.955V323ZM301.069 300.432V286.544H307.703C314.151 286.544 316.817 289.21 316.817 293.488C316.817 297.766 314.151 300.432 307.703 300.432H301.069ZM335.561 323H363.895V315.932H344.613V303.718H362.655V297.27H344.613V286.544H363.895V279.6H335.561V323ZM392.197 323H401.373V279.6H392.197V323ZM414.006 323H423.182V279.6H414.006V323Z" fill="white"/>
</g>
<defs>
<clipPath id="clip0_432_239">
<rect width="630" height="630" fill="white"/>
</clipPath>
</defs>
</svg>
